<?xml version="1.0" encoding="utf-8"?>
<!-- Generator: Adobe Illustrator 25.2.3, SVG Export Plug-In . SVG Version: 6.00 Build 0)  -->
<svg version="1.1" id="Capa_1" xmlns="http://www.w3.org/2000/svg" xmlns:xlink="http://www.w3.org/1999/xlink" x="0px" y="0px"
	 viewBox="0 0 274.1 396" style="enable-background:new 0 0 274.1 396;" xml:space="preserve">
<style type="text/css">
	.st0{fill:#2D90DD;}
	.st1{fill:#2C95E6;}
	.st2{fill:#36A3F7;}
	.st3{opacity:6.600000e-02;clip-path:url(#SVGID_2_);}
	.st4{fill:#0A0217;}
	.st5{fill:#DFF5FC;}
	.st6{fill:#863F31;}
	.st7{fill:#A14F41;}
	.st8{fill:#FEFEFE;}
	.st9{fill:#B85D4F;}
	.st10{fill:#24CFF8;}
	.st11{fill:#F1FAFE;}
	.st12{fill:#F72F41;}
	.st13{fill:#DF2334;}
	.st14{fill:#B85C4F;}
	.st15{fill:#C8EEFC;}
	.st16{fill:#C76E5C;}
	.st17{fill:#010000;}
	.st18{fill:#E6B629;}
	.st19{fill:#F8C42D;}
</style>
<g id="Grupo_146957" transform="translate(-348 -6389.977)">
	<g id="Grupo_117823" transform="translate(348 6389.977)">
		<g id="Grupo_117820" transform="translate(0 182.416)">
			<path id="Trazado_182973" class="st0" d="M2.9,0v192.4c0,10.3,9.8,18.6,21.9,18.6h224.3c12.1,0,21.9-8.4,21.9-18.6V0h2.9v192.4
				c0,11.7-11.2,21.1-24.9,21.1H24.9c-13.7,0-24.9-9.5-24.9-21.1V0H2.9z"/>
		</g>
		<g id="Grupo_117821" transform="translate(0 0)">
			<path id="Trazado_182974" class="st0" d="M42.3,396v-2.5H24.9l-0.1,1.8l0,0.7H42.3z M59.7,396h17.4v-2.5H59.7V396z M94.5,396
				h17.4v-2.5H94.5V396z M129.3,396h17.4v-2.5h-17.4V396z M164.1,396h17.4v-2.5h-17.4V396z M199,396h17.4v-2.5H199L199,396z
				 M233.8,396h15.4c0.7,0,1.4,0,2.1-0.1l-0.2-2.5c-0.6,0-1.2,0.1-1.9,0.1h-15.4L233.8,396z M7.9,390.3l2-1.8
				c-3.9-2.9-6.4-7.3-6.9-12.2l-2.9,0.2C0.7,382,3.5,387,7.9,390.3L7.9,390.3z M267.5,389.1c4.1-3.6,6.5-8.8,6.5-14.3l-2.9,0
				c-0.1,4.8-2.1,9.4-5.8,12.6L267.5,389.1z M0,361.6h2.9v-14.8H0V361.6z M271.1,360h2.9v-14.8h-2.9V360z M0,332h2.9v-14.8H0V332z
				 M271.1,330.4h2.9v-14.8h-2.9V330.4z M0,302.4h2.9v-14.8H0V302.4z M271.1,300.8h2.9V286h-2.9V300.8z M0,272.8h2.9V258H0V272.8z
				 M271.1,271.2h2.9v-14.8h-2.9V271.2z M0,243.2h2.9v-14.8H0V243.2z M271.1,241.6h2.9v-14.8h-2.9V241.6z M0,213.6h2.9v-14.8H0
				V213.6z M271.1,212h2.9v-14.8h-2.9V212z M0,184h2.9v-14.8H0V184z M271.1,182.4h2.9v-14.8h-2.9V182.4z M0,154.4h2.9v-14.8H0V154.4
				z M271.1,152.7h2.9v-14.8h-2.9V152.7z M0,124.7h2.9v-14.8H0V124.7z M271.1,123.1h2.9v-14.8h-2.9V123.1z M0,95.1h2.9V80.3H0V95.1z
				 M271.1,93.5h2.9V78.7h-2.9V93.5z M0,65.5h2.9V50.7H0V65.5z M271.1,63.9h2.9V49.1h-2.9V63.9z M0,35.9h2.9V21.1H0V35.9z
				 M271.1,34.3h2.9V21.1c0-0.6,0-1.1-0.1-1.7l-2.9,0.2c0,0.5,0.1,1,0.1,1.5V34.3z M8.7,8.5c4-3.5,9-5.6,14.3-6l-0.2-2.5
				c-6,0.3-11.7,2.7-16.2,6.8L8.7,8.5z M264.1,7.4l2-1.8C261.2,1.9,255.3,0,249.2,0l0,2.5C254.6,2.4,259.8,4.2,264.1,7.4z M40.3,2.5
				h17.4V0H40.3V2.5z M75.1,2.5h17.4V0H75.1L75.1,2.5z M110,2.5h17.4V0H110V2.5z M144.8,2.5h17.4V0h-17.4V2.5z M179.6,2.5H197V0
				h-17.4L179.6,2.5z M214.4,2.5h17.4V0h-17.4V2.5z"/>
		</g>
		<path id="Rectángulo_34567" class="st1" d="M23.6,6.5h226.9c8.8,0,16,7.2,16,16v351c0,8.8-7.2,16-16,16H23.6c-8.8,0-16-7.2-16-16
			v-351C7.6,13.7,14.7,6.5,23.6,6.5z"/>
		<g id="Grupo_117822" transform="translate(101.237 44.556)">
			<ellipse id="Elipse_5054" class="st2" cx="35.8" cy="35.8" rx="35.8" ry="35.8"/>
		</g>
	</g>
	<g>
		<defs>
			<path id="SVGID_1_" d="M371.5,6549.9h224.4c8.8,0,16,7.2,16,16v197.5c0,8.8-7.2,16-16,16H371.5c-8.8,0-16-7.2-16-16v-197.5
				C355.6,6557.1,362.7,6549.9,371.5,6549.9z"/>
		</defs>
		<clipPath id="SVGID_2_">
			<use xlink:href="#SVGID_1_"  style="overflow:visible;"/>
		</clipPath>
		<g id="Enmascarar_grupo_79" transform="translate(355.569 6549.902)" class="st3">
			<path id="Trazado_182988" class="st4" d="M170.8,45.4l-257.1,78.4c-9,2.7-14.1,12.3-11.4,21.3c0,0,0,0,0,0l72.1,235.2
				c2.8,9,12.3,14.1,21.4,11.3l257.1-78.4c9-2.7,14.1-12.3,11.4-21.3c0,0,0,0,0,0L192.2,56.8C189.4,47.8,179.8,42.7,170.8,45.4z"/>
		</g>
	</g>
	<g id="Oh27na" transform="translate(-667.228 4486.067)">
		<g id="Grupo_117849" transform="translate(1132.228 1961.3)">
			<path id="Trazado_183000" d="M13,45.9h-0.6c-0.5-0.2-0.9-0.5-1.3-0.8c-0.2-0.2-0.6-0.2-0.8,0c-0.4,0.3-0.9,0.6-1.4,0.8H8.4
				c-0.4,0-0.8-0.4-0.8-0.8c-0.1-0.3-0.3-0.4-0.5-0.4c-1,0-2,0-3,0c-1.6,0-3.1-1-3.8-2.5C0.1,41.7,0,41.1,0,40.6
				c0-6.9,0-13.8,0-20.6C0,14.6,0,9.3,0,4c0-1.3,0.5-2.5,1.5-3.2C2.2,0.2,3,0,3.8,0c10.4,0,20.9,0,31.3,0c0.6-0.1,1.2,0.4,1.3,1
				c0,0.1,0,0.2,0,0.3c0,1,0,2,0,3c0,0.9,0,0.9,0.8,0.9h6.2c0.2,0,0.4,0,0.6,0c0.7,0,1.4,0.5,1.4,1.2c0,0.1,0,0.2,0,0.3
				c0,7.1,0,14.2,0,21.3c0,0.7-0.1,0.9-0.7,1.1c-0.5,0.1-0.9-0.3-0.9-0.7c0,0,0-0.1,0-0.1c0-0.3,0-0.5,0-0.8c0-6.6,0-13.3,0-19.9
				c0-0.8,0-0.8-0.8-0.8c-2,0-4,0-6,0c-0.7,0-0.7,0-0.7,0.7c0,1,0,2,0,3c0,0.6,0,0.7,0.7,0.7c1.1,0,2.1,0,3.2,0
				c0.7,0,1.1,0.3,1.1,0.8c0,0.5-0.4,0.9-1.1,0.9c-1.1,0-2.1,0-3.2,0c-0.6,0-0.6,0-0.6,0.6c0,0.4,0,0.7,0,1.1s0.2,0.5,0.5,0.5
				c1,0,2.1,0,3.1,0c0.2,0,0.4,0,0.6,0c0.4,0.1,0.8,0.4,0.7,0.9c0,0.4-0.4,0.7-0.8,0.7c-1.1,0-2.2,0-3.3,0c-0.8,0-0.8,0-0.8,0.8
				c0,0.3,0,0.7,0,1s0.1,0.5,0.5,0.5c1.1,0,2.1,0,3.2,0c0.2,0,0.4,0,0.5,0c0.4,0,0.8,0.4,0.8,0.8c0,0.4-0.3,0.8-0.8,0.8
				c-0.2,0-0.4,0-0.5,0c-1,0-2.1,0-3.1,0c-0.5,0-0.5,0.1-0.5,0.5c0,0.4,0,0.8,0,1.2c0,0.5,0.1,0.6,0.6,0.6c1,0,2,0,3,0
				c0.2,0,0.3,0,0.5,0c0.4,0,0.8,0.3,0.9,0.7c0,0.4-0.3,0.8-0.8,0.9c-0.3,0.1-0.5,0.1-0.8,0.1c-0.9,0-1.8,0-2.7,0
				c-0.7,0-0.7,0-0.7,0.7c0,0.3,0,0.6,0,0.9c0,0.6,0,0.6,0.6,0.6c1,0,2,0,3,0c0.2,0,0.4,0,0.7,0.1c0.4,0.1,0.7,0.5,0.6,0.9
				c-0.1,0.3-0.3,0.6-0.7,0.6c-0.2,0-0.4,0-0.6,0c-1,0-2.1,0-3.1,0c-0.6,0-0.6,0-0.6,0.6c0,0.4,0,0.7,0,1.1c0,0.6,0,0.6,0.6,0.6
				c1,0,2.1,0,3.1,0c0.2,0,0.4,0,0.6,0c0.3,0.1,0.6,0.3,0.6,0.7c0,0.3-0.2,0.7-0.5,0.8c-0.2,0.1-0.5,0.1-0.7,0.1c-1,0-2.1,0-3.1,0
				c-0.6,0-0.6,0-0.6,0.6c0,0.3,0,0.6,0,0.9c0,0.6-0.4,1.2-1,1.3c-0.5,0-0.9,0.1-1.4,0c-0.3,0-0.4,0.1-0.4,0.4c-0.1,1-0.1,1,1,1
				c0.3,0,0.5,0,0.8,0c2.5,0,5,0,7.4,0c0.2,0,0.3,0,0.4,0c0.5,0,0.5-0.1,0.5-0.5c0-1.4,0-2.9,0-4.3c0-0.7,0.2-1,0.8-1.1
				c0.6,0.1,0.8,0.3,0.8,0.9c0,1.8,0,3.6,0,5.5c0,0.6-0.5,1.2-1.1,1.2c-0.2,0-0.4,0-0.6,0h-6.5c-0.7,0-0.7,0-0.7,0.8
				c0,1.2,0,2.4,0,3.7c0.1,1.6-0.5,2-2,2c-6.5,0-13,0-19.5,0c-0.2,0-0.4,0-0.6,0c-0.2,0-0.4,0.1-0.5,0.3c0,0,0,0,0,0
				C13.8,45.5,13.5,45.8,13,45.9z"/>
			<path id="Trazado_183002" class="st5" d="M44.8,29c-0.1,0.6-0.1,1.2-0.1,1.8c-0.6,0.2-0.7,0.3-0.7,0.9c0,1.6,0,3.1,0,4.7
				c0,0.3-0.1,0.4-0.4,0.4c-2.7,0-5.5,0-8.2,0c-0.2-0.5-0.2-1.1,0-1.7c0.6-0.1,1-0.7,0.9-1.4c0-0.4,0-0.7,0-1.1
				c0-0.3,0.1-0.4,0.4-0.4c1.2,0,2.4,0,3.6,0c0.1,0,0.2,0,0.3,0c0.4,0,0.7-0.3,0.7-0.7c0-0.4-0.3-0.7-0.7-0.6c0,0,0,0,0,0
				c-1.3,0-2.5,0-3.8,0c-0.4,0-0.5-0.1-0.5-0.5c0-0.5,0-1.1,0-1.6c0-0.4,0.1-0.5,0.5-0.5c1.2,0,2.4,0,3.6,0c0.6,0,0.9-0.3,0.9-0.7
				s-0.3-0.7-0.9-0.7c-1.2,0-2.4,0-3.7,0c-0.4,0-0.4-0.1-0.4-0.5c0-0.6,0-1.2,0-1.7c0-0.3,0.1-0.4,0.4-0.4c1.2,0,2.4,0,3.6,0
				c0.2,0,0.3,0,0.5,0c0.4-0.1,0.6-0.4,0.5-0.7c0-0.3-0.3-0.5-0.6-0.6c-0.2,0-0.4,0-0.6,0c-1.1,0-2.2,0-3.3,0
				c-0.4,0-0.5-0.1-0.5-0.5c0-0.5,0-1.1,0-1.6c0-0.3,0.1-0.5,0.4-0.4c1.3,0,2.5,0,3.8,0c0.5,0,0.8-0.3,0.8-0.7s-0.3-0.7-0.8-0.7
				c-0.1,0-0.2,0-0.3,0c-1.1,0-2.3,0-3.4,0c-0.4,0-0.5-0.1-0.5-0.5c0-0.6,0-1.1,0-1.7c0-0.3,0.1-0.4,0.4-0.4c1.3,0,2.6,0,3.9,0
				c0.4,0,0.7-0.3,0.7-0.6c0,0,0,0,0,0c0-0.4-0.3-0.7-0.7-0.7c-0.1,0-0.2,0-0.4,0c-1.2,0-2.4,0-3.5,0c-0.3,0-0.4-0.1-0.4-0.4
				c0-0.6,0-1.2,0-1.8c0-0.3,0.1-0.3,0.4-0.3c1.2,0,2.4,0,3.6,0c0.1,0,0.3,0,0.4,0c0.4,0,0.6-0.3,0.6-0.7c0-0.4-0.3-0.7-0.7-0.7
				c0,0,0,0,0,0c-0.6,0-1.2,0-1.7,0c-0.7,0-1.4,0-2.1,0c-0.3,0-0.4-0.1-0.4-0.4c0-1.3,0-2.5,0-3.8c0-0.3,0.1-0.4,0.4-0.4
				c2.3,0,4.5,0,6.8,0c0.4,0,0.5,0.1,0.5,0.5c0,6.6,0,13.1,0,19.7c0,0.4,0,0.9,0,1.3C44,28.7,44.2,28.9,44.8,29z"/>
			<path id="Trazado_183003" class="st6" d="M34.9,17.6c0,5.2,0,10.4,0,15.6c0,0.4-0.1,0.6-0.6,0.6c-8.6,0-17.2,0-25.7,0
				c-0.4,0-0.5-0.1-0.5-0.5c0-10.4,0-20.9,0-31.3c0-0.4,0.1-0.5,0.5-0.5c8.6,0,17.2,0,25.7,0c0.5,0,0.6,0.2,0.5,0.6
				C34.9,7.2,34.9,12.4,34.9,17.6z"/>
			<path id="Trazado_183004" class="st7" d="M4.3,1.4c0.7,0,1.5,0,2.2,0c0.2,0,0.3,0.1,0.3,0.3c0,0.1,0,0.2,0,0.3v31.2
				c0,0.6,0,0.6-0.6,0.6c-1,0-2.1,0-3.1,0.1C2.9,33.6,3,33.3,3,33c0-5.5,0-11,0-16.5c0-4.1,0-8.2,0-12.4c0-0.8,0.2-1.6,0.7-2.3
				C3.8,1.7,4,1.5,4.3,1.4z"/>
			<path id="Trazado_183005" class="st8" d="M16.7,40.7c-0.1-0.4-0.4-0.6-0.7-0.6c-0.7,0-1.3,0-2,0c-0.3,0-0.3-0.1-0.3-0.4
				c0-0.7,0-1.4,0-2.1c0-0.8-0.2-1-1-1c-1.1,0-2.3,0-3.4,0c0-0.9,0.6-1.6,1.5-1.6h20.8c0.6,0,0.5-0.1,0.5,0.6c0,0.4,0,0.7,0,1.1
				c-1.4,0-2.7,0-4.1,0c-0.4,0-0.8,0-1.3,0c-0.5,0-0.8,0.3-0.8,0.7s0.3,0.7,0.8,0.7c1.7,0,3.3,0,5,0c0.3,0,0.4,0.1,0.4,0.4
				c0,0.4,0,0.8,0,1.3c0,0.4-0.1,0.4-0.4,0.4c-3,0-6.1,0-9.1,0c-1.1,0-2.1,0-3.2,0c-0.4-0.1-0.7,0.2-0.8,0.6
				C18,41.2,17.3,41.2,16.7,40.7z"/>
			<path id="Trazado_183006" class="st6" d="M4.3,1.4C3.4,2.2,3,3.4,3.1,4.5c0,9.8,0,19.5,0,29.3C2.5,34,2,34.3,1.6,34.6
				c-0.1-0.1-0.1-0.3-0.1-0.4c0-10,0-20.1,0-30.1c-0.1-1.4,1-2.6,2.4-2.7C4,1.4,4.1,1.4,4.3,1.4z"/>
			<path id="Trazado_183007" class="st9" d="M16.7,40.7c0.6,0.2,1.2,0.2,1.8,0c0,0.6,0.2,0.8,0.8,0.8c4.3,0,8.6,0,12.9,0
				c0.5,0.1,1-0.3,1.1-0.8c0-0.1,0-0.2,0-0.3c0-0.7,0-1.3,0-2c0-0.3,0.1-0.4,0.4-0.4c1.1,0,1.1,0,1.1,1.1c0,1.2,0,2.4,0,3.6
				c0,0.3-0.1,0.4-0.4,0.4c-6.8,0-13.7,0-20.5,0c-0.3,0-0.4-0.1-0.4-0.4c0-0.4-0.2-1,0.1-1.2c0.3-0.2,0.8-0.1,1.2-0.1
				c0.3,0,0.7,0,1,0C16.5,41.5,16.7,41.3,16.7,40.7z"/>
			<path id="Trazado_183008" class="st10" d="M5.5,35.1c-1.2,1.5-1.2,3.6,0,5.1c-0.7,0-1.4,0-2.1-0.1c-1.3-0.3-2.1-1.5-1.9-2.8
				c0.2-1.2,1.2-2.2,2.5-2.2C4.5,35.1,5,35.1,5.5,35.1z"/>
			<path id="Trazado_183009" class="st11" d="M32,36.7c0-0.4,0-0.8,0-1.3c0-0.3-0.1-0.4-0.3-0.3c-0.1,0-0.2,0-0.4,0
				c-6.8,0-13.5,0-20.3,0c-0.6,0-1.2,0.3-1.5,0.9c-0.1,0.2-0.2,0.5-0.3,0.7c-0.3,0-0.5,0-0.8,0c-0.6,0-0.8,0.2-0.8,0.9
				c0,0.7,0,1.3,0,2c0,0.4-0.1,0.4-0.4,0.2c-1.2-0.7-1.7-2.2-1-3.5c0.4-0.8,1.2-1.3,2.1-1.3c0.7,0,1.4,0,2.1,0c7,0,14.1,0,21.1,0
				c0.4,0,0.5,0.1,0.5,0.5C32.1,36,32.1,36.4,32,36.7z"/>
			<path id="Trazado_183010" class="st12" d="M12.1,44c-0.3-0.2-0.6-0.4-0.9-0.6c-0.2-0.2-0.6-0.3-0.9-0.2c-0.1-0.2-0.2-0.4-0.2-0.6
				c0-1.3,0-2.6,0-3.9c0-0.6,0-0.6,0.6-0.6c0.3,0,0.7,0,1,0c0.3,0,0.4,0.1,0.4,0.4c0,1.5,0,3,0,4.5c0,0.3,0,0.5,0,0.8
				C12.3,43.9,12.3,44.1,12.1,44z"/>
			<path id="Trazado_183011" class="st13" d="M12.1,44c0.1-0.1,0.1-0.3,0.1-0.4c0-1.7,0-3.3,0-5c0-0.3-0.1-0.5-0.4-0.5
				c-0.3,0-0.7,0-1,0c-0.3,0-0.4,0.1-0.4,0.4c0,1.6,0,3.1,0,4.7l-1.2,0.9C9,44,9,43.9,9,43.7c0-1.7,0-3.5,0-5.2
				c0-0.3,0.1-0.4,0.4-0.4c0.8,0,1.7,0,2.6,0c0.3,0,0.4,0.1,0.3,0.4c0,1.8,0,3.6,0,5.4C12.3,43.9,12.4,44.2,12.1,44z"/>
			<path id="Trazado_183012" class="st14" d="M4,41.5c1.1,0,2.2,0,3.3,0c0.2,0,0.4,0.1,0.3,0.3c0,0.4,0,0.9,0,1.3
				c-0.9,0.1-1.7,0.1-2.6,0C4.5,43.1,3.9,42.1,4,41.5z"/>
			<path id="Trazado_183013" class="st7" d="M4,41.5c0.1,0.5,0.4,1,0.8,1.4c0.2,0.1,0.4,0.2,0.6,0.2c0.8,0,1.5,0,2.3,0
				c-0.1,0.1-0.2,0.1-0.3,0.1c-1.1,0-2.2,0-3.3,0c-1.3,0-2.4-1-2.5-2.3c0-0.1,0-0.1,0-0.3C2.2,41.2,3.1,41.5,4,41.5z"/>
			<path id="Trazado_183014" class="st15" d="M35.4,35.1c0,0.6,0,1.1,0,1.7c-0.5,0-1.1,0-1.6,0c-0.2,0-0.3-0.1-0.3-0.3
				c0-0.5-0.2-1,0.1-1.3s0.8-0.1,1.3-0.1C35,35.1,35.2,35.1,35.4,35.1z"/>
			<path id="Trazado_183015" class="st16" d="M32.5,9c0.1,0.1,0.2,0.2,0.2,0.3c0,0.4,0,0.8,0,1.2c0,0.1-0.1,0.3-0.2,0.3
				c-0.3,0.5-0.5,1-0.4,1.6c0,5.8,0,11.6,0,17.4c0,1,0,1-1.1,1c-5.6,0-11.2,0-16.8,0c-0.3,0-0.6,0-0.8-0.1c-0.1-0.2-0.2-0.4-0.1-0.6
				c0-8.4,0-16.7,0-25.1c0-0.7,0.1-0.8,0.8-0.8c5.8,0,11.5,0,17.3,0c0.2,0,0.4,0,0.6,0.1c0.2,0.2,0.2,0.4,0.2,0.6c0,0.8,0,1.7,0,2.5
				C32,8,32.2,8.6,32.5,9z"/>
			<path id="Trazado_183016" d="M32.5,9c-0.4-0.1-0.6-0.5-0.5-0.8c0-1.3,0-2.5,0-3.8c-0.2-0.1-0.3-0.1-0.5,0c-5.8,0-11.7,0-17.5,0
				c-0.8,0-1.5,0.1-2.3,0.1c-0.3,0-0.4,0.1-0.4,0.4c0,0.1,0,0.3,0,0.4v24.5c0,0.8,0,0.8,0.9,0.9c0.4-0.1,0.9,0,1.3,0.1
				c0.9,0,1.8,0,2.8,0c5.1,0,10.1,0,15.2,0c0.6,0,0.6,0,0.6-0.6c0-6.1,0-12.2,0-18.4c0-0.4,0.1-0.8,0.5-0.9c0.6,0,0.8,0.2,0.8,0.8
				c0,6.4,0,12.9,0,19.3c0,0.8-0.3,1.1-1.1,1.1c-7.1,0-14.2,0-21.4,0c-0.5,0.1-1-0.3-1.1-0.8c0-0.1,0-0.2,0-0.3c0-9,0-17.9,0-26.9
				c0-0.8,0.3-1.1,1.1-1.1h21.3c0.8,0,1.1,0.3,1.1,1.1c0,1.4,0,2.7,0,4.1C33.3,8.8,33.1,9,32.5,9z"/>
			<path id="Trazado_183017" class="st9" d="M13.4,30.8c-0.7,0-1.3,0-2,0c-0.2,0-0.4-0.1-0.3-0.3c0-0.1,0-0.1,0-0.2
				c0-8.4,0-16.9,0-25.3c0-0.5,0.1-0.6,0.6-0.6c6.6,0,13.2,0,19.8,0c0.2,0,0.4-0.1,0.5,0.1c-6,0-12,0-18,0c-0.4,0-0.5,0.1-0.5,0.5
				C13.4,13.5,13.4,22.1,13.4,30.8z"/>
			<path id="Trazado_183018" d="M21.5,14.5c-1.5,0-3,0-4.5,0c-0.8,0-1.2-0.3-1.2-1.1c0-1.3,0-2.6,0-3.9c0-0.8,0.4-1.1,1.2-1.1
				c3,0,6,0,9,0c0.8,0,1.1,0.3,1.1,1.1c0,1.3,0,2.7,0,4c0,0.7-0.4,1.1-1.1,1.1C24.5,14.5,23,14.5,21.5,14.5z"/>
			<path id="Trazado_183019" d="M21.6,21.4c1.6,0,3.2,0,4.8,0c0.5,0,0.8,0.2,0.8,0.6s-0.3,0.7-0.8,0.7c-0.7,0-1.4,0-2.1,0
				c-2.5,0-5,0-7.5,0c-0.3,0-0.5-0.1-0.7-0.3c-0.2-0.2-0.2-0.5-0.1-0.7c0.1-0.2,0.3-0.4,0.6-0.4c0.8,0,1.6,0,2.4,0L21.6,21.4z"/>
			<path id="Trazado_183020" class="st17" d="M21.5,24.3c1.6,0,3.2,0,4.8,0c0.3,0,0.6,0.1,0.7,0.4c0.2,0.3,0,0.7-0.3,0.9
				c-0.1,0-0.1,0-0.2,0.1c-0.2,0-0.4,0-0.5,0c-3,0-6.1,0-9.1,0c-0.2,0-0.4,0-0.6,0c-0.3-0.1-0.5-0.4-0.5-0.7c0,0,0,0,0,0
				c0-0.3,0.3-0.6,0.6-0.6c0.3,0,0.6,0,0.9,0L21.5,24.3z"/>
			<path id="Trazado_183021" class="st18" d="M25.8,13c-0.1,0.1-0.2,0.1-0.4,0.1c-2.6,0-5.2,0-7.8,0c-0.3,0-0.4-0.1-0.4-0.4
				c0-0.9,0-1.8,0-2.7c0-0.3,0.1-0.4,0.4-0.4c2.6,0,5.3,0,7.9,0c0.1,0,0.4-0.1,0.3,0.2C25.8,10.9,25.9,12,25.8,13
				c-0.1-0.2-0.2-0.4-0.2-0.6c0-0.7,0-1.4,0-2.1c0-0.4-0.1-0.5-0.5-0.5c-1.6,0-3.3,0-4.9,0c-0.3,0-0.5,0.1-0.5,0.5
				c0,0.7,0,1.4,0,2.1c0,0.5,0.1,0.5,0.5,0.5c1.6,0,3.2,0,4.8,0C25.3,12.8,25.6,12.9,25.8,13z"/>
			<path id="Trazado_183022" class="st19" d="M25.8,13c-1.9,0-3.8,0-5.7,0c-0.4,0-0.5-0.1-0.5-0.5c0-0.8,0-1.6,0-2.5
				c0-0.3,0.1-0.4,0.4-0.4c1.8,0,3.6,0,5.4,0c0.3,0,0.4,0.1,0.4,0.4C25.8,11.1,25.8,12.1,25.8,13L25.8,13z"/>
		</g>
	</g>
</g>
</svg>
