<svg xmlns="http://www.w3.org/2000/svg" xmlns:xlink="http://www.w3.org/1999/xlink" width="274.055" height="395.977" viewBox="0 0 274.055 395.977">
  <defs>
    <clipPath id="clip-path">
      <rect id="Rect치ngulo_34539" data-name="Rect치ngulo 34539" width="256.328" height="229.434" rx="15.98" transform="translate(0 0)"/>
    </clipPath>
  </defs>
  <g id="Grupo_146957" data-name="Grupo 146957" transform="translate(-348 -6389.977)">
    <g id="Grupo_117823" data-name="Grupo 117823" transform="translate(348 6389.977)">
      <g id="Grupo_117820" data-name="Grupo 117820" transform="translate(0 182.416)">
        <path id="Trazado_182973" data-name="Trazado 182973" d="M696.321,204.373V396.8c0,10.281,9.837,18.646,21.929,18.646H942.59c12.093,0,21.93-8.365,21.93-18.646V204.373h2.928V396.8c0,11.654-11.151,21.135-24.858,21.135H718.25c-13.706,0-24.857-9.481-24.857-21.135V204.373Z" transform="translate(-693.393 -204.373)" fill="#2d90dd"/>
      </g>
      <g id="Grupo_117821" data-name="Grupo 117821" transform="translate(0 0)">
        <path id="Trazado_182974" data-name="Trazado 182974" d="M735.661,417.934v-2.489H718.25l-.07,1.781.037.708Zm17.409,0h17.41v-2.489H753.07Zm34.82,0H805.3v-2.489H787.89Zm34.82,0h17.41v-2.489H822.71Zm34.819,0h17.41v-2.489h-17.41Zm34.821,0h17.408v-2.489H892.35Zm34.819,0H942.59q1.066,0,2.108-.074l-.246-2.481q-.92.064-1.862.066H927.169Zm-225.827-5.643,1.993-1.825a17.655,17.655,0,0,1-6.947-12.2l-2.919.193A20.025,20.025,0,0,0,701.342,412.291Zm259.572-1.211a19.444,19.444,0,0,0,6.534-14.281l-2.928-.04a17.177,17.177,0,0,1-5.764,12.639ZM693.393,383.564h2.928v-14.8h-2.928Zm271.127-1.608h2.928v-14.8H964.52Zm-271.127-28h2.928v-14.8h-2.928Zm271.127-1.608h2.928v-14.8H964.52Zm-271.127-28h2.928v-14.8h-2.928Zm271.127-1.609h2.928v-14.8H964.52Zm-271.127-28h2.928v-14.8h-2.928Zm271.127-1.608h2.928v-14.8H964.52Zm-271.127-28h2.928v-14.8h-2.928ZM964.52,263.53h2.928v-14.8H964.52Zm-271.127-28h2.928v-14.8h-2.928Zm271.127-1.609h2.928v-14.8H964.52Zm-271.127-28h2.928v-14.8h-2.928Zm271.127-1.608h2.928v-14.8H964.52Zm-271.127-28h2.928v-14.8h-2.928Zm271.127-1.609h2.928v-14.8H964.52Zm-271.127-28h2.928v-14.8h-2.928Zm271.127-1.608h2.928V130.3H964.52Zm-271.127-28h2.928V102.3h-2.928ZM964.52,115.5h2.928V100.7H964.52Zm-271.127-28h2.928V72.7h-2.928ZM964.52,85.892h2.928v-14.8H964.52Zm-271.127-28h2.928v-14.8h-2.928ZM964.52,56.286h2.928V43.092q0-.861-.079-1.7l-2.919.193q.069.747.07,1.51ZM702.114,30.465a23.5,23.5,0,0,1,14.319-5.956l-.24-2.481a26.63,26.63,0,0,0-16.232,6.751ZM957.475,29.4l1.987-1.828a27.323,27.323,0,0,0-16.819-5.613l-.005,2.489A24.107,24.107,0,0,1,957.475,29.4ZM733.721,24.446h17.408V21.957H733.721Zm34.819,0h17.41V21.957H768.54Zm34.819,0h17.41V21.957h-17.41Zm34.821,0h17.409V21.957H838.18Zm34.819,0h17.41V21.957H873Zm34.819,0h17.411V21.957H907.818Z" transform="translate(-693.393 -21.957)" fill="#2d90dd"/>
      </g>
      <rect id="Rect치ngulo_34567" data-name="Rect치ngulo 34567" width="258.908" height="382.936" rx="15.979" transform="translate(7.573 6.545)" fill="#2c95e6"/>
      <g id="Grupo_117822" data-name="Grupo 117822" transform="translate(101.237 44.556)">
        <ellipse id="Elipse_5054" data-name="Elipse 5054" cx="35.79" cy="35.79" rx="35.79" ry="35.79" transform="translate(0)" fill="#36a3f7"/>
      </g>
    </g>
    <g id="Enmascarar_grupo_79" data-name="Enmascarar grupo 79" transform="translate(355.569 6549.902)" opacity="0.066" clip-path="url(#clip-path)" style="mix-blend-mode: multiply;isolation: isolate">
      <path id="Trazado_182988" data-name="Trazado 182988" d="M17.3,280.082l268.792.2a17.054,17.054,0,0,0,17.09-17.053L303,17.277A17.115,17.115,0,0,0,285.882.2L17.09,0A17.054,17.054,0,0,0,0,17.053L.182,263A17.115,17.115,0,0,0,17.3,280.082Z" transform="translate(269.225 308.233) rotate(163)" fill="#0a0217"/>
    </g>
    <g id="Oh27na" transform="translate(-667.228 4486.067)">
      <g id="Grupo_117849" data-name="Grupo 117849" transform="translate(1132.228 1961.3)">
        <path id="Trazado_183000" data-name="Trazado 183000" d="M1145.277,2007.213h-.627a4.6,4.6,0,0,1-1.322-.815.59.59,0,0,0-.8-.009,5.482,5.482,0,0,1-1.37.824h-.538a.9.9,0,0,1-.825-.809c-.053-.327-.257-.393-.541-.393-.985,0-1.971.031-2.955-.008a4.045,4.045,0,0,1-3.773-2.5,3.772,3.772,0,0,1-.292-1.615q.007-10.322,0-20.645c0-5.314.009-10.628-.006-15.942a4.037,4.037,0,0,1,1.537-3.238,3.344,3.344,0,0,1,2.238-.766q15.673,0,31.346,0a1.129,1.129,0,0,1,1.268,1.272c.015,1.015,0,2.03,0,3.045,0,.867,0,.867.846.867h6.18c.209,0,.418-.005.626.012a1.325,1.325,0,0,1,1.394,1.5q0,10.636,0,21.272c0,.746-.1.907-.65,1.117a.842.842,0,0,1-.954-.837,5.853,5.853,0,0,1-.021-.76q0-9.941,0-19.881c0-.8,0-.8-.779-.8q-2.977,0-5.955,0c-.653,0-.686.034-.688.678q0,1.523,0,3.045c0,.611.045.651.671.653,1.06,0,2.12,0,3.179,0,.716,0,1.1.269,1.116.756.014.518-.422.856-1.141.864-1.074.011-2.149,0-3.224,0-.568,0-.6.034-.6.616,0,.373.01.747,0,1.119s.152.5.51.5c1.044-.01,2.089,0,3.134,0a2.811,2.811,0,0,1,.58.035.863.863,0,0,1,.742.874.8.8,0,0,1-.842.705c-1.1.025-2.209.006-3.313.01-.808,0-.809,0-.809.814,0,.343.009.687,0,1.03s.137.479.48.477c1.06-.007,2.119,0,3.179,0a4.236,4.236,0,0,1,.537.017.809.809,0,0,1,.776.78.822.822,0,0,1-.754.806,3.611,3.611,0,0,1-.536.021c-1.045,0-2.09-.005-3.135,0-.488,0-.535.055-.544.543q-.012.6,0,1.209c.01.5.062.555.58.56,1,.009,2,0,3,0,.164,0,.328,0,.492,0a.827.827,0,0,1,.891.7.872.872,0,0,1-.762.857,3.424,3.424,0,0,1-.8.058c-.9,0-1.791,0-2.687,0-.7,0-.713.014-.714.735,0,.284,0,.567,0,.851,0,.609.029.638.624.641,1.015,0,2.03,0,3.045,0a2.577,2.577,0,0,1,.668.055.776.776,0,0,1-.047,1.534,2.848,2.848,0,0,1-.58.034c-1.03,0-2.06,0-3.09,0-.582,0-.614.037-.62.6q-.005.56,0,1.12c.005.55.042.591.581.594,1.045.006,2.09,0,3.135,0a2.371,2.371,0,0,1,.623.045.747.747,0,0,1,.622.676.778.778,0,0,1-.486.786,1.528,1.528,0,0,1-.7.115c-1.045,0-2.089,0-3.134,0-.616,0-.635.023-.64.62,0,.3.005.6,0,.9a1.259,1.259,0,0,1-1,1.311,10.446,10.446,0,0,1-1.38.034c-.277,0-.389.117-.406.4-.061,1.032-.069,1.032.978,1.032.268,0,.535-.005.8,0,2.478-.025,4.956,0,7.434-.011.15,0,.3,0,.448,0,.49-.012.538-.051.541-.543.009-1.433-.008-2.866.008-4.3.008-.7.23-.978.849-1.115.552.126.759.337.765.878.018,1.822.025,3.643,0,5.464a1.206,1.206,0,0,1-1.135,1.225,4.828,4.828,0,0,1-.626.021h-6.538c-.735,0-.736,0-.736.755,0,1.224-.044,2.45.01,3.672.073,1.633-.505,2.036-2.017,2.032-6.494-.021-12.987-.009-19.481-.009-.209,0-.418.006-.627,0a.423.423,0,0,0-.494.394A.936.936,0,0,1,1145.277,2007.213Z" transform="translate(-1132.228 -1961.3)"/>
        <path id="Trazado_183002" data-name="Trazado 183002" d="M1248.47,2003.877a7.315,7.315,0,0,0-.088,1.77c-.563.161-.692.326-.693.918,0,1.563-.012,3.126.008,4.69,0,.334-.078.416-.413.413-2.739-.02-5.478-.019-8.217-.024a2.2,2.2,0,0,1,0-1.681,1.214,1.214,0,0,0,.916-1.354c-.021-.372.019-.748-.01-1.119-.025-.328.064-.434.411-.427,1.194.024,2.388.009,3.582.009.1,0,.209.007.313,0a.7.7,0,0,0,.682-.689.667.667,0,0,0-.713-.647c-1.269-.01-2.538-.018-3.806,0-.364.006-.5-.08-.472-.461a13.268,13.268,0,0,0,0-1.612c-.023-.389.066-.535.5-.523,1.208.034,2.418.014,3.627.011.555,0,.874-.254.866-.678s-.328-.664-.888-.665c-1.224,0-2.448-.017-3.672.009-.369.008-.446-.113-.431-.451.026-.581.024-1.165,0-1.746-.012-.3.085-.378.378-.374,1.194.015,2.388.008,3.582,0a2.534,2.534,0,0,0,.49-.032.655.655,0,0,0-.054-1.3,5.943,5.943,0,0,0-.626-.015c-1.09,0-2.18-.024-3.269.011-.432.014-.525-.133-.5-.525a14.879,14.879,0,0,0,0-1.612c-.017-.337.06-.458.43-.45,1.254.026,2.508.013,3.762.008.483,0,.791-.266.8-.662s-.3-.667-.776-.68c-.1,0-.209,0-.313,0-1.135,0-2.27-.023-3.4.012-.432.013-.521-.132-.5-.522.031-.565.025-1.135,0-1.7-.013-.3.093-.373.38-.369,1.3.014,2.6.011,3.9,0a.667.667,0,0,0,.714-.645.7.7,0,0,0-.682-.69c-.118-.012-.239,0-.358,0-1.179,0-2.359-.015-3.537.009-.348.007-.427-.1-.412-.427.027-.6.023-1.195,0-1.791-.011-.288.093-.347.358-.344,1.194.013,2.388.006,3.582.005a3.2,3.2,0,0,0,.4-.009.7.7,0,0,0,.647-.679.669.669,0,0,0-.706-.653c-.582-.012-1.164,0-1.746,0-.7,0-1.4-.015-2.1.007-.318.01-.442-.052-.435-.409q.036-1.9,0-3.806c-.006-.35.107-.415.431-.413,2.269.014,4.538.018,6.806,0,.394,0,.492.091.491.489q-.021,9.83-.01,19.66c0,.448-.007.9,0,1.344C1247.7,2003.617,1247.9,2003.817,1248.47,2003.877Z" transform="translate(-1203.711 -1974.881)" fill="#dff5fc"/>
        <path id="Trazado_183003" data-name="Trazado 183003" d="M1183.6,1981.676q0,7.792.009,15.584c0,.429-.073.578-.551.577q-12.874-.026-25.749,0c-.394,0-.528-.08-.528-.508q.019-15.673,0-31.347c0-.433.142-.5.531-.5q12.874.015,25.748-.005c.483,0,.55.154.549.579Q1183.587,1973.861,1183.6,1981.676Z" transform="translate(-1148.681 -1964.093)" fill="#863f31"/>
        <path id="Trazado_183004" data-name="Trazado 183004" d="M1142.5,1965.515c.731-.006,1.462,0,2.192-.02.238-.005.327.083.3.313a2.489,2.489,0,0,0,0,.268v31.2c0,.571,0,.563-.577.573a23.891,23.891,0,0,0-3.08.082c-.213-.242-.141-.539-.141-.814q-.007-8.238,0-16.476,0-6.178,0-12.357a3.567,3.567,0,0,1,.724-2.3A1.278,1.278,0,0,1,1142.5,1965.515Z" transform="translate(-1138.227 -1964.111)" fill="#a14f41"/>
        <path id="Trazado_183005" data-name="Trazado 183005" d="M1167.837,2073.385a.67.67,0,0,0-.741-.562c-.669,0-1.339-.018-2.008.007-.289.01-.343-.087-.336-.351.019-.684.007-1.368.006-2.053,0-.813-.191-1.006-.987-1.009q-1.695-.006-3.39-.016a1.593,1.593,0,0,1,1.486-1.643h20.772c.615,0,.54-.062.534.561a4.058,4.058,0,0,1-.04,1.065q-2.034.016-4.067.033c-.417,0-.836,0-1.253,0-.486.008-.777.263-.779.671s.29.669.775.67c1.656,0,3.312.012,4.968-.007.337,0,.443.079.418.418a7.834,7.834,0,0,0,0,1.252c.031.357-.11.408-.427.406-3.028-.012-6.057-.007-9.085-.007q-1.611,0-3.222,0a.691.691,0,0,0-.789.565A1.521,1.521,0,0,1,1167.837,2073.385Z" transform="translate(-1151.092 -2032.639)" fill="#fefefe"/>
        <path id="Trazado_183006" data-name="Trazado 183006" d="M1139.493,1965.546a3.993,3.993,0,0,0-1.179,3.143q.038,14.635.015,29.268a4.933,4.933,0,0,0-1.552.789.553.553,0,0,1-.072-.407q0-15.066,0-30.133A2.517,2.517,0,0,1,1139.493,1965.546Z" transform="translate(-1135.223 -1964.142)" fill="#863f31"/>
        <path id="Trazado_183007" data-name="Trazado 183007" d="M1176.637,2079.471a2.884,2.884,0,0,0,1.835,0c.031.6.222.779.834.779q6.467,0,12.934,0a.961.961,0,0,0,1.094-1.063c.021-.656.02-1.313,0-1.969-.009-.3.089-.376.379-.378,1.1-.008,1.1-.018,1.1,1.077,0,1.209-.01,2.417.006,3.625,0,.308-.079.405-.4.4q-10.249-.013-20.5,0c-.3,0-.4-.091-.37-.382.046-.424-.184-.976.1-1.243.255-.244.8-.057,1.211-.069.328-.01.657,0,.984,0C1176.417,2080.243,1176.608,2080.053,1176.637,2079.471Z" transform="translate(-1159.893 -2038.724)" fill="#b85d4f"/>
        <path id="Trazado_183008" data-name="Trazado 183008" d="M1140.756,2067.626a4.017,4.017,0,0,0,0,5.105,11.008,11.008,0,0,1-2.122-.079,2.529,2.529,0,0,1-1.921-2.832,2.555,2.555,0,0,1,2.454-2.191C1139.672,2067.614,1140.179,2067.626,1140.756,2067.626Z" transform="translate(-1135.219 -2032.548)" fill="#24cff8"/>
        <path id="Trazado_183009" data-name="Trazado 183009" d="M1176.379,2069.275c0-.417-.013-.835,0-1.252.008-.254-.091-.355-.34-.332-.118.011-.239,0-.358,0-6.752,0-13.5.017-20.255-.024a1.511,1.511,0,0,0-1.491.932c-.12.221-.207.46-.308.691-.253.005-.506.012-.759.016-.6.01-.833.245-.838.85-.006.671-.022,1.344.006,2.014.018.432-.126.39-.418.225a2.554,2.554,0,0,1,1.12-4.783c.715-.024,1.432-.008,2.148-.008q10.539,0,21.078-.011c.41,0,.524.114.474.5A6.557,6.557,0,0,1,1176.379,2069.275Z" transform="translate(-1144.339 -2032.53)" fill="#f1fafe"/>
        <path id="Trazado_183010" data-name="Trazado 183010" d="M1165.112,2082.852c-.3-.2-.616-.391-.908-.609a.935.935,0,0,0-.864-.178.731.731,0,0,1-.15-.587c-.006-1.3-.009-2.591,0-3.887,0-.586.044-.615.646-.615.342,0,.687.019,1.027-.006.313-.023.406.084.4.4-.015,1.489-.007,2.978-.007,4.468,0,.268,0,.536,0,.8C1165.255,2082.738,1165.283,2082.866,1165.112,2082.852Z" transform="translate(-1152.972 -2038.811)" fill="#f72f41"/>
        <path id="Trazado_183011" data-name="Trazado 183011" d="M1162.695,2082.759c.146-.11.1-.271.1-.414,0-1.656-.007-3.312.009-4.968,0-.345-.082-.491-.448-.458a7.019,7.019,0,0,1-1.028,0c-.3-.017-.421.071-.417.4.017,1.552.011,3.1.013,4.655l-1.226.872c-.174-.116-.105-.264-.106-.384-.005-1.73,0-3.461-.01-5.191,0-.315.052-.448.409-.437.849.026,1.7.017,2.551,0,.281-.007.351.087.349.357-.01,1.79,0,3.581-.012,5.371C1162.877,2082.637,1163,2082.921,1162.695,2082.759Z" transform="translate(-1150.555 -2038.719)" fill="#df2334"/>
        <path id="Trazado_183012" data-name="Trazado 183012" d="M1144.32,2087.188c1.116,0,2.233,0,3.349-.018.241,0,.354.053.339.319-.023.43-.018.862-.024,1.293a17.342,17.342,0,0,1-2.614.026C1144.807,2088.787,1144.171,2087.741,1144.32,2087.188Z" transform="translate(-1140.316 -2045.648)" fill="#b85c4f"/>
        <path id="Trazado_183013" data-name="Trazado 183013" d="M1139.248,2085.374a2.57,2.57,0,0,0,.772,1.415.68.68,0,0,0,.575.183c.772-.006,1.545,0,2.317,0-.075.141-.21.085-.318.085-1.116,0-2.232.012-3.348-.008a2.543,2.543,0,0,1-2.515-2.314c0-.07.008-.141.016-.27A4.222,4.222,0,0,0,1139.248,2085.374Z" transform="translate(-1135.245 -2043.833)" fill="#a14f41"/>
        <path id="Trazado_183014" data-name="Trazado 183014" d="M1235.413,2067.519q0,.84,0,1.681c-.549.005-1.1,0-1.646.021-.214.007-.286-.057-.276-.274.02-.459-.151-1.044.072-1.342s.832-.064,1.272-.088C1235.027,2067.506,1235.22,2067.518,1235.413,2067.519Z" transform="translate(-1200.057 -2032.438)" fill="#c8eefc"/>
        <path id="Trazado_183015" data-name="Trazado 183015" d="M1191.645,1979.067a.381.381,0,0,1,.186.325c-.013.4-.013.8,0,1.2a.38.38,0,0,1-.186.325,2.369,2.369,0,0,0-.39,1.6q.013,8.7.005,17.408c0,1.021-.022,1.042-1.058,1.042q-8.412,0-16.825,0a1.375,1.375,0,0,1-.827-.121,1,1,0,0,1-.125-.646q0-12.531,0-25.062c0-.717.07-.78.806-.78q8.637,0,17.274,0a1.255,1.255,0,0,1,.572.066c.2.164.17.4.172.616.008.83.019,1.66,0,2.49A2.1,2.1,0,0,0,1191.645,1979.067Z" transform="translate(-1159.164 -1970.046)" fill="#c76e5c"/>
        <path id="Trazado_183016" data-name="Trazado 183016" d="M1184.463,1976.42a.752.752,0,0,1-.52-.834c0-1.251-.009-2.5-.015-3.753a.906.906,0,0,0-.482-.044c-5.85,0-11.7-.015-17.549.013-.769,0-1.543.091-2.316.093-.264,0-.375.136-.373.391,0,.134,0,.269,0,.4v24.489c0,.849,0,.835.87.855a2.6,2.6,0,0,1,1.316.125c.925,0,1.85.014,2.775.014q7.589,0,15.177,0c.6,0,.6,0,.6-.625q0-9.178,0-18.357c0-.416.057-.779.52-.926.648.024.821.194.821.833q0,9.652,0,19.3c0,.781-.336,1.115-1.117,1.115q-10.681,0-21.361,0a.954.954,0,0,1-1.1-1.092q0-13.458,0-26.916c0-.772.344-1.106,1.13-1.106h21.317c.784,0,1.129.338,1.13,1.11q0,2.038,0,4.075C1185.283,1976.225,1185.11,1976.4,1184.463,1976.42Z" transform="translate(-1151.982 -1967.399)"/>
        <path id="Trazado_183017" data-name="Trazado 183017" d="M1168.087,2000.842c-.671,0-1.343,0-2.014.019-.246.007-.368-.061-.333-.323a1.688,1.688,0,0,0,0-.224q0-12.671-.012-25.342c0-.468.133-.553.569-.552q9.917.019,19.834.01c.163,0,.355-.09.492.087q-9.023,0-18.045-.009c-.39,0-.5.094-.5.5Q1168.095,1987.923,1168.087,2000.842Z" transform="translate(-1154.678 -1970.084)" fill="#b85d4f"/>
        <path id="Trazado_183018" data-name="Trazado 183018" d="M1185.943,1992.6q-2.238,0-4.477,0c-.8,0-1.165-.345-1.172-1.13q-.018-1.947,0-3.895c.006-.8.36-1.144,1.155-1.145q4.5,0,9,0c.781,0,1.135.323,1.146,1.1q.029,1.992,0,3.984c-.012.747-.381,1.079-1.127,1.081C1188.957,1992.6,1187.45,1992.6,1185.943,1992.6Z" transform="translate(-1164.432 -1978.137)"/>
        <path id="Trazado_183019" data-name="Trazado 183019" d="M1186.034,2026.059q2.394,0,4.788,0c.506,0,.782.234.791.649s-.278.684-.759.691c-.7.009-1.4,0-2.1,0q-3.759,0-7.518,0a.861.861,0,0,1-.732-.252.639.639,0,0,1-.088-.713.625.625,0,0,1,.608-.379q1.208,0,2.416,0Z" transform="translate(-1164.471 -2004.696)"/>
        <path id="Trazado_183020" data-name="Trazado 183020" d="M1186.01,2034.931c1.61,0,3.22,0,4.831,0a.713.713,0,0,1,.746.378.648.648,0,0,1-.475.928,2.634,2.634,0,0,1-.533.038q-4.563,0-9.125,0a2.608,2.608,0,0,1-.577-.047.6.6,0,0,1-.487-.7.578.578,0,0,1,.567-.583c.311-.025.625-.015.939-.015Z" transform="translate(-1164.5 -2010.64)" fill="#010000"/>
        <path id="Trazado_183021" data-name="Trazado 183021" d="M1192.943,1993.89c-.1.146-.245.076-.367.076-2.594,0-5.188-.005-7.782.008-.329,0-.439-.074-.431-.417.024-.909.016-1.819,0-2.728,0-.271.078-.354.354-.353,2.639.009,5.278,0,7.917,0,.148,0,.356-.07.35.2-.025,1.07.059,2.142-.045,3.21a.869.869,0,0,1-.148-.637c0-.686-.012-1.372,0-2.057.008-.369-.144-.5-.5-.494q-2.46.014-4.92,0c-.339,0-.485.121-.479.469.012.686,0,1.372.006,2.058.006.452.055.5.533.5,1.61.007,3.22,0,4.83,0A.931.931,0,0,1,1192.943,1993.89Z" transform="translate(-1167.164 -1980.849)" fill="#e6b629"/>
        <path id="Trazado_183022" data-name="Trazado 183022" d="M1197.781,1994.071c-1.909,0-3.818-.016-5.727,0-.38,0-.482-.117-.471-.482.025-.82.018-1.641,0-2.461-.006-.292.091-.386.384-.385,1.8.01,3.609.013,5.414,0,.338,0,.389.137.387.425-.009.969,0,1.939.009,2.908Z" transform="translate(-1172.002 -1981.03)" fill="#f8c42d"/>
      </g>
    </g>
    <path id="Trazado_185637" data-name="Trazado 185637" d="M615.4,303.288a.542.542,0,0,0-.887.013q-2.413,2.409-4.827,4.816c-.185.184-.186.184-.369,0q-1.085-1.082-2.169-2.163a.528.528,0,0,0-.789-.008q-.336.32-.67.643a.566.566,0,0,0-.013.923c.123.128.252.251.378.377q1.469,1.466,2.937,2.932a.642.642,0,0,0,.494.261.5.5,0,0,0,.389-.15c.086-.082.168-.168.252-.252L616,304.818a.553.553,0,0,0,0-.929C615.8,303.688,615.6,303.487,615.4,303.288Z" transform="translate(-224.634 6227.063)" fill="#451991"/>
  </g>
</svg>
