<svg xmlns="http://www.w3.org/2000/svg" xmlns:xlink="http://www.w3.org/1999/xlink" width="274.055" height="395.977" viewBox="0 0 274.055 395.977">
  <defs>
    <clipPath id="clip-path">
      <rect id="Rect치ngulo_34571" data-name="Rect치ngulo 34571" width="256.328" height="229.434" rx="15.98" transform="translate(0 0)"/>
    </clipPath>
  </defs>
  <g id="Grupo_146948" data-name="Grupo 146948" transform="translate(-815.36 -7412.133)">
    <path id="Trazado_182973" data-name="Trazado 182973" d="M964.52,204.373V396.8c0,10.281-9.837,18.646-21.929,18.646H718.251c-12.093,0-21.93-8.365-21.93-18.646V204.373h-2.928V396.8c0,11.654,11.151,21.135,24.858,21.135h224.34c13.706,0,24.857-9.481,24.857-21.135V204.373Z" transform="translate(121.967 7390.176)" fill="#dc9ce8"/>
    <path id="Trazado_182974" data-name="Trazado 182974" d="M925.18,417.934v-2.489h17.411l.07,1.781-.037.708Zm-17.409,0h-17.41v-2.489h17.41Zm-34.82,0H855.542v-2.489h17.409Zm-34.82,0h-17.41v-2.489h17.41Zm-34.819,0H785.9v-2.489h17.41Zm-34.821,0H751.083v-2.489h17.408Zm-34.819,0H718.251q-1.066,0-2.108-.074l.246-2.481q.92.064,1.862.066h15.421ZM959.5,412.291l-1.993-1.825a17.655,17.655,0,0,0,6.947-12.2l2.919.193A20.025,20.025,0,0,1,959.5,412.291ZM699.927,411.08a19.444,19.444,0,0,1-6.534-14.281l2.928-.04a17.177,17.177,0,0,0,5.764,12.639Zm267.521-27.516H964.52v-14.8h2.928Zm-271.127-1.608h-2.928v-14.8h2.928Zm271.127-28H964.52v-14.8h2.928Zm-271.127-1.608h-2.928v-14.8h2.928Zm271.127-28H964.52v-14.8h2.928Zm-271.127-1.609h-2.928v-14.8h2.928Zm271.127-28H964.52v-14.8h2.928Zm-271.127-1.608h-2.928v-14.8h2.928Zm271.127-28H964.52v-14.8h2.928ZM696.321,263.53h-2.928v-14.8h2.928Zm271.127-28H964.52v-14.8h2.928Zm-271.127-1.609h-2.928v-14.8h2.928Zm271.127-28H964.52v-14.8h2.928Zm-271.127-1.608h-2.928v-14.8h2.928Zm271.127-28H964.52v-14.8h2.928Zm-271.127-1.609h-2.928v-14.8h2.928Zm271.127-28H964.52v-14.8h2.928ZM696.321,145.1h-2.928V130.3h2.928Zm271.127-28H964.52V102.3h2.928ZM696.321,115.5h-2.928v-14.8h2.928Zm271.127-28H964.52V72.7h2.928ZM696.321,85.892h-2.928v-14.8h2.928Zm271.127-28H964.52v-14.8h2.928ZM696.321,56.286h-2.928V43.092q0-.861.079-1.7l2.919.193q-.069.747-.07,1.51ZM958.727,30.465a23.5,23.5,0,0,0-14.319-5.956l.24-2.481a26.63,26.63,0,0,1,16.232,6.751ZM703.366,29.4l-1.987-1.828A27.323,27.323,0,0,1,718.2,21.957l.005,2.489A24.107,24.107,0,0,0,703.366,29.4ZM927.12,24.446H909.712V21.957H927.12Zm-34.819,0h-17.41V21.957H892.3Zm-34.819,0h-17.41V21.957h17.41Zm-34.821,0H805.252V21.957h17.409Zm-34.819,0h-17.41V21.957h17.41Zm-34.819,0H735.612V21.957h17.411Z" transform="translate(121.967 7390.176)" fill="#ad8fe2"/>
    <rect id="Rect치ngulo_34567" data-name="Rect치ngulo 34567" width="258.909" height="382.936" rx="15.979" transform="translate(823.36 7418.678)" fill="#ad8fe2"/>
    <circle id="Elipse_5054" data-name="Elipse 5054" cx="35.79" cy="35.79" r="35.79" transform="translate(916.597 7456.689)" fill="#fff"/>
    <g id="Grupo_117829" data-name="Grupo 117829" transform="translate(929.369 7468.941)">
      <path id="Trazado_182975" data-name="Trazado 182975" d="M1102.946,2053.236c1.23,0,2.4,0,3.571,0a2.456,2.456,0,0,1,2.634,2.64q0,1.731,0,3.463c0,.627-.194.806-.815.828-.5.018-1.173-.221-1.456.1-.246.279-.077.937-.069,1.427.026,1.553,0,1.546-1.544,1.53-1.46-.015-2.921.028-4.379-.02-.543-.018-.618.16-.611.641.028,1.9.012,3.8.011,5.7,0,.75-.148.9-.877.905h-34.835c-.7,0-.864-.164-.864-.87q0-19.124-.007-38.247a1.126,1.126,0,0,1,.38-.891q3.528-3.348,7.036-6.716a1.2,1.2,0,0,1,.905-.353q13.674.012,27.349.007c.777,0,.914.138.914.919q0,6.9,0,13.8c0,.245-.076.462.355.474a3.952,3.952,0,0,1,3.9,4.819C1104.006,2046.658,1103.484,2049.921,1102.946,2053.236Z" transform="translate(-1063.704 -2023.377)"/>
      <path id="Trazado_182976" data-name="Trazado 182976" d="M1099.141,2052.007h-24.018a3.359,3.359,0,0,0-.508.009.606.606,0,0,0,0,1.2,3.266,3.266,0,0,0,.508.009q11.819,0,23.637-.014c.481,0,.645.134.682.586a13,13,0,0,0,.215,1.356c.045.24-.007.354-.272.316a2.12,2.12,0,0,0-.305,0H1075.14c-.153,0-.306-.008-.458,0a.608.608,0,0,0,.02,1.216c.152.009.306,0,.458,0h23.79c.948,0,.948,0,1.1,1.019-1.173,0-2.341.012-3.507,0a2.484,2.484,0,0,0-2.2,1.038c-.172.241-.375.187-.582.187q-7.463,0-14.926,0-1.961,0-3.922,0c-.562,0-.821.191-.83.6-.009.423.262.625.852.625q9.2,0,18.39-.01c.429,0,.6.071.554.539a10.735,10.735,0,0,0-.006,1.425c.006.215-.047.321-.28.289a2.312,2.312,0,0,0-.305,0H1075.1a2.8,2.8,0,0,0-.508.013.606.606,0,0,0,0,1.2,2.818,2.818,0,0,0,.508.013q9.093,0,18.186,0c.344,0,.657-.063.6.49-.032.337.268.526.622.529a10.67,10.67,0,0,0,1.222-.008c.426-.045.5.131.482.506-.029.559-.009,1.12-.007,1.681,0,.7.178.878.862.879,2,0,4.008.011,6.011-.009.375,0,.478.08.472.466-.024,1.715-.02,3.43,0,5.145,0,.33-.08.418-.415.417q-16.658-.014-33.316,0c-.331,0-.417-.081-.417-.415q.014-18.39,0-36.78c0-.332.084-.419.416-.416,2.054.016,4.109.009,6.164.007.7,0,.865-.162.865-.867,0-1.919.009-3.838-.008-5.756,0-.336.09-.414.418-.414q12.939.014,25.878,0c.337,0,.414.092.413.419q-.017,6.571,0,13.143c0,.339-.094.426-.421.411a4.988,4.988,0,0,0-2.486.379,3.955,3.955,0,0,0-2.147,4.544c.1.484.014.584-.476.583q-11.462-.023-22.924-.01a2.8,2.8,0,0,0-.508.013.606.606,0,0,0,0,1.2,2.771,2.771,0,0,0,.508.013q11.564,0,23.128-.01c.444,0,.622.1.651.566C1098.912,2050.873,1099.044,2051.418,1099.141,2052.007Z" transform="translate(-1068.183 -2027.854)" fill="#e7fffe"/>
      <path id="Trazado_182977" data-name="Trazado 182977" d="M1214.5,2113.239c-.679,0-1.358-.019-2.035.008-.315.013-.439-.086-.488-.4-.3-1.958-.623-3.914-.937-5.871-.215-1.338-.436-2.675-.642-4.014a2.693,2.693,0,0,1,2.527-3.064c1.05-.038,2.1-.039,3.155,0a2.679,2.679,0,0,1,2.521,3.066c-.511,3.28-1.054,6.556-1.566,9.836-.057.363-.194.46-.55.442C1215.826,2113.216,1215.163,2113.239,1214.5,2113.239Z" transform="translate(-1178.941 -2083.482)" fill="#5c1800"/>
      <path id="Trazado_182978" data-name="Trazado 182978" d="M1197.886,2184.058c2.733,0,5.466.016,8.2-.015.512-.006.466.242.465.575s.05.58-.464.575c-3.276-.028-6.552-.014-9.828-.014a2.824,2.824,0,0,0-.457.011.606.606,0,0,0-.016,1.2,2.413,2.413,0,0,0,.457.013c2.478,0,4.957.016,7.435-.013.472-.006.58.138.531.561a3.719,3.719,0,0,0,0,.864c.046.377-.113.432-.452.431q-5.882-.018-11.764,0c-.37,0-.463-.106-.432-.452a6.586,6.586,0,0,0,0-1.068c-.022-.286.1-.342.347-.327.322.018.645,0,.967,0,.416,0,.714-.168.718-.606s-.287-.618-.706-.617c-1.086,0-2.173-.014-3.259.009-.34.007-.421-.095-.412-.421.019-.708,0-.709.726-.709Z" transform="translate(-1162.32 -2149.615)" fill="#fe916b"/>
      <path id="Trazado_182979" data-name="Trazado 182979" d="M1197.875,2170.526c-2.731,0-5.461-.006-8.192.008-.349,0-.495-.038-.486-.451.026-1.309.389-1.7,1.7-1.7,4.664,0,9.328.017,13.992-.01,1.554-.009,1.713.864,1.644,1.95-.021.336-.27.191-.415.192-2.035.01-4.07.007-6.105.007Z" transform="translate(-1162.305 -2137.305)" fill="#fe642e"/>
      <path id="Trazado_182980" data-name="Trazado 182980" d="M1073.724,2037.776l5.3-5.028v.755q0,1.956,0,3.913c0,.174.066.368-.25.366C1077.132,2037.77,1075.494,2037.776,1073.724,2037.776Z" transform="translate(-1071.577 -2030.74)" fill="#c2d6d5"/>
      <path id="Trazado_182981" data-name="Trazado 182981" d="M1092.6,2069.608a5.416,5.416,0,1,1,5.4,5.453A5.388,5.388,0,0,1,1092.6,2069.608Z" transform="translate(-1086.412 -2055.48)"/>
      <path id="Trazado_182982" data-name="Trazado 182982" d="M1099.091,2200.742h6.877a3.649,3.649,0,0,1,.407.005.567.567,0,0,1,.573.592.574.574,0,0,1-.6.622c-.1.01-.2,0-.306,0h-13.906c-.1,0-.2.006-.306,0a.609.609,0,0,1,.022-1.217c.118-.007.238,0,.357,0Z" transform="translate(-1085.338 -2162.732)"/>
      <path id="Trazado_182983" data-name="Trazado 182983" d="M1216.983,2110.642c.07.426-.017.752-.472.865-.354.088-.654-.178-.733-.657-.25-1.519-.488-3.04-.722-4.51a1.769,1.769,0,0,1,1.612-1.773c.387-.021.682.1.735.52a.56.56,0,0,1-.527.676c-.5.074-.629.338-.545.821" transform="translate(-1182.624 -2087.167)" fill="#fefefe"/>
      <path id="Trazado_182984" data-name="Trazado 182984" d="M1220.956,2142.736a.564.564,0,0,1-.7-.423,4.9,4.9,0,0,1-.117-.643c-.022-.466.162-.7.5-.754a.571.571,0,0,1,.683.461" transform="translate(-1186.613 -2115.719)" fill="#fefefe"/>
      <path id="Trazado_182985" data-name="Trazado 182985" d="M1098.312,2074.107a4.193,4.193,0,1,1,4.129,4.214A4.159,4.159,0,0,1,1098.312,2074.107Z" transform="translate(-1090.896 -2059.963)" fill="#3870fe"/>
      <path id="Trazado_182986" data-name="Trazado 182986" d="M1102.113,2077.1a3.344,3.344,0,1,1,3.287,3.44A3.345,3.345,0,0,1,1102.113,2077.1Z" transform="translate(-1093.882 -2063.02)"/>
      <path id="Trazado_182987" data-name="Trazado 182987" d="M1107.822,2081.66a2.118,2.118,0,1,1,2.122,2.143A2.131,2.131,0,0,1,1107.822,2081.66Z" transform="translate(-1098.368 -2067.503)" fill="#21fef5"/>
    </g>
    <g id="Enmascarar_grupo_87" data-name="Enmascarar grupo 87" transform="translate(823.36 7572.18)" opacity="0.053" clip-path="url(#clip-path)" style="mix-blend-mode: multiply;isolation: isolate">
      <path id="Trazado_182992" data-name="Trazado 182992" d="M17.3,280.082l268.792.2a17.054,17.054,0,0,0,17.09-17.053L303,17.277A17.115,17.115,0,0,0,285.882.2L17.09,0A17.054,17.054,0,0,0,0,17.053L.182,263A17.115,17.115,0,0,0,17.3,280.082Z" transform="translate(269.225 308.233) rotate(163)" fill="#0a0217"/>
    </g>
  </g>
</svg>
