<?xml version="1.0" encoding="utf-8"?>
<!-- Generator: Adobe Illustrator 25.2.3, SVG Export Plug-In . SVG Version: 6.00 Build 0)  -->
<svg version="1.1" id="Capa_1" xmlns="http://www.w3.org/2000/svg" xmlns:xlink="http://www.w3.org/1999/xlink" x="0px" y="0px"
	 viewBox="0 0 319.7 409.9" style="enable-background:new 0 0 319.7 409.9;" xml:space="preserve">
<style type="text/css">
	.st0{fill:#DC9CE8;}
	.st1{fill:url(#Unión_4_1_);}
	.st2{enable-background:new    ;}
	.st3{fill:#12263F;}
	.st4{fill:#451991;}
</style>
<g id="Grupo_120732" transform="translate(-648.771 -1721.539)">
	<g id="Grupo_120724" transform="translate(-222.545 108)">
		<path id="Rectángulo_34583" class="st0" d="M954,1970h134c7.2,0,13,5.8,13,13l0,0c0,7.2-5.8,13-13,13H954l0,0V1970L954,1970z"/>
		<path id="Rectángulo_34584" class="st0" d="M954,1885h134c7.2,0,13,5.8,13,13l0,0c0,7.2-5.8,13-13,13H954l0,0V1885L954,1885z"/>
		<path id="Rectángulo_34585" class="st0" d="M954,1803h160c7.2,0,13,5.8,13,13l0,0c0,7.2-5.8,13-13,13H954l0,0V1803L954,1803z"/>
		<path id="Rectángulo_34586" class="st0" d="M954,1721h160c7.2,0,13,5.8,13,13l0,0c0,7.2-5.8,13-13,13H954l0,0V1721L954,1721z"/>
		<path id="Rectángulo_34587" class="st0" d="M954,1642h224c7.2,0,13,5.8,13,13l0,0c0,7.2-5.8,13-13,13H954l0,0V1642L954,1642z"/>
		<g id="Grupo_120723" transform="translate(-183.188 14.039)">
			
				<linearGradient id="Unión_4_1_" gradientUnits="userSpaceOnUse" x1="-188.1147" y1="3219.2314" x2="-188.2057" y2="3218.4575" gradientTransform="matrix(86.3794 0 0 -408.9014 17289.4844 1317927.75)">
				<stop  offset="0" style="stop-color:#7E57C2"/>
				<stop  offset="1" style="stop-color:#451991"/>
			</linearGradient>
			<path id="Unión_4" class="st1" d="M1055,1965.7c0-10.6,3.9-20.8,10.9-28.7l-3.8-5.6l18.8-1.3l-8.2,16.9l-3.5-5.1
				c-13.2,16-10.9,39.6,5.1,52.7s39.6,10.9,52.7-5.1c13.2-16,10.9-39.6-5.1-52.7c-6.6-5.5-14.9-8.5-23.5-8.5h-0.3
				c-25.3,0-43.7-20.1-43.7-44.6c-25.6-30.8-66.4-96.4-75-118.7c-4.4-11.4-2-25.9-13.4-30.2c-92.8-3.2,4.9-5.5-3.7-27.8
				c-4.4-11.4,47.7-34.5,92.1-63.8c0-23.9,19.8-43.2,43.7-43.2c23.9,0,43.2,19.3,43.2,43.2c0,10.6-3.9,20.8-10.9,28.7l3.8,5.6
				l-18.8,1.3l8.2-16.9l3.5,5.1c13.2-16,10.9-39.6-5.1-52.7s-39.6-10.9-52.7,5.1s-10.9,39.6,5.1,52.7c6.7,5.5,15.1,8.6,23.8,8.6h0.3
				c0,0,0.1,0,0.1,0h0.1c0.1,0,0.1,0,0.2,0h0.1l0.2,0h0.1l0.2,0h0.1l0.2,0h0c23.8,0.8,42.5,20.9,41.6,44.7
				c-0.4,10.1-4.2,19.7-10.9,27.2l3.8,5.6l-18.8,1.4l8.2-16.9l3.5,5.1c13.2-16,10.9-39.6-5.1-52.7c-16-13.2-39.6-10.9-52.7,5.1
				s-10.9,39.6,5.1,52.7c6.7,5.5,15.1,8.5,23.8,8.5h0.3h0.1h0.1c0.1,0,0.1,0,0.2,0h0.1c0.1,0,0.1,0,0.2,0c0,0,0.1,0,0.1,0l0.2,0h0.1
				l0.2,0h0c23.8,0.9,42.5,20.9,41.6,44.7c-0.4,10.1-4.2,19.7-10.9,27.2l3.8,5.6l-18.8,1.4l8.2-16.9l3.5,5.1
				c13.2-16,10.9-39.6-5.1-52.7c-16-13.2-39.6-10.9-52.7,5.1s-10.9,39.6,5.1,52.7c6.7,5.5,15.1,8.6,23.8,8.6h0.3h0.1h0.1h0.2h0.1
				l0.2,0h0.1c0.1,0,0.1,0,0.2,0h0.1l0.2,0h0c23.8,0.9,42.5,20.9,41.6,44.7c-0.4,10.1-4.2,19.7-10.9,27.2l3.8,5.6l-18.8,1.4
				l8.2-16.9l3.5,5.1c13.2-16,10.9-39.6-5.1-52.7c-16-13.2-39.6-10.9-52.7,5.1c-13.2,16-10.9,39.6,5.1,52.7
				c6.7,5.5,15.1,8.5,23.8,8.5c23.9,0,43.2,19.3,43.2,43.2s-19.3,43.2-43.2,43.2C1074.3,2008.9,1055,1989.6,1055,1965.7z
				 M1098.2,1922.5L1098.2,1922.5z M1095.9,1842L1095.9,1842z M1096.9,1841.9L1096.9,1841.9L1096.9,1841.9
				C1097,1841.9,1097,1841.9,1096.9,1841.9L1096.9,1841.9z M1097.2,1841.9L1097.2,1841.9C1097.2,1841.9,1097.2,1841.9,1097.2,1841.9
				C1097.2,1841.9,1097.2,1841.9,1097.2,1841.9L1097.2,1841.9z M1097.2,1841.9L1097.2,1841.9z M1097.5,1841.9L1097.5,1841.9z
				 M1097.7,1841.9L1097.7,1841.9z M1095.9,1761.3L1095.9,1761.3z M1096.9,1761.3L1096.9,1761.3L1096.9,1761.3
				C1097,1761.3,1097,1761.3,1096.9,1761.3L1096.9,1761.3z M1097.1,1761.3h0.1H1097.1z M1097.5,1761.3L1097.5,1761.3z
				 M1097.7,1761.3L1097.7,1761.3z M1096.4,1680.7L1096.4,1680.7z M1096.6,1680.7L1096.6,1680.7z M1097.5,1680.7L1097.5,1680.7z
				 M1097.7,1680.7L1097.7,1680.7C1097.8,1680.7,1097.8,1680.7,1097.7,1680.7C1097.8,1680.6,1097.8,1680.6,1097.7,1680.7
				L1097.7,1680.7z M1097.7,1680.7L1097.7,1680.7z M1098.2,1680.7L1098.2,1680.7z"/>
		</g>
		<g class="st2">
			<path class="st3" d="M984.8,1661.8h5.4v1.2h-6.9v-11.4h1.5V1661.8z"/>
			<path class="st3" d="M996.9,1663c-0.1-0.2-0.2-0.5-0.2-0.9c-0.7,0.7-1.5,1-2.4,1c-0.8,0-1.5-0.2-2.1-0.7
				c-0.5-0.5-0.8-1.1-0.8-1.8c0-0.9,0.3-1.6,1-2.1c0.7-0.5,1.6-0.7,2.8-0.7h1.4v-0.7c0-0.5-0.2-0.9-0.5-1.2
				c-0.3-0.3-0.7-0.4-1.3-0.4c-0.5,0-0.9,0.1-1.3,0.4c-0.3,0.3-0.5,0.6-0.5,0.9h-1.5c0-0.4,0.1-0.8,0.4-1.2c0.3-0.4,0.7-0.7,1.2-0.9
				c0.5-0.2,1.1-0.3,1.7-0.3c1,0,1.7,0.2,2.3,0.7c0.6,0.5,0.8,1.2,0.9,2v3.9c0,0.8,0.1,1.4,0.3,1.9v0.1H996.9z M994.5,1661.9
				c0.5,0,0.9-0.1,1.3-0.4s0.7-0.5,0.9-0.9v-1.7h-1.1c-1.8,0-2.7,0.5-2.7,1.6c0,0.5,0.2,0.8,0.5,1.1
				C993.7,1661.8,994,1661.9,994.5,1661.9z"/>
			<path class="st3" d="M1007.2,1661l2.1-6.5h1.5l-3,8.5h-1.1l-3.1-8.5h1.5L1007.2,1661z"/>
			<path class="st3" d="M1015.6,1663.2c-1.1,0-2.1-0.4-2.8-1.1s-1.1-1.8-1.1-3v-0.3c0-0.8,0.2-1.6,0.5-2.2s0.8-1.2,1.3-1.5
				c0.6-0.4,1.2-0.6,1.9-0.6c1.1,0,2,0.4,2.6,1.1s0.9,1.8,0.9,3.1v0.6h-5.7c0,0.8,0.3,1.5,0.7,2c0.5,0.5,1.1,0.8,1.8,0.8
				c0.5,0,0.9-0.1,1.3-0.3c0.4-0.2,0.7-0.5,0.9-0.8l0.9,0.7C1018.1,1662.6,1017,1663.2,1015.6,1663.2z M1015.4,1655.6
				c-0.6,0-1.1,0.2-1.5,0.6c-0.4,0.4-0.6,1-0.7,1.8h4.2v-0.1c0-0.7-0.2-1.3-0.6-1.7C1016.5,1655.8,1016,1655.6,1015.4,1655.6z"/>
			<path class="st3" d="M1022.2,1663h-1.4v-12h1.4V1663z"/>
			<path class="st3" d="M1024.1,1658.7c0-0.8,0.2-1.6,0.5-2.2c0.3-0.7,0.8-1.2,1.4-1.5c0.6-0.4,1.2-0.5,2-0.5c1.2,0,2.1,0.4,2.8,1.2
				s1.1,1.9,1.1,3.2v0.1c0,0.8-0.2,1.6-0.5,2.2c-0.3,0.7-0.8,1.2-1.4,1.5s-1.3,0.5-2,0.5c-1.1,0-2.1-0.4-2.8-1.2s-1.1-1.9-1.1-3.2
				V1658.7z M1025.5,1658.9c0,0.9,0.2,1.7,0.7,2.3c0.4,0.6,1,0.9,1.7,0.9c0.7,0,1.3-0.3,1.8-0.9c0.4-0.6,0.6-1.4,0.6-2.4
				c0-0.9-0.2-1.7-0.7-2.3c-0.4-0.6-1-0.9-1.8-0.9c-0.7,0-1.3,0.3-1.7,0.9S1025.5,1657.8,1025.5,1658.9z"/>
			<path class="st3" d="M1037,1662c0.5,0,1-0.2,1.4-0.5s0.6-0.7,0.6-1.2h1.4c0,0.5-0.2,0.9-0.5,1.4s-0.7,0.8-1.2,1s-1.1,0.4-1.6,0.4
				c-1.2,0-2.1-0.4-2.7-1.2s-1-1.8-1-3.2v-0.2c0-0.8,0.2-1.6,0.5-2.2s0.7-1.1,1.3-1.5s1.2-0.5,2-0.5c0.9,0,1.7,0.3,2.4,0.9
				s1,1.3,1,2.2h-1.4c0-0.5-0.2-1-0.6-1.3s-0.8-0.5-1.4-0.5c-0.7,0-1.3,0.3-1.7,0.8s-0.6,1.3-0.6,2.3v0.3c0,1,0.2,1.7,0.6,2.2
				S1036.2,1662,1037,1662z"/>
			<path class="st3" d="M1042,1652.3c0-0.2,0.1-0.4,0.2-0.6s0.4-0.2,0.6-0.2s0.5,0.1,0.6,0.2s0.2,0.4,0.2,0.6s-0.1,0.4-0.2,0.6
				s-0.4,0.2-0.6,0.2s-0.5-0.1-0.6-0.2S1042,1652.5,1042,1652.3z M1043.5,1663h-1.4v-8.5h1.4V1663z"/>
			<path class="st3" d="M1045.5,1658.7c0-1.3,0.3-2.3,0.9-3.1s1.4-1.2,2.4-1.2c1,0,1.8,0.3,2.4,1v-4.4h1.4v12h-1.3l-0.1-0.9
				c-0.6,0.7-1.4,1.1-2.4,1.1c-1,0-1.8-0.4-2.4-1.2s-0.9-1.8-0.9-3.1V1658.7z M1047,1658.9c0,1,0.2,1.7,0.6,2.2s0.9,0.8,1.6,0.8
				c0.9,0,1.6-0.4,2-1.2v-3.9c-0.4-0.8-1.1-1.2-2-1.2c-0.7,0-1.3,0.3-1.7,0.8S1047,1657.8,1047,1658.9z"/>
			<path class="st3" d="M1060.1,1663c-0.1-0.2-0.2-0.5-0.2-0.9c-0.7,0.7-1.5,1-2.4,1c-0.8,0-1.5-0.2-2.1-0.7s-0.8-1.1-0.8-1.8
				c0-0.9,0.3-1.6,1-2.1s1.6-0.7,2.8-0.7h1.4v-0.7c0-0.5-0.2-0.9-0.5-1.2s-0.7-0.4-1.3-0.4c-0.5,0-0.9,0.1-1.3,0.4s-0.5,0.6-0.5,0.9
				h-1.5c0-0.4,0.1-0.8,0.4-1.2s0.7-0.7,1.2-0.9s1.1-0.3,1.7-0.3c1,0,1.7,0.2,2.3,0.7s0.8,1.2,0.9,2v3.9c0,0.8,0.1,1.4,0.3,1.9v0.1
				H1060.1z M1057.7,1661.9c0.5,0,0.9-0.1,1.3-0.4s0.7-0.5,0.9-0.9v-1.7h-1.1c-1.8,0-2.7,0.5-2.7,1.6c0,0.5,0.2,0.8,0.5,1.1
				S1057.2,1661.9,1057.7,1661.9z"/>
			<path class="st3" d="M1063.2,1658.7c0-1.3,0.3-2.3,0.9-3.1s1.4-1.2,2.4-1.2c1,0,1.8,0.3,2.4,1v-4.4h1.4v12h-1.3l-0.1-0.9
				c-0.6,0.7-1.4,1.1-2.4,1.1c-1,0-1.8-0.4-2.4-1.2s-0.9-1.8-0.9-3.1V1658.7z M1064.7,1658.9c0,1,0.2,1.7,0.6,2.2s0.9,0.8,1.6,0.8
				c0.9,0,1.6-0.4,2-1.2v-3.9c-0.4-0.8-1.1-1.2-2-1.2c-0.7,0-1.3,0.3-1.7,0.8S1064.7,1657.8,1064.7,1658.9z"/>
			<path class="st3" d="M1076.2,1658.7c0-1.3,0.3-2.3,0.9-3.1s1.4-1.2,2.4-1.2c1,0,1.8,0.3,2.4,1v-4.4h1.4v12h-1.3l-0.1-0.9
				c-0.6,0.7-1.4,1.1-2.4,1.1c-1,0-1.8-0.4-2.4-1.2s-0.9-1.8-0.9-3.1V1658.7z M1077.7,1658.9c0,1,0.2,1.7,0.6,2.2s0.9,0.8,1.6,0.8
				c0.9,0,1.6-0.4,2-1.2v-3.9c-0.4-0.8-1.1-1.2-2-1.2c-0.7,0-1.3,0.3-1.7,0.8S1077.7,1657.8,1077.7,1658.9z"/>
			<path class="st3" d="M1089.1,1663.2c-1.1,0-2.1-0.4-2.8-1.1s-1.1-1.8-1.1-3v-0.3c0-0.8,0.2-1.6,0.5-2.2s0.8-1.2,1.3-1.5
				s1.2-0.6,1.9-0.6c1.1,0,2,0.4,2.6,1.1s0.9,1.8,0.9,3.1v0.6h-5.7c0,0.8,0.3,1.5,0.7,2s1.1,0.8,1.8,0.8c0.5,0,0.9-0.1,1.3-0.3
				s0.7-0.5,0.9-0.8l0.9,0.7C1091.6,1662.6,1090.5,1663.2,1089.1,1663.2z M1088.9,1655.6c-0.6,0-1.1,0.2-1.5,0.6s-0.6,1-0.7,1.8h4.2
				v-0.1c0-0.7-0.2-1.3-0.6-1.7S1089.5,1655.6,1088.9,1655.6z"/>
			<path class="st3" d="M1101.4,1662c0.5,0,1-0.2,1.4-0.5s0.6-0.7,0.6-1.2h1.4c0,0.5-0.2,0.9-0.5,1.4s-0.7,0.8-1.2,1
				s-1.1,0.4-1.6,0.4c-1.2,0-2.1-0.4-2.7-1.2s-1-1.8-1-3.2v-0.2c0-0.8,0.2-1.6,0.5-2.2s0.7-1.1,1.3-1.5s1.2-0.5,2-0.5
				c0.9,0,1.7,0.3,2.4,0.9s1,1.3,1,2.2h-1.4c0-0.5-0.2-1-0.6-1.3s-0.8-0.5-1.4-0.5c-0.7,0-1.3,0.3-1.7,0.8s-0.6,1.3-0.6,2.3v0.3
				c0,1,0.2,1.7,0.6,2.2S1100.7,1662,1101.4,1662z"/>
			<path class="st3" d="M1106.4,1652.3c0-0.2,0.1-0.4,0.2-0.6s0.4-0.2,0.6-0.2s0.5,0.1,0.6,0.2s0.2,0.4,0.2,0.6s-0.1,0.4-0.2,0.6
				s-0.4,0.2-0.6,0.2s-0.5-0.1-0.6-0.2S1106.4,1652.5,1106.4,1652.3z M1108,1663h-1.4v-8.5h1.4V1663z"/>
			<path class="st3" d="M1114.4,1655.8c-0.2,0-0.5-0.1-0.7-0.1c-0.9,0-1.6,0.4-1.9,1.2v6h-1.4v-8.5h1.4l0,1c0.5-0.8,1.1-1.1,2-1.1
				c0.3,0,0.5,0,0.6,0.1V1655.8z"/>
			<path class="st3" d="M1118.9,1662c0.5,0,1-0.2,1.4-0.5s0.6-0.7,0.6-1.2h1.4c0,0.5-0.2,0.9-0.5,1.4s-0.7,0.8-1.2,1
				s-1.1,0.4-1.6,0.4c-1.2,0-2.1-0.4-2.7-1.2s-1-1.8-1-3.2v-0.2c0-0.8,0.2-1.6,0.5-2.2s0.7-1.1,1.3-1.5s1.2-0.5,2-0.5
				c0.9,0,1.7,0.3,2.4,0.9s1,1.3,1,2.2h-1.4c0-0.5-0.2-1-0.6-1.3s-0.8-0.5-1.4-0.5c-0.7,0-1.3,0.3-1.7,0.8s-0.6,1.3-0.6,2.3v0.3
				c0,1,0.2,1.7,0.6,2.2S1118.2,1662,1118.9,1662z"/>
			<path class="st3" d="M1129.1,1662.2c-0.6,0.7-1.4,1-2.5,1c-0.9,0-1.6-0.3-2.1-0.8s-0.7-1.3-0.7-2.3v-5.5h1.4v5.5
				c0,1.3,0.5,1.9,1.6,1.9c1.1,0,1.8-0.4,2.2-1.2v-6.1h1.4v8.5h-1.4L1129.1,1662.2z"/>
			<path class="st3" d="M1134.3,1663h-1.4v-12h1.4V1663z"/>
			<path class="st3" d="M1141.9,1663c-0.1-0.2-0.2-0.5-0.2-0.9c-0.7,0.7-1.5,1-2.4,1c-0.8,0-1.5-0.2-2.1-0.7s-0.8-1.1-0.8-1.8
				c0-0.9,0.3-1.6,1-2.1s1.6-0.7,2.8-0.7h1.4v-0.7c0-0.5-0.2-0.9-0.5-1.2s-0.7-0.4-1.3-0.4c-0.5,0-0.9,0.1-1.3,0.4s-0.5,0.6-0.5,0.9
				h-1.5c0-0.4,0.1-0.8,0.4-1.2s0.7-0.7,1.2-0.9s1.1-0.3,1.7-0.3c1,0,1.7,0.2,2.3,0.7s0.8,1.2,0.9,2v3.9c0,0.8,0.1,1.4,0.3,1.9v0.1
				H1141.9z M1139.5,1661.9c0.5,0,0.9-0.1,1.3-0.4s0.7-0.5,0.9-0.9v-1.7h-1.1c-1.8,0-2.7,0.5-2.7,1.6c0,0.5,0.2,0.8,0.5,1.1
				S1139,1661.9,1139.5,1661.9z"/>
			<path class="st3" d="M1148.7,1662c0.5,0,1-0.2,1.4-0.5s0.6-0.7,0.6-1.2h1.4c0,0.5-0.2,0.9-0.5,1.4s-0.7,0.8-1.2,1
				s-1.1,0.4-1.6,0.4c-1.2,0-2.1-0.4-2.7-1.2s-1-1.8-1-3.2v-0.2c0-0.8,0.2-1.6,0.5-2.2s0.7-1.1,1.3-1.5s1.2-0.5,2-0.5
				c0.9,0,1.7,0.3,2.4,0.9s1,1.3,1,2.2h-1.4c0-0.5-0.2-1-0.6-1.3s-0.8-0.5-1.4-0.5c-0.7,0-1.3,0.3-1.7,0.8s-0.6,1.3-0.6,2.3v0.3
				c0,1,0.2,1.7,0.6,2.2S1148,1662,1148.7,1662z"/>
			<path class="st3" d="M1153.7,1652.3c0-0.2,0.1-0.4,0.2-0.6s0.4-0.2,0.6-0.2s0.5,0.1,0.6,0.2s0.2,0.4,0.2,0.6s-0.1,0.4-0.2,0.6
				s-0.4,0.2-0.6,0.2s-0.5-0.1-0.6-0.2S1153.7,1652.5,1153.7,1652.3z M1155.3,1663h-1.4v-8.5h1.4V1663z"/>
			<path class="st3" d="M1157.2,1658.7c0-0.8,0.2-1.6,0.5-2.2s0.8-1.2,1.4-1.5s1.2-0.5,2-0.5c1.2,0,2.1,0.4,2.8,1.2s1.1,1.9,1.1,3.2
				v0.1c0,0.8-0.2,1.6-0.5,2.2s-0.8,1.2-1.4,1.5s-1.3,0.5-2,0.5c-1.1,0-2.1-0.4-2.8-1.2s-1.1-1.9-1.1-3.2V1658.7z M1158.7,1658.9
				c0,0.9,0.2,1.7,0.7,2.3s1,0.9,1.7,0.9c0.7,0,1.3-0.3,1.8-0.9s0.6-1.4,0.6-2.4c0-0.9-0.2-1.7-0.7-2.3s-1-0.9-1.8-0.9
				c-0.7,0-1.3,0.3-1.7,0.9S1158.7,1657.8,1158.7,1658.9z M1161.7,1651h1.8l-2.1,2.3l-1.2,0L1161.7,1651z"/>
			<path class="st3" d="M1168.1,1654.5l0,1.1c0.6-0.8,1.5-1.2,2.5-1.2c1.8,0,2.7,1,2.7,3v5.6h-1.4v-5.6c0-0.6-0.1-1.1-0.4-1.4
				s-0.7-0.4-1.3-0.4c-0.5,0-0.9,0.1-1.2,0.4s-0.6,0.6-0.8,1v6h-1.4v-8.5H1168.1z"/>
		</g>
		<g class="st2">
			<path class="st3" d="M984.8,1739.8h5.4v1.2h-6.9v-11.4h1.5V1739.8z"/>
			<path class="st3" d="M996.9,1741c-0.1-0.2-0.2-0.5-0.2-0.9c-0.7,0.7-1.5,1-2.4,1c-0.8,0-1.5-0.2-2.1-0.7
				c-0.5-0.5-0.8-1.1-0.8-1.8c0-0.9,0.3-1.6,1-2.1c0.7-0.5,1.6-0.7,2.8-0.7h1.4v-0.7c0-0.5-0.2-0.9-0.5-1.2
				c-0.3-0.3-0.7-0.4-1.3-0.4c-0.5,0-0.9,0.1-1.3,0.4c-0.3,0.3-0.5,0.6-0.5,0.9h-1.5c0-0.4,0.1-0.8,0.4-1.2c0.3-0.4,0.7-0.7,1.2-0.9
				c0.5-0.2,1.1-0.3,1.7-0.3c1,0,1.7,0.2,2.3,0.7c0.6,0.5,0.8,1.2,0.9,2v3.9c0,0.8,0.1,1.4,0.3,1.9v0.1H996.9z M994.5,1739.9
				c0.5,0,0.9-0.1,1.3-0.4s0.7-0.5,0.9-0.9v-1.7h-1.1c-1.8,0-2.7,0.5-2.7,1.6c0,0.5,0.2,0.8,0.5,1.1
				C993.7,1739.8,994,1739.9,994.5,1739.9z"/>
			<path class="st3" d="M1004,1736.7c0-1.3,0.3-2.3,0.9-3.1c0.6-0.8,1.4-1.2,2.4-1.2c1,0,1.8,0.3,2.4,1v-4.4h1.4v12h-1.3l-0.1-0.9
				c-0.6,0.7-1.4,1.1-2.4,1.1c-1,0-1.8-0.4-2.4-1.2s-0.9-1.8-0.9-3.1V1736.7z M1005.5,1736.9c0,1,0.2,1.7,0.6,2.2
				c0.4,0.5,0.9,0.8,1.6,0.8c0.9,0,1.6-0.4,2-1.2v-3.9c-0.4-0.8-1.1-1.2-2-1.2c-0.7,0-1.3,0.3-1.7,0.8
				C1005.7,1735,1005.5,1735.8,1005.5,1736.9z"/>
			<path class="st3" d="M1013.4,1730.3c0-0.2,0.1-0.4,0.2-0.6c0.1-0.2,0.4-0.2,0.6-0.2s0.5,0.1,0.6,0.2c0.1,0.2,0.2,0.4,0.2,0.6
				s-0.1,0.4-0.2,0.6c-0.1,0.2-0.4,0.2-0.6,0.2s-0.5-0.1-0.6-0.2C1013.5,1730.8,1013.4,1730.6,1013.4,1730.3z M1015,1741h-1.4v-8.5
				h1.4V1741z"/>
			<path class="st3" d="M1022.2,1738.8c0-0.4-0.1-0.7-0.4-0.9c-0.3-0.2-0.8-0.4-1.5-0.6c-0.7-0.2-1.3-0.3-1.7-0.6s-0.7-0.5-1-0.8
				c-0.2-0.3-0.3-0.7-0.3-1.1c0-0.7,0.3-1.3,0.9-1.8s1.3-0.7,2.2-0.7c1,0,1.7,0.2,2.3,0.7c0.6,0.5,0.9,1.1,0.9,1.9h-1.5
				c0-0.4-0.2-0.7-0.5-1s-0.8-0.4-1.3-0.4c-0.5,0-0.9,0.1-1.2,0.3s-0.4,0.5-0.4,0.9c0,0.3,0.1,0.6,0.4,0.8c0.3,0.2,0.8,0.3,1.5,0.5
				c0.7,0.2,1.3,0.4,1.8,0.6c0.4,0.2,0.8,0.5,1,0.8c0.2,0.3,0.3,0.7,0.3,1.2c0,0.8-0.3,1.4-0.9,1.8c-0.6,0.5-1.4,0.7-2.4,0.7
				c-0.7,0-1.3-0.1-1.8-0.4c-0.5-0.2-0.9-0.6-1.2-1c-0.3-0.4-0.4-0.9-0.4-1.4h1.4c0,0.5,0.2,0.9,0.6,1.2c0.4,0.3,0.8,0.4,1.4,0.4
				c0.5,0,1-0.1,1.3-0.3C1022,1739.5,1022.2,1739.2,1022.2,1738.8z"/>
			<path class="st3" d="M1032.7,1736.9c0,1.3-0.3,2.3-0.9,3.1c-0.6,0.8-1.4,1.2-2.4,1.2c-1,0-1.8-0.3-2.4-1v4.1h-1.4v-11.7h1.3
				l0.1,0.9c0.6-0.7,1.4-1.1,2.5-1.1c1,0,1.8,0.4,2.4,1.1c0.6,0.8,0.9,1.8,0.9,3.2V1736.9z M1031.2,1736.7c0-1-0.2-1.7-0.6-2.3
				s-1-0.8-1.7-0.8c-0.9,0-1.5,0.4-2,1.2v4c0.4,0.8,1.1,1.2,2,1.2c0.7,0,1.2-0.3,1.7-0.8C1031,1738.6,1031.2,1737.8,1031.2,1736.7z"
				/>
			<path class="st3" d="M1034.1,1736.7c0-0.8,0.2-1.6,0.5-2.2s0.8-1.2,1.4-1.5s1.2-0.5,2-0.5c1.2,0,2.1,0.4,2.8,1.2s1.1,1.9,1.1,3.2
				v0.1c0,0.8-0.2,1.6-0.5,2.2s-0.8,1.2-1.4,1.5s-1.3,0.5-2,0.5c-1.1,0-2.1-0.4-2.8-1.2s-1.1-1.9-1.1-3.2V1736.7z M1035.6,1736.9
				c0,0.9,0.2,1.7,0.7,2.3s1,0.9,1.7,0.9c0.7,0,1.3-0.3,1.8-0.9s0.6-1.4,0.6-2.4c0-0.9-0.2-1.7-0.7-2.3s-1-0.9-1.8-0.9
				c-0.7,0-1.3,0.3-1.7,0.9S1035.6,1735.8,1035.6,1736.9z"/>
			<path class="st3" d="M1045,1732.6l0,1.1c0.6-0.8,1.5-1.2,2.5-1.2c1.8,0,2.7,1,2.7,3v5.6h-1.4v-5.6c0-0.6-0.1-1.1-0.4-1.4
				s-0.7-0.4-1.3-0.4c-0.5,0-0.9,0.1-1.2,0.4s-0.6,0.6-0.8,1v6h-1.4v-8.5H1045z"/>
			<path class="st3" d="M1052.5,1730.3c0-0.2,0.1-0.4,0.2-0.6s0.4-0.2,0.6-0.2s0.5,0.1,0.6,0.2s0.2,0.4,0.2,0.6s-0.1,0.4-0.2,0.6
				s-0.4,0.2-0.6,0.2s-0.5-0.1-0.6-0.2S1052.5,1730.6,1052.5,1730.3z M1054,1741h-1.4v-8.5h1.4V1741z"/>
			<path class="st3" d="M1063.5,1736.9c0,1.3-0.3,2.3-0.9,3.1s-1.4,1.2-2.4,1.2c-1.1,0-1.9-0.4-2.5-1.1l-0.1,1h-1.3v-12h1.4v4.5
				c0.6-0.7,1.4-1.1,2.4-1.1s1.8,0.4,2.4,1.2s0.9,1.8,0.9,3.2V1736.9z M1062,1736.7c0-1-0.2-1.7-0.6-2.3s-0.9-0.8-1.6-0.8
				c-1,0-1.6,0.4-2.1,1.3v3.7c0.4,0.9,1.1,1.3,2.1,1.3c0.7,0,1.2-0.3,1.6-0.8S1062,1737.8,1062,1736.7z"/>
			<path class="st3" d="M1065.3,1730.3c0-0.2,0.1-0.4,0.2-0.6s0.4-0.2,0.6-0.2s0.5,0.1,0.6,0.2s0.2,0.4,0.2,0.6s-0.1,0.4-0.2,0.6
				s-0.4,0.2-0.6,0.2s-0.5-0.1-0.6-0.2S1065.3,1730.6,1065.3,1730.3z M1066.9,1741h-1.4v-8.5h1.4V1741z"/>
			<path class="st3" d="M1070.8,1741h-1.4v-12h1.4V1741z"/>
			<path class="st3" d="M1073.1,1730.3c0-0.2,0.1-0.4,0.2-0.6s0.4-0.2,0.6-0.2s0.5,0.1,0.6,0.2s0.2,0.4,0.2,0.6s-0.1,0.4-0.2,0.6
				s-0.4,0.2-0.6,0.2s-0.5-0.1-0.6-0.2S1073.1,1730.6,1073.1,1730.3z M1074.6,1741h-1.4v-8.5h1.4V1741z"/>
			<path class="st3" d="M1076.6,1736.7c0-1.3,0.3-2.3,0.9-3.1s1.4-1.2,2.4-1.2c1,0,1.8,0.3,2.4,1v-4.4h1.4v12h-1.3l-0.1-0.9
				c-0.6,0.7-1.4,1.1-2.4,1.1c-1,0-1.8-0.4-2.4-1.2s-0.9-1.8-0.9-3.1V1736.7z M1078.1,1736.9c0,1,0.2,1.7,0.6,2.2s0.9,0.8,1.6,0.8
				c0.9,0,1.6-0.4,2-1.2v-3.9c-0.4-0.8-1.1-1.2-2-1.2c-0.7,0-1.3,0.3-1.7,0.8S1078.1,1735.8,1078.1,1736.9z"/>
			<path class="st3" d="M1091.2,1741c-0.1-0.2-0.2-0.5-0.2-0.9c-0.7,0.7-1.5,1-2.4,1c-0.8,0-1.5-0.2-2.1-0.7s-0.8-1.1-0.8-1.8
				c0-0.9,0.3-1.6,1-2.1s1.6-0.7,2.8-0.7h1.4v-0.7c0-0.5-0.2-0.9-0.5-1.2s-0.7-0.4-1.3-0.4c-0.5,0-0.9,0.1-1.3,0.4s-0.5,0.6-0.5,0.9
				h-1.5c0-0.4,0.1-0.8,0.4-1.2s0.7-0.7,1.2-0.9s1.1-0.3,1.7-0.3c1,0,1.7,0.2,2.3,0.7s0.8,1.2,0.9,2v3.9c0,0.8,0.1,1.4,0.3,1.9v0.1
				H1091.2z M1088.8,1739.9c0.5,0,0.9-0.1,1.3-0.4s0.7-0.5,0.9-0.9v-1.7h-1.1c-1.8,0-2.7,0.5-2.7,1.6c0,0.5,0.2,0.8,0.5,1.1
				S1088.3,1739.9,1088.8,1739.9z"/>
			<path class="st3" d="M1094.3,1736.7c0-1.3,0.3-2.3,0.9-3.1s1.4-1.2,2.4-1.2c1,0,1.8,0.3,2.4,1v-4.4h1.4v12h-1.3l-0.1-0.9
				c-0.6,0.7-1.4,1.1-2.4,1.1c-1,0-1.8-0.4-2.4-1.2s-0.9-1.8-0.9-3.1V1736.7z M1095.8,1736.9c0,1,0.2,1.7,0.6,2.2s0.9,0.8,1.6,0.8
				c0.9,0,1.6-0.4,2-1.2v-3.9c-0.4-0.8-1.1-1.2-2-1.2c-0.7,0-1.3,0.3-1.7,0.8S1095.8,1735.8,1095.8,1736.9z"/>
		</g>
		<g class="st2">
			<path class="st3" d="M984.8,1821.8h5.4v1.2h-6.9v-11.4h1.5V1821.8z"/>
			<path class="st3" d="M996.9,1823c-0.1-0.2-0.2-0.5-0.2-0.9c-0.7,0.7-1.5,1-2.4,1c-0.8,0-1.5-0.2-2.1-0.7
				c-0.5-0.5-0.8-1.1-0.8-1.8c0-0.9,0.3-1.6,1-2.1c0.7-0.5,1.6-0.7,2.8-0.7h1.4v-0.7c0-0.5-0.2-0.9-0.5-1.2
				c-0.3-0.3-0.7-0.4-1.3-0.4c-0.5,0-0.9,0.1-1.3,0.4c-0.3,0.3-0.5,0.6-0.5,0.9h-1.5c0-0.4,0.1-0.8,0.4-1.2c0.3-0.4,0.7-0.7,1.2-0.9
				c0.5-0.2,1.1-0.3,1.7-0.3c1,0,1.7,0.2,2.3,0.7c0.6,0.5,0.8,1.2,0.9,2v3.9c0,0.8,0.1,1.4,0.3,1.9v0.1H996.9z M994.5,1821.9
				c0.5,0,0.9-0.1,1.3-0.4s0.7-0.5,0.9-0.9v-1.7h-1.1c-1.8,0-2.7,0.5-2.7,1.6c0,0.5,0.2,0.8,0.5,1.1
				C993.7,1821.8,994,1821.9,994.5,1821.9z"/>
			<path class="st3" d="M1007.8,1822c0.5,0,1-0.2,1.4-0.5c0.4-0.3,0.6-0.7,0.6-1.2h1.4c0,0.5-0.2,0.9-0.5,1.4
				c-0.3,0.4-0.7,0.8-1.2,1c-0.5,0.3-1.1,0.4-1.6,0.4c-1.2,0-2.1-0.4-2.7-1.2s-1-1.8-1-3.2v-0.2c0-0.8,0.2-1.6,0.5-2.2
				c0.3-0.6,0.7-1.1,1.3-1.5c0.6-0.4,1.2-0.5,2-0.5c0.9,0,1.7,0.3,2.4,0.9c0.6,0.6,1,1.3,1,2.2h-1.4c0-0.5-0.2-1-0.6-1.3
				c-0.4-0.4-0.8-0.5-1.4-0.5c-0.7,0-1.3,0.3-1.7,0.8c-0.4,0.5-0.6,1.3-0.6,2.3v0.3c0,1,0.2,1.7,0.6,2.2
				C1006.4,1821.7,1007,1822,1007.8,1822z"/>
			<path class="st3" d="M1012.4,1818.7c0-0.8,0.2-1.6,0.5-2.2c0.3-0.7,0.8-1.2,1.4-1.5c0.6-0.4,1.2-0.5,2-0.5c1.2,0,2.1,0.4,2.8,1.2
				s1.1,1.9,1.1,3.2v0.1c0,0.8-0.2,1.6-0.5,2.2c-0.3,0.7-0.8,1.2-1.4,1.5s-1.3,0.5-2,0.5c-1.1,0-2.1-0.4-2.8-1.2s-1.1-1.9-1.1-3.2
				V1818.7z M1013.8,1818.9c0,0.9,0.2,1.7,0.7,2.3c0.4,0.6,1,0.9,1.7,0.9c0.7,0,1.3-0.3,1.8-0.9c0.4-0.6,0.6-1.4,0.6-2.4
				c0-0.9-0.2-1.7-0.7-2.3c-0.4-0.6-1-0.9-1.8-0.9c-0.7,0-1.3,0.3-1.7,0.9S1013.8,1817.8,1013.8,1818.9z"/>
			<path class="st3" d="M1023.2,1814.5l0,1.1c0.6-0.8,1.5-1.2,2.5-1.2c1.8,0,2.7,1,2.7,3v5.6h-1.4v-5.6c0-0.6-0.1-1.1-0.4-1.4
				s-0.7-0.4-1.3-0.4c-0.5,0-0.9,0.1-1.2,0.4c-0.4,0.2-0.6,0.6-0.8,1v6h-1.4v-8.5H1023.2z"/>
			<path class="st3" d="M1031.4,1823v-7.3h-1.3v-1.1h1.3v-0.9c0-0.9,0.2-1.6,0.7-2.1c0.5-0.5,1.2-0.7,2.1-0.7c0.3,0,0.7,0,1,0.1
				l-0.1,1.2c-0.2,0-0.5-0.1-0.8-0.1c-0.5,0-0.8,0.1-1.1,0.4s-0.4,0.7-0.4,1.2v0.9h1.8v1.1h-1.8v7.3H1031.4z"/>
			<path class="st3" d="M1036.3,1812.3c0-0.2,0.1-0.4,0.2-0.6s0.4-0.2,0.6-0.2s0.5,0.1,0.6,0.2s0.2,0.4,0.2,0.6s-0.1,0.4-0.2,0.6
				s-0.4,0.2-0.6,0.2s-0.5-0.1-0.6-0.2S1036.3,1812.5,1036.3,1812.3z M1037.8,1823h-1.4v-8.5h1.4V1823z"/>
			<path class="st3" d="M1045.4,1823c-0.1-0.2-0.2-0.5-0.2-0.9c-0.7,0.7-1.5,1-2.4,1c-0.8,0-1.5-0.2-2.1-0.7s-0.8-1.1-0.8-1.8
				c0-0.9,0.3-1.6,1-2.1s1.6-0.7,2.8-0.7h1.4v-0.7c0-0.5-0.2-0.9-0.5-1.2s-0.7-0.4-1.3-0.4c-0.5,0-0.9,0.1-1.3,0.4s-0.5,0.6-0.5,0.9
				h-1.5c0-0.4,0.1-0.8,0.4-1.2s0.7-0.7,1.2-0.9s1.1-0.3,1.7-0.3c1,0,1.7,0.2,2.3,0.7s0.8,1.2,0.9,2v3.9c0,0.8,0.1,1.4,0.3,1.9v0.1
				H1045.4z M1043,1821.9c0.5,0,0.9-0.1,1.3-0.4s0.7-0.5,0.9-0.9v-1.7h-1.1c-1.8,0-2.7,0.5-2.7,1.6c0,0.5,0.2,0.8,0.5,1.1
				S1042.5,1821.9,1043,1821.9z"/>
			<path class="st3" d="M1050.2,1814.5l0,1.1c0.6-0.8,1.5-1.2,2.5-1.2c1.8,0,2.7,1,2.7,3v5.6h-1.4v-5.6c0-0.6-0.1-1.1-0.4-1.4
				s-0.7-0.4-1.3-0.4c-0.5,0-0.9,0.1-1.2,0.4s-0.6,0.6-0.8,1v6h-1.4v-8.5H1050.2z"/>
			<path class="st3" d="M1064.8,1818.9c0,1.3-0.3,2.3-0.9,3.1s-1.4,1.2-2.4,1.2c-1.1,0-1.9-0.4-2.5-1.1l-0.1,1h-1.3v-12h1.4v4.5
				c0.6-0.7,1.4-1.1,2.4-1.1s1.8,0.4,2.4,1.2s0.9,1.8,0.9,3.2V1818.9z M1063.4,1818.7c0-1-0.2-1.7-0.6-2.3s-0.9-0.8-1.6-0.8
				c-1,0-1.6,0.4-2.1,1.3v3.7c0.4,0.9,1.1,1.3,2.1,1.3c0.7,0,1.2-0.3,1.6-0.8S1063.4,1819.8,1063.4,1818.7z"/>
			<path class="st3" d="M1066.6,1812.3c0-0.2,0.1-0.4,0.2-0.6s0.4-0.2,0.6-0.2s0.5,0.1,0.6,0.2s0.2,0.4,0.2,0.6s-0.1,0.4-0.2,0.6
				s-0.4,0.2-0.6,0.2s-0.5-0.1-0.6-0.2S1066.6,1812.5,1066.6,1812.3z M1068.2,1823h-1.4v-8.5h1.4V1823z"/>
			<path class="st3" d="M1072.1,1823h-1.4v-12h1.4V1823z"/>
			<path class="st3" d="M1074.4,1812.3c0-0.2,0.1-0.4,0.2-0.6s0.4-0.2,0.6-0.2s0.5,0.1,0.6,0.2s0.2,0.4,0.2,0.6s-0.1,0.4-0.2,0.6
				s-0.4,0.2-0.6,0.2s-0.5-0.1-0.6-0.2S1074.4,1812.5,1074.4,1812.3z M1076,1823h-1.4v-8.5h1.4V1823z"/>
			<path class="st3" d="M1077.9,1818.7c0-1.3,0.3-2.3,0.9-3.1s1.4-1.2,2.4-1.2c1,0,1.8,0.3,2.4,1v-4.4h1.4v12h-1.3l-0.1-0.9
				c-0.6,0.7-1.4,1.1-2.4,1.1c-1,0-1.8-0.4-2.4-1.2s-0.9-1.8-0.9-3.1V1818.7z M1079.4,1818.9c0,1,0.2,1.7,0.6,2.2s0.9,0.8,1.6,0.8
				c0.9,0,1.6-0.4,2-1.2v-3.9c-0.4-0.8-1.1-1.2-2-1.2c-0.7,0-1.3,0.3-1.7,0.8S1079.4,1817.8,1079.4,1818.9z"/>
			<path class="st3" d="M1092.5,1823c-0.1-0.2-0.2-0.5-0.2-0.9c-0.7,0.7-1.5,1-2.4,1c-0.8,0-1.5-0.2-2.1-0.7s-0.8-1.1-0.8-1.8
				c0-0.9,0.3-1.6,1-2.1s1.6-0.7,2.8-0.7h1.4v-0.7c0-0.5-0.2-0.9-0.5-1.2s-0.7-0.4-1.3-0.4c-0.5,0-0.9,0.1-1.3,0.4s-0.5,0.6-0.5,0.9
				h-1.5c0-0.4,0.1-0.8,0.4-1.2s0.7-0.7,1.2-0.9s1.1-0.3,1.7-0.3c1,0,1.7,0.2,2.3,0.7s0.8,1.2,0.9,2v3.9c0,0.8,0.1,1.4,0.3,1.9v0.1
				H1092.5z M1090.1,1821.9c0.5,0,0.9-0.1,1.3-0.4s0.7-0.5,0.9-0.9v-1.7h-1.1c-1.8,0-2.7,0.5-2.7,1.6c0,0.5,0.2,0.8,0.5,1.1
				S1089.7,1821.9,1090.1,1821.9z"/>
			<path class="st3" d="M1095.7,1818.7c0-1.3,0.3-2.3,0.9-3.1s1.4-1.2,2.4-1.2c1,0,1.8,0.3,2.4,1v-4.4h1.4v12h-1.3l-0.1-0.9
				c-0.6,0.7-1.4,1.1-2.4,1.1c-1,0-1.8-0.4-2.4-1.2s-0.9-1.8-0.9-3.1V1818.7z M1097.1,1818.9c0,1,0.2,1.7,0.6,2.2s0.9,0.8,1.6,0.8
				c0.9,0,1.6-0.4,2-1.2v-3.9c-0.4-0.8-1.1-1.2-2-1.2c-0.7,0-1.3,0.3-1.7,0.8S1097.1,1817.8,1097.1,1818.9z"/>
		</g>
		<g class="st2">
			<path class="st3" d="M984.8,1903.8h5.4v1.2h-6.9v-11.4h1.5V1903.8z"/>
			<path class="st3" d="M996.9,1905c-0.1-0.2-0.2-0.5-0.2-0.9c-0.7,0.7-1.5,1-2.4,1c-0.8,0-1.5-0.2-2.1-0.7
				c-0.5-0.5-0.8-1.1-0.8-1.8c0-0.9,0.3-1.6,1-2.1c0.7-0.5,1.6-0.7,2.8-0.7h1.4v-0.7c0-0.5-0.2-0.9-0.5-1.2
				c-0.3-0.3-0.7-0.4-1.3-0.4c-0.5,0-0.9,0.1-1.3,0.4c-0.3,0.3-0.5,0.6-0.5,0.9h-1.5c0-0.4,0.1-0.8,0.4-1.2c0.3-0.4,0.7-0.7,1.2-0.9
				c0.5-0.2,1.1-0.3,1.7-0.3c1,0,1.7,0.2,2.3,0.7c0.6,0.5,0.8,1.2,0.9,2v3.9c0,0.8,0.1,1.4,0.3,1.9v0.1H996.9z M994.5,1903.9
				c0.5,0,0.9-0.1,1.3-0.4s0.7-0.5,0.9-0.9v-1.7h-1.1c-1.8,0-2.7,0.5-2.7,1.6c0,0.5,0.2,0.8,0.5,1.1
				C993.7,1903.8,994,1903.9,994.5,1903.9z"/>
			<path class="st3" d="M1007.8,1904c0.5,0,1-0.2,1.4-0.5c0.4-0.3,0.6-0.7,0.6-1.2h1.4c0,0.5-0.2,0.9-0.5,1.4
				c-0.3,0.4-0.7,0.8-1.2,1c-0.5,0.3-1.1,0.4-1.6,0.4c-1.2,0-2.1-0.4-2.7-1.2s-1-1.8-1-3.2v-0.2c0-0.8,0.2-1.6,0.5-2.2
				c0.3-0.6,0.7-1.1,1.3-1.5c0.6-0.4,1.2-0.5,2-0.5c0.9,0,1.7,0.3,2.4,0.9c0.6,0.6,1,1.3,1,2.2h-1.4c0-0.5-0.2-1-0.6-1.3
				c-0.4-0.4-0.8-0.5-1.4-0.5c-0.7,0-1.3,0.3-1.7,0.8c-0.4,0.5-0.6,1.3-0.6,2.3v0.3c0,1,0.2,1.7,0.6,2.2
				C1006.4,1903.7,1007,1904,1007.8,1904z"/>
			<path class="st3" d="M1018,1905c-0.1-0.2-0.2-0.5-0.2-0.9c-0.7,0.7-1.5,1-2.4,1c-0.8,0-1.5-0.2-2.1-0.7c-0.5-0.5-0.8-1.1-0.8-1.8
				c0-0.9,0.3-1.6,1-2.1c0.7-0.5,1.6-0.7,2.8-0.7h1.4v-0.7c0-0.5-0.2-0.9-0.5-1.2c-0.3-0.3-0.7-0.4-1.3-0.4c-0.5,0-0.9,0.1-1.3,0.4
				c-0.3,0.3-0.5,0.6-0.5,0.9h-1.5c0-0.4,0.1-0.8,0.4-1.2c0.3-0.4,0.7-0.7,1.2-0.9c0.5-0.2,1.1-0.3,1.7-0.3c1,0,1.7,0.2,2.3,0.7
				c0.6,0.5,0.8,1.2,0.9,2v3.9c0,0.8,0.1,1.4,0.3,1.9v0.1H1018z M1015.6,1903.9c0.5,0,0.9-0.1,1.3-0.4s0.7-0.5,0.9-0.9v-1.7h-1.1
				c-1.8,0-2.7,0.5-2.7,1.6c0,0.5,0.2,0.8,0.5,1.1C1014.7,1903.8,1015.1,1903.9,1015.6,1903.9z"/>
			<path class="st3" d="M1028.6,1900.9c0,1.3-0.3,2.3-0.9,3.1c-0.6,0.8-1.4,1.2-2.4,1.2c-1,0-1.8-0.3-2.4-1v4.1h-1.4v-11.7h1.3
				l0.1,0.9c0.6-0.7,1.4-1.1,2.5-1.1c1,0,1.8,0.4,2.4,1.1c0.6,0.8,0.9,1.8,0.9,3.2V1900.9z M1027.1,1900.7c0-1-0.2-1.7-0.6-2.3
				s-1-0.8-1.7-0.8c-0.9,0-1.5,0.4-2,1.2v4c0.4,0.8,1.1,1.2,2,1.2c0.7,0,1.2-0.3,1.7-0.8C1026.9,1902.6,1027.1,1901.8,1027.1,1900.7
				z"/>
			<path class="st3" d="M1035.6,1905c-0.1-0.2-0.2-0.5-0.2-0.9c-0.7,0.7-1.5,1-2.4,1c-0.8,0-1.5-0.2-2.1-0.7
				c-0.5-0.5-0.8-1.1-0.8-1.8c0-0.9,0.3-1.6,1-2.1c0.7-0.5,1.6-0.7,2.8-0.7h1.4v-0.7c0-0.5-0.2-0.9-0.5-1.2s-0.7-0.4-1.3-0.4
				c-0.5,0-0.9,0.1-1.3,0.4s-0.5,0.6-0.5,0.9h-1.5c0-0.4,0.1-0.8,0.4-1.2c0.3-0.4,0.7-0.7,1.2-0.9c0.5-0.2,1.1-0.3,1.7-0.3
				c1,0,1.7,0.2,2.3,0.7s0.8,1.2,0.9,2v3.9c0,0.8,0.1,1.4,0.3,1.9v0.1H1035.6z M1033.2,1903.9c0.5,0,0.9-0.1,1.3-0.4
				s0.7-0.5,0.9-0.9v-1.7h-1.1c-1.8,0-2.7,0.5-2.7,1.6c0,0.5,0.2,0.8,0.5,1.1C1032.4,1903.8,1032.8,1903.9,1033.2,1903.9z"/>
			<path class="st3" d="M1042.5,1904c0.5,0,1-0.2,1.4-0.5s0.6-0.7,0.6-1.2h1.4c0,0.5-0.2,0.9-0.5,1.4s-0.7,0.8-1.2,1
				s-1.1,0.4-1.6,0.4c-1.2,0-2.1-0.4-2.7-1.2s-1-1.8-1-3.2v-0.2c0-0.8,0.2-1.6,0.5-2.2s0.7-1.1,1.3-1.5s1.2-0.5,2-0.5
				c0.9,0,1.7,0.3,2.4,0.9s1,1.3,1,2.2h-1.4c0-0.5-0.2-1-0.6-1.3s-0.8-0.5-1.4-0.5c-0.7,0-1.3,0.3-1.7,0.8s-0.6,1.3-0.6,2.3v0.3
				c0,1,0.2,1.7,0.6,2.2S1041.8,1904,1042.5,1904z"/>
			<path class="st3" d="M1047.5,1894.3c0-0.2,0.1-0.4,0.2-0.6s0.4-0.2,0.6-0.2s0.5,0.1,0.6,0.2s0.2,0.4,0.2,0.6s-0.1,0.4-0.2,0.6
				s-0.4,0.2-0.6,0.2s-0.5-0.1-0.6-0.2S1047.5,1894.5,1047.5,1894.3z M1049.1,1905h-1.4v-8.5h1.4V1905z"/>
			<path class="st3" d="M1051,1900.7c0-1.3,0.3-2.3,0.9-3.1s1.4-1.2,2.4-1.2c1,0,1.8,0.3,2.4,1v-4.4h1.4v12h-1.3l-0.1-0.9
				c-0.6,0.7-1.4,1.1-2.4,1.1c-1,0-1.8-0.4-2.4-1.2s-0.9-1.8-0.9-3.1V1900.7z M1052.5,1900.9c0,1,0.2,1.7,0.6,2.2s0.9,0.8,1.6,0.8
				c0.9,0,1.6-0.4,2-1.2v-3.9c-0.4-0.8-1.1-1.2-2-1.2c-0.7,0-1.3,0.3-1.7,0.8S1052.5,1899.8,1052.5,1900.9z"/>
			<path class="st3" d="M1065.6,1905c-0.1-0.2-0.2-0.5-0.2-0.9c-0.7,0.7-1.5,1-2.4,1c-0.8,0-1.5-0.2-2.1-0.7s-0.8-1.1-0.8-1.8
				c0-0.9,0.3-1.6,1-2.1s1.6-0.7,2.8-0.7h1.4v-0.7c0-0.5-0.2-0.9-0.5-1.2s-0.7-0.4-1.3-0.4c-0.5,0-0.9,0.1-1.3,0.4s-0.5,0.6-0.5,0.9
				h-1.5c0-0.4,0.1-0.8,0.4-1.2s0.7-0.7,1.2-0.9s1.1-0.3,1.7-0.3c1,0,1.7,0.2,2.3,0.7s0.8,1.2,0.9,2v3.9c0,0.8,0.1,1.4,0.3,1.9v0.1
				H1065.6z M1063.2,1903.9c0.5,0,0.9-0.1,1.3-0.4s0.7-0.5,0.9-0.9v-1.7h-1.1c-1.8,0-2.7,0.5-2.7,1.6c0,0.5,0.2,0.8,0.5,1.1
				S1062.8,1903.9,1063.2,1903.9z"/>
			<path class="st3" d="M1068.8,1900.7c0-1.3,0.3-2.3,0.9-3.1s1.4-1.2,2.4-1.2c1,0,1.8,0.3,2.4,1v-4.4h1.4v12h-1.3l-0.1-0.9
				c-0.6,0.7-1.4,1.1-2.4,1.1c-1,0-1.8-0.4-2.4-1.2s-0.9-1.8-0.9-3.1V1900.7z M1070.2,1900.9c0,1,0.2,1.7,0.6,2.2s0.9,0.8,1.6,0.8
				c0.9,0,1.6-0.4,2-1.2v-3.9c-0.4-0.8-1.1-1.2-2-1.2c-0.7,0-1.3,0.3-1.7,0.8S1070.2,1899.8,1070.2,1900.9z"/>
		</g>
		<g class="st2">
			<path class="st3" d="M984.8,1987.8h5.4v1.2h-6.9v-11.4h1.5V1987.8z"/>
			<path class="st3" d="M996.9,1989c-0.1-0.2-0.2-0.5-0.2-0.9c-0.7,0.7-1.5,1-2.4,1c-0.8,0-1.5-0.2-2.1-0.7
				c-0.5-0.5-0.8-1.1-0.8-1.8c0-0.9,0.3-1.6,1-2.1c0.7-0.5,1.6-0.7,2.8-0.7h1.4v-0.7c0-0.5-0.2-0.9-0.5-1.2
				c-0.3-0.3-0.7-0.4-1.3-0.4c-0.5,0-0.9,0.1-1.3,0.4c-0.3,0.3-0.5,0.6-0.5,0.9h-1.5c0-0.4,0.1-0.8,0.4-1.2c0.3-0.4,0.7-0.7,1.2-0.9
				c0.5-0.2,1.1-0.3,1.7-0.3c1,0,1.7,0.2,2.3,0.7c0.6,0.5,0.8,1.2,0.9,2v3.9c0,0.8,0.1,1.4,0.3,1.9v0.1H996.9z M994.5,1987.9
				c0.5,0,0.9-0.1,1.3-0.4s0.7-0.5,0.9-0.9v-1.7h-1.1c-1.8,0-2.7,0.5-2.7,1.6c0,0.5,0.2,0.8,0.5,1.1
				C993.7,1987.8,994,1987.9,994.5,1987.9z"/>
			<path class="st3" d="M1005.1,1989v-7.3h-1.3v-1.1h1.3v-0.9c0-0.9,0.2-1.6,0.7-2.1s1.2-0.7,2.1-0.7c0.3,0,0.7,0,1,0.1l-0.1,1.2
				c-0.2,0-0.5-0.1-0.8-0.1c-0.5,0-0.8,0.1-1.1,0.4c-0.3,0.3-0.4,0.7-0.4,1.2v0.9h1.8v1.1h-1.8v7.3H1005.1z"/>
			<path class="st3" d="M1014,1981.8c-0.2,0-0.5-0.1-0.7-0.1c-0.9,0-1.6,0.4-1.9,1.2v6h-1.4v-8.5h1.4l0,1c0.5-0.8,1.1-1.1,2-1.1
				c0.3,0,0.5,0,0.6,0.1V1981.8z"/>
			<path class="st3" d="M1018.8,1989.2c-1.1,0-2.1-0.4-2.8-1.1s-1.1-1.8-1.1-3v-0.3c0-0.8,0.2-1.6,0.5-2.2s0.8-1.2,1.3-1.5
				c0.6-0.4,1.2-0.6,1.9-0.6c1.1,0,2,0.4,2.6,1.1s0.9,1.8,0.9,3.1v0.6h-5.7c0,0.8,0.3,1.5,0.7,2c0.5,0.5,1.1,0.8,1.8,0.8
				c0.5,0,0.9-0.1,1.3-0.3c0.4-0.2,0.7-0.5,0.9-0.8l0.9,0.7C1021.3,1988.6,1020.3,1989.2,1018.8,1989.2z M1018.7,1981.6
				c-0.6,0-1.1,0.2-1.5,0.6c-0.4,0.4-0.6,1-0.7,1.8h4.2v-0.1c0-0.7-0.2-1.3-0.6-1.7C1019.7,1981.8,1019.3,1981.6,1018.7,1981.6z"/>
			<path class="st3" d="M1027.2,1988c0.5,0,1-0.2,1.4-0.5c0.4-0.3,0.6-0.7,0.6-1.2h1.4c0,0.5-0.2,0.9-0.5,1.4
				c-0.3,0.4-0.7,0.8-1.2,1c-0.5,0.3-1.1,0.4-1.6,0.4c-1.2,0-2.1-0.4-2.7-1.2c-0.7-0.8-1-1.8-1-3.2v-0.2c0-0.8,0.2-1.6,0.5-2.2
				c0.3-0.6,0.7-1.1,1.3-1.5c0.6-0.4,1.2-0.5,2-0.5c0.9,0,1.7,0.3,2.4,0.9c0.6,0.6,1,1.3,1,2.2h-1.4c0-0.5-0.2-1-0.6-1.3
				c-0.4-0.4-0.8-0.5-1.4-0.5c-0.7,0-1.3,0.3-1.7,0.8c-0.4,0.5-0.6,1.3-0.6,2.3v0.3c0,1,0.2,1.7,0.6,2.2
				C1025.9,1987.7,1026.5,1988,1027.2,1988z"/>
			<path class="st3" d="M1037.4,1988.2c-0.6,0.7-1.4,1-2.5,1c-0.9,0-1.6-0.3-2.1-0.8s-0.7-1.3-0.7-2.3v-5.5h1.4v5.5
				c0,1.3,0.5,1.9,1.6,1.9c1.1,0,1.8-0.4,2.2-1.2v-6.1h1.4v8.5h-1.4L1037.4,1988.2z"/>
			<path class="st3" d="M1044.5,1989.2c-1.1,0-2.1-0.4-2.8-1.1s-1.1-1.8-1.1-3v-0.3c0-0.8,0.2-1.6,0.5-2.2s0.8-1.2,1.3-1.5
				s1.2-0.6,1.9-0.6c1.1,0,2,0.4,2.6,1.1s0.9,1.8,0.9,3.1v0.6h-5.7c0,0.8,0.3,1.5,0.7,2s1.1,0.8,1.8,0.8c0.5,0,0.9-0.1,1.3-0.3
				s0.7-0.5,0.9-0.8l0.9,0.7C1047,1988.6,1045.9,1989.2,1044.5,1989.2z M1044.3,1981.6c-0.6,0-1.1,0.2-1.5,0.6s-0.6,1-0.7,1.8h4.2
				v-0.1c0-0.7-0.2-1.3-0.6-1.7S1044.9,1981.6,1044.3,1981.6z"/>
			<path class="st3" d="M1050.9,1980.5l0,1.1c0.6-0.8,1.5-1.2,2.5-1.2c1.8,0,2.7,1,2.7,3v5.6h-1.4v-5.6c0-0.6-0.1-1.1-0.4-1.4
				s-0.7-0.4-1.3-0.4c-0.5,0-0.9,0.1-1.2,0.4s-0.6,0.6-0.8,1v6h-1.4v-8.5H1050.9z"/>
			<path class="st3" d="M1061.7,1988c0.5,0,1-0.2,1.4-0.5s0.6-0.7,0.6-1.2h1.4c0,0.5-0.2,0.9-0.5,1.4s-0.7,0.8-1.2,1
				s-1.1,0.4-1.6,0.4c-1.2,0-2.1-0.4-2.7-1.2s-1-1.8-1-3.2v-0.2c0-0.8,0.2-1.6,0.5-2.2s0.7-1.1,1.3-1.5s1.2-0.5,2-0.5
				c0.9,0,1.7,0.3,2.4,0.9s1,1.3,1,2.2h-1.4c0-0.5-0.2-1-0.6-1.3s-0.8-0.5-1.4-0.5c-0.7,0-1.3,0.3-1.7,0.8s-0.6,1.3-0.6,2.3v0.3
				c0,1,0.2,1.7,0.6,2.2S1061,1988,1061.7,1988z"/>
			<path class="st3" d="M1066.7,1978.3c0-0.2,0.1-0.4,0.2-0.6s0.4-0.2,0.6-0.2s0.5,0.1,0.6,0.2s0.2,0.4,0.2,0.6s-0.1,0.4-0.2,0.6
				s-0.4,0.2-0.6,0.2s-0.5-0.1-0.6-0.2S1066.7,1978.5,1066.7,1978.3z M1068.3,1989h-1.4v-8.5h1.4V1989z"/>
			<path class="st3" d="M1075.8,1989c-0.1-0.2-0.2-0.5-0.2-0.9c-0.7,0.7-1.5,1-2.4,1c-0.8,0-1.5-0.2-2.1-0.7s-0.8-1.1-0.8-1.8
				c0-0.9,0.3-1.6,1-2.1s1.6-0.7,2.8-0.7h1.4v-0.7c0-0.5-0.2-0.9-0.5-1.2s-0.7-0.4-1.3-0.4c-0.5,0-0.9,0.1-1.3,0.4s-0.5,0.6-0.5,0.9
				h-1.5c0-0.4,0.1-0.8,0.4-1.2s0.7-0.7,1.2-0.9s1.1-0.3,1.7-0.3c1,0,1.7,0.2,2.3,0.7s0.8,1.2,0.9,2v3.9c0,0.8,0.1,1.4,0.3,1.9v0.1
				H1075.8z M1073.4,1987.9c0.5,0,0.9-0.1,1.3-0.4s0.7-0.5,0.9-0.9v-1.7h-1.1c-1.8,0-2.7,0.5-2.7,1.6c0,0.5,0.2,0.8,0.5,1.1
				S1072.9,1987.9,1073.4,1987.9z"/>
		</g>
	</g>
	<g id="Grupo_120727" transform="translate(-268.85 -215.823)">
		<path id="Trazado_185948" class="st4" d="M985,1991.5c0.9-0.2,1.7-0.4,2.5-0.5c0.8-0.2,1.1,0,1.3,0.8c0.2,0.8,0.4,1.7,0.5,2.5
			c0.2,0.7,0,1-0.8,1.2c-2.9,0.6-5.8,1.2-8.7,1.9c-4.3,0.9-8.6,1.9-13,2.8c-0.1,0-0.2,0.1-0.3,0.1c0.6,5-2.9,9.5-7.9,10.1
			c-5,0.6-9.5-2.9-10.1-7.9c-0.6-4.4,2.1-8.5,6.3-9.8c-0.4-1.7-0.7-3.4-1.1-5.1c-1.7-7.8-3.4-15.6-5-23.4c-0.1-0.5-0.3-0.7-0.8-0.7
			c-3,0-6,0-9,0c-0.9,0-1.1-0.2-1.1-1.1c0-0.8,0-1.7,0-2.5c0-0.7,0.3-1,1-1c4.2,0,8.5,0,12.7,0c0.6,0,0.8,0.2,1,0.9
			c0.8,3.9,1.7,7.8,2.5,11.7c0.1,0.2,0.1,0.5,0.2,0.8c0.5-0.1,1-0.2,1.5-0.3c7.3-1.6,14.5-3.1,21.8-4.7c1-0.2,1.2-0.1,1.5,1
			c1.6,7.6,3.3,15.2,4.9,22.8C984.9,1991.1,985,1991.3,985,1991.5z M957,1980c0,0.1,0,0.1,0,0.2c0.9,4,1.7,8,2.6,12
			c0.1,0.3,0.3,0.4,0.5,0.5c1.7,0.5,3.2,1.4,4.4,2.8c0.2,0.3,0.6,0.5,1,0.3c4.3-0.9,8.6-1.9,12.8-2.8c1.7-0.4,3.4-0.7,5.2-1.1
			l-3.6-16.8l-7.8,1.7c0.1,0.3,0.1,0.5,0.1,0.6c0.3,1.5,0.7,3,0.9,4.5c0,0.3-0.1,0.6-0.3,0.9c-0.2,0.1-0.6,0-0.9,0
			c-0.2-0.1-0.5-0.3-0.7-0.4l-2.1-1.4c-0.6,0.9-1.1,1.7-1.7,2.5c-0.3,0.4-0.5,1-1.1,0.8c-0.6-0.1-0.6-0.7-0.7-1.2
			c-0.3-1.5-0.7-3.1-1-4.7L957,1980z M950.1,2001.3c0,4.2,3.3,7.6,7.5,7.6s7.6-3.3,7.6-7.5c0-4.2-3.3-7.6-7.5-7.6c0,0,0,0,0,0
			C953.5,1993.8,950.1,1997.1,950.1,2001.3C950.1,2001.3,950.1,2001.3,950.1,2001.3L950.1,2001.3z M958,1992.3l-6.9-31.9h-11.7v1.5
			h0.7c3,0,5.9,0,8.9,0c0.7,0,0.9,0.2,1.1,0.8c1.9,8.6,3.7,17.2,5.6,25.8c0.3,1.2,0.5,2.5,0.8,3.7L958,1992.3z M971.4,1980.5
			l-2.1-9.6l-4.5,1l2.1,9.7c0.5-0.7,0.9-1.4,1.3-2c0.4-0.6,0.7-0.7,1.4-0.3C970.2,1979.7,970.7,1980,971.4,1980.5L971.4,1980.5z
			 M970.8,1970.5l1,4.7l7.8-1.7l-1-4.7L970.8,1970.5z M956.6,1978.5l7.8-1.7l-1-4.7l-7.8,1.7L956.6,1978.5z M966.3,1998.7l21.5-4.6
			l-0.3-1.5l-21.7,4.7L966.3,1998.7z"/>
		<path id="Trazado_185949" class="st4" d="M969.5,1992.3c0,0.4-0.3,0.7-0.6,0.7c-1.2,0.3-2.5,0.5-3.7,0.8c-0.4,0.1-0.8-0.1-0.9-0.5
			c-0.1-0.4,0.1-0.8,0.5-0.9c0,0,0.1,0,0.1,0c1.2-0.3,2.5-0.6,3.7-0.8c0.4-0.1,0.8,0.2,0.9,0.6
			C969.5,1992.1,969.5,1992.2,969.5,1992.3z"/>
		<path id="Trazado_185950" class="st4" d="M973.5,1991.5c-0.1,0.1-0.3,0.4-0.6,0.5c-0.5,0.2-1,0.3-1.5,0.3
			c-0.4,0.1-0.8-0.2-0.8-0.6c0-0.3,0.2-0.7,0.5-0.8c0.5-0.2,1-0.3,1.6-0.3C973.2,1990.5,973.5,1990.9,973.5,1991.5z"/>
		<path id="Trazado_185951" class="st4" d="M962.4,2001.4c0,2.6-2.2,4.7-4.9,4.7c-2.6,0-4.7-2.1-4.7-4.7c0-2.6,2.1-4.8,4.7-4.8
			c2.6,0,4.8,2.1,4.8,4.7C962.4,2001.3,962.4,2001.3,962.4,2001.4z M960.9,2001.3c0-1.8-1.4-3.3-3.2-3.3c0,0,0,0,0,0
			c-1.8,0-3.3,1.5-3.3,3.3c0,1.8,1.5,3.3,3.3,3.3C959.4,2004.6,960.8,2003.2,960.9,2001.3C960.9,2001.4,960.9,2001.4,960.9,2001.3
			L960.9,2001.3z"/>
	</g>
	<g id="Grupo_120728" transform="translate(-268.85 -135.823)">
		<path id="Trazado_185948-2" class="st4" d="M985,1991.5c0.9-0.2,1.7-0.4,2.5-0.5c0.8-0.2,1.1,0,1.3,0.8c0.2,0.8,0.4,1.7,0.5,2.5
			c0.2,0.7,0,1-0.8,1.2c-2.9,0.6-5.8,1.2-8.7,1.9c-4.3,0.9-8.6,1.9-13,2.8c-0.1,0-0.2,0.1-0.3,0.1c0.6,5-2.9,9.5-7.9,10.1
			c-5,0.6-9.5-2.9-10.1-7.9c-0.6-4.4,2.1-8.5,6.3-9.8c-0.4-1.7-0.7-3.4-1.1-5.1c-1.7-7.8-3.4-15.6-5-23.4c-0.1-0.5-0.3-0.7-0.8-0.7
			c-3,0-6,0-9,0c-0.9,0-1.1-0.2-1.1-1.1c0-0.8,0-1.7,0-2.5c0-0.7,0.3-1,1-1c4.2,0,8.5,0,12.7,0c0.6,0,0.8,0.2,1,0.9
			c0.8,3.9,1.7,7.8,2.5,11.7c0.1,0.2,0.1,0.5,0.2,0.8c0.5-0.1,1-0.2,1.5-0.3c7.3-1.6,14.5-3.1,21.8-4.7c1-0.2,1.2-0.1,1.5,1
			c1.6,7.6,3.3,15.2,4.9,22.8C984.9,1991.1,985,1991.3,985,1991.5z M957,1980c0,0.1,0,0.1,0,0.2c0.9,4,1.7,8,2.6,12
			c0.1,0.3,0.3,0.4,0.5,0.5c1.7,0.5,3.2,1.4,4.4,2.8c0.2,0.3,0.6,0.5,1,0.3c4.3-0.9,8.6-1.9,12.8-2.8c1.7-0.4,3.4-0.7,5.2-1.1
			l-3.6-16.8l-7.8,1.7c0.1,0.3,0.1,0.5,0.1,0.6c0.3,1.5,0.7,3,0.9,4.5c0,0.3-0.1,0.6-0.3,0.9c-0.2,0.1-0.6,0-0.9,0
			c-0.2-0.1-0.5-0.3-0.7-0.4l-2.1-1.4c-0.6,0.9-1.1,1.7-1.7,2.5c-0.3,0.4-0.5,1-1.1,0.8c-0.6-0.1-0.6-0.7-0.7-1.2
			c-0.3-1.5-0.7-3.1-1-4.7L957,1980z M950.1,2001.3c0,4.2,3.3,7.6,7.5,7.6s7.6-3.3,7.6-7.5c0-4.2-3.3-7.6-7.5-7.6c0,0,0,0,0,0
			C953.5,1993.8,950.1,1997.1,950.1,2001.3C950.1,2001.3,950.1,2001.3,950.1,2001.3L950.1,2001.3z M958,1992.3l-6.9-31.9h-11.7v1.5
			h0.7c3,0,5.9,0,8.9,0c0.7,0,0.9,0.2,1.1,0.8c1.9,8.6,3.7,17.2,5.6,25.8c0.3,1.2,0.5,2.5,0.8,3.7L958,1992.3z M971.4,1980.5
			l-2.1-9.6l-4.5,1l2.1,9.7c0.5-0.7,0.9-1.4,1.3-2c0.4-0.6,0.7-0.7,1.4-0.3C970.2,1979.7,970.7,1980,971.4,1980.5L971.4,1980.5z
			 M970.8,1970.5l1,4.7l7.8-1.7l-1-4.7L970.8,1970.5z M956.6,1978.5l7.8-1.7l-1-4.7l-7.8,1.7L956.6,1978.5z M966.3,1998.7l21.5-4.6
			l-0.3-1.5l-21.7,4.7L966.3,1998.7z"/>
		<path id="Trazado_185949-2" class="st4" d="M969.5,1992.3c0,0.4-0.3,0.7-0.6,0.7c-1.2,0.3-2.5,0.5-3.7,0.8
			c-0.4,0.1-0.8-0.1-0.9-0.5c-0.1-0.4,0.1-0.8,0.5-0.9c0,0,0.1,0,0.1,0c1.2-0.3,2.5-0.6,3.7-0.8c0.4-0.1,0.8,0.2,0.9,0.6
			C969.5,1992.1,969.5,1992.2,969.5,1992.3z"/>
		<path id="Trazado_185950-2" class="st4" d="M973.5,1991.5c-0.1,0.1-0.3,0.4-0.6,0.5c-0.5,0.2-1,0.3-1.5,0.3
			c-0.4,0.1-0.8-0.2-0.8-0.6c0-0.3,0.2-0.7,0.5-0.8c0.5-0.2,1-0.3,1.6-0.3C973.2,1990.5,973.5,1990.9,973.5,1991.5z"/>
		<path id="Trazado_185951-2" class="st4" d="M962.4,2001.4c0,2.6-2.2,4.7-4.9,4.7c-2.6,0-4.7-2.1-4.7-4.7c0-2.6,2.1-4.8,4.7-4.8
			c2.6,0,4.8,2.1,4.8,4.7C962.4,2001.3,962.4,2001.3,962.4,2001.4z M960.9,2001.3c0-1.8-1.4-3.3-3.2-3.3c0,0,0,0,0,0
			c-1.8,0-3.3,1.5-3.3,3.3c0,1.8,1.5,3.3,3.3,3.3C959.4,2004.6,960.8,2003.2,960.9,2001.3C960.9,2001.4,960.9,2001.4,960.9,2001.3
			L960.9,2001.3z"/>
	</g>
	<g id="Grupo_120729" transform="translate(-268.85 -55.823)">
		<path id="Trazado_185948-3" class="st4" d="M985,1991.5c0.9-0.2,1.7-0.4,2.5-0.5c0.8-0.2,1.1,0,1.3,0.8c0.2,0.8,0.4,1.7,0.5,2.5
			c0.2,0.7,0,1-0.8,1.2c-2.9,0.6-5.8,1.2-8.7,1.9c-4.3,0.9-8.6,1.9-13,2.8c-0.1,0-0.2,0.1-0.3,0.1c0.6,5-2.9,9.5-7.9,10.1
			c-5,0.6-9.5-2.9-10.1-7.9c-0.6-4.4,2.1-8.5,6.3-9.8c-0.4-1.7-0.7-3.4-1.1-5.1c-1.7-7.8-3.4-15.6-5-23.4c-0.1-0.5-0.3-0.7-0.8-0.7
			c-3,0-6,0-9,0c-0.9,0-1.1-0.2-1.1-1.1c0-0.8,0-1.7,0-2.5c0-0.7,0.3-1,1-1c4.2,0,8.5,0,12.7,0c0.6,0,0.8,0.2,1,0.9
			c0.8,3.9,1.7,7.8,2.5,11.7c0.1,0.2,0.1,0.5,0.2,0.8c0.5-0.1,1-0.2,1.5-0.3c7.3-1.6,14.5-3.1,21.8-4.7c1-0.2,1.2-0.1,1.5,1
			c1.6,7.6,3.3,15.2,4.9,22.8C984.9,1991.1,985,1991.3,985,1991.5z M957,1980c0,0.1,0,0.1,0,0.2c0.9,4,1.7,8,2.6,12
			c0.1,0.3,0.3,0.4,0.5,0.5c1.7,0.5,3.2,1.4,4.4,2.8c0.2,0.3,0.6,0.5,1,0.3c4.3-0.9,8.6-1.9,12.8-2.8c1.7-0.4,3.4-0.7,5.2-1.1
			l-3.6-16.8l-7.8,1.7c0.1,0.3,0.1,0.5,0.1,0.6c0.3,1.5,0.7,3,0.9,4.5c0,0.3-0.1,0.6-0.3,0.9c-0.2,0.1-0.6,0-0.9,0
			c-0.2-0.1-0.5-0.3-0.7-0.4l-2.1-1.4c-0.6,0.9-1.1,1.7-1.7,2.5c-0.3,0.4-0.5,1-1.1,0.8c-0.6-0.1-0.6-0.7-0.7-1.2
			c-0.3-1.5-0.7-3.1-1-4.7L957,1980z M950.1,2001.3c0,4.2,3.3,7.6,7.5,7.6s7.6-3.3,7.6-7.5c0-4.2-3.3-7.6-7.5-7.6c0,0,0,0,0,0
			C953.5,1993.8,950.1,1997.1,950.1,2001.3C950.1,2001.3,950.1,2001.3,950.1,2001.3L950.1,2001.3z M958,1992.3l-6.9-31.9h-11.7v1.5
			h0.7c3,0,5.9,0,8.9,0c0.7,0,0.9,0.2,1.1,0.8c1.9,8.6,3.7,17.2,5.6,25.8c0.3,1.2,0.5,2.5,0.8,3.7L958,1992.3z M971.4,1980.5
			l-2.1-9.6l-4.5,1l2.1,9.7c0.5-0.7,0.9-1.4,1.3-2c0.4-0.6,0.7-0.7,1.4-0.3C970.2,1979.7,970.7,1980,971.4,1980.5L971.4,1980.5z
			 M970.8,1970.5l1,4.7l7.8-1.7l-1-4.7L970.8,1970.5z M956.6,1978.5l7.8-1.7l-1-4.7l-7.8,1.7L956.6,1978.5z M966.3,1998.7l21.5-4.6
			l-0.3-1.5l-21.7,4.7L966.3,1998.7z"/>
		<path id="Trazado_185949-3" class="st4" d="M969.5,1992.3c0,0.4-0.3,0.7-0.6,0.7c-1.2,0.3-2.5,0.5-3.7,0.8
			c-0.4,0.1-0.8-0.1-0.9-0.5c-0.1-0.4,0.1-0.8,0.5-0.9c0,0,0.1,0,0.1,0c1.2-0.3,2.5-0.6,3.7-0.8c0.4-0.1,0.8,0.2,0.9,0.6
			C969.5,1992.1,969.5,1992.2,969.5,1992.3z"/>
		<path id="Trazado_185950-3" class="st4" d="M973.5,1991.5c-0.1,0.1-0.3,0.4-0.6,0.5c-0.5,0.2-1,0.3-1.5,0.3
			c-0.4,0.1-0.8-0.2-0.8-0.6c0-0.3,0.2-0.7,0.5-0.8c0.5-0.2,1-0.3,1.6-0.3C973.2,1990.5,973.5,1990.9,973.5,1991.5z"/>
		<path id="Trazado_185951-3" class="st4" d="M962.4,2001.4c0,2.6-2.2,4.7-4.9,4.7c-2.6,0-4.7-2.1-4.7-4.7c0-2.6,2.1-4.8,4.7-4.8
			c2.6,0,4.8,2.1,4.8,4.7C962.4,2001.3,962.4,2001.3,962.4,2001.4z M960.9,2001.3c0-1.8-1.4-3.3-3.2-3.3c0,0,0,0,0,0
			c-1.8,0-3.3,1.5-3.3,3.3c0,1.8,1.5,3.3,3.3,3.3C959.4,2004.6,960.8,2003.2,960.9,2001.3C960.9,2001.4,960.9,2001.4,960.9,2001.3
			L960.9,2001.3z"/>
	</g>
	<g id="Grupo_120730" transform="translate(-268.85 24.177)">
		<path id="Trazado_185948-4" class="st4" d="M985,1991.5c0.9-0.2,1.7-0.4,2.5-0.5c0.8-0.2,1.1,0,1.3,0.8c0.2,0.8,0.4,1.7,0.5,2.5
			c0.2,0.7,0,1-0.8,1.2c-2.9,0.6-5.8,1.2-8.7,1.9c-4.3,0.9-8.6,1.9-13,2.8c-0.1,0-0.2,0.1-0.3,0.1c0.6,5-2.9,9.5-7.9,10.1
			c-5,0.6-9.5-2.9-10.1-7.9c-0.6-4.4,2.1-8.5,6.3-9.8c-0.4-1.7-0.7-3.4-1.1-5.1c-1.7-7.8-3.4-15.6-5-23.4c-0.1-0.5-0.3-0.7-0.8-0.7
			c-3,0-6,0-9,0c-0.9,0-1.1-0.2-1.1-1.1c0-0.8,0-1.7,0-2.5c0-0.7,0.3-1,1-1c4.2,0,8.5,0,12.7,0c0.6,0,0.8,0.2,1,0.9
			c0.8,3.9,1.7,7.8,2.5,11.7c0.1,0.2,0.1,0.5,0.2,0.8c0.5-0.1,1-0.2,1.5-0.3c7.3-1.6,14.5-3.1,21.8-4.7c1-0.2,1.2-0.1,1.5,1
			c1.6,7.6,3.3,15.2,4.9,22.8C984.9,1991.1,985,1991.3,985,1991.5z M957,1980c0,0.1,0,0.1,0,0.2c0.9,4,1.7,8,2.6,12
			c0.1,0.3,0.3,0.4,0.5,0.5c1.7,0.5,3.2,1.4,4.4,2.8c0.2,0.3,0.6,0.5,1,0.3c4.3-0.9,8.6-1.9,12.8-2.8c1.7-0.4,3.4-0.7,5.2-1.1
			l-3.6-16.8l-7.8,1.7c0.1,0.3,0.1,0.5,0.1,0.6c0.3,1.5,0.7,3,0.9,4.5c0,0.3-0.1,0.6-0.3,0.9c-0.2,0.1-0.6,0-0.9,0
			c-0.2-0.1-0.5-0.3-0.7-0.4l-2.1-1.4c-0.6,0.9-1.1,1.7-1.7,2.5c-0.3,0.4-0.5,1-1.1,0.8c-0.6-0.1-0.6-0.7-0.7-1.2
			c-0.3-1.5-0.7-3.1-1-4.7L957,1980z M950.1,2001.3c0,4.2,3.3,7.6,7.5,7.6s7.6-3.3,7.6-7.5c0-4.2-3.3-7.6-7.5-7.6c0,0,0,0,0,0
			C953.5,1993.8,950.1,1997.1,950.1,2001.3C950.1,2001.3,950.1,2001.3,950.1,2001.3L950.1,2001.3z M958,1992.3l-6.9-31.9h-11.7v1.5
			h0.7c3,0,5.9,0,8.9,0c0.7,0,0.9,0.2,1.1,0.8c1.9,8.6,3.7,17.2,5.6,25.8c0.3,1.2,0.5,2.5,0.8,3.7L958,1992.3z M971.4,1980.5
			l-2.1-9.6l-4.5,1l2.1,9.7c0.5-0.7,0.9-1.4,1.3-2c0.4-0.6,0.7-0.7,1.4-0.3C970.2,1979.7,970.7,1980,971.4,1980.5L971.4,1980.5z
			 M970.8,1970.5l1,4.7l7.8-1.7l-1-4.7L970.8,1970.5z M956.6,1978.5l7.8-1.7l-1-4.7l-7.8,1.7L956.6,1978.5z M966.3,1998.7l21.5-4.6
			l-0.3-1.5l-21.7,4.7L966.3,1998.7z"/>
		<path id="Trazado_185949-4" class="st4" d="M969.5,1992.3c0,0.4-0.3,0.7-0.6,0.7c-1.2,0.3-2.5,0.5-3.7,0.8
			c-0.4,0.1-0.8-0.1-0.9-0.5c-0.1-0.4,0.1-0.8,0.5-0.9c0,0,0.1,0,0.1,0c1.2-0.3,2.5-0.6,3.7-0.8c0.4-0.1,0.8,0.2,0.9,0.6
			C969.5,1992.1,969.5,1992.2,969.5,1992.3z"/>
		<path id="Trazado_185950-4" class="st4" d="M973.5,1991.5c-0.1,0.1-0.3,0.4-0.6,0.5c-0.5,0.2-1,0.3-1.5,0.3
			c-0.4,0.1-0.8-0.2-0.8-0.6c0-0.3,0.2-0.7,0.5-0.8c0.5-0.2,1-0.3,1.6-0.3C973.2,1990.5,973.5,1990.9,973.5,1991.5z"/>
		<path id="Trazado_185951-4" class="st4" d="M962.4,2001.4c0,2.6-2.2,4.7-4.9,4.7c-2.6,0-4.7-2.1-4.7-4.7c0-2.6,2.1-4.8,4.7-4.8
			c2.6,0,4.8,2.1,4.8,4.7C962.4,2001.3,962.4,2001.3,962.4,2001.4z M960.9,2001.3c0-1.8-1.4-3.3-3.2-3.3c0,0,0,0,0,0
			c-1.8,0-3.3,1.5-3.3,3.3c0,1.8,1.5,3.3,3.3,3.3C959.4,2004.6,960.8,2003.2,960.9,2001.3C960.9,2001.4,960.9,2001.4,960.9,2001.3
			L960.9,2001.3z"/>
	</g>
	<g id="Grupo_120731" transform="translate(-268.85 110.177)">
		<path id="Trazado_185948-5" class="st4" d="M985,1991.5c0.9-0.2,1.7-0.4,2.5-0.5c0.8-0.2,1.1,0,1.3,0.8c0.2,0.8,0.4,1.7,0.5,2.5
			c0.2,0.7,0,1-0.8,1.2c-2.9,0.6-5.8,1.2-8.7,1.9c-4.3,0.9-8.6,1.9-13,2.8c-0.1,0-0.2,0.1-0.3,0.1c0.6,5-2.9,9.5-7.9,10.1
			c-5,0.6-9.5-2.9-10.1-7.9c-0.6-4.4,2.1-8.5,6.3-9.8c-0.4-1.7-0.7-3.4-1.1-5.1c-1.7-7.8-3.4-15.6-5-23.4c-0.1-0.5-0.3-0.7-0.8-0.7
			c-3,0-6,0-9,0c-0.9,0-1.1-0.2-1.1-1.1c0-0.8,0-1.7,0-2.5c0-0.7,0.3-1,1-1c4.2,0,8.5,0,12.7,0c0.6,0,0.8,0.2,1,0.9
			c0.8,3.9,1.7,7.8,2.5,11.7c0.1,0.2,0.1,0.5,0.2,0.8c0.5-0.1,1-0.2,1.5-0.3c7.3-1.6,14.5-3.1,21.8-4.7c1-0.2,1.2-0.1,1.5,1
			c1.6,7.6,3.3,15.2,4.9,22.8C984.9,1991.1,985,1991.3,985,1991.5z M957,1980c0,0.1,0,0.1,0,0.2c0.9,4,1.7,8,2.6,12
			c0.1,0.3,0.3,0.4,0.5,0.5c1.7,0.5,3.2,1.4,4.4,2.8c0.2,0.3,0.6,0.5,1,0.3c4.3-0.9,8.6-1.9,12.8-2.8c1.7-0.4,3.4-0.7,5.2-1.1
			l-3.6-16.8l-7.8,1.7c0.1,0.3,0.1,0.5,0.1,0.6c0.3,1.5,0.7,3,0.9,4.5c0,0.3-0.1,0.6-0.3,0.9c-0.2,0.1-0.6,0-0.9,0
			c-0.2-0.1-0.5-0.3-0.7-0.4l-2.1-1.4c-0.6,0.9-1.1,1.7-1.7,2.5c-0.3,0.4-0.5,1-1.1,0.8c-0.6-0.1-0.6-0.7-0.7-1.2
			c-0.3-1.5-0.7-3.1-1-4.7L957,1980z M950.1,2001.3c0,4.2,3.3,7.6,7.5,7.6s7.6-3.3,7.6-7.5c0-4.2-3.3-7.6-7.5-7.6c0,0,0,0,0,0
			C953.5,1993.8,950.1,1997.1,950.1,2001.3C950.1,2001.3,950.1,2001.3,950.1,2001.3L950.1,2001.3z M958,1992.3l-6.9-31.9h-11.7v1.5
			h0.7c3,0,5.9,0,8.9,0c0.7,0,0.9,0.2,1.1,0.8c1.9,8.6,3.7,17.2,5.6,25.8c0.3,1.2,0.5,2.5,0.8,3.7L958,1992.3z M971.4,1980.5
			l-2.1-9.6l-4.5,1l2.1,9.7c0.5-0.7,0.9-1.4,1.3-2c0.4-0.6,0.7-0.7,1.4-0.3C970.2,1979.7,970.7,1980,971.4,1980.5L971.4,1980.5z
			 M970.8,1970.5l1,4.7l7.8-1.7l-1-4.7L970.8,1970.5z M956.6,1978.5l7.8-1.7l-1-4.7l-7.8,1.7L956.6,1978.5z M966.3,1998.7l21.5-4.6
			l-0.3-1.5l-21.7,4.7L966.3,1998.7z"/>
		<path id="Trazado_185949-5" class="st4" d="M969.5,1992.3c0,0.4-0.3,0.7-0.6,0.7c-1.2,0.3-2.5,0.5-3.7,0.8
			c-0.4,0.1-0.8-0.1-0.9-0.5c-0.1-0.4,0.1-0.8,0.5-0.9c0,0,0.1,0,0.1,0c1.2-0.3,2.5-0.6,3.7-0.8c0.4-0.1,0.8,0.2,0.9,0.6
			C969.5,1992.1,969.5,1992.2,969.5,1992.3z"/>
		<path id="Trazado_185950-5" class="st4" d="M973.5,1991.5c-0.1,0.1-0.3,0.4-0.6,0.5c-0.5,0.2-1,0.3-1.5,0.3
			c-0.4,0.1-0.8-0.2-0.8-0.6c0-0.3,0.2-0.7,0.5-0.8c0.5-0.2,1-0.3,1.6-0.3C973.2,1990.5,973.5,1990.9,973.5,1991.5z"/>
		<path id="Trazado_185951-5" class="st4" d="M962.4,2001.4c0,2.6-2.2,4.7-4.9,4.7c-2.6,0-4.7-2.1-4.7-4.7c0-2.6,2.1-4.8,4.7-4.8
			c2.6,0,4.8,2.1,4.8,4.7C962.4,2001.3,962.4,2001.3,962.4,2001.4z M960.9,2001.3c0-1.8-1.4-3.3-3.2-3.3c0,0,0,0,0,0
			c-1.8,0-3.3,1.5-3.3,3.3c0,1.8,1.5,3.3,3.3,3.3C959.4,2004.6,960.8,2003.2,960.9,2001.3C960.9,2001.4,960.9,2001.4,960.9,2001.3
			L960.9,2001.3z"/>
	</g>
</g>
</svg>
