<svg xmlns="http://www.w3.org/2000/svg" xmlns:xlink="http://www.w3.org/1999/xlink" width="319.684" height="409.922" viewBox="0 0 319.684 409.922">
  <defs>
    <linearGradient id="linear-gradient" x1="0.5" y1="0.029" x2="0.409" y2="0.803" gradientUnits="objectBoundingBox">
      <stop offset="0" stop-color="#7e57c2"/>
      <stop offset="1" stop-color="#451991"/>
    </linearGradient>
  </defs>
  <g id="Grupo_120732" data-name="Grupo 120732" transform="translate(-648.771 -1721.539)">
    <g id="Grupo_120724" data-name="Grupo 120724" transform="translate(-222.545 108)">
      <path id="Rectángulo_34583" data-name="Rectángulo 34583" d="M0,0H134a13,13,0,0,1,13,13v0a13,13,0,0,1-13,13H0a0,0,0,0,1,0,0V0A0,0,0,0,1,0,0Z" transform="translate(954 1970)" fill="#dc9ce8"/>
      <path id="Rectángulo_34584" data-name="Rectángulo 34584" d="M0,0H134a13,13,0,0,1,13,13v0a13,13,0,0,1-13,13H0a0,0,0,0,1,0,0V0A0,0,0,0,1,0,0Z" transform="translate(954 1885)" fill="#dc9ce8"/>
      <path id="Rectángulo_34585" data-name="Rectángulo 34585" d="M0,0H160a13,13,0,0,1,13,13v0a13,13,0,0,1-13,13H0a0,0,0,0,1,0,0V0A0,0,0,0,1,0,0Z" transform="translate(954 1803)" fill="#dc9ce8"/>
      <path id="Rectángulo_34586" data-name="Rectángulo 34586" d="M0,0H160a13,13,0,0,1,13,13v0a13,13,0,0,1-13,13H0a0,0,0,0,1,0,0V0A0,0,0,0,1,0,0Z" transform="translate(954 1721.039)" fill="#dc9ce8"/>
      <path id="Rectángulo_34587" data-name="Rectángulo 34587" d="M0,0H224a13,13,0,0,1,13,13v0a13,13,0,0,1-13,13H0a0,0,0,0,1,0,0V0A0,0,0,0,1,0,0Z" transform="translate(954 1642)" fill="#dc9ce8"/>
      <g id="Grupo_120723" data-name="Grupo 120723" transform="translate(-183.188 14.039)">
        <path id="Unión_4" data-name="Unión 4" d="M896,12055.734a43.015,43.015,0,0,1,10.943-28.73l-3.771-5.568,18.786-1.349-8.226,16.943-3.458-5.1a37.455,37.455,0,1,0,29.244-13.64h-.334A161.532,161.532,0,0,0,896,11894.461a43.2,43.2,0,0,0,0-80.636,43.207,43.207,0,0,0,0-80.639,43.187,43.187,0,1,1,75.428,28.735l3.768,5.564-18.786,1.349,8.226-16.943L968.1,11757a37.458,37.458,0,1,0-28.908,13.635h.261c.046,0,.091,0,.137,0h.124c.055,0,.106,0,.161,0h.1l.182.006h.073l.2.006h.055l.222.009h.021a43.188,43.188,0,0,1,30.7,71.9l3.768,5.564-18.786,1.351,8.226-16.946,3.46,5.11a37.456,37.456,0,1,0-28.909,13.637h.261l.137,0h.124c.055,0,.106,0,.161,0h.1c.061,0,.121,0,.182,0a.657.657,0,0,0,.076,0l.191.006h.064l.216.009h.027a43.187,43.187,0,0,1,30.7,71.894l3.768,5.563-18.786,1.351,8.226-16.943,3.46,5.108a37.457,37.457,0,1,0-28.908,13.636h.261l.137,0h.124l.161,0h.1l.182.006h.073c.067,0,.134,0,.2.007h.055l.222.009h.021a43.187,43.187,0,0,1,30.7,71.895l3.768,5.564-18.786,1.352,8.226-16.946,3.459,5.108a37.45,37.45,0,1,0-28.908,13.639A43.187,43.187,0,1,1,896,12055.734Zm43.187-43.187h0Zm-2.311-80.578h0Zm1.051-.042h0l.055,0C937.965,11931.925,937.947,11931.928,937.929,11931.928Zm.3-.007h0a.087.087,0,0,1,.027,0A.1.1,0,0,0,938.226,11931.921Zm-.073,0h0Zm.307-.006h0Zm.206,0h0Zm-1.788-80.578h0Zm1.051-.042h0l.055,0C937.965,11851.289,937.947,11851.292,937.929,11851.292Zm.194-.006.134,0Zm.337-.006h0Zm.206,0h0Zm-1.269-80.6h0Zm.243-.01h0Zm.82-.021h0Zm.282,0h0a.334.334,0,0,1,.064,0A.366.366,0,0,0,938.743,11770.639Zm-.073,0h0Zm.519,0h0Z" transform="translate(159.003 -10090)" stroke="rgba(0,0,0,0)" stroke-miterlimit="10" stroke-width="1" fill="url(#linear-gradient)"/>
      </g>
      <text id="La_velocidad_de_circulación" data-name="La velocidad de circulación" transform="translate(982 1646)" fill="#12263f" font-size="16" font-family="Roboto-Regular, Roboto"><tspan x="0" y="17">La velocidad de circulación</tspan></text>
      <text id="La_disponibilidad" data-name="La disponibilidad" transform="translate(982 1724.039)" fill="#12263f" font-size="16" font-family="Roboto-Regular, Roboto"><tspan x="0" y="17">La disponibilidad</tspan></text>
      <text id="La_confianbilidad" data-name="La confianbilidad" transform="translate(982 1806)" fill="#12263f" font-size="16" font-family="Roboto-Regular, Roboto"><tspan x="0" y="17">La confianbilidad</tspan></text>
      <text id="La_capacidad" data-name="La capacidad" transform="translate(982 1888)" fill="#12263f" font-size="16" font-family="Roboto-Regular, Roboto"><tspan x="0" y="17">La capacidad</tspan></text>
      <text id="La_frecuencia" data-name="La frecuencia" transform="translate(982 1972)" fill="#12263f" font-size="16" font-family="Roboto-Regular, Roboto"><tspan x="0" y="17">La frecuencia</tspan></text>
    </g>
    <g id="Grupo_120727" data-name="Grupo 120727" transform="translate(-268.85 -215.823)">
      <path id="Trazado_185948" data-name="Trazado 185948" d="M985.017,1991.5c.883-.19,1.709-.367,2.535-.545.811-.176,1.089,0,1.265.809.181.829.364,1.657.536,2.487.151.731-.045,1.028-.786,1.188q-4.339.937-8.678,1.867-6.481,1.4-12.961,2.8c-.1.022-.2.051-.3.076a9.086,9.086,0,1,1-11.684-7.553q-.547-2.556-1.1-5.121-2.528-11.722-5.047-23.445c-.105-.492-.269-.663-.8-.657-3,.031-6,.016-9,.014-.934,0-1.148-.216-1.149-1.148,0-.831-.007-1.663,0-2.494.008-.677.281-.956.963-.957q6.37-.008,12.74,0c.631,0,.844.2,1,.909q1.266,5.874,2.528,11.749c.053.245.112.489.187.816.5-.1.99-.184,1.473-.288q10.9-2.355,21.8-4.715c1-.216,1.231-.066,1.452.956q2.453,11.378,4.9,22.756C984.924,1991.15,984.962,1991.287,985.017,1991.5Zm-28.049-11.5a.975.975,0,0,0-.009.176q1.285,5.978,2.565,11.957c.071.333.265.42.539.5a8.662,8.662,0,0,1,4.361,2.781.887.887,0,0,0,1.014.324c4.281-.938,8.566-1.856,12.85-2.781,1.724-.372,3.448-.747,5.228-1.133l-3.618-16.767-7.753,1.677c.051.26.087.454.128.647.322,1.5.668,2.993.946,4.5a1.03,1.03,0,0,1-.294.872c-.211.141-.631.044-.931-.045a2.792,2.792,0,0,1-.677-.44l-2.073-1.4c-.591.872-1.143,1.7-1.7,2.513-.28.407-.491.951-1.143.8-.613-.141-.591-.706-.694-1.167-.342-1.546-.675-3.094-1.018-4.672Zm-6.9,21.3a7.543,7.543,0,1,0,7.561-7.51A7.541,7.541,0,0,0,950.065,2001.313Zm7.951-9.019-6.881-31.912H939.408v1.526h.675q4.444,0,8.888,0c.741,0,.943.159,1.092.849q2.783,12.908,5.561,25.817c.268,1.247.541,2.492.807,3.717Zm13.369-11.818-2.078-9.624-4.469.97,2.1,9.735c.5-.739.923-1.365,1.35-1.986.409-.594.749-.659,1.361-.256C970.193,1979.669,970.727,1980.033,971.385,1980.475Zm-.594-9.944,1.025,4.72,7.764-1.675-1.02-4.719Zm-14.186,8,7.765-1.678-1.019-4.721-7.764,1.675Zm9.686,20.158,21.478-4.638-.342-1.514L965.7,1997.23Z" transform="translate(0)" fill="#451991"/>
      <path id="Trazado_185949" data-name="Trazado 185949" d="M1048.7,2090.461a.722.722,0,0,1-.627.7c-1.247.278-2.5.546-3.748.8a.75.75,0,1,1-.307-1.463q1.867-.43,3.743-.816A.76.76,0,0,1,1048.7,2090.461Z" transform="translate(-79.192 -98.203)" fill="#451991"/>
      <path id="Trazado_185950" data-name="Trazado 185950" d="M1072.238,2087.137c-.116.113-.295.414-.551.511a7.109,7.109,0,0,1-1.473.332.747.747,0,0,1-.357-1.442,9.9,9.9,0,0,1,1.583-.341C1071.9,2086.136,1072.243,2086.494,1072.238,2087.137Z" transform="translate(-98.707 -95.6)" fill="#451991"/>
      <path id="Trazado_185951" data-name="Trazado 185951" d="M1007.4,2114.913a4.779,4.779,0,0,1-9.557-.008,4.779,4.779,0,1,1,9.557.008Zm-1.518-.024a3.253,3.253,0,0,0-3.269-3.262,3.26,3.26,0,0,0,.006,6.521A3.234,3.234,0,0,0,1005.88,2114.889Z" transform="translate(-45.029 -113.554)" fill="#451991"/>
    </g>
    <g id="Grupo_120728" data-name="Grupo 120728" transform="translate(-268.85 -135.823)">
      <path id="Trazado_185948-2" data-name="Trazado 185948" d="M985.017,1991.5c.883-.19,1.709-.367,2.535-.545.811-.176,1.089,0,1.265.809.181.829.364,1.657.536,2.487.151.731-.045,1.028-.786,1.188q-4.339.937-8.678,1.867-6.481,1.4-12.961,2.8c-.1.022-.2.051-.3.076a9.086,9.086,0,1,1-11.684-7.553q-.547-2.556-1.1-5.121-2.528-11.722-5.047-23.445c-.105-.492-.269-.663-.8-.657-3,.031-6,.016-9,.014-.934,0-1.148-.216-1.149-1.148,0-.831-.007-1.663,0-2.494.008-.677.281-.956.963-.957q6.37-.008,12.74,0c.631,0,.844.2,1,.909q1.266,5.874,2.528,11.749c.053.245.112.489.187.816.5-.1.99-.184,1.473-.288q10.9-2.355,21.8-4.715c1-.216,1.231-.066,1.452.956q2.453,11.378,4.9,22.756C984.924,1991.15,984.962,1991.287,985.017,1991.5Zm-28.049-11.5a.975.975,0,0,0-.009.176q1.285,5.978,2.565,11.957c.071.333.265.42.539.5a8.662,8.662,0,0,1,4.361,2.781.887.887,0,0,0,1.014.324c4.281-.938,8.566-1.856,12.85-2.781,1.724-.372,3.448-.747,5.228-1.133l-3.618-16.767-7.753,1.677c.051.26.087.454.128.647.322,1.5.668,2.993.946,4.5a1.03,1.03,0,0,1-.294.872c-.211.141-.631.044-.931-.045a2.792,2.792,0,0,1-.677-.44l-2.073-1.4c-.591.872-1.143,1.7-1.7,2.513-.28.407-.491.951-1.143.8-.613-.141-.591-.706-.694-1.167-.342-1.546-.675-3.094-1.018-4.672Zm-6.9,21.3a7.543,7.543,0,1,0,7.561-7.51A7.541,7.541,0,0,0,950.065,2001.313Zm7.951-9.019-6.881-31.912H939.408v1.526h.675q4.444,0,8.888,0c.741,0,.943.159,1.092.849q2.783,12.908,5.561,25.817c.268,1.247.541,2.492.807,3.717Zm13.369-11.818-2.078-9.624-4.469.97,2.1,9.735c.5-.739.923-1.365,1.35-1.986.409-.594.749-.659,1.361-.256C970.193,1979.669,970.727,1980.033,971.385,1980.475Zm-.594-9.944,1.025,4.72,7.764-1.675-1.02-4.719Zm-14.186,8,7.765-1.678-1.019-4.721-7.764,1.675Zm9.686,20.158,21.478-4.638-.342-1.514L965.7,1997.23Z" transform="translate(0)" fill="#451991"/>
      <path id="Trazado_185949-2" data-name="Trazado 185949" d="M1048.7,2090.461a.722.722,0,0,1-.627.7c-1.247.278-2.5.546-3.748.8a.75.75,0,1,1-.307-1.463q1.867-.43,3.743-.816A.76.76,0,0,1,1048.7,2090.461Z" transform="translate(-79.192 -98.203)" fill="#451991"/>
      <path id="Trazado_185950-2" data-name="Trazado 185950" d="M1072.238,2087.137c-.116.113-.295.414-.551.511a7.109,7.109,0,0,1-1.473.332.747.747,0,0,1-.357-1.442,9.9,9.9,0,0,1,1.583-.341C1071.9,2086.136,1072.243,2086.494,1072.238,2087.137Z" transform="translate(-98.707 -95.6)" fill="#451991"/>
      <path id="Trazado_185951-2" data-name="Trazado 185951" d="M1007.4,2114.913a4.779,4.779,0,0,1-9.557-.008,4.779,4.779,0,1,1,9.557.008Zm-1.518-.024a3.253,3.253,0,0,0-3.269-3.262,3.26,3.26,0,0,0,.006,6.521A3.234,3.234,0,0,0,1005.88,2114.889Z" transform="translate(-45.029 -113.554)" fill="#451991"/>
    </g>
    <g id="Grupo_120729" data-name="Grupo 120729" transform="translate(-268.85 -55.823)">
      <path id="Trazado_185948-3" data-name="Trazado 185948" d="M985.017,1991.5c.883-.19,1.709-.367,2.535-.545.811-.176,1.089,0,1.265.809.181.829.364,1.657.536,2.487.151.731-.045,1.028-.786,1.188q-4.339.937-8.678,1.867-6.481,1.4-12.961,2.8c-.1.022-.2.051-.3.076a9.086,9.086,0,1,1-11.684-7.553q-.547-2.556-1.1-5.121-2.528-11.722-5.047-23.445c-.105-.492-.269-.663-.8-.657-3,.031-6,.016-9,.014-.934,0-1.148-.216-1.149-1.148,0-.831-.007-1.663,0-2.494.008-.677.281-.956.963-.957q6.37-.008,12.74,0c.631,0,.844.2,1,.909q1.266,5.874,2.528,11.749c.053.245.112.489.187.816.5-.1.99-.184,1.473-.288q10.9-2.355,21.8-4.715c1-.216,1.231-.066,1.452.956q2.453,11.378,4.9,22.756C984.924,1991.15,984.962,1991.287,985.017,1991.5Zm-28.049-11.5a.975.975,0,0,0-.009.176q1.285,5.978,2.565,11.957c.071.333.265.42.539.5a8.662,8.662,0,0,1,4.361,2.781.887.887,0,0,0,1.014.324c4.281-.938,8.566-1.856,12.85-2.781,1.724-.372,3.448-.747,5.228-1.133l-3.618-16.767-7.753,1.677c.051.26.087.454.128.647.322,1.5.668,2.993.946,4.5a1.03,1.03,0,0,1-.294.872c-.211.141-.631.044-.931-.045a2.792,2.792,0,0,1-.677-.44l-2.073-1.4c-.591.872-1.143,1.7-1.7,2.513-.28.407-.491.951-1.143.8-.613-.141-.591-.706-.694-1.167-.342-1.546-.675-3.094-1.018-4.672Zm-6.9,21.3a7.543,7.543,0,1,0,7.561-7.51A7.541,7.541,0,0,0,950.065,2001.313Zm7.951-9.019-6.881-31.912H939.408v1.526h.675q4.444,0,8.888,0c.741,0,.943.159,1.092.849q2.783,12.908,5.561,25.817c.268,1.247.541,2.492.807,3.717Zm13.369-11.818-2.078-9.624-4.469.97,2.1,9.735c.5-.739.923-1.365,1.35-1.986.409-.594.749-.659,1.361-.256C970.193,1979.669,970.727,1980.033,971.385,1980.475Zm-.594-9.944,1.025,4.72,7.764-1.675-1.02-4.719Zm-14.186,8,7.765-1.678-1.019-4.721-7.764,1.675Zm9.686,20.158,21.478-4.638-.342-1.514L965.7,1997.23Z" transform="translate(0)" fill="#451991"/>
      <path id="Trazado_185949-3" data-name="Trazado 185949" d="M1048.7,2090.461a.722.722,0,0,1-.627.7c-1.247.278-2.5.546-3.748.8a.75.75,0,1,1-.307-1.463q1.867-.43,3.743-.816A.76.76,0,0,1,1048.7,2090.461Z" transform="translate(-79.192 -98.203)" fill="#451991"/>
      <path id="Trazado_185950-3" data-name="Trazado 185950" d="M1072.238,2087.137c-.116.113-.295.414-.551.511a7.109,7.109,0,0,1-1.473.332.747.747,0,0,1-.357-1.442,9.9,9.9,0,0,1,1.583-.341C1071.9,2086.136,1072.243,2086.494,1072.238,2087.137Z" transform="translate(-98.707 -95.6)" fill="#451991"/>
      <path id="Trazado_185951-3" data-name="Trazado 185951" d="M1007.4,2114.913a4.779,4.779,0,0,1-9.557-.008,4.779,4.779,0,1,1,9.557.008Zm-1.518-.024a3.253,3.253,0,0,0-3.269-3.262,3.26,3.26,0,0,0,.006,6.521A3.234,3.234,0,0,0,1005.88,2114.889Z" transform="translate(-45.029 -113.554)" fill="#451991"/>
    </g>
    <g id="Grupo_120730" data-name="Grupo 120730" transform="translate(-268.85 24.177)">
      <path id="Trazado_185948-4" data-name="Trazado 185948" d="M985.017,1991.5c.883-.19,1.709-.367,2.535-.545.811-.176,1.089,0,1.265.809.181.829.364,1.657.536,2.487.151.731-.045,1.028-.786,1.188q-4.339.937-8.678,1.867-6.481,1.4-12.961,2.8c-.1.022-.2.051-.3.076a9.086,9.086,0,1,1-11.684-7.553q-.547-2.556-1.1-5.121-2.528-11.722-5.047-23.445c-.105-.492-.269-.663-.8-.657-3,.031-6,.016-9,.014-.934,0-1.148-.216-1.149-1.148,0-.831-.007-1.663,0-2.494.008-.677.281-.956.963-.957q6.37-.008,12.74,0c.631,0,.844.2,1,.909q1.266,5.874,2.528,11.749c.053.245.112.489.187.816.5-.1.99-.184,1.473-.288q10.9-2.355,21.8-4.715c1-.216,1.231-.066,1.452.956q2.453,11.378,4.9,22.756C984.924,1991.15,984.962,1991.287,985.017,1991.5Zm-28.049-11.5a.975.975,0,0,0-.009.176q1.285,5.978,2.565,11.957c.071.333.265.42.539.5a8.662,8.662,0,0,1,4.361,2.781.887.887,0,0,0,1.014.324c4.281-.938,8.566-1.856,12.85-2.781,1.724-.372,3.448-.747,5.228-1.133l-3.618-16.767-7.753,1.677c.051.26.087.454.128.647.322,1.5.668,2.993.946,4.5a1.03,1.03,0,0,1-.294.872c-.211.141-.631.044-.931-.045a2.792,2.792,0,0,1-.677-.44l-2.073-1.4c-.591.872-1.143,1.7-1.7,2.513-.28.407-.491.951-1.143.8-.613-.141-.591-.706-.694-1.167-.342-1.546-.675-3.094-1.018-4.672Zm-6.9,21.3a7.543,7.543,0,1,0,7.561-7.51A7.541,7.541,0,0,0,950.065,2001.313Zm7.951-9.019-6.881-31.912H939.408v1.526h.675q4.444,0,8.888,0c.741,0,.943.159,1.092.849q2.783,12.908,5.561,25.817c.268,1.247.541,2.492.807,3.717Zm13.369-11.818-2.078-9.624-4.469.97,2.1,9.735c.5-.739.923-1.365,1.35-1.986.409-.594.749-.659,1.361-.256C970.193,1979.669,970.727,1980.033,971.385,1980.475Zm-.594-9.944,1.025,4.72,7.764-1.675-1.02-4.719Zm-14.186,8,7.765-1.678-1.019-4.721-7.764,1.675Zm9.686,20.158,21.478-4.638-.342-1.514L965.7,1997.23Z" transform="translate(0)" fill="#451991"/>
      <path id="Trazado_185949-4" data-name="Trazado 185949" d="M1048.7,2090.461a.722.722,0,0,1-.627.7c-1.247.278-2.5.546-3.748.8a.75.75,0,1,1-.307-1.463q1.867-.43,3.743-.816A.76.76,0,0,1,1048.7,2090.461Z" transform="translate(-79.192 -98.203)" fill="#451991"/>
      <path id="Trazado_185950-4" data-name="Trazado 185950" d="M1072.238,2087.137c-.116.113-.295.414-.551.511a7.109,7.109,0,0,1-1.473.332.747.747,0,0,1-.357-1.442,9.9,9.9,0,0,1,1.583-.341C1071.9,2086.136,1072.243,2086.494,1072.238,2087.137Z" transform="translate(-98.707 -95.6)" fill="#451991"/>
      <path id="Trazado_185951-4" data-name="Trazado 185951" d="M1007.4,2114.913a4.779,4.779,0,0,1-9.557-.008,4.779,4.779,0,1,1,9.557.008Zm-1.518-.024a3.253,3.253,0,0,0-3.269-3.262,3.26,3.26,0,0,0,.006,6.521A3.234,3.234,0,0,0,1005.88,2114.889Z" transform="translate(-45.029 -113.554)" fill="#451991"/>
    </g>
    <g id="Grupo_120731" data-name="Grupo 120731" transform="translate(-268.85 110.177)">
      <path id="Trazado_185948-5" data-name="Trazado 185948" d="M985.017,1991.5c.883-.19,1.709-.367,2.535-.545.811-.176,1.089,0,1.265.809.181.829.364,1.657.536,2.487.151.731-.045,1.028-.786,1.188q-4.339.937-8.678,1.867-6.481,1.4-12.961,2.8c-.1.022-.2.051-.3.076a9.086,9.086,0,1,1-11.684-7.553q-.547-2.556-1.1-5.121-2.528-11.722-5.047-23.445c-.105-.492-.269-.663-.8-.657-3,.031-6,.016-9,.014-.934,0-1.148-.216-1.149-1.148,0-.831-.007-1.663,0-2.494.008-.677.281-.956.963-.957q6.37-.008,12.74,0c.631,0,.844.2,1,.909q1.266,5.874,2.528,11.749c.053.245.112.489.187.816.5-.1.99-.184,1.473-.288q10.9-2.355,21.8-4.715c1-.216,1.231-.066,1.452.956q2.453,11.378,4.9,22.756C984.924,1991.15,984.962,1991.287,985.017,1991.5Zm-28.049-11.5a.975.975,0,0,0-.009.176q1.285,5.978,2.565,11.957c.071.333.265.42.539.5a8.662,8.662,0,0,1,4.361,2.781.887.887,0,0,0,1.014.324c4.281-.938,8.566-1.856,12.85-2.781,1.724-.372,3.448-.747,5.228-1.133l-3.618-16.767-7.753,1.677c.051.26.087.454.128.647.322,1.5.668,2.993.946,4.5a1.03,1.03,0,0,1-.294.872c-.211.141-.631.044-.931-.045a2.792,2.792,0,0,1-.677-.44l-2.073-1.4c-.591.872-1.143,1.7-1.7,2.513-.28.407-.491.951-1.143.8-.613-.141-.591-.706-.694-1.167-.342-1.546-.675-3.094-1.018-4.672Zm-6.9,21.3a7.543,7.543,0,1,0,7.561-7.51A7.541,7.541,0,0,0,950.065,2001.313Zm7.951-9.019-6.881-31.912H939.408v1.526h.675q4.444,0,8.888,0c.741,0,.943.159,1.092.849q2.783,12.908,5.561,25.817c.268,1.247.541,2.492.807,3.717Zm13.369-11.818-2.078-9.624-4.469.97,2.1,9.735c.5-.739.923-1.365,1.35-1.986.409-.594.749-.659,1.361-.256C970.193,1979.669,970.727,1980.033,971.385,1980.475Zm-.594-9.944,1.025,4.72,7.764-1.675-1.02-4.719Zm-14.186,8,7.765-1.678-1.019-4.721-7.764,1.675Zm9.686,20.158,21.478-4.638-.342-1.514L965.7,1997.23Z" transform="translate(0)" fill="#451991"/>
      <path id="Trazado_185949-5" data-name="Trazado 185949" d="M1048.7,2090.461a.722.722,0,0,1-.627.7c-1.247.278-2.5.546-3.748.8a.75.75,0,1,1-.307-1.463q1.867-.43,3.743-.816A.76.76,0,0,1,1048.7,2090.461Z" transform="translate(-79.192 -98.203)" fill="#451991"/>
      <path id="Trazado_185950-5" data-name="Trazado 185950" d="M1072.238,2087.137c-.116.113-.295.414-.551.511a7.109,7.109,0,0,1-1.473.332.747.747,0,0,1-.357-1.442,9.9,9.9,0,0,1,1.583-.341C1071.9,2086.136,1072.243,2086.494,1072.238,2087.137Z" transform="translate(-98.707 -95.6)" fill="#451991"/>
      <path id="Trazado_185951-5" data-name="Trazado 185951" d="M1007.4,2114.913a4.779,4.779,0,0,1-9.557-.008,4.779,4.779,0,1,1,9.557.008Zm-1.518-.024a3.253,3.253,0,0,0-3.269-3.262,3.26,3.26,0,0,0,.006,6.521A3.234,3.234,0,0,0,1005.88,2114.889Z" transform="translate(-45.029 -113.554)" fill="#451991"/>
    </g>
  </g>
</svg>
