<?xml version="1.0" encoding="utf-8"?>
<!-- Generator: Adobe Illustrator 25.2.3, SVG Export Plug-In . SVG Version: 6.00 Build 0)  -->
<svg version="1.1" id="Capa_1" xmlns="http://www.w3.org/2000/svg" xmlns:xlink="http://www.w3.org/1999/xlink" x="0px" y="0px"
	 viewBox="0 0 319.7 409.9" style="enable-background:new 0 0 319.7 409.9;" xml:space="preserve">
<style type="text/css">
	.st0{fill:#DC9CE8;}
	.st1{fill:#12263F;}
	.st2{fill:#451991;}
	.st3{fill:url(#SVGID_1_);}
</style>
<path id="Rectángulo_34583" class="st0" d="M82.7,356.5h134c7.2,0,13,5.8,13,13l0,0c0,7.2-5.8,13-13,13h-134l0,0V356.5L82.7,356.5z
	"/>
<path id="Rectángulo_34584" class="st0" d="M82.7,271.5h134c7.2,0,13,5.8,13,13l0,0c0,7.2-5.8,13-13,13h-134l0,0V271.5L82.7,271.5z
	"/>
<path id="Rectángulo_34585" class="st0" d="M82.7,189.5h160c7.2,0,13,5.8,13,13l0,0c0,7.2-5.8,13-13,13h-160l0,0V189.5L82.7,189.5z
	"/>
<path id="Rectángulo_34586" class="st0" d="M82.7,107.5h160c7.2,0,13,5.8,13,13l0,0c0,7.2-5.8,13-13,13h-160l0,0V107.5L82.7,107.5z
	"/>
<path id="Rectángulo_34587" class="st0" d="M82.7,28.5h224c7.2,0,13,5.8,13,13l0,0c0,7.2-5.8,13-13,13h-224l0,0V28.5L82.7,28.5z"/>
<path class="st1" d="M113.5,48.3h5.4v1.2H112V38.1h1.5V48.3z"/>
<path class="st1" d="M125.6,49.5c-0.1-0.2-0.2-0.5-0.2-0.9c-0.7,0.7-1.5,1-2.4,1c-0.8,0-1.5-0.2-2.1-0.7c-0.5-0.5-0.8-1.1-0.8-1.8
	c0-0.9,0.3-1.6,1-2.1s1.6-0.7,2.8-0.7h1.4v-0.7c0-0.5-0.2-0.9-0.5-1.2c-0.3-0.3-0.7-0.4-1.3-0.4c-0.5,0-0.9,0.1-1.3,0.4
	c-0.3,0.3-0.5,0.6-0.5,0.9h-1.5c0-0.4,0.1-0.8,0.4-1.2c0.3-0.4,0.7-0.7,1.2-0.9c0.5-0.2,1.1-0.3,1.7-0.3c1,0,1.7,0.2,2.3,0.7
	s0.8,1.2,0.9,2v3.9c0,0.8,0.1,1.4,0.3,1.9v0.1L125.6,49.5L125.6,49.5z M123.2,48.4c0.5,0,0.9-0.1,1.3-0.4s0.7-0.5,0.9-0.9v-1.7h-1.1
	c-1.8,0-2.7,0.5-2.7,1.6c0,0.5,0.2,0.8,0.5,1.1C122.4,48.3,122.7,48.4,123.2,48.4z"/>
<path class="st1" d="M135.9,47.5L138,41h1.5l-3,8.5h-1.1l-3.1-8.5h1.5L135.9,47.5z"/>
<path class="st1" d="M144.3,49.7c-1.1,0-2.1-0.4-2.8-1.1s-1.1-1.8-1.1-3v-0.3c0-0.8,0.2-1.6,0.5-2.2s0.8-1.2,1.3-1.5
	c0.6-0.4,1.2-0.6,1.9-0.6c1.1,0,2,0.4,2.6,1.1s0.9,1.8,0.9,3.1v0.6h-5.7c0,0.8,0.3,1.5,0.7,2c0.5,0.5,1.1,0.8,1.8,0.8
	c0.5,0,0.9-0.1,1.3-0.3c0.4-0.2,0.7-0.5,0.9-0.8l0.9,0.7C146.8,49.1,145.7,49.7,144.3,49.7z M144.1,42.1c-0.6,0-1.1,0.2-1.5,0.6
	s-0.6,1-0.7,1.8h4.2v-0.1c0-0.7-0.2-1.3-0.6-1.7C145.2,42.3,144.7,42.1,144.1,42.1z"/>
<path class="st1" d="M150.9,49.5h-1.4v-12h1.4V49.5z"/>
<path class="st1" d="M152.8,45.2c0-0.8,0.2-1.6,0.5-2.2c0.3-0.7,0.8-1.2,1.4-1.5c0.6-0.4,1.2-0.5,2-0.5c1.2,0,2.1,0.4,2.8,1.2
	s1.1,1.9,1.1,3.2v0.1c0,0.8-0.2,1.6-0.5,2.2c-0.3,0.7-0.8,1.2-1.4,1.5s-1.3,0.5-2,0.5c-1.1,0-2.1-0.4-2.8-1.2S152.8,46.6,152.8,45.2
	L152.8,45.2z M154.2,45.4c0,0.9,0.2,1.7,0.7,2.3c0.4,0.6,1,0.9,1.7,0.9s1.3-0.3,1.8-0.9c0.4-0.6,0.6-1.4,0.6-2.4
	c0-0.9-0.2-1.7-0.7-2.3c-0.4-0.6-1-0.9-1.8-0.9c-0.7,0-1.3,0.3-1.7,0.9S154.2,44.3,154.2,45.4z"/>
<path class="st1" d="M165.7,48.5c0.5,0,1-0.2,1.4-0.5s0.6-0.7,0.6-1.2h1.4c0,0.5-0.2,0.9-0.5,1.4s-0.7,0.8-1.2,1s-1.1,0.4-1.6,0.4
	c-1.2,0-2.1-0.4-2.7-1.2s-1-1.8-1-3.2V45c0-0.8,0.2-1.6,0.5-2.2s0.7-1.1,1.3-1.5s1.2-0.5,2-0.5c0.9,0,1.7,0.3,2.4,0.9s1,1.3,1,2.2
	h-1.4c0-0.5-0.2-1-0.6-1.3s-0.8-0.5-1.4-0.5c-0.7,0-1.3,0.3-1.7,0.8s-0.6,1.3-0.6,2.3v0.3c0,1,0.2,1.7,0.6,2.2
	S164.9,48.5,165.7,48.5z"/>
<path class="st1" d="M170.7,38.8c0-0.2,0.1-0.4,0.2-0.6s0.4-0.2,0.6-0.2s0.5,0.1,0.6,0.2s0.2,0.4,0.2,0.6s-0.1,0.4-0.2,0.6
	s-0.4,0.2-0.6,0.2s-0.5-0.1-0.6-0.2S170.7,39,170.7,38.8z M172.2,49.5h-1.4V41h1.4V49.5z"/>
<path class="st1" d="M174.2,45.2c0-1.3,0.3-2.3,0.9-3.1s1.4-1.2,2.4-1.2s1.8,0.3,2.4,1v-4.4h1.4v12H180l-0.1-0.9
	c-0.6,0.7-1.4,1.1-2.4,1.1s-1.8-0.4-2.4-1.2s-0.9-1.8-0.9-3.1V45.2z M175.7,45.4c0,1,0.2,1.7,0.6,2.2s0.9,0.8,1.6,0.8
	c0.9,0,1.6-0.4,2-1.2v-3.9c-0.4-0.8-1.1-1.2-2-1.2c-0.7,0-1.3,0.3-1.7,0.8S175.7,44.3,175.7,45.4z"/>
<path class="st1" d="M188.8,49.5c-0.1-0.2-0.2-0.5-0.2-0.9c-0.7,0.7-1.5,1-2.4,1c-0.8,0-1.5-0.2-2.1-0.7s-0.8-1.1-0.8-1.8
	c0-0.9,0.3-1.6,1-2.1s1.6-0.7,2.8-0.7h1.4v-0.7c0-0.5-0.2-0.9-0.5-1.2s-0.7-0.4-1.3-0.4c-0.5,0-0.9,0.1-1.3,0.4s-0.5,0.6-0.5,0.9
	h-1.5c0-0.4,0.1-0.8,0.4-1.2s0.7-0.7,1.2-0.9s1.1-0.3,1.7-0.3c1,0,1.7,0.2,2.3,0.7s0.8,1.2,0.9,2v3.9c0,0.8,0.1,1.4,0.3,1.9v0.1
	L188.8,49.5L188.8,49.5z M186.4,48.4c0.5,0,0.9-0.1,1.3-0.4s0.7-0.5,0.9-0.9v-1.7h-1.1c-1.8,0-2.7,0.5-2.7,1.6
	c0,0.5,0.2,0.8,0.5,1.1S185.9,48.4,186.4,48.4z"/>
<path class="st1" d="M191.9,45.2c0-1.3,0.3-2.3,0.9-3.1s1.4-1.2,2.4-1.2s1.8,0.3,2.4,1v-4.4h1.4v12h-1.3l-0.1-0.9
	c-0.6,0.7-1.4,1.1-2.4,1.1s-1.8-0.4-2.4-1.2s-0.9-1.8-0.9-3.1V45.2z M193.4,45.4c0,1,0.2,1.7,0.6,2.2s0.9,0.8,1.6,0.8
	c0.9,0,1.6-0.4,2-1.2v-3.9c-0.4-0.8-1.1-1.2-2-1.2c-0.7,0-1.3,0.3-1.7,0.8S193.4,44.3,193.4,45.4z"/>
<path class="st1" d="M204.9,45.2c0-1.3,0.3-2.3,0.9-3.1s1.4-1.2,2.4-1.2s1.8,0.3,2.4,1v-4.4h1.4v12h-1.3l-0.1-0.9
	c-0.6,0.7-1.4,1.1-2.4,1.1s-1.8-0.4-2.4-1.2s-0.9-1.8-0.9-3.1V45.2z M206.4,45.4c0,1,0.2,1.7,0.6,2.2s0.9,0.8,1.6,0.8
	c0.9,0,1.6-0.4,2-1.2v-3.9c-0.4-0.8-1.1-1.2-2-1.2c-0.7,0-1.3,0.3-1.7,0.8S206.4,44.3,206.4,45.4z"/>
<path class="st1" d="M217.8,49.7c-1.1,0-2.1-0.4-2.8-1.1s-1.1-1.8-1.1-3v-0.3c0-0.8,0.2-1.6,0.5-2.2s0.8-1.2,1.3-1.5
	s1.2-0.6,1.9-0.6c1.1,0,2,0.4,2.6,1.1s0.9,1.8,0.9,3.1v0.6h-5.7c0,0.8,0.3,1.5,0.7,2s1.1,0.8,1.8,0.8c0.5,0,0.9-0.1,1.3-0.3
	s0.7-0.5,0.9-0.8l0.9,0.7C220.3,49.1,219.2,49.7,217.8,49.7z M217.6,42.1c-0.6,0-1.1,0.2-1.5,0.6s-0.6,1-0.7,1.8h4.2v-0.1
	c0-0.7-0.2-1.3-0.6-1.7S218.2,42.1,217.6,42.1z"/>
<path class="st1" d="M230.1,48.5c0.5,0,1-0.2,1.4-0.5s0.6-0.7,0.6-1.2h1.4c0,0.5-0.2,0.9-0.5,1.4s-0.7,0.8-1.2,1s-1.1,0.4-1.6,0.4
	c-1.2,0-2.1-0.4-2.7-1.2s-1-1.8-1-3.2V45c0-0.8,0.2-1.6,0.5-2.2s0.7-1.1,1.3-1.5s1.2-0.5,2-0.5c0.9,0,1.7,0.3,2.4,0.9s1,1.3,1,2.2
	h-1.4c0-0.5-0.2-1-0.6-1.3s-0.8-0.5-1.4-0.5c-0.7,0-1.3,0.3-1.7,0.8s-0.6,1.3-0.6,2.3v0.3c0,1,0.2,1.7,0.6,2.2
	S229.4,48.5,230.1,48.5z"/>
<path class="st1" d="M235.1,38.8c0-0.2,0.1-0.4,0.2-0.6s0.4-0.2,0.6-0.2s0.5,0.1,0.6,0.2s0.2,0.4,0.2,0.6s-0.1,0.4-0.2,0.6
	s-0.4,0.2-0.6,0.2s-0.5-0.1-0.6-0.2S235.1,39,235.1,38.8z M236.7,49.5h-1.4V41h1.4V49.5z"/>
<path class="st1" d="M243.1,42.3c-0.2,0-0.5-0.1-0.7-0.1c-0.9,0-1.6,0.4-1.9,1.2v6h-1.4v-8.5h1.4v1c0.5-0.8,1.1-1.1,2-1.1
	c0.3,0,0.5,0,0.6,0.1V42.3z"/>
<path class="st1" d="M247.6,48.5c0.5,0,1-0.2,1.4-0.5s0.6-0.7,0.6-1.2h1.4c0,0.5-0.2,0.9-0.5,1.4s-0.7,0.8-1.2,1s-1.1,0.4-1.6,0.4
	c-1.2,0-2.1-0.4-2.7-1.2s-1-1.8-1-3.2V45c0-0.8,0.2-1.6,0.5-2.2s0.7-1.1,1.3-1.5s1.2-0.5,2-0.5c0.9,0,1.7,0.3,2.4,0.9s1,1.3,1,2.2
	h-1.4c0-0.5-0.2-1-0.6-1.3s-0.8-0.5-1.4-0.5c-0.7,0-1.3,0.3-1.7,0.8s-0.6,1.3-0.6,2.3v0.3c0,1,0.2,1.7,0.6,2.2
	S246.9,48.5,247.6,48.5z"/>
<path class="st1" d="M257.8,48.7c-0.6,0.7-1.4,1-2.5,1c-0.9,0-1.6-0.3-2.1-0.8s-0.7-1.3-0.7-2.3v-5.5h1.4v5.5c0,1.3,0.5,1.9,1.6,1.9
	c1.1,0,1.8-0.4,2.2-1.2v-6.1h1.4v8.5h-1.4L257.8,48.7z"/>
<path class="st1" d="M263,49.5h-1.4v-12h1.4V49.5z"/>
<path class="st1" d="M270.6,49.5c-0.1-0.2-0.2-0.5-0.2-0.9c-0.7,0.7-1.5,1-2.4,1c-0.8,0-1.5-0.2-2.1-0.7s-0.8-1.1-0.8-1.8
	c0-0.9,0.3-1.6,1-2.1s1.6-0.7,2.8-0.7h1.4v-0.7c0-0.5-0.2-0.9-0.5-1.2s-0.7-0.4-1.3-0.4c-0.5,0-0.9,0.1-1.3,0.4s-0.5,0.6-0.5,0.9
	h-1.5c0-0.4,0.1-0.8,0.4-1.2s0.7-0.7,1.2-0.9s1.1-0.3,1.7-0.3c1,0,1.7,0.2,2.3,0.7s0.8,1.2,0.9,2v3.9c0,0.8,0.1,1.4,0.3,1.9v0.1
	L270.6,49.5L270.6,49.5z M268.2,48.4c0.5,0,0.9-0.1,1.3-0.4s0.7-0.5,0.9-0.9v-1.7h-1.1c-1.8,0-2.7,0.5-2.7,1.6
	c0,0.5,0.2,0.8,0.5,1.1S267.7,48.4,268.2,48.4z"/>
<path class="st1" d="M277.4,48.5c0.5,0,1-0.2,1.4-0.5s0.6-0.7,0.6-1.2h1.4c0,0.5-0.2,0.9-0.5,1.4s-0.7,0.8-1.2,1s-1.1,0.4-1.6,0.4
	c-1.2,0-2.1-0.4-2.7-1.2s-1-1.8-1-3.2V45c0-0.8,0.2-1.6,0.5-2.2s0.7-1.1,1.3-1.5s1.2-0.5,2-0.5c0.9,0,1.7,0.3,2.4,0.9s1,1.3,1,2.2
	h-1.4c0-0.5-0.2-1-0.6-1.3s-0.8-0.5-1.4-0.5c-0.7,0-1.3,0.3-1.7,0.8s-0.6,1.3-0.6,2.3v0.3c0,1,0.2,1.7,0.6,2.2
	S276.7,48.5,277.4,48.5z"/>
<path class="st1" d="M282.4,38.8c0-0.2,0.1-0.4,0.2-0.6s0.4-0.2,0.6-0.2s0.5,0.1,0.6,0.2s0.2,0.4,0.2,0.6s-0.1,0.4-0.2,0.6
	s-0.4,0.2-0.6,0.2s-0.5-0.1-0.6-0.2S282.4,39,282.4,38.8z M284,49.5h-1.4V41h1.4V49.5z"/>
<path class="st1" d="M285.9,45.2c0-0.8,0.2-1.6,0.5-2.2s0.8-1.2,1.4-1.5s1.2-0.5,2-0.5c1.2,0,2.1,0.4,2.8,1.2s1.1,1.9,1.1,3.2v0.1
	c0,0.8-0.2,1.6-0.5,2.2s-0.8,1.2-1.4,1.5s-1.3,0.5-2,0.5c-1.1,0-2.1-0.4-2.8-1.2S285.9,46.6,285.9,45.2L285.9,45.2z M287.4,45.4
	c0,0.9,0.2,1.7,0.7,2.3s1,0.9,1.7,0.9s1.3-0.3,1.8-0.9s0.6-1.4,0.6-2.4c0-0.9-0.2-1.7-0.7-2.3s-1-0.9-1.8-0.9
	c-0.7,0-1.3,0.3-1.7,0.9S287.4,44.3,287.4,45.4z M290.4,37.5h1.8l-2.1,2.3h-1.2L290.4,37.5z"/>
<path class="st1" d="M296.8,41v1.1c0.6-0.8,1.5-1.2,2.5-1.2c1.8,0,2.7,1,2.7,3v5.6h-1.4v-5.6c0-0.6-0.1-1.1-0.4-1.4
	s-0.7-0.4-1.3-0.4c-0.5,0-0.9,0.1-1.2,0.4s-0.6,0.6-0.8,1v6h-1.4V41H296.8z"/>
<path class="st1" d="M113.5,126.3h5.4v1.2H112v-11.4h1.5V126.3z"/>
<path class="st1" d="M125.6,127.5c-0.1-0.2-0.2-0.5-0.2-0.9c-0.7,0.7-1.5,1-2.4,1c-0.8,0-1.5-0.2-2.1-0.7c-0.5-0.5-0.8-1.1-0.8-1.8
	c0-0.9,0.3-1.6,1-2.1s1.6-0.7,2.8-0.7h1.4v-0.7c0-0.5-0.2-0.9-0.5-1.2c-0.3-0.3-0.7-0.4-1.3-0.4c-0.5,0-0.9,0.1-1.3,0.4
	c-0.3,0.3-0.5,0.6-0.5,0.9h-1.5c0-0.4,0.1-0.8,0.4-1.2c0.3-0.4,0.7-0.7,1.2-0.9c0.5-0.2,1.1-0.3,1.7-0.3c1,0,1.7,0.2,2.3,0.7
	s0.8,1.2,0.9,2v3.9c0,0.8,0.1,1.4,0.3,1.9v0.1L125.6,127.5L125.6,127.5z M123.2,126.4c0.5,0,0.9-0.1,1.3-0.4s0.7-0.5,0.9-0.9v-1.7
	h-1.1c-1.8,0-2.7,0.5-2.7,1.6c0,0.5,0.2,0.8,0.5,1.1C122.4,126.3,122.7,126.4,123.2,126.4z"/>
<path class="st1" d="M132.7,123.2c0-1.3,0.3-2.3,0.9-3.1c0.6-0.8,1.4-1.2,2.4-1.2s1.8,0.3,2.4,1v-4.4h1.4v12h-1.3l-0.1-0.9
	c-0.6,0.7-1.4,1.1-2.4,1.1s-1.8-0.4-2.4-1.2s-0.9-1.8-0.9-3.1L132.7,123.2L132.7,123.2z M134.2,123.4c0,1,0.2,1.7,0.6,2.2
	c0.4,0.5,0.9,0.8,1.6,0.8c0.9,0,1.6-0.4,2-1.2v-3.9c-0.4-0.8-1.1-1.2-2-1.2c-0.7,0-1.3,0.3-1.7,0.8
	C134.4,121.5,134.2,122.3,134.2,123.4z"/>
<path class="st1" d="M142.1,116.8c0-0.2,0.1-0.4,0.2-0.6c0.1-0.2,0.4-0.2,0.6-0.2s0.5,0.1,0.6,0.2c0.1,0.2,0.2,0.4,0.2,0.6
	s-0.1,0.4-0.2,0.6c-0.1,0.2-0.4,0.2-0.6,0.2s-0.5-0.1-0.6-0.2C142.2,117.3,142.1,117.1,142.1,116.8z M143.7,127.5h-1.4V119h1.4
	V127.5z"/>
<path class="st1" d="M150.9,125.3c0-0.4-0.1-0.7-0.4-0.9c-0.3-0.2-0.8-0.4-1.5-0.6s-1.3-0.3-1.7-0.6s-0.7-0.5-1-0.8
	c-0.2-0.3-0.3-0.7-0.3-1.1c0-0.7,0.3-1.3,0.9-1.8s1.3-0.7,2.2-0.7c1,0,1.7,0.2,2.3,0.7s0.9,1.1,0.9,1.9h-1.5c0-0.4-0.2-0.7-0.5-1
	s-0.8-0.4-1.3-0.4s-0.9,0.1-1.2,0.3s-0.4,0.5-0.4,0.9c0,0.3,0.1,0.6,0.4,0.8c0.3,0.2,0.8,0.3,1.5,0.5s1.3,0.4,1.8,0.6
	c0.4,0.2,0.8,0.5,1,0.8s0.3,0.7,0.3,1.2c0,0.8-0.3,1.4-0.9,1.8c-0.6,0.5-1.4,0.7-2.4,0.7c-0.7,0-1.3-0.1-1.8-0.4
	c-0.5-0.2-0.9-0.6-1.2-1s-0.4-0.9-0.4-1.4h1.4c0,0.5,0.2,0.9,0.6,1.2c0.4,0.3,0.8,0.4,1.4,0.4c0.5,0,1-0.1,1.3-0.3
	C150.7,126,150.9,125.7,150.9,125.3z"/>
<path class="st1" d="M161.4,123.4c0,1.3-0.3,2.3-0.9,3.1c-0.6,0.8-1.4,1.2-2.4,1.2s-1.8-0.3-2.4-1v4.1h-1.4v-11.7h1.3l0.1,0.9
	c0.6-0.7,1.4-1.1,2.5-1.1c1,0,1.8,0.4,2.4,1.1c0.6,0.8,0.9,1.8,0.9,3.2L161.4,123.4L161.4,123.4z M159.9,123.2c0-1-0.2-1.7-0.6-2.3
	s-1-0.8-1.7-0.8c-0.9,0-1.5,0.4-2,1.2v4c0.4,0.8,1.1,1.2,2,1.2c0.7,0,1.2-0.3,1.7-0.8C159.7,125.1,159.9,124.3,159.9,123.2z"/>
<path class="st1" d="M162.8,123.2c0-0.8,0.2-1.6,0.5-2.2s0.8-1.2,1.4-1.5s1.2-0.5,2-0.5c1.2,0,2.1,0.4,2.8,1.2s1.1,1.9,1.1,3.2v0.1
	c0,0.8-0.2,1.6-0.5,2.2s-0.8,1.2-1.4,1.5s-1.3,0.5-2,0.5c-1.1,0-2.1-0.4-2.8-1.2S162.8,124.6,162.8,123.2L162.8,123.2z M164.3,123.4
	c0,0.9,0.2,1.7,0.7,2.3s1,0.9,1.7,0.9s1.3-0.3,1.8-0.9s0.6-1.4,0.6-2.4c0-0.9-0.2-1.7-0.7-2.3s-1-0.9-1.8-0.9
	c-0.7,0-1.3,0.3-1.7,0.9S164.3,122.3,164.3,123.4z"/>
<path class="st1" d="M173.7,119.1v1.1c0.6-0.8,1.5-1.2,2.5-1.2c1.8,0,2.7,1,2.7,3v5.6h-1.4V122c0-0.6-0.1-1.1-0.4-1.4
	s-0.7-0.4-1.3-0.4c-0.5,0-0.9,0.1-1.2,0.4s-0.6,0.6-0.8,1v6h-1.4v-8.5H173.7z"/>
<path class="st1" d="M181.2,116.8c0-0.2,0.1-0.4,0.2-0.6s0.4-0.2,0.6-0.2s0.5,0.1,0.6,0.2s0.2,0.4,0.2,0.6s-0.1,0.4-0.2,0.6
	s-0.4,0.2-0.6,0.2s-0.5-0.1-0.6-0.2S181.2,117.1,181.2,116.8z M182.7,127.5h-1.4V119h1.4V127.5z"/>
<path class="st1" d="M192.2,123.4c0,1.3-0.3,2.3-0.9,3.1s-1.4,1.2-2.4,1.2c-1.1,0-1.9-0.4-2.5-1.1l-0.1,1H185v-12h1.4v4.5
	c0.6-0.7,1.4-1.1,2.4-1.1s1.8,0.4,2.4,1.2S192.1,122,192.2,123.4L192.2,123.4L192.2,123.4z M190.7,123.2c0-1-0.2-1.7-0.6-2.3
	s-0.9-0.8-1.6-0.8c-1,0-1.6,0.4-2.1,1.3v3.7c0.4,0.9,1.1,1.3,2.1,1.3c0.7,0,1.2-0.3,1.6-0.8S190.7,124.3,190.7,123.2z"/>
<path class="st1" d="M194,116.8c0-0.2,0.1-0.4,0.2-0.6s0.4-0.2,0.6-0.2s0.5,0.1,0.6,0.2s0.2,0.4,0.2,0.6s-0.1,0.4-0.2,0.6
	s-0.4,0.2-0.6,0.2s-0.5-0.1-0.6-0.2S194,117.1,194,116.8z M195.6,127.5h-1.4V119h1.4V127.5z"/>
<path class="st1" d="M199.5,127.5h-1.4v-12h1.4V127.5z"/>
<path class="st1" d="M201.8,116.8c0-0.2,0.1-0.4,0.2-0.6s0.4-0.2,0.6-0.2s0.5,0.1,0.6,0.2s0.2,0.4,0.2,0.6s-0.1,0.4-0.2,0.6
	s-0.4,0.2-0.6,0.2s-0.5-0.1-0.6-0.2S201.8,117.1,201.8,116.8z M203.3,127.5h-1.4V119h1.4V127.5z"/>
<path class="st1" d="M205.3,123.2c0-1.3,0.3-2.3,0.9-3.1s1.4-1.2,2.4-1.2s1.8,0.3,2.4,1v-4.4h1.4v12h-1.3l-0.1-0.9
	c-0.6,0.7-1.4,1.1-2.4,1.1s-1.8-0.4-2.4-1.2s-0.9-1.8-0.9-3.1V123.2z M206.8,123.4c0,1,0.2,1.7,0.6,2.2s0.9,0.8,1.6,0.8
	c0.9,0,1.6-0.4,2-1.2v-3.9c-0.4-0.8-1.1-1.2-2-1.2c-0.7,0-1.3,0.3-1.7,0.8S206.8,122.3,206.8,123.4z"/>
<path class="st1" d="M219.9,127.5c-0.1-0.2-0.2-0.5-0.2-0.9c-0.7,0.7-1.5,1-2.4,1c-0.8,0-1.5-0.2-2.1-0.7s-0.8-1.1-0.8-1.8
	c0-0.9,0.3-1.6,1-2.1s1.6-0.7,2.8-0.7h1.4v-0.7c0-0.5-0.2-0.9-0.5-1.2s-0.7-0.4-1.3-0.4c-0.5,0-0.9,0.1-1.3,0.4s-0.5,0.6-0.5,0.9
	h-1.5c0-0.4,0.1-0.8,0.4-1.2s0.7-0.7,1.2-0.9s1.1-0.3,1.7-0.3c1,0,1.7,0.2,2.3,0.7s0.8,1.2,0.9,2v3.9c0,0.8,0.1,1.4,0.3,1.9v0.1
	L219.9,127.5L219.9,127.5z M217.5,126.4c0.5,0,0.9-0.1,1.3-0.4s0.7-0.5,0.9-0.9v-1.7h-1.1c-1.8,0-2.7,0.5-2.7,1.6
	c0,0.5,0.2,0.8,0.5,1.1S217,126.4,217.5,126.4z"/>
<path class="st1" d="M223,123.2c0-1.3,0.3-2.3,0.9-3.1s1.4-1.2,2.4-1.2s1.8,0.3,2.4,1v-4.4h1.4v12h-1.3l-0.1-0.9
	c-0.6,0.7-1.4,1.1-2.4,1.1s-1.8-0.4-2.4-1.2s-0.9-1.8-0.9-3.1V123.2z M224.5,123.4c0,1,0.2,1.7,0.6,2.2s0.9,0.8,1.6,0.8
	c0.9,0,1.6-0.4,2-1.2v-3.9c-0.4-0.8-1.1-1.2-2-1.2c-0.7,0-1.3,0.3-1.7,0.8S224.5,122.3,224.5,123.4z"/>
<path class="st1" d="M113.5,208.3h5.4v1.2H112v-11.4h1.5V208.3z"/>
<path class="st1" d="M125.6,209.5c-0.1-0.2-0.2-0.5-0.2-0.9c-0.7,0.7-1.5,1-2.4,1c-0.8,0-1.5-0.2-2.1-0.7c-0.5-0.5-0.8-1.1-0.8-1.8
	c0-0.9,0.3-1.6,1-2.1s1.6-0.7,2.8-0.7h1.4v-0.7c0-0.5-0.2-0.9-0.5-1.2c-0.3-0.3-0.7-0.4-1.3-0.4c-0.5,0-0.9,0.1-1.3,0.4
	c-0.3,0.3-0.5,0.6-0.5,0.9h-1.5c0-0.4,0.1-0.8,0.4-1.2c0.3-0.4,0.7-0.7,1.2-0.9c0.5-0.2,1.1-0.3,1.7-0.3c1,0,1.7,0.2,2.3,0.7
	s0.8,1.2,0.9,2v3.9c0,0.8,0.1,1.4,0.3,1.9v0.1L125.6,209.5L125.6,209.5z M123.2,208.4c0.5,0,0.9-0.1,1.3-0.4s0.7-0.5,0.9-0.9v-1.7
	h-1.1c-1.8,0-2.7,0.5-2.7,1.6c0,0.5,0.2,0.8,0.5,1.1C122.4,208.3,122.7,208.4,123.2,208.4z"/>
<path class="st1" d="M136.5,208.5c0.5,0,1-0.2,1.4-0.5s0.6-0.7,0.6-1.2h1.4c0,0.5-0.2,0.9-0.5,1.4c-0.3,0.4-0.7,0.8-1.2,1
	c-0.5,0.3-1.1,0.4-1.6,0.4c-1.2,0-2.1-0.4-2.7-1.2s-1-1.8-1-3.2V205c0-0.8,0.2-1.6,0.5-2.2s0.7-1.1,1.3-1.5s1.2-0.5,2-0.5
	c0.9,0,1.7,0.3,2.4,0.9c0.6,0.6,1,1.3,1,2.2h-1.4c0-0.5-0.2-1-0.6-1.3c-0.4-0.4-0.8-0.5-1.4-0.5c-0.7,0-1.3,0.3-1.7,0.8
	s-0.6,1.3-0.6,2.3v0.3c0,1,0.2,1.7,0.6,2.2C135.1,208.2,135.7,208.5,136.5,208.5z"/>
<path class="st1" d="M141.1,205.2c0-0.8,0.2-1.6,0.5-2.2c0.3-0.7,0.8-1.2,1.4-1.5c0.6-0.4,1.2-0.5,2-0.5c1.2,0,2.1,0.4,2.8,1.2
	s1.1,1.9,1.1,3.2v0.1c0,0.8-0.2,1.6-0.5,2.2c-0.3,0.7-0.8,1.2-1.4,1.5s-1.3,0.5-2,0.5c-1.1,0-2.1-0.4-2.8-1.2
	S141.1,206.6,141.1,205.2L141.1,205.2z M142.5,205.4c0,0.9,0.2,1.7,0.7,2.3c0.4,0.6,1,0.9,1.7,0.9s1.3-0.3,1.8-0.9
	c0.4-0.6,0.6-1.4,0.6-2.4c0-0.9-0.2-1.7-0.7-2.3c-0.4-0.6-1-0.9-1.8-0.9c-0.7,0-1.3,0.3-1.7,0.9S142.5,204.3,142.5,205.4z"/>
<path class="st1" d="M151.9,201v1.1c0.6-0.8,1.5-1.2,2.5-1.2c1.8,0,2.7,1,2.7,3v5.6h-1.4v-5.6c0-0.6-0.1-1.1-0.4-1.4
	s-0.7-0.4-1.3-0.4c-0.5,0-0.9,0.1-1.2,0.4c-0.4,0.2-0.6,0.6-0.8,1v6h-1.4V201H151.9z"/>
<path class="st1" d="M160.1,209.5v-7.3h-1.3v-1.1h1.3v-0.9c0-0.9,0.2-1.6,0.7-2.1s1.2-0.7,2.1-0.7c0.3,0,0.7,0,1,0.1l-0.1,1.2
	c-0.2,0-0.5-0.1-0.8-0.1c-0.5,0-0.8,0.1-1.1,0.4s-0.4,0.7-0.4,1.2v0.9h1.8v1.1h-1.8v7.3H160.1z"/>
<path class="st1" d="M165,198.8c0-0.2,0.1-0.4,0.2-0.6s0.4-0.2,0.6-0.2s0.5,0.1,0.6,0.2s0.2,0.4,0.2,0.6s-0.1,0.4-0.2,0.6
	s-0.4,0.2-0.6,0.2s-0.5-0.1-0.6-0.2S165,199,165,198.8z M166.5,209.5h-1.4V201h1.4V209.5z"/>
<path class="st1" d="M174.1,209.5c-0.1-0.2-0.2-0.5-0.2-0.9c-0.7,0.7-1.5,1-2.4,1c-0.8,0-1.5-0.2-2.1-0.7s-0.8-1.1-0.8-1.8
	c0-0.9,0.3-1.6,1-2.1s1.6-0.7,2.8-0.7h1.4v-0.7c0-0.5-0.2-0.9-0.5-1.2s-0.7-0.4-1.3-0.4c-0.5,0-0.9,0.1-1.3,0.4s-0.5,0.6-0.5,0.9
	h-1.5c0-0.4,0.1-0.8,0.4-1.2s0.7-0.7,1.2-0.9s1.1-0.3,1.7-0.3c1,0,1.7,0.2,2.3,0.7s0.8,1.2,0.9,2v3.9c0,0.8,0.1,1.4,0.3,1.9v0.1
	L174.1,209.5L174.1,209.5z M171.7,208.4c0.5,0,0.9-0.1,1.3-0.4s0.7-0.5,0.9-0.9v-1.7h-1.1c-1.8,0-2.7,0.5-2.7,1.6
	c0,0.5,0.2,0.8,0.5,1.1S171.2,208.4,171.7,208.4z"/>
<path class="st1" d="M178.9,201v1.1c0.6-0.8,1.5-1.2,2.5-1.2c1.8,0,2.7,1,2.7,3v5.6h-1.4v-5.6c0-0.6-0.1-1.1-0.4-1.4
	s-0.7-0.4-1.3-0.4c-0.5,0-0.9,0.1-1.2,0.4s-0.6,0.6-0.8,1v6h-1.4V201H178.9z"/>
<path class="st1" d="M193.5,205.4c0,1.3-0.3,2.3-0.9,3.1s-1.4,1.2-2.4,1.2c-1.1,0-1.9-0.4-2.5-1.1l-0.1,1h-1.3v-12h1.4v4.5
	c0.6-0.7,1.4-1.1,2.4-1.1s1.8,0.4,2.4,1.2S193.4,204,193.5,205.4L193.5,205.4L193.5,205.4z M192.1,205.2c0-1-0.2-1.7-0.6-2.3
	s-0.9-0.8-1.6-0.8c-1,0-1.6,0.4-2.1,1.3v3.7c0.4,0.9,1.1,1.3,2.1,1.3c0.7,0,1.2-0.3,1.6-0.8S192.1,206.3,192.1,205.2z"/>
<path class="st1" d="M195.3,198.8c0-0.2,0.1-0.4,0.2-0.6s0.4-0.2,0.6-0.2s0.5,0.1,0.6,0.2s0.2,0.4,0.2,0.6s-0.1,0.4-0.2,0.6
	s-0.4,0.2-0.6,0.2s-0.5-0.1-0.6-0.2S195.3,199,195.3,198.8z M196.9,209.5h-1.4V201h1.4V209.5z"/>
<path class="st1" d="M200.8,209.5h-1.4v-12h1.4V209.5z"/>
<path class="st1" d="M203.1,198.8c0-0.2,0.1-0.4,0.2-0.6s0.4-0.2,0.6-0.2s0.5,0.1,0.6,0.2s0.2,0.4,0.2,0.6s-0.1,0.4-0.2,0.6
	s-0.4,0.2-0.6,0.2s-0.5-0.1-0.6-0.2S203.1,199,203.1,198.8z M204.7,209.5h-1.4V201h1.4V209.5z"/>
<path class="st1" d="M206.6,205.2c0-1.3,0.3-2.3,0.9-3.1s1.4-1.2,2.4-1.2s1.8,0.3,2.4,1v-4.4h1.4v12h-1.3l-0.1-0.9
	c-0.6,0.7-1.4,1.1-2.4,1.1s-1.8-0.4-2.4-1.2s-0.9-1.8-0.9-3.1V205.2z M208.1,205.4c0,1,0.2,1.7,0.6,2.2s0.9,0.8,1.6,0.8
	c0.9,0,1.6-0.4,2-1.2v-3.9c-0.4-0.8-1.1-1.2-2-1.2c-0.7,0-1.3,0.3-1.7,0.8S208.1,204.3,208.1,205.4z"/>
<path class="st1" d="M221.2,209.5c-0.1-0.2-0.2-0.5-0.2-0.9c-0.7,0.7-1.5,1-2.4,1c-0.8,0-1.5-0.2-2.1-0.7s-0.8-1.1-0.8-1.8
	c0-0.9,0.3-1.6,1-2.1s1.6-0.7,2.8-0.7h1.4v-0.7c0-0.5-0.2-0.9-0.5-1.2s-0.7-0.4-1.3-0.4c-0.5,0-0.9,0.1-1.3,0.4s-0.5,0.6-0.5,0.9
	h-1.5c0-0.4,0.1-0.8,0.4-1.2s0.7-0.7,1.2-0.9s1.1-0.3,1.7-0.3c1,0,1.7,0.2,2.3,0.7s0.8,1.2,0.9,2v3.9c0,0.8,0.1,1.4,0.3,1.9v0.1
	L221.2,209.5L221.2,209.5z M218.8,208.4c0.5,0,0.9-0.1,1.3-0.4s0.7-0.5,0.9-0.9v-1.7h-1.1c-1.8,0-2.7,0.5-2.7,1.6
	c0,0.5,0.2,0.8,0.5,1.1S218.4,208.4,218.8,208.4z"/>
<path class="st1" d="M224.4,205.2c0-1.3,0.3-2.3,0.9-3.1s1.4-1.2,2.4-1.2s1.8,0.3,2.4,1v-4.4h1.4v12h-1.3l-0.1-0.9
	c-0.6,0.7-1.4,1.1-2.4,1.1s-1.8-0.4-2.4-1.2s-0.9-1.8-0.9-3.1V205.2z M225.8,205.4c0,1,0.2,1.7,0.6,2.2s0.9,0.8,1.6,0.8
	c0.9,0,1.6-0.4,2-1.2v-3.9c-0.4-0.8-1.1-1.2-2-1.2c-0.7,0-1.3,0.3-1.7,0.8S225.8,204.3,225.8,205.4z"/>
<path class="st1" d="M113.5,290.3h5.4v1.2H112v-11.4h1.5V290.3z"/>
<path class="st1" d="M125.6,291.5c-0.1-0.2-0.2-0.5-0.2-0.9c-0.7,0.7-1.5,1-2.4,1c-0.8,0-1.5-0.2-2.1-0.7c-0.5-0.5-0.8-1.1-0.8-1.8
	c0-0.9,0.3-1.6,1-2.1s1.6-0.7,2.8-0.7h1.4v-0.7c0-0.5-0.2-0.9-0.5-1.2c-0.3-0.3-0.7-0.4-1.3-0.4c-0.5,0-0.9,0.1-1.3,0.4
	c-0.3,0.3-0.5,0.6-0.5,0.9h-1.5c0-0.4,0.1-0.8,0.4-1.2c0.3-0.4,0.7-0.7,1.2-0.9c0.5-0.2,1.1-0.3,1.7-0.3c1,0,1.7,0.2,2.3,0.7
	s0.8,1.2,0.9,2v3.9c0,0.8,0.1,1.4,0.3,1.9v0.1L125.6,291.5L125.6,291.5z M123.2,290.4c0.5,0,0.9-0.1,1.3-0.4s0.7-0.5,0.9-0.9v-1.7
	h-1.1c-1.8,0-2.7,0.5-2.7,1.6c0,0.5,0.2,0.8,0.5,1.1C122.4,290.3,122.7,290.4,123.2,290.4z"/>
<path class="st1" d="M136.5,290.5c0.5,0,1-0.2,1.4-0.5s0.6-0.7,0.6-1.2h1.4c0,0.5-0.2,0.9-0.5,1.4c-0.3,0.4-0.7,0.8-1.2,1
	c-0.5,0.3-1.1,0.4-1.6,0.4c-1.2,0-2.1-0.4-2.7-1.2s-1-1.8-1-3.2V287c0-0.8,0.2-1.6,0.5-2.2s0.7-1.1,1.3-1.5s1.2-0.5,2-0.5
	c0.9,0,1.7,0.3,2.4,0.9c0.6,0.6,1,1.3,1,2.2h-1.4c0-0.5-0.2-1-0.6-1.3c-0.4-0.4-0.8-0.5-1.4-0.5c-0.7,0-1.3,0.3-1.7,0.8
	s-0.6,1.3-0.6,2.3v0.3c0,1,0.2,1.7,0.6,2.2C135.1,290.2,135.7,290.5,136.5,290.5z"/>
<path class="st1" d="M146.7,291.5c-0.1-0.2-0.2-0.5-0.2-0.9c-0.7,0.7-1.5,1-2.4,1c-0.8,0-1.5-0.2-2.1-0.7c-0.5-0.5-0.8-1.1-0.8-1.8
	c0-0.9,0.3-1.6,1-2.1s1.6-0.7,2.8-0.7h1.4v-0.7c0-0.5-0.2-0.9-0.5-1.2c-0.3-0.3-0.7-0.4-1.3-0.4c-0.5,0-0.9,0.1-1.3,0.4
	c-0.3,0.3-0.5,0.6-0.5,0.9h-1.5c0-0.4,0.1-0.8,0.4-1.2c0.3-0.4,0.7-0.7,1.2-0.9c0.5-0.2,1.1-0.3,1.7-0.3c1,0,1.7,0.2,2.3,0.7
	s0.8,1.2,0.9,2v3.9c0,0.8,0.1,1.4,0.3,1.9v0.1L146.7,291.5L146.7,291.5z M144.3,290.4c0.5,0,0.9-0.1,1.3-0.4s0.7-0.5,0.9-0.9v-1.7
	h-1.1c-1.8,0-2.7,0.5-2.7,1.6c0,0.5,0.2,0.8,0.5,1.1C143.4,290.3,143.8,290.4,144.3,290.4z"/>
<path class="st1" d="M157.3,287.4c0,1.3-0.3,2.3-0.9,3.1c-0.6,0.8-1.4,1.2-2.4,1.2s-1.8-0.3-2.4-1v4.1h-1.4v-11.7h1.3l0.1,0.9
	c0.6-0.7,1.4-1.1,2.5-1.1c1,0,1.8,0.4,2.4,1.1c0.6,0.8,0.9,1.8,0.9,3.2L157.3,287.4L157.3,287.4z M155.8,287.2c0-1-0.2-1.7-0.6-2.3
	s-1-0.8-1.7-0.8c-0.9,0-1.5,0.4-2,1.2v4c0.4,0.8,1.1,1.2,2,1.2c0.7,0,1.2-0.3,1.7-0.8C155.6,289.1,155.8,288.3,155.8,287.2z"/>
<path class="st1" d="M164.3,291.5c-0.1-0.2-0.2-0.5-0.2-0.9c-0.7,0.7-1.5,1-2.4,1c-0.8,0-1.5-0.2-2.1-0.7c-0.5-0.5-0.8-1.1-0.8-1.8
	c0-0.9,0.3-1.6,1-2.1s1.6-0.7,2.8-0.7h1.4v-0.7c0-0.5-0.2-0.9-0.5-1.2s-0.7-0.4-1.3-0.4c-0.5,0-0.9,0.1-1.3,0.4s-0.5,0.6-0.5,0.9
	h-1.5c0-0.4,0.1-0.8,0.4-1.2c0.3-0.4,0.7-0.7,1.2-0.9c0.5-0.2,1.1-0.3,1.7-0.3c1,0,1.7,0.2,2.3,0.7s0.8,1.2,0.9,2v3.9
	c0,0.8,0.1,1.4,0.3,1.9v0.1L164.3,291.5L164.3,291.5z M161.9,290.4c0.5,0,0.9-0.1,1.3-0.4s0.7-0.5,0.9-0.9v-1.7H163
	c-1.8,0-2.7,0.5-2.7,1.6c0,0.5,0.2,0.8,0.5,1.1C161.1,290.3,161.5,290.4,161.9,290.4z"/>
<path class="st1" d="M171.2,290.5c0.5,0,1-0.2,1.4-0.5s0.6-0.7,0.6-1.2h1.4c0,0.5-0.2,0.9-0.5,1.4s-0.7,0.8-1.2,1s-1.1,0.4-1.6,0.4
	c-1.2,0-2.1-0.4-2.7-1.2s-1-1.8-1-3.2V287c0-0.8,0.2-1.6,0.5-2.2s0.7-1.1,1.3-1.5s1.2-0.5,2-0.5c0.9,0,1.7,0.3,2.4,0.9s1,1.3,1,2.2
	h-1.4c0-0.5-0.2-1-0.6-1.3s-0.8-0.5-1.4-0.5c-0.7,0-1.3,0.3-1.7,0.8s-0.6,1.3-0.6,2.3v0.3c0,1,0.2,1.7,0.6,2.2
	S170.5,290.5,171.2,290.5z"/>
<path class="st1" d="M176.2,280.8c0-0.2,0.1-0.4,0.2-0.6s0.4-0.2,0.6-0.2s0.5,0.1,0.6,0.2s0.2,0.4,0.2,0.6s-0.1,0.4-0.2,0.6
	s-0.4,0.2-0.6,0.2s-0.5-0.1-0.6-0.2S176.2,281,176.2,280.8z M177.8,291.5h-1.4V283h1.4V291.5z"/>
<path class="st1" d="M179.7,287.2c0-1.3,0.3-2.3,0.9-3.1s1.4-1.2,2.4-1.2s1.8,0.3,2.4,1v-4.4h1.4v12h-1.3l-0.1-0.9
	c-0.6,0.7-1.4,1.1-2.4,1.1s-1.8-0.4-2.4-1.2s-0.9-1.8-0.9-3.1V287.2z M181.2,287.4c0,1,0.2,1.7,0.6,2.2s0.9,0.8,1.6,0.8
	c0.9,0,1.6-0.4,2-1.2v-3.9c-0.4-0.8-1.1-1.2-2-1.2c-0.7,0-1.3,0.3-1.7,0.8S181.2,286.3,181.2,287.4z"/>
<path class="st1" d="M194.3,291.5c-0.1-0.2-0.2-0.5-0.2-0.9c-0.7,0.7-1.5,1-2.4,1c-0.8,0-1.5-0.2-2.1-0.7s-0.8-1.1-0.8-1.8
	c0-0.9,0.3-1.6,1-2.1s1.6-0.7,2.8-0.7h1.4v-0.7c0-0.5-0.2-0.9-0.5-1.2s-0.7-0.4-1.3-0.4c-0.5,0-0.9,0.1-1.3,0.4s-0.5,0.6-0.5,0.9
	h-1.5c0-0.4,0.1-0.8,0.4-1.2s0.7-0.7,1.2-0.9s1.1-0.3,1.7-0.3c1,0,1.7,0.2,2.3,0.7s0.8,1.2,0.9,2v3.9c0,0.8,0.1,1.4,0.3,1.9v0.1
	L194.3,291.5L194.3,291.5z M191.9,290.4c0.5,0,0.9-0.1,1.3-0.4s0.7-0.5,0.9-0.9v-1.7H193c-1.8,0-2.7,0.5-2.7,1.6
	c0,0.5,0.2,0.8,0.5,1.1S191.5,290.4,191.9,290.4z"/>
<path class="st1" d="M197.5,287.2c0-1.3,0.3-2.3,0.9-3.1s1.4-1.2,2.4-1.2s1.8,0.3,2.4,1v-4.4h1.4v12h-1.3l-0.1-0.9
	c-0.6,0.7-1.4,1.1-2.4,1.1s-1.8-0.4-2.4-1.2s-0.9-1.8-0.9-3.1V287.2z M198.9,287.4c0,1,0.2,1.7,0.6,2.2s0.9,0.8,1.6,0.8
	c0.9,0,1.6-0.4,2-1.2v-3.9c-0.4-0.8-1.1-1.2-2-1.2c-0.7,0-1.3,0.3-1.7,0.8S198.9,286.3,198.9,287.4z"/>
<path class="st1" d="M113.5,374.3h5.4v1.2H112v-11.4h1.5V374.3z"/>
<path class="st1" d="M125.6,375.5c-0.1-0.2-0.2-0.5-0.2-0.9c-0.7,0.7-1.5,1-2.4,1c-0.8,0-1.5-0.2-2.1-0.7c-0.5-0.5-0.8-1.1-0.8-1.8
	c0-0.9,0.3-1.6,1-2.1s1.6-0.7,2.8-0.7h1.4v-0.7c0-0.5-0.2-0.9-0.5-1.2c-0.3-0.3-0.7-0.4-1.3-0.4c-0.5,0-0.9,0.1-1.3,0.4
	c-0.3,0.3-0.5,0.6-0.5,0.9h-1.5c0-0.4,0.1-0.8,0.4-1.2c0.3-0.4,0.7-0.7,1.2-0.9c0.5-0.2,1.1-0.3,1.7-0.3c1,0,1.7,0.2,2.3,0.7
	s0.8,1.2,0.9,2v3.9c0,0.8,0.1,1.4,0.3,1.9v0.1L125.6,375.5L125.6,375.5z M123.2,374.4c0.5,0,0.9-0.1,1.3-0.4s0.7-0.5,0.9-0.9v-1.7
	h-1.1c-1.8,0-2.7,0.5-2.7,1.6c0,0.5,0.2,0.8,0.5,1.1C122.4,374.3,122.7,374.4,123.2,374.4z"/>
<path class="st1" d="M133.8,375.5v-7.3h-1.3v-1.1h1.3v-0.9c0-0.9,0.2-1.6,0.7-2.1s1.2-0.7,2.1-0.7c0.3,0,0.7,0,1,0.1l-0.1,1.2
	c-0.2,0-0.5-0.1-0.8-0.1c-0.5,0-0.8,0.1-1.1,0.4s-0.4,0.7-0.4,1.2v0.9h1.8v1.1h-1.8v7.3H133.8z"/>
<path class="st1" d="M142.7,368.3c-0.2,0-0.5-0.1-0.7-0.1c-0.9,0-1.6,0.4-1.9,1.2v6h-1.4v-8.5h1.4v1c0.5-0.8,1.1-1.1,2-1.1
	c0.3,0,0.5,0,0.6,0.1L142.7,368.3L142.7,368.3z"/>
<path class="st1" d="M147.5,375.7c-1.1,0-2.1-0.4-2.8-1.1s-1.1-1.8-1.1-3v-0.3c0-0.8,0.2-1.6,0.5-2.2s0.8-1.2,1.3-1.5
	c0.6-0.4,1.2-0.6,1.9-0.6c1.1,0,2,0.4,2.6,1.1s0.9,1.8,0.9,3.1v0.6h-5.7c0,0.8,0.3,1.5,0.7,2c0.5,0.5,1.1,0.8,1.8,0.8
	c0.5,0,0.9-0.1,1.3-0.3c0.4-0.2,0.7-0.5,0.9-0.8l0.9,0.7C150,375.1,149,375.7,147.5,375.7z M147.4,368.1c-0.6,0-1.1,0.2-1.5,0.6
	s-0.6,1-0.7,1.8h4.2v-0.1c0-0.7-0.2-1.3-0.6-1.7C148.4,368.3,148,368.1,147.4,368.1z"/>
<path class="st1" d="M155.9,374.5c0.5,0,1-0.2,1.4-0.5s0.6-0.7,0.6-1.2h1.4c0,0.5-0.2,0.9-0.5,1.4c-0.3,0.4-0.7,0.8-1.2,1
	c-0.5,0.3-1.1,0.4-1.6,0.4c-1.2,0-2.1-0.4-2.7-1.2c-0.7-0.8-1-1.8-1-3.2V371c0-0.8,0.2-1.6,0.5-2.2c0.3-0.6,0.7-1.1,1.3-1.5
	c0.6-0.4,1.2-0.5,2-0.5c0.9,0,1.7,0.3,2.4,0.9c0.6,0.6,1,1.3,1,2.2h-1.4c0-0.5-0.2-1-0.6-1.3c-0.4-0.4-0.8-0.5-1.4-0.5
	c-0.7,0-1.3,0.3-1.7,0.8c-0.4,0.5-0.6,1.3-0.6,2.3v0.3c0,1,0.2,1.7,0.6,2.2C154.6,374.2,155.2,374.5,155.9,374.5z"/>
<path class="st1" d="M166.1,374.7c-0.6,0.7-1.4,1-2.5,1c-0.9,0-1.6-0.3-2.1-0.8s-0.7-1.3-0.7-2.3v-5.5h1.4v5.5
	c0,1.3,0.5,1.9,1.6,1.9s1.8-0.4,2.2-1.2v-6.1h1.4v8.5H166L166.1,374.7z"/>
<path class="st1" d="M173.2,375.7c-1.1,0-2.1-0.4-2.8-1.1s-1.1-1.8-1.1-3v-0.3c0-0.8,0.2-1.6,0.5-2.2s0.8-1.2,1.3-1.5
	s1.2-0.6,1.9-0.6c1.1,0,2,0.4,2.6,1.1s0.9,1.8,0.9,3.1v0.6h-5.7c0,0.8,0.3,1.5,0.7,2s1.1,0.8,1.8,0.8c0.5,0,0.9-0.1,1.3-0.3
	s0.7-0.5,0.9-0.8l0.9,0.7C175.7,375.1,174.6,375.7,173.2,375.7z M173,368.1c-0.6,0-1.1,0.2-1.5,0.6s-0.6,1-0.7,1.8h4.2v-0.1
	c0-0.7-0.2-1.3-0.6-1.7S173.6,368.1,173,368.1z"/>
<path class="st1" d="M179.6,367v1.1c0.6-0.8,1.5-1.2,2.5-1.2c1.8,0,2.7,1,2.7,3v5.6h-1.4v-5.6c0-0.6-0.1-1.1-0.4-1.4
	s-0.7-0.4-1.3-0.4c-0.5,0-0.9,0.1-1.2,0.4s-0.6,0.6-0.8,1v6h-1.4V367H179.6z"/>
<path class="st1" d="M190.4,374.5c0.5,0,1-0.2,1.4-0.5s0.6-0.7,0.6-1.2h1.4c0,0.5-0.2,0.9-0.5,1.4s-0.7,0.8-1.2,1s-1.1,0.4-1.6,0.4
	c-1.2,0-2.1-0.4-2.7-1.2s-1-1.8-1-3.2V371c0-0.8,0.2-1.6,0.5-2.2s0.7-1.1,1.3-1.5s1.2-0.5,2-0.5c0.9,0,1.7,0.3,2.4,0.9s1,1.3,1,2.2
	h-1.4c0-0.5-0.2-1-0.6-1.3s-0.8-0.5-1.4-0.5c-0.7,0-1.3,0.3-1.7,0.8s-0.6,1.3-0.6,2.3v0.3c0,1,0.2,1.7,0.6,2.2
	S189.7,374.5,190.4,374.5z"/>
<path class="st1" d="M195.4,364.8c0-0.2,0.1-0.4,0.2-0.6s0.4-0.2,0.6-0.2s0.5,0.1,0.6,0.2s0.2,0.4,0.2,0.6s-0.1,0.4-0.2,0.6
	s-0.4,0.2-0.6,0.2s-0.5-0.1-0.6-0.2S195.4,365,195.4,364.8z M197,375.5h-1.4V367h1.4V375.5z"/>
<path class="st1" d="M204.5,375.5c-0.1-0.2-0.2-0.5-0.2-0.9c-0.7,0.7-1.5,1-2.4,1c-0.8,0-1.5-0.2-2.1-0.7s-0.8-1.1-0.8-1.8
	c0-0.9,0.3-1.6,1-2.1s1.6-0.7,2.8-0.7h1.4v-0.7c0-0.5-0.2-0.9-0.5-1.2s-0.7-0.4-1.3-0.4c-0.5,0-0.9,0.1-1.3,0.4s-0.5,0.6-0.5,0.9
	h-1.5c0-0.4,0.1-0.8,0.4-1.2s0.7-0.7,1.2-0.9s1.1-0.3,1.7-0.3c1,0,1.7,0.2,2.3,0.7s0.8,1.2,0.9,2v3.9c0,0.8,0.1,1.4,0.3,1.9v0.1
	L204.5,375.5L204.5,375.5z M202.1,374.4c0.5,0,0.9-0.1,1.3-0.4s0.7-0.5,0.9-0.9v-1.7h-1.1c-1.8,0-2.7,0.5-2.7,1.6
	c0,0.5,0.2,0.8,0.5,1.1S201.6,374.4,202.1,374.4z"/>
<path id="Trazado_185948" class="st2" d="M67.4,54.1c0.9-0.2,1.7-0.4,2.5-0.5c0.8-0.2,1.1,0,1.3,0.8s0.4,1.7,0.5,2.5
	c0.2,0.7,0,1-0.8,1.2c-2.9,0.6-5.8,1.2-8.7,1.9c-4.3,0.9-8.6,1.9-13,2.8c-0.1,0-0.2,0.1-0.3,0.1c0.6,5-2.9,9.5-7.9,10.1
	s-9.5-2.9-10.1-7.9c-0.6-4.4,2.1-8.5,6.3-9.8c-0.4-1.7-0.7-3.4-1.1-5.1c-1.7-7.8-3.4-15.6-5-23.4c-0.1-0.5-0.3-0.7-0.8-0.7
	c-3,0-6,0-9,0c-0.9,0-1.1-0.2-1.1-1.1c0-0.8,0-1.7,0-2.5c0-0.7,0.3-1,1-1c4.2,0,8.5,0,12.7,0c0.6,0,0.8,0.2,1,0.9
	c0.8,3.9,1.7,7.8,2.5,11.7c0.1,0.2,0.1,0.5,0.2,0.8c0.5-0.1,1-0.2,1.5-0.3c7.3-1.6,14.5-3.1,21.8-4.7c1-0.2,1.2-0.1,1.5,1
	c1.6,7.6,3.3,15.2,4.9,22.8C67.3,53.7,67.4,53.9,67.4,54.1z M39.4,42.6c0,0.1,0,0.1,0,0.2c0.9,4,1.7,8,2.6,12
	c0.1,0.3,0.3,0.4,0.5,0.5c1.7,0.5,3.2,1.4,4.4,2.8c0.2,0.3,0.6,0.5,1,0.3c4.3-0.9,8.6-1.9,12.8-2.8c1.7-0.4,3.4-0.7,5.2-1.1
	l-3.6-16.8l-7.8,1.7c0.1,0.3,0.1,0.5,0.1,0.6c0.3,1.5,0.7,3,0.9,4.5c0,0.3-0.1,0.6-0.3,0.9c-0.2,0.1-0.6,0-0.9,0
	c-0.2-0.1-0.5-0.3-0.7-0.4l-2.1-1.4c-0.6,0.9-1.1,1.7-1.7,2.5c-0.3,0.4-0.5,1-1.1,0.8c-0.6-0.1-0.6-0.7-0.7-1.2
	c-0.3-1.5-0.7-3.1-1-4.7L39.4,42.6z M32.5,63.9c0,4.2,3.3,7.6,7.5,7.6s7.6-3.3,7.6-7.5s-3.3-7.6-7.5-7.6l0,0
	C35.9,56.4,32.5,59.7,32.5,63.9L32.5,63.9L32.5,63.9z M40.4,54.9L33.5,23H21.8v1.5h0.7c3,0,5.9,0,8.9,0c0.7,0,0.9,0.2,1.1,0.8
	c1.9,8.6,3.7,17.2,5.6,25.8c0.3,1.2,0.5,2.5,0.8,3.7L40.4,54.9z M53.8,43.1l-2.1-9.6l-4.5,1l2.1,9.7c0.5-0.7,0.9-1.4,1.3-2
	c0.4-0.6,0.7-0.7,1.4-0.3C52.6,42.3,53.1,42.6,53.8,43.1L53.8,43.1z M53.2,33.1l1,4.7l7.8-1.7l-1-4.7L53.2,33.1z M39,41.1l7.8-1.7
	l-1-4.7L38,36.4L39,41.1z M48.7,61.3l21.5-4.6l-0.3-1.5l-21.7,4.7L48.7,61.3z"/>
<path id="Trazado_185949" class="st2" d="M51.9,54.9c0,0.4-0.3,0.7-0.6,0.7c-1.2,0.3-2.5,0.5-3.7,0.8c-0.4,0.1-0.8-0.1-0.9-0.5
	c-0.1-0.4,0.1-0.8,0.5-0.9h0.1c1.2-0.3,2.5-0.6,3.7-0.8c0.4-0.1,0.8,0.2,0.9,0.6C51.9,54.7,51.9,54.8,51.9,54.9z"/>
<path id="Trazado_185950" class="st2" d="M55.9,54.1c-0.1,0.1-0.3,0.4-0.6,0.5c-0.5,0.2-1,0.3-1.5,0.3C53.4,55,53,54.7,53,54.3
	c0-0.3,0.2-0.7,0.5-0.8c0.5-0.2,1-0.3,1.6-0.3C55.6,53.1,55.9,53.5,55.9,54.1z"/>
<path id="Trazado_185951" class="st2" d="M44.8,64c0,2.6-2.2,4.7-4.9,4.7c-2.6,0-4.7-2.1-4.7-4.7s2.1-4.8,4.7-4.8
	c2.6,0,4.8,2.1,4.8,4.7C44.8,63.9,44.8,63.9,44.8,64z M43.3,63.9c0-1.8-1.4-3.3-3.2-3.3l0,0c-1.8,0-3.3,1.5-3.3,3.3s1.5,3.3,3.3,3.3
	C41.8,67.2,43.2,65.8,43.3,63.9C43.3,64,43.3,64,43.3,63.9L43.3,63.9z"/>
<path id="Trazado_185948-2" class="st2" d="M67.4,134.1c0.9-0.2,1.7-0.4,2.5-0.5c0.8-0.2,1.1,0,1.3,0.8s0.4,1.7,0.5,2.5
	c0.2,0.7,0,1-0.8,1.2c-2.9,0.6-5.8,1.2-8.7,1.9c-4.3,0.9-8.6,1.9-13,2.8c-0.1,0-0.2,0.1-0.3,0.1c0.6,5-2.9,9.5-7.9,10.1
	s-9.5-2.9-10.1-7.9c-0.6-4.4,2.1-8.5,6.3-9.8c-0.4-1.7-0.7-3.4-1.1-5.1c-1.7-7.8-3.4-15.6-5-23.4c-0.1-0.5-0.3-0.7-0.8-0.7
	c-3,0-6,0-9,0c-0.9,0-1.1-0.2-1.1-1.1c0-0.8,0-1.7,0-2.5c0-0.7,0.3-1,1-1c4.2,0,8.5,0,12.7,0c0.6,0,0.8,0.2,1,0.9
	c0.8,3.9,1.7,7.8,2.5,11.7c0.1,0.2,0.1,0.5,0.2,0.8c0.5-0.1,1-0.2,1.5-0.3c7.3-1.6,14.5-3.1,21.8-4.7c1-0.2,1.2-0.1,1.5,1
	c1.6,7.6,3.3,15.2,4.9,22.8C67.3,133.7,67.4,133.9,67.4,134.1z M39.4,122.6c0,0.1,0,0.1,0,0.2c0.9,4,1.7,8,2.6,12
	c0.1,0.3,0.3,0.4,0.5,0.5c1.7,0.5,3.2,1.4,4.4,2.8c0.2,0.3,0.6,0.5,1,0.3c4.3-0.9,8.6-1.9,12.8-2.8c1.7-0.4,3.4-0.7,5.2-1.1
	l-3.6-16.8l-7.8,1.7c0.1,0.3,0.1,0.5,0.1,0.6c0.3,1.5,0.7,3,0.9,4.5c0,0.3-0.1,0.6-0.3,0.9c-0.2,0.1-0.6,0-0.9,0
	c-0.2-0.1-0.5-0.3-0.7-0.4l-2.1-1.4c-0.6,0.9-1.1,1.7-1.7,2.5c-0.3,0.4-0.5,1-1.1,0.8c-0.6-0.1-0.6-0.7-0.7-1.2
	c-0.3-1.5-0.7-3.1-1-4.7L39.4,122.6z M32.5,143.9c0,4.2,3.3,7.6,7.5,7.6s7.6-3.3,7.6-7.5s-3.3-7.6-7.5-7.6l0,0
	C35.9,136.4,32.5,139.7,32.5,143.9L32.5,143.9L32.5,143.9z M40.4,134.9L33.5,103H21.8v1.5h0.7c3,0,5.9,0,8.9,0
	c0.7,0,0.9,0.2,1.1,0.8c1.9,8.6,3.7,17.2,5.6,25.8c0.3,1.2,0.5,2.5,0.8,3.7L40.4,134.9z M53.8,123.1l-2.1-9.6l-4.5,1l2.1,9.7
	c0.5-0.7,0.9-1.4,1.3-2c0.4-0.6,0.7-0.7,1.4-0.3C52.6,122.3,53.1,122.6,53.8,123.1L53.8,123.1z M53.2,113.1l1,4.7l7.8-1.7l-1-4.7
	L53.2,113.1z M39,121.1l7.8-1.7l-1-4.7l-7.8,1.7L39,121.1z M48.7,141.3l21.5-4.6l-0.3-1.5l-21.7,4.7L48.7,141.3z"/>
<path id="Trazado_185949-2" class="st2" d="M51.9,134.9c0,0.4-0.3,0.7-0.6,0.7c-1.2,0.3-2.5,0.5-3.7,0.8c-0.4,0.1-0.8-0.1-0.9-0.5
	c-0.1-0.4,0.1-0.8,0.5-0.9h0.1c1.2-0.3,2.5-0.6,3.7-0.8c0.4-0.1,0.8,0.2,0.9,0.6C51.9,134.7,51.9,134.8,51.9,134.9z"/>
<path id="Trazado_185950-2" class="st2" d="M55.9,134.1c-0.1,0.1-0.3,0.4-0.6,0.5c-0.5,0.2-1,0.3-1.5,0.3c-0.4,0.1-0.8-0.2-0.8-0.6
	c0-0.3,0.2-0.7,0.5-0.8c0.5-0.2,1-0.3,1.6-0.3C55.6,133.1,55.9,133.5,55.9,134.1z"/>
<path id="Trazado_185951-2" class="st2" d="M44.8,144c0,2.6-2.2,4.7-4.9,4.7c-2.6,0-4.7-2.1-4.7-4.7s2.1-4.8,4.7-4.8
	c2.6,0,4.8,2.1,4.8,4.7C44.8,143.9,44.8,143.9,44.8,144z M43.3,143.9c0-1.8-1.4-3.3-3.2-3.3l0,0c-1.8,0-3.3,1.5-3.3,3.3
	s1.5,3.3,3.3,3.3C41.8,147.2,43.2,145.8,43.3,143.9C43.3,144,43.3,144,43.3,143.9L43.3,143.9z"/>
<path id="Trazado_185948-3" class="st2" d="M67.4,214.1c0.9-0.2,1.7-0.4,2.5-0.5c0.8-0.2,1.1,0,1.3,0.8s0.4,1.7,0.5,2.5
	c0.2,0.7,0,1-0.8,1.2c-2.9,0.6-5.8,1.2-8.7,1.9c-4.3,0.9-8.6,1.9-13,2.8c-0.1,0-0.2,0.1-0.3,0.1c0.6,5-2.9,9.5-7.9,10.1
	s-9.5-2.9-10.1-7.9c-0.6-4.4,2.1-8.5,6.3-9.8c-0.4-1.7-0.7-3.4-1.1-5.1c-1.7-7.8-3.4-15.6-5-23.4c-0.1-0.5-0.3-0.7-0.8-0.7
	c-3,0-6,0-9,0c-0.9,0-1.1-0.2-1.1-1.1c0-0.8,0-1.7,0-2.5c0-0.7,0.3-1,1-1c4.2,0,8.5,0,12.7,0c0.6,0,0.8,0.2,1,0.9
	c0.8,3.9,1.7,7.8,2.5,11.7c0.1,0.2,0.1,0.5,0.2,0.8c0.5-0.1,1-0.2,1.5-0.3c7.3-1.6,14.5-3.1,21.8-4.7c1-0.2,1.2-0.1,1.5,1
	c1.6,7.6,3.3,15.2,4.9,22.8C67.3,213.7,67.4,213.9,67.4,214.1z M39.4,202.6c0,0.1,0,0.1,0,0.2c0.9,4,1.7,8,2.6,12
	c0.1,0.3,0.3,0.4,0.5,0.5c1.7,0.5,3.2,1.4,4.4,2.8c0.2,0.3,0.6,0.5,1,0.3c4.3-0.9,8.6-1.9,12.8-2.8c1.7-0.4,3.4-0.7,5.2-1.1
	l-3.6-16.8l-7.8,1.7c0.1,0.3,0.1,0.5,0.1,0.6c0.3,1.5,0.7,3,0.9,4.5c0,0.3-0.1,0.6-0.3,0.9c-0.2,0.1-0.6,0-0.9,0
	c-0.2-0.1-0.5-0.3-0.7-0.4l-2.1-1.4c-0.6,0.9-1.1,1.7-1.7,2.5c-0.3,0.4-0.5,1-1.1,0.8c-0.6-0.1-0.6-0.7-0.7-1.2
	c-0.3-1.5-0.7-3.1-1-4.7L39.4,202.6z M32.5,223.9c0,4.2,3.3,7.6,7.5,7.6s7.6-3.3,7.6-7.5s-3.3-7.6-7.5-7.6l0,0
	C35.9,216.4,32.5,219.7,32.5,223.9L32.5,223.9L32.5,223.9z M40.4,214.9L33.5,183H21.8v1.5h0.7c3,0,5.9,0,8.9,0
	c0.7,0,0.9,0.2,1.1,0.8c1.9,8.6,3.7,17.2,5.6,25.8c0.3,1.2,0.5,2.5,0.8,3.7L40.4,214.9z M53.8,203.1l-2.1-9.6l-4.5,1l2.1,9.7
	c0.5-0.7,0.9-1.4,1.3-2c0.4-0.6,0.7-0.7,1.4-0.3C52.6,202.3,53.1,202.6,53.8,203.1L53.8,203.1z M53.2,193.1l1,4.7l7.8-1.7l-1-4.7
	L53.2,193.1z M39,201.1l7.8-1.7l-1-4.7l-7.8,1.7L39,201.1z M48.7,221.3l21.5-4.6l-0.3-1.5l-21.7,4.7L48.7,221.3z"/>
<path id="Trazado_185949-3" class="st2" d="M51.9,214.9c0,0.4-0.3,0.7-0.6,0.7c-1.2,0.3-2.5,0.5-3.7,0.8c-0.4,0.1-0.8-0.1-0.9-0.5
	c-0.1-0.4,0.1-0.8,0.5-0.9h0.1c1.2-0.3,2.5-0.6,3.7-0.8c0.4-0.1,0.8,0.2,0.9,0.6C51.9,214.7,51.9,214.8,51.9,214.9z"/>
<path id="Trazado_185950-3" class="st2" d="M55.9,214.1c-0.1,0.1-0.3,0.4-0.6,0.5c-0.5,0.2-1,0.3-1.5,0.3c-0.4,0.1-0.8-0.2-0.8-0.6
	c0-0.3,0.2-0.7,0.5-0.8c0.5-0.2,1-0.3,1.6-0.3C55.6,213.1,55.9,213.5,55.9,214.1z"/>
<path id="Trazado_185951-3" class="st2" d="M44.8,224c0,2.6-2.2,4.7-4.9,4.7c-2.6,0-4.7-2.1-4.7-4.7s2.1-4.8,4.7-4.8
	c2.6,0,4.8,2.1,4.8,4.7C44.8,223.9,44.8,223.9,44.8,224z M43.3,223.9c0-1.8-1.4-3.3-3.2-3.3l0,0c-1.8,0-3.3,1.5-3.3,3.3
	s1.5,3.3,3.3,3.3C41.8,227.2,43.2,225.8,43.3,223.9C43.3,224,43.3,224,43.3,223.9L43.3,223.9z"/>
<path id="Trazado_185948-4" class="st2" d="M67.4,294.1c0.9-0.2,1.7-0.4,2.5-0.5c0.8-0.2,1.1,0,1.3,0.8s0.4,1.7,0.5,2.5
	c0.2,0.7,0,1-0.8,1.2c-2.9,0.6-5.8,1.2-8.7,1.9c-4.3,0.9-8.6,1.9-13,2.8c-0.1,0-0.2,0.1-0.3,0.1c0.6,5-2.9,9.5-7.9,10.1
	s-9.5-2.9-10.1-7.9c-0.6-4.4,2.1-8.5,6.3-9.8c-0.4-1.7-0.7-3.4-1.1-5.1c-1.7-7.8-3.4-15.6-5-23.4c-0.1-0.5-0.3-0.7-0.8-0.7
	c-3,0-6,0-9,0c-0.9,0-1.1-0.2-1.1-1.1c0-0.8,0-1.7,0-2.5c0-0.7,0.3-1,1-1c4.2,0,8.5,0,12.7,0c0.6,0,0.8,0.2,1,0.9
	c0.8,3.9,1.7,7.8,2.5,11.7c0.1,0.2,0.1,0.5,0.2,0.8c0.5-0.1,1-0.2,1.5-0.3c7.3-1.6,14.5-3.1,21.8-4.7c1-0.2,1.2-0.1,1.5,1
	c1.6,7.6,3.3,15.2,4.9,22.8C67.3,293.7,67.4,293.9,67.4,294.1z M39.4,282.6c0,0.1,0,0.1,0,0.2c0.9,4,1.7,8,2.6,12
	c0.1,0.3,0.3,0.4,0.5,0.5c1.7,0.5,3.2,1.4,4.4,2.8c0.2,0.3,0.6,0.5,1,0.3c4.3-0.9,8.6-1.9,12.8-2.8c1.7-0.4,3.4-0.7,5.2-1.1
	l-3.6-16.8l-7.8,1.7c0.1,0.3,0.1,0.5,0.1,0.6c0.3,1.5,0.7,3,0.9,4.5c0,0.3-0.1,0.6-0.3,0.9c-0.2,0.1-0.6,0-0.9,0
	c-0.2-0.1-0.5-0.3-0.7-0.4l-2.1-1.4c-0.6,0.9-1.1,1.7-1.7,2.5c-0.3,0.4-0.5,1-1.1,0.8c-0.6-0.1-0.6-0.7-0.7-1.2
	c-0.3-1.5-0.7-3.1-1-4.7L39.4,282.6z M32.5,303.9c0,4.2,3.3,7.6,7.5,7.6s7.6-3.3,7.6-7.5s-3.3-7.6-7.5-7.6l0,0
	C35.9,296.4,32.5,299.7,32.5,303.9L32.5,303.9L32.5,303.9z M40.4,294.9L33.5,263H21.8v1.5h0.7c3,0,5.9,0,8.9,0
	c0.7,0,0.9,0.2,1.1,0.8c1.9,8.6,3.7,17.2,5.6,25.8c0.3,1.2,0.5,2.5,0.8,3.7L40.4,294.9z M53.8,283.1l-2.1-9.6l-4.5,1l2.1,9.7
	c0.5-0.7,0.9-1.4,1.3-2c0.4-0.6,0.7-0.7,1.4-0.3C52.6,282.3,53.1,282.6,53.8,283.1L53.8,283.1z M53.2,273.1l1,4.7l7.8-1.7l-1-4.7
	L53.2,273.1z M39,281.1l7.8-1.7l-1-4.7l-7.8,1.7L39,281.1z M48.7,301.3l21.5-4.6l-0.3-1.5l-21.7,4.7L48.7,301.3z"/>
<path id="Trazado_185949-4" class="st2" d="M51.9,294.9c0,0.4-0.3,0.7-0.6,0.7c-1.2,0.3-2.5,0.5-3.7,0.8c-0.4,0.1-0.8-0.1-0.9-0.5
	c-0.1-0.4,0.1-0.8,0.5-0.9h0.1c1.2-0.3,2.5-0.6,3.7-0.8c0.4-0.1,0.8,0.2,0.9,0.6C51.9,294.7,51.9,294.8,51.9,294.9z"/>
<path id="Trazado_185950-4" class="st2" d="M55.9,294.1c-0.1,0.1-0.3,0.4-0.6,0.5c-0.5,0.2-1,0.3-1.5,0.3c-0.4,0.1-0.8-0.2-0.8-0.6
	c0-0.3,0.2-0.7,0.5-0.8c0.5-0.2,1-0.3,1.6-0.3C55.6,293.1,55.9,293.5,55.9,294.1z"/>
<path id="Trazado_185951-4" class="st2" d="M44.8,304c0,2.6-2.2,4.7-4.9,4.7c-2.6,0-4.7-2.1-4.7-4.7s2.1-4.8,4.7-4.8
	c2.6,0,4.8,2.1,4.8,4.7C44.8,303.9,44.8,303.9,44.8,304z M43.3,303.9c0-1.8-1.4-3.3-3.2-3.3l0,0c-1.8,0-3.3,1.5-3.3,3.3
	s1.5,3.3,3.3,3.3C41.8,307.2,43.2,305.8,43.3,303.9C43.3,304,43.3,304,43.3,303.9L43.3,303.9z"/>
<path id="Trazado_185948-5" class="st2" d="M67.4,380.1c0.9-0.2,1.7-0.4,2.5-0.5c0.8-0.2,1.1,0,1.3,0.8s0.4,1.7,0.5,2.5
	c0.2,0.7,0,1-0.8,1.2c-2.9,0.6-5.8,1.2-8.7,1.9c-4.3,0.9-8.6,1.9-13,2.8c-0.1,0-0.2,0.1-0.3,0.1c0.6,5-2.9,9.5-7.9,10.1
	s-9.5-2.9-10.1-7.9c-0.6-4.4,2.1-8.5,6.3-9.8c-0.4-1.7-0.7-3.4-1.1-5.1c-1.7-7.8-3.4-15.6-5-23.4c-0.1-0.5-0.3-0.7-0.8-0.7
	c-3,0-6,0-9,0c-0.9,0-1.1-0.2-1.1-1.1c0-0.8,0-1.7,0-2.5c0-0.7,0.3-1,1-1c4.2,0,8.5,0,12.7,0c0.6,0,0.8,0.2,1,0.9
	c0.8,3.9,1.7,7.8,2.5,11.7c0.1,0.2,0.1,0.5,0.2,0.8c0.5-0.1,1-0.2,1.5-0.3c7.3-1.6,14.5-3.1,21.8-4.7c1-0.2,1.2-0.1,1.5,1
	c1.6,7.6,3.3,15.2,4.9,22.8C67.3,379.7,67.4,379.9,67.4,380.1z M39.4,368.6c0,0.1,0,0.1,0,0.2c0.9,4,1.7,8,2.6,12
	c0.1,0.3,0.3,0.4,0.5,0.5c1.7,0.5,3.2,1.4,4.4,2.8c0.2,0.3,0.6,0.5,1,0.3c4.3-0.9,8.6-1.9,12.8-2.8c1.7-0.4,3.4-0.7,5.2-1.1
	l-3.6-16.8l-7.8,1.7c0.1,0.3,0.1,0.5,0.1,0.6c0.3,1.5,0.7,3,0.9,4.5c0,0.3-0.1,0.6-0.3,0.9c-0.2,0.1-0.6,0-0.9,0
	c-0.2-0.1-0.5-0.3-0.7-0.4l-2.1-1.4c-0.6,0.9-1.1,1.7-1.7,2.5c-0.3,0.4-0.5,1-1.1,0.8c-0.6-0.1-0.6-0.7-0.7-1.2
	c-0.3-1.5-0.7-3.1-1-4.7L39.4,368.6z M32.5,389.9c0,4.2,3.3,7.6,7.5,7.6s7.6-3.3,7.6-7.5s-3.3-7.6-7.5-7.6l0,0
	C35.9,382.4,32.5,385.7,32.5,389.9L32.5,389.9L32.5,389.9z M40.4,380.9L33.5,349H21.8v1.5h0.7c3,0,5.9,0,8.9,0
	c0.7,0,0.9,0.2,1.1,0.8c1.9,8.6,3.7,17.2,5.6,25.8c0.3,1.2,0.5,2.5,0.8,3.7L40.4,380.9z M53.8,369.1l-2.1-9.6l-4.5,1l2.1,9.7
	c0.5-0.7,0.9-1.4,1.3-2c0.4-0.6,0.7-0.7,1.4-0.3C52.6,368.3,53.1,368.6,53.8,369.1L53.8,369.1z M53.2,359.1l1,4.7l7.8-1.7l-1-4.7
	L53.2,359.1z M39,367.1l7.8-1.7l-1-4.7l-7.8,1.7L39,367.1z M48.7,387.3l21.5-4.6l-0.3-1.5l-21.7,4.7L48.7,387.3z"/>
<path id="Trazado_185949-5" class="st2" d="M51.9,380.9c0,0.4-0.3,0.7-0.6,0.7c-1.2,0.3-2.5,0.5-3.7,0.8c-0.4,0.1-0.8-0.1-0.9-0.5
	c-0.1-0.4,0.1-0.8,0.5-0.9h0.1c1.2-0.3,2.5-0.6,3.7-0.8c0.4-0.1,0.8,0.2,0.9,0.6C51.9,380.7,51.9,380.8,51.9,380.9z"/>
<path id="Trazado_185950-5" class="st2" d="M55.9,380.1c-0.1,0.1-0.3,0.4-0.6,0.5c-0.5,0.2-1,0.3-1.5,0.3c-0.4,0.1-0.8-0.2-0.8-0.6
	c0-0.3,0.2-0.7,0.5-0.8c0.5-0.2,1-0.3,1.6-0.3C55.6,379.1,55.9,379.5,55.9,380.1z"/>
<path id="Trazado_185951-5" class="st2" d="M44.8,390c0,2.6-2.2,4.7-4.9,4.7c-2.6,0-4.7-2.1-4.7-4.7s2.1-4.8,4.7-4.8
	c2.6,0,4.8,2.1,4.8,4.7C44.8,389.9,44.8,389.9,44.8,390z M43.3,389.9c0-1.8-1.4-3.3-3.2-3.3l0,0c-1.8,0-3.3,1.5-3.3,3.3
	s1.5,3.3,3.3,3.3C41.8,393.2,43.2,391.8,43.3,389.9C43.3,390,43.3,390,43.3,389.9L43.3,389.9z"/>
<linearGradient id="SVGID_1_" gradientUnits="userSpaceOnUse" x1="65.2977" y1="20.234" x2="29.1164" y2="327.9326">
	<stop  offset="0" style="stop-color:#7E57C2"/>
	<stop  offset="1" style="stop-color:#451991"/>
</linearGradient>
<path class="st3" d="M44,323.4c-8.7,0-17.1-3-23.8-8.5c-16-13.1-18.3-36.7-5.1-52.7c13.1-16,36.7-18.3,52.7-5.1
	c16,13.1,18.3,36.7,5.1,52.7l-3.5-5.1l-8.2,16.9l18.8-1.4l-3.8-5.6c6.7-7.5,10.5-17.1,10.9-27.2c0.9-23.8-17.8-43.8-41.6-44.7h-0.2
	h-0.1c-0.1,0-0.1,0-0.2,0h-0.1h-0.2h-0.1h-0.2h-0.1h-0.1h-0.3c-8.7,0-17.1-3.1-23.8-8.6C4.1,221,1.9,197.4,15,181.4
	s36.7-18.3,52.7-5.1c16,13.1,18.3,36.7,5.1,52.7l-3.5-5.1l-8.2,16.9l18.8-1.4l-3.8-5.6c6.7-7.5,10.5-17.1,10.9-27.2
	c0.9-23.8-17.8-43.8-41.6-44.7h-0.2h-0.1h-0.2h-0.1c-0.1,0-0.1,0-0.2,0h-0.1c-0.1,0-0.1,0-0.2,0h-0.1h-0.1h-0.3
	c-8.7,0-17.1-3-23.8-8.5c-16-13.1-18.2-36.7-5.1-52.7s36.7-18.3,52.7-5.1c16,13.1,18.3,36.7,5.1,52.7l-3.5-5.1L61,160.1l18.8-1.4
	l-3.8-5.6c6.7-7.5,10.5-17.1,10.9-27.2c0.9-23.8-17.8-43.9-41.6-44.7h-0.2H45h-0.2h-0.1h-0.2h-0.1c-0.1,0-0.1,0-0.2,0h-0.1H44h-0.3
	c-8.7,0-17.1-3.1-23.8-8.6c-16-13.1-18.2-36.7-5.1-52.7s36.7-18.2,52.7-5.1s18.3,36.7,5.1,52.7l-3.5-5.1l-8.2,16.9L79.7,78l-3.8-5.6
	c7-7.9,10.9-18.1,10.9-28.7c0-23.9-19.3-43.2-43.2-43.2C22,0.5,3.8,16.2,0.4,36.9c0,0.1,0,0.2-0.1,0.4c-0.1,0.5-0.1,1-0.2,1.5
	c0,0.2-0.1,0.5-0.1,0.7c0,0.4-0.1,0.8-0.1,1.3c0,0.3,0,0.6-0.1,0.9c0,0.5,0,1.1,0,1.6c0,0.2,0,0.4,0,0.5c0,18.2,11.1,33.7,26.9,40.3
	C11,90.6-0.1,106.2-0.1,124.4c0,18.4,11.4,34.1,27.4,40.5C11.3,171.3-0.1,187-0.1,205.4c0,18.1,11,33.6,26.7,40.2
	c-15.4,6.5-26.3,21.6-26.7,39.3c0.3,24.2,18.6,43.9,43.7,43.9h0.3c8.6,0,16.9,3,23.5,8.5c16,13.1,18.3,36.7,5.1,52.7
	c-13.1,16-36.7,18.2-52.7,5.1s-18.3-36.7-5.1-52.7l3.5,5.1l8.2-16.9l-18.8,1.3l3.8,5.6c-7,7.9-10.9,18.1-10.9,28.7
	c0,23.9,19.3,43.2,43.5,43.6c23.9,0,43.2-19.3,43.2-43.2S67.9,323.4,44,323.4z"/>
</svg>
