<?xml version="1.0" encoding="utf-8"?>
<!-- Generator: Adobe Illustrator 25.2.3, SVG Export Plug-In . SVG Version: 6.00 Build 0)  -->
<svg version="1.1" id="Capa_1" xmlns="http://www.w3.org/2000/svg" xmlns:xlink="http://www.w3.org/1999/xlink" x="0px" y="0px"
	 viewBox="0 0 715 241" style="enable-background:new 0 0 715 241;" xml:space="preserve">
<style type="text/css">
	.st0{fill:none;stroke:#451991;}
	.st1{fill:#DC9CE8;}
	.st2{enable-background:new    ;}
	.st3{fill:#12263F;}
	.st4{fill:url(#Rectángulo_34588_1_);}
	.st5{fill:#36A3F7;}
	.st6{fill:url(#Rectángulo_34589_1_);}
	.st7{fill:url(#Rectángulo_34590_1_);}
	.st8{fill:url(#Rectángulo_34591_1_);}
	.st9{fill:#FFFFFF;}
	.st10{fill:url(#Rectángulo_34589-2_1_);}
	.st11{fill:url(#Rectángulo_34590-2_1_);}
	.st12{fill:url(#Rectángulo_34591-2_1_);}
	.st13{fill:url(#Rectángulo_34588-2_1_);}
</style>
<g id="Grupo_120743" transform="translate(-495 -2427)">
	<g id="Grupo_120742">
		<line id="Línea_353" class="st0" x1="799.3" y1="2461.1" x2="912.9" y2="2632.1"/>
		<line id="Línea_354" class="st0" x1="912.9" y1="2461.1" x2="799.3" y2="2632.1"/>
		<line id="Línea_355" class="st0" x1="753.5" y1="2585.8" x2="948" y2="2517.8"/>
		<line id="Línea_356" class="st0" x1="762.2" y1="2511.3" x2="958.3" y2="2585.4"/>
		<ellipse id="Elipse_5061" class="st1" cx="855.5" cy="2553" rx="56.5" ry="57"/>
		<g class="st2">
			<path class="st3" d="M836.8,2543.5h-3.5v9.5h-2.3v-9.5h-3.4v-1.9h9.3V2543.5z"/>
			<path class="st3" d="M837.9,2542.4c0-0.3,0.1-0.6,0.3-0.8s0.5-0.3,0.9-0.3c0.4,0,0.7,0.1,0.9,0.3c0.2,0.2,0.3,0.5,0.3,0.8
				c0,0.3-0.1,0.6-0.3,0.8c-0.2,0.2-0.5,0.3-0.9,0.3c-0.4,0-0.7-0.1-0.9-0.3C838.1,2543,837.9,2542.7,837.9,2542.4z M840.3,2553
				h-2.3v-8.5h2.3V2553z"/>
			<path class="st3" d="M849.8,2548.9c0,1.3-0.3,2.3-0.9,3.1c-0.6,0.8-1.4,1.2-2.4,1.2c-0.9,0-1.5-0.3-2.1-0.9v4h-2.3v-11.7h2.1
				l0.1,0.8c0.5-0.7,1.3-1,2.1-1c1,0,1.9,0.4,2.4,1.2s0.9,1.8,0.9,3.2V2548.9z M847.5,2548.7c0-0.8-0.1-1.4-0.4-1.8
				c-0.3-0.4-0.7-0.6-1.2-0.6c-0.7,0-1.2,0.3-1.5,0.8v3.5c0.3,0.6,0.8,0.8,1.5,0.8C847,2551.3,847.5,2550.5,847.5,2548.7z"/>
			<path class="st3" d="M850.9,2548.7c0-0.8,0.2-1.6,0.5-2.2c0.3-0.7,0.8-1.2,1.4-1.5c0.6-0.4,1.3-0.5,2.1-0.5c1.1,0,2.1,0.3,2.8,1
				s1.1,1.6,1.2,2.8l0,0.6c0,1.3-0.4,2.3-1.1,3.1s-1.7,1.2-2.9,1.2s-2.2-0.4-2.9-1.2s-1.1-1.8-1.1-3.2V2548.7z M853.1,2548.9
				c0,0.8,0.2,1.4,0.5,1.8s0.7,0.6,1.3,0.6c0.5,0,1-0.2,1.3-0.6s0.5-1.1,0.5-2c0-0.8-0.2-1.4-0.5-1.8s-0.7-0.6-1.3-0.6
				c-0.6,0-1,0.2-1.3,0.6S853.1,2548,853.1,2548.9z"/>
			<path class="st3" d="M864.8,2550.7c0-0.3-0.1-0.5-0.4-0.7s-0.7-0.3-1.3-0.4c-2-0.4-3-1.3-3-2.6c0-0.8,0.3-1.4,0.9-1.9
				s1.4-0.8,2.4-0.8c1.1,0,1.9,0.3,2.6,0.8s1,1.2,1,2h-2.3c0-0.3-0.1-0.6-0.3-0.8s-0.5-0.3-1-0.3c-0.4,0-0.7,0.1-0.9,0.3
				s-0.3,0.4-0.3,0.7c0,0.2,0.1,0.5,0.4,0.6s0.6,0.3,1.2,0.4s1,0.2,1.4,0.4c1.2,0.4,1.8,1.2,1.8,2.3c0,0.8-0.3,1.4-1,1.9
				s-1.5,0.7-2.6,0.7c-0.7,0-1.3-0.1-1.9-0.4s-1-0.6-1.3-1s-0.5-0.9-0.5-1.4h2.1c0,0.4,0.2,0.7,0.4,0.9s0.6,0.3,1.1,0.3
				c0.4,0,0.8-0.1,1-0.2S864.8,2550.9,864.8,2550.7z"/>
			<path class="st3" d="M872.1,2548.7c0-1.3,0.3-2.4,0.9-3.1s1.4-1.2,2.4-1.2c0.8,0,1.5,0.3,2,0.9v-4.3h2.3v12h-2l-0.1-0.9
				c-0.6,0.7-1.3,1.1-2.2,1.1c-1,0-1.8-0.4-2.4-1.2S872.1,2550.1,872.1,2548.7z M874.4,2548.9c0,0.8,0.1,1.4,0.4,1.8
				s0.7,0.6,1.2,0.6c0.7,0,1.2-0.3,1.5-0.9v-3.3c-0.3-0.6-0.8-0.9-1.5-0.9C874.9,2546.2,874.4,2547.1,874.4,2548.9z"/>
			<path class="st3" d="M885.4,2553.2c-1.2,0-2.2-0.4-3-1.1s-1.2-1.8-1.2-3v-0.2c0-0.8,0.2-1.6,0.5-2.3s0.8-1.2,1.4-1.5
				s1.3-0.5,2.1-0.5c1.2,0,2.1,0.4,2.7,1.1s1,1.8,1,3.1v0.9h-5.4c0.1,0.6,0.3,1,0.7,1.3s0.8,0.5,1.4,0.5c0.9,0,1.5-0.3,2-0.9
				l1.1,1.2c-0.3,0.5-0.8,0.9-1.4,1.1S886.1,2553.2,885.4,2553.2z M885.1,2546.2c-0.4,0-0.8,0.2-1.1,0.5s-0.5,0.7-0.5,1.3h3.1v-0.2
				c0-0.5-0.1-0.9-0.4-1.2S885.6,2546.2,885.1,2546.2z"/>
		</g>
		<g class="st2">
			<path class="st3" d="M842.4,2567.3c0.4,0,0.8-0.1,1-0.3c0.3-0.2,0.4-0.5,0.4-0.9h2.1c0,0.6-0.2,1.1-0.5,1.6
				c-0.3,0.5-0.7,0.8-1.3,1.1c-0.5,0.3-1.1,0.4-1.8,0.4c-1.2,0-2.2-0.4-2.9-1.2c-0.7-0.8-1-1.8-1-3.2v-0.1c0-1.3,0.3-2.3,1-3.1
				c0.7-0.8,1.6-1.2,2.9-1.2c1.1,0,1.9,0.3,2.5,0.9c0.6,0.6,1,1.4,1,2.4h-2.1c0-0.4-0.1-0.8-0.4-1.1c-0.3-0.3-0.6-0.4-1-0.4
				c-0.5,0-0.9,0.2-1.2,0.6c-0.3,0.4-0.4,1-0.4,1.9v0.2c0,0.9,0.1,1.5,0.4,1.9S841.8,2567.3,842.4,2567.3z"/>
			<path class="st3" d="M852.1,2569c-0.1-0.2-0.2-0.5-0.2-0.8c-0.5,0.6-1.3,0.9-2.1,0.9c-0.8,0-1.5-0.2-2.1-0.7
				c-0.5-0.5-0.8-1.1-0.8-1.8c0-0.9,0.3-1.6,1-2.1s1.6-0.7,2.9-0.7h1v-0.5c0-0.4-0.1-0.7-0.3-0.9c-0.2-0.2-0.5-0.4-0.9-0.4
				c-0.4,0-0.7,0.1-0.9,0.3c-0.2,0.2-0.3,0.4-0.3,0.8h-2.3c0-0.5,0.2-0.9,0.5-1.4c0.3-0.4,0.7-0.7,1.3-1c0.6-0.2,1.2-0.4,1.9-0.4
				c1,0,1.9,0.3,2.5,0.8c0.6,0.5,0.9,1.3,0.9,2.2v3.7c0,0.8,0.1,1.4,0.3,1.8v0.1H852.1z M850.2,2567.4c0.3,0,0.6-0.1,0.9-0.2
				s0.5-0.3,0.6-0.6v-1.5h-0.8c-1.1,0-1.7,0.4-1.8,1.2l0,0.1c0,0.3,0.1,0.5,0.3,0.7C849.6,2567.3,849.9,2567.4,850.2,2567.4z"/>
			<path class="st3" d="M860.5,2562.7c-0.3,0-0.6-0.1-0.8-0.1c-0.9,0-1.4,0.3-1.7,0.9v5.5h-2.3v-8.5h2.1l0.1,1
				c0.5-0.8,1.1-1.2,1.9-1.2c0.2,0,0.5,0,0.7,0.1L860.5,2562.7z"/>
			<path class="st3" d="M861.3,2564.7c0-1.3,0.3-2.3,0.9-3.1s1.4-1.2,2.5-1.2c0.9,0,1.6,0.3,2.2,1l0.1-0.8h2v8.2
				c0,0.7-0.2,1.4-0.5,1.9s-0.8,1-1.4,1.2s-1.3,0.4-2.1,0.4c-0.6,0-1.2-0.1-1.8-0.4s-1-0.6-1.3-1l1-1.4c0.6,0.6,1.2,0.9,2,0.9
				c0.6,0,1.1-0.2,1.4-0.5s0.5-0.8,0.5-1.4v-0.5c-0.5,0.6-1.2,0.9-2.1,0.9c-1,0-1.8-0.4-2.5-1.2S861.3,2566.1,861.3,2564.7
				L861.3,2564.7z M863.5,2564.9c0,0.8,0.2,1.4,0.5,1.8s0.7,0.7,1.3,0.7c0.7,0,1.2-0.3,1.5-0.8v-3.6c-0.3-0.5-0.8-0.8-1.5-0.8
				c-0.5,0-1,0.2-1.3,0.7S863.5,2564,863.5,2564.9z"/>
			<path class="st3" d="M875.6,2569c-0.1-0.2-0.2-0.5-0.2-0.8c-0.5,0.6-1.3,0.9-2.1,0.9c-0.8,0-1.5-0.2-2.1-0.7s-0.8-1.1-0.8-1.8
				c0-0.9,0.3-1.6,1-2.1s1.6-0.7,2.9-0.7h1v-0.5c0-0.4-0.1-0.7-0.3-0.9s-0.5-0.4-0.9-0.4c-0.4,0-0.7,0.1-0.9,0.3s-0.3,0.4-0.3,0.8
				h-2.3c0-0.5,0.2-0.9,0.5-1.4s0.7-0.7,1.3-1s1.2-0.4,1.9-0.4c1,0,1.9,0.3,2.5,0.8s0.9,1.3,0.9,2.2v3.7c0,0.8,0.1,1.4,0.3,1.8v0.1
				H875.6z M873.8,2567.4c0.3,0,0.6-0.1,0.9-0.2s0.5-0.3,0.6-0.6v-1.5h-0.8c-1.1,0-1.7,0.4-1.8,1.2l0,0.1c0,0.3,0.1,0.5,0.3,0.7
				S873.4,2567.4,873.8,2567.4z"/>
		</g>
		
			<linearGradient id="Rectángulo_34588_1_" gradientUnits="userSpaceOnUse" x1="-555.4969" y1="3934.2854" x2="-556.064" y2="3934.2893" gradientTransform="matrix(124 0 0 -42 69954 167755.125)">
			<stop  offset="0" style="stop-color:#7E57C2"/>
			<stop  offset="1" style="stop-color:#451991"/>
		</linearGradient>
		<path id="Rectángulo_34588" class="st4" d="M972,2494h88c9.9,0,18,8.1,18,18v6c0,9.9-8.1,18-18,18h-88c-9.9,0-18-8.1-18-18v-6
			C954,2502.1,962.1,2494,972,2494z"/>
		<circle id="Elipse_5057" class="st5" cx="964" cy="2515" r="26"/>
		
			<linearGradient id="Rectángulo_34589_1_" gradientUnits="userSpaceOnUse" x1="-559.7612" y1="3934.9119" x2="-560.1982" y2="3935.0039" gradientTransform="matrix(247 0 0 -43 139458 171785.7656)">
			<stop  offset="0" style="stop-color:#7E57C2"/>
			<stop  offset="1" style="stop-color:#451991"/>
		</linearGradient>
		<path id="Rectángulo_34589" class="st6" d="M981,2559h211c9.9,0,18,8.1,18,18v7c0,9.9-8.1,18-18,18H981c-9.9,0-18-8.1-18-18v-7
			C963,2567.1,971.1,2559,981,2559z"/>
		<circle id="Elipse_5058" class="st5" cx="972.5" cy="2580.5" r="25.5"/>
		
			<linearGradient id="Rectángulo_34590_1_" gradientUnits="userSpaceOnUse" x1="-557.474" y1="3934.2544" x2="-557.877" y2="3934.2854" gradientTransform="matrix(161 0 0 -42 90822 167883.125)">
			<stop  offset="0" style="stop-color:#7E57C2"/>
			<stop  offset="1" style="stop-color:#451991"/>
		</linearGradient>
		<path id="Rectángulo_34590" class="st7" d="M935,2622h125c9.9,0,18,8.1,18,18v6c0,9.9-8.1,18-18,18H935c-9.9,0-18-8.1-18-18v-6
			C917,2630.1,925.1,2622,935,2622z"/>
		<circle id="Elipse_5059" class="st5" cx="927.5" cy="2642.5" r="25.5"/>
		
			<linearGradient id="Rectángulo_34591_1_" gradientUnits="userSpaceOnUse" x1="-555.8453" y1="3934.2554" x2="-556.4923" y2="3934.3044" gradientTransform="matrix(129 0 0 -42 72742 167693.125)">
			<stop  offset="0" style="stop-color:#7E57C2"/>
			<stop  offset="1" style="stop-color:#451991"/>
		</linearGradient>
		<path id="Rectángulo_34591" class="st8" d="M935,2432h93c9.9,0,18,8.1,18,18v6c0,9.9-8.1,18-18,18h-93c-9.9,0-18-8.1-18-18v-6
			C917,2440.1,925.1,2432,935,2432z"/>
		<ellipse id="Elipse_5060" class="st5" cx="927.5" cy="2453" rx="25.5" ry="26"/>
		<g class="st2">
			<path class="st9" d="M964.8,2644v4.5h-1.5v-11.4h4.2c1.2,0,2.2,0.3,2.9,1c0.7,0.6,1.1,1.5,1.1,2.5c0,1.1-0.3,2-1,2.6
				c-0.7,0.6-1.7,0.9-3,0.9H964.8z M964.8,2642.8h2.7c0.8,0,1.4-0.2,1.8-0.6c0.4-0.4,0.6-0.9,0.6-1.6c0-0.7-0.2-1.2-0.6-1.6
				c-0.4-0.4-1-0.6-1.8-0.6h-2.8V2642.8z"/>
			<path class="st9" d="M976.6,2648.6c-1.1,0-2.1-0.4-2.8-1.1s-1.1-1.8-1.1-3v-0.3c0-0.8,0.2-1.6,0.5-2.2s0.8-1.2,1.3-1.5
				c0.6-0.4,1.2-0.6,1.9-0.6c1.1,0,2,0.4,2.6,1.1s0.9,1.8,0.9,3.1v0.6h-5.7c0,0.8,0.3,1.5,0.7,2c0.5,0.5,1.1,0.8,1.8,0.8
				c0.5,0,0.9-0.1,1.3-0.3c0.4-0.2,0.7-0.5,0.9-0.8l0.9,0.7C979.1,2648.1,978,2648.6,976.6,2648.6z M976.5,2641
				c-0.6,0-1.1,0.2-1.5,0.6c-0.4,0.4-0.6,1-0.7,1.8h4.2v-0.1c0-0.7-0.2-1.3-0.6-1.7C977.5,2641.2,977.1,2641,976.5,2641z"/>
			<path class="st9" d="M985.7,2641.3c-0.2,0-0.5-0.1-0.7-0.1c-0.9,0-1.6,0.4-1.9,1.2v6h-1.4v-8.5h1.4l0,1c0.5-0.8,1.1-1.1,2-1.1
				c0.3,0,0.5,0,0.6,0.1V2641.3z"/>
			<path class="st9" d="M990.5,2648.6c-1.1,0-2.1-0.4-2.8-1.1s-1.1-1.8-1.1-3v-0.3c0-0.8,0.2-1.6,0.5-2.2s0.8-1.2,1.3-1.5
				c0.6-0.4,1.2-0.6,1.9-0.6c1.1,0,2,0.4,2.6,1.1s0.9,1.8,0.9,3.1v0.6h-5.7c0,0.8,0.3,1.5,0.7,2c0.5,0.5,1.1,0.8,1.8,0.8
				c0.5,0,0.9-0.1,1.3-0.3c0.4-0.2,0.7-0.5,0.9-0.8l0.9,0.7C993,2648.1,991.9,2648.6,990.5,2648.6z M990.3,2641
				c-0.6,0-1.1,0.2-1.5,0.6c-0.4,0.4-0.6,1-0.7,1.8h4.2v-0.1c0-0.7-0.2-1.3-0.6-1.7C991.4,2641.2,990.9,2641,990.3,2641z"/>
			<path class="st9" d="M998.9,2647.4c0.5,0,1-0.2,1.4-0.5c0.4-0.3,0.6-0.7,0.6-1.2h1.4c0,0.5-0.2,0.9-0.5,1.4
				c-0.3,0.4-0.7,0.8-1.2,1c-0.5,0.3-1.1,0.4-1.6,0.4c-1.2,0-2.1-0.4-2.7-1.2s-1-1.8-1-3.2v-0.2c0-0.8,0.2-1.6,0.5-2.2
				c0.3-0.6,0.7-1.1,1.3-1.5c0.6-0.4,1.2-0.5,2-0.5c0.9,0,1.7,0.3,2.4,0.9c0.6,0.6,1,1.3,1,2.2h-1.4c0-0.5-0.2-1-0.6-1.3
				c-0.4-0.4-0.8-0.5-1.4-0.5c-0.7,0-1.3,0.3-1.7,0.8c-0.4,0.5-0.6,1.3-0.6,2.3v0.3c0,1,0.2,1.7,0.6,2.2
				C997.6,2647.2,998.1,2647.4,998.9,2647.4z"/>
			<path class="st9" d="M1007.4,2648.6c-1.1,0-2.1-0.4-2.8-1.1s-1.1-1.8-1.1-3v-0.3c0-0.8,0.2-1.6,0.5-2.2s0.8-1.2,1.3-1.5
				c0.6-0.4,1.2-0.6,1.9-0.6c1.1,0,2,0.4,2.6,1.1s0.9,1.8,0.9,3.1v0.6h-5.7c0,0.8,0.3,1.5,0.7,2c0.5,0.5,1.1,0.8,1.8,0.8
				c0.5,0,0.9-0.1,1.3-0.3c0.4-0.2,0.7-0.5,0.9-0.8l0.9,0.7C1009.9,2648.1,1008.8,2648.6,1007.4,2648.6z M1007.2,2641
				c-0.6,0-1.1,0.2-1.5,0.6c-0.4,0.4-0.6,1-0.7,1.8h4.2v-0.1c0-0.7-0.2-1.3-0.6-1.7C1008.3,2641.2,1007.8,2641,1007.2,2641z"/>
			<path class="st9" d="M1012,2644.2c0-1.3,0.3-2.3,0.9-3.1c0.6-0.8,1.4-1.2,2.4-1.2c1,0,1.8,0.3,2.4,1v-4.4h1.4v12h-1.3l-0.1-0.9
				c-0.6,0.7-1.4,1.1-2.4,1.1c-1,0-1.8-0.4-2.4-1.2s-0.9-1.8-0.9-3.1V2644.2z M1013.4,2644.3c0,1,0.2,1.7,0.6,2.2
				c0.4,0.5,0.9,0.8,1.6,0.8c0.9,0,1.6-0.4,2-1.2v-3.9c-0.4-0.8-1.1-1.2-2-1.2c-0.7,0-1.3,0.3-1.7,0.8
				C1013.6,2642.4,1013.4,2643.3,1013.4,2644.3z"/>
			<path class="st9" d="M1024.9,2648.6c-1.1,0-2.1-0.4-2.8-1.1s-1.1-1.8-1.1-3v-0.3c0-0.8,0.2-1.6,0.5-2.2s0.8-1.2,1.3-1.5
				c0.6-0.4,1.2-0.6,1.9-0.6c1.1,0,2,0.4,2.6,1.1s0.9,1.8,0.9,3.1v0.6h-5.7c0,0.8,0.3,1.5,0.7,2c0.5,0.5,1.1,0.8,1.8,0.8
				c0.5,0,0.9-0.1,1.3-0.3c0.4-0.2,0.7-0.5,0.9-0.8l0.9,0.7C1027.4,2648.1,1026.3,2648.6,1024.9,2648.6z M1024.7,2641
				c-0.6,0-1.1,0.2-1.5,0.6c-0.4,0.4-0.6,1-0.7,1.8h4.2v-0.1c0-0.7-0.2-1.3-0.6-1.7C1025.8,2641.2,1025.3,2641,1024.7,2641z"/>
			<path class="st9" d="M1033.9,2641.3c-0.2,0-0.5-0.1-0.7-0.1c-0.9,0-1.6,0.4-1.9,1.2v6h-1.4v-8.5h1.4l0,1c0.5-0.8,1.1-1.1,2-1.1
				c0.3,0,0.5,0,0.6,0.1V2641.3z"/>
			<path class="st9" d="M1040.2,2648.5c-0.1-0.2-0.2-0.5-0.2-0.9c-0.7,0.7-1.5,1-2.4,1c-0.8,0-1.5-0.2-2.1-0.7
				c-0.5-0.5-0.8-1.1-0.8-1.8c0-0.9,0.3-1.6,1-2.1c0.7-0.5,1.6-0.7,2.8-0.7h1.4v-0.7c0-0.5-0.2-0.9-0.5-1.2
				c-0.3-0.3-0.7-0.4-1.3-0.4c-0.5,0-0.9,0.1-1.3,0.4c-0.3,0.3-0.5,0.6-0.5,0.9h-1.5c0-0.4,0.1-0.8,0.4-1.2c0.3-0.4,0.7-0.7,1.2-0.9
				c0.5-0.2,1.1-0.3,1.7-0.3c1,0,1.7,0.2,2.3,0.7c0.6,0.5,0.8,1.2,0.9,2v3.9c0,0.8,0.1,1.4,0.3,1.9v0.1H1040.2z M1037.8,2647.4
				c0.5,0,0.9-0.1,1.3-0.4s0.7-0.5,0.9-0.9v-1.7h-1.1c-1.8,0-2.7,0.5-2.7,1.6c0,0.5,0.2,0.8,0.5,1.1
				C1036.9,2647.2,1037.3,2647.4,1037.8,2647.4z"/>
		</g>
		<g class="st2">
			<path class="st9" d="M1012.4,2574.9l3.7,9.3l3.7-9.3h1.9v11.4h-1.5v-4.4l0.1-4.8l-3.7,9.2h-1.1l-3.7-9.2l0.1,4.8v4.4h-1.5v-11.4
				H1012.4z"/>
			<path class="st9" d="M1027.7,2586.4c-1.1,0-2.1-0.4-2.8-1.1c-0.7-0.8-1.1-1.8-1.1-3v-0.3c0-0.8,0.2-1.6,0.5-2.2
				c0.3-0.7,0.8-1.2,1.3-1.5c0.6-0.4,1.2-0.6,1.9-0.6c1.1,0,2,0.4,2.6,1.1c0.6,0.7,0.9,1.8,0.9,3.1v0.6h-5.7c0,0.8,0.3,1.5,0.7,2
				c0.5,0.5,1.1,0.8,1.8,0.8c0.5,0,0.9-0.1,1.3-0.3c0.4-0.2,0.7-0.5,0.9-0.8l0.9,0.7C1030.2,2585.9,1029.2,2586.4,1027.7,2586.4z
				 M1027.6,2578.9c-0.6,0-1.1,0.2-1.5,0.6c-0.4,0.4-0.6,1-0.7,1.8h4.2v-0.1c0-0.7-0.2-1.3-0.6-1.7
				C1028.6,2579.1,1028.2,2578.9,1027.6,2578.9z"/>
			<path class="st9" d="M1036.8,2579.1c-0.2,0-0.5-0.1-0.7-0.1c-0.9,0-1.6,0.4-1.9,1.2v6h-1.4v-8.5h1.4l0,1c0.5-0.8,1.1-1.1,2-1.1
				c0.3,0,0.5,0,0.6,0.1V2579.1z"/>
			<path class="st9" d="M1041.4,2585.3c0.5,0,1-0.2,1.4-0.5c0.4-0.3,0.6-0.7,0.6-1.2h1.4c0,0.5-0.2,0.9-0.5,1.4
				c-0.3,0.4-0.7,0.8-1.2,1c-0.5,0.3-1.1,0.4-1.6,0.4c-1.2,0-2.1-0.4-2.7-1.2c-0.7-0.8-1-1.8-1-3.2v-0.2c0-0.8,0.2-1.6,0.5-2.2
				c0.3-0.6,0.7-1.1,1.3-1.5c0.6-0.4,1.2-0.5,2-0.5c0.9,0,1.7,0.3,2.4,0.9c0.6,0.6,1,1.3,1,2.2h-1.4c0-0.5-0.2-1-0.6-1.3
				c-0.4-0.4-0.8-0.5-1.4-0.5c-0.7,0-1.3,0.3-1.7,0.8c-0.4,0.5-0.6,1.3-0.6,2.3v0.3c0,1,0.2,1.7,0.6,2.2
				C1040,2585,1040.6,2585.3,1041.4,2585.3z"/>
			<path class="st9" d="M1051.6,2586.3c-0.1-0.2-0.2-0.5-0.2-0.9c-0.7,0.7-1.5,1-2.4,1c-0.8,0-1.5-0.2-2.1-0.7
				c-0.5-0.5-0.8-1.1-0.8-1.8c0-0.9,0.3-1.6,1-2.1c0.7-0.5,1.6-0.7,2.8-0.7h1.4v-0.7c0-0.5-0.2-0.9-0.5-1.2
				c-0.3-0.3-0.7-0.4-1.3-0.4c-0.5,0-0.9,0.1-1.3,0.4c-0.3,0.3-0.5,0.6-0.5,0.9h-1.5c0-0.4,0.1-0.8,0.4-1.2c0.3-0.4,0.7-0.7,1.2-0.9
				c0.5-0.2,1.1-0.3,1.7-0.3c1,0,1.7,0.2,2.3,0.7c0.6,0.5,0.8,1.2,0.9,2v3.9c0,0.8,0.1,1.4,0.3,1.9v0.1H1051.6z M1049.2,2585.2
				c0.5,0,0.9-0.1,1.3-0.4s0.7-0.5,0.9-0.9v-1.7h-1.1c-1.8,0-2.7,0.5-2.7,1.6c0,0.5,0.2,0.8,0.5,1.1
				C1048.3,2585.1,1048.7,2585.2,1049.2,2585.2z"/>
			<path class="st9" d="M1056.4,2577.8l0,1.1c0.6-0.8,1.5-1.2,2.5-1.2c1.8,0,2.7,1,2.7,3v5.6h-1.4v-5.6c0-0.6-0.1-1.1-0.4-1.4
				c-0.3-0.3-0.7-0.4-1.3-0.4c-0.5,0-0.9,0.1-1.2,0.4c-0.4,0.2-0.6,0.6-0.8,1v6h-1.4v-8.5H1056.4z"/>
			<path class="st9" d="M1067.3,2585.3c0.5,0,1-0.2,1.4-0.5c0.4-0.3,0.6-0.7,0.6-1.2h1.4c0,0.5-0.2,0.9-0.5,1.4
				c-0.3,0.4-0.7,0.8-1.2,1c-0.5,0.3-1.1,0.4-1.6,0.4c-1.2,0-2.1-0.4-2.7-1.2c-0.7-0.8-1-1.8-1-3.2v-0.2c0-0.8,0.2-1.6,0.5-2.2
				c0.3-0.6,0.7-1.1,1.3-1.5c0.6-0.4,1.2-0.5,2-0.5c0.9,0,1.7,0.3,2.4,0.9c0.6,0.6,1,1.3,1,2.2h-1.4c0-0.5-0.2-1-0.6-1.3
				c-0.4-0.4-0.8-0.5-1.4-0.5c-0.7,0-1.3,0.3-1.7,0.8c-0.4,0.5-0.6,1.3-0.6,2.3v0.3c0,1,0.2,1.7,0.6,2.2
				C1065.9,2585,1066.5,2585.3,1067.3,2585.3z"/>
			<path class="st9" d="M1073.8,2574.3h1.8l-2.1,2.3l-1.2,0L1073.8,2574.3z M1073.8,2586.3h-1.5v-8.5h1.5V2586.3z"/>
			<path class="st9" d="M1081.4,2586.3c-0.1-0.2-0.2-0.5-0.2-0.9c-0.7,0.7-1.5,1-2.4,1c-0.8,0-1.5-0.2-2.1-0.7
				c-0.5-0.5-0.8-1.1-0.8-1.8c0-0.9,0.3-1.6,1-2.1c0.7-0.5,1.6-0.7,2.8-0.7h1.4v-0.7c0-0.5-0.2-0.9-0.5-1.2
				c-0.3-0.3-0.7-0.4-1.3-0.4c-0.5,0-0.9,0.1-1.3,0.4c-0.3,0.3-0.5,0.6-0.5,0.9h-1.5c0-0.4,0.1-0.8,0.4-1.2c0.3-0.4,0.7-0.7,1.2-0.9
				c0.5-0.2,1.1-0.3,1.7-0.3c1,0,1.7,0.2,2.3,0.7c0.6,0.5,0.8,1.2,0.9,2v3.9c0,0.8,0.1,1.4,0.3,1.9v0.1H1081.4z M1079,2585.2
				c0.5,0,0.9-0.1,1.3-0.4s0.7-0.5,0.9-0.9v-1.7h-1.1c-1.8,0-2.7,0.5-2.7,1.6c0,0.5,0.2,0.8,0.5,1.1
				C1078.2,2585.1,1078.5,2585.2,1079,2585.2z"/>
			<path class="st9" d="M1096,2582.1c0,1.3-0.3,2.3-0.9,3.1c-0.6,0.8-1.4,1.2-2.4,1.2c-1,0-1.8-0.3-2.4-1v4.1h-1.4v-11.7h1.3
				l0.1,0.9c0.6-0.7,1.4-1.1,2.5-1.1c1,0,1.8,0.4,2.4,1.1c0.6,0.8,0.9,1.8,0.9,3.2V2582.1z M1094.6,2582c0-1-0.2-1.7-0.6-2.3
				c-0.4-0.6-1-0.8-1.7-0.8c-0.9,0-1.5,0.4-2,1.2v4c0.4,0.8,1.1,1.2,2,1.2c0.7,0,1.2-0.3,1.7-0.8
				C1094.4,2583.9,1094.6,2583.1,1094.6,2582z"/>
			<path class="st9" d="M1101.4,2586.4c-1.1,0-2.1-0.4-2.8-1.1c-0.7-0.8-1.1-1.8-1.1-3v-0.3c0-0.8,0.2-1.6,0.5-2.2
				c0.3-0.7,0.8-1.2,1.3-1.5c0.6-0.4,1.2-0.6,1.9-0.6c1.1,0,2,0.4,2.6,1.1c0.6,0.7,0.9,1.8,0.9,3.1v0.6h-5.7c0,0.8,0.3,1.5,0.7,2
				c0.5,0.5,1.1,0.8,1.8,0.8c0.5,0,0.9-0.1,1.3-0.3c0.4-0.2,0.7-0.5,0.9-0.8l0.9,0.7C1103.8,2585.9,1102.8,2586.4,1101.4,2586.4z
				 M1101.2,2578.9c-0.6,0-1.1,0.2-1.5,0.6c-0.4,0.4-0.6,1-0.7,1.8h4.2v-0.1c0-0.7-0.2-1.3-0.6-1.7
				C1102.3,2579.1,1101.8,2578.9,1101.2,2578.9z"/>
			<path class="st9" d="M1107.9,2586.3h-1.4v-12h1.4V2586.3z"/>
			<path class="st9" d="M1110.2,2575.6c0-0.2,0.1-0.4,0.2-0.6c0.1-0.2,0.4-0.2,0.6-0.2s0.5,0.1,0.6,0.2c0.1,0.2,0.2,0.4,0.2,0.6
				s-0.1,0.4-0.2,0.6c-0.1,0.2-0.4,0.2-0.6,0.2s-0.5-0.1-0.6-0.2C1110.3,2576,1110.2,2575.8,1110.2,2575.6z M1111.8,2586.3h-1.4
				v-8.5h1.4V2586.3z"/>
			<path class="st9" d="M1113.7,2582c0-1.3,0.3-2.4,0.9-3.1c0.6-0.8,1.4-1.2,2.4-1.2c1,0,1.8,0.4,2.4,1.1l0.1-0.9h1.3v8.2
				c0,1.1-0.3,2-1,2.6c-0.6,0.6-1.5,0.9-2.6,0.9c-0.6,0-1.2-0.1-1.8-0.4c-0.6-0.3-1-0.6-1.3-1.1l0.8-0.9c0.6,0.8,1.4,1.1,2.3,1.1
				c0.7,0,1.3-0.2,1.6-0.6c0.4-0.4,0.6-1,0.6-1.7v-0.7c-0.6,0.7-1.4,1-2.4,1c-1,0-1.8-0.4-2.4-1.2
				C1114,2584.4,1113.7,2583.4,1113.7,2582z M1115.2,2582.1c0,1,0.2,1.7,0.6,2.2c0.4,0.5,0.9,0.8,1.6,0.8c0.9,0,1.6-0.4,2-1.2v-3.9
				c-0.4-0.8-1.1-1.2-2-1.2c-0.7,0-1.3,0.3-1.6,0.8C1115.4,2580.3,1115.2,2581.1,1115.2,2582.1z"/>
			<path class="st9" d="M1127.1,2579.1c-0.2,0-0.5-0.1-0.7-0.1c-0.9,0-1.6,0.4-1.9,1.2v6h-1.4v-8.5h1.4l0,1c0.5-0.8,1.1-1.1,2-1.1
				c0.3,0,0.5,0,0.6,0.1V2579.1z"/>
			<path class="st9" d="M1127.9,2582c0-0.8,0.2-1.6,0.5-2.2c0.3-0.7,0.8-1.2,1.4-1.5c0.6-0.4,1.2-0.5,2-0.5c1.2,0,2.1,0.4,2.8,1.2
				s1.1,1.9,1.1,3.2v0.1c0,0.8-0.2,1.6-0.5,2.2c-0.3,0.7-0.8,1.2-1.4,1.5c-0.6,0.4-1.3,0.5-2,0.5c-1.1,0-2.1-0.4-2.8-1.2
				s-1.1-1.9-1.1-3.2V2582z M1129.4,2582.1c0,0.9,0.2,1.7,0.7,2.3c0.4,0.6,1,0.9,1.7,0.9c0.7,0,1.3-0.3,1.8-0.9
				c0.4-0.6,0.6-1.4,0.6-2.4c0-0.9-0.2-1.7-0.7-2.3c-0.4-0.6-1-0.9-1.8-0.9c-0.7,0-1.3,0.3-1.7,0.9
				C1129.6,2580.3,1129.4,2581.1,1129.4,2582.1z"/>
			<path class="st9" d="M1142.4,2584c0-0.4-0.1-0.7-0.4-0.9c-0.3-0.2-0.8-0.4-1.5-0.6c-0.7-0.2-1.3-0.3-1.7-0.6s-0.7-0.5-1-0.8
				c-0.2-0.3-0.3-0.7-0.3-1.1c0-0.7,0.3-1.3,0.9-1.8c0.6-0.5,1.3-0.7,2.2-0.7c1,0,1.7,0.2,2.3,0.7c0.6,0.5,0.9,1.1,0.9,1.9h-1.5
				c0-0.4-0.2-0.7-0.5-1c-0.3-0.3-0.8-0.4-1.3-0.4c-0.5,0-0.9,0.1-1.2,0.3c-0.3,0.2-0.4,0.5-0.4,0.9c0,0.3,0.1,0.6,0.4,0.8
				c0.3,0.2,0.8,0.3,1.5,0.5c0.7,0.2,1.3,0.4,1.8,0.6c0.4,0.2,0.8,0.5,1,0.8c0.2,0.3,0.3,0.7,0.3,1.2c0,0.8-0.3,1.4-0.9,1.8
				c-0.6,0.5-1.4,0.7-2.4,0.7c-0.7,0-1.3-0.1-1.8-0.4c-0.5-0.2-0.9-0.6-1.2-1c-0.3-0.4-0.4-0.9-0.4-1.4h1.4c0,0.5,0.2,0.9,0.6,1.2
				c0.4,0.3,0.8,0.4,1.4,0.4c0.5,0,1-0.1,1.3-0.3C1142.2,2584.7,1142.4,2584.4,1142.4,2584z"/>
			<path class="st9" d="M1150.9,2586.3c-0.1-0.2-0.2-0.5-0.2-0.9c-0.7,0.7-1.5,1-2.4,1c-0.8,0-1.5-0.2-2.1-0.7
				c-0.5-0.5-0.8-1.1-0.8-1.8c0-0.9,0.3-1.6,1-2.1c0.7-0.5,1.6-0.7,2.8-0.7h1.4v-0.7c0-0.5-0.2-0.9-0.5-1.2
				c-0.3-0.3-0.7-0.4-1.3-0.4c-0.5,0-0.9,0.1-1.3,0.4c-0.3,0.3-0.5,0.6-0.5,0.9h-1.5c0-0.4,0.1-0.8,0.4-1.2c0.3-0.4,0.7-0.7,1.2-0.9
				c0.5-0.2,1.1-0.3,1.7-0.3c1,0,1.7,0.2,2.3,0.7c0.6,0.5,0.8,1.2,0.9,2v3.9c0,0.8,0.1,1.4,0.3,1.9v0.1H1150.9z M1148.5,2585.2
				c0.5,0,0.9-0.1,1.3-0.4s0.7-0.5,0.9-0.9v-1.7h-1.1c-1.8,0-2.7,0.5-2.7,1.6c0,0.5,0.2,0.8,0.5,1.1
				C1147.7,2585.1,1148,2585.2,1148.5,2585.2z"/>
		</g>
		<g class="st2">
			<path class="st9" d="M1010.3,2519c-0.4,0.6-0.9,1-1.6,1.2c-0.7,0.3-1.5,0.4-2.4,0.4c-0.9,0-1.8-0.2-2.5-0.7s-1.3-1.1-1.7-1.9
				c-0.4-0.8-0.6-1.7-0.6-2.8v-1c0-1.7,0.4-3,1.2-4c0.8-0.9,1.9-1.4,3.4-1.4c1.2,0,2.1,0.3,2.9,0.9c0.7,0.6,1.2,1.5,1.3,2.6h-1.5
				c-0.3-1.5-1.2-2.3-2.7-2.3c-1,0-1.8,0.4-2.3,1.1c-0.5,0.7-0.8,1.7-0.8,3.1v0.9c0,1.3,0.3,2.3,0.9,3c0.6,0.8,1.4,1.1,2.4,1.1
				c0.6,0,1.1-0.1,1.5-0.2c0.4-0.1,0.8-0.3,1-0.6v-2.5h-2.6v-1.2h4.1V2519z"/>
			<path class="st9" d="M1016.7,2513.4c-0.2,0-0.5-0.1-0.7-0.1c-0.9,0-1.6,0.4-1.9,1.2v6h-1.4v-8.5h1.4l0,1c0.5-0.8,1.1-1.1,2-1.1
				c0.3,0,0.5,0,0.6,0.1V2513.4z"/>
			<path class="st9" d="M1022.9,2520.5c-0.1-0.2-0.2-0.5-0.2-0.9c-0.7,0.7-1.5,1-2.4,1c-0.8,0-1.5-0.2-2.1-0.7
				c-0.5-0.5-0.8-1.1-0.8-1.8c0-0.9,0.3-1.6,1-2.1c0.7-0.5,1.6-0.7,2.8-0.7h1.4v-0.7c0-0.5-0.2-0.9-0.5-1.2
				c-0.3-0.3-0.7-0.4-1.3-0.4c-0.5,0-0.9,0.1-1.3,0.4c-0.3,0.3-0.5,0.6-0.5,0.9h-1.5c0-0.4,0.1-0.8,0.4-1.2c0.3-0.4,0.7-0.7,1.2-0.9
				c0.5-0.2,1.1-0.3,1.7-0.3c1,0,1.7,0.2,2.3,0.7c0.6,0.5,0.8,1.2,0.9,2v3.9c0,0.8,0.1,1.4,0.3,1.9v0.1H1022.9z M1020.5,2519.4
				c0.5,0,0.9-0.1,1.3-0.4s0.7-0.5,0.9-0.9v-1.7h-1.1c-1.8,0-2.7,0.5-2.7,1.6c0,0.5,0.2,0.8,0.5,1.1
				C1019.7,2519.3,1020.1,2519.4,1020.5,2519.4z"/>
			<path class="st9" d="M1027.8,2512.1l0,1.1c0.6-0.8,1.5-1.2,2.5-1.2c1.8,0,2.7,1,2.7,3v5.6h-1.4v-5.6c0-0.6-0.1-1.1-0.4-1.4
				s-0.7-0.4-1.3-0.4c-0.5,0-0.9,0.1-1.2,0.4c-0.4,0.2-0.6,0.6-0.8,1v6h-1.4v-8.5H1027.8z"/>
			<path class="st9" d="M1038.7,2520.7c-1.1,0-2.1-0.4-2.8-1.1s-1.1-1.8-1.1-3v-0.3c0-0.8,0.2-1.6,0.5-2.2s0.8-1.2,1.3-1.5
				c0.6-0.4,1.2-0.6,1.9-0.6c1.1,0,2,0.4,2.6,1.1s0.9,1.8,0.9,3.1v0.6h-5.7c0,0.8,0.3,1.5,0.7,2c0.5,0.5,1.1,0.8,1.8,0.8
				c0.5,0,0.9-0.1,1.3-0.3c0.4-0.2,0.7-0.5,0.9-0.8l0.9,0.7C1041.2,2520.1,1040.2,2520.7,1038.7,2520.7z M1038.6,2513.1
				c-0.6,0-1.1,0.2-1.5,0.6c-0.4,0.4-0.6,1-0.7,1.8h4.2v-0.1c0-0.7-0.2-1.3-0.6-1.7C1039.7,2513.3,1039.2,2513.1,1038.6,2513.1z"/>
			<path class="st9" d="M1045.3,2520.5h-1.4v-12h1.4V2520.5z"/>
		</g>
		<g class="st2">
			<path class="st9" d="M971.7,2456.9c-0.4,0.6-0.9,1-1.6,1.2c-0.7,0.3-1.5,0.4-2.4,0.4c-0.9,0-1.8-0.2-2.5-0.7s-1.3-1.1-1.7-1.9
				c-0.4-0.8-0.6-1.7-0.6-2.8v-1c0-1.7,0.4-3,1.2-4c0.8-0.9,1.9-1.4,3.4-1.4c1.2,0,2.1,0.3,2.9,0.9c0.7,0.6,1.2,1.5,1.3,2.6h-1.5
				c-0.3-1.5-1.2-2.3-2.7-2.3c-1,0-1.8,0.4-2.3,1.1c-0.5,0.7-0.8,1.7-0.8,3.1v0.9c0,1.3,0.3,2.3,0.9,3c0.6,0.8,1.4,1.1,2.4,1.1
				c0.6,0,1.1-0.1,1.5-0.2c0.4-0.1,0.8-0.3,1-0.6v-2.5h-2.6v-1.2h4.1V2456.9z"/>
			<path class="st9" d="M977.4,2458.5c-1.1,0-2.1-0.4-2.8-1.1s-1.1-1.8-1.1-3v-0.3c0-0.8,0.2-1.6,0.5-2.2s0.8-1.2,1.3-1.5
				c0.6-0.4,1.2-0.6,1.9-0.6c1.1,0,2,0.4,2.6,1.1s0.9,1.8,0.9,3.1v0.6H975c0,0.8,0.3,1.5,0.7,2c0.5,0.5,1.1,0.8,1.8,0.8
				c0.5,0,0.9-0.1,1.3-0.3c0.4-0.2,0.7-0.5,0.9-0.8l0.9,0.7C979.9,2458,978.9,2458.5,977.4,2458.5z M977.3,2450.9
				c-0.6,0-1.1,0.2-1.5,0.6c-0.4,0.4-0.6,1-0.7,1.8h4.2v-0.1c0-0.7-0.2-1.3-0.6-1.7C978.3,2451.1,977.9,2450.9,977.3,2450.9z"/>
			<path class="st9" d="M983.8,2449.9l0,1.1c0.6-0.8,1.5-1.2,2.5-1.2c1.8,0,2.7,1,2.7,3v5.6h-1.4v-5.6c0-0.6-0.1-1.1-0.4-1.4
				s-0.7-0.4-1.3-0.4c-0.5,0-0.9,0.1-1.2,0.4c-0.4,0.2-0.6,0.6-0.8,1v6h-1.4v-8.5H983.8z"/>
			<path class="st9" d="M994.7,2458.5c-1.1,0-2.1-0.4-2.8-1.1s-1.1-1.8-1.1-3v-0.3c0-0.8,0.2-1.6,0.5-2.2s0.8-1.2,1.3-1.5
				c0.6-0.4,1.2-0.6,1.9-0.6c1.1,0,2,0.4,2.6,1.1s0.9,1.8,0.9,3.1v0.6h-5.7c0,0.8,0.3,1.5,0.7,2c0.5,0.5,1.1,0.8,1.8,0.8
				c0.5,0,0.9-0.1,1.3-0.3c0.4-0.2,0.7-0.5,0.9-0.8l0.9,0.7C997.2,2458,996.2,2458.5,994.7,2458.5z M994.6,2450.9
				c-0.6,0-1.1,0.2-1.5,0.6c-0.4,0.4-0.6,1-0.7,1.8h4.2v-0.1c0-0.7-0.2-1.3-0.6-1.7C995.6,2451.1,995.2,2450.9,994.6,2450.9z"/>
			<path class="st9" d="M1003.8,2451.2c-0.2,0-0.5-0.1-0.7-0.1c-0.9,0-1.6,0.4-1.9,1.2v6h-1.4v-8.5h1.4l0,1c0.5-0.8,1.1-1.1,2-1.1
				c0.3,0,0.5,0,0.6,0.1V2451.2z"/>
			<path class="st9" d="M1010,2458.3c-0.1-0.2-0.2-0.5-0.2-0.9c-0.7,0.7-1.5,1-2.4,1c-0.8,0-1.5-0.2-2.1-0.7
				c-0.5-0.5-0.8-1.1-0.8-1.8c0-0.9,0.3-1.6,1-2.1c0.7-0.5,1.6-0.7,2.8-0.7h1.4v-0.7c0-0.5-0.2-0.9-0.5-1.2
				c-0.3-0.3-0.7-0.4-1.3-0.4c-0.5,0-0.9,0.1-1.3,0.4c-0.3,0.3-0.5,0.6-0.5,0.9h-1.5c0-0.4,0.1-0.8,0.4-1.2c0.3-0.4,0.7-0.7,1.2-0.9
				c0.5-0.2,1.1-0.3,1.7-0.3c1,0,1.7,0.2,2.3,0.7c0.6,0.5,0.8,1.2,0.9,2v3.9c0,0.8,0.1,1.4,0.3,1.9v0.1H1010z M1007.6,2457.2
				c0.5,0,0.9-0.1,1.3-0.4s0.7-0.5,0.9-0.9v-1.7h-1.1c-1.8,0-2.7,0.5-2.7,1.6c0,0.5,0.2,0.8,0.5,1.1
				C1006.8,2457.1,1007.2,2457.2,1007.6,2457.2z"/>
			<path class="st9" d="M1015.1,2458.3h-1.4v-12h1.4V2458.3z"/>
		</g>
		
			<linearGradient id="Rectángulo_34589-2_1_" gradientUnits="userSpaceOnUse" x1="-560.7974" y1="3935.1001" x2="-560.3394" y2="3934.9941" gradientTransform="matrix(258 0 0 -43 145205 171785.7656)">
			<stop  offset="0" style="stop-color:#7E57C2"/>
			<stop  offset="1" style="stop-color:#451991"/>
		</linearGradient>
		<path id="Rectángulo_34589-2" class="st10" d="M513,2559h222c9.9,0,18,8.1,18,18v7c0,9.9-8.1,18-18,18H513c-9.9,0-18-8.1-18-18
			v-7C495,2567.1,503.1,2559,513,2559z"/>
		<circle id="Elipse_5058-2" class="st5" cx="743.5" cy="2580.5" r="25.5"/>
		
			<linearGradient id="Rectángulo_34590-2_1_" gradientUnits="userSpaceOnUse" x1="-560.0662" y1="3934.2886" x2="-559.5382" y2="3934.2886" gradientTransform="matrix(217 0 0 -42 122127 167883.125)">
			<stop  offset="0" style="stop-color:#7E57C2"/>
			<stop  offset="1" style="stop-color:#451991"/>
		</linearGradient>
		<path id="Rectángulo_34590-2" class="st11" d="M600,2622h181c9.9,0,18,8.1,18,18v6c0,9.9-8.1,18-18,18H600c-9.9,0-18-8.1-18-18
			v-6C582,2630.1,590.1,2622,600,2622z"/>
		<ellipse id="Elipse_5059-2" class="st5" cx="788" cy="2642.5" rx="26" ry="25.5"/>
		
			<linearGradient id="Rectángulo_34591-2_1_" gradientUnits="userSpaceOnUse" x1="-560.6837" y1="3934.4387" x2="-560.2847" y2="3934.2627" gradientTransform="matrix(255 0 0 -42 143559 167693.125)">
			<stop  offset="0" style="stop-color:#7E57C2"/>
			<stop  offset="1" style="stop-color:#451991"/>
		</linearGradient>
		<path id="Rectángulo_34591-2" class="st12" d="M562,2432h219c9.9,0,18,8.1,18,18v6c0,9.9-8.1,18-18,18H562c-9.9,0-18-8.1-18-18
			v-6C544,2440.1,552.1,2432,562,2432z"/>
		<circle id="Elipse_5060-2" class="st5" cx="788" cy="2453" r="26"/>
		
			<linearGradient id="Rectángulo_34588-2_1_" gradientUnits="userSpaceOnUse" x1="-558.1302" y1="3934.3467" x2="-557.6322" y2="3934.2786" gradientTransform="matrix(156 0 0 -42 87685 167755.125)">
			<stop  offset="0" style="stop-color:#7E57C2"/>
			<stop  offset="1" style="stop-color:#451991"/>
		</linearGradient>
		<path id="Rectángulo_34588-2" class="st13" d="M623,2494h120c9.9,0,18,8.1,18,18v6c0,9.9-8.1,18-18,18H623c-9.9,0-18-8.1-18-18
			v-6C605,2502.1,613.1,2494,623,2494z"/>
		<ellipse id="Elipse_5057-2" class="st5" cx="751.5" cy="2515" rx="25.5" ry="26"/>
		<g class="st2">
			<path class="st9" d="M631.6,2645.5h-4.8l-1.1,3h-1.5l4.3-11.4h1.3l4.4,11.4h-1.5L631.6,2645.5z M627.3,2644.3h3.9l-1.9-5.3
				L627.3,2644.3z"/>
			<path class="st9" d="M636.9,2640l0,1.1c0.6-0.8,1.5-1.2,2.5-1.2c1.8,0,2.7,1,2.7,3v5.6h-1.4v-5.6c0-0.6-0.1-1.1-0.4-1.4
				s-0.7-0.4-1.3-0.4c-0.5,0-0.9,0.1-1.2,0.4s-0.6,0.6-0.8,1v6h-1.4v-8.5H636.9z"/>
			<path class="st9" d="M644.4,2637.8c0-0.2,0.1-0.4,0.2-0.6s0.4-0.2,0.6-0.2s0.5,0.1,0.6,0.2s0.2,0.4,0.2,0.6s-0.1,0.4-0.2,0.6
				s-0.4,0.2-0.6,0.2s-0.5-0.1-0.6-0.2S644.4,2638,644.4,2637.8z M645.9,2648.5h-1.4v-8.5h1.4V2648.5z"/>
			<path class="st9" d="M649.6,2640l0,0.9c0.6-0.7,1.5-1.1,2.5-1.1c1.2,0,2,0.5,2.4,1.4c0.3-0.4,0.6-0.7,1.1-1s1-0.4,1.6-0.4
				c1.9,0,2.8,1,2.8,2.9v5.7h-1.4v-5.6c0-0.6-0.1-1.1-0.4-1.4s-0.7-0.4-1.4-0.4c-0.5,0-1,0.2-1.3,0.5s-0.6,0.8-0.6,1.3v5.6h-1.5
				v-5.5c0-1.2-0.6-1.8-1.8-1.8c-0.9,0-1.6,0.4-1.9,1.2v6.2h-1.4v-8.5H649.6z"/>
			<path class="st9" d="M667.5,2648.5c-0.1-0.2-0.2-0.5-0.2-0.9c-0.7,0.7-1.5,1-2.4,1c-0.8,0-1.5-0.2-2.1-0.7s-0.8-1.1-0.8-1.8
				c0-0.9,0.3-1.6,1-2.1s1.6-0.7,2.8-0.7h1.4v-0.7c0-0.5-0.2-0.9-0.5-1.2s-0.7-0.4-1.3-0.4c-0.5,0-0.9,0.1-1.3,0.4s-0.5,0.6-0.5,0.9
				h-1.5c0-0.4,0.1-0.8,0.4-1.2s0.7-0.7,1.2-0.9s1.1-0.3,1.7-0.3c1,0,1.7,0.2,2.3,0.7s0.8,1.2,0.9,2v3.9c0,0.8,0.1,1.4,0.3,1.9v0.1
				H667.5z M665.1,2647.4c0.5,0,0.9-0.1,1.3-0.4s0.7-0.5,0.9-0.9v-1.7h-1.1c-1.8,0-2.7,0.5-2.7,1.6c0,0.5,0.2,0.8,0.5,1.1
				S664.6,2647.4,665.1,2647.4z"/>
			<path class="st9" d="M672.5,2648.5h-1.4v-12h1.4V2648.5z"/>
			<path class="st9" d="M678.4,2648.6c-1.1,0-2.1-0.4-2.8-1.1s-1.1-1.8-1.1-3v-0.3c0-0.8,0.2-1.6,0.5-2.2s0.8-1.2,1.3-1.5
				s1.2-0.6,1.9-0.6c1.1,0,2,0.4,2.6,1.1s0.9,1.8,0.9,3.1v0.6h-5.7c0,0.8,0.3,1.5,0.7,2s1.1,0.8,1.8,0.8c0.5,0,0.9-0.1,1.3-0.3
				s0.7-0.5,0.9-0.8l0.9,0.7C680.8,2648.1,679.8,2648.6,678.4,2648.6z M678.2,2641c-0.6,0-1.1,0.2-1.5,0.6s-0.6,1-0.7,1.8h4.2v-0.1
				c0-0.7-0.2-1.3-0.6-1.7S678.8,2641,678.2,2641z"/>
			<path class="st9" d="M688.2,2646.2c0-0.4-0.1-0.7-0.4-0.9s-0.8-0.4-1.5-0.6s-1.3-0.3-1.7-0.6s-0.7-0.5-1-0.8s-0.3-0.7-0.3-1.1
				c0-0.7,0.3-1.3,0.9-1.8s1.3-0.7,2.2-0.7c1,0,1.7,0.2,2.3,0.7s0.9,1.1,0.9,1.9h-1.5c0-0.4-0.2-0.7-0.5-1s-0.8-0.4-1.3-0.4
				c-0.5,0-0.9,0.1-1.2,0.3s-0.4,0.5-0.4,0.9c0,0.3,0.1,0.6,0.4,0.8s0.8,0.3,1.5,0.5s1.3,0.4,1.8,0.6s0.8,0.5,1,0.8s0.3,0.7,0.3,1.2
				c0,0.8-0.3,1.4-0.9,1.8s-1.4,0.7-2.4,0.7c-0.7,0-1.3-0.1-1.8-0.4s-0.9-0.6-1.2-1s-0.4-0.9-0.4-1.4h1.4c0,0.5,0.2,0.9,0.6,1.2
				s0.8,0.4,1.4,0.4c0.5,0,1-0.1,1.3-0.3S688.2,2646.6,688.2,2646.2z"/>
			<path class="st9" d="M699,2648.6c-1.1,0-2.1-0.4-2.8-1.1s-1.1-1.8-1.1-3v-0.3c0-0.8,0.2-1.6,0.5-2.2s0.8-1.2,1.3-1.5
				s1.2-0.6,1.9-0.6c1.1,0,2,0.4,2.6,1.1s0.9,1.8,0.9,3.1v0.6h-5.7c0,0.8,0.3,1.5,0.7,2s1.1,0.8,1.8,0.8c0.5,0,0.9-0.1,1.3-0.3
				s0.7-0.5,0.9-0.8l0.9,0.7C701.5,2648.1,700.5,2648.6,699,2648.6z M698.9,2641c-0.6,0-1.1,0.2-1.5,0.6s-0.6,1-0.7,1.8h4.2v-0.1
				c0-0.7-0.2-1.3-0.6-1.7S699.5,2641,698.9,2641z"/>
			<path class="st9" d="M705.4,2640l0,1.1c0.6-0.8,1.5-1.2,2.5-1.2c1.8,0,2.7,1,2.7,3v5.6h-1.4v-5.6c0-0.6-0.1-1.1-0.4-1.4
				s-0.7-0.4-1.3-0.4c-0.5,0-0.9,0.1-1.2,0.4s-0.6,0.6-0.8,1v6H704v-8.5H705.4z"/>
			<path class="st9" d="M723.9,2644.3c0,1.3-0.3,2.3-0.9,3.1s-1.4,1.2-2.4,1.2c-1,0-1.8-0.3-2.4-1v4.1h-1.4V2640h1.3l0.1,0.9
				c0.6-0.7,1.4-1.1,2.5-1.1c1,0,1.8,0.4,2.4,1.1s0.9,1.8,0.9,3.2V2644.3z M722.5,2644.2c0-1-0.2-1.7-0.6-2.3s-1-0.8-1.7-0.8
				c-0.9,0-1.5,0.4-2,1.2v4c0.4,0.8,1.1,1.2,2,1.2c0.7,0,1.2-0.3,1.7-0.8S722.5,2645.2,722.5,2644.2z"/>
			<path class="st9" d="M725.8,2637.8c0-0.2,0.1-0.4,0.2-0.6s0.4-0.2,0.6-0.2s0.5,0.1,0.6,0.2s0.2,0.4,0.2,0.6s-0.1,0.4-0.2,0.6
				s-0.4,0.2-0.6,0.2s-0.5-0.1-0.6-0.2S725.8,2638,725.8,2637.8z M727.4,2648.5h-1.4v-8.5h1.4V2648.5z"/>
			<path class="st9" d="M733.2,2648.6c-1.1,0-2.1-0.4-2.8-1.1s-1.1-1.8-1.1-3v-0.3c0-0.8,0.2-1.6,0.5-2.2s0.8-1.2,1.3-1.5
				s1.2-0.6,1.9-0.6c1.1,0,2,0.4,2.6,1.1s0.9,1.8,0.9,3.1v0.6h-5.7c0,0.8,0.3,1.5,0.7,2s1.1,0.8,1.8,0.8c0.5,0,0.9-0.1,1.3-0.3
				s0.7-0.5,0.9-0.8l0.9,0.7C735.7,2648.1,734.6,2648.6,733.2,2648.6z M733,2641c-0.6,0-1.1,0.2-1.5,0.6s-0.6,1-0.7,1.8h4.2v-0.1
				c0-0.7-0.2-1.3-0.6-1.7S733.6,2641,733,2641z"/>
		</g>
		<g class="st2">
			<path class="st9" d="M546.8,2581.8v4.5h-1.5v-11.4h4.2c1.2,0,2.2,0.3,2.9,1c0.7,0.6,1.1,1.5,1.1,2.5c0,1.1-0.3,2-1,2.6
				c-0.7,0.6-1.7,0.9-3,0.9H546.8z M546.8,2580.6h2.7c0.8,0,1.4-0.2,1.8-0.6c0.4-0.4,0.6-0.9,0.6-1.6c0-0.7-0.2-1.2-0.6-1.6
				c-0.4-0.4-1-0.6-1.8-0.6h-2.8V2580.6z"/>
			<path class="st9" d="M558.7,2586.4c-1.1,0-2.1-0.4-2.8-1.1c-0.7-0.8-1.1-1.8-1.1-3v-0.3c0-0.8,0.2-1.6,0.5-2.2
				c0.3-0.7,0.8-1.2,1.3-1.5c0.6-0.4,1.2-0.6,1.9-0.6c1.1,0,2,0.4,2.6,1.1c0.6,0.7,0.9,1.8,0.9,3.1v0.6h-5.7c0,0.8,0.3,1.5,0.7,2
				c0.5,0.5,1.1,0.8,1.8,0.8c0.5,0,0.9-0.1,1.3-0.3c0.4-0.2,0.7-0.5,0.9-0.8l0.9,0.7C561.2,2585.9,560.1,2586.4,558.7,2586.4z
				 M558.5,2578.9c-0.6,0-1.1,0.2-1.5,0.6c-0.4,0.4-0.6,1-0.7,1.8h4.2v-0.1c0-0.7-0.2-1.3-0.6-1.7
				C559.6,2579.1,559.1,2578.9,558.5,2578.9z"/>
			<path class="st9" d="M568.6,2584c0-0.4-0.1-0.7-0.4-0.9c-0.3-0.2-0.8-0.4-1.5-0.6c-0.7-0.2-1.3-0.3-1.7-0.6s-0.7-0.5-1-0.8
				c-0.2-0.3-0.3-0.7-0.3-1.1c0-0.7,0.3-1.3,0.9-1.8c0.6-0.5,1.3-0.7,2.2-0.7c1,0,1.7,0.2,2.3,0.7c0.6,0.5,0.9,1.1,0.9,1.9h-1.5
				c0-0.4-0.2-0.7-0.5-1c-0.3-0.3-0.8-0.4-1.3-0.4c-0.5,0-0.9,0.1-1.2,0.3c-0.3,0.2-0.4,0.5-0.4,0.9c0,0.3,0.1,0.6,0.4,0.8
				c0.3,0.2,0.8,0.3,1.5,0.5c0.7,0.2,1.3,0.4,1.8,0.6c0.4,0.2,0.8,0.5,1,0.8c0.2,0.3,0.3,0.7,0.3,1.2c0,0.8-0.3,1.4-0.9,1.8
				c-0.6,0.5-1.4,0.7-2.4,0.7c-0.7,0-1.3-0.1-1.8-0.4c-0.5-0.2-0.9-0.6-1.2-1c-0.3-0.4-0.4-0.9-0.4-1.4h1.4c0,0.5,0.2,0.9,0.6,1.2
				c0.4,0.3,0.8,0.4,1.4,0.4c0.5,0,1-0.1,1.3-0.3C568.4,2584.7,568.6,2584.4,568.6,2584z"/>
			<path class="st9" d="M577.1,2586.3c-0.1-0.2-0.2-0.5-0.2-0.9c-0.7,0.7-1.5,1-2.4,1c-0.8,0-1.5-0.2-2.1-0.7
				c-0.5-0.5-0.8-1.1-0.8-1.8c0-0.9,0.3-1.6,1-2.1c0.7-0.5,1.6-0.7,2.8-0.7h1.4v-0.7c0-0.5-0.2-0.9-0.5-1.2
				c-0.3-0.3-0.7-0.4-1.3-0.4c-0.5,0-0.9,0.1-1.3,0.4c-0.3,0.3-0.5,0.6-0.5,0.9h-1.5c0-0.4,0.1-0.8,0.4-1.2c0.3-0.4,0.7-0.7,1.2-0.9
				c0.5-0.2,1.1-0.3,1.7-0.3c1,0,1.7,0.2,2.3,0.7c0.6,0.5,0.8,1.2,0.9,2v3.9c0,0.8,0.1,1.4,0.3,1.9v0.1H577.1z M574.7,2585.2
				c0.5,0,0.9-0.1,1.3-0.4s0.7-0.5,0.9-0.9v-1.7h-1.1c-1.8,0-2.7,0.5-2.7,1.6c0,0.5,0.2,0.8,0.5,1.1
				C573.9,2585.1,574.3,2585.2,574.7,2585.2z"/>
			<path class="st9" d="M580.3,2582c0-1.3,0.3-2.3,0.9-3.1c0.6-0.8,1.4-1.2,2.4-1.2c1,0,1.8,0.3,2.4,1v-4.4h1.4v12h-1.3l-0.1-0.9
				c-0.6,0.7-1.4,1.1-2.4,1.1c-1,0-1.8-0.4-2.4-1.2c-0.6-0.8-0.9-1.8-0.9-3.1V2582z M581.7,2582.1c0,1,0.2,1.7,0.6,2.2
				c0.4,0.5,0.9,0.8,1.6,0.8c0.9,0,1.6-0.4,2-1.2v-3.9c-0.4-0.8-1.1-1.2-2-1.2c-0.7,0-1.3,0.3-1.7,0.8
				C581.9,2580.3,581.7,2581.1,581.7,2582.1z"/>
			<path class="st9" d="M594.9,2586.3c-0.1-0.2-0.2-0.5-0.2-0.9c-0.7,0.7-1.5,1-2.4,1c-0.8,0-1.5-0.2-2.1-0.7
				c-0.5-0.5-0.8-1.1-0.8-1.8c0-0.9,0.3-1.6,1-2.1c0.7-0.5,1.6-0.7,2.8-0.7h1.4v-0.7c0-0.5-0.2-0.9-0.5-1.2
				c-0.3-0.3-0.7-0.4-1.3-0.4c-0.5,0-0.9,0.1-1.3,0.4c-0.3,0.3-0.5,0.6-0.5,0.9h-1.5c0-0.4,0.1-0.8,0.4-1.2c0.3-0.4,0.7-0.7,1.2-0.9
				c0.5-0.2,1.1-0.3,1.7-0.3c1,0,1.7,0.2,2.3,0.7c0.6,0.5,0.8,1.2,0.9,2v3.9c0,0.8,0.1,1.4,0.3,1.9v0.1H594.9z M592.5,2585.2
				c0.5,0,0.9-0.1,1.3-0.4s0.7-0.5,0.9-0.9v-1.7h-1.1c-1.8,0-2.7,0.5-2.7,1.6c0,0.5,0.2,0.8,0.5,1.1
				C591.6,2585.1,592,2585.2,592.5,2585.2z"/>
			<path class="st9" d="M601.9,2582c0-0.8,0.2-1.6,0.5-2.2c0.3-0.7,0.8-1.2,1.4-1.5c0.6-0.4,1.2-0.5,2-0.5c1.2,0,2.1,0.4,2.8,1.2
				s1.1,1.9,1.1,3.2v0.1c0,0.8-0.2,1.6-0.5,2.2c-0.3,0.7-0.8,1.2-1.4,1.5c-0.6,0.4-1.3,0.5-2,0.5c-1.1,0-2.1-0.4-2.8-1.2
				s-1.1-1.9-1.1-3.2V2582z M603.4,2582.1c0,0.9,0.2,1.7,0.7,2.3c0.4,0.6,1,0.9,1.7,0.9c0.7,0,1.3-0.3,1.8-0.9
				c0.4-0.6,0.6-1.4,0.6-2.4c0-0.9-0.2-1.7-0.7-2.3c-0.4-0.6-1-0.9-1.8-0.9c-0.7,0-1.3,0.3-1.7,0.9
				C603.6,2580.3,603.4,2581.1,603.4,2582.1z"/>
			<path class="st9" d="M618.2,2584.3l2.1-6.5h1.5l-3,8.5h-1.1l-3.1-8.5h1.5L618.2,2584.3z"/>
			<path class="st9" d="M622.6,2582c0-0.8,0.2-1.6,0.5-2.2c0.3-0.7,0.8-1.2,1.4-1.5c0.6-0.4,1.2-0.5,2-0.5c1.2,0,2.1,0.4,2.8,1.2
				s1.1,1.9,1.1,3.2v0.1c0,0.8-0.2,1.6-0.5,2.2c-0.3,0.7-0.8,1.2-1.4,1.5c-0.6,0.4-1.3,0.5-2,0.5c-1.1,0-2.1-0.4-2.8-1.2
				s-1.1-1.9-1.1-3.2V2582z M624.1,2582.1c0,0.9,0.2,1.7,0.7,2.3c0.4,0.6,1,0.9,1.7,0.9c0.7,0,1.3-0.3,1.8-0.9
				c0.4-0.6,0.6-1.4,0.6-2.4c0-0.9-0.2-1.7-0.7-2.3c-0.4-0.6-1-0.9-1.8-0.9c-0.7,0-1.3,0.3-1.7,0.9
				C624.3,2580.3,624.1,2581.1,624.1,2582.1z"/>
			<path class="st9" d="M633.7,2586.3h-1.4v-12h1.4V2586.3z"/>
			<path class="st9" d="M641.2,2585.4c-0.6,0.7-1.4,1-2.5,1c-0.9,0-1.6-0.3-2.1-0.8c-0.5-0.5-0.7-1.3-0.7-2.3v-5.5h1.4v5.5
				c0,1.3,0.5,1.9,1.6,1.9c1.1,0,1.8-0.4,2.2-1.2v-6.1h1.4v8.5h-1.4L641.2,2585.4z"/>
			<path class="st9" d="M646.2,2577.8l0,0.9c0.6-0.7,1.5-1.1,2.5-1.1c1.2,0,2,0.5,2.4,1.4c0.3-0.4,0.6-0.7,1.1-1
				c0.5-0.2,1-0.4,1.6-0.4c1.9,0,2.8,1,2.8,2.9v5.7h-1.4v-5.6c0-0.6-0.1-1.1-0.4-1.4c-0.3-0.3-0.7-0.4-1.4-0.4c-0.5,0-1,0.2-1.3,0.5
				c-0.4,0.3-0.6,0.8-0.6,1.3v5.6H650v-5.5c0-1.2-0.6-1.8-1.8-1.8c-0.9,0-1.6,0.4-1.9,1.2v6.2h-1.4v-8.5H646.2z"/>
			<path class="st9" d="M658.9,2575.6c0-0.2,0.1-0.4,0.2-0.6c0.1-0.2,0.4-0.2,0.6-0.2s0.5,0.1,0.6,0.2c0.1,0.2,0.2,0.4,0.2,0.6
				s-0.1,0.4-0.2,0.6c-0.1,0.2-0.4,0.2-0.6,0.2s-0.5-0.1-0.6-0.2C659,2576,658.9,2575.8,658.9,2575.6z M660.4,2586.3H659v-8.5h1.4
				V2586.3z"/>
			<path class="st9" d="M664.1,2577.8l0,1.1c0.6-0.8,1.5-1.2,2.5-1.2c1.8,0,2.7,1,2.7,3v5.6H668v-5.6c0-0.6-0.1-1.1-0.4-1.4
				c-0.3-0.3-0.7-0.4-1.3-0.4c-0.5,0-0.9,0.1-1.2,0.4c-0.4,0.2-0.6,0.6-0.8,1v6h-1.4v-8.5H664.1z"/>
			<path class="st9" d="M671.2,2582c0-0.8,0.2-1.6,0.5-2.2c0.3-0.7,0.8-1.2,1.4-1.5c0.6-0.4,1.2-0.5,2-0.5c1.2,0,2.1,0.4,2.8,1.2
				s1.1,1.9,1.1,3.2v0.1c0,0.8-0.2,1.6-0.5,2.2c-0.3,0.7-0.8,1.2-1.4,1.5c-0.6,0.4-1.3,0.5-2,0.5c-1.1,0-2.1-0.4-2.8-1.2
				s-1.1-1.9-1.1-3.2V2582z M672.7,2582.1c0,0.9,0.2,1.7,0.7,2.3c0.4,0.6,1,0.9,1.7,0.9c0.7,0,1.3-0.3,1.8-0.9
				c0.4-0.6,0.6-1.4,0.6-2.4c0-0.9-0.2-1.7-0.7-2.3c-0.4-0.6-1-0.9-1.8-0.9c-0.7,0-1.3,0.3-1.7,0.9
				C672.9,2580.3,672.7,2581.1,672.7,2582.1z"/>
			<path class="st9" d="M685.6,2584c0-0.4-0.1-0.7-0.4-0.9c-0.3-0.2-0.8-0.4-1.5-0.6c-0.7-0.2-1.3-0.3-1.7-0.6s-0.7-0.5-1-0.8
				c-0.2-0.3-0.3-0.7-0.3-1.1c0-0.7,0.3-1.3,0.9-1.8c0.6-0.5,1.3-0.7,2.2-0.7c1,0,1.7,0.2,2.3,0.7c0.6,0.5,0.9,1.1,0.9,1.9h-1.5
				c0-0.4-0.2-0.7-0.5-1c-0.3-0.3-0.8-0.4-1.3-0.4c-0.5,0-0.9,0.1-1.2,0.3c-0.3,0.2-0.4,0.5-0.4,0.9c0,0.3,0.1,0.6,0.4,0.8
				c0.3,0.2,0.8,0.3,1.5,0.5c0.7,0.2,1.3,0.4,1.8,0.6c0.4,0.2,0.8,0.5,1,0.8c0.2,0.3,0.3,0.7,0.3,1.2c0,0.8-0.3,1.4-0.9,1.8
				c-0.6,0.5-1.4,0.7-2.4,0.7c-0.7,0-1.3-0.1-1.8-0.4c-0.5-0.2-0.9-0.6-1.2-1c-0.3-0.4-0.4-0.9-0.4-1.4h1.4c0,0.5,0.2,0.9,0.6,1.2
				c0.4,0.3,0.8,0.4,1.4,0.4c0.5,0,1-0.1,1.3-0.3C685.5,2584.7,685.6,2584.4,685.6,2584z"/>
			<path class="st9" d="M694.2,2586.3c-0.1-0.2-0.2-0.5-0.2-0.9c-0.7,0.7-1.5,1-2.4,1c-0.8,0-1.5-0.2-2.1-0.7
				c-0.5-0.5-0.8-1.1-0.8-1.8c0-0.9,0.3-1.6,1-2.1c0.7-0.5,1.6-0.7,2.8-0.7h1.4v-0.7c0-0.5-0.2-0.9-0.5-1.2
				c-0.3-0.3-0.7-0.4-1.3-0.4c-0.5,0-0.9,0.1-1.3,0.4c-0.3,0.3-0.5,0.6-0.5,0.9h-1.5c0-0.4,0.1-0.8,0.4-1.2c0.3-0.4,0.7-0.7,1.2-0.9
				c0.5-0.2,1.1-0.3,1.7-0.3c1,0,1.7,0.2,2.3,0.7c0.6,0.5,0.8,1.2,0.9,2v3.9c0,0.8,0.1,1.4,0.3,1.9v0.1H694.2z M691.8,2585.2
				c0.5,0,0.9-0.1,1.3-0.4s0.7-0.5,0.9-0.9v-1.7h-1.1c-1.8,0-2.7,0.5-2.7,1.6c0,0.5,0.2,0.8,0.5,1.1
				C690.9,2585.1,691.3,2585.2,691.8,2585.2z"/>
		</g>
		<g class="st2">
			<path class="st9" d="M649.1,2510.4h-3.7v10.1h-1.5v-10.1h-3.6v-1.2h8.8V2510.4z"/>
			<path class="st9" d="M654,2513.4c-0.2,0-0.5-0.1-0.7-0.1c-0.9,0-1.6,0.4-1.9,1.2v6H650v-8.5h1.4l0,1c0.5-0.8,1.1-1.1,2-1.1
				c0.3,0,0.5,0,0.6,0.1V2513.4z"/>
			<path class="st9" d="M660.6,2520.5c-0.1-0.2-0.2-0.5-0.2-0.9c-0.7,0.7-1.5,1-2.4,1c-0.8,0-1.5-0.2-2.1-0.7
				c-0.5-0.5-0.8-1.1-0.8-1.8c0-0.9,0.3-1.6,1-2.1c0.7-0.5,1.6-0.7,2.8-0.7h1.4v-0.7c0-0.5-0.2-0.9-0.5-1.2
				c-0.3-0.3-0.7-0.4-1.3-0.4c-0.5,0-0.9,0.1-1.3,0.4c-0.3,0.3-0.5,0.6-0.5,0.9h-1.5c0-0.4,0.1-0.8,0.4-1.2c0.3-0.4,0.7-0.7,1.2-0.9
				c0.5-0.2,1.1-0.3,1.7-0.3c1,0,1.7,0.2,2.3,0.7c0.6,0.5,0.8,1.2,0.9,2v3.9c0,0.8,0.1,1.4,0.3,1.9v0.1H660.6z M658.2,2519.4
				c0.5,0,0.9-0.1,1.3-0.4s0.7-0.5,0.9-0.9v-1.7h-1.1c-1.8,0-2.7,0.5-2.7,1.6c0,0.5,0.2,0.8,0.5,1.1
				C657.3,2519.3,657.7,2519.4,658.2,2519.4z M659.5,2508.5h1.8l-2.1,2.3l-1.2,0L659.5,2508.5z"/>
			<path class="st9" d="M665.4,2512.1l0,1.1c0.6-0.8,1.5-1.2,2.5-1.2c1.8,0,2.7,1,2.7,3v5.6h-1.4v-5.6c0-0.6-0.1-1.1-0.4-1.4
				s-0.7-0.4-1.3-0.4c-0.5,0-0.9,0.1-1.2,0.4c-0.4,0.2-0.6,0.6-0.8,1v6h-1.4v-8.5H665.4z"/>
			<path class="st9" d="M677.8,2518.3c0-0.4-0.1-0.7-0.4-0.9c-0.3-0.2-0.8-0.4-1.5-0.6c-0.7-0.2-1.3-0.3-1.7-0.6s-0.7-0.5-1-0.8
				c-0.2-0.3-0.3-0.7-0.3-1.1c0-0.7,0.3-1.3,0.9-1.8s1.3-0.7,2.2-0.7c1,0,1.7,0.2,2.3,0.7c0.6,0.5,0.9,1.1,0.9,1.9h-1.5
				c0-0.4-0.2-0.7-0.5-1s-0.8-0.4-1.3-0.4c-0.5,0-0.9,0.1-1.2,0.3s-0.4,0.5-0.4,0.9c0,0.3,0.1,0.6,0.4,0.8c0.3,0.2,0.8,0.3,1.5,0.5
				c0.7,0.2,1.3,0.4,1.8,0.6c0.4,0.2,0.8,0.5,1,0.8c0.2,0.3,0.3,0.7,0.3,1.2c0,0.8-0.3,1.4-0.9,1.8c-0.6,0.5-1.4,0.7-2.4,0.7
				c-0.7,0-1.3-0.1-1.8-0.4c-0.5-0.2-0.9-0.6-1.2-1c-0.3-0.4-0.4-0.9-0.4-1.4h1.4c0,0.5,0.2,0.9,0.6,1.2c0.4,0.3,0.8,0.4,1.4,0.4
				c0.5,0,1-0.1,1.3-0.3C677.7,2518.9,677.8,2518.6,677.8,2518.3z"/>
			<path class="st9" d="M681.2,2509.8c0-0.2,0.1-0.4,0.2-0.6c0.1-0.2,0.4-0.2,0.6-0.2s0.5,0.1,0.6,0.2c0.1,0.2,0.2,0.4,0.2,0.6
				s-0.1,0.4-0.2,0.6c-0.1,0.2-0.4,0.2-0.6,0.2s-0.5-0.1-0.6-0.2C681.2,2510.3,681.2,2510.1,681.2,2509.8z M682.7,2520.5h-1.4v-8.5
				h1.4V2520.5z"/>
			<path class="st9" d="M687,2510v2h1.6v1.1H687v5.2c0,0.3,0.1,0.6,0.2,0.8c0.1,0.2,0.4,0.3,0.7,0.3c0.2,0,0.4,0,0.7-0.1v1.2
				c-0.4,0.1-0.8,0.2-1.1,0.2c-0.6,0-1.1-0.2-1.5-0.6s-0.5-0.9-0.5-1.7v-5.2H684v-1.1h1.5v-2H687z"/>
			<path class="st9" d="M689.7,2516.2c0-0.8,0.2-1.6,0.5-2.2c0.3-0.7,0.8-1.2,1.4-1.5c0.6-0.4,1.2-0.5,2-0.5c1.2,0,2.1,0.4,2.8,1.2
				s1.1,1.9,1.1,3.2v0.1c0,0.8-0.2,1.6-0.5,2.2c-0.3,0.7-0.8,1.2-1.4,1.5s-1.3,0.5-2,0.5c-1.1,0-2.1-0.4-2.8-1.2s-1.1-1.9-1.1-3.2
				V2516.2z M691.2,2516.4c0,0.9,0.2,1.7,0.7,2.3c0.4,0.6,1,0.9,1.7,0.9c0.7,0,1.3-0.3,1.8-0.9c0.4-0.6,0.6-1.4,0.6-2.4
				c0-0.9-0.2-1.7-0.7-2.3c-0.4-0.6-1-0.9-1.8-0.9c-0.7,0-1.3,0.3-1.7,0.9S691.2,2515.3,691.2,2516.4z"/>
		</g>
		<g class="st2">
			<path class="st9" d="M589.3,2456.4l3.2-9.4h1.6l-4.2,11.4h-1.3l-4.2-11.4h1.6L589.3,2456.4z"/>
			<path class="st9" d="M600.3,2458.3c-0.1-0.2-0.2-0.5-0.2-0.9c-0.7,0.7-1.5,1-2.4,1c-0.8,0-1.5-0.2-2.1-0.7
				c-0.5-0.5-0.8-1.1-0.8-1.8c0-0.9,0.3-1.6,1-2.1c0.7-0.5,1.6-0.7,2.8-0.7h1.4v-0.7c0-0.5-0.2-0.9-0.5-1.2
				c-0.3-0.3-0.7-0.4-1.3-0.4c-0.5,0-0.9,0.1-1.3,0.4c-0.3,0.3-0.5,0.6-0.5,0.9H595c0-0.4,0.1-0.8,0.4-1.2c0.3-0.4,0.7-0.7,1.2-0.9
				c0.5-0.2,1.1-0.3,1.7-0.3c1,0,1.7,0.2,2.3,0.7c0.6,0.5,0.8,1.2,0.9,2v3.9c0,0.8,0.1,1.4,0.3,1.9v0.1H600.3z M597.9,2457.2
				c0.5,0,0.9-0.1,1.3-0.4s0.7-0.5,0.9-0.9v-1.7H599c-1.8,0-2.7,0.5-2.7,1.6c0,0.5,0.2,0.8,0.5,1.1
				C597.1,2457.1,597.5,2457.2,597.9,2457.2z"/>
			<path class="st9" d="M605.4,2458.3h-1.4v-12h1.4V2458.3z"/>
			<path class="st9" d="M607.7,2447.7c0-0.2,0.1-0.4,0.2-0.6c0.1-0.2,0.4-0.2,0.6-0.2s0.5,0.1,0.6,0.2c0.1,0.2,0.2,0.4,0.2,0.6
				s-0.1,0.4-0.2,0.6c-0.1,0.2-0.4,0.2-0.6,0.2s-0.5-0.1-0.6-0.2C607.8,2448.1,607.7,2447.9,607.7,2447.7z M609.3,2458.3h-1.4v-8.5
				h1.4V2458.3z"/>
			<path class="st9" d="M611.2,2454c0-0.8,0.2-1.6,0.5-2.2c0.3-0.7,0.8-1.2,1.4-1.5c0.6-0.4,1.2-0.5,2-0.5c1.2,0,2.1,0.4,2.8,1.2
				s1.1,1.9,1.1,3.2v0.1c0,0.8-0.2,1.6-0.5,2.2c-0.3,0.7-0.8,1.2-1.4,1.5s-1.3,0.5-2,0.5c-1.1,0-2.1-0.4-2.8-1.2s-1.1-1.9-1.1-3.2
				V2454z M612.6,2454.2c0,0.9,0.2,1.7,0.7,2.3c0.4,0.6,1,0.9,1.7,0.9c0.7,0,1.3-0.3,1.8-0.9c0.4-0.6,0.6-1.4,0.6-2.4
				c0-0.9-0.2-1.7-0.7-2.3c-0.4-0.6-1-0.9-1.8-0.9c-0.7,0-1.3,0.3-1.7,0.9S612.6,2453.2,612.6,2454.2z"/>
			<path class="st9" d="M625.6,2456.1c0-0.4-0.1-0.7-0.4-0.9c-0.3-0.2-0.8-0.4-1.5-0.6c-0.7-0.2-1.3-0.3-1.7-0.6s-0.7-0.5-1-0.8
				c-0.2-0.3-0.3-0.7-0.3-1.1c0-0.7,0.3-1.3,0.9-1.8s1.3-0.7,2.2-0.7c1,0,1.7,0.2,2.3,0.7c0.6,0.5,0.9,1.1,0.9,1.9h-1.5
				c0-0.4-0.2-0.7-0.5-1s-0.8-0.4-1.3-0.4c-0.5,0-0.9,0.1-1.2,0.3s-0.4,0.5-0.4,0.9c0,0.3,0.1,0.6,0.4,0.8c0.3,0.2,0.8,0.3,1.5,0.5
				c0.7,0.2,1.3,0.4,1.8,0.6c0.4,0.2,0.8,0.5,1,0.8c0.2,0.3,0.3,0.7,0.3,1.2c0,0.8-0.3,1.4-0.9,1.8c-0.6,0.5-1.4,0.7-2.4,0.7
				c-0.7,0-1.3-0.1-1.8-0.4c-0.5-0.2-0.9-0.6-1.2-1c-0.3-0.4-0.4-0.9-0.4-1.4h1.4c0,0.5,0.2,0.9,0.6,1.2c0.4,0.3,0.8,0.4,1.4,0.4
				c0.5,0,1-0.1,1.3-0.3C625.5,2456.8,625.6,2456.5,625.6,2456.1z"/>
			<path class="st9" d="M634.2,2458.3c-0.1-0.2-0.2-0.5-0.2-0.9c-0.7,0.7-1.5,1-2.4,1c-0.8,0-1.5-0.2-2.1-0.7
				c-0.5-0.5-0.8-1.1-0.8-1.8c0-0.9,0.3-1.6,1-2.1c0.7-0.5,1.6-0.7,2.8-0.7h1.4v-0.7c0-0.5-0.2-0.9-0.5-1.2
				c-0.3-0.3-0.7-0.4-1.3-0.4c-0.5,0-0.9,0.1-1.3,0.4c-0.3,0.3-0.5,0.6-0.5,0.9h-1.5c0-0.4,0.1-0.8,0.4-1.2c0.3-0.4,0.7-0.7,1.2-0.9
				c0.5-0.2,1.1-0.3,1.7-0.3c1,0,1.7,0.2,2.3,0.7c0.6,0.5,0.8,1.2,0.9,2v3.9c0,0.8,0.1,1.4,0.3,1.9v0.1H634.2z M631.8,2457.2
				c0.5,0,0.9-0.1,1.3-0.4s0.7-0.5,0.9-0.9v-1.7h-1.1c-1.8,0-2.7,0.5-2.7,1.6c0,0.5,0.2,0.8,0.5,1.1
				C630.9,2457.1,631.3,2457.2,631.8,2457.2z"/>
			<path class="st9" d="M646.8,2458.3c-0.1-0.2-0.2-0.5-0.2-0.9c-0.7,0.7-1.5,1-2.4,1c-0.8,0-1.5-0.2-2.1-0.7
				c-0.5-0.5-0.8-1.1-0.8-1.8c0-0.9,0.3-1.6,1-2.1c0.7-0.5,1.6-0.7,2.8-0.7h1.4v-0.7c0-0.5-0.2-0.9-0.5-1.2
				c-0.3-0.3-0.7-0.4-1.3-0.4c-0.5,0-0.9,0.1-1.3,0.4c-0.3,0.3-0.5,0.6-0.5,0.9h-1.5c0-0.4,0.1-0.8,0.4-1.2c0.3-0.4,0.7-0.7,1.2-0.9
				c0.5-0.2,1.1-0.3,1.7-0.3c1,0,1.7,0.2,2.3,0.7c0.6,0.5,0.8,1.2,0.9,2v3.9c0,0.8,0.1,1.4,0.3,1.9v0.1H646.8z M644.4,2457.2
				c0.5,0,0.9-0.1,1.3-0.4s0.7-0.5,0.9-0.9v-1.7h-1.1c-1.8,0-2.7,0.5-2.7,1.6c0,0.5,0.2,0.8,0.5,1.1
				C643.6,2457.1,644,2457.2,644.4,2457.2z"/>
			<path class="st9" d="M650,2454.1c0-1.3,0.3-2.3,0.9-3.1c0.6-0.8,1.4-1.2,2.4-1.2c1,0,1.8,0.3,2.4,1v-4.4h1.4v12h-1.3l-0.1-0.9
				c-0.6,0.7-1.4,1.1-2.4,1.1c-1,0-1.8-0.4-2.4-1.2s-0.9-1.8-0.9-3.1V2454.1z M651.4,2454.2c0,1,0.2,1.7,0.6,2.2
				c0.4,0.5,0.9,0.8,1.6,0.8c0.9,0,1.6-0.4,2-1.2v-3.9c-0.4-0.8-1.1-1.2-2-1.2c-0.7,0-1.3,0.3-1.7,0.8
				C651.6,2452.3,651.4,2453.1,651.4,2454.2z"/>
			<path class="st9" d="M666.1,2456.4l2.1-6.5h1.5l-3,8.5h-1.1l-3.1-8.5h1.5L666.1,2456.4z"/>
			<path class="st9" d="M676.2,2458.3c-0.1-0.2-0.2-0.5-0.2-0.9c-0.7,0.7-1.5,1-2.4,1c-0.8,0-1.5-0.2-2.1-0.7
				c-0.5-0.5-0.8-1.1-0.8-1.8c0-0.9,0.3-1.6,1-2.1c0.7-0.5,1.6-0.7,2.8-0.7h1.4v-0.7c0-0.5-0.2-0.9-0.5-1.2
				c-0.3-0.3-0.7-0.4-1.3-0.4c-0.5,0-0.9,0.1-1.3,0.4c-0.3,0.3-0.5,0.6-0.5,0.9h-1.5c0-0.4,0.1-0.8,0.4-1.2c0.3-0.4,0.7-0.7,1.2-0.9
				c0.5-0.2,1.1-0.3,1.7-0.3c1,0,1.7,0.2,2.3,0.7c0.6,0.5,0.8,1.2,0.9,2v3.9c0,0.8,0.1,1.4,0.3,1.9v0.1H676.2z M673.8,2457.2
				c0.5,0,0.9-0.1,1.3-0.4s0.7-0.5,0.9-0.9v-1.7h-1.1c-1.8,0-2.7,0.5-2.7,1.6c0,0.5,0.2,0.8,0.5,1.1
				C672.9,2457.1,673.3,2457.2,673.8,2457.2z"/>
			<path class="st9" d="M681.2,2458.3h-1.4v-12h1.4V2458.3z"/>
			<path class="st9" d="M683.1,2454c0-0.8,0.2-1.6,0.5-2.2c0.3-0.7,0.8-1.2,1.4-1.5c0.6-0.4,1.2-0.5,2-0.5c1.2,0,2.1,0.4,2.8,1.2
				s1.1,1.9,1.1,3.2v0.1c0,0.8-0.2,1.6-0.5,2.2c-0.3,0.7-0.8,1.2-1.4,1.5s-1.3,0.5-2,0.5c-1.1,0-2.1-0.4-2.8-1.2s-1.1-1.9-1.1-3.2
				V2454z M684.6,2454.2c0,0.9,0.2,1.7,0.7,2.3c0.4,0.6,1,0.9,1.7,0.9c0.7,0,1.3-0.3,1.8-0.9c0.4-0.6,0.6-1.4,0.6-2.4
				c0-0.9-0.2-1.7-0.7-2.3c-0.4-0.6-1-0.9-1.8-0.9c-0.7,0-1.3,0.3-1.7,0.9S684.6,2453.2,684.6,2454.2z"/>
			<path class="st9" d="M696.7,2451.2c-0.2,0-0.5-0.1-0.7-0.1c-0.9,0-1.6,0.4-1.9,1.2v6h-1.4v-8.5h1.4l0,1c0.5-0.8,1.1-1.1,2-1.1
				c0.3,0,0.5,0,0.6,0.1V2451.2z"/>
			<path class="st9" d="M701.6,2458.5c-1.1,0-2.1-0.4-2.8-1.1s-1.1-1.8-1.1-3v-0.3c0-0.8,0.2-1.6,0.5-2.2s0.8-1.2,1.3-1.5
				c0.6-0.4,1.2-0.6,1.9-0.6c1.1,0,2,0.4,2.6,1.1s0.9,1.8,0.9,3.1v0.6h-5.7c0,0.8,0.3,1.5,0.7,2c0.5,0.5,1.1,0.8,1.8,0.8
				c0.5,0,0.9-0.1,1.3-0.3c0.4-0.2,0.7-0.5,0.9-0.8l0.9,0.7C704,2458,703,2458.5,701.6,2458.5z M701.4,2450.9
				c-0.6,0-1.1,0.2-1.5,0.6c-0.4,0.4-0.6,1-0.7,1.8h4.2v-0.1c0-0.7-0.2-1.3-0.6-1.7C702.5,2451.1,702,2450.9,701.4,2450.9z"/>
			<path class="st9" d="M707.9,2449.9l0,0.9c0.6-0.7,1.5-1.1,2.5-1.1c1.2,0,2,0.5,2.4,1.4c0.3-0.4,0.6-0.7,1.1-1
				c0.5-0.2,1-0.4,1.6-0.4c1.9,0,2.8,1,2.8,2.9v5.7h-1.4v-5.6c0-0.6-0.1-1.1-0.4-1.4c-0.3-0.3-0.7-0.4-1.4-0.4c-0.5,0-1,0.2-1.3,0.5
				c-0.4,0.3-0.6,0.8-0.6,1.3v5.6h-1.5v-5.5c0-1.2-0.6-1.8-1.8-1.8c-0.9,0-1.6,0.4-1.9,1.2v6.2h-1.4v-8.5H707.9z"/>
		</g>
		<g id="StCPvf" transform="translate(770.158 2629.135)">
			<g id="Grupo_120734">
				<path id="Trazado_185952" class="st9" d="M35.3,14.7c-0.3-0.3-0.5-0.7-0.4-1.2c0-0.2,0-0.5-0.1-0.7c-0.1-1.3-0.3-2.6-0.7-3.8
					c-0.2-1.1-1-1.9-2-2.4c-0.1,0-0.1-0.1-0.2-0.2c-0.5-1.1-1.5-1.9-2.7-2c-1.4-0.2-2.9-0.2-4.4,0.1c-2,0.2-4.1,0.3-6.1,0.3
					c-2.3-0.1-4.6,0-6.9,0.2c-0.2,0-0.4,0.2-0.5,0c-0.1-0.2,0.1-0.3,0.2-0.4c0.8-1.1,1.2-2.5,1.1-3.8c0-0.4-0.3-0.7-0.7-0.6
					c-0.2,0.1-0.3,0.2-0.4,0.4C10.9,1.3,10,2.1,9.1,2.8C9,2.9,8.8,2.9,8.7,2.9c-0.9-0.1-1.9-0.1-2.9,0c-0.2,0-0.4,0-0.5-0.1
					C4.4,2.1,3.6,1.3,2.9,0.4C2.8,0.2,2.6-0.1,2.2,0C1.8,0.1,1.8,0.5,1.8,0.8C1.8,2.1,2.2,3.5,3,4.6c0.1,0.1,0.2,0.2,0.1,0.3
					C3,5,2.9,5,2.8,5C2,4.9,1.1,5.1,0.4,5.5C0.1,5.6-0.1,5.9,0,6.2c0,0.1,0.1,0.2,0.2,0.2c0.6,0.8,1.4,1.3,2.4,1.5
					c0.2,0,0.3,0.1,0.3,0.3c0.1,1.1,0.3,2.1,0.7,3.2c0.3,1.1,1,2,2,2.4c0.5,0.2,1,0.5,1.3,0.9c0.3,0.3,0.5,0.5,0.8,0.8
					c0.7,0.7,1.1,1.5,1.3,2.4c0.3,2.8,0.4,5.7,0.2,8.5c0,0.4,0.2,0.7,0.6,0.7c0.5,0,1,0,1.5,0c0.4,0,0.6-0.1,0.7-0.6
					c0.3-1.4,0.6-2.8,0.8-4.2c0-0.1,0-0.3,0.1-0.4c0,0.1,0.1,0.2,0,0.3c0.1,1.4,0.1,2.8,0.1,4.1c0,0.5,0.2,0.7,0.7,0.7
					c0.6,0,1.2,0,1.8,0c0.5,0,0.6-0.1,0.7-0.6c0.3-2.1,0.7-4.2,0.9-6.3c0.1-0.7,0.4-1.4-0.3-2c0,0,0,0,0-0.1c0.1,0,0.1,0,0.1,0
					c1.8,0,3.6,0,5.3-0.1c0.2,0,0.3,0.1,0.4,0.2c0.5,0.7,1,1.2,1.7,1.7c0.2,0.1,0.3,0.3,0.2,0.5c-0.2,2-0.4,4-0.6,6
					c0,0.5,0.2,0.7,0.6,0.7c0.7,0,1.3,0,2,0c0.3,0,0.6-0.2,0.6-0.5c0,0,0,0,0-0.1c0.1-0.9,0.3-1.7,0.4-2.6c0.2-1.3,0.4-2.7,0.6-4.1
					c0.3,0.1,0.5,0.2,0.4,0.6c0,0.2-0.1,0.4-0.1,0.7c-0.2,1.7-0.3,3.5-0.5,5.2c0,0.5,0.1,0.7,0.7,0.7s1.1,0,1.6,0
					c0.7,0,0.8-0.1,0.9-0.8c0.3-1.9,0.6-3.7,0.8-5.6c0.2-1.7,0.3-3.4,0.1-5.1c-0.2-1.1-0.2-2.3,0-3.4c0.3-1.3,0.4-2.7,0.4-4
					c0,0,0,0,0.1,0c0.3,0.4,0.5,0.8,0.6,1.2c0.5,1.6,0.7,3.2,0.8,4.9c0,0.1,0,0.2-0.1,0.3c-0.3,0.2-0.5,0.6-0.6,0.9
					c-0.3,1.2,0,2.5,0.8,3.4c0.1,0.3,0.5,0.4,0.7,0.2c0.1-0.1,0.2-0.1,0.2-0.2c0.5-0.7,0.8-1.4,0.9-2.3
					C35.9,15.8,35.7,15.2,35.3,14.7z M2.8,6.2c0,0.7-0.1,0.7-0.7,0.4C1.8,6.6,1.6,6.4,1.4,6.2C1.8,6.1,2.2,6,2.6,6
					C2.8,6,2.8,6.1,2.8,6.2L2.8,6.2z M19.5,5.8c2.4,0,4.8-0.3,7.2-0.5c0.8-0.1,1.6,0,2.4,0.1c-1.6,1.3-3.1,2.8-4.4,4.4
					c-0.8,0.8-2.1,1.1-3.2,0.6c-1-0.3-1.7-1.2-1.7-2.2c-0.1-0.7-0.2-1.5-0.4-2.2C19.3,5.9,19.2,5.8,19.5,5.8L19.5,5.8z M12.3,6
					c0.3,0,0.5,0.1,0.8,0.2c-0.3,0.3-0.7,0.5-1.1,0.6c-0.2,0.1-0.3,0-0.3-0.2C11.7,6,11.7,6,12.3,6L12.3,6z M10.6,2.9
					c0.3-0.2,0.5-0.5,0.8-0.7c-0.1,0.6-0.4,1.2-0.7,1.7c-0.2-0.2-0.5-0.3-0.5-0.5S10.5,3.1,10.6,2.9L10.6,2.9z M3.4,3.2
					C3.3,2.9,3.1,2.6,3,2.4l0.1-0.1l1.2,1.1c0,0,0,0.1,0,0.1C3.7,3.9,3.7,3.9,3.4,3.2L3.4,3.2z M7.5,13c-1.9,0-2.6-0.5-3.1-2.3
					C3.9,9.4,3.8,7.9,3.8,6.4C3.8,5.1,4.8,4,6.1,3.9c0,0,0.1,0,0.1,0c0.8-0.1,1.5-0.1,2.3,0.1c1.1,0.2,2,1.1,2,2.3
					c0,0.3,0,0.7,0.1,1c0,1.4-0.3,2.8-0.8,4.2C9.6,12.4,8.6,13.1,7.5,13L7.5,13z M11.8,21.4c-0.3,1.4-0.6,2.9-0.9,4.3
					c-0.1,0.3-0.4,0.4-0.7,0.3c0,0,0,0,0,0c-0.1-0.1,0-0.2,0-0.2c0.1-1.8,0.1-3.6-0.1-5.4c0-0.7-0.1-1.4-0.2-2.2
					c0.8,0.6,1.6,1,2.4,1.4C12,20.1,11.8,20.7,11.8,21.4z M20.3,17c-0.4,0-0.9,0-1.4,0c-0.9,0.2-1.9-0.1-2.6-0.8
					c-0.5-0.3-1-0.8-1.5-1.2c-0.6-0.7-0.6-1.2,0.2-1.7c0.8-0.6,1.9-0.8,2.8-0.5c0.4,0.1,0.7,0.3,0.9,0.6c0.3,0.4,0.6,0.8,0.8,1.3
					c0.3,0.7,0.6,1.3,0.9,2C20.6,16.9,20.5,17,20.3,17L20.3,17z M27.1,19.3c-0.2,2.2-0.5,4.4-0.9,6.5c0,0.2-0.1,0.2-0.2,0.2
					c-0.2,0-0.4,0-0.6,0c-0.2,0-0.3,0-0.3-0.3c0.1-1.1,0.2-2.2,0.3-3.4c0.1-0.8,0.2-1.7,0.2-2.5c0-0.3-0.1-0.5-0.3-0.6
					c-0.6-0.4-1.2-0.8-1.6-1.4c0.7-0.1,1.5-0.2,2.2-0.4c0.1,0,0.2,0,0.2,0.1c0.2,0.5,0.5,1,0.9,1.4C27.1,19,27.1,19.2,27.1,19.3
					L27.1,19.3z M31.1,11.4c-0.3,1.4-0.3,2.9-0.1,4.3c0.2,1.6,0.2,3.3-0.1,5c-0.2,1.7-0.5,3.4-0.7,5.1c0,0.3-0.1,0.3-0.4,0.3
					c-0.8,0-0.8,0-0.7-0.8c0.2-1.7,0.3-3.5,0.5-5.2c0.1-0.3-0.1-0.7-0.5-0.8c-0.9-0.4-1.6-1-2-1.9c-0.1-0.2-0.2-0.5-0.2-0.8
					c0-0.3-0.2-0.5-0.5-0.5c-0.1,0-0.2,0-0.3,0.1c-0.9,0.4-1.8,0.7-2.7,0.7c-0.5,0.1-0.9,0.1-1.4,0.1c-0.2,0.1-0.3,0-0.4-0.2
					c0,0,0,0,0,0c-0.3-0.7-0.6-1.4-0.9-2.1c-0.1-0.3-0.3-0.6-0.5-0.9c-0.8-1.7-2.8-2.5-4.5-1.8C15,12,14.3,12.5,13.8,13
					c-0.5,0.6-0.6,1.4-0.2,2.1c0.3,0.5,0.6,0.9,1.1,1.2c0.3,0.2,0.5,0.4,0.8,0.6c-0.4,0.3-0.4,0.5-0.2,1c0.1,0.2,0.2,0.3,0.3,0.5
					c0.4,0.4,0.6,1.1,0.4,1.7c-0.2,1.9-0.5,3.8-0.8,5.7c0,0.2-0.1,0.3-0.3,0.3C14,26,14,26,14,25.1c0-1.9-0.1-3.7-0.2-5.6
					c0-0.3-0.2-0.6-0.5-0.7c-1.1-0.5-2.1-1.1-3-1.9c-0.3-0.2-0.6-0.5-0.8-0.9c-0.5-0.7-1.1-1.4-1.7-2.1c0.3,0,0.5,0,0.7-0.1
					c1.2-0.2,2.2-1.1,2.6-2.2c0.4-1.1,0.7-2.3,0.8-3.5c0-0.2,0.1-0.3,0.3-0.3c0.9-0.2,1.7-0.7,2.3-1.4c0.1-0.1,0.3-0.3,0.2-0.4
					c-0.1-0.4,0.2-0.4,0.4-0.4c1,0,1.9,0,2.9,0c0.2,0,0.4,0.1,0.4,0.3c0.2,0.7,0.4,1.4,0.5,2.1c0.2,2.2,2.1,3.8,4.2,3.6
					c0.6,0,1.1-0.2,1.6-0.5c0.5-0.3,0.9-0.6,1.2-1c0.9-1,1.7-2,2.7-2.9c0.5-0.5,1-0.9,1.6-1.3c0.3-0.2,0.4-0.1,0.6,0.1
					c0.5,0.6,0.7,1.3,0.8,2C31.4,9.2,31.3,10.3,31.1,11.4L31.1,11.4z M34.4,17.6c-0.3-0.6-0.4-1.3-0.2-2c0-0.1,0.1-0.3,0.2-0.3
					s0.2,0.2,0.2,0.3C34.8,16.2,34.7,17,34.4,17.6L34.4,17.6z"/>
				<path id="Trazado_185953" class="st9" d="M12.8,22.1c0,0.1,0,0.2-0.1,0.2l0.1-0.1C12.8,22.2,12.8,22.1,12.8,22.1z"/>
				<path id="Trazado_185954" class="st9" d="M12.8,21.9c-0.1,0.1-0.1,0.3-0.1,0.4c0-0.1,0.1-0.1,0.1-0.2c0,0,0,0,0-0.1l0,0.1
					c0,0.1,0,0.1,0,0.2C12.8,22.1,12.8,22,12.8,21.9z"/>
				<path id="Trazado_185955" class="st9" d="M12.8,22.1C12.8,22.1,12.8,22,12.8,22.1C12.8,22.1,12.8,22.1,12.8,22.1z"/>
			</g>
		</g>
		<g id="Grupo_120735" transform="translate(908.891 2626.632)">
			<path id="Trazado_185956" class="st9" d="M37,12c-0.4-1-1.1-1.8-1.9-2.4c-0.3-0.2-0.5-0.5-0.5-0.8c-0.2-0.7-0.3-1.4-0.5-2.1
				C34,6.4,33.9,6.1,33.5,6C33.2,6,33,6.2,32.8,6.4c-0.2,0.4-0.5,0.7-0.7,1c-0.2,0.3-0.4,0.3-0.6,0c-0.1-0.1-0.2-0.2-0.3-0.4
				c-0.5-0.7-1.2-1.3-2.1-1.8c-1.6-0.9-3.5-0.9-5.2-0.2c-0.1,0.1-0.3,0.2-0.3-0.1c-0.3-1-0.7-2-1.2-2.9c-0.2-0.5-0.5-0.6-1-0.3
				C21,2,20.6,2.2,20.2,2.4c-0.1,0.1-0.2,0.1-0.3,0c0,0,0,0,0,0c-0.9-1-2-1.7-3.2-2.3C16.4-0.1,16,0,15.8,0.3c0,0,0,0.1-0.1,0.1
				c-0.2,0.3-0.3,0.6-0.5,0.9c-0.5,0.7-0.8,1.6-1,2.4c0,0.2-0.2,0.2-0.3,0.3c-0.9,0.3-1.7,0.8-2.2,1.6c-0.2,0.2-0.3,0.2-0.5,0.1
				C9.8,5,8.2,4.9,6.8,5.3C6.3,5.5,6.1,5.7,6.2,6.1s0.4,0.5,0.9,0.4c0.4-0.1,0.7-0.2,1.1-0.2c2.1-0.2,4.1,1.1,4.9,3.1
				c0.1,0.3,0.1,0.5-0.2,0.7c-0.1,0.1-0.3,0.2-0.3,0.4c-0.1,0.3-0.3,0.3-0.6,0.3c-1-0.1-2,0.2-2.7,1c-0.2,0.2-0.2,0.6,0,0.9
				c0.2,0.2,0.4,0.2,0.6,0.2c0.1-0.1,0.3-0.1,0.4-0.2c0.4-0.3,0.9-0.5,1.4-0.5c0.3,0,0.6,0,0.6,0.5c0,0.1,0,0.2,0.1,0.3
				c0.1,0.2,0.1,0.2-0.1,0.3c-0.4,0.1-0.8,0.3-1.1,0.5c-0.6,0.3-1,0.9-1,1.5c0,0.8,0,0.8-0.9,1c0,0-0.1,0-0.1,0
				c-0.2,0-0.2,0-0.3-0.2c-0.6-1.6-2.3-2.5-4-2c-0.1,0.1-0.3,0-0.3-0.1c0,0,0,0,0,0c-0.7-1.1-0.9-2.4-0.6-3.7c0.2-1,0.8-1.9,1.6-2.6
				c0.3-0.2,0.3-0.6,0.2-0.8c0,0,0-0.1-0.1-0.1c-0.2-0.2-0.6-0.3-0.9,0c0,0,0,0,0,0c-2.3,1.9-2.8,5.2-1.2,7.8
				c0.1,0.1,0.2,0.2,0.1,0.4c-0.3,0.3-0.5,0.7-0.7,1.2c-1.2-1-2.2-2.5-0.9-4.3c0.2-0.2,0.2-0.6,0-0.8c0,0-0.1-0.1-0.1-0.1
				c-0.3-0.2-0.7-0.1-0.9,0.2c0,0,0,0,0,0c-0.4,0.6-0.7,1.3-0.9,2V14c0.1,0.1,0.1,0.2,0.1,0.3l0,0v0.1l0,0c0,0.1,0,0.1-0.1,0.1v0.3
				c0.1,0,0.1,0.1,0.1,0.2c0.1,1.3,0.4,2.6,0.8,3.9c2.3,7.3,8.9,12.4,16.5,12.9c5.4,0.4,10.7-1.6,14.5-5.5c0.4-0.4,0.4-0.8,0-1
				c-0.3-0.2-0.7-0.2-0.9,0.1c-0.5,0.5-1,0.9-1.5,1.4c-4.5,3.6-10.5,4.8-16,3.1c-2.8-0.8-5.3-2.3-7.3-4.4c-2.4-2.4-4.1-5.5-4.7-8.9
				c0.1,0,0.2,0,0.3,0.1c1.3,1,2.7,1.9,4.3,2.4c2.8,1,5.8,1.6,8.7,1.8c4.3,0.4,8.7,0.1,13-0.8c2.3-0.5,4.5-1.3,6.6-2.6
				c0.5-0.3,0.9-0.7,1.4-1.1c-0.1,0.7-0.3,1.5-0.5,2.2c-0.6,2-1.6,3.8-2.9,5.4c-0.3,0.4-0.3,0.8,0,1s0.7,0.1,1-0.3
				c0.5-0.7,1-1.3,1.4-2c1.7-2.9,2.6-6.1,2.6-9.5C37.3,12.9,37.2,12.4,37,12z M7.6,17.4c-0.2,0.7-0.4,0.8-1.1,0.6
				c-0.8-0.3-1.6-0.7-2.4-1.1c-0.2-0.1-0.3-0.3-0.2-0.4c0,0,0,0,0,0c0.2-1,1.3-1.7,2.3-1.5c0.9,0.2,1.5,1,1.5,1.9
				C7.7,17,7.7,17.2,7.6,17.4L7.6,17.4z M9.9,18.9l-1.5-0.4c0.2-0.4,0.4-0.8,0.5-1.2c0-0.1,0-0.2,0.1-0.2c0.4-0.1,0.7-0.1,1.1-0.2
				c0.1,0,0.1,0.1,0.1,0.1c0,0.5,0,1.1,0,1.6C10.1,19,10,19,9.9,18.9z M23.7,7c0-0.3,0.2-0.5,0.4-0.6c2.4-1.2,5.3-0.2,6.5,2.2
				c0.1,0.1,0.1,0.2,0.2,0.4c0.1,0.1,0,0.2,0,0.3c-0.1,0.1-0.2,0.3-0.3,0.5c-0.3-0.4-0.6-0.8-1-1.2c-0.4-0.5-0.9-0.5-1.2,0.1
				c-1.1,1.8-2.3,3.7-3.4,5.5c-0.1,0.2-0.2,0.3-0.5,0.1c-0.2-0.2-0.5-0.2-0.7-0.3c-0.2,0-0.3-0.1-0.2-0.3c0-0.2,0-0.4,0-0.5
				c0-0.3-0.3-0.5-0.7-0.5c-0.3,0-0.5,0.3-0.5,0.6c0,0.2,0,0.4-0.1,0.6c-0.2,0.6-0.8,1-1.4,0.8c-0.6-0.2-1-0.8-0.8-1.4
				c0.2-0.6,0.7-0.9,1.3-0.8c0.1,0,0.2,0.1,0.4,0.1c0.3,0.1,0.7-0.1,0.7-0.5c0.1-0.3-0.1-0.6-0.4-0.7c-0.1-0.1-0.3-0.1-0.5-0.2
				c0.6-0.5,1.1-1.1,1.5-1.8C23.4,8.7,23.7,7.9,23.7,7z M21.4,3.2c0.1,0,0.1,0,0.2,0.1c0.5,0.9,0.9,1.9,0.9,3C22.6,7.7,22,9,21,10
				c-0.1,0.1-0.2,0.2-0.3,0c-0.1-0.2-0.2-0.4-0.3-0.5c-0.1-0.1-0.1-0.2-0.1-0.4c0.2-1.5-0.3-2.9-1.3-4c-0.1-0.1-0.1-0.2,0-0.3
				C19.6,4.1,20.5,3.6,21.4,3.2L21.4,3.2z M19.7,11.1c0,0.6-0.5,1.1-1.2,1.1s-1.1-0.5-1.1-1.2c0-0.6,0.5-1.1,1.1-1.1
				C19.2,9.9,19.7,10.4,19.7,11.1C19.7,11.1,19.7,11.1,19.7,11.1L19.7,11.1z M16.5,1.6c0.1-0.1,0.1-0.1,0.2-0.1
				c0.9,0.4,1.6,1,2.2,1.7c-0.4,0.3-0.7,0.6-1,1c0,0.1-0.2,0.1-0.2,0.1c0,0,0,0,0,0c-0.3-0.2-0.7-0.3-1-0.4
				c-0.4-0.1-0.7-0.1-1.1-0.2C15.7,2.9,16.1,2.2,16.5,1.6L16.5,1.6z M12.6,6.7c-0.2-0.2-0.1-0.2,0-0.4c1.2-1.6,3.5-1.8,5.1-0.6
				c0.8,0.7,1.3,1.7,1.4,2.8c0,0.1,0.1,0.3-0.2,0.2c-1.1-0.2-2.2,0.5-2.5,1.5c-0.5-0.5-1.1-0.8-1.8-0.8c-0.2,0-0.2-0.1-0.2-0.2
				C14,8.3,13.4,7.4,12.6,6.7L12.6,6.7z M15.4,12.6c-0.2,0.2-0.2,0.2-0.9,0.2c-0.8,0-1-0.2-1.1-0.7c-0.1-0.5,0.2-1,0.7-1.2
				c0.5-0.2,1.1-0.1,1.4,0.4C15.8,11.6,15.8,12.2,15.4,12.6L15.4,12.6z M16.7,19.8c-1.7-0.1-3.5-0.3-5.2-0.5c-0.2,0-0.3-0.1-0.3-0.3
				c0-0.8,0-1.5,0-2.4c1,0.5,2.1,0.7,3.2,0.6c0.2,0,0.4,0,0.7-0.1c0.4-0.1,0.7-0.3,0.6-0.7c0-0.3-0.3-0.6-0.7-0.5c0,0,0,0-0.1,0
				c-0.6,0.1-1.3,0.1-1.9,0c-0.5-0.1-0.9-0.2-1.4-0.4c-0.2-0.1-0.5-0.2-0.5-0.5c0-0.3,0.3-0.4,0.4-0.5c0.5-0.3,1.1-0.4,1.7-0.5
				c0.9-0.1,1.8,0,2.6,0.3c0.3,0.1,0.5,0.2,0.7,0.4C17,14.8,17,15,17,15.2c0,0-0.1,0.1-0.1,0.1c-0.1,0.1-0.2,0.2-0.4,0.3
				c-0.2,0.1-0.3,0.4-0.2,0.6c0,0.2,0.3,0.4,0.5,0.4c0.2,0,0.3,0.1,0.3,0.3c0,0.9,0,1.7,0,2.6C17,19.8,17,19.8,16.7,19.8L16.7,19.8z
				 M18.2,14.5c-0.3-0.6-0.7-1-1.3-1.3c0.6-0.1,1.2,0.2,1.3,0.8C18.2,14.2,18.2,14.4,18.2,14.5L18.2,14.5z M19.4,19.7
				c-0.2,0.4-0.6,0.1-0.8,0.2c-0.1,0-0.3,0.1-0.3-0.2s0-0.5,0-0.8c0.2,0.2,0.5,0.3,0.8,0.3C19.4,19.2,19.5,19.4,19.4,19.7L19.4,19.7
				z M19.6,18c-0.6,0-1.2-0.5-1.2-1.1c0-0.6,0.5-1.2,1.1-1.2c0.6,0,1.2,0.5,1.2,1.1C20.7,17.5,20.2,18,19.6,18z M22.7,19.7
				c-0.6,0-1.1,0.1-1.7,0.1c-0.4,0-0.5,0-0.4-0.4c0.1-0.5,0.6-0.9,1.2-0.9c0.5,0,1,0.4,1.1,0.9C22.9,19.6,22.9,19.7,22.7,19.7
				L22.7,19.7z M22.1,16.4c0-0.6,0.5-1.1,1.2-1.1c0.6,0,1.1,0.5,1.1,1.2c0,0.6-0.5,1.1-1.2,1.1c0,0,0,0,0,0
				C22.6,17.5,22.1,17,22.1,16.4L22.1,16.4z M27.7,12.3c-0.4,2.2-0.8,4.4-1.2,6.6c0,0.1-0.1,0.2-0.2,0.2c-0.6,0.1-1.3,0.2-1.9,0.3
				c-0.2,0-0.2,0-0.2-0.2c0,0,0,0,0,0c-0.1-0.4-0.1-0.6,0.3-0.8c1-0.5,1.4-1.6,1.1-2.6c-0.1-0.2,0-0.4,0.1-0.6c0.6-1,1.3-2,1.9-3.1
				c0-0.1,0.1-0.2,0.1-0.1C27.8,12.1,27.7,12.2,27.7,12.3L27.7,12.3z M33.7,13.9c-0.1-0.1-0.1-0.2-0.2-0.3c-0.2-0.3-0.6-0.3-0.9-0.2
				c-0.3,0.2-0.3,0.6-0.2,0.9c0,0,0,0.1,0.1,0.1c0.3,0.4,0.6,0.8,0.9,1.1c0.2,0.2,0.4,0.5,0.6,0.7c-1.1,0.7-2.3,1.3-3.6,1.8
				c-0.8,0.3-1.6,0.5-2.4,0.7c-0.3,0.1-0.3,0-0.2-0.2c0.4-2.1,0.8-4.2,1.1-6.3c0.1-0.6,0.2-1.2,0.3-1.9l1.2,1.5
				c0.3,0.4,0.6,0.7,0.9,1.1c0.2,0.3,0.6,0.4,0.8,0.2c0.3-0.2,0.4-0.6,0.2-0.8c0-0.1-0.1-0.1-0.1-0.1c-0.3-0.4-0.6-0.8-0.9-1.2
				c-0.1-0.1-0.1-0.2,0-0.3c0.6-0.8,1.2-1.7,1.8-2.5c0.1,0.3,1.7,6.7,1.8,7.3L33.7,13.9z M35.8,14l-0.6-2.5
				C35.9,12.1,36.1,13.1,35.8,14L35.8,14z"/>
			<path id="Trazado_185957" class="st9" d="M0,14.3c0-0.1,0-0.2,0-0.3L0,14.3L0,14.3L0,14.3z"/>
			<path id="Trazado_185958" class="st9" d="M0,14.3L0,14.3L0,14.3c0-0.1,0.1-0.2,0-0.3C0.1,14.1,0,14.2,0,14.3z"/>
			<path id="Trazado_185959" class="st9" d="M0,14.4v-0.1c0,0,0,0,0,0L0,14.4L0,14.4C0,14.4,0,14.4,0,14.4z"/>
			<path id="Trazado_185960" class="st9" d="M0,14.3v0.1c0,0,0,0,0,0h0L0,14.3L0,14.3C0.1,14.3,0,14.3,0,14.3z"/>
			<path id="Trazado_185961" class="st9" d="M0,14.3L0,14.3L0,14.3C0,14.3,0,14.3,0,14.3z"/>
			<path id="Trazado_185962" class="st9" d="M0,14.3C0,14.3,0.1,14.3,0,14.3L0,14.3L0,14.3L0,14.3z"/>
			<path id="Trazado_185963" class="st9" d="M0,14.4v0.1C0,14.5,0,14.5,0,14.4C0,14.5,0,14.5,0,14.4z"/>
			<path id="Trazado_185964" class="st9" d="M0.1,14.4L0.1,14.4C0.1,14.4,0,14.5,0.1,14.4c0,0.1,0,0.1-0.1,0.1
				C0.1,14.6,0.1,14.5,0.1,14.4z"/>
			<path id="Trazado_185965" class="st9" d="M0,14.5C0,14.4,0,14.4,0,14.5L0,14.5C0,14.5,0,14.5,0,14.5z"/>
			<path id="Trazado_185966" class="st9" d="M0,14.5C0,14.5,0.1,14.4,0,14.5L0,14.5C0,14.4,0,14.4,0,14.5z"/>
			<path id="Trazado_185969" class="st9" d="M27.6,12.2c0.1,0,0.1,0.1,0.1,0.1c0.1-0.1,0.1-0.2,0-0.3C27.7,12,27.6,12.1,27.6,12.2z"
				/>
			<path id="Trazado_185970" class="st9" d="M27.6,12.2c0.1,0,0,0.1,0.1,0.1C27.7,12.3,27.7,12.2,27.6,12.2z"/>
			<path id="Trazado_185971" class="st9" d="M26.4,7.5c0.3,0,0.6-0.3,0.6-0.6c0-0.3-0.3-0.6-0.6-0.6c-0.3,0-0.6,0.3-0.6,0.6
				C25.8,7.2,26,7.5,26.4,7.5z"/>
		</g>
		<g id="Grupo_120736" transform="translate(955.088 2563.855)">
			<path id="Trazado_185972" class="st9" d="M34.6,25.3c-3.8-6.4-7.7-12.7-11.5-19.1c-0.9-1.5-1.8-3-2.8-4.6c-0.5-1-1.5-1.6-2.6-1.6
				c-1.2-0.1-2.4,0.6-3,1.7C11.6,7,8.4,12.2,5.2,17.5c-1.8,3-3.8,5.8-5.2,9v1c0.1,0.3,0.2,0.5,0.3,0.8c0.5,1.2,1.7,2,3.1,1.9
				c9.5,0,18.9,0,28.4,0c0.1,0,0.2,0,0.3,0c0.7,0,1.3-0.3,1.8-0.7C35.2,28.4,35.5,26.6,34.6,25.3z M32.1,27.9c-0.2,0-0.3,0-0.5,0
				c-4.7,0-9.4,0-14.1,0H3.4c-0.3,0-0.5,0-0.7-0.2c-0.4-0.3-0.5-0.8-0.2-1.2c0,0,0,0,0,0c0.8-1.4,1.7-2.8,2.6-4.2
				C8.9,15.8,12.8,9.4,16.6,3c0.6-1,1.4-0.9,1.9,0c4.7,7.8,9.3,15.5,14,23.3c0.1,0.1,0.2,0.3,0.2,0.4c0.2,0.4,0,0.9-0.4,1.1
				C32.3,27.8,32.2,27.9,32.1,27.9L32.1,27.9z"/>
			<path id="Trazado_185973" class="st9" d="M16.3,19.3c0,0.4,0.2,0.7,0.6,0.9c0.3,0.1,0.5,0.1,0.8,0.1c0.8-0.1,1.1-0.4,1.1-1.2
				c0-0.3,0-0.6,0-0.9c0.1-2.4,0.2-4.8,0.3-7.3c0-0.3-0.1-0.7-0.2-0.9c-0.5-0.5-1.3-0.7-1.9-0.4c-0.6,0.2-1,0.8-0.9,1.4
				c0,1.4,0.1,2.7,0.2,4.5C16.2,16.4,16.3,17.9,16.3,19.3z"/>
			<path id="Trazado_185974" class="st9" d="M17.6,21.8c-0.9,0-1.6,0.7-1.6,1.6c0,0.9,0.7,1.6,1.6,1.6c0.9,0,1.6-0.8,1.6-1.7
				C19.2,22.5,18.5,21.8,17.6,21.8z"/>
		</g>
		<g id="Grupo_120737" transform="translate(948.846 2498.477)">
			<path id="Trazado_185975" class="st9" d="M29.8,23.4c0.1-0.5,0.2-1,0.3-1.5v-1.5c-0.1,0,0-0.1-0.1-0.1c-0.1-0.8-0.2-1.6-0.5-2.4
				c-1-3.3-2.8-6.4-5.2-8.9c-0.1-0.1-0.2-0.3-0.1-0.4c0,0,0,0,0,0c0.6-0.8,0.6-1.9,0.1-2.7c-0.5-0.9-1.3-1.5-2.2-2
				c-1.3-0.7-2.8-1.1-4.2-1.3c-0.3,0-0.5-0.2-0.7-0.4c-0.6-0.6-1.1-1.2-1.7-1.9c-0.4-0.5-0.7-0.5-1.2,0c-0.6,0.7-1.2,1.3-1.8,2
				c-0.1,0.1-0.2,0.2-0.4,0.2c-0.9,0.1-1.9,0.3-2.8,0.6c-1.2,0.4-2.4,1-3.3,1.9C5.1,6,5,7.5,5.8,8.6c0.1,0.1,0.1,0.2,0,0.3
				c0,0,0,0,0,0C4.2,10.5,3,12.3,2,14.3c-1,1.9-1.7,4-1.9,6.1c-0.2,1.7,0.2,3.4,1.2,4.9c0.1,0.1,0.1,0.3,0.1,0.5
				c-0.4,1.1-0.8,2.2-1.2,3.3c-0.2,0.5-0.1,0.7,0.3,1h0.4c0.8-0.2,1.6-0.3,2.3-0.5c1.1-0.2,2.2-0.4,3.3-0.6c0.1,0,0.3,0,0.4,0
				c2,0.6,4,0.9,6,1c0.1,0,0.1,0,0.2,0.1h3.9c0,0,0.1,0,0.1,0c0.2-0.1,0.5-0.1,0.7-0.1c1.8-0.1,3.7-0.4,5.4-1c0.3,0,0.6,0,0.8,0.1
				c1.7,0.3,3.4,0.6,5.1,0.9c0,0,0.1,0,0.1,0.1h0.4c0.5,0,0.5,0,0.5-0.4v-0.4c-0.1-0.2-0.1-0.4-0.1-0.5c-0.4-1-0.7-1.9-1.1-2.9
				c-0.1-0.2-0.1-0.4,0.1-0.5C29.3,24.7,29.6,24.1,29.8,23.4z M14.8,1.6c0.1-0.1,0.2-0.2,0.3,0c1.6,1.7,3.1,3.4,4.7,5.1
				c0,0,0,0,0.1,0.1c-3,1.9-6.8,1.9-9.8,0c0-0.1,0.1-0.2,0.2-0.2C11.8,4.9,13.3,3.3,14.8,1.6L14.8,1.6z M6.9,6
				c0.5-0.6,1.2-1.1,2-1.4c0.7-0.3,1.5-0.6,2.3-0.7c-0.8,0.8-1.5,1.6-2.3,2.4C8.4,6.8,8.5,7.2,9,7.5c1.3,0.8,2.7,1.4,4.3,1.7
				c1.7,0.3,3.4,0.2,5-0.4c1-0.3,1.9-0.8,2.8-1.4c0.3-0.1,0.5-0.5,0.3-0.8c0-0.1-0.1-0.2-0.2-0.2c-0.8-0.8-1.5-1.6-2.3-2.5
				c1.5,0.3,2.8,0.9,4,1.8c0.7,0.5,0.9,1.6,0.4,2.3c-0.1,0.1-0.2,0.3-0.4,0.4c-0.1,0.1-0.3,0.2-0.4,0.4c-1,0.7-2.2,1.2-3.5,1.4
				c-2.7,0.6-5.5,0.6-8.1,0C9.7,9.9,8.5,9.4,7.5,8.7C7.3,8.5,7.1,8.3,6.9,8.1C6.3,7.5,6.3,6.6,6.9,6z M13.5,30L13.5,30
				C13.5,30,13.5,30,13.5,30C13.5,30,13.5,30,13.5,30L13.5,30z M28.8,21.8c-0.2,1.5-0.8,2.8-1.9,3.8c-0.1,0.1-0.2,0.2-0.4,0.4
				c-0.2,0.2-0.2,0.5,0,0.7c0.2,0.2,0.5,0.3,0.7,0.2c0.2-0.1,0.3-0.2,0.5-0.4l0.8,2.1c-0.8-0.2-1.6-0.3-2.4-0.5
				c-0.9-0.2-1.7-0.3-2.6-0.4c-0.2,0-0.5,0-0.7,0.1c-1.6,0.6-3.2,0.9-4.9,0.9c-1.5,0.1-3.1,0.1-4.6,0c-2.2-0.1-4.3-0.5-6.4-1
				c-0.2,0-0.4,0-0.6,0c-1.6,0.3-3.2,0.6-4.7,0.9c0,0-0.1,0-0.1,0l0.8-2.1c0.1,0.1,0.2,0.2,0.4,0.3c0.2,0.2,0.6,0.2,0.8,0
				c0,0,0,0,0,0c0.2-0.2,0.2-0.6,0-0.8c0,0,0,0,0,0c-0.5-0.4-0.9-0.9-1.2-1.3c-0.8-1.2-1.2-2.6-1-4c0.3-2.5,1.2-4.9,2.5-7
				c0.8-1.4,1.8-2.7,2.9-3.8c0.1-0.1,0.1-0.2,0.3-0.1c1.5,1,3.2,1.6,5,1.8c2.2,0.3,4.4,0.3,6.5-0.1c0,0,0.1,0,0.2,0v0.9
				c0,1.1,0,2.1,0,3.2c0,0.3,0.2,0.6,0.5,0.7c0,0,0,0,0.1,0c0.3,0,0.6-0.3,0.6-0.6c0,0,0,0,0,0c0-0.1,0-0.1,0-0.2c0-1.3,0-2.6,0-3.9
				c0-0.2,0-0.3,0.2-0.3c0.3-0.1,0.6-0.2,0.9-0.3c0,0.1,0,0.2,0,0.3c0,1.1,0,2.3,0,3.4c0,0.5,0.4,0.8,0.8,0.6
				c0.2-0.1,0.4-0.4,0.3-0.6c0-1.3,0-2.6,0-4c0-0.2,0.1-0.3,0.2-0.4c0.2-0.1,0.5-0.3,0.7-0.4c0.2-0.1,0.2-0.1,0.4,0
				c2.1,2.2,3.7,4.9,4.7,7.8C28.7,18.9,28.9,20.4,28.8,21.8z"/>
			<path id="Trazado_185976" class="st9" d="M20,19.4H9.9c-0.6,0-0.8,0.2-0.8,0.8c0,1.4,0,2.9,0,4.3c0,0.6,0.2,0.8,0.8,0.8
				c3.4,0,6.8,0,10.2,0c0.6,0,0.8-0.2,0.8-0.8c0-1.4,0-2.9,0-4.3C20.9,19.6,20.7,19.4,20,19.4z M19.5,24.1c-1.5,0-3,0-4.5,0
				s-2.9,0-4.4,0c-0.2,0-0.3-0.1-0.3-0.3c0-1,0-2,0-3c0-0.2,0.1-0.2,0.2-0.2c3,0,5.9,0,8.9,0c0.2,0,0.2,0.1,0.2,0.2c0,1,0,2,0,3
				C19.7,24,19.6,24.1,19.5,24.1L19.5,24.1z"/>
			<path id="Trazado_185977" class="st9" d="M6.3,24.5c-1-0.6-1.7-1.6-2-2.8c-0.1-0.4-0.1-0.8-0.1-1.2C4.1,20,3.7,19.8,3.4,20
				c-0.2,0.2-0.3,0.4-0.3,0.7c0,0.6,0.1,1.1,0.2,1.7c0.5,1.5,1.5,2.7,2.9,3.4c0.1,0.1,0.2,0.1,0.3,0.1c0.2,0,0.5-0.1,0.5-0.3
				c0.1-0.2,0.1-0.5-0.1-0.6C6.7,24.7,6.5,24.6,6.3,24.5z"/>
			<path id="Trazado_185978" class="st9" d="M26.4,20.1c-0.4,0-0.6,0.2-0.6,0.7c0,0.1,0,0.1,0,0.2c-0.1,1.1-0.5,2-1.3,2.8
				c-0.4,0.4-0.8,0.7-1.3,0.9c-0.3,0.2-0.4,0.5-0.2,0.8c0.2,0.3,0.5,0.4,0.8,0.2c1.8-0.9,3-2.7,3.1-4.7
				C26.9,20.4,26.7,20.2,26.4,20.1z"/>
			<path id="Trazado_185979" class="st9" d="M4.2,18.8c0.3,0,0.6-0.3,0.6-0.6c0-0.3-0.3-0.6-0.6-0.6c-0.3,0-0.6,0.3-0.6,0.6
				C3.6,18.6,3.8,18.8,4.2,18.8z"/>
			<path id="Trazado_185980" class="st9" d="M21.6,16.4c-0.3,0-0.6,0.2-0.6,0.6s0.2,0.6,0.6,0.6s0.6-0.2,0.6-0.6c0,0,0,0,0,0
				C22.2,16.7,21.9,16.4,21.6,16.4z"/>
			<path id="Trazado_185981" class="st9" d="M15,5.2c0.3,0,0.6-0.3,0.6-0.6C15.6,4.2,15.3,4,15,4c-0.3,0-0.6,0.3-0.6,0.6
				C14.4,4.9,14.7,5.2,15,5.2z"/>
			<path id="Trazado_185982" class="st9" d="M13.8,7c0.3,0,0.6-0.3,0.6-0.6c0-0.3-0.3-0.6-0.6-0.6c-0.3,0-0.6,0.3-0.6,0.6
				C13.3,6.8,13.5,7,13.8,7z"/>
			<path id="Trazado_185983" class="st9" d="M16.2,7c0.3,0,0.6-0.3,0.6-0.6c0-0.3-0.3-0.6-0.6-0.6s-0.6,0.3-0.6,0.6c0,0,0,0,0,0
				C15.6,6.8,15.9,7,16.2,7z"/>
			<path id="Trazado_185984" class="st9" d="M15.5,21.7c-1.1,0-2.2,0-3.3,0c-0.4,0-0.7,0.2-0.7,0.6s0.3,0.6,0.7,0.6
				c0.5,0,1.1,0,1.6,0c0.6,0,1.1,0,1.7,0c0.4,0,0.7-0.2,0.7-0.6S15.9,21.7,15.5,21.7z"/>
			<path id="Trazado_185985" class="st9" d="M17.9,21.7c-0.3,0-0.6,0.3-0.6,0.6c0,0.3,0.3,0.6,0.6,0.6c0.3,0,0.6-0.3,0.6-0.6
				c0,0,0,0,0,0C18.5,22,18.2,21.7,17.9,21.7z"/>
		</g>
		<g id="Grupo_120738" transform="translate(727.285 2570.151)">
			<path id="Trazado_185986" class="st9" d="M29.5,23c-0.2,0-0.4,0-0.6,0c0-1.2,0-2.4,0-3.6c0-0.1,0.1-0.2,0.2-0.3
				c1.2-0.7,1.6-2.2,1-3.4c-0.2-0.4-0.6-0.7-1-1c-0.2-0.1-0.2-0.2-0.2-0.4c0-1.9,0-3.8,0-5.8c0-0.5,0-1-0.1-1.5
				c-0.6-3.2-3.5-5.6-6.8-5.5c-3.5,0-7.1,0-10.6,0c-0.2,0-0.4-0.1-0.5-0.3c-0.6-1.2-2.2-1.7-3.4-1.1C7,0.5,6.7,0.9,6.4,1.4
				C6.4,1.5,6.2,1.6,6,1.6c-1.3,0-2.6,0-3.9,0c-0.1,0-0.2,0-0.3,0c0-0.3,0-0.5,0-0.8C1.8,0.4,1.3,0,0.8,0C0.5,0,0.3,0.2,0.1,0.5
				C0.1,0.5,0,0.6,0,0.7v11.1c0,0,0,0,0,0c0.1,0.4,0.6,0.7,1,0.6c0.4-0.1,0.7-0.5,0.7-1c0-0.2,0-0.4,0-0.6h0.3c1.3,0,2.6,0,3.9,0
				c0.2,0,0.3,0.1,0.4,0.3c0.6,1.2,2.1,1.7,3.4,1.1c0.5-0.2,0.9-0.6,1.1-1.1c0.1-0.2,0.2-0.3,0.4-0.3c2.6,0,5.2,0,7.9,0h0.3
				c0,0,0,0.1,0,0.1c0,1.2,0,2.3,0,3.5c0,0.1-0.1,0.2-0.2,0.3C18.5,15.2,17.9,16,18,17c0,0.9,0.5,1.8,1.3,2.2
				c0.1,0.1,0.2,0.2,0.2,0.4c0,1,0,2,0,3V23c-0.2,0-0.4,0-0.6,0c-0.5,0-0.9,0.3-1,0.8c0,0.5,0.3,0.9,0.8,1c0,0,0.1,0,0.1,0
				c3.5,0,7,0,10.6,0c0.5,0,0.9-0.4,0.9-0.8C30.4,23.5,30,23.1,29.5,23C29.5,23,29.5,23,29.5,23L29.5,23z M6.1,9H1.8V3.4h4.3L6.1,9z
				 M9.4,9.8c0,0.5-0.3,0.9-0.7,0.9s-0.7-0.3-0.7-0.8c0-1.2,0-2.4,0-3.6c0-1.1,0-2.3,0-3.4c0-0.1,0-0.3,0-0.4C8,2,8.4,1.7,8.8,1.8
				c0.3,0.1,0.5,0.3,0.6,0.6c0,0.1,0,0.3,0,0.4c0,2.3,0,4.6,0,6.9C9.4,9.7,9.4,9.8,9.4,9.8L9.4,9.8z M11.6,9h-0.4V3.4h0.3
				c3.5,0,7,0,10.5,0c2.8,0,5.1,2.2,5.1,5c0,1.9,0,3.9,0,5.9c0,0,0,0.1,0,0.2h-5.8v-0.3c0-1.3,0-2.5,0-3.8c0.1-0.6-0.4-1.2-1-1.3
				c-0.1,0-0.2,0-0.3,0L11.6,9z M27.1,23h-5.8v-3.5h5.8V23z M27.8,17.7c-1.2,0-2.5,0-3.7,0s-2.4,0-3.6,0c-0.4,0-0.8-0.3-0.8-0.7
				c0-0.1,0-0.3,0.1-0.4c0.1-0.3,0.4-0.5,0.8-0.4c0.5,0,0.9,0,1.4,0h5.7c0.1,0,0.2,0,0.3,0c0.4,0,0.7,0.4,0.7,0.8c0,0,0,0,0,0
				C28.6,17.4,28.3,17.7,27.8,17.7C27.8,17.7,27.8,17.7,27.8,17.7L27.8,17.7z"/>
		</g>
		<g id="Grupo_120739" transform="translate(731.748 2503.521)">
			<path id="Trazado_185987" class="st9" d="M37.5,14.8c0-0.7-0.3-0.9-0.9-0.9c-0.3,0-0.3-0.1-0.3-0.3c0-1.3,0-2.7,0-4
				c0-1.2-0.9-2.1-2-2.2c-0.4,0-0.8-0.1-1.2-0.1c-0.8-0.1-1.5-0.1-2.3-0.2c-0.3,0-0.5,0.2-0.6,0.4c0,0,0,0,0,0
				c0,0.3,0.2,0.5,0.4,0.6c0.1,0,0.2,0,0.3,0l3.1,0.3c0.4,0,0.7,0.3,0.9,0.6c0.1,0.2,0.1,0.3-0.2,0.3c-0.5,0-1,0-1.5,0
				c-0.7,0-1.3,0.6-1.5,1.2c-0.1,0.3-0.1,0.6-0.1,0.9c-0.1,0.9,0.6,1.8,1.6,1.9c0.1,0,0.2,0,0.3,0c0.4,0,0.9,0,1.3,0
				c0.2,0,0.3,0.1,0.3,0.3s0,0.3-0.2,0.3c-0.8,0-1.6,0-2.4,0c-0.1,0-0.3-0.1-0.3-0.2c-1.5-1.3-3.7-1.3-5.2,0
				c-0.1,0.1-0.3,0.2-0.4,0.2c-3.9,0-7.8,0-11.7,0c-0.2,0-0.3-0.1-0.4-0.2c-0.4-0.7-0.8-1.5-1.2-2.2c-0.4-0.7-0.6-1.5-0.6-2.4
				c0-0.4,0-0.8,0-1.2c0-0.3,0.1-0.4,0.4-0.4c3.7,0,7.5,0,11.2,0c0.2,0,0.4,0,0.5,0c1.2,0.1,2.4,0.2,3.6,0.3C28.6,8,28.9,7.8,29,7.5
				c0,0,0-0.1,0-0.1c0-0.3-0.2-0.5-0.6-0.6c-1.1-0.1-2.2-0.2-3.3-0.3c-0.3,0-0.5-0.1-0.6-0.4c-0.8-1.5-1.7-3.1-2.5-4.6
				c-0.4-0.9-1.2-1.4-2.2-1.5c-1.5-0.1-3,0-4.5,0c-0.3,0-0.5,0.2-0.5,0.5c0,0,0,0,0,0.1c0,0.3,0.2,0.5,0.5,0.5c0,0,0,0,0,0
				c0.1,0,0.2,0,0.3,0c1.3,0,2.5,0,3.8,0c0.6,0,1.2,0.3,1.5,0.8C20.9,2,20.7,2,20.6,2c-2.9,0-5.8,0-8.7,0c-0.8,0-1,0.2-1.1,0.9
				c-0.2,1.1-0.4,2.2-0.6,3.3c0,0.1,0,0.3-0.2,0.3c-0.4,0-0.8,0-1.2,0c0.4-1.6,0.8-3.2,1.2-4.7c0.1-0.4,0.5-0.7,0.9-0.6
				c0.6,0,1.2,0,1.9,0c0.4,0,0.6-0.2,0.6-0.6S13.1,0,12.7,0c-0.6,0-1.1,0-1.7,0C9.9-0.1,9,0.7,8.8,1.8c-0.4,1.5-0.7,3-1.1,4.5
				C7.7,6.4,7.6,6.5,7.4,6.5C6.6,6.6,5.8,6.6,5,6.7c-0.3,0-0.3,0-0.3-0.3c0-0.9-0.7-1.8-1.6-1.9c-0.3,0-0.6,0-0.9,0
				c-0.8,0-1.1,0.3-1.1,1.1c0,1.5,0,2.9,0,4.4c0,1.2,0,2.4,0,3.6c0,0.1,0,0.3-0.2,0.3c-0.4,0-0.8,0.2-0.9,0.6v2.2
				c0.2,0.4,0.6,0.6,1.1,0.5c0.7,0,1.5,0,2.2,0c0.2,0,0.3,0.1,0.4,0.3c0.5,2.1,2.6,3.3,4.6,2.8c1.4-0.3,2.5-1.4,2.8-2.8
				c0.1-0.3,0.2-0.3,0.4-0.3c2.9,0,5.8,0,8.7,0c0.1,0,0.2,0,0.4,0c0.2,0,0.4-0.2,0.4-0.5c0-0.3-0.1-0.5-0.3-0.6
				c-0.1,0-0.3-0.1-0.4,0h-3.9c-1.6,0-3.3,0-4.9,0c-0.1,0-0.3,0.1-0.3-0.2c-0.1-0.3-0.1-0.6-0.3-0.9h15.1c-0.1,0.3-0.2,0.5-0.2,0.8
				c0,0.2-0.1,0.3-0.3,0.3c-0.7,0-1.5,0-2.2,0c-0.4,0-0.7,0.2-0.7,0.6c0,0.3,0.2,0.5,0.6,0.5c0.7,0,1.5,0,2.2,0c0.2,0,0.3,0,0.4,0.3
				c0.5,2.1,2.6,3.3,4.6,2.8c1.4-0.3,2.4-1.4,2.8-2.7c0.1-0.3,0.2-0.4,0.5-0.4c1,0,1.9,0,2.9,0c0.4,0,0.8-0.3,0.8-0.7
				c0,0,0-0.1,0-0.1C37.5,15.8,37.5,15.3,37.5,14.8z M11.8,3.3c0-0.2,0.1-0.3,0.3-0.3c3.1,0,6.2,0,9.3,0c0.1,0,0.2,0,0.3,0.1
				c0.6,1.1,1.2,2.2,1.8,3.3H11.2C11.4,5.4,11.6,4.4,11.8,3.3z M2.2,9c0-0.5,0-1,0-1.6s0-1,0-1.5c0-0.2,0.1-0.3,0.3-0.3
				c0.9,0,1.1,0.2,1.1,1.1c0,0.4,0,0.7,0,1.1c0,0.7-0.5,1.2-1.1,1.4C2.3,9.2,2.2,9.2,2.2,9L2.2,9z M3.6,15.9c0,0.1-0.1,0.2-0.2,0.2
				c-0.7,0-1.4,0-2.1,0c-0.1,0-0.2,0-0.2-0.2c0,0,0,0,0,0c0-0.9,0-0.9,0.8-0.9h1.9C3.7,15.3,3.7,15.6,3.6,15.9L3.6,15.9z M7.4,19.3
				c-1.5,0-2.7-1.2-2.8-2.7c0-1.5,1.2-2.8,2.7-2.8c1.5,0,2.8,1.2,2.8,2.7C10.1,18,8.9,19.3,7.4,19.3C7.4,19.3,7.4,19.3,7.4,19.3z
				 M10.3,13.9c-0.1,0-0.2-0.1-0.3-0.1c-1.5-1.4-3.7-1.4-5.2,0c-0.1,0.1-0.2,0.1-0.4,0.1c-0.7,0-1.3,0-2,0c-0.2,0-0.3-0.1-0.3-0.3
				c0-1,0-2.1,0-3.1c0-0.2,0.1-0.2,0.3-0.3c1.1-0.1,2.1-1,2.2-2.2c0-0.2,0.1-0.3,0.3-0.3C7,7.6,9.1,7.5,11.2,7.6
				c0.2,0,0.3,0.1,0.3,0.3c0,0.7,0,1.4,0.1,2c0.1,0.8,0.4,1.6,0.8,2.3c0.3,0.5,0.6,1.1,1,1.7C12.3,13.9,11.3,13.9,10.3,13.9
				L10.3,13.9z M29.6,19.3c-1.5,0-2.7-1.2-2.7-2.7c0-1.5,1.2-2.7,2.8-2.7c1.5,0,2.7,1.2,2.7,2.8l0,0C32.3,18.1,31.1,19.3,29.6,19.3
				L29.6,19.3z M35.1,12.2c-0.2,0.1-0.6,0.1-0.8,0.1c-0.3,0-0.5,0-0.8,0c-0.3,0-0.6-0.3-0.6-0.6c0,0,0,0,0,0c0-1.1,0-1.3,1.5-1.2
				c0.2,0,0.6-0.1,0.8,0.1s0.1,0.6,0.1,0.8S35.3,12,35.1,12.2L35.1,12.2z M35.6,16.1c-0.6,0-1.3,0-1.9,0c-0.2,0-0.2,0-0.3-0.2
				c0-0.3-0.1-0.6-0.2-0.9c1,0,2,0,3,0c0.2,0,0.2,0,0.3,0.2C36.5,16.1,36.5,16.1,35.6,16.1L35.6,16.1z"/>
			<path id="Trazado_185988" class="st9" d="M14.4,9C14.2,9,14,9.3,14,9.5c0,0,0,0,0,0.1c0,0.3,0.2,0.5,0.5,0.5c0,0,0,0,0,0
				c0.2,0,0.4,0,0.5,0l0,0c0.2,0,0.4,0,0.6,0c0.3,0,0.5-0.3,0.5-0.6c0-0.2-0.2-0.4-0.4-0.5C15.3,9,14.8,9,14.4,9z"/>
			<path id="Trazado_185989" class="st9" d="M29.6,14.8c-0.9,0-1.7,0.8-1.7,1.7c0,0.9,0.8,1.7,1.7,1.7c0.9,0,1.7-0.8,1.7-1.7
				c0,0,0,0,0,0C31.3,15.6,30.5,14.8,29.6,14.8z M29.6,17.2c-0.3,0-0.6-0.2-0.6-0.6s0.2-0.6,0.6-0.6s0.6,0.2,0.6,0.6
				S30,17.2,29.6,17.2z"/>
			<path id="Trazado_185990" class="st9" d="M7.4,14.8c-0.9,0-1.7,0.8-1.7,1.7c0,0.9,0.7,1.7,1.7,1.7c0,0,0,0,0.1,0
				c0.9,0,1.7-0.7,1.7-1.7c0,0,0-0.1,0-0.1C9.1,15.6,8.3,14.8,7.4,14.8z M7.3,17.2c-0.3,0-0.6-0.3-0.6-0.7c0-0.3,0.3-0.6,0.6-0.6
				c0.3,0,0.6,0.3,0.6,0.6C8,16.9,7.7,17.2,7.3,17.2C7.4,17.2,7.4,17.2,7.3,17.2z"/>
		</g>
		<g id="Grupo_120740" transform="translate(911.991 2436.625)">
			<path id="Trazado_185948" class="st9" d="M31.2,21.6l1.7-0.4c0.5-0.1,0.7,0,0.8,0.5s0.2,1.1,0.4,1.6c0.1,0.5,0,0.7-0.5,0.8
				c-1.9,0.4-3.8,0.8-5.7,1.2c-2.9,0.6-5.7,1.2-8.6,1.9c-0.1,0-0.1,0-0.2,0.1c0.4,3.3-1.9,6.3-5.2,6.7c-3.3,0.4-6.3-1.9-6.7-5.2
				c-0.4-2.9,1.4-5.6,4.2-6.5c-0.2-1.1-0.5-2.3-0.7-3.4C9.5,13.8,8.4,8.7,7.3,3.5C7.2,3.2,7.1,3,6.7,3c-2,0-4,0-6,0
				C0.1,3.1,0,2.9,0,2.3c0-0.6,0-1.1,0-1.7C0,0.2,0.2,0,0.6,0c2.8,0,5.6,0,8.4,0c0.4,0,0.6,0.1,0.7,0.6c0.6,2.6,1.1,5.2,1.7,7.8
				c0,0.2,0.1,0.3,0.1,0.5c0.3-0.1,0.7-0.1,1-0.2c4.8-1,9.6-2.1,14.4-3.1c0.7-0.1,0.8,0,1,0.6c1.1,5,2.2,10.1,3.2,15.1
				C31.2,21.4,31.2,21.5,31.2,21.6z M12.7,14c0,0,0,0.1,0,0.1c0.6,2.6,1.1,5.3,1.7,7.9c0,0.2,0.2,0.3,0.4,0.3
				c1.1,0.3,2.1,0.9,2.9,1.8c0.2,0.2,0.4,0.3,0.7,0.2c2.8-0.6,5.7-1.2,8.5-1.8c1.1-0.2,2.3-0.5,3.5-0.8l-2.4-11.1l-5.1,1.1
				c0,0.2,0.1,0.3,0.1,0.4c0.2,1,0.4,2,0.6,3c0,0.2,0,0.4-0.2,0.6c-0.1,0.1-0.4,0-0.6,0c-0.2-0.1-0.3-0.2-0.4-0.3l-1.4-0.9
				c-0.4,0.6-0.8,1.1-1.1,1.7c-0.2,0.3-0.3,0.6-0.8,0.5c-0.4-0.1-0.4-0.5-0.5-0.8c-0.2-1-0.4-2.1-0.7-3.1L12.7,14z M8.1,28.1
				c0,2.8,2.2,5,5,5c2.8,0,5-2.2,5-5s-2.2-5-5-5c0,0,0,0,0,0C10.3,23.2,8.1,25.4,8.1,28.1L8.1,28.1z M13.4,22.2L8.8,1H1v1h0.4
				c2,0,3.9,0,5.9,0C7.9,2,8,2.2,8.1,2.6c1.2,5.7,2.5,11.4,3.7,17.1c0.2,0.8,0.4,1.7,0.5,2.5L13.4,22.2z M22.2,14.3L20.8,8l-3,0.6
				l1.4,6.4c0.3-0.5,0.6-0.9,0.9-1.3c0.3-0.4,0.5-0.4,0.9-0.2C21.4,13.8,21.8,14.1,22.2,14.3L22.2,14.3z M21.8,7.8l0.7,3.1l5.1-1.1
				L27,6.7L21.8,7.8z M12.4,13.1l5.1-1.1l-0.7-3.1l-5.1,1.1L12.4,13.1z M18.8,26.4l14.2-3.1l-0.2-1l-14.4,3.1L18.8,26.4z"/>
			<path id="Trazado_185949" class="st9" d="M21,22.1c0,0.2-0.2,0.4-0.4,0.5c-0.8,0.2-1.7,0.4-2.5,0.5c-0.3,0.1-0.5,0-0.6-0.3
				s0-0.5,0.3-0.6c0,0,0.1,0,0.1,0c0.8-0.2,1.7-0.4,2.5-0.5c0.3-0.1,0.5,0.1,0.6,0.4C21,22,21,22.1,21,22.1z"/>
			<path id="Trazado_185950" class="st9" d="M23.6,21.7c-0.1,0.1-0.2,0.3-0.4,0.3c-0.3,0.1-0.6,0.2-1,0.2c-0.3,0-0.5-0.2-0.6-0.4
				c0-0.2,0.1-0.5,0.3-0.5c0.3-0.1,0.7-0.2,1-0.2C23.4,21,23.6,21.2,23.6,21.7z"/>
			<path id="Trazado_185951" class="st9" d="M16.2,28.2c0,1.7-1.5,3.1-3.2,3.1c-1.7,0-3.1-1.4-3.1-3.1c0-1.7,1.4-3.2,3.1-3.2
				c1.7,0,3.2,1.4,3.2,3.1C16.2,28.1,16.2,28.1,16.2,28.2z M15.2,28.2c0-1.2-1-2.2-2.1-2.2c0,0,0,0,0,0c-1.2,0-2.2,1-2.2,2.2
				c0,1.2,1,2.2,2.2,2.2C14.3,30.3,15.2,29.4,15.2,28.2C15.2,28.2,15.2,28.2,15.2,28.2L15.2,28.2z"/>
		</g>
		<g id="Grupo_120741" transform="translate(772.027 2438.061)">
			<path id="Trazado_185991" class="st9" d="M7.3,18.8C6.9,19,6.5,19.3,6,19.5c-0.4,0.2-0.7,0.2-0.9-0.1s-0.1-0.6,0.3-0.8
				c0.7-0.4,1.3-0.8,2-1.2c0.2-0.2,0.6-0.2,0.8,0c0.7,0.4,1.3,0.8,2,1.2c0.4,0.2,0.5,0.5,0.3,0.8s-0.5,0.3-0.9,0.1S8.9,19,8.5,18.8
				v6.7h7.7c-0.2-0.7-0.4-1.3-0.5-2c-0.6-2.8,0.2-5.7,2.2-7.8c1.1-1.1,2.6-1.8,4.1-1.7c1.1,0,2.1,0,3.2,0c2.3-0.1,4.4,1.1,5.5,3.1
				c1.9,3.2,1.7,7.3-0.6,10.2c-1.1,1.5-2.9,2.3-4.8,2.3c-1.1,0-2.1,0-3.2,0c-2,0.1-4-0.9-5.1-2.6c-0.1-0.2-0.4-0.3-0.6-0.3
				c-2.8,0-5.5,0-8.3,0c-0.6,0-0.8-0.2-0.8-0.8c0-2.2,0-4.4,0-6.6L7.3,18.8z M30.9,21.7c0.1-1.9-0.6-3.7-1.9-5.2
				c-1.5-1.9-4.3-2.1-6.2-0.6c-0.2,0.2-0.4,0.3-0.5,0.5c-1.1,1.2-1.8,2.8-1.9,4.5c-0.3,2.2,0.5,4.4,2,6c1.6,1.7,4.4,1.8,6.1,0.2
				c0.1-0.1,0.2-0.2,0.2-0.2C30.2,25.6,30.9,23.7,30.9,21.7L30.9,21.7z M22.3,15c-0.1,0-0.2,0-0.2,0c-1.5-0.1-2.9,0.6-3.9,1.8
				c-2.2,2.8-2.3,6.6-0.3,9.5c0.5,0.8,1.3,1.4,2.1,1.7c0.7,0.3,1.5,0.4,2.2,0.3c-3.7-3.3-4-8.9-0.8-12.5
				C21.8,15.5,22.1,15.2,22.3,15L22.3,15z"/>
			<path id="Trazado_185992" class="st9" d="M24.3,10.7c0.5-0.3,0.9-0.5,1.2-0.8c0.4-0.3,0.7-0.2,0.9,0.1s0.1,0.6-0.3,0.8
				c-0.7,0.4-1.3,0.8-2,1.2c-0.2,0.2-0.6,0.2-0.8,0c-0.7-0.4-1.4-0.8-2-1.2c-0.3-0.2-0.4-0.5-0.3-0.8s0.5-0.4,0.9-0.1
				c0.4,0.2,0.8,0.5,1.3,0.8V4h-7.4c0.2,0.6,0.4,1.1,0.5,1.7c0.7,2.8,0,5.7-1.8,7.9c-1.1,1.3-2.8,2.1-4.5,2c-1.1,0-2.1,0-3.2,0
				c-2.2,0.1-4.2-1-5.3-2.8C-0.7,9.4-0.5,5.1,2.1,2.1C3.2,0.7,4.8,0,6.6,0c1.1,0,2.2,0,3.2,0c2-0.1,3.9,0.9,5.1,2.6
				c0.1,0.2,0.4,0.3,0.6,0.3c2.7,0,5.3,0,8,0c0.7,0,0.8,0.1,0.8,0.8c0,2.2,0,4.3,0,6.5V10.7z M15.4,8.3c0.1-2-0.5-4-1.8-5.5
				c-1.5-1.9-4.3-2.2-6.2-0.7C7.3,2.3,7,2.5,6.9,2.7C5.4,4.3,4.7,6.5,5,8.6c0.1,1.5,0.7,3,1.7,4.1c1.5,1.9,4.2,2.3,6.2,0.8
				c0.3-0.2,0.5-0.4,0.7-0.7C14.7,11.6,15.4,10,15.4,8.3L15.4,8.3z M6.9,1.2C6.8,1.2,6.8,1.1,6.9,1.2c-0.1,0-0.2-0.1-0.2-0.1
				C5.2,1,3.7,1.7,2.8,2.9C1.3,4.8,0.7,7.3,1.3,9.7c0.3,1.7,1.3,3.2,2.8,4.1c0.8,0.5,1.8,0.7,2.8,0.6c-3.7-3.2-4-8.9-0.8-12.5
				C6.3,1.7,6.6,1.4,6.9,1.2L6.9,1.2z"/>
			<path id="Trazado_185993" class="st9" d="M25,25.7c-0.4-0.3-0.8-0.6-1.2-0.9c-0.3-0.3-0.5-0.8-0.5-1.3c-0.1-0.3,0.1-0.6,0.5-0.6
				c0,0,0,0,0,0c0.3,0,0.6,0.2,0.6,0.6c0,0.5,0.3,0.9,0.8,1.1c0.5,0.2,1,0.1,1.4-0.2c0.4-0.3,0.5-0.7,0.4-1.2
				c-0.1-0.5-0.6-0.8-1.1-0.9c-0.2,0-0.4,0-0.6-0.1c-1-0.2-1.8-1-2-2c-0.1-1.1,0.6-2.1,1.6-2.4c0.1,0,0.2-0.1,0.3-0.1
				c0-0.1,0-0.2,0-0.3c0-0.3,0.3-0.5,0.5-0.5c0.3,0,0.5,0.2,0.5,0.4c0,0,0,0,0,0c0,0.2,0.1,0.3,0.3,0.4c0.8,0.3,1.4,1,1.5,1.9
				c0.1,0.4-0.1,0.7-0.5,0.8c-0.3,0-0.6-0.2-0.6-0.6c-0.1-0.7-0.8-1.2-1.5-1.1c0,0,0,0-0.1,0c-0.7,0.1-1.1,0.7-1.1,1.3
				c0,0,0,0.1,0,0.1c0.2,0.5,0.6,0.9,1.1,0.9c0.4,0,0.7,0.1,1.1,0.2c0.9,0.3,1.5,1.2,1.4,2.1c0,1-0.7,1.8-1.6,2.1
				c-0.2,0.1-0.3,0.1-0.3,0.3c0,0.3-0.2,0.6-0.5,0.6c0,0-0.1,0-0.1,0c-0.3,0-0.5-0.2-0.5-0.6C25.1,25.8,25.1,25.7,25,25.7L25,25.7z"
				/>
			<path id="Trazado_185994" class="st9" d="M12.6,6c0.1,0.3-0.2,0.6-0.5,0.7c0,0,0,0,0,0c-0.3,0-0.6-0.2-0.6-0.5c0,0,0,0,0-0.1
				c0-0.5-0.3-0.9-0.8-1.1c-0.5-0.2-1-0.1-1.4,0.2C9,5.4,8.8,5.8,8.9,6.2C9,6.7,9.4,7.1,9.8,7.2c0.2,0,0.4,0.1,0.6,0.1
				c1.1,0,2,0.8,2.2,1.9c0.2,1.1-0.5,2.2-1.5,2.5c-0.2,0.1-0.3,0.2-0.3,0.4c0,0.3-0.2,0.5-0.5,0.5c-0.3,0-0.5-0.2-0.5-0.5l0,0
				c0-0.3-0.1-0.3-0.3-0.4c-0.9-0.3-1.5-1.1-1.5-2C7.8,9.3,8,9,8.3,9c0.3,0,0.6,0.2,0.6,0.6c0.1,0.5,0.5,1,1,1.1
				c0.6,0.1,1.1-0.1,1.5-0.6c0.3-0.5,0.1-1.2-0.4-1.6c-0.1-0.1-0.2-0.1-0.3-0.1c-0.2,0-0.4-0.1-0.6-0.1C9,8.3,8,7.5,7.8,6.4
				C7.7,5.3,8.3,4.2,9.4,3.9c0.2,0,0.3-0.2,0.3-0.4c0-0.3,0.2-0.5,0.5-0.5c0,0,0,0,0,0c0.3,0,0.5,0.2,0.5,0.5c0,0,0,0,0,0
				c0,0.2,0.1,0.3,0.3,0.4C11.9,4.2,12.6,5,12.6,6z"/>
		</g>
	</g>
</g>
</svg>
