<svg xmlns="http://www.w3.org/2000/svg" width="81" height="81" viewBox="0 0 81 81">
  <g id="Grupo_146951" data-name="Grupo 146951" transform="translate(-377 -8555)">
    <g id="Rectángulo_34484" data-name="Rectángulo 34484" transform="translate(377 8555)" fill="none" stroke="#000" stroke-width="1">
      <rect width="81" height="81" stroke="none"/>
      <rect x="0.5" y="0.5" width="80" height="80" fill="none"/>
    </g>
    <g id="Grupo_102710" data-name="Grupo 102710" transform="translate(393 8570)">
      <path id="Trazado_159153" data-name="Trazado 159153" d="M94.408,1549.447a4.7,4.7,0,0,1,4.459,3.114h1.451a26.4,26.4,0,0,0-48.831,0h1.633a4.758,4.758,0,0,1,8.447-.96,1.992,1.992,0,0,0,1.66.96h1.221a1.989,1.989,0,0,0,1.658-.96,4.771,4.771,0,0,1,7.978,0,1.989,1.989,0,0,0,1.658.96h1.372a1.992,1.992,0,0,0,1.66-.96,4.769,4.769,0,0,1,7.977,0,1.992,1.992,0,0,0,1.66.96h.349a1.992,1.992,0,0,0,1.66-.96A4.725,4.725,0,0,1,94.408,1549.447Z" transform="translate(-51.488 -1530.169)"/>
      <path id="Trazado_159154" data-name="Trazado 159154" d="M73.868,1575.621l0-.014,0-.014v-42.312a1.4,1.4,0,0,0-2.794,0v42.033a1.365,1.365,0,0,0-.059.274l0,.02c0,.021.011.039.013.06a2.944,2.944,0,0,1,.05.5,3,3,0,1,1-5.994,0,2.893,2.893,0,0,1,.047-.469c0-.031.018-.057.018-.089,0-.01-.007-.02-.007-.029a1.426,1.426,0,0,0-2.853.029,1.239,1.239,0,0,0,.038.187c-.008.124-.038.244-.038.372a5.791,5.791,0,1,0,11.582,0,1.221,1.221,0,0,0-.02-.19c0-.033.02-.062.02-.095Z" transform="translate(-47.202 -1531.884)"/>
    </g>
  </g>
</svg>
