<?xml version="1.0" encoding="utf-8"?>
<!-- Generator: Adobe Illustrator 25.2.3, SVG Export Plug-In . SVG Version: 6.00 Build 0)  -->
<svg version="1.1" id="Capa_1" xmlns="http://www.w3.org/2000/svg" xmlns:xlink="http://www.w3.org/1999/xlink" x="0px" y="0px"
	 viewBox="0 0 610 395" style="enable-background:new 0 0 610 395;" xml:space="preserve">
<style type="text/css">
	.st0{opacity:4.300000e-02;fill:#DC9CE8;enable-background:new    ;}
	.st1{fill:#DEA898;stroke:#000000;stroke-linejoin:round;}
	.st2{fill:#9D6053;stroke:#000000;stroke-linejoin:round;}
	.st3{fill:none;stroke:#000000;stroke-linejoin:round;}
	.st4{fill:#FFFD6E;stroke:#000000;stroke-linejoin:round;}
	.st5{fill:#F9AB59;stroke:#000000;stroke-miterlimit:10;}
	.st6{fill:none;}
	.st7{fill:#A97023;stroke:#000000;stroke-miterlimit:10;}
	.st8{fill:#E09037;stroke:#000000;stroke-miterlimit:10;}
	.st9{fill:none;stroke:#000000;stroke-miterlimit:10;}
	.st10{fill:#7C7F84;stroke:#000000;stroke-miterlimit:10;}
	.st11{fill:#BABFC3;stroke:#000000;stroke-miterlimit:10;}
	.st12{fill:#72913C;stroke:#000000;stroke-linejoin:round;}
	.st13{fill:#72CAFC;stroke:#000000;stroke-miterlimit:10;}
	.st14{fill:#72CAFC;stroke:#000000;stroke-linejoin:round;}
	.st15{fill:#4FA1F7;stroke:#000000;stroke-linejoin:round;}
	.st16{fill:#72CA6B;stroke:#000000;stroke-linejoin:round;}
	.st17{fill:#A93F3C;stroke:#000000;stroke-linejoin:round;}
	.st18{fill:#A93F3C;stroke:#000000;stroke-width:0.9999;stroke-linejoin:round;stroke-miterlimit:3.9994;}
	.st19{fill:#72CA42;stroke:#000000;stroke-linejoin:round;}
	.st20{fill:#70C4F6;stroke:#000000;stroke-miterlimit:10;}
	.st21{fill:#67C0FC;stroke:#000000;stroke-miterlimit:10;}
	.st22{fill:#288AED;stroke:#000000;stroke-miterlimit:10;}
	.st23{fill:#3497FC;stroke:#000000;stroke-miterlimit:10;}
	.st24{enable-background:new    ;}
	.st25{fill:#12263F;}
	.st26{fill:none;stroke:#12263F;stroke-miterlimit:10;}
</style>
<g id="Grupo_102753" transform="translate(-810 -11028)">
	<rect id="Rectángulo_34541" x="810" y="11028" class="st0" width="610" height="395"/>
	<g id="Grupo_102752" transform="translate(-521.798 10803.409)">
		<path id="Trazado_159179" class="st1" d="M1480.8,444l96.7-55.7l100.4,68.9l-43,35.3l-39.2-26.5l-49.5,32.4L1480.8,444z"/>
		<path id="Trazado_159180" class="st2" d="M1595.7,466.1l-1.7,38.1l-43,29.4l-4.9-35.1L1595.7,466.1z"/>
		<line id="Línea_306" class="st3" x1="1528.4" y1="416.6" x2="1595.7" y2="466.1"/>
		<line id="Línea_307" class="st3" x1="1659.6" y1="444.7" x2="1614" y2="478.4"/>
		<path id="Trazado_159181" class="st1" d="M1643.2,433.8l-47.5,32.3l39.2,26.5l-4.9,37l-44,35.1l-35-31.1l43-29.4l1.6-36.6"/>
		<line id="Línea_308" class="st3" x1="1528.4" y1="483.7" x2="1582.9" y2="448.3"/>
		<line id="Línea_309" class="st3" x1="1512.3" y1="470.3" x2="1565.9" y2="435.8"/>
		<line id="Línea_310" class="st3" x1="1496.5" y1="457.1" x2="1549.3" y2="424.2"/>
		<path id="Trazado_159182" class="st1" d="M1646.3,384.6l-2.8,33.4l-53.7,35.1l-45.1-31.4l-1.4-30.9l13.6,9.5l31.8-4.1l30.7,5.3
			L1646.3,384.6z"/>
		<path id="Trazado_159183" class="st1" d="M1540.4,362.7"/>
		<path id="Trazado_159184" class="st1" d="M1557,400.1l-47.5-34.5l32-3l48.4,33.3v57"/>
		<line id="Línea_311" class="st3" x1="1557" y1="400.1" x2="1589.8" y2="396"/>
		<path id="Trazado_159185" class="st2" d="M1589.8,453v-56.2l29.6,4.5l26.8-16.8l-2.8,33.4L1589.8,453z"/>
		<path id="Trazado_159186" class="st1" d="M1685.3,360.4l-36-1.9l-60.5,37.5l30.7,5.3L1685.3,360.4z"/>
		<path id="Trazado_159187" class="st1" d="M1652.9,322l19,10.3l-22.7,26.2l-5.6-4.5l6.9-4L1652.9,322z"/>
		<path id="Trazado_159188" class="st1" d="M1541.3,354.9l-1.7-27.4l-19.7,11l21.5,24.1l7.9-3.8L1541.3,354.9z"/>
		<path id="Trazado_159189" class="st2" d="M1549.3,358.9l-7.9,3.8l47.3,33.3l60.5-37.5l-5.6-4.5l-53.8,30.6L1549.3,358.9z"/>
		<line id="Línea_312" class="st3" x1="1601.8" y1="377.8" x2="1601.8" y2="388.3"/>
		<path id="Trazado_159190" class="st4" d="M1677.9,457.3l-14.3,73.7l-6.3,5l13.8-73.1L1677.9,457.3z"/>
		<path id="Trazado_159191" class="st2" d="M1671.1,462.8l-36.2,29.7l-4.9,37l-38.1,30.6v30.8l65.4-55L1671.1,462.8z"/>
		<path id="Trazado_159192" class="st3" d="M1663.6,502.6l-33.6,27l-4.9,33.4"/>
		<path id="Trazado_159193" class="st4" d="M1480.8,444l10.2,8.5l13.9,67.9l-8.4-7L1480.8,444z"/>
		<path id="Trazado_159194" class="st1" d="M1546.2,498.5l-55.2-46l13.9,67.9l76.4,69.6v-29.2l-30.2-27.1L1546.2,498.5z"/>
		<path id="Trazado_159195" class="st3" d="M1498.5,489l52.6,44.6l4.1,32.5"/>
		<line id="Línea_313" class="st3" x1="1512.3" y1="470.3" x2="1526.6" y2="540.1"/>
		<line id="Línea_314" class="st3" x1="1594" y1="504.2" x2="1630" y2="529.6"/>
		<line id="Línea_315" class="st3" x1="1567" y1="547.9" x2="1611.3" y2="516.4"/>
		<path id="Trazado_159196" class="st4" d="M1581.3,589.9l4.7,4.9l5.9-3.8v-30.8l-5.9,4.5l-4.7-4L1581.3,589.9z"/>
		<path id="Trazado_159197" class="st5" d="M1496.5,513.4l3.4,15.8l85.7,79.2l74.6-61.7l3.4-15.6l-77.6,63.8L1496.5,513.4z"/>
		<path id="Trazado_159198" class="st3" d="M1497.7,518.7l88.9,79.2l8.4-7l67.8-56.3"/>
		<line id="Línea_316" class="st6" x1="1586.6" y1="597.9" x2="1586.6" y2="607.4"/>
		<path id="Trazado_159199" class="st7" d="M1595.5,600.2l-0.5-9.3l20.4-16.9l6,4.7L1595.5,600.2z"/>
		<path id="Trazado_159200" class="st7" d="M1629.4,562.4v9.7l24.1-19.9l-6.8-4.2L1629.4,562.4z"/>
		<path id="Trazado_159201" class="st8" d="M1564.9,578.6v-3l-14.7-13.4v3.3L1564.9,578.6z"/>
		<path id="Trazado_159202" class="st8" d="M1532.3,549.5v-3.7l-15.1-13.8l-4.3,0.7L1532.3,549.5z"/>
		<path id="Trazado_159203" class="st8" d="M1500.7,529.9v3l16.6,15.2v-2.1L1500.7,529.9z"/>
		<path id="Trazado_159204" class="st8" d="M1533.5,560.2v2.8l16.7,15.6v-3L1533.5,560.2z"/>
		<path id="Trazado_159205" class="st8" d="M1564.9,589.9v2.6l20.8,19.3l73.6-62.6v-2l-73.7,61.1L1564.9,589.9z"/>
		<line id="Línea_317" class="st9" x1="1586.6" y1="597.1" x2="1586.6" y2="608.4"/>
		<path id="Trazado_159206" class="st10" d="M1623.9,308.5V322l-34.1,25.7v36.9l60.7-34.6l5.5-55.8L1623.9,308.5z"/>
		<path id="Trazado_159207" class="st11" d="M1537.8,297.7l24.1,12.9l0.7,13.1l27.3,23.9v36.9l-48.5-29.6L1537.8,297.7z"/>
		<path id="Trazado_159208" class="st11" d="M1656.1,294.2l-52.3-22.7l-66.1,26.2l24.1,12.9l23.4-11.2l10-3.5l28.6,12.6
			L1656.1,294.2z"/>
		<path id="Trazado_159209" class="st3" d="M1539.6,327.1l50.3,28.4l63.6-34.6"/>
		<line id="Línea_318" class="st3" x1="1623.9" y1="308.5" x2="1623" y2="365.7"/>
		<line id="Línea_319" class="st3" x1="1561.9" y1="310.6" x2="1563.8" y2="368.1"/>
		<line id="Línea_320" class="st3" x1="1571.3" y1="284.4" x2="1595.4" y2="296"/>
		<line id="Línea_321" class="st3" x1="1627.4" y1="281.7" x2="1595.4" y2="296"/>
		<path id="Trazado_159210" class="st12" d="M1582.4,237.8c-0.3-4.6,3.6-3.9,8.1-3.9s8.5,0,8.1,3.9c-0.2,2.1-3.6,3.9-8.1,3.9
			S1582.6,239.9,1582.4,237.8z"/>
		<path id="Trazado_159211" class="st13" d="M1623.4,308.3l-28.1-12.4l-33.5,14.7l17.7,9.9l11-4.8l9,5.2L1623.4,308.3z"/>
		<path id="Trazado_159212" class="st14" d="M1600.2,283.8l-10.6,4.3v12.2l10-4L1600.2,283.8z"/>
		<path id="Trazado_159213" class="st15" d="M1589.8,278.5l-9.5,3.9l8.8,5.4l11.1-4.4L1589.8,278.5z"/>
		<path id="Trazado_159214" class="st15" d="M1580.4,296.2l9.3,4.1v-12.2l-9.3-5.6V296.2z"/>
		<path id="Trazado_159215" class="st14" d="M1583.3,270.8l-10.1,4.2l7.1,7.5l9.5-3.9L1583.3,270.8z"/>
		<path id="Trazado_159216" class="st15" d="M1582.5,269l-11.5,5l2.3,1c0,0,10.2-3.8,10.1-4.2c-0.3-0.6-0.7-1.2-1.1-1.8"/>
		<ellipse id="Elipse_5042" class="st16" cx="1590.6" cy="235.2" rx="7.2" ry="2.6"/>
		<ellipse id="Elipse_5043" class="st17" cx="1593.7" cy="245.3" rx="2" ry="1"/>
		
			<ellipse id="Elipse_5044" transform="matrix(0.8291 -0.5591 0.5591 0.8291 132.1466 933.0792)" class="st18" cx="1592.4" cy="250.4" rx="1.9" ry="0.9"/>
		
			<ellipse id="Elipse_5045" transform="matrix(0.4217 -0.9067 0.9067 0.4217 692.756 1582.0505)" class="st17" cx="1586.6" cy="247.9" rx="0.9" ry="1.9"/>
		<path id="Trazado_159217" class="st12" d="M1582.4,258.6v9.3c0,2.2,1.8,4.1,4.1,4.1l0,0h6.9c2.2,0,4.1-1.8,4.1-4.1l0,0v-9.3
			H1582.4z"/>
		<path id="Trazado_159218" class="st19" d="M1585.2,261.1v5.8c0,1.4,1.1,2.5,2.5,2.5h4.3c1.4,0,2.5-1.1,2.5-2.5v-5.8H1585.2z"/>
		<ellipse id="Elipse_5046" class="st16" cx="1590.1" cy="259.3" rx="7.7" ry="2.6"/>
		<path id="Trazado_159219" class="st15" d="M1562.6,323.7l26.4,16.5l34.5-18.3v-13.7l-23.9,12.6l-9-5.2l-11,4.8l-17.7-9.9
			L1562.6,323.7z"/>
		<path id="Trazado_159220" class="st20" d="M1580,334.6l10.6-5.2l8.6,5.2l-10.2,5.6L1580,334.6z"/>
		<path id="Trazado_159221" class="st21" d="M1623.4,322l-33.8,25.5l-27-23.7l26.4,16.5L1623.4,322z"/>
		<path id="Trazado_159222" class="st22" d="M1589,340.3l0.6,7.2l33.8-25.5L1589,340.3z"/>
		<line id="Línea_322" class="st9" x1="1599.5" y1="320.6" x2="1599.5" y2="340.2"/>
		<line id="Línea_323" class="st9" x1="1609.6" y1="315.4" x2="1609.6" y2="332.4"/>
		<line id="Línea_324" class="st9" x1="1616.8" y1="311.8" x2="1616.9" y2="327.3"/>
		<line id="Línea_325" class="st9" x1="1570.7" y1="315.5" x2="1570.5" y2="328.7"/>
		<line id="Línea_326" class="st9" x1="1572.8" y1="305.8" x2="1590.6" y2="315.7"/>
		<line id="Línea_327" class="st9" x1="1582.2" y1="301.7" x2="1609.6" y2="315.6"/>
		<line id="Línea_328" class="st9" x1="1591.2" y1="299.7" x2="1616.8" y2="311.8"/>
		<line id="Línea_329" class="st9" x1="1613.7" y1="303.7" x2="1590.6" y2="315.7"/>
		<line id="Línea_330" class="st9" x1="1604.8" y1="299.9" x2="1570.7" y2="315.5"/>
		<path id="Trazado_159223" class="st23" d="M1590.6,329.4l0-13.7l-11,4.8l0.4,14.1L1590.6,329.4z"/>
		<g class="st24">
			<path class="st25" d="M1692.7,247.3v3.1h-1v-7.8h2.9c0.9,0,1.5,0.2,2,0.7c0.5,0.4,0.7,1,0.7,1.7c0,0.8-0.2,1.3-0.7,1.8
				s-1.2,0.6-2,0.6H1692.7z M1692.7,246.5h1.9c0.6,0,1-0.1,1.3-0.4c0.3-0.3,0.4-0.6,0.4-1.1c0-0.5-0.1-0.8-0.4-1.1
				c-0.3-0.3-0.7-0.4-1.2-0.4h-1.9V246.5z"/>
			<path class="st25" d="M1701.3,245.5c-0.2,0-0.3,0-0.5,0c-0.7,0-1.1,0.3-1.3,0.8v4.1h-1v-5.8h1l0,0.7c0.3-0.5,0.8-0.8,1.4-0.8
				c0.2,0,0.3,0,0.4,0.1V245.5z"/>
			<path class="st25" d="M1701.8,247.4c0-0.6,0.1-1.1,0.3-1.5c0.2-0.5,0.5-0.8,0.9-1.1c0.4-0.2,0.9-0.4,1.4-0.4
				c0.8,0,1.4,0.3,1.9,0.8c0.5,0.5,0.7,1.3,0.7,2.2v0.1c0,0.6-0.1,1.1-0.3,1.5c-0.2,0.4-0.5,0.8-0.9,1c-0.4,0.3-0.9,0.4-1.4,0.4
				c-0.8,0-1.4-0.3-1.9-0.8C1702.1,249.1,1701.8,248.4,1701.8,247.4L1701.8,247.4z M1702.8,247.5c0,0.6,0.1,1.2,0.4,1.6
				s0.7,0.6,1.2,0.6c0.5,0,0.9-0.2,1.2-0.6c0.3-0.4,0.4-1,0.4-1.7c0-0.6-0.2-1.2-0.5-1.5s-0.7-0.6-1.2-0.6c-0.5,0-0.9,0.2-1.2,0.6
				C1703,246.2,1702.8,246.8,1702.8,247.5z"/>
			<path class="st25" d="M1708.1,247.4c0-0.9,0.2-1.6,0.6-2.2c0.4-0.5,1-0.8,1.7-0.8c0.7,0,1.2,0.2,1.6,0.7v-3h1v8.2h-0.9l0-0.6
				c-0.4,0.5-1,0.7-1.7,0.7c-0.7,0-1.2-0.3-1.6-0.8C1708.3,249.1,1708.1,248.4,1708.1,247.4L1708.1,247.4z M1709.1,247.5
				c0,0.7,0.1,1.2,0.4,1.5c0.3,0.4,0.6,0.6,1.1,0.6c0.6,0,1.1-0.3,1.4-0.8v-2.7c-0.3-0.5-0.8-0.8-1.4-0.8c-0.5,0-0.9,0.2-1.1,0.6
				C1709.3,246.2,1709.1,246.8,1709.1,247.5z"/>
			<path class="st25" d="M1718.2,249.8c-0.4,0.5-1,0.7-1.7,0.7c-0.6,0-1.1-0.2-1.4-0.5c-0.3-0.4-0.5-0.9-0.5-1.6v-3.8h1v3.8
				c0,0.9,0.4,1.3,1.1,1.3c0.8,0,1.3-0.3,1.5-0.8v-4.2h1v5.8h-0.9L1718.2,249.8z"/>
			<path class="st25" d="M1723,249.7c0.4,0,0.7-0.1,0.9-0.3c0.3-0.2,0.4-0.5,0.4-0.8h0.9c0,0.3-0.1,0.7-0.3,1
				c-0.2,0.3-0.5,0.5-0.8,0.7s-0.7,0.3-1.1,0.3c-0.8,0-1.4-0.3-1.9-0.8c-0.5-0.5-0.7-1.3-0.7-2.2v-0.2c0-0.6,0.1-1.1,0.3-1.5
				c0.2-0.4,0.5-0.8,0.9-1s0.8-0.4,1.4-0.4c0.7,0,1.2,0.2,1.6,0.6c0.4,0.4,0.7,0.9,0.7,1.5h-0.9c0-0.4-0.2-0.7-0.4-0.9
				c-0.3-0.2-0.6-0.4-0.9-0.4c-0.5,0-0.9,0.2-1.2,0.5s-0.4,0.9-0.4,1.6v0.2c0,0.7,0.1,1.2,0.4,1.5
				C1722.1,249.5,1722.4,249.7,1723,249.7z"/>
			<path class="st25" d="M1727.7,243.2v1.4h1.1v0.8h-1.1v3.6c0,0.2,0,0.4,0.1,0.5c0.1,0.1,0.3,0.2,0.5,0.2c0.1,0,0.3,0,0.5-0.1v0.8
				c-0.3,0.1-0.5,0.1-0.8,0.1c-0.4,0-0.8-0.1-1-0.4c-0.2-0.3-0.3-0.7-0.3-1.1v-3.6h-1.1v-0.8h1.1v-1.4H1727.7z"/>
			<path class="st25" d="M1729.6,247.4c0-0.6,0.1-1.1,0.3-1.5c0.2-0.5,0.5-0.8,0.9-1.1c0.4-0.2,0.9-0.4,1.4-0.4
				c0.8,0,1.4,0.3,1.9,0.8c0.5,0.5,0.7,1.3,0.7,2.2v0.1c0,0.6-0.1,1.1-0.3,1.5s-0.5,0.8-0.9,1c-0.4,0.3-0.9,0.4-1.4,0.4
				c-0.8,0-1.4-0.3-1.9-0.8C1729.9,249.1,1729.6,248.4,1729.6,247.4L1729.6,247.4z M1730.6,247.5c0,0.6,0.1,1.2,0.4,1.6
				c0.3,0.4,0.7,0.6,1.2,0.6c0.5,0,0.9-0.2,1.2-0.6c0.3-0.4,0.4-1,0.4-1.7c0-0.6-0.2-1.2-0.5-1.5c-0.3-0.4-0.7-0.6-1.2-0.6
				c-0.5,0-0.9,0.2-1.2,0.6C1730.8,246.2,1730.6,246.8,1730.6,247.5z"/>
		</g>
		<g class="st24">
			<path class="st25" d="M1696.1,265.8h-3.4v2.8h3.9v0.8h-5v-7.8h4.9v0.8h-3.9v2.5h3.4V265.8z"/>
			<path class="st25" d="M1698.7,263.6l0,0.7c0.4-0.6,1-0.8,1.7-0.8c1.2,0,1.8,0.7,1.9,2.1v3.8h-1v-3.8c0-0.4-0.1-0.7-0.3-0.9
				c-0.2-0.2-0.5-0.3-0.9-0.3c-0.3,0-0.6,0.1-0.8,0.3c-0.2,0.2-0.4,0.4-0.6,0.7v4.1h-1v-5.8H1698.7z"/>
			<path class="st25" d="M1705.8,268.1l1.4-4.5h1l-2.1,5.8h-0.8l-2.1-5.8h1L1705.8,268.1z"/>
			<path class="st25" d="M1712.7,269.5c-0.1-0.1-0.1-0.3-0.1-0.6c-0.5,0.5-1,0.7-1.7,0.7c-0.6,0-1-0.2-1.4-0.5
				c-0.4-0.3-0.5-0.7-0.5-1.2c0-0.6,0.2-1.1,0.7-1.4c0.5-0.3,1.1-0.5,1.9-0.5h1v-0.5c0-0.3-0.1-0.6-0.3-0.8
				c-0.2-0.2-0.5-0.3-0.9-0.3c-0.4,0-0.7,0.1-0.9,0.3c-0.2,0.2-0.4,0.4-0.4,0.6h-1c0-0.3,0.1-0.6,0.3-0.8s0.5-0.5,0.8-0.6
				s0.7-0.2,1.2-0.2c0.7,0,1.2,0.2,1.6,0.5c0.4,0.3,0.6,0.8,0.6,1.4v2.7c0,0.5,0.1,1,0.2,1.3v0.1H1712.7z M1711,268.7
				c0.3,0,0.6-0.1,0.9-0.2s0.5-0.4,0.6-0.6v-1.2h-0.8c-1.2,0-1.8,0.4-1.8,1.1c0,0.3,0.1,0.6,0.3,0.7
				C1710.5,268.6,1710.7,268.7,1711,268.7z"/>
			<path class="st25" d="M1718.5,267.9c0-0.3-0.1-0.5-0.3-0.6c-0.2-0.1-0.6-0.3-1.1-0.4s-0.9-0.2-1.2-0.4c-0.3-0.2-0.5-0.3-0.7-0.5
				c-0.1-0.2-0.2-0.5-0.2-0.7c0-0.5,0.2-0.9,0.6-1.2c0.4-0.3,0.9-0.5,1.5-0.5c0.7,0,1.2,0.2,1.6,0.5c0.4,0.3,0.6,0.8,0.6,1.3h-1
				c0-0.3-0.1-0.5-0.3-0.7c-0.2-0.2-0.5-0.3-0.9-0.3c-0.4,0-0.6,0.1-0.8,0.2s-0.3,0.4-0.3,0.6c0,0.2,0.1,0.4,0.3,0.5
				c0.2,0.1,0.5,0.2,1,0.3c0.5,0.1,0.9,0.2,1.2,0.4c0.3,0.2,0.5,0.3,0.7,0.6c0.1,0.2,0.2,0.5,0.2,0.8c0,0.5-0.2,0.9-0.6,1.2
				c-0.4,0.3-1,0.5-1.6,0.5c-0.5,0-0.9-0.1-1.2-0.2c-0.4-0.2-0.6-0.4-0.8-0.7c-0.2-0.3-0.3-0.6-0.3-1h1c0,0.3,0.2,0.6,0.4,0.8
				s0.6,0.3,1,0.3c0.4,0,0.7-0.1,0.9-0.2S1718.5,268.2,1718.5,267.9z"/>
			<path class="st25" d="M1723.2,269.6c-0.8,0-1.4-0.3-1.9-0.8s-0.7-1.2-0.7-2.1v-0.2c0-0.6,0.1-1.1,0.3-1.5
				c0.2-0.5,0.5-0.8,0.9-1.1s0.8-0.4,1.3-0.4c0.8,0,1.3,0.2,1.8,0.7c0.4,0.5,0.6,1.2,0.6,2.1v0.4h-3.9c0,0.6,0.2,1,0.5,1.4
				c0.3,0.4,0.7,0.5,1.2,0.5c0.4,0,0.6-0.1,0.9-0.2c0.2-0.1,0.5-0.3,0.6-0.6l0.6,0.5C1724.9,269.2,1724.1,269.6,1723.2,269.6z
				 M1723,264.4c-0.4,0-0.7,0.1-1,0.4c-0.3,0.3-0.4,0.7-0.5,1.2h2.9v-0.1c0-0.5-0.2-0.9-0.4-1.2
				C1723.8,264.5,1723.5,264.4,1723,264.4z"/>
			<path class="st25" d="M1734.2,266.6c0,0.9-0.2,1.6-0.6,2.1c-0.4,0.5-1,0.8-1.6,0.8c-0.7,0-1.3-0.2-1.7-0.7v2.8h-1v-8h0.9l0,0.6
				c0.4-0.5,1-0.8,1.7-0.8c0.7,0,1.3,0.3,1.7,0.8C1734,264.8,1734.2,265.6,1734.2,266.6L1734.2,266.6z M1733.2,266.5
				c0-0.7-0.1-1.2-0.4-1.6c-0.3-0.4-0.7-0.6-1.1-0.6c-0.6,0-1.1,0.3-1.4,0.8v2.8c0.3,0.5,0.8,0.8,1.4,0.8c0.5,0,0.9-0.2,1.1-0.6
				S1733.2,267.2,1733.2,266.5z"/>
			<path class="st25" d="M1738.3,264.5c-0.2,0-0.3,0-0.5,0c-0.7,0-1.1,0.3-1.3,0.8v4.1h-1v-5.8h1l0,0.7c0.3-0.5,0.8-0.8,1.4-0.8
				c0.2,0,0.3,0,0.4,0.1V264.5z"/>
			<path class="st25" d="M1739.2,262.1c0-0.2,0-0.3,0.1-0.4c0.1-0.1,0.2-0.2,0.4-0.2s0.3,0.1,0.4,0.2c0.1,0.1,0.2,0.2,0.2,0.4
				c0,0.2,0,0.3-0.2,0.4c-0.1,0.1-0.2,0.2-0.4,0.2s-0.3-0.1-0.4-0.2S1739.2,262.3,1739.2,262.1z M1740.3,269.5h-1v-5.8h1V269.5z"/>
			<path class="st25" d="M1742.8,263.6l0,0.6c0.4-0.5,1-0.8,1.7-0.8c0.8,0,1.4,0.3,1.7,0.9c0.2-0.3,0.4-0.5,0.8-0.7s0.7-0.3,1.1-0.3
				c1.3,0,1.9,0.7,1.9,2v3.9h-1v-3.8c0-0.4-0.1-0.7-0.3-0.9c-0.2-0.2-0.5-0.3-1-0.3c-0.4,0-0.7,0.1-0.9,0.3
				c-0.2,0.2-0.4,0.5-0.4,0.9v3.9h-1v-3.8c0-0.8-0.4-1.3-1.2-1.3c-0.7,0-1.1,0.3-1.3,0.8v4.2h-1v-5.8H1742.8z"/>
			<path class="st25" d="M1755.1,269.5c-0.1-0.1-0.1-0.3-0.1-0.6c-0.5,0.5-1,0.7-1.7,0.7c-0.6,0-1-0.2-1.4-0.5
				c-0.4-0.3-0.5-0.7-0.5-1.2c0-0.6,0.2-1.1,0.7-1.4c0.5-0.3,1.1-0.5,1.9-0.5h1v-0.5c0-0.3-0.1-0.6-0.3-0.8
				c-0.2-0.2-0.5-0.3-0.9-0.3c-0.4,0-0.7,0.1-0.9,0.3c-0.2,0.2-0.4,0.4-0.4,0.6h-1c0-0.3,0.1-0.6,0.3-0.8s0.5-0.5,0.8-0.6
				s0.7-0.2,1.2-0.2c0.7,0,1.2,0.2,1.6,0.5c0.4,0.3,0.6,0.8,0.6,1.4v2.7c0,0.5,0.1,1,0.2,1.3v0.1H1755.1z M1753.5,268.7
				c0.3,0,0.6-0.1,0.9-0.2s0.5-0.4,0.6-0.6v-1.2h-0.8c-1.2,0-1.8,0.4-1.8,1.1c0,0.3,0.1,0.6,0.3,0.7
				C1752.9,268.6,1753.1,268.7,1753.5,268.7z"/>
			<path class="st25" d="M1760.3,264.5c-0.2,0-0.3,0-0.5,0c-0.7,0-1.1,0.3-1.3,0.8v4.1h-1v-5.8h1l0,0.7c0.3-0.5,0.8-0.8,1.4-0.8
				c0.2,0,0.3,0,0.4,0.1V264.5z"/>
			<path class="st25" d="M1761.2,262.1c0-0.2,0-0.3,0.1-0.4c0.1-0.1,0.2-0.2,0.4-0.2s0.3,0.1,0.4,0.2c0.1,0.1,0.2,0.2,0.2,0.4
				c0,0.2-0.1,0.3-0.2,0.4c-0.1,0.1-0.2,0.2-0.4,0.2s-0.3-0.1-0.4-0.2C1761.3,262.4,1761.2,262.3,1761.2,262.1z M1762.3,269.5h-1
				v-5.8h1V269.5z"/>
			<path class="st25" d="M1763.6,266.5c0-0.6,0.1-1.1,0.3-1.5c0.2-0.5,0.5-0.8,0.9-1.1c0.4-0.2,0.9-0.4,1.4-0.4
				c0.8,0,1.4,0.3,1.9,0.8c0.5,0.5,0.7,1.3,0.7,2.2v0.1c0,0.6-0.1,1.1-0.3,1.5c-0.2,0.4-0.5,0.8-0.9,1c-0.4,0.3-0.9,0.4-1.4,0.4
				c-0.8,0-1.4-0.3-1.9-0.8C1763.9,268.2,1763.6,267.5,1763.6,266.5L1763.6,266.5z M1764.6,266.6c0,0.6,0.1,1.2,0.4,1.6
				s0.7,0.6,1.2,0.6c0.5,0,0.9-0.2,1.2-0.6c0.3-0.4,0.4-1,0.4-1.7c0-0.6-0.2-1.2-0.5-1.5s-0.7-0.6-1.2-0.6c-0.5,0-0.9,0.2-1.2,0.6
				C1764.8,265.3,1764.6,265.9,1764.6,266.6z"/>
		</g>
		<g class="st24">
			<path class="st25" d="M1696.1,285.2h-3.4v2.8h3.9v0.8h-5V281h4.9v0.8h-3.9v2.5h3.4V285.2z"/>
			<path class="st25" d="M1698.7,283l0,0.7c0.4-0.6,1-0.8,1.7-0.8c1.2,0,1.8,0.7,1.9,2.1v3.8h-1V285c0-0.4-0.1-0.7-0.3-0.9
				c-0.2-0.2-0.5-0.3-0.9-0.3c-0.3,0-0.6,0.1-0.8,0.3c-0.2,0.2-0.4,0.4-0.6,0.7v4.1h-1V283H1698.7z"/>
			<path class="st25" d="M1705.8,287.5l1.4-4.5h1l-2.1,5.8h-0.8l-2.1-5.8h1L1705.8,287.5z"/>
			<path class="st25" d="M1712.7,288.8c-0.1-0.1-0.1-0.3-0.1-0.6c-0.5,0.5-1,0.7-1.7,0.7c-0.6,0-1-0.2-1.4-0.5
				c-0.4-0.3-0.5-0.7-0.5-1.2c0-0.6,0.2-1.1,0.7-1.4c0.5-0.3,1.1-0.5,1.9-0.5h1v-0.5c0-0.3-0.1-0.6-0.3-0.8
				c-0.2-0.2-0.5-0.3-0.9-0.3c-0.4,0-0.7,0.1-0.9,0.3c-0.2,0.2-0.4,0.4-0.4,0.6h-1c0-0.3,0.1-0.6,0.3-0.8s0.5-0.5,0.8-0.6
				s0.7-0.2,1.2-0.2c0.7,0,1.2,0.2,1.6,0.5c0.4,0.3,0.6,0.8,0.6,1.4v2.7c0,0.5,0.1,1,0.2,1.3v0.1H1712.7z M1711,288.1
				c0.3,0,0.6-0.1,0.9-0.2s0.5-0.4,0.6-0.6V286h-0.8c-1.2,0-1.8,0.4-1.8,1.1c0,0.3,0.1,0.6,0.3,0.7
				C1710.4,288,1710.7,288.1,1711,288.1z"/>
			<path class="st25" d="M1718.5,287.3c0-0.3-0.1-0.5-0.3-0.6c-0.2-0.1-0.6-0.3-1.1-0.4s-0.9-0.2-1.2-0.4c-0.3-0.2-0.5-0.3-0.7-0.5
				c-0.1-0.2-0.2-0.5-0.2-0.7c0-0.5,0.2-0.9,0.6-1.2c0.4-0.3,0.9-0.5,1.5-0.5c0.7,0,1.2,0.2,1.6,0.5c0.4,0.3,0.6,0.8,0.6,1.3h-1
				c0-0.3-0.1-0.5-0.3-0.7c-0.2-0.2-0.5-0.3-0.9-0.3c-0.4,0-0.6,0.1-0.8,0.2s-0.3,0.4-0.3,0.6c0,0.2,0.1,0.4,0.3,0.5
				c0.2,0.1,0.5,0.2,1,0.3c0.5,0.1,0.9,0.2,1.2,0.4c0.3,0.2,0.5,0.3,0.7,0.6c0.1,0.2,0.2,0.5,0.2,0.8c0,0.5-0.2,0.9-0.6,1.2
				c-0.4,0.3-1,0.5-1.6,0.5c-0.5,0-0.9-0.1-1.2-0.2c-0.4-0.2-0.6-0.4-0.8-0.7c-0.2-0.3-0.3-0.6-0.3-1h1c0,0.3,0.2,0.6,0.4,0.8
				s0.6,0.3,1,0.3c0.4,0,0.7-0.1,0.9-0.2S1718.5,287.6,1718.5,287.3z"/>
			<path class="st25" d="M1723.2,288.9c-0.8,0-1.4-0.3-1.9-0.8s-0.7-1.2-0.7-2.1v-0.2c0-0.6,0.1-1.1,0.3-1.5
				c0.2-0.5,0.5-0.8,0.9-1.1s0.8-0.4,1.3-0.4c0.8,0,1.3,0.2,1.8,0.7c0.4,0.5,0.6,1.2,0.6,2.1v0.4h-3.9c0,0.6,0.2,1,0.5,1.4
				c0.3,0.4,0.7,0.5,1.2,0.5c0.4,0,0.6-0.1,0.9-0.2c0.2-0.1,0.5-0.3,0.6-0.6l0.6,0.5C1724.9,288.6,1724.1,288.9,1723.2,288.9z
				 M1723,283.7c-0.4,0-0.7,0.1-1,0.4c-0.3,0.3-0.4,0.7-0.5,1.2h2.9v-0.1c0-0.5-0.2-0.9-0.4-1.2
				C1723.8,283.9,1723.5,283.7,1723,283.7z"/>
			<path class="st25" d="M1732.7,287.3c0-0.3-0.1-0.5-0.3-0.6c-0.2-0.1-0.6-0.3-1.1-0.4s-0.9-0.2-1.2-0.4c-0.3-0.2-0.5-0.3-0.7-0.5
				c-0.1-0.2-0.2-0.5-0.2-0.7c0-0.5,0.2-0.9,0.6-1.2c0.4-0.3,0.9-0.5,1.5-0.5c0.7,0,1.2,0.2,1.6,0.5c0.4,0.3,0.6,0.8,0.6,1.3h-1
				c0-0.3-0.1-0.5-0.3-0.7c-0.2-0.2-0.5-0.3-0.9-0.3c-0.4,0-0.6,0.1-0.8,0.2s-0.3,0.4-0.3,0.6c0,0.2,0.1,0.4,0.3,0.5
				c0.2,0.1,0.5,0.2,1,0.3c0.5,0.1,0.9,0.2,1.2,0.4c0.3,0.2,0.5,0.3,0.7,0.6c0.1,0.2,0.2,0.5,0.2,0.8c0,0.5-0.2,0.9-0.6,1.2
				c-0.4,0.3-1,0.5-1.6,0.5c-0.5,0-0.9-0.1-1.2-0.2c-0.4-0.2-0.6-0.4-0.8-0.7c-0.2-0.3-0.3-0.6-0.3-1h1c0,0.3,0.2,0.6,0.4,0.8
				s0.6,0.3,1,0.3c0.4,0,0.7-0.1,0.9-0.2S1732.7,287.6,1732.7,287.3z"/>
			<path class="st25" d="M1737.4,288.9c-0.8,0-1.4-0.3-1.9-0.8s-0.7-1.2-0.7-2.1v-0.2c0-0.6,0.1-1.1,0.3-1.5
				c0.2-0.5,0.5-0.8,0.9-1.1s0.8-0.4,1.3-0.4c0.8,0,1.3,0.2,1.8,0.7c0.4,0.5,0.6,1.2,0.6,2.1v0.4h-3.9c0,0.6,0.2,1,0.5,1.4
				c0.3,0.4,0.7,0.5,1.2,0.5c0.4,0,0.6-0.1,0.9-0.2c0.2-0.1,0.5-0.3,0.6-0.6l0.6,0.5C1739.1,288.6,1738.4,288.9,1737.4,288.9z
				 M1737.3,283.7c-0.4,0-0.7,0.1-1,0.4c-0.3,0.3-0.4,0.7-0.5,1.2h2.9v-0.1c0-0.5-0.2-0.9-0.4-1.2
				C1738,283.9,1737.7,283.7,1737.3,283.7z"/>
			<path class="st25" d="M1743.1,288.1c0.4,0,0.7-0.1,0.9-0.3c0.3-0.2,0.4-0.5,0.4-0.8h0.9c0,0.3-0.1,0.7-0.3,1
				c-0.2,0.3-0.5,0.5-0.8,0.7c-0.4,0.2-0.7,0.3-1.1,0.3c-0.8,0-1.4-0.3-1.9-0.8c-0.5-0.5-0.7-1.3-0.7-2.2v-0.2
				c0-0.6,0.1-1.1,0.3-1.5c0.2-0.4,0.5-0.8,0.9-1c0.4-0.2,0.8-0.4,1.4-0.4c0.7,0,1.2,0.2,1.6,0.6c0.4,0.4,0.7,0.9,0.7,1.5h-0.9
				c0-0.4-0.2-0.7-0.4-0.9c-0.3-0.2-0.6-0.4-0.9-0.4c-0.5,0-0.9,0.2-1.2,0.5c-0.3,0.4-0.4,0.9-0.4,1.6v0.2c0,0.7,0.1,1.2,0.4,1.5
				C1742.2,288,1742.6,288.1,1743.1,288.1z"/>
			<path class="st25" d="M1750.2,288.3c-0.4,0.5-1,0.7-1.7,0.7c-0.6,0-1.1-0.2-1.4-0.5c-0.3-0.4-0.5-0.9-0.5-1.6V283h1v3.8
				c0,0.9,0.4,1.3,1.1,1.3c0.8,0,1.3-0.3,1.5-0.8V283h1v5.8h-0.9L1750.2,288.3z"/>
			<path class="st25" d="M1753.6,283l0,0.7c0.4-0.6,1-0.8,1.7-0.8c1.2,0,1.8,0.7,1.9,2.1v3.8h-1V285c0-0.4-0.1-0.7-0.3-0.9
				c-0.2-0.2-0.5-0.3-0.9-0.3c-0.3,0-0.6,0.1-0.8,0.3c-0.2,0.2-0.4,0.4-0.6,0.7v4.1h-1V283H1753.6z"/>
			<path class="st25" d="M1758.5,285.9c0-0.9,0.2-1.6,0.6-2.2c0.4-0.5,1-0.8,1.7-0.8c0.7,0,1.2,0.2,1.6,0.7v-3h1v8.2h-0.9l0-0.6
				c-0.4,0.5-1,0.7-1.7,0.7c-0.7,0-1.2-0.3-1.6-0.8C1758.7,287.6,1758.5,286.8,1758.5,285.9L1758.5,285.9z M1759.5,286
				c0,0.7,0.1,1.2,0.4,1.5c0.3,0.4,0.6,0.6,1.1,0.6c0.6,0,1.1-0.3,1.4-0.8v-2.7c-0.3-0.5-0.8-0.8-1.4-0.8c-0.5,0-0.9,0.2-1.1,0.6
				C1759.6,284.7,1759.5,285.3,1759.5,286z"/>
			<path class="st25" d="M1768.5,288.8c-0.1-0.1-0.1-0.3-0.1-0.6c-0.5,0.5-1,0.7-1.7,0.7c-0.6,0-1-0.2-1.4-0.5s-0.6-0.7-0.6-1.2
				c0-0.6,0.2-1.1,0.7-1.4s1.1-0.5,1.9-0.5h1v-0.5c0-0.3-0.1-0.6-0.3-0.8c-0.2-0.2-0.5-0.3-0.9-0.3c-0.4,0-0.7,0.1-0.9,0.3
				c-0.2,0.2-0.4,0.4-0.4,0.6h-1c0-0.3,0.1-0.6,0.3-0.8c0.2-0.3,0.5-0.5,0.8-0.6c0.4-0.2,0.7-0.2,1.2-0.2c0.7,0,1.2,0.2,1.6,0.5
				c0.4,0.3,0.6,0.8,0.6,1.4v2.7c0,0.5,0.1,1,0.2,1.3v0.1H1768.5z M1766.8,288.1c0.3,0,0.6-0.1,0.9-0.2s0.5-0.4,0.6-0.6V286h-0.8
				c-1.2,0-1.8,0.4-1.8,1.1c0,0.3,0.1,0.6,0.3,0.7C1766.2,288,1766.5,288.1,1766.8,288.1z"/>
			<path class="st25" d="M1773.7,283.9c-0.2,0-0.3,0-0.5,0c-0.7,0-1.1,0.3-1.3,0.8v4.1h-1V283h1l0,0.7c0.3-0.5,0.8-0.8,1.4-0.8
				c0.2,0,0.3,0,0.4,0.1V283.9z"/>
			<path class="st25" d="M1774.6,281.5c0-0.2,0-0.3,0.1-0.4c0.1-0.1,0.2-0.2,0.4-0.2s0.3,0.1,0.4,0.2c0.1,0.1,0.2,0.2,0.2,0.4
				c0,0.2,0,0.3-0.2,0.4c-0.1,0.1-0.2,0.2-0.4,0.2s-0.3-0.1-0.4-0.2S1774.6,281.6,1774.6,281.5z M1775.7,288.8h-1V283h1V288.8z"/>
			<path class="st25" d="M1777,285.9c0-0.6,0.1-1.1,0.3-1.5c0.2-0.5,0.5-0.8,0.9-1.1c0.4-0.2,0.9-0.4,1.4-0.4c0.8,0,1.4,0.3,1.9,0.8
				c0.5,0.5,0.7,1.3,0.7,2.2v0.1c0,0.6-0.1,1.1-0.3,1.5s-0.5,0.8-0.9,1c-0.4,0.3-0.9,0.4-1.4,0.4c-0.8,0-1.4-0.3-1.9-0.8
				C1777.3,287.6,1777,286.9,1777,285.9L1777,285.9z M1778,286c0,0.6,0.1,1.2,0.4,1.6c0.3,0.4,0.7,0.6,1.2,0.6
				c0.5,0,0.9-0.2,1.2-0.6c0.3-0.4,0.4-1,0.4-1.7c0-0.6-0.2-1.2-0.5-1.5c-0.3-0.4-0.7-0.6-1.2-0.6c-0.5,0-0.9,0.2-1.2,0.6
				C1778.2,284.7,1778,285.3,1778,286z"/>
		</g>
		<g class="st24">
			<path class="st25" d="M1696.1,312.1h-3.4v2.8h3.9v0.8h-5v-7.8h4.9v0.8h-3.9v2.5h3.4V312.1z"/>
			<path class="st25" d="M1698.7,309.9l0,0.6c0.4-0.5,1-0.8,1.7-0.8c0.8,0,1.4,0.3,1.7,0.9c0.2-0.3,0.4-0.5,0.8-0.7s0.7-0.3,1.1-0.3
				c1.3,0,1.9,0.7,1.9,2v3.9h-1v-3.8c0-0.4-0.1-0.7-0.3-0.9c-0.2-0.2-0.5-0.3-1-0.3c-0.4,0-0.7,0.1-0.9,0.3
				c-0.2,0.2-0.4,0.5-0.4,0.9v3.9h-1v-3.8c0-0.8-0.4-1.3-1.2-1.3c-0.7,0-1.1,0.3-1.3,0.8v4.2h-1v-5.8H1698.7z"/>
			<path class="st25" d="M1712.3,312.9c0,0.9-0.2,1.6-0.6,2.1s-1,0.8-1.6,0.8c-0.7,0-1.3-0.3-1.7-0.8l0,0.7h-0.9v-8.2h1v3.1
				c0.4-0.5,1-0.7,1.7-0.7c0.7,0,1.3,0.3,1.7,0.8C1712.1,311.1,1712.3,311.8,1712.3,312.9L1712.3,312.9z M1711.4,312.7
				c0-0.7-0.1-1.2-0.4-1.6c-0.3-0.4-0.6-0.6-1.1-0.6c-0.7,0-1.1,0.3-1.4,0.9v2.5c0.3,0.6,0.8,0.9,1.4,0.9c0.5,0,0.8-0.2,1.1-0.6
				C1711.2,314,1711.4,313.5,1711.4,312.7z"/>
			<path class="st25" d="M1717.2,315.7c-0.1-0.1-0.1-0.3-0.1-0.6c-0.5,0.5-1,0.7-1.7,0.7c-0.6,0-1-0.2-1.4-0.5s-0.6-0.7-0.6-1.2
				c0-0.6,0.2-1.1,0.7-1.4s1.1-0.5,1.9-0.5h1v-0.5c0-0.3-0.1-0.6-0.3-0.8c-0.2-0.2-0.5-0.3-0.9-0.3c-0.4,0-0.7,0.1-0.9,0.3
				c-0.2,0.2-0.4,0.4-0.4,0.6h-1c0-0.3,0.1-0.6,0.3-0.8c0.2-0.3,0.5-0.5,0.8-0.6c0.4-0.2,0.7-0.2,1.2-0.2c0.7,0,1.2,0.2,1.6,0.5
				c0.4,0.3,0.6,0.8,0.6,1.4v2.7c0,0.5,0.1,1,0.2,1.3v0.1H1717.2z M1715.5,314.9c0.3,0,0.6-0.1,0.9-0.2s0.5-0.4,0.6-0.6v-1.2h-0.8
				c-1.2,0-1.8,0.4-1.8,1.1c0,0.3,0.1,0.6,0.3,0.7C1714.9,314.9,1715.2,314.9,1715.5,314.9z"/>
			<path class="st25" d="M1720.7,315.7h-1v-8.2h1V315.7z"/>
			<path class="st25" d="M1725.8,315.7c-0.1-0.1-0.1-0.3-0.1-0.6c-0.5,0.5-1,0.7-1.7,0.7c-0.6,0-1-0.2-1.4-0.5
				c-0.4-0.3-0.5-0.7-0.5-1.2c0-0.6,0.2-1.1,0.7-1.4c0.5-0.3,1.1-0.5,1.9-0.5h1v-0.5c0-0.3-0.1-0.6-0.3-0.8
				c-0.2-0.2-0.5-0.3-0.9-0.3c-0.4,0-0.7,0.1-0.9,0.3c-0.2,0.2-0.4,0.4-0.4,0.6h-1c0-0.3,0.1-0.6,0.3-0.8s0.5-0.5,0.8-0.6
				s0.7-0.2,1.2-0.2c0.7,0,1.2,0.2,1.6,0.5c0.4,0.3,0.6,0.8,0.6,1.4v2.7c0,0.5,0.1,1,0.2,1.3v0.1H1725.8z M1724.2,314.9
				c0.3,0,0.6-0.1,0.9-0.2s0.5-0.4,0.6-0.6v-1.2h-0.8c-1.2,0-1.8,0.4-1.8,1.1c0,0.3,0.1,0.6,0.3,0.7
				C1723.6,314.9,1723.9,314.9,1724.2,314.9z"/>
			<path class="st25" d="M1729.3,309.9v6.5c0,1.1-0.5,1.7-1.5,1.7c-0.2,0-0.4,0-0.6-0.1v-0.8c0.1,0,0.3,0,0.5,0
				c0.2,0,0.4-0.1,0.5-0.2c0.1-0.1,0.2-0.3,0.2-0.6v-6.5H1729.3z M1728.2,308.3c0-0.2,0-0.3,0.1-0.4c0.1-0.1,0.2-0.2,0.4-0.2
				c0.2,0,0.3,0.1,0.4,0.2c0.1,0.1,0.2,0.2,0.2,0.4c0,0.2-0.1,0.3-0.2,0.4c-0.1,0.1-0.2,0.2-0.4,0.2s-0.3-0.1-0.4-0.2
				S1728.2,308.5,1728.2,308.3z"/>
			<path class="st25" d="M1733.3,315.8c-0.8,0-1.4-0.3-1.9-0.8s-0.7-1.2-0.7-2.1v-0.2c0-0.6,0.1-1.1,0.3-1.5
				c0.2-0.5,0.5-0.8,0.9-1.1c0.4-0.3,0.8-0.4,1.3-0.4c0.8,0,1.3,0.2,1.8,0.7c0.4,0.5,0.6,1.2,0.6,2.1v0.4h-3.9c0,0.6,0.2,1,0.5,1.4
				s0.7,0.5,1.2,0.5c0.4,0,0.6-0.1,0.9-0.2c0.2-0.1,0.5-0.3,0.6-0.6l0.6,0.5C1735,315.4,1734.2,315.8,1733.3,315.8z M1733.2,310.6
				c-0.4,0-0.7,0.1-1,0.4c-0.3,0.3-0.4,0.7-0.5,1.2h2.9v-0.1c0-0.5-0.2-0.9-0.4-1.2C1733.9,310.7,1733.6,310.6,1733.2,310.6z"/>
			<path class="st25" d="M1744.3,312.9c0,0.9-0.2,1.6-0.6,2.1c-0.4,0.5-1,0.8-1.6,0.8c-0.7,0-1.3-0.2-1.7-0.7v2.8h-1v-8h0.9l0,0.6
				c0.4-0.5,1-0.8,1.7-0.8c0.7,0,1.2,0.3,1.7,0.8C1744.1,311.1,1744.3,311.8,1744.3,312.9L1744.3,312.9z M1743.3,312.7
				c0-0.7-0.1-1.2-0.4-1.6c-0.3-0.4-0.7-0.6-1.1-0.6c-0.6,0-1.1,0.3-1.4,0.8v2.8c0.3,0.5,0.8,0.8,1.4,0.8c0.5,0,0.9-0.2,1.1-0.6
				C1743.2,314,1743.3,313.5,1743.3,312.7z"/>
			<path class="st25" d="M1748.4,310.8c-0.2,0-0.3,0-0.5,0c-0.7,0-1.1,0.3-1.3,0.8v4.1h-1v-5.8h1l0,0.7c0.3-0.5,0.8-0.8,1.4-0.8
				c0.2,0,0.3,0,0.4,0.1V310.8z"/>
			<path class="st25" d="M1749.3,308.3c0-0.2,0-0.3,0.1-0.4c0.1-0.1,0.2-0.2,0.4-0.2s0.3,0.1,0.4,0.2c0.1,0.1,0.2,0.2,0.2,0.4
				c0,0.2-0.1,0.3-0.2,0.4c-0.1,0.1-0.2,0.2-0.4,0.2s-0.3-0.1-0.4-0.2C1749.4,308.6,1749.3,308.5,1749.3,308.3z M1750.4,315.7h-1
				v-5.8h1V315.7z"/>
			<path class="st25" d="M1752.9,309.9l0,0.6c0.4-0.5,1-0.8,1.7-0.8c0.8,0,1.4,0.3,1.7,0.9c0.2-0.3,0.4-0.5,0.8-0.7
				c0.3-0.2,0.7-0.3,1.1-0.3c1.3,0,1.9,0.7,1.9,2v3.9h-1v-3.8c0-0.4-0.1-0.7-0.3-0.9c-0.2-0.2-0.5-0.3-1-0.3c-0.4,0-0.7,0.1-0.9,0.3
				c-0.2,0.2-0.4,0.5-0.4,0.9v3.9h-1v-3.8c0-0.8-0.4-1.3-1.2-1.3c-0.7,0-1.1,0.3-1.3,0.8v4.2h-1v-5.8H1752.9z"/>
			<path class="st25" d="M1765.2,315.7c-0.1-0.1-0.1-0.3-0.1-0.6c-0.5,0.5-1,0.7-1.7,0.7c-0.6,0-1-0.2-1.4-0.5s-0.6-0.7-0.6-1.2
				c0-0.6,0.2-1.1,0.7-1.4s1.1-0.5,1.9-0.5h1v-0.5c0-0.3-0.1-0.6-0.3-0.8c-0.2-0.2-0.5-0.3-0.9-0.3c-0.4,0-0.7,0.1-0.9,0.3
				c-0.2,0.2-0.4,0.4-0.4,0.6h-1c0-0.3,0.1-0.6,0.3-0.8c0.2-0.3,0.5-0.5,0.8-0.6c0.4-0.2,0.7-0.2,1.2-0.2c0.7,0,1.2,0.2,1.6,0.5
				c0.4,0.3,0.6,0.8,0.6,1.4v2.7c0,0.5,0.1,1,0.2,1.3v0.1H1765.2z M1763.6,314.9c0.3,0,0.6-0.1,0.9-0.2s0.5-0.4,0.6-0.6v-1.2h-0.8
				c-1.2,0-1.8,0.4-1.8,1.1c0,0.3,0.1,0.6,0.3,0.7C1763,314.9,1763.2,314.9,1763.6,314.9z"/>
			<path class="st25" d="M1770.4,310.8c-0.2,0-0.3,0-0.5,0c-0.7,0-1.1,0.3-1.3,0.8v4.1h-1v-5.8h1l0,0.7c0.3-0.5,0.8-0.8,1.4-0.8
				c0.2,0,0.3,0,0.4,0.1V310.8z"/>
			<path class="st25" d="M1771.3,308.3c0-0.2,0-0.3,0.1-0.4c0.1-0.1,0.2-0.2,0.4-0.2s0.3,0.1,0.4,0.2c0.1,0.1,0.2,0.2,0.2,0.4
				c0,0.2,0,0.3-0.2,0.4c-0.1,0.1-0.2,0.2-0.4,0.2s-0.3-0.1-0.4-0.2S1771.3,308.5,1771.3,308.3z M1772.4,315.7h-1v-5.8h1V315.7z"/>
			<path class="st25" d="M1773.7,312.7c0-0.6,0.1-1.1,0.3-1.5c0.2-0.5,0.5-0.8,0.9-1.1c0.4-0.2,0.9-0.4,1.4-0.4
				c0.8,0,1.4,0.3,1.9,0.8c0.5,0.5,0.7,1.3,0.7,2.2v0.1c0,0.6-0.1,1.1-0.3,1.5s-0.5,0.8-0.9,1c-0.4,0.3-0.9,0.4-1.4,0.4
				c-0.8,0-1.4-0.3-1.9-0.8C1774,314.4,1773.7,313.7,1773.7,312.7L1773.7,312.7z M1774.7,312.9c0,0.6,0.1,1.2,0.4,1.6
				c0.3,0.4,0.7,0.6,1.2,0.6c0.5,0,0.9-0.2,1.2-0.6c0.3-0.4,0.4-1,0.4-1.7c0-0.6-0.2-1.2-0.5-1.5c-0.3-0.4-0.7-0.6-1.2-0.6
				c-0.5,0-0.9,0.2-1.2,0.6C1774.9,311.6,1774.7,312.1,1774.7,312.9z"/>
		</g>
		<g class="st24">
			<path class="st25" d="M1696.1,407.8h-3.4v2.8h3.9v0.8h-5v-7.8h4.9v0.8h-3.9v2.5h3.4V407.8z"/>
			<path class="st25" d="M1698.7,405.7l0,0.6c0.4-0.5,1-0.8,1.7-0.8c0.8,0,1.4,0.3,1.7,0.9c0.2-0.3,0.4-0.5,0.8-0.7s0.7-0.3,1.1-0.3
				c1.3,0,1.9,0.7,1.9,2v3.9h-1v-3.8c0-0.4-0.1-0.7-0.3-0.9c-0.2-0.2-0.5-0.3-1-0.3c-0.4,0-0.7,0.1-0.9,0.3
				c-0.2,0.2-0.4,0.5-0.4,0.9v3.9h-1v-3.8c0-0.8-0.4-1.3-1.2-1.3c-0.7,0-1.1,0.3-1.3,0.8v4.2h-1v-5.8H1698.7z"/>
			<path class="st25" d="M1712.3,408.6c0,0.9-0.2,1.6-0.6,2.1s-1,0.8-1.6,0.8c-0.7,0-1.3-0.3-1.7-0.8l0,0.7h-0.9v-8.2h1v3.1
				c0.4-0.5,1-0.7,1.7-0.7c0.7,0,1.3,0.3,1.7,0.8C1712.1,406.9,1712.3,407.6,1712.3,408.6L1712.3,408.6z M1711.4,408.5
				c0-0.7-0.1-1.2-0.4-1.6c-0.3-0.4-0.6-0.6-1.1-0.6c-0.7,0-1.1,0.3-1.4,0.9v2.5c0.3,0.6,0.8,0.9,1.4,0.9c0.5,0,0.8-0.2,1.1-0.6
				C1711.2,409.8,1711.4,409.3,1711.4,408.5z"/>
			<path class="st25" d="M1717.2,411.5c-0.1-0.1-0.1-0.3-0.1-0.6c-0.5,0.5-1,0.7-1.7,0.7c-0.6,0-1-0.2-1.4-0.5s-0.6-0.7-0.6-1.2
				c0-0.6,0.2-1.1,0.7-1.4s1.1-0.5,1.9-0.5h1v-0.5c0-0.3-0.1-0.6-0.3-0.8c-0.2-0.2-0.5-0.3-0.9-0.3c-0.4,0-0.7,0.1-0.9,0.3
				c-0.2,0.2-0.4,0.4-0.4,0.6h-1c0-0.3,0.1-0.6,0.3-0.8c0.2-0.3,0.5-0.5,0.8-0.6c0.4-0.2,0.7-0.2,1.2-0.2c0.7,0,1.2,0.2,1.6,0.5
				c0.4,0.3,0.6,0.8,0.6,1.4v2.7c0,0.5,0.1,1,0.2,1.3v0.1H1717.2z M1715.5,410.7c0.3,0,0.6-0.1,0.9-0.2s0.5-0.4,0.6-0.6v-1.2h-0.8
				c-1.2,0-1.8,0.4-1.8,1.1c0,0.3,0.1,0.6,0.3,0.7C1714.9,410.6,1715.2,410.7,1715.5,410.7z"/>
			<path class="st25" d="M1720.7,411.5h-1v-8.2h1V411.5z"/>
			<path class="st25" d="M1725.8,411.5c-0.1-0.1-0.1-0.3-0.1-0.6c-0.5,0.5-1,0.7-1.7,0.7c-0.6,0-1-0.2-1.4-0.5
				c-0.4-0.3-0.5-0.7-0.5-1.2c0-0.6,0.2-1.1,0.7-1.4c0.5-0.3,1.1-0.5,1.9-0.5h1v-0.5c0-0.3-0.1-0.6-0.3-0.8
				c-0.2-0.2-0.5-0.3-0.9-0.3c-0.4,0-0.7,0.1-0.9,0.3c-0.2,0.2-0.4,0.4-0.4,0.6h-1c0-0.3,0.1-0.6,0.3-0.8s0.5-0.5,0.8-0.6
				s0.7-0.2,1.2-0.2c0.7,0,1.2,0.2,1.6,0.5c0.4,0.3,0.6,0.8,0.6,1.4v2.7c0,0.5,0.1,1,0.2,1.3v0.1H1725.8z M1724.2,410.7
				c0.3,0,0.6-0.1,0.9-0.2s0.5-0.4,0.6-0.6v-1.2h-0.8c-1.2,0-1.8,0.4-1.8,1.1c0,0.3,0.1,0.6,0.3,0.7
				C1723.6,410.6,1723.9,410.7,1724.2,410.7z"/>
			<path class="st25" d="M1729.3,405.7v6.5c0,1.1-0.5,1.7-1.5,1.7c-0.2,0-0.4,0-0.6-0.1v-0.8c0.1,0,0.3,0,0.5,0
				c0.2,0,0.4-0.1,0.5-0.2c0.1-0.1,0.2-0.3,0.2-0.6v-6.5H1729.3z M1728.2,404.1c0-0.2,0-0.3,0.1-0.4c0.1-0.1,0.2-0.2,0.4-0.2
				c0.2,0,0.3,0.1,0.4,0.2c0.1,0.1,0.2,0.2,0.2,0.4c0,0.2-0.1,0.3-0.2,0.4c-0.1,0.1-0.2,0.2-0.4,0.2s-0.3-0.1-0.4-0.2
				S1728.2,404.3,1728.2,404.1z"/>
			<path class="st25" d="M1733.3,411.6c-0.8,0-1.4-0.3-1.9-0.8s-0.7-1.2-0.7-2.1v-0.2c0-0.6,0.1-1.1,0.3-1.5
				c0.2-0.5,0.5-0.8,0.9-1.1c0.4-0.3,0.8-0.4,1.3-0.4c0.8,0,1.3,0.2,1.8,0.7c0.4,0.5,0.6,1.2,0.6,2.1v0.4h-3.9c0,0.6,0.2,1,0.5,1.4
				s0.7,0.5,1.2,0.5c0.4,0,0.6-0.1,0.9-0.2c0.2-0.1,0.5-0.3,0.6-0.6l0.6,0.5C1735,411.2,1734.2,411.6,1733.3,411.6z M1733.2,406.4
				c-0.4,0-0.7,0.1-1,0.4c-0.3,0.3-0.4,0.7-0.5,1.2h2.9V408c0-0.5-0.2-0.9-0.4-1.2C1733.9,406.5,1733.6,406.4,1733.2,406.4z"/>
			<path class="st25" d="M1742.8,409.9c0-0.3-0.1-0.5-0.3-0.6s-0.6-0.3-1.1-0.4c-0.5-0.1-0.9-0.2-1.2-0.4c-0.3-0.2-0.5-0.3-0.7-0.5
				c-0.1-0.2-0.2-0.5-0.2-0.7c0-0.5,0.2-0.9,0.6-1.2c0.4-0.3,0.9-0.5,1.5-0.5c0.7,0,1.2,0.2,1.6,0.5c0.4,0.3,0.6,0.8,0.6,1.3h-1
				c0-0.3-0.1-0.5-0.3-0.7c-0.2-0.2-0.5-0.3-0.9-0.3c-0.4,0-0.6,0.1-0.8,0.2s-0.3,0.4-0.3,0.6c0,0.2,0.1,0.4,0.3,0.5
				c0.2,0.1,0.5,0.2,1,0.3c0.5,0.1,0.9,0.2,1.2,0.4c0.3,0.2,0.5,0.3,0.7,0.6s0.2,0.5,0.2,0.8c0,0.5-0.2,0.9-0.6,1.2
				c-0.4,0.3-1,0.5-1.6,0.5c-0.5,0-0.9-0.1-1.2-0.2c-0.4-0.2-0.6-0.4-0.8-0.7c-0.2-0.3-0.3-0.6-0.3-1h1c0,0.3,0.2,0.6,0.4,0.8
				c0.2,0.2,0.6,0.3,1,0.3c0.4,0,0.7-0.1,0.9-0.2C1742.7,410.4,1742.8,410.2,1742.8,409.9z"/>
			<path class="st25" d="M1747.5,411.6c-0.8,0-1.4-0.3-1.9-0.8s-0.7-1.2-0.7-2.1v-0.2c0-0.6,0.1-1.1,0.3-1.5
				c0.2-0.5,0.5-0.8,0.9-1.1c0.4-0.3,0.8-0.4,1.3-0.4c0.8,0,1.3,0.2,1.8,0.7c0.4,0.5,0.6,1.2,0.6,2.1v0.4h-3.9c0,0.6,0.2,1,0.5,1.4
				s0.7,0.5,1.2,0.5c0.4,0,0.6-0.1,0.9-0.2c0.2-0.1,0.5-0.3,0.6-0.6l0.6,0.5C1749.2,411.2,1748.5,411.6,1747.5,411.6z M1747.4,406.4
				c-0.4,0-0.7,0.1-1,0.4c-0.3,0.3-0.4,0.7-0.5,1.2h2.9V408c0-0.5-0.2-0.9-0.4-1.2C1748.1,406.5,1747.8,406.4,1747.4,406.4z"/>
			<path class="st25" d="M1753.2,410.8c0.4,0,0.7-0.1,0.9-0.3c0.3-0.2,0.4-0.5,0.4-0.8h0.9c0,0.3-0.1,0.7-0.3,1
				c-0.2,0.3-0.5,0.5-0.8,0.7s-0.7,0.3-1.1,0.3c-0.8,0-1.4-0.3-1.9-0.8c-0.5-0.5-0.7-1.3-0.7-2.2v-0.2c0-0.6,0.1-1.1,0.3-1.5
				c0.2-0.4,0.5-0.8,0.9-1s0.8-0.4,1.4-0.4c0.7,0,1.2,0.2,1.6,0.6c0.4,0.4,0.7,0.9,0.7,1.5h-0.9c0-0.4-0.2-0.7-0.4-0.9
				c-0.3-0.2-0.6-0.4-0.9-0.4c-0.5,0-0.9,0.2-1.2,0.5s-0.4,0.9-0.4,1.6v0.2c0,0.7,0.1,1.2,0.4,1.5
				C1752.3,410.6,1752.7,410.8,1753.2,410.8z"/>
			<path class="st25" d="M1760.3,410.9c-0.4,0.5-1,0.7-1.7,0.7c-0.6,0-1.1-0.2-1.4-0.5c-0.3-0.4-0.5-0.9-0.5-1.6v-3.8h1v3.8
				c0,0.9,0.4,1.3,1.1,1.3c0.8,0,1.3-0.3,1.5-0.8v-4.2h1v5.8h-0.9L1760.3,410.9z"/>
			<path class="st25" d="M1763.7,405.7l0,0.7c0.4-0.6,1-0.8,1.7-0.8c1.2,0,1.8,0.7,1.9,2.1v3.8h-1v-3.8c0-0.4-0.1-0.7-0.3-0.9
				c-0.2-0.2-0.5-0.3-0.9-0.3c-0.3,0-0.6,0.1-0.8,0.3c-0.2,0.2-0.4,0.4-0.6,0.7v4.1h-1v-5.8H1763.7z"/>
			<path class="st25" d="M1768.6,408.5c0-0.9,0.2-1.6,0.6-2.2c0.4-0.5,1-0.8,1.7-0.8c0.7,0,1.2,0.2,1.6,0.7v-3h1v8.2h-0.9l0-0.6
				c-0.4,0.5-1,0.7-1.7,0.7c-0.7,0-1.2-0.3-1.6-0.8C1768.8,410.2,1768.6,409.5,1768.6,408.5L1768.6,408.5z M1769.6,408.6
				c0,0.7,0.1,1.2,0.4,1.5c0.3,0.4,0.6,0.6,1.1,0.6c0.6,0,1.1-0.3,1.4-0.8v-2.7c-0.3-0.5-0.8-0.8-1.4-0.8c-0.5,0-0.9,0.2-1.1,0.6
				C1769.7,407.3,1769.6,407.9,1769.6,408.6z"/>
			<path class="st25" d="M1778.6,411.5c-0.1-0.1-0.1-0.3-0.1-0.6c-0.5,0.5-1,0.7-1.7,0.7c-0.6,0-1-0.2-1.4-0.5
				c-0.4-0.3-0.5-0.7-0.5-1.2c0-0.6,0.2-1.1,0.7-1.4c0.5-0.3,1.1-0.5,1.9-0.5h1v-0.5c0-0.3-0.1-0.6-0.3-0.8
				c-0.2-0.2-0.5-0.3-0.9-0.3c-0.4,0-0.7,0.1-0.9,0.3c-0.2,0.2-0.4,0.4-0.4,0.6h-1c0-0.3,0.1-0.6,0.3-0.8s0.5-0.5,0.8-0.6
				s0.7-0.2,1.2-0.2c0.7,0,1.2,0.2,1.6,0.5c0.4,0.3,0.6,0.8,0.6,1.4v2.7c0,0.5,0.1,1,0.2,1.3v0.1H1778.6z M1776.9,410.7
				c0.3,0,0.6-0.1,0.9-0.2s0.5-0.4,0.6-0.6v-1.2h-0.8c-1.2,0-1.8,0.4-1.8,1.1c0,0.3,0.1,0.6,0.3,0.7
				C1776.4,410.6,1776.6,410.7,1776.9,410.7z"/>
			<path class="st25" d="M1783.8,406.5c-0.2,0-0.3,0-0.5,0c-0.7,0-1.1,0.3-1.3,0.8v4.1h-1v-5.8h1l0,0.7c0.3-0.5,0.8-0.8,1.4-0.8
				c0.2,0,0.3,0,0.4,0.1V406.5z"/>
			<path class="st25" d="M1784.7,404.1c0-0.2,0-0.3,0.1-0.4c0.1-0.1,0.2-0.2,0.4-0.2s0.3,0.1,0.4,0.2c0.1,0.1,0.2,0.2,0.2,0.4
				c0,0.2-0.1,0.3-0.2,0.4c-0.1,0.1-0.2,0.2-0.4,0.2s-0.3-0.1-0.4-0.2C1784.8,404.4,1784.7,404.3,1784.7,404.1z M1785.8,411.5h-1
				v-5.8h1V411.5z"/>
			<path class="st25" d="M1787.1,408.5c0-0.6,0.1-1.1,0.3-1.5c0.2-0.5,0.5-0.8,0.9-1.1c0.4-0.2,0.9-0.4,1.4-0.4
				c0.8,0,1.4,0.3,1.9,0.8c0.5,0.5,0.7,1.3,0.7,2.2v0.1c0,0.6-0.1,1.1-0.3,1.5c-0.2,0.4-0.5,0.8-0.9,1c-0.4,0.3-0.9,0.4-1.4,0.4
				c-0.8,0-1.4-0.3-1.9-0.8C1787.4,410.2,1787.1,409.5,1787.1,408.5L1787.1,408.5z M1788.1,408.6c0,0.6,0.1,1.2,0.4,1.6
				s0.7,0.6,1.2,0.6c0.5,0,0.9-0.2,1.2-0.6c0.3-0.4,0.4-1,0.4-1.7c0-0.6-0.2-1.2-0.5-1.5s-0.7-0.6-1.2-0.6c-0.5,0-0.9,0.2-1.2,0.6
				C1788.3,407.3,1788.1,407.9,1788.1,408.6z"/>
		</g>
		<g class="st24">
			<path class="st25" d="M1696.1,493h-3.4v2.8h3.9v0.8h-5v-7.8h4.9v0.8h-3.9v2.5h3.4V493z"/>
			<path class="st25" d="M1701.2,495.1c0-0.3-0.1-0.5-0.3-0.6s-0.6-0.3-1.1-0.4c-0.5-0.1-0.9-0.2-1.2-0.4c-0.3-0.2-0.5-0.3-0.7-0.5
				s-0.2-0.5-0.2-0.7c0-0.5,0.2-0.9,0.6-1.2c0.4-0.3,0.9-0.5,1.5-0.5c0.7,0,1.2,0.2,1.6,0.5c0.4,0.3,0.6,0.8,0.6,1.3h-1
				c0-0.3-0.1-0.5-0.3-0.7c-0.2-0.2-0.5-0.3-0.9-0.3c-0.4,0-0.6,0.1-0.8,0.2c-0.2,0.2-0.3,0.4-0.3,0.6c0,0.2,0.1,0.4,0.3,0.5
				c0.2,0.1,0.5,0.2,1,0.3c0.5,0.1,0.9,0.2,1.2,0.4c0.3,0.2,0.5,0.3,0.7,0.6s0.2,0.5,0.2,0.8c0,0.5-0.2,0.9-0.6,1.2
				c-0.4,0.3-1,0.5-1.6,0.5c-0.5,0-0.9-0.1-1.2-0.2c-0.4-0.2-0.6-0.4-0.8-0.7c-0.2-0.3-0.3-0.6-0.3-1h1c0,0.3,0.2,0.6,0.4,0.8
				c0.2,0.2,0.6,0.3,1,0.3c0.4,0,0.7-0.1,0.9-0.2C1701.1,495.5,1701.2,495.3,1701.2,495.1z"/>
			<path class="st25" d="M1703.2,493.7c0-0.9,0.2-1.6,0.6-2.2s1-0.8,1.7-0.8c0.7,0,1.2,0.2,1.6,0.7l0-0.6h0.9v8h-1v-2.8
				c-0.4,0.4-0.9,0.6-1.6,0.6c-0.7,0-1.3-0.3-1.7-0.8C1703.4,495.4,1703.2,494.6,1703.2,493.7L1703.2,493.7z M1704.2,493.8
				c0,0.7,0.1,1.2,0.4,1.6c0.3,0.4,0.7,0.6,1.1,0.6c0.6,0,1-0.3,1.4-0.8v-2.8c-0.3-0.5-0.8-0.8-1.3-0.8c-0.5,0-0.9,0.2-1.1,0.6
				C1704.4,492.5,1704.2,493,1704.2,493.8z"/>
			<path class="st25" d="M1713.3,496c-0.4,0.5-1,0.7-1.7,0.7c-0.6,0-1.1-0.2-1.4-0.5s-0.5-0.9-0.5-1.6v-3.8h1v3.8
				c0,0.9,0.4,1.3,1.1,1.3c0.8,0,1.3-0.3,1.5-0.8v-4.2h1v5.8h-0.9L1713.3,496z"/>
			<path class="st25" d="M1715.8,489.3c0-0.2,0-0.3,0.1-0.4c0.1-0.1,0.2-0.2,0.4-0.2s0.3,0.1,0.4,0.2c0.1,0.1,0.2,0.2,0.2,0.4
				c0,0.2,0,0.3-0.2,0.4c-0.1,0.1-0.2,0.2-0.4,0.2s-0.3-0.1-0.4-0.2S1715.8,489.4,1715.8,489.3z M1716.9,496.6h-1v-5.8h1V496.6z"/>
			<path class="st25" d="M1719.4,490.8l0,0.7c0.4-0.6,1-0.8,1.7-0.8c1.2,0,1.8,0.7,1.9,2.1v3.8h-1v-3.8c0-0.4-0.1-0.7-0.3-0.9
				c-0.2-0.2-0.5-0.3-0.9-0.3c-0.3,0-0.6,0.1-0.8,0.3c-0.2,0.2-0.4,0.4-0.6,0.7v4.1h-1v-5.8H1719.4z"/>
			<path class="st25" d="M1726.9,496.7c-0.8,0-1.4-0.3-1.9-0.8s-0.7-1.2-0.7-2.1v-0.2c0-0.6,0.1-1.1,0.3-1.5
				c0.2-0.5,0.5-0.8,0.9-1.1c0.4-0.3,0.8-0.4,1.3-0.4c0.8,0,1.3,0.2,1.8,0.7s0.6,1.2,0.6,2.1v0.4h-3.9c0,0.6,0.2,1,0.5,1.4
				c0.3,0.4,0.7,0.5,1.2,0.5c0.4,0,0.6-0.1,0.9-0.2c0.2-0.1,0.5-0.3,0.6-0.6l0.6,0.5C1728.6,496.3,1727.9,496.7,1726.9,496.7z
				 M1726.8,491.5c-0.4,0-0.7,0.1-1,0.4c-0.3,0.3-0.4,0.7-0.5,1.2h2.9v-0.1c0-0.5-0.2-0.9-0.4-1.2
				C1727.5,491.6,1727.2,491.5,1726.8,491.5z"/>
			<path class="st25" d="M1733.2,491.7c-0.2,0-0.3,0-0.5,0c-0.7,0-1.1,0.3-1.3,0.8v4.1h-1v-5.8h1l0,0.7c0.3-0.5,0.8-0.8,1.4-0.8
				c0.2,0,0.3,0,0.4,0.1V491.7z"/>
			<path class="st25" d="M1733.7,493.7c0-0.6,0.1-1.1,0.3-1.5c0.2-0.5,0.5-0.8,0.9-1.1c0.4-0.2,0.9-0.4,1.4-0.4
				c0.8,0,1.4,0.3,1.9,0.8c0.5,0.5,0.7,1.3,0.7,2.2v0.1c0,0.6-0.1,1.1-0.3,1.5s-0.5,0.8-0.9,1.1c-0.4,0.2-0.9,0.4-1.4,0.4
				c-0.8,0-1.4-0.3-1.9-0.8C1733.9,495.3,1733.7,494.6,1733.7,493.7L1733.7,493.7z M1734.7,493.8c0,0.6,0.1,1.2,0.4,1.6
				c0.3,0.4,0.7,0.6,1.2,0.6c0.5,0,0.9-0.2,1.2-0.6c0.3-0.4,0.4-0.9,0.4-1.7c0-0.6-0.2-1.2-0.5-1.5c-0.3-0.4-0.7-0.6-1.2-0.6
				c-0.5,0-0.9,0.2-1.2,0.6C1734.8,492.5,1734.7,493,1734.7,493.8z"/>
			<path class="st25" d="M1743.6,495.1c0-0.3-0.1-0.5-0.3-0.6s-0.6-0.3-1.1-0.4c-0.5-0.1-0.9-0.2-1.2-0.4c-0.3-0.2-0.5-0.3-0.7-0.5
				s-0.2-0.5-0.2-0.7c0-0.5,0.2-0.9,0.6-1.2c0.4-0.3,0.9-0.5,1.5-0.5c0.7,0,1.2,0.2,1.6,0.5c0.4,0.3,0.6,0.8,0.6,1.3h-1
				c0-0.3-0.1-0.5-0.3-0.7c-0.2-0.2-0.5-0.3-0.9-0.3c-0.4,0-0.6,0.1-0.8,0.2c-0.2,0.2-0.3,0.4-0.3,0.6c0,0.2,0.1,0.4,0.3,0.5
				c0.2,0.1,0.5,0.2,1,0.3c0.5,0.1,0.9,0.2,1.2,0.4c0.3,0.2,0.5,0.3,0.7,0.6s0.2,0.5,0.2,0.8c0,0.5-0.2,0.9-0.6,1.2
				c-0.4,0.3-1,0.5-1.6,0.5c-0.5,0-0.9-0.1-1.2-0.2c-0.4-0.2-0.6-0.4-0.8-0.7c-0.2-0.3-0.3-0.6-0.3-1h1c0,0.3,0.2,0.6,0.4,0.8
				c0.2,0.2,0.6,0.3,1,0.3c0.4,0,0.7-0.1,0.9-0.2C1743.5,495.5,1743.6,495.3,1743.6,495.1z"/>
		</g>
		<g class="st24">
			<path class="st25" d="M1692.7,574.4v3.1h-1v-7.8h2.9c0.9,0,1.5,0.2,2,0.7c0.5,0.4,0.7,1,0.7,1.7c0,0.8-0.2,1.3-0.7,1.8
				s-1.2,0.6-2,0.6H1692.7z M1692.7,573.6h1.9c0.6,0,1-0.1,1.3-0.4c0.3-0.3,0.4-0.6,0.4-1.1c0-0.5-0.1-0.8-0.4-1.1
				c-0.3-0.3-0.7-0.4-1.2-0.4h-1.9V573.6z"/>
			<path class="st25" d="M1702,577.5c-0.1-0.1-0.1-0.3-0.1-0.6c-0.5,0.5-1,0.7-1.7,0.7c-0.6,0-1-0.2-1.4-0.5
				c-0.4-0.3-0.5-0.7-0.5-1.2c0-0.6,0.2-1.1,0.7-1.4c0.5-0.3,1.1-0.5,1.9-0.5h1v-0.5c0-0.3-0.1-0.6-0.3-0.8
				c-0.2-0.2-0.5-0.3-0.9-0.3c-0.4,0-0.7,0.1-0.9,0.3c-0.2,0.2-0.4,0.4-0.4,0.6h-1c0-0.3,0.1-0.6,0.3-0.8c0.2-0.3,0.5-0.5,0.8-0.6
				c0.4-0.2,0.7-0.2,1.2-0.2c0.7,0,1.2,0.2,1.6,0.5c0.4,0.3,0.6,0.8,0.6,1.4v2.7c0,0.5,0.1,1,0.2,1.3v0.1H1702z M1700.4,576.7
				c0.3,0,0.6-0.1,0.9-0.2c0.3-0.2,0.5-0.4,0.6-0.6v-1.2h-0.8c-1.2,0-1.8,0.4-1.8,1.1c0,0.3,0.1,0.6,0.3,0.7
				C1699.8,576.6,1700,576.7,1700.4,576.7z"/>
			<path class="st25" d="M1705.5,577.5h-1v-8.2h1V577.5z"/>
			<path class="st25" d="M1709.5,577.6c-0.8,0-1.4-0.3-1.9-0.8s-0.7-1.2-0.7-2.1v-0.2c0-0.6,0.1-1.1,0.3-1.5
				c0.2-0.5,0.5-0.8,0.9-1.1c0.4-0.3,0.8-0.4,1.3-0.4c0.8,0,1.3,0.2,1.8,0.7c0.4,0.5,0.6,1.2,0.6,2.1v0.4h-3.9c0,0.6,0.2,1,0.5,1.4
				c0.3,0.4,0.7,0.5,1.2,0.5c0.4,0,0.6-0.1,0.9-0.2c0.2-0.1,0.5-0.3,0.6-0.6l0.6,0.5C1711.2,577.2,1710.5,577.6,1709.5,577.6z
				 M1709.4,572.4c-0.4,0-0.7,0.1-1,0.4c-0.3,0.3-0.4,0.7-0.5,1.2h2.9V574c0-0.5-0.2-0.9-0.4-1.2
				C1710.1,572.5,1709.8,572.4,1709.4,572.4z M1709.8,569.2h1.2l-1.4,1.6l-0.8,0L1709.8,569.2z"/>
		</g>
		<line id="Línea_331" class="st26" x1="1688" y1="246.2" x2="1604.1" y2="246.2"/>
		<line id="Línea_332" class="st26" x1="1688" y1="266.1" x2="1604.1" y2="266.1"/>
		<line id="Línea_333" class="st26" x1="1688" y1="285.2" x2="1604.1" y2="285.2"/>
		<line id="Línea_334" class="st26" x1="1689.5" y1="312.3" x2="1660.4" y2="312.3"/>
		<line id="Línea_335" class="st26" x1="1686.8" y1="407.9" x2="1653.1" y2="407.9"/>
		<line id="Línea_336" class="st26" x1="1689.1" y1="491.9" x2="1673.2" y2="491.9"/>
		<line id="Línea_337" class="st26" x1="1685.6" y1="574" x2="1642.1" y2="574"/>
	</g>
</g>
</svg>
