<?xml version="1.0" encoding="utf-8"?>
<!-- Generator: Adobe Illustrator 25.2.3, SVG Export Plug-In . SVG Version: 6.00 Build 0)  -->
<svg version="1.1" id="Capa_1" xmlns="http://www.w3.org/2000/svg" xmlns:xlink="http://www.w3.org/1999/xlink" x="0px" y="0px"
	 viewBox="0 0 610 395" style="enable-background:new 0 0 610 395;" xml:space="preserve">
<style type="text/css">
	.st0{fill:#36A3F7;}
	.st1{fill:#2986CE;}
	.st2{enable-background:new    ;}
	.st3{fill:#FFFFFF;}
	.st4{fill:#C69B67;}
	.st5{fill:#5E4A31;}
	.st6{fill:#876A40;}
	.st7{fill:#FBE2B8;}
</style>
<g id="Grupo_146944" transform="translate(-810 -11483)">
	<path id="Trazado_159178" class="st0" d="M810,11483h610v395H810V11483z"/>
	<g id="Grupo_102771" transform="translate(-8.829 -23.058)">
		<rect id="Rectángulo_34550" x="1039" y="11570" class="st1" width="360" height="62"/>
		<g class="st2">
			<path class="st3" d="M1143.9,11593v4h-2.3v-11.4h4.4c0.9,0,1.6,0.2,2.3,0.5s1.1,0.8,1.5,1.3s0.5,1.2,0.5,2c0,1.1-0.4,2-1.1,2.6
				s-1.8,1-3.2,1H1143.9z M1143.9,11591.1h2.1c0.6,0,1.1-0.1,1.4-0.4s0.5-0.7,0.5-1.2c0-0.6-0.2-1-0.5-1.4s-0.8-0.5-1.4-0.5h-2.1
				V11591.1z"/>
			<path class="st3" d="M1156.6,11597c-0.1-0.2-0.2-0.5-0.2-0.8c-0.5,0.6-1.3,0.9-2.1,0.9c-0.8,0-1.5-0.2-2.1-0.7s-0.8-1.1-0.8-1.8
				c0-0.9,0.3-1.6,1-2.1s1.6-0.7,2.9-0.7h1v-0.5c0-0.4-0.1-0.7-0.3-0.9s-0.5-0.4-0.9-0.4c-0.4,0-0.7,0.1-0.9,0.3s-0.3,0.4-0.3,0.8
				h-2.3c0-0.5,0.2-0.9,0.5-1.4s0.7-0.7,1.3-1s1.2-0.4,1.9-0.4c1,0,1.9,0.3,2.5,0.8s0.9,1.3,0.9,2.2v3.7c0,0.8,0.1,1.4,0.3,1.8v0.1
				H1156.6z M1154.7,11595.4c0.3,0,0.6-0.1,0.9-0.2s0.5-0.3,0.6-0.6v-1.5h-0.8c-1.1,0-1.7,0.4-1.8,1.2l0,0.1c0,0.3,0.1,0.5,0.3,0.7
				S1154.4,11595.4,1154.7,11595.4z"/>
			<path class="st3" d="M1162.6,11597h-2.3v-12h2.3V11597z"/>
			<path class="st3" d="M1166.9,11597h-2.3v-12h2.3V11597z"/>
			<path class="st3" d="M1172.6,11597.2c-1.2,0-2.2-0.4-3-1.1s-1.2-1.8-1.2-3v-0.2c0-0.8,0.2-1.6,0.5-2.3s0.8-1.2,1.4-1.5
				s1.3-0.5,2.1-0.5c1.2,0,2.1,0.4,2.7,1.1s1,1.8,1,3.1v0.9h-5.4c0.1,0.6,0.3,1,0.7,1.3s0.8,0.5,1.4,0.5c0.9,0,1.5-0.3,2-0.9
				l1.1,1.2c-0.3,0.5-0.8,0.9-1.4,1.1S1173.3,11597.2,1172.6,11597.2z M1172.4,11590.2c-0.4,0-0.8,0.2-1.1,0.5s-0.5,0.7-0.5,1.3h3.1
				v-0.2c0-0.5-0.1-0.9-0.4-1.2S1172.8,11590.2,1172.4,11590.2z"/>
			<path class="st3" d="M1180.1,11586.5v2.1h1.4v1.7h-1.4v4.2c0,0.3,0.1,0.5,0.2,0.7s0.3,0.2,0.7,0.2c0.2,0,0.5,0,0.7-0.1v1.7
				c-0.4,0.1-0.9,0.2-1.4,0.2c-1.6,0-2.4-0.8-2.4-2.4v-4.6h-1.2v-1.7h1.2v-2.1H1180.1z"/>
			<path class="st3" d="M1186.4,11592.7c0-1.3,0.3-2.4,0.9-3.1s1.4-1.2,2.4-1.2c0.8,0,1.5,0.3,2,0.9v-4.3h2.3v12h-2l-0.1-0.9
				c-0.6,0.7-1.3,1.1-2.2,1.1c-1,0-1.8-0.4-2.4-1.2S1186.4,11594.1,1186.4,11592.7z M1188.7,11592.9c0,0.8,0.1,1.4,0.4,1.8
				s0.7,0.6,1.2,0.6c0.7,0,1.2-0.3,1.5-0.9v-3.3c-0.3-0.6-0.8-0.9-1.5-0.9C1189.2,11590.2,1188.7,11591.1,1188.7,11592.9z"/>
			<path class="st3" d="M1199.7,11597.2c-1.2,0-2.2-0.4-3-1.1s-1.2-1.8-1.2-3v-0.2c0-0.8,0.2-1.6,0.5-2.3s0.8-1.2,1.4-1.5
				s1.3-0.5,2.1-0.5c1.2,0,2.1,0.4,2.7,1.1s1,1.8,1,3.1v0.9h-5.4c0.1,0.6,0.3,1,0.7,1.3s0.8,0.5,1.4,0.5c0.9,0,1.5-0.3,2-0.9
				l1.1,1.2c-0.3,0.5-0.8,0.9-1.4,1.1S1200.4,11597.2,1199.7,11597.2z M1199.4,11590.2c-0.4,0-0.8,0.2-1.1,0.5s-0.5,0.7-0.5,1.3h3.1
				v-0.2c0-0.5-0.1-0.9-0.4-1.2S1199.9,11590.2,1199.4,11590.2z"/>
			<path class="st3" d="M1210.5,11588.5l0.1,0.9c0.6-0.7,1.4-1.1,2.4-1.1c1.1,0,1.8,0.4,2.2,1.3c0.6-0.9,1.4-1.3,2.5-1.3
				c0.9,0,1.6,0.3,2,0.8s0.7,1.3,0.7,2.4v5.4h-2.3v-5.4c0-0.5-0.1-0.8-0.3-1.1s-0.5-0.3-1-0.3c-0.7,0-1.1,0.3-1.4,1l0,5.8h-2.3v-5.4
				c0-0.5-0.1-0.8-0.3-1.1s-0.5-0.3-1-0.3c-0.6,0-1.1,0.3-1.4,0.8v6h-2.3v-8.5H1210.5z"/>
			<path class="st3" d="M1227.2,11597c-0.1-0.2-0.2-0.5-0.2-0.8c-0.5,0.6-1.3,0.9-2.1,0.9c-0.8,0-1.5-0.2-2.1-0.7s-0.8-1.1-0.8-1.8
				c0-0.9,0.3-1.6,1-2.1s1.6-0.7,2.9-0.7h1v-0.5c0-0.4-0.1-0.7-0.3-0.9s-0.5-0.4-0.9-0.4c-0.4,0-0.7,0.1-0.9,0.3s-0.3,0.4-0.3,0.8
				h-2.3c0-0.5,0.2-0.9,0.5-1.4s0.7-0.7,1.3-1s1.2-0.4,1.9-0.4c1,0,1.9,0.3,2.5,0.8s0.9,1.3,0.9,2.2v3.7c0,0.8,0.1,1.4,0.3,1.8v0.1
				H1227.2z M1225.3,11595.4c0.3,0,0.6-0.1,0.9-0.2s0.5-0.3,0.6-0.6v-1.5h-0.8c-1.1,0-1.7,0.4-1.8,1.2l0,0.1c0,0.3,0.1,0.5,0.3,0.7
				S1225,11595.4,1225.3,11595.4z"/>
			<path class="st3" d="M1230.5,11592.7c0-1.3,0.3-2.4,0.9-3.1s1.4-1.2,2.4-1.2c0.8,0,1.5,0.3,2,0.9v-4.3h2.3v12h-2l-0.1-0.9
				c-0.6,0.7-1.3,1.1-2.2,1.1c-1,0-1.8-0.4-2.4-1.2S1230.5,11594.1,1230.5,11592.7z M1232.7,11592.9c0,0.8,0.1,1.4,0.4,1.8
				s0.7,0.6,1.2,0.6c0.7,0,1.2-0.3,1.5-0.9v-3.3c-0.3-0.6-0.8-0.9-1.5-0.9C1233.3,11590.2,1232.7,11591.1,1232.7,11592.9z"/>
			<path class="st3" d="M1243.7,11597.2c-1.2,0-2.2-0.4-3-1.1s-1.2-1.8-1.2-3v-0.2c0-0.8,0.2-1.6,0.5-2.3s0.8-1.2,1.4-1.5
				s1.3-0.5,2.1-0.5c1.2,0,2.1,0.4,2.7,1.1s1,1.8,1,3.1v0.9h-5.4c0.1,0.6,0.3,1,0.7,1.3s0.8,0.5,1.4,0.5c0.9,0,1.5-0.3,2-0.9
				l1.1,1.2c-0.3,0.5-0.8,0.9-1.4,1.1S1244.5,11597.2,1243.7,11597.2z M1243.5,11590.2c-0.4,0-0.8,0.2-1.1,0.5s-0.5,0.7-0.5,1.3h3.1
				v-0.2c0-0.5-0.1-0.9-0.4-1.2S1244,11590.2,1243.5,11590.2z"/>
			<path class="st3" d="M1253.3,11590.7c-0.3,0-0.6-0.1-0.8-0.1c-0.9,0-1.4,0.3-1.7,0.9v5.5h-2.3v-8.5h2.1l0.1,1
				c0.5-0.8,1.1-1.2,1.9-1.2c0.2,0,0.5,0,0.7,0.1L1253.3,11590.7z"/>
			<path class="st3" d="M1259,11597c-0.1-0.2-0.2-0.5-0.2-0.8c-0.5,0.6-1.3,0.9-2.1,0.9c-0.8,0-1.5-0.2-2.1-0.7s-0.8-1.1-0.8-1.8
				c0-0.9,0.3-1.6,1-2.1s1.6-0.7,2.9-0.7h1v-0.5c0-0.4-0.1-0.7-0.3-0.9s-0.5-0.4-0.9-0.4c-0.4,0-0.7,0.1-0.9,0.3s-0.3,0.4-0.3,0.8
				h-2.3c0-0.5,0.2-0.9,0.5-1.4s0.7-0.7,1.3-1s1.2-0.4,1.9-0.4c1,0,1.9,0.3,2.5,0.8s0.9,1.3,0.9,2.2v3.7c0,0.8,0.1,1.4,0.3,1.8v0.1
				H1259z M1257.1,11595.4c0.3,0,0.6-0.1,0.9-0.2s0.5-0.3,0.6-0.6v-1.5h-0.8c-1.1,0-1.7,0.4-1.8,1.2l0,0.1c0,0.3,0.1,0.5,0.3,0.7
				S1256.8,11595.4,1257.1,11595.4z"/>
			<path class="st3" d="M1271.1,11593h-4.4v-1.8h4.4V11593z"/>
			<path class="st3" d="M1285.9,11593.7l1.5-8.1h2.3l-2.5,11.4h-2.4l-1.9-7.6l-1.9,7.6h-2.4l-2.5-11.4h2.3l1.5,8.1l1.9-8.1h2
				L1285.9,11593.7z"/>
			<path class="st3" d="M1290.3,11592.7c0-0.8,0.2-1.6,0.5-2.2s0.8-1.2,1.4-1.5s1.3-0.5,2.1-0.5c1.1,0,2.1,0.3,2.8,1
				s1.1,1.6,1.2,2.8l0,0.6c0,1.3-0.4,2.3-1.1,3.1s-1.7,1.2-2.9,1.2s-2.2-0.4-2.9-1.2s-1.1-1.8-1.1-3.2V11592.7z M1292.5,11592.9
				c0,0.8,0.2,1.4,0.5,1.8s0.7,0.6,1.3,0.6c0.5,0,1-0.2,1.3-0.6s0.5-1.1,0.5-2c0-0.8-0.2-1.4-0.5-1.8s-0.7-0.6-1.3-0.6
				c-0.6,0-1,0.2-1.3,0.6S1292.5,11592,1292.5,11592.9z"/>
			<path class="st3" d="M1299.3,11592.7c0-0.8,0.2-1.6,0.5-2.2s0.8-1.2,1.4-1.5s1.3-0.5,2.1-0.5c1.1,0,2.1,0.3,2.8,1
				s1.1,1.6,1.2,2.8l0,0.6c0,1.3-0.4,2.3-1.1,3.1s-1.7,1.2-2.9,1.2s-2.2-0.4-2.9-1.2s-1.1-1.8-1.1-3.2V11592.7z M1301.6,11592.9
				c0,0.8,0.2,1.4,0.5,1.8s0.7,0.6,1.3,0.6c0.5,0,1-0.2,1.3-0.6s0.5-1.1,0.5-2c0-0.8-0.2-1.4-0.5-1.8s-0.7-0.6-1.3-0.6
				c-0.6,0-1,0.2-1.3,0.6S1301.6,11592,1301.6,11592.9z"/>
			<path class="st3" d="M1308.4,11592.7c0-1.3,0.3-2.4,0.9-3.1s1.4-1.2,2.4-1.2c0.8,0,1.5,0.3,2,0.9v-4.3h2.3v12h-2l-0.1-0.9
				c-0.6,0.7-1.3,1.1-2.2,1.1c-1,0-1.8-0.4-2.4-1.2S1308.4,11594.1,1308.4,11592.7z M1310.6,11592.9c0,0.8,0.1,1.4,0.4,1.8
				s0.7,0.6,1.2,0.6c0.7,0,1.2-0.3,1.5-0.9v-3.3c-0.3-0.6-0.8-0.9-1.5-0.9C1311.2,11590.2,1310.6,11591.1,1310.6,11592.9z"/>
			<path class="st3" d="M1321.6,11597.2c-1.2,0-2.2-0.4-3-1.1s-1.2-1.8-1.2-3v-0.2c0-0.8,0.2-1.6,0.5-2.3s0.8-1.2,1.4-1.5
				s1.3-0.5,2.1-0.5c1.2,0,2.1,0.4,2.7,1.1s1,1.8,1,3.1v0.9h-5.4c0.1,0.6,0.3,1,0.7,1.3s0.8,0.5,1.4,0.5c0.9,0,1.5-0.3,2-0.9
				l1.1,1.2c-0.3,0.5-0.8,0.9-1.4,1.1S1322.3,11597.2,1321.6,11597.2z M1321.4,11590.2c-0.4,0-0.8,0.2-1.1,0.5s-0.5,0.7-0.5,1.3h3.1
				v-0.2c0-0.5-0.1-0.9-0.4-1.2S1321.8,11590.2,1321.4,11590.2z"/>
			<path class="st3" d="M1328.4,11588.5l0.1,1c0.6-0.8,1.4-1.1,2.4-1.1c0.9,0,1.6,0.3,2,0.8s0.7,1.3,0.7,2.4v5.5h-2.3v-5.4
				c0-0.5-0.1-0.8-0.3-1s-0.6-0.3-1-0.3c-0.6,0-1.1,0.3-1.4,0.8v6h-2.3v-8.5H1328.4z"/>
			<path class="st3" d="M1346.9,11592.9c0,1.3-0.3,2.3-0.9,3.1s-1.4,1.2-2.4,1.2c-0.9,0-1.5-0.3-2.1-0.9v4h-2.3v-11.7h2.1l0.1,0.8
				c0.5-0.7,1.3-1,2.1-1c1,0,1.9,0.4,2.4,1.2s0.9,1.8,0.9,3.2V11592.9z M1344.7,11592.7c0-0.8-0.1-1.4-0.4-1.8s-0.7-0.6-1.2-0.6
				c-0.7,0-1.2,0.3-1.5,0.8v3.5c0.3,0.6,0.8,0.8,1.5,0.8C1344.1,11595.3,1344.7,11594.5,1344.7,11592.7z"/>
			<path class="st3" d="M1353.2,11597c-0.1-0.2-0.2-0.5-0.2-0.8c-0.5,0.6-1.3,0.9-2.1,0.9c-0.8,0-1.5-0.2-2.1-0.7s-0.8-1.1-0.8-1.8
				c0-0.9,0.3-1.6,1-2.1s1.6-0.7,2.9-0.7h1v-0.5c0-0.4-0.1-0.7-0.3-0.9s-0.5-0.4-0.9-0.4c-0.4,0-0.7,0.1-0.9,0.3s-0.3,0.4-0.3,0.8
				h-2.3c0-0.5,0.2-0.9,0.5-1.4s0.7-0.7,1.3-1s1.2-0.4,1.9-0.4c1,0,1.9,0.3,2.5,0.8s0.9,1.3,0.9,2.2v3.7c0,0.8,0.1,1.4,0.3,1.8v0.1
				H1353.2z M1351.4,11595.4c0.3,0,0.6-0.1,0.9-0.2s0.5-0.3,0.6-0.6v-1.5h-0.8c-1.1,0-1.7,0.4-1.8,1.2l0,0.1c0,0.3,0.1,0.5,0.3,0.7
				S1351,11595.4,1351.4,11595.4z"/>
			<path class="st3" d="M1359.3,11597h-2.3v-12h2.3V11597z"/>
			<path class="st3" d="M1363.5,11597h-2.3v-12h2.3V11597z"/>
			<path class="st3" d="M1369.3,11597.2c-1.2,0-2.2-0.4-3-1.1s-1.2-1.8-1.2-3v-0.2c0-0.8,0.2-1.6,0.5-2.3s0.8-1.2,1.4-1.5
				s1.3-0.5,2.1-0.5c1.2,0,2.1,0.4,2.7,1.1s1,1.8,1,3.1v0.9h-5.4c0.1,0.6,0.3,1,0.7,1.3s0.8,0.5,1.4,0.5c0.9,0,1.5-0.3,2-0.9
				l1.1,1.2c-0.3,0.5-0.8,0.9-1.4,1.1S1370,11597.2,1369.3,11597.2z M1369,11590.2c-0.4,0-0.8,0.2-1.1,0.5s-0.5,0.7-0.5,1.3h3.1
				v-0.2c0-0.5-0.1-0.9-0.4-1.2S1369.5,11590.2,1369,11590.2z"/>
			<path class="st3" d="M1376.7,11586.5v2.1h1.4v1.7h-1.4v4.2c0,0.3,0.1,0.5,0.2,0.7s0.3,0.2,0.7,0.2c0.2,0,0.5,0,0.7-0.1v1.7
				c-0.4,0.1-0.9,0.2-1.4,0.2c-1.6,0-2.4-0.8-2.4-2.4v-4.6h-1.2v-1.7h1.2v-2.1H1376.7z"/>
		</g>
		<g class="st2">
			<path class="st3" d="M1157.5,11617v4h-2.3v-11.4h4.4c0.9,0,1.6,0.2,2.3,0.5s1.1,0.8,1.5,1.3c0.3,0.6,0.5,1.2,0.5,2
				c0,1.1-0.4,2-1.1,2.6c-0.8,0.6-1.8,1-3.2,1H1157.5z M1157.5,11615.1h2.1c0.6,0,1.1-0.1,1.4-0.4c0.3-0.3,0.5-0.7,0.5-1.2
				c0-0.6-0.2-1-0.5-1.4s-0.8-0.5-1.4-0.5h-2.1V11615.1z"/>
			<path class="st3" d="M1170.2,11621c-0.1-0.2-0.2-0.5-0.2-0.8c-0.5,0.6-1.3,0.9-2.1,0.9c-0.8,0-1.5-0.2-2.1-0.7
				c-0.5-0.5-0.8-1.1-0.8-1.8c0-0.9,0.3-1.6,1-2.1s1.6-0.7,2.9-0.7h1v-0.5c0-0.4-0.1-0.7-0.3-0.9c-0.2-0.2-0.5-0.4-0.9-0.4
				c-0.4,0-0.7,0.1-0.9,0.3c-0.2,0.2-0.3,0.4-0.3,0.8h-2.3c0-0.5,0.2-0.9,0.5-1.4c0.3-0.4,0.7-0.7,1.3-1c0.6-0.2,1.2-0.4,1.9-0.4
				c1,0,1.9,0.3,2.5,0.8c0.6,0.5,0.9,1.3,0.9,2.2v3.7c0,0.8,0.1,1.4,0.3,1.8v0.1H1170.2z M1168.3,11619.4c0.3,0,0.6-0.1,0.9-0.2
				s0.5-0.3,0.6-0.6v-1.5h-0.8c-1.1,0-1.7,0.4-1.8,1.2l0,0.1c0,0.3,0.1,0.5,0.3,0.7C1167.7,11619.3,1168,11619.4,1168.3,11619.4z"/>
			<path class="st3" d="M1176.2,11621h-2.3v-12h2.3V11621z"/>
			<path class="st3" d="M1182,11621.2c-1.2,0-2.2-0.4-3-1.1c-0.8-0.8-1.2-1.8-1.2-3v-0.2c0-0.8,0.2-1.6,0.5-2.3s0.8-1.2,1.4-1.5
				s1.3-0.5,2.1-0.5c1.2,0,2.1,0.4,2.7,1.1s1,1.8,1,3.1v0.9h-5.4c0.1,0.6,0.3,1,0.7,1.3s0.8,0.5,1.4,0.5c0.9,0,1.5-0.3,2-0.9
				l1.1,1.2c-0.3,0.5-0.8,0.9-1.4,1.1S1182.7,11621.2,1182,11621.2z M1181.7,11614.2c-0.4,0-0.8,0.2-1.1,0.5
				c-0.3,0.3-0.5,0.7-0.5,1.3h3.1v-0.2c0-0.5-0.1-0.9-0.4-1.2C1182.6,11614.3,1182.2,11614.2,1181.7,11614.2z"/>
			<path class="st3" d="M1189.5,11610.5v2.1h1.4v1.7h-1.4v4.2c0,0.3,0.1,0.5,0.2,0.7c0.1,0.1,0.3,0.2,0.7,0.2c0.2,0,0.5,0,0.7-0.1
				v1.7c-0.4,0.1-0.9,0.2-1.4,0.2c-1.6,0-2.4-0.8-2.4-2.4v-4.6h-1.2v-1.7h1.2v-2.1H1189.5z"/>
			<path class="st3" d="M1194.9,11610.5v2.1h1.4v1.7h-1.4v4.2c0,0.3,0.1,0.5,0.2,0.7c0.1,0.1,0.3,0.2,0.7,0.2c0.2,0,0.5,0,0.7-0.1
				v1.7c-0.4,0.1-0.9,0.2-1.4,0.2c-1.6,0-2.4-0.8-2.4-2.4v-4.6h-1.2v-1.7h1.2v-2.1H1194.9z"/>
			<path class="st3" d="M1201.5,11621.2c-1.2,0-2.2-0.4-3-1.1c-0.8-0.8-1.2-1.8-1.2-3v-0.2c0-0.8,0.2-1.6,0.5-2.3s0.8-1.2,1.4-1.5
				s1.3-0.5,2.1-0.5c1.2,0,2.1,0.4,2.7,1.1s1,1.8,1,3.1v0.9h-5.4c0.1,0.6,0.3,1,0.7,1.3s0.8,0.5,1.4,0.5c0.9,0,1.5-0.3,2-0.9
				l1.1,1.2c-0.3,0.5-0.8,0.9-1.4,1.1S1202.2,11621.2,1201.5,11621.2z M1201.2,11614.2c-0.4,0-0.8,0.2-1.1,0.5
				c-0.3,0.3-0.5,0.7-0.5,1.3h3.1v-0.2c0-0.5-0.1-0.9-0.4-1.2C1202,11614.3,1201.7,11614.2,1201.2,11614.2z"/>
			<path class="st3" d="M1209.8,11616.7c0-1.3,0.3-2.4,0.9-3.1c0.6-0.8,1.4-1.2,2.4-1.2c0.8,0,1.5,0.3,2,0.9v-4.3h2.3v12h-2
				l-0.1-0.9c-0.6,0.7-1.3,1.1-2.2,1.1c-1,0-1.8-0.4-2.4-1.2S1209.8,11618.1,1209.8,11616.7z M1212.1,11616.9c0,0.8,0.1,1.4,0.4,1.8
				c0.3,0.4,0.7,0.6,1.2,0.6c0.7,0,1.2-0.3,1.5-0.9v-3.3c-0.3-0.6-0.8-0.9-1.5-0.9C1212.6,11614.2,1212.1,11615.1,1212.1,11616.9z"
				/>
			<path class="st3" d="M1223.1,11621.2c-1.2,0-2.2-0.4-3-1.1c-0.8-0.8-1.2-1.8-1.2-3v-0.2c0-0.8,0.2-1.6,0.5-2.3s0.8-1.2,1.4-1.5
				s1.3-0.5,2.1-0.5c1.2,0,2.1,0.4,2.7,1.1s1,1.8,1,3.1v0.9h-5.4c0.1,0.6,0.3,1,0.7,1.3s0.8,0.5,1.4,0.5c0.9,0,1.5-0.3,2-0.9
				l1.1,1.2c-0.3,0.5-0.8,0.9-1.4,1.1S1223.8,11621.2,1223.1,11621.2z M1222.8,11614.2c-0.4,0-0.8,0.2-1.1,0.5
				c-0.3,0.3-0.5,0.7-0.5,1.3h3.1v-0.2c0-0.5-0.1-0.9-0.4-1.2C1223.7,11614.3,1223.3,11614.2,1222.8,11614.2z"/>
			<path class="st3" d="M1239.5,11616.9c0,1.4-0.3,2.4-0.9,3.2s-1.4,1.1-2.4,1.1c-0.9,0-1.6-0.4-2.2-1.1l-0.1,0.9h-2v-12h2.3v4.3
				c0.5-0.6,1.2-0.9,2.1-0.9c1,0,1.8,0.4,2.4,1.1s0.9,1.8,0.9,3.2V11616.9z M1237.2,11616.7c0-0.9-0.1-1.5-0.4-1.9
				c-0.3-0.4-0.7-0.6-1.2-0.6c-0.7,0-1.2,0.3-1.5,0.9v3.3c0.3,0.6,0.8,0.9,1.5,0.9c0.7,0,1.2-0.4,1.4-1.1
				C1237.1,11617.9,1237.2,11617.4,1237.2,11616.7z"/>
			<path class="st3" d="M1240.5,11616.7c0-0.8,0.2-1.6,0.5-2.2c0.3-0.7,0.8-1.2,1.4-1.5c0.6-0.4,1.3-0.5,2.1-0.5
				c1.1,0,2.1,0.3,2.8,1c0.7,0.7,1.1,1.6,1.2,2.8l0,0.6c0,1.3-0.4,2.3-1.1,3.1c-0.7,0.8-1.7,1.2-2.9,1.2s-2.2-0.4-2.9-1.2
				s-1.1-1.8-1.1-3.2V11616.7z M1242.8,11616.9c0,0.8,0.2,1.4,0.5,1.8c0.3,0.4,0.7,0.6,1.3,0.6c0.5,0,1-0.2,1.3-0.6
				c0.3-0.4,0.5-1.1,0.5-2c0-0.8-0.2-1.4-0.5-1.8c-0.3-0.4-0.7-0.6-1.3-0.6c-0.6,0-1,0.2-1.3,0.6
				C1242.9,11615.3,1242.8,11616,1242.8,11616.9z"/>
			<path class="st3" d="M1249.9,11610.4c0-0.3,0.1-0.6,0.3-0.8s0.5-0.3,0.9-0.3c0.4,0,0.7,0.1,0.9,0.3c0.2,0.2,0.3,0.5,0.3,0.8
				c0,0.3-0.1,0.6-0.3,0.8c-0.2,0.2-0.5,0.3-0.9,0.3c-0.4,0-0.7-0.1-0.9-0.3C1250,11611,1249.9,11610.7,1249.9,11610.4z
				 M1252.3,11621h-2.3v-8.5h2.3V11621z"/>
			<path class="st3" d="M1258.7,11618.7c0-0.3-0.1-0.5-0.4-0.7s-0.7-0.3-1.3-0.4c-2-0.4-3-1.3-3-2.6c0-0.8,0.3-1.4,0.9-1.9
				c0.6-0.5,1.4-0.8,2.4-0.8c1.1,0,1.9,0.3,2.6,0.8c0.6,0.5,1,1.2,1,2h-2.3c0-0.3-0.1-0.6-0.3-0.8c-0.2-0.2-0.5-0.3-1-0.3
				c-0.4,0-0.7,0.1-0.9,0.3c-0.2,0.2-0.3,0.4-0.3,0.7c0,0.2,0.1,0.5,0.4,0.6c0.2,0.2,0.6,0.3,1.2,0.4s1,0.2,1.4,0.4
				c1.2,0.4,1.8,1.2,1.8,2.3c0,0.8-0.3,1.4-1,1.9c-0.7,0.5-1.5,0.7-2.6,0.7c-0.7,0-1.3-0.1-1.9-0.4c-0.5-0.3-1-0.6-1.3-1
				s-0.5-0.9-0.5-1.4h2.1c0,0.4,0.2,0.7,0.4,0.9c0.3,0.2,0.6,0.3,1.1,0.3c0.4,0,0.8-0.1,1-0.2
				C1258.6,11619.1,1258.7,11618.9,1258.7,11618.7z"/>
			<path class="st3" d="M1270.7,11617h-4.4v-1.8h4.4V11617z"/>
			<path class="st3" d="M1278.7,11613.5c0.6-0.7,1.4-1.1,2.3-1.1c1.8,0,2.8,1.1,2.8,3.2v5.4h-2.3v-5.4c0-0.5-0.1-0.8-0.3-1.1
				c-0.2-0.2-0.6-0.3-1-0.3c-0.7,0-1.1,0.3-1.4,0.8v6h-2.3v-12h2.3V11613.5z"/>
			<path class="st3" d="M1285.1,11616.7c0-0.8,0.2-1.6,0.5-2.2c0.3-0.7,0.8-1.2,1.4-1.5c0.6-0.4,1.3-0.5,2.1-0.5
				c1.1,0,2.1,0.3,2.8,1c0.7,0.7,1.1,1.6,1.2,2.8l0,0.6c0,1.3-0.4,2.3-1.1,3.1c-0.7,0.8-1.7,1.2-2.9,1.2s-2.2-0.4-2.9-1.2
				s-1.1-1.8-1.1-3.2V11616.7z M1287.4,11616.9c0,0.8,0.2,1.4,0.5,1.8c0.3,0.4,0.7,0.6,1.3,0.6c0.5,0,1-0.2,1.3-0.6
				c0.3-0.4,0.5-1.1,0.5-2c0-0.8-0.2-1.4-0.5-1.8c-0.3-0.4-0.7-0.6-1.3-0.6c-0.6,0-1,0.2-1.3,0.6
				C1287.5,11615.3,1287.4,11616,1287.4,11616.9z"/>
			<path class="st3" d="M1296.9,11621h-2.3v-12h2.3V11621z"/>
			<path class="st3" d="M1301.4,11619.2h4.1v1.8h-7v-1.4l4-5.3h-3.9v-1.8h6.8v1.3L1301.4,11619.2z"/>
			<path class="st3" d="M1314.5,11616.9c0,1.3-0.3,2.3-0.9,3.1c-0.6,0.8-1.4,1.2-2.4,1.2c-0.9,0-1.5-0.3-2.1-0.9v4h-2.3v-11.7h2.1
				l0.1,0.8c0.5-0.7,1.3-1,2.1-1c1,0,1.9,0.4,2.4,1.2s0.9,1.8,0.9,3.2V11616.9z M1312.3,11616.7c0-0.8-0.1-1.4-0.4-1.8
				c-0.3-0.4-0.7-0.6-1.2-0.6c-0.7,0-1.2,0.3-1.5,0.8v3.5c0.3,0.6,0.8,0.8,1.5,0.8C1311.7,11619.3,1312.3,11618.5,1312.3,11616.7z"
				/>
			<path class="st3" d="M1320.8,11621c-0.1-0.2-0.2-0.5-0.2-0.8c-0.5,0.6-1.3,0.9-2.1,0.9c-0.8,0-1.5-0.2-2.1-0.7
				c-0.5-0.5-0.8-1.1-0.8-1.8c0-0.9,0.3-1.6,1-2.1s1.6-0.7,2.9-0.7h1v-0.5c0-0.4-0.1-0.7-0.3-0.9c-0.2-0.2-0.5-0.4-0.9-0.4
				c-0.4,0-0.7,0.1-0.9,0.3c-0.2,0.2-0.3,0.4-0.3,0.8h-2.3c0-0.5,0.2-0.9,0.5-1.4c0.3-0.4,0.7-0.7,1.3-1c0.6-0.2,1.2-0.4,1.9-0.4
				c1,0,1.9,0.3,2.5,0.8c0.6,0.5,0.9,1.3,0.9,2.2v3.7c0,0.8,0.1,1.4,0.3,1.8v0.1H1320.8z M1319,11619.4c0.3,0,0.6-0.1,0.9-0.2
				s0.5-0.3,0.6-0.6v-1.5h-0.8c-1.1,0-1.7,0.4-1.8,1.2l0,0.1c0,0.3,0.1,0.5,0.3,0.7C1318.3,11619.3,1318.6,11619.4,1319,11619.4z"/>
			<path class="st3" d="M1326.9,11621h-2.3v-12h2.3V11621z"/>
			<path class="st3" d="M1332.6,11621.2c-1.2,0-2.2-0.4-3-1.1c-0.8-0.8-1.2-1.8-1.2-3v-0.2c0-0.8,0.2-1.6,0.5-2.3s0.8-1.2,1.4-1.5
				s1.3-0.5,2.1-0.5c1.2,0,2.1,0.4,2.7,1.1s1,1.8,1,3.1v0.9h-5.4c0.1,0.6,0.3,1,0.7,1.3s0.8,0.5,1.4,0.5c0.9,0,1.5-0.3,2-0.9
				l1.1,1.2c-0.3,0.5-0.8,0.9-1.4,1.1S1333.3,11621.2,1332.6,11621.2z M1332.4,11614.2c-0.4,0-0.8,0.2-1.1,0.5
				c-0.3,0.3-0.5,0.7-0.5,1.3h3.1v-0.2c0-0.5-0.1-0.9-0.4-1.2C1333.2,11614.3,1332.9,11614.2,1332.4,11614.2z"/>
			<path class="st3" d="M1340.1,11610.5v2.1h1.4v1.7h-1.4v4.2c0,0.3,0.1,0.5,0.2,0.7c0.1,0.1,0.3,0.2,0.7,0.2c0.2,0,0.5,0,0.7-0.1
				v1.7c-0.4,0.1-0.9,0.2-1.4,0.2c-1.6,0-2.4-0.8-2.4-2.4v-4.6h-1.2v-1.7h1.2v-2.1H1340.1z"/>
			<path class="st3" d="M1345.5,11610.5v2.1h1.4v1.7h-1.4v4.2c0,0.3,0.1,0.5,0.2,0.7c0.1,0.1,0.3,0.2,0.7,0.2c0.2,0,0.5,0,0.7-0.1
				v1.7c-0.4,0.1-0.9,0.2-1.4,0.2c-1.6,0-2.4-0.8-2.4-2.4v-4.6h-1.2v-1.7h1.2v-2.1H1345.5z"/>
			<path class="st3" d="M1352.1,11621.2c-1.2,0-2.2-0.4-3-1.1c-0.8-0.8-1.2-1.8-1.2-3v-0.2c0-0.8,0.2-1.6,0.5-2.3s0.8-1.2,1.4-1.5
				s1.3-0.5,2.1-0.5c1.2,0,2.1,0.4,2.7,1.1s1,1.8,1,3.1v0.9h-5.4c0.1,0.6,0.3,1,0.7,1.3s0.8,0.5,1.4,0.5c0.9,0,1.5-0.3,2-0.9
				l1.1,1.2c-0.3,0.5-0.8,0.9-1.4,1.1S1352.8,11621.2,1352.1,11621.2z M1351.8,11614.2c-0.4,0-0.8,0.2-1.1,0.5
				c-0.3,0.3-0.5,0.7-0.5,1.3h3.1v-0.2c0-0.5-0.1-0.9-0.4-1.2C1352.7,11614.3,1352.3,11614.2,1351.8,11614.2z"/>
			<path class="st3" d="M1358.9,11612.5l0.1,1c0.6-0.8,1.4-1.1,2.4-1.1c0.9,0,1.6,0.3,2,0.8s0.7,1.3,0.7,2.4v5.5h-2.3v-5.4
				c0-0.5-0.1-0.8-0.3-1c-0.2-0.2-0.6-0.3-1-0.3c-0.6,0-1.1,0.3-1.4,0.8v6h-2.3v-8.5H1358.9z"/>
		</g>
		<g id="Grupo_102768" transform="translate(-58.83 3)">
			<g id="Grupo_102765" transform="translate(907.66 11590.023)">
				<g id="Grupo_91598" transform="translate(156.226)">
					<g id="Grupo_91595" transform="translate(0.001 15.397)">
						<path id="Trazado_132022" class="st4" d="M233.7,137.5L0,0l0,7.2l233.7,137.5L233.7,137.5z"/>
					</g>
					<g id="Grupo_91596" transform="translate(0)">
						<path id="Trazado_132023" class="st5" d="M260.1,137.5L26.3,0L0,15.4l233.7,137.5L260.1,137.5z"/>
					</g>
					<g id="Grupo_91597" transform="translate(233.744 137.481)">
						<path id="Trazado_132024" class="st4" d="M0,15.4l0,7.3L26.4,7.2l0-7.3L0,15.4z"/>
					</g>
				</g>
				<g id="Grupo_91602" transform="translate(78.109 45.647)">
					<g id="Grupo_91599" transform="translate(0.001 15.397)">
						<path id="Trazado_132025" class="st4" d="M233.7,137.5L0,0l0,7.2l233.7,137.5L233.7,137.5z"/>
					</g>
					<g id="Grupo_91600" transform="translate(0)">
						<path id="Trazado_132026" class="st5" d="M260.1,137.5L26.3,0L0,15.4l233.7,137.5L260.1,137.5z"/>
					</g>
					<g id="Grupo_91601" transform="translate(233.746 137.481)">
						<path id="Trazado_132027" class="st4" d="M0,15.4l0,7.2L26.4,7.2l0-7.2L0,15.4z"/>
					</g>
				</g>
				<g id="Grupo_91606" transform="translate(0 91.289)">
					<g id="Grupo_91603" transform="translate(0.001 15.397)">
						<path id="Trazado_132028" class="st6" d="M233.7,137.5L0,0l0,7.3l233.7,137.5L233.7,137.5z"/>
					</g>
					<g id="Grupo_91604">
						<path id="Trazado_132029" class="st5" d="M260.1,137.5L26.3,0L0,15.4l233.7,137.5L260.1,137.5z"/>
					</g>
					<g id="Grupo_91605" transform="translate(233.746 137.481)">
						<path id="Trazado_132030" class="st4" d="M0,15.4l0,7.2L26.4,7.2l0-7.2L0,15.4z"/>
					</g>
				</g>
			</g>
			<g id="Grupo_102767" transform="translate(1116.591 11690.26)">
				<g id="Grupo_91612" transform="translate(0 91.294)">
					<g id="Grupo_91611" transform="translate(0)">
						<g id="Grupo_91608" transform="translate(0 12.645)">
							<path id="Trazado_132031" class="st6" d="M24.3,14.3L0,0l0.1,20.3l24.3,14.3L24.3,14.3z"/>
						</g>
						<g id="Grupo_91609">
							<path id="Trazado_132032" class="st5" d="M46,14.3L21.6,0L0,12.6l24.3,14.3L46,14.3z"/>
						</g>
						<g id="Grupo_91610" transform="translate(24.31 14.298)">
							<path id="Trazado_132033" class="st4" d="M0,12.6l0.1,20.3l21.6-12.6L21.6,0L0,12.6z"/>
						</g>
					</g>
				</g>
				<g id="Grupo_91617" transform="translate(78.382 45.871)">
					<g id="Grupo_91616" transform="translate(0)">
						<g id="Grupo_91613" transform="translate(0.001 12.645)">
							<path id="Trazado_132034" class="st6" d="M24.3,14.3L0,0l0.1,20.3l24.3,14.3L24.3,14.3z"/>
						</g>
						<g id="Grupo_91614">
							<path id="Trazado_132035" class="st5" d="M45.9,14.3L21.6,0L0,12.6l24.3,14.3L45.9,14.3z"/>
						</g>
						<g id="Grupo_91615" transform="translate(24.309 14.298)">
							<path id="Trazado_132036" class="st4" d="M0,12.6l0.1,20.3l21.6-12.6L21.6,0L0,12.6z"/>
						</g>
					</g>
				</g>
				<g id="Grupo_91622" transform="translate(156.431)">
					<g id="Grupo_91621" transform="translate(0)">
						<g id="Grupo_91618" transform="translate(0.001 12.645)">
							<path id="Trazado_132037" class="st6" d="M24.3,14.3L0,0l0.1,20.2l24.3,14.3L24.3,14.3z"/>
						</g>
						<g id="Grupo_91619">
							<path id="Trazado_132038" class="st5" d="M46,14.3L21.6,0L0,12.6l24.3,14.3L46,14.3z"/>
						</g>
						<g id="Grupo_91620" transform="translate(24.31 14.298)">
							<path id="Trazado_132039" class="st4" d="M0,12.6l0.1,20.2l21.6-12.6L21.6,0L0,12.6z"/>
						</g>
					</g>
				</g>
			</g>
			<g id="Grupo_102766" transform="translate(1014.609 11629.839)">
				<g id="Grupo_91654" transform="translate(156.428)">
					<g id="Grupo_91653" transform="translate(0)">
						<g id="Grupo_91650" transform="translate(0 12.65)">
							<path id="Trazado_132055" class="st6" d="M24.3,14.3L0,0l0.1,20.2l24.3,14.3L24.3,14.3z"/>
						</g>
						<g id="Grupo_91651" transform="translate(0.002)">
							<path id="Trazado_132056" class="st5" d="M46,14.3L21.6,0L0,12.6l24.3,14.3L46,14.3z"/>
						</g>
						<g id="Grupo_91652" transform="translate(24.312 14.298)">
							<path id="Trazado_132057" class="st4" d="M0,12.6l0.1,20.2l21.6-12.7L21.6,0L0,12.6z"/>
						</g>
					</g>
				</g>
				<g id="Grupo_91649" transform="translate(78.381 45.871)">
					<g id="Grupo_91648" transform="translate(0)">
						<g id="Grupo_91645" transform="translate(0.001 12.65)">
							<path id="Trazado_132052" class="st6" d="M24.3,14.3L0,0l0.1,20.3l24.3,14.3L24.3,14.3z"/>
						</g>
						<g id="Grupo_91646" transform="translate(0)">
							<path id="Trazado_132053" class="st5" d="M102.6-19L78.3-33.3L0,12.7L24.3,27L102.6-19z"/>
						</g>
						<g id="Grupo_91647" transform="translate(24.309 14.298)">
							<path id="Trazado_132054" class="st4" d="M0,12.6l0.1,20.3l78.1-46v-20.2L0,12.6z"/>
						</g>
					</g>
				</g>
				<g id="Grupo_91644" transform="translate(0 91.295)">
					<g id="Grupo_91643">
						<g id="Grupo_91640" transform="translate(0 12.65)">
							<path id="Trazado_132049" class="st6" d="M24.3,14.3L0,0l0.1,20.3l24.3,14.3L24.3,14.3z"/>
						</g>
						<g id="Grupo_91641" transform="translate(0)">
							<path id="Trazado_132050" class="st5" d="M103.1-18.7L79.4-33L0,12.7L24.3,27L103.1-18.7z"/>
						</g>
						<g id="Grupo_91642" transform="translate(24.309 14.298)">
							<path id="Trazado_132051" class="st4" d="M0,12.7l0.1,20.2l78.8-45.6l-0.4-20.1L0,12.7z"/>
						</g>
					</g>
				</g>
			</g>
			<g id="Grupo_102763" transform="translate(918.609 11572.839)">
				<g id="Grupo_91654-2" transform="translate(156.428)">
					<g id="Grupo_91653-2" transform="translate(0)">
						<g id="Grupo_91650-2" transform="translate(0 12.65)">
							<path id="Trazado_132055-2" class="st6" d="M24.3,14.3L0,0l0.1,20.2l24.3,14.3L24.3,14.3z"/>
						</g>
						<g id="Grupo_91651-2" transform="translate(0.002)">
							<path id="Trazado_132056-2" class="st5" d="M46,14.3L21.6,0L0,12.6l24.3,14.3L46,14.3z"/>
						</g>
						<g id="Grupo_91652-2" transform="translate(24.312 14.298)">
							<path id="Trazado_132057-2" class="st4" d="M0,12.6l0.1,20.2l21.6-12.7L21.6,0L0,12.6z"/>
						</g>
					</g>
				</g>
				<g id="Grupo_91649-2" transform="translate(78.381 45.871)">
					<g id="Grupo_91648-2" transform="translate(0)">
						<g id="Grupo_91645-2" transform="translate(0.001 12.65)">
							<path id="Trazado_132052-2" class="st6" d="M24.3,14.3L0,0l0.1,20.3l24.3,14.3L24.3,14.3z"/>
						</g>
						<g id="Grupo_91646-2" transform="translate(0)">
							<path id="Trazado_132053-2" class="st5" d="M102.6-19L78.3-33.3L0,12.7L24.3,27L102.6-19z"/>
						</g>
						<g id="Grupo_91647-2" transform="translate(24.309 14.298)">
							<path id="Trazado_132054-2" class="st4" d="M0,12.6l0.1,20.3l78.1-46v-20.2L0,12.6z"/>
						</g>
					</g>
				</g>
				<g id="Grupo_91644-2" transform="translate(0 91.295)">
					<g id="Grupo_91643-2">
						<g id="Grupo_91640-2" transform="translate(0 12.65)">
							<path id="Trazado_132049-2" class="st6" d="M24.3,14.3L0,0l0.1,20.3l24.3,14.3L24.3,14.3z"/>
						</g>
						<g id="Grupo_91641-2" transform="translate(0)">
							<path id="Trazado_132050-2" class="st5" d="M103.1-18.7L79.4-33L0,12.7L24.3,27L103.1-18.7z"/>
						</g>
						<g id="Grupo_91642-2" transform="translate(24.309 14.298)">
							<path id="Trazado_132051-2" class="st4" d="M0,12.7l0.1,20.2l78.8-45.6l-0.4-20.1L0,12.7z"/>
						</g>
					</g>
				</g>
			</g>
			<g id="Grupo_102764" transform="translate(907.66 11560.058)">
				<g id="Grupo_91659" transform="translate(156.226)">
					<g id="Grupo_91656" transform="translate(0.001 15.397)">
						<path id="Trazado_132058" class="st6" d="M233.7,137.5L0,0l0,7.2l233.7,137.5L233.7,137.5z"/>
					</g>
					<g id="Grupo_91657" transform="translate(0)">
						<path id="Trazado_132059" class="st7" d="M260.1,137.5L26.3,0L0,15.4l233.7,137.5L260.1,137.5z"/>
					</g>
					<g id="Grupo_91658" transform="translate(233.744 137.481)">
						<path id="Trazado_132060" class="st4" d="M0,15.4l0,7.2L26.4,7.2l0-7.2L0,15.4z"/>
					</g>
				</g>
				<g id="Grupo_91663" transform="translate(117.163 22.821)">
					<g id="Grupo_91660" transform="translate(0 15.402)">
						<path id="Trazado_132061" class="st6" d="M233.7,137.5L0,0l0,7.2l233.7,137.5L233.7,137.5z"/>
					</g>
					<g id="Grupo_91661" transform="translate(0)">
						<path id="Trazado_132062" class="st7" d="M260.1,137.5L26.4,0L0,15.4l233.7,137.5L260.1,137.5z"/>
					</g>
					<g id="Grupo_91662" transform="translate(233.744 137.481)">
						<path id="Trazado_132063" class="st4" d="M0,15.4l0,7.2L26.4,7.3l0-7.3L0,15.4z"/>
					</g>
				</g>
				<g id="Grupo_91667" transform="translate(78.109 45.647)">
					<g id="Grupo_91664" transform="translate(0.001 15.397)">
						<path id="Trazado_132064" class="st6" d="M233.7,137.5L0,0l0,7.2l233.7,137.5L233.7,137.5z"/>
					</g>
					<g id="Grupo_91665" transform="translate(0)">
						<path id="Trazado_132065" class="st7" d="M260.1,137.5L26.3,0L0,15.4l233.7,137.5L260.1,137.5z"/>
					</g>
					<g id="Grupo_91666" transform="translate(233.746 137.481)">
						<path id="Trazado_132066" class="st4" d="M0,15.4l0,7.2L26.4,7.2l0-7.2L0,15.4z"/>
					</g>
				</g>
				<g id="Grupo_91671" transform="translate(39.054 68.468)">
					<g id="Grupo_91668" transform="translate(0 15.397)">
						<path id="Trazado_132067" class="st6" d="M233.7,137.5L0,0l0,7.2l233.7,137.5L233.7,137.5z"/>
					</g>
					<g id="Grupo_91669" transform="translate(0)">
						<path id="Trazado_132068" class="st7" d="M260.1,137.5L26.3,0L0,15.4l233.7,137.5L260.1,137.5z"/>
					</g>
					<g id="Grupo_91670" transform="translate(233.744 137.481)">
						<path id="Trazado_132069" class="st4" d="M0,15.4l0,7.2L26.4,7.2l0-7.2L0,15.4z"/>
					</g>
				</g>
				<g id="Grupo_91675" transform="translate(0 91.289)">
					<g id="Grupo_91672" transform="translate(0.001 15.397)">
						<path id="Trazado_132070" class="st6" d="M233.7,137.5L0,0l0,7.2l233.7,137.5L233.7,137.5z"/>
					</g>
					<g id="Grupo_91673">
						<path id="Trazado_132071" class="st7" d="M260.1,137.5L26.3,0L0,15.4l233.7,137.5L260.1,137.5z"/>
					</g>
					<g id="Grupo_91674" transform="translate(233.746 137.481)">
						<path id="Trazado_132072" class="st4" d="M0,15.4l0,7.2L26.4,7.2l0-7.3L0,15.4z"/>
					</g>
				</g>
			</g>
		</g>
	</g>
</g>
</svg>
