<?xml version="1.0" encoding="utf-8"?>
<!-- Generator: Adobe Illustrator 25.2.3, SVG Export Plug-In . SVG Version: 6.00 Build 0)  -->
<svg version="1.1" id="Capa_1" xmlns="http://www.w3.org/2000/svg" xmlns:xlink="http://www.w3.org/1999/xlink" x="0px" y="0px"
	 viewBox="0 0 610 395" style="enable-background:new 0 0 610 395;" xml:space="preserve">
<style type="text/css">
	.st0{fill:#36A3F7;}
	.st1{fill:#2986CE;}
	.st2{enable-background:new    ;}
	.st3{fill:#FFFFFF;}
	.st4{fill:#314A43;}
	.st5{fill:#192925;}
	.st6{fill:#253631;}
	.st7{fill:#1D2C28;}
	.st8{fill:#18221F;}
	.st9{fill:#21312C;}
	.st10{fill:#212F2B;}
</style>
<g id="Grupo_102782" transform="translate(6109 -482)">
	<path id="Trazado_159230" class="st0" d="M-6109,482h610v395h-610V482z"/>
	<g id="Grupo_102781" transform="translate(-10.625 31.692)">
		<g id="Grupo_102776" transform="translate(-17.204 416)">
			<path id="Trazado_159226" class="st1" d="M-5868.7,112.5h390.2v62h-325.9L-5868.7,112.5z"/>
			<g class="st2">
				<path class="st3" d="M-5738.1,135.5v4h-2.3v-11.4h4.4c0.9,0,1.6,0.2,2.3,0.5s1.1,0.8,1.5,1.3s0.5,1.2,0.5,2c0,1.1-0.4,2-1.1,2.6
					s-1.8,1-3.2,1H-5738.1z M-5738.1,133.6h2.1c0.6,0,1.1-0.1,1.4-0.4s0.5-0.7,0.5-1.2c0-0.6-0.2-1-0.5-1.4s-0.8-0.5-1.4-0.5h-2.1
					V133.6z"/>
				<path class="st3" d="M-5725.5,139.5c-0.1-0.2-0.2-0.5-0.2-0.8c-0.5,0.6-1.3,0.9-2.1,0.9c-0.8,0-1.5-0.2-2.1-0.7
					s-0.8-1.1-0.8-1.8c0-0.9,0.3-1.6,1-2.1s1.6-0.7,2.9-0.7h1v-0.5c0-0.4-0.1-0.7-0.3-0.9s-0.5-0.4-0.9-0.4c-0.4,0-0.7,0.1-0.9,0.3
					s-0.3,0.4-0.3,0.8h-2.3c0-0.5,0.2-0.9,0.5-1.4s0.7-0.7,1.3-1s1.2-0.4,1.9-0.4c1,0,1.9,0.3,2.5,0.8s0.9,1.3,0.9,2.2v3.7
					c0,0.8,0.1,1.4,0.3,1.8v0.1H-5725.5z M-5727.3,137.9c0.3,0,0.6-0.1,0.9-0.2s0.5-0.3,0.6-0.6v-1.5h-0.8c-1.1,0-1.7,0.4-1.8,1.2
					l0,0.1c0,0.3,0.1,0.5,0.3,0.7S-5727.7,137.9-5727.3,137.9z"/>
				<path class="st3" d="M-5719.4,139.5h-2.3v-12h2.3V139.5z"/>
				<path class="st3" d="M-5715.1,139.5h-2.3v-12h2.3V139.5z"/>
				<path class="st3" d="M-5709.4,139.7c-1.2,0-2.2-0.4-3-1.1s-1.2-1.8-1.2-3v-0.2c0-0.8,0.2-1.6,0.5-2.3s0.8-1.2,1.4-1.5
					s1.3-0.5,2.1-0.5c1.2,0,2.1,0.4,2.7,1.1s1,1.8,1,3.1v0.9h-5.4c0.1,0.6,0.3,1,0.7,1.3s0.8,0.5,1.4,0.5c0.9,0,1.5-0.3,2-0.9
					l1.1,1.2c-0.3,0.5-0.8,0.9-1.4,1.1S-5708.7,139.7-5709.4,139.7z M-5709.7,132.7c-0.4,0-0.8,0.2-1.1,0.5s-0.5,0.7-0.5,1.3h3.1
					v-0.2c0-0.5-0.1-0.9-0.4-1.2S-5709.2,132.7-5709.7,132.7z"/>
				<path class="st3" d="M-5701.9,129v2.1h1.4v1.7h-1.4v4.2c0,0.3,0.1,0.5,0.2,0.7s0.3,0.2,0.7,0.2c0.2,0,0.5,0,0.7-0.1v1.7
					c-0.4,0.1-0.9,0.2-1.4,0.2c-1.6,0-2.4-0.8-2.4-2.4v-4.6h-1.2V131h1.2V129H-5701.9z"/>
				<path class="st3" d="M-5695.6,135.2c0-1.3,0.3-2.4,0.9-3.1s1.4-1.2,2.4-1.2c0.8,0,1.5,0.3,2,0.9v-4.3h2.3v12h-2l-0.1-0.9
					c-0.6,0.7-1.3,1.1-2.2,1.1c-1,0-1.8-0.4-2.4-1.2S-5695.6,136.6-5695.6,135.2z M-5693.3,135.4c0,0.8,0.1,1.4,0.4,1.8
					s0.7,0.6,1.2,0.6c0.7,0,1.2-0.3,1.5-0.9v-3.3c-0.3-0.6-0.8-0.9-1.5-0.9C-5692.8,132.7-5693.3,133.6-5693.3,135.4z"/>
				<path class="st3" d="M-5682.3,139.7c-1.2,0-2.2-0.4-3-1.1s-1.2-1.8-1.2-3v-0.2c0-0.8,0.2-1.6,0.5-2.3s0.8-1.2,1.4-1.5
					s1.3-0.5,2.1-0.5c1.2,0,2.1,0.4,2.7,1.1s1,1.8,1,3.1v0.9h-5.4c0.1,0.6,0.3,1,0.7,1.3s0.8,0.5,1.4,0.5c0.9,0,1.5-0.3,2-0.9
					l1.1,1.2c-0.3,0.5-0.8,0.9-1.4,1.1S-5681.6,139.7-5682.3,139.7z M-5682.6,132.7c-0.4,0-0.8,0.2-1.1,0.5s-0.5,0.7-0.5,1.3h3.1
					v-0.2c0-0.5-0.1-0.9-0.4-1.2S-5682.1,132.7-5682.6,132.7z"/>
				<path class="st3" d="M-5666,135.4c0,1.3-0.3,2.3-0.9,3.1s-1.4,1.2-2.4,1.2c-0.9,0-1.5-0.3-2.1-0.9v4h-2.3V131h2.1l0.1,0.8
					c0.5-0.7,1.3-1,2.1-1c1,0,1.9,0.4,2.4,1.2s0.9,1.8,0.9,3.2V135.4z M-5668.2,135.2c0-0.8-0.1-1.4-0.4-1.8s-0.7-0.6-1.2-0.6
					c-0.7,0-1.2,0.3-1.5,0.8v3.5c0.3,0.6,0.8,0.8,1.5,0.8C-5668.8,137.8-5668.2,137-5668.2,135.2z"/>
				<path class="st3" d="M-5662.2,139.5h-2.3v-12h2.3V139.5z"/>
				<path class="st3" d="M-5655.5,139.5c-0.1-0.2-0.2-0.5-0.2-0.8c-0.5,0.6-1.3,0.9-2.1,0.9c-0.8,0-1.5-0.2-2.1-0.7
					s-0.8-1.1-0.8-1.8c0-0.9,0.3-1.6,1-2.1s1.6-0.7,2.9-0.7h1v-0.5c0-0.4-0.1-0.7-0.3-0.9s-0.5-0.4-0.9-0.4c-0.4,0-0.7,0.1-0.9,0.3
					s-0.3,0.4-0.3,0.8h-2.3c0-0.5,0.2-0.9,0.5-1.4s0.7-0.7,1.3-1s1.2-0.4,1.9-0.4c1,0,1.9,0.3,2.5,0.8s0.9,1.3,0.9,2.2v3.7
					c0,0.8,0.1,1.4,0.3,1.8v0.1H-5655.5z M-5657.3,137.9c0.3,0,0.6-0.1,0.9-0.2s0.5-0.3,0.6-0.6v-1.5h-0.8c-1.1,0-1.7,0.4-1.8,1.2
					l0,0.1c0,0.3,0.1,0.5,0.3,0.7S-5657.7,137.9-5657.3,137.9z M-5656.5,127.5h2.5l-2.2,2.4h-1.8L-5656.5,127.5z"/>
				<path class="st3" d="M-5647.2,137.2c0-0.3-0.1-0.5-0.4-0.7s-0.7-0.3-1.3-0.4c-2-0.4-3-1.3-3-2.6c0-0.8,0.3-1.4,0.9-1.9
					s1.4-0.8,2.4-0.8c1.1,0,1.9,0.3,2.6,0.8s1,1.2,1,2h-2.3c0-0.3-0.1-0.6-0.3-0.8s-0.5-0.3-1-0.3c-0.4,0-0.7,0.1-0.9,0.3
					s-0.3,0.4-0.3,0.7c0,0.2,0.1,0.5,0.4,0.6s0.6,0.3,1.2,0.4s1,0.2,1.4,0.4c1.2,0.4,1.8,1.2,1.8,2.3c0,0.8-0.3,1.4-1,1.9
					s-1.5,0.7-2.6,0.7c-0.7,0-1.3-0.1-1.9-0.4s-1-0.6-1.3-1s-0.5-0.9-0.5-1.4h2.1c0,0.4,0.2,0.7,0.4,0.9s0.6,0.3,1.1,0.3
					c0.4,0,0.8-0.1,1-0.2S-5647.2,137.4-5647.2,137.2z"/>
				<path class="st3" d="M-5640.8,129v2.1h1.4v1.7h-1.4v4.2c0,0.3,0.1,0.5,0.2,0.7s0.3,0.2,0.7,0.2c0.2,0,0.5,0,0.7-0.1v1.7
					c-0.4,0.1-0.9,0.2-1.4,0.2c-1.6,0-2.4-0.8-2.4-2.4v-4.6h-1.2V131h1.2V129H-5640.8z"/>
				<path class="st3" d="M-5638.2,128.9c0-0.3,0.1-0.6,0.3-0.8c0.2-0.2,0.5-0.3,0.9-0.3c0.4,0,0.7,0.1,0.9,0.3
					c0.2,0.2,0.3,0.5,0.3,0.8c0,0.3-0.1,0.6-0.3,0.8s-0.5,0.3-0.9,0.3s-0.7-0.1-0.9-0.3S-5638.2,129.2-5638.2,128.9z M-5635.8,139.5
					h-2.3V131h2.3V139.5z"/>
				<path class="st3" d="M-5630.4,137.8c0.4,0,0.8-0.1,1-0.3s0.4-0.5,0.4-0.9h2.1c0,0.6-0.2,1.1-0.5,1.6s-0.7,0.8-1.3,1.1
					s-1.1,0.4-1.8,0.4c-1.2,0-2.2-0.4-2.9-1.2s-1-1.8-1-3.2v-0.1c0-1.3,0.3-2.3,1-3.1s1.6-1.2,2.9-1.2c1.1,0,1.9,0.3,2.5,0.9
					s1,1.4,1,2.4h-2.1c0-0.4-0.1-0.8-0.4-1.1c-0.3-0.3-0.6-0.4-1-0.4c-0.5,0-0.9,0.2-1.2,0.6s-0.4,1-0.4,1.9v0.2
					c0,0.9,0.1,1.5,0.4,1.9S-5630.9,137.8-5630.4,137.8z"/>
				<path class="st3" d="M-5625.9,135.2c0-0.8,0.2-1.6,0.5-2.2s0.8-1.2,1.4-1.5s1.3-0.5,2.1-0.5c1.1,0,2.1,0.3,2.8,1
					s1.1,1.6,1.2,2.8l0,0.6c0,1.3-0.4,2.3-1.1,3.1s-1.7,1.2-2.9,1.2s-2.2-0.4-2.9-1.2s-1.1-1.8-1.1-3.2V135.2z M-5623.6,135.4
					c0,0.8,0.2,1.4,0.5,1.8s0.7,0.6,1.3,0.6c0.5,0,1-0.2,1.3-0.6s0.5-1.1,0.5-2c0-0.8-0.2-1.4-0.5-1.8s-0.7-0.6-1.3-0.6
					c-0.6,0-1,0.2-1.3,0.6S-5623.6,134.5-5623.6,135.4z"/>
				<path class="st3" d="M-5608.1,135.5h-4.4v-1.8h4.4V135.5z"/>
				<path class="st3" d="M-5599.8,135.5v4h-2.3v-11.4h4.4c0.9,0,1.6,0.2,2.3,0.5s1.1,0.8,1.5,1.3s0.5,1.2,0.5,2c0,1.1-0.4,2-1.1,2.6
					s-1.8,1-3.2,1H-5599.8z M-5599.8,133.6h2.1c0.6,0,1.1-0.1,1.4-0.4s0.5-0.7,0.5-1.2c0-0.6-0.2-1-0.5-1.4s-0.8-0.5-1.4-0.5h-2.1
					V133.6z"/>
				<path class="st3" d="M-5589.6,139.5h-2.3v-12h2.3V139.5z"/>
				<path class="st3" d="M-5582.9,139.5c-0.1-0.2-0.2-0.5-0.2-0.8c-0.5,0.6-1.3,0.9-2.1,0.9c-0.8,0-1.5-0.2-2.1-0.7
					s-0.8-1.1-0.8-1.8c0-0.9,0.3-1.6,1-2.1s1.6-0.7,2.9-0.7h1v-0.5c0-0.4-0.1-0.7-0.3-0.9s-0.5-0.4-0.9-0.4c-0.4,0-0.7,0.1-0.9,0.3
					s-0.3,0.4-0.3,0.8h-2.3c0-0.5,0.2-0.9,0.5-1.4s0.7-0.7,1.3-1s1.2-0.4,1.9-0.4c1,0,1.9,0.3,2.5,0.8s0.9,1.3,0.9,2.2v3.7
					c0,0.8,0.1,1.4,0.3,1.8v0.1H-5582.9z M-5584.7,137.9c0.3,0,0.6-0.1,0.9-0.2s0.5-0.3,0.6-0.6v-1.5h-0.8c-1.1,0-1.7,0.4-1.8,1.2
					l0,0.1c0,0.3,0.1,0.5,0.3,0.7S-5585.1,137.9-5584.7,137.9z"/>
				<path class="st3" d="M-5574.6,137.2c0-0.3-0.1-0.5-0.4-0.7s-0.7-0.3-1.3-0.4c-2-0.4-3-1.3-3-2.6c0-0.8,0.3-1.4,0.9-1.9
					s1.4-0.8,2.4-0.8c1.1,0,1.9,0.3,2.6,0.8s1,1.2,1,2h-2.3c0-0.3-0.1-0.6-0.3-0.8s-0.5-0.3-1-0.3c-0.4,0-0.7,0.1-0.9,0.3
					s-0.3,0.4-0.3,0.7c0,0.2,0.1,0.5,0.4,0.6s0.6,0.3,1.2,0.4s1,0.2,1.4,0.4c1.2,0.4,1.8,1.2,1.8,2.3c0,0.8-0.3,1.4-1,1.9
					s-1.5,0.7-2.6,0.7c-0.7,0-1.3-0.1-1.9-0.4s-1-0.6-1.3-1s-0.5-0.9-0.5-1.4h2.1c0,0.4,0.2,0.7,0.4,0.9s0.6,0.3,1.1,0.3
					c0.4,0,0.8-0.1,1-0.2S-5574.6,137.4-5574.6,137.2z"/>
				<path class="st3" d="M-5568.3,129v2.1h1.4v1.7h-1.4v4.2c0,0.3,0.1,0.5,0.2,0.7s0.3,0.2,0.7,0.2c0.2,0,0.5,0,0.7-0.1v1.7
					c-0.4,0.1-0.9,0.2-1.4,0.2c-1.6,0-2.4-0.8-2.4-2.4v-4.6h-1.2V131h1.2V129H-5568.3z"/>
				<path class="st3" d="M-5565.6,128.9c0-0.3,0.1-0.6,0.3-0.8c0.2-0.2,0.5-0.3,0.9-0.3c0.4,0,0.7,0.1,0.9,0.3
					c0.2,0.2,0.3,0.5,0.3,0.8c0,0.3-0.1,0.6-0.3,0.8s-0.5,0.3-0.9,0.3s-0.7-0.1-0.9-0.3S-5565.6,129.2-5565.6,128.9z M-5563.2,139.5
					h-2.3V131h2.3V139.5z"/>
				<path class="st3" d="M-5557.8,137.8c0.4,0,0.8-0.1,1-0.3s0.4-0.5,0.4-0.9h2.1c0,0.6-0.2,1.1-0.5,1.6s-0.7,0.8-1.3,1.1
					s-1.1,0.4-1.8,0.4c-1.2,0-2.2-0.4-2.9-1.2s-1-1.8-1-3.2v-0.1c0-1.3,0.3-2.3,1-3.1s1.6-1.2,2.9-1.2c1.1,0,1.9,0.3,2.5,0.9
					s1,1.4,1,2.4h-2.1c0-0.4-0.1-0.8-0.4-1.1c-0.3-0.3-0.6-0.4-1-0.4c-0.5,0-0.9,0.2-1.2,0.6s-0.4,1-0.4,1.9v0.2
					c0,0.9,0.1,1.5,0.4,1.9S-5558.3,137.8-5557.8,137.8z"/>
				<path class="st3" d="M-5541.4,135.4c0,1.3-0.3,2.3-0.9,3.1s-1.4,1.2-2.4,1.2c-0.9,0-1.5-0.3-2.1-0.9v4h-2.3V131h2.1l0.1,0.8
					c0.5-0.7,1.3-1,2.1-1c1,0,1.9,0.4,2.4,1.2s0.9,1.8,0.9,3.2V135.4z M-5543.6,135.2c0-0.8-0.1-1.4-0.4-1.8s-0.7-0.6-1.2-0.6
					c-0.7,0-1.2,0.3-1.5,0.8v3.5c0.3,0.6,0.8,0.8,1.5,0.8C-5544.2,137.8-5543.6,137-5543.6,135.2z"/>
				<path class="st3" d="M-5535.1,139.5c-0.1-0.2-0.2-0.5-0.2-0.8c-0.5,0.6-1.3,0.9-2.1,0.9c-0.8,0-1.5-0.2-2.1-0.7
					s-0.8-1.1-0.8-1.8c0-0.9,0.3-1.6,1-2.1s1.6-0.7,2.9-0.7h1v-0.5c0-0.4-0.1-0.7-0.3-0.9s-0.5-0.4-0.9-0.4c-0.4,0-0.7,0.1-0.9,0.3
					s-0.3,0.4-0.3,0.8h-2.3c0-0.5,0.2-0.9,0.5-1.4s0.7-0.7,1.3-1s1.2-0.4,1.9-0.4c1,0,1.9,0.3,2.5,0.8s0.9,1.3,0.9,2.2v3.7
					c0,0.8,0.1,1.4,0.3,1.8v0.1H-5535.1z M-5537,137.9c0.3,0,0.6-0.1,0.9-0.2s0.5-0.3,0.6-0.6v-1.5h-0.8c-1.1,0-1.7,0.4-1.8,1.2
					l0,0.1c0,0.3,0.1,0.5,0.3,0.7S-5537.3,137.9-5537,137.9z"/>
				<path class="st3" d="M-5529,139.5h-2.3v-12h2.3V139.5z"/>
				<path class="st3" d="M-5524.8,139.5h-2.3v-12h2.3V139.5z"/>
				<path class="st3" d="M-5519,139.7c-1.2,0-2.2-0.4-3-1.1s-1.2-1.8-1.2-3v-0.2c0-0.8,0.2-1.6,0.5-2.3s0.8-1.2,1.4-1.5
					s1.3-0.5,2.1-0.5c1.2,0,2.1,0.4,2.7,1.1s1,1.8,1,3.1v0.9h-5.4c0.1,0.6,0.3,1,0.7,1.3s0.8,0.5,1.4,0.5c0.9,0,1.5-0.3,2-0.9
					l1.1,1.2c-0.3,0.5-0.8,0.9-1.4,1.1S-5518.3,139.7-5519,139.7z M-5519.3,132.7c-0.4,0-0.8,0.2-1.1,0.5s-0.5,0.7-0.5,1.3h3.1v-0.2
					c0-0.5-0.1-0.9-0.4-1.2S-5518.8,132.7-5519.3,132.7z"/>
				<path class="st3" d="M-5511.6,129v2.1h1.4v1.7h-1.4v4.2c0,0.3,0.1,0.5,0.2,0.7s0.3,0.2,0.7,0.2c0.2,0,0.5,0,0.7-0.1v1.7
					c-0.4,0.1-0.9,0.2-1.4,0.2c-1.6,0-2.4-0.8-2.4-2.4v-4.6h-1.2V131h1.2V129H-5511.6z"/>
			</g>
			<g class="st2">
				<path class="st3" d="M-5770,159.5v4h-2.3v-11.4h4.4c0.9,0,1.6,0.2,2.3,0.5s1.1,0.8,1.5,1.3s0.5,1.2,0.5,2c0,1.1-0.4,2-1.1,2.6
					s-1.8,1-3.2,1H-5770z M-5770,157.6h2.1c0.6,0,1.1-0.1,1.4-0.4s0.5-0.7,0.5-1.2c0-0.6-0.2-1-0.5-1.4s-0.8-0.5-1.4-0.5h-2.1V157.6
					z"/>
				<path class="st3" d="M-5757.4,163.5c-0.1-0.2-0.2-0.5-0.2-0.8c-0.5,0.6-1.3,0.9-2.1,0.9c-0.8,0-1.5-0.2-2.1-0.7
					s-0.8-1.1-0.8-1.8c0-0.9,0.3-1.6,1-2.1s1.6-0.7,2.9-0.7h1v-0.5c0-0.4-0.1-0.7-0.3-0.9s-0.5-0.4-0.9-0.4c-0.4,0-0.7,0.1-0.9,0.3
					s-0.3,0.4-0.3,0.8h-2.3c0-0.5,0.2-0.9,0.5-1.4s0.7-0.7,1.3-1s1.2-0.4,1.9-0.4c1,0,1.9,0.3,2.5,0.8s0.9,1.3,0.9,2.2v3.7
					c0,0.8,0.1,1.4,0.3,1.8v0.1H-5757.4z M-5759.2,161.9c0.3,0,0.6-0.1,0.9-0.2s0.5-0.3,0.6-0.6v-1.5h-0.8c-1.1,0-1.7,0.4-1.8,1.2
					l0,0.1c0,0.3,0.1,0.5,0.3,0.7S-5759.6,161.9-5759.2,161.9z"/>
				<path class="st3" d="M-5751.3,163.5h-2.3v-12h2.3V163.5z"/>
				<path class="st3" d="M-5747.1,163.5h-2.3v-12h2.3V163.5z"/>
				<path class="st3" d="M-5741.3,163.7c-1.2,0-2.2-0.4-3-1.1s-1.2-1.8-1.2-3v-0.2c0-0.8,0.2-1.6,0.5-2.3s0.8-1.2,1.4-1.5
					s1.3-0.5,2.1-0.5c1.2,0,2.1,0.4,2.7,1.1s1,1.8,1,3.1v0.9h-5.4c0.1,0.6,0.3,1,0.7,1.3s0.8,0.5,1.4,0.5c0.9,0,1.5-0.3,2-0.9
					l1.1,1.2c-0.3,0.5-0.8,0.9-1.4,1.1S-5740.6,163.7-5741.3,163.7z M-5741.6,156.7c-0.4,0-0.8,0.2-1.1,0.5s-0.5,0.7-0.5,1.3h3.1
					v-0.2c0-0.5-0.1-0.9-0.4-1.2S-5741.1,156.7-5741.6,156.7z"/>
				<path class="st3" d="M-5733.9,153v2.1h1.4v1.7h-1.4v4.2c0,0.3,0.1,0.5,0.2,0.7s0.3,0.2,0.7,0.2c0.2,0,0.5,0,0.7-0.1v1.7
					c-0.4,0.1-0.9,0.2-1.4,0.2c-1.6,0-2.4-0.8-2.4-2.4v-4.6h-1.2V155h1.2V153H-5733.9z"/>
				<path class="st3" d="M-5727.3,163.7c-1.2,0-2.2-0.4-3-1.1s-1.2-1.8-1.2-3v-0.2c0-0.8,0.2-1.6,0.5-2.3s0.8-1.2,1.4-1.5
					s1.3-0.5,2.1-0.5c1.2,0,2.1,0.4,2.7,1.1s1,1.8,1,3.1v0.9h-5.4c0.1,0.6,0.3,1,0.7,1.3s0.8,0.5,1.4,0.5c0.9,0,1.5-0.3,2-0.9
					l1.1,1.2c-0.3,0.5-0.8,0.9-1.4,1.1S-5726.6,163.7-5727.3,163.7z M-5727.5,156.7c-0.4,0-0.8,0.2-1.1,0.5s-0.5,0.7-0.5,1.3h3.1
					v-0.2c0-0.5-0.1-0.9-0.4-1.2S-5727,156.7-5727.5,156.7z"/>
				<path class="st3" d="M-5714.6,163.7c-1.2,0-2.2-0.4-3-1.1s-1.2-1.8-1.2-3v-0.2c0-0.8,0.2-1.6,0.5-2.3s0.8-1.2,1.4-1.5
					s1.3-0.5,2.1-0.5c1.2,0,2.1,0.4,2.7,1.1s1,1.8,1,3.1v0.9h-5.4c0.1,0.6,0.3,1,0.7,1.3s0.8,0.5,1.4,0.5c0.9,0,1.5-0.3,2-0.9
					l1.1,1.2c-0.3,0.5-0.8,0.9-1.4,1.1S-5713.9,163.7-5714.6,163.7z M-5714.9,156.7c-0.4,0-0.8,0.2-1.1,0.5s-0.5,0.7-0.5,1.3h3.1
					v-0.2c0-0.5-0.1-0.9-0.4-1.2S-5714.4,156.7-5714.9,156.7z"/>
				<path class="st3" d="M-5707.8,155l0.1,1c0.6-0.8,1.4-1.1,2.4-1.1c0.9,0,1.6,0.3,2,0.8s0.7,1.3,0.7,2.4v5.5h-2.3v-5.4
					c0-0.5-0.1-0.8-0.3-1s-0.6-0.3-1-0.3c-0.6,0-1.1,0.3-1.4,0.8v6h-2.3V155H-5707.8z"/>
				<path class="st3" d="M-5689.3,159.4c0,1.3-0.3,2.3-0.9,3.1s-1.4,1.2-2.4,1.2c-0.9,0-1.5-0.3-2.1-0.9v4h-2.3V155h2.1l0.1,0.8
					c0.5-0.7,1.3-1,2.1-1c1,0,1.9,0.4,2.4,1.2s0.9,1.8,0.9,3.2V159.4z M-5691.6,159.2c0-0.8-0.1-1.4-0.4-1.8s-0.7-0.6-1.2-0.6
					c-0.7,0-1.2,0.3-1.5,0.8v3.5c0.3,0.6,0.8,0.8,1.5,0.8C-5692.1,161.8-5691.6,161-5691.6,159.2z"/>
				<path class="st3" d="M-5685.5,163.5h-2.3v-12h2.3V163.5z"/>
				<path class="st3" d="M-5678.8,163.5c-0.1-0.2-0.2-0.5-0.2-0.8c-0.5,0.6-1.3,0.9-2.1,0.9c-0.8,0-1.5-0.2-2.1-0.7
					s-0.8-1.1-0.8-1.8c0-0.9,0.3-1.6,1-2.1s1.6-0.7,2.9-0.7h1v-0.5c0-0.4-0.1-0.7-0.3-0.9s-0.5-0.4-0.9-0.4c-0.4,0-0.7,0.1-0.9,0.3
					s-0.3,0.4-0.3,0.8h-2.3c0-0.5,0.2-0.9,0.5-1.4s0.7-0.7,1.3-1s1.2-0.4,1.9-0.4c1,0,1.9,0.3,2.5,0.8s0.9,1.3,0.9,2.2v3.7
					c0,0.8,0.1,1.4,0.3,1.8v0.1H-5678.8z M-5680.6,161.9c0.3,0,0.6-0.1,0.9-0.2s0.5-0.3,0.6-0.6v-1.5h-0.8c-1.1,0-1.7,0.4-1.8,1.2
					l0,0.1c0,0.3,0.1,0.5,0.3,0.7S-5681,161.9-5680.6,161.9z"/>
				<path class="st3" d="M-5670.5,161.2c0-0.3-0.1-0.5-0.4-0.7s-0.7-0.3-1.3-0.4c-2-0.4-3-1.3-3-2.6c0-0.8,0.3-1.4,0.9-1.9
					s1.4-0.8,2.4-0.8c1.1,0,1.9,0.3,2.6,0.8s1,1.2,1,2h-2.3c0-0.3-0.1-0.6-0.3-0.8s-0.5-0.3-1-0.3c-0.4,0-0.7,0.1-0.9,0.3
					s-0.3,0.4-0.3,0.7c0,0.2,0.1,0.5,0.4,0.6s0.6,0.3,1.2,0.4s1,0.2,1.4,0.4c1.2,0.4,1.8,1.2,1.8,2.3c0,0.8-0.3,1.4-1,1.9
					s-1.5,0.7-2.6,0.7c-0.7,0-1.3-0.1-1.9-0.4s-1-0.6-1.3-1s-0.5-0.9-0.5-1.4h2.1c0,0.4,0.2,0.7,0.4,0.9s0.6,0.3,1.1,0.3
					c0.4,0,0.8-0.1,1-0.2S-5670.5,161.4-5670.5,161.2z"/>
				<path class="st3" d="M-5664.2,153v2.1h1.4v1.7h-1.4v4.2c0,0.3,0.1,0.5,0.2,0.7s0.3,0.2,0.7,0.2c0.2,0,0.5,0,0.7-0.1v1.7
					c-0.4,0.1-0.9,0.2-1.4,0.2c-1.6,0-2.4-0.8-2.4-2.4v-4.6h-1.2V155h1.2V153H-5664.2z"/>
				<path class="st3" d="M-5661.5,152.9c0-0.3,0.1-0.6,0.3-0.8s0.5-0.3,0.9-0.3c0.4,0,0.7,0.1,0.9,0.3s0.3,0.5,0.3,0.8
					c0,0.3-0.1,0.6-0.3,0.8s-0.5,0.3-0.9,0.3s-0.7-0.1-0.9-0.3S-5661.5,153.2-5661.5,152.9z M-5659.1,163.5h-2.3V155h2.3V163.5z"/>
				<path class="st3" d="M-5657.6,159.2c0-1.3,0.3-2.4,0.9-3.1s1.4-1.2,2.4-1.2c0.9,0,1.6,0.3,2.2,1l0.1-0.9h2v11.7h-2.3v-4
					c-0.5,0.6-1.2,0.9-2,0.9c-1,0-1.8-0.4-2.4-1.2S-5657.6,160.6-5657.6,159.2z M-5655.3,159.4c0,0.8,0.1,1.4,0.4,1.8
					s0.7,0.6,1.2,0.6c0.7,0,1.2-0.3,1.5-0.8v-3.5c-0.3-0.5-0.8-0.8-1.5-0.8c-0.5,0-0.9,0.2-1.2,0.6S-5655.3,158.4-5655.3,159.4z"/>
				<path class="st3" d="M-5643.1,162.6c-0.6,0.7-1.3,1-2.3,1c-0.9,0-1.6-0.3-2.1-0.8s-0.7-1.3-0.7-2.3V155h2.3v5.5
					c0,0.9,0.4,1.3,1.2,1.3c0.8,0,1.3-0.3,1.6-0.8v-6h2.3v8.5h-2.1L-5643.1,162.6z"/>
				<path class="st3" d="M-5635.3,163.7c-1.2,0-2.2-0.4-3-1.1s-1.2-1.8-1.2-3v-0.2c0-0.8,0.2-1.6,0.5-2.3s0.8-1.2,1.4-1.5
					s1.3-0.5,2.1-0.5c1.2,0,2.1,0.4,2.7,1.1s1,1.8,1,3.1v0.9h-5.4c0.1,0.6,0.3,1,0.7,1.3s0.8,0.5,1.4,0.5c0.9,0,1.5-0.3,2-0.9
					l1.1,1.2c-0.3,0.5-0.8,0.9-1.4,1.1S-5634.6,163.7-5635.3,163.7z M-5635.6,156.7c-0.4,0-0.8,0.2-1.1,0.5s-0.5,0.7-0.5,1.3h3.1
					v-0.2c0-0.5-0.1-0.9-0.4-1.2S-5635.1,156.7-5635.6,156.7z"/>
				<path class="st3" d="M-5622.2,159.5h-4.4v-1.8h4.4V159.5z"/>
				<path class="st3" d="M-5612.7,158.9l-1.2,1.3v3.2h-2.3v-11.4h2.3v5.2l1-1.4l2.9-3.7h2.9l-4,5.1l4.2,6.3h-2.8L-5612.7,158.9z"/>
				<path class="st3" d="M-5601.4,162.6c-0.6,0.7-1.3,1-2.3,1c-0.9,0-1.6-0.3-2.1-0.8s-0.7-1.3-0.7-2.3V155h2.3v5.5
					c0,0.9,0.4,1.3,1.2,1.3c0.8,0,1.3-0.3,1.6-0.8v-6h2.3v8.5h-2.1L-5601.4,162.6z"/>
				<path class="st3" d="M-5595.4,155l0.1,1c0.6-0.8,1.4-1.1,2.4-1.1c0.9,0,1.6,0.3,2,0.8s0.7,1.3,0.7,2.4v5.5h-2.3v-5.4
					c0-0.5-0.1-0.8-0.3-1s-0.6-0.3-1-0.3c-0.6,0-1.1,0.3-1.4,0.8v6h-2.3V155H-5595.4z"/>
				<path class="st3" d="M-5583.9,161.2c0-0.3-0.1-0.5-0.4-0.7s-0.7-0.3-1.3-0.4c-2-0.4-3-1.3-3-2.6c0-0.8,0.3-1.4,0.9-1.9
					s1.4-0.8,2.4-0.8c1.1,0,1.9,0.3,2.6,0.8s1,1.2,1,2h-2.3c0-0.3-0.1-0.6-0.3-0.8s-0.5-0.3-1-0.3c-0.4,0-0.7,0.1-0.9,0.3
					s-0.3,0.4-0.3,0.7c0,0.2,0.1,0.5,0.4,0.6s0.6,0.3,1.2,0.4s1,0.2,1.4,0.4c1.2,0.4,1.8,1.2,1.8,2.3c0,0.8-0.3,1.4-1,1.9
					s-1.5,0.7-2.6,0.7c-0.7,0-1.3-0.1-1.9-0.4s-1-0.6-1.3-1s-0.5-0.9-0.5-1.4h2.1c0,0.4,0.2,0.7,0.4,0.9s0.6,0.3,1.1,0.3
					c0.4,0,0.8-0.1,1-0.2S-5583.9,161.4-5583.9,161.2z"/>
				<path class="st3" d="M-5577.6,153v2.1h1.4v1.7h-1.4v4.2c0,0.3,0.1,0.5,0.2,0.7s0.3,0.2,0.7,0.2c0.2,0,0.5,0,0.7-0.1v1.7
					c-0.4,0.1-0.9,0.2-1.4,0.2c-1.6,0-2.4-0.8-2.4-2.4v-4.6h-1.2V155h1.2V153H-5577.6z"/>
				<path class="st3" d="M-5570.3,161.2c0-0.3-0.1-0.5-0.4-0.7s-0.7-0.3-1.3-0.4c-2-0.4-3-1.3-3-2.6c0-0.8,0.3-1.4,0.9-1.9
					s1.4-0.8,2.4-0.8c1.1,0,1.9,0.3,2.6,0.8s1,1.2,1,2h-2.3c0-0.3-0.1-0.6-0.3-0.8s-0.5-0.3-1-0.3c-0.4,0-0.7,0.1-0.9,0.3
					s-0.3,0.4-0.3,0.7c0,0.2,0.1,0.5,0.4,0.6s0.6,0.3,1.2,0.4s1,0.2,1.4,0.4c1.2,0.4,1.8,1.2,1.8,2.3c0,0.8-0.3,1.4-1,1.9
					s-1.5,0.7-2.6,0.7c-0.7,0-1.3-0.1-1.9-0.4s-1-0.6-1.3-1s-0.5-0.9-0.5-1.4h2.1c0,0.4,0.2,0.7,0.4,0.9s0.6,0.3,1.1,0.3
					c0.4,0,0.8-0.1,1-0.2S-5570.3,161.4-5570.3,161.2z"/>
				<path class="st3" d="M-5564,153v2.1h1.4v1.7h-1.4v4.2c0,0.3,0.1,0.5,0.2,0.7s0.3,0.2,0.7,0.2c0.2,0,0.5,0,0.7-0.1v1.7
					c-0.4,0.1-0.9,0.2-1.4,0.2c-1.6,0-2.4-0.8-2.4-2.4v-4.6h-1.2V155h1.2V153H-5564z"/>
				<path class="st3" d="M-5561.8,159.2c0-0.8,0.2-1.6,0.5-2.2s0.8-1.2,1.4-1.5s1.3-0.5,2.1-0.5c1.1,0,2.1,0.3,2.8,1
					s1.1,1.6,1.2,2.8l0,0.6c0,1.3-0.4,2.3-1.1,3.1s-1.7,1.2-2.9,1.2s-2.2-0.4-2.9-1.2s-1.1-1.8-1.1-3.2V159.2z M-5559.6,159.4
					c0,0.8,0.2,1.4,0.5,1.8s0.7,0.6,1.3,0.6c0.5,0,1-0.2,1.3-0.6s0.5-1.1,0.5-2c0-0.8-0.2-1.4-0.5-1.8s-0.7-0.6-1.3-0.6
					c-0.6,0-1,0.2-1.3,0.6S-5559.6,158.5-5559.6,159.4z"/>
				<path class="st3" d="M-5551.8,163.5v-6.8h-1.3V155h1.3v-0.7c0-0.9,0.3-1.7,0.8-2.2s1.3-0.8,2.3-0.8c0.3,0,0.7,0.1,1.1,0.2l0,1.8
					c-0.2,0-0.4-0.1-0.7-0.1c-0.8,0-1.3,0.4-1.3,1.2v0.7h1.7v1.7h-1.7v6.8H-5551.8z"/>
				<path class="st3" d="M-5546.1,163.5v-6.8h-1.3V155h1.3v-0.7c0-0.9,0.3-1.7,0.8-2.2s1.3-0.8,2.3-0.8c0.3,0,0.7,0.1,1.1,0.2l0,1.8
					c-0.2,0-0.4-0.1-0.7-0.1c-0.8,0-1.3,0.4-1.3,1.2v0.7h1.7v1.7h-1.7v6.8H-5546.1z"/>
				<path class="st3" d="M-5533.4,159.4c0,1.3-0.3,2.3-0.9,3.1s-1.4,1.2-2.4,1.2c-0.9,0-1.5-0.3-2.1-0.9v4h-2.3V155h2.1l0.1,0.8
					c0.5-0.7,1.3-1,2.1-1c1,0,1.9,0.4,2.4,1.2s0.9,1.8,0.9,3.2V159.4z M-5535.6,159.2c0-0.8-0.1-1.4-0.4-1.8s-0.7-0.6-1.2-0.6
					c-0.7,0-1.2,0.3-1.5,0.8v3.5c0.3,0.6,0.8,0.8,1.5,0.8C-5536.2,161.8-5535.6,161-5535.6,159.2z"/>
				<path class="st3" d="M-5527.1,163.5c-0.1-0.2-0.2-0.5-0.2-0.8c-0.5,0.6-1.3,0.9-2.1,0.9c-0.8,0-1.5-0.2-2.1-0.7
					s-0.8-1.1-0.8-1.8c0-0.9,0.3-1.6,1-2.1s1.6-0.7,2.9-0.7h1v-0.5c0-0.4-0.1-0.7-0.3-0.9s-0.5-0.4-0.9-0.4c-0.4,0-0.7,0.1-0.9,0.3
					s-0.3,0.4-0.3,0.8h-2.3c0-0.5,0.2-0.9,0.5-1.4s0.7-0.7,1.3-1s1.2-0.4,1.9-0.4c1,0,1.9,0.3,2.5,0.8s0.9,1.3,0.9,2.2v3.7
					c0,0.8,0.1,1.4,0.3,1.8v0.1H-5527.1z M-5528.9,161.9c0.3,0,0.6-0.1,0.9-0.2s0.5-0.3,0.6-0.6v-1.5h-0.8c-1.1,0-1.7,0.4-1.8,1.2
					l0,0.1c0,0.3,0.1,0.5,0.3,0.7S-5529.3,161.9-5528.9,161.9z"/>
				<path class="st3" d="M-5521,163.5h-2.3v-12h2.3V163.5z"/>
				<path class="st3" d="M-5515.3,163.7c-1.2,0-2.2-0.4-3-1.1s-1.2-1.8-1.2-3v-0.2c0-0.8,0.2-1.6,0.5-2.3s0.8-1.2,1.4-1.5
					s1.3-0.5,2.1-0.5c1.2,0,2.1,0.4,2.7,1.1s1,1.8,1,3.1v0.9h-5.4c0.1,0.6,0.3,1,0.7,1.3s0.8,0.5,1.4,0.5c0.9,0,1.5-0.3,2-0.9
					l1.1,1.2c-0.3,0.5-0.8,0.9-1.4,1.1S-5514.6,163.7-5515.3,163.7z M-5515.5,156.7c-0.4,0-0.8,0.2-1.1,0.5s-0.5,0.7-0.5,1.3h3.1
					v-0.2c0-0.5-0.1-0.9-0.4-1.2S-5515,156.7-5515.5,156.7z"/>
				<path class="st3" d="M-5507.8,153v2.1h1.4v1.7h-1.4v4.2c0,0.3,0.1,0.5,0.2,0.7s0.3,0.2,0.7,0.2c0.2,0,0.5,0,0.7-0.1v1.7
					c-0.4,0.1-0.9,0.2-1.4,0.2c-1.6,0-2.4-0.8-2.4-2.4v-4.6h-1.2V155h1.2V153H-5507.8z"/>
				<path class="st3" d="M-5502.4,153v2.1h1.4v1.7h-1.4v4.2c0,0.3,0.1,0.5,0.2,0.7s0.3,0.2,0.7,0.2c0.2,0,0.5,0,0.7-0.1v1.7
					c-0.4,0.1-0.9,0.2-1.4,0.2c-1.6,0-2.4-0.8-2.4-2.4v-4.6h-1.2V155h1.2V153H-5502.4z"/>
				<path class="st3" d="M-5495.8,163.7c-1.2,0-2.2-0.4-3-1.1s-1.2-1.8-1.2-3v-0.2c0-0.8,0.2-1.6,0.5-2.3s0.8-1.2,1.4-1.5
					s1.3-0.5,2.1-0.5c1.2,0,2.1,0.4,2.7,1.1s1,1.8,1,3.1v0.9h-5.4c0.1,0.6,0.3,1,0.7,1.3s0.8,0.5,1.4,0.5c0.9,0,1.5-0.3,2-0.9
					l1.1,1.2c-0.3,0.5-0.8,0.9-1.4,1.1S-5495.1,163.7-5495.8,163.7z M-5496.1,156.7c-0.4,0-0.8,0.2-1.1,0.5s-0.5,0.7-0.5,1.3h3.1
					v-0.2c0-0.5-0.1-0.9-0.4-1.2S-5495.6,156.7-5496.1,156.7z"/>
				<path class="st3" d="M-5489,155l0.1,1c0.6-0.8,1.4-1.1,2.4-1.1c0.9,0,1.6,0.3,2,0.8s0.7,1.3,0.7,2.4v5.5h-2.3v-5.4
					c0-0.5-0.1-0.8-0.3-1s-0.6-0.3-1-0.3c-0.6,0-1.1,0.3-1.4,0.8v6h-2.3V155H-5489z"/>
			</g>
		</g>
		<g id="Grupo_102778" transform="translate(-6999.034 -11046.75)">
			<g id="Grupo_102773" transform="translate(910.276 11654.313)">
				<path id="Sustracción_2" class="st4" d="M126.2,117.8L126.2,117.8L27.4,59.7l0,0L0,43.7l0.1-25.6L27.2,34L0.1,18.1L30.8,0
					l27.4,16l-0.1,0l0.1,0v0.1l98.8,58l-0.1,25.6L126.2,117.8l0-8.6L126.2,117.8L126.2,117.8z M20.5,37.8l-0.3,13.4l52.7,30.5
					l0-13.5L20.5,37.8L20.5,37.8z"/>
				<g id="Grupo_91640" transform="translate(225.348 131.536)">
					<path id="Trazado_132049" class="st5" d="M0.1,18.1L30.8,0l-0.1,25.6L0,43.7L0.1,18.1z"/>
				</g>
				<g id="Grupo_91641" transform="translate(125.703 73.735)">
					<path id="Trazado_132050" class="st4" d="M0,18.1L30,0l100.5,57.8L99.7,75.9L0,18.1z"/>
				</g>
				<g id="Grupo_91642" transform="translate(125.682 92.216)">
					<path id="Sustracción_1" class="st4" d="M99.7,83L0,25.4L0.5,0l99.2,57.4L99.7,83L99.7,83z M23.8,19.6L23.5,33l52.7,30.5
						l0-13.5L23.8,19.6L23.8,19.6z"/>
				</g>
			</g>
			<g id="Grupo_102779" transform="translate(1063.276 11570.313)">
				<g id="Grupo_91654" transform="translate(0)">
					<g id="Grupo_91653" transform="translate(0)">
						<g id="Grupo_91650" transform="translate(27.394 16.008)">
							<path id="Trazado_132055" class="st4" d="M0.1,18.1L30.8,0l-0.1,25.6L0,43.7L0.1,18.1z"/>
						</g>
						<g id="Grupo_91651" transform="translate(0.072)">
							<path id="Trazado_132056" class="st4" d="M0,18.1L30.8,0l27.4,16L27.4,34.1L0,18.1z"/>
						</g>
						<g id="Grupo_91652" transform="translate(0 18.093)">
							<path id="Trazado_132057" class="st4" d="M27.5,16l-0.1,25.6L0,25.6L0.1,0L27.5,16z"/>
						</g>
					</g>
				</g>
				<g id="Grupo_91649" transform="translate(27.117 15.886)">
					<g id="Grupo_91648" transform="translate(0 0)">
						<g id="Grupo_91645" transform="translate(99.045 58.169)">
							<path id="Trazado_132052" class="st4" d="M0.1,18.1L30.8,0l-0.1,25.6L0,43.7L0.1,18.1z"/>
						</g>
						<g id="Grupo_91646">
							<path id="Trazado_132053" class="st4" d="M0,18.2L30.7,0l99.1,58.2L99.1,76.3L0,18.2z"/>
						</g>
						<g id="Grupo_91647" transform="translate(0.189 18.178)">
							<path id="Trazado_132054" class="st4" d="M98.9,58.1l-0.1,25.6L0,25.6V0L98.9,58.1z"/>
						</g>
					</g>
				</g>
				<g id="Grupo_91644" transform="translate(125.682 73.735)">
					<g id="Grupo_91643" transform="translate(0)">
						<g id="Grupo_91640-2" transform="translate(99.666 57.801)">
							<path id="Trazado_132049-2" class="st6" d="M0.1,18.1L30.8,0l-0.1,25.6L0,43.7L0.1,18.1z"/>
						</g>
						<g id="Grupo_91641-2" transform="translate(0.022)">
							<path id="Trazado_132050-2" class="st4" d="M0,18.1L30,0l100.5,57.8L99.7,75.9L0,18.1z"/>
						</g>
						<g id="Grupo_91642-2" transform="translate(0 18.48)">
							<path id="Trazado_132051" class="st4" d="M99.7,57.4L99.7,83L0,25.4L0.5,0L99.7,57.4z"/>
						</g>
					</g>
				</g>
			</g>
			<g id="Grupo_102780" transform="translate(1001.275 11621.73)">
				<g id="Grupo_91654-2" transform="translate(162.464)">
					<g id="Grupo_91653-2">
						<g id="Grupo_91650-2" transform="translate(0 13.138)">
							<path id="Trazado_132055-2" class="st4" d="M25.2,14.9L0,0l0.1,21l25.2,14.9L25.2,14.9z"/>
						</g>
						<g id="Grupo_91651-2" transform="translate(0.002)">
							<path id="Trazado_132056-2" class="st4" d="M47.7,14.9L22.5,0L0,13.1L25.2,28L47.7,14.9z"/>
						</g>
						<g id="Grupo_91652-2" transform="translate(25.25 14.85)">
							<path id="Trazado_132057-2" class="st4" d="M0,13.1l0.1,21L22.5,21L22.5,0L0,13.1z"/>
						</g>
					</g>
				</g>
				<g id="Grupo_91649-2" transform="translate(81.405 13.038)">
					<g id="Grupo_91648-2" transform="translate(0 0)">
						<g id="Grupo_91645-2" transform="translate(0.001 47.741)">
							<path id="Trazado_132052-2" class="st4" d="M25.2,14.9L0,0l0.1,21l25.2,14.9L25.2,14.9z"/>
						</g>
						<g id="Grupo_91646-2">
							<path id="Trazado_132053-2" class="st7" d="M106.6,14.9L81.4,0L0,47.7l25.2,14.8L106.6,14.9z"/>
						</g>
						<g id="Grupo_91647-2" transform="translate(25.247 14.919)">
							<path id="Trazado_132054-2" class="st4" d="M0,47.7l0.1,21L81.2,21V0L0,47.7z"/>
						</g>
					</g>
				</g>
				<g id="Grupo_91644-2" transform="translate(0 60.517)">
					<g id="Grupo_91643-2" transform="translate(0)">
						<g id="Grupo_91640-3" transform="translate(0 47.439)">
							<path id="Trazado_132049-3" class="st4" d="M25.2,14.8L0,0l0.1,21l25.2,14.8L25.2,14.8z"/>
						</g>
						<g id="Grupo_91641-3" transform="translate(0)">
							<path id="Trazado_132050-3" class="st4" d="M107.1,14.9L82.4,0L0,47.4l25.2,14.8L107.1,14.9z"/>
						</g>
						<g id="Grupo_91642-3" transform="translate(25.247 15.167)">
							<path id="Trazado_132051-2" class="st4" d="M0,47.1l0.1,21l81.8-47.3L81.5,0L0,47.1z"/>
						</g>
					</g>
				</g>
			</g>
			<g id="Grupo_102764" transform="translate(907.66 11560.058)">
				<g id="Grupo_91659" transform="translate(156.226)">
					<g id="Grupo_91656" transform="translate(0.001 15.397)">
						<path id="Trazado_132058" class="st8" d="M166.7,174.5L-67,37l0,7.2l233.7,137.5L166.7,174.5z"/>
					</g>
					<g id="Grupo_91657" transform="translate(0)">
						<path id="Trazado_132059" class="st4" d="M260.1,137.5L26.3,0l-93.5,52.7l233.7,137.2L260.1,137.5z"/>
					</g>
					<g id="Grupo_91658" transform="translate(233.744 137.481)">
						<path id="Trazado_132060" class="st9" d="M-67,52.3v7.3L26.4,7.2l0-7.2L-67,52.3z"/>
					</g>
				</g>
				<g id="Grupo_91675" transform="translate(0 91.289)">
					<g id="Grupo_91672" transform="translate(0.001 15.397)">
						<path id="Trazado_132070" class="st7" d="M233.7,137.5L0,0l0,7.2l233.7,137.5L233.7,137.5z"/>
					</g>
					<g id="Grupo_91673">
						<path id="Trazado_132071" class="st4" d="M315.1,105.3L81.4-32.4L0,15.4l233.7,137.5L315.1,105.3z"/>
					</g>
					<g id="Grupo_91674" transform="translate(233.746 137.481)">
						<path id="Trazado_132072" class="st10" d="M0,15.4l0,7.2l80.9-48v-6.5L0,15.4z"/>
					</g>
				</g>
			</g>
		</g>
	</g>
</g>
</svg>
