<?xml version="1.0" encoding="utf-8"?>
<!-- Generator: Adobe Illustrator 25.2.3, SVG Export Plug-In . SVG Version: 6.00 Build 0)  -->
<svg version="1.1" id="Capa_1" xmlns="http://www.w3.org/2000/svg" xmlns:xlink="http://www.w3.org/1999/xlink" x="0px" y="0px"
	 viewBox="0 0 715 452" style="enable-background:new 0 0 715 452;" xml:space="preserve">
<style type="text/css">
	.st0{fill:#C69B67;}
	.st1{fill:#5E4A31;}
	.st2{fill:#876A40;}
	.st3{fill:#FBE2B8;}
	.st4{fill:none;}
	.st5{fill:none;stroke:#451991;stroke-width:2;}
	.st6{fill:none;stroke:#707070;stroke-dasharray:5;}
	.st7{enable-background:new    ;}
	.st8{fill:#12263F;}
	.st9{fill:#451991;}
	.st10{fill:none;stroke:#451991;stroke-width:3;}
</style>
<g id="Grupo_102786" transform="translate(305 -9.497)">
	<g id="Grupo_102785" transform="translate(723.015 357.293)">
		<g id="Grupo_102765" transform="translate(0 25.706)">
			<g id="Grupo_91598" transform="translate(134.016)">
				<g id="Grupo_91595" transform="translate(0.001 13.208)">
					<path id="Trazado_132022" class="st0" d="M-501.5-105.6L-702-223.5l0,6.2l200.5,117.9L-501.5-105.6z"/>
				</g>
				<g id="Grupo_91596" transform="translate(0)">
					<path id="Trazado_132023" class="st1" d="M-478.9-105.6l-200.5-117.9l-22.6,13.2l200.5,117.9L-478.9-105.6z"/>
				</g>
				<g id="Grupo_91597" transform="translate(200.514 117.936)">
					<path id="Trazado_132024" class="st0" d="M-702-210.3l0,6.2l22.6-13.2l0-6.2L-702-210.3z"/>
				</g>
			</g>
			<g id="Grupo_91602" transform="translate(67.005 39.157)">
				<g id="Grupo_91599" transform="translate(0.001 13.208)">
					<path id="Trazado_132025" class="st0" d="M-501.5-105.6L-702-223.5l0,6.2l200.5,117.9L-501.5-105.6z"/>
				</g>
				<g id="Grupo_91600" transform="translate(0)">
					<path id="Trazado_132026" class="st1" d="M-478.9-105.6l-200.5-117.9l-22.6,13.2l200.5,117.9L-478.9-105.6z"/>
				</g>
				<g id="Grupo_91601" transform="translate(200.515 117.936)">
					<path id="Trazado_132027" class="st0" d="M-702-210.3l0,6.2l22.6-13.2l0-6.2L-702-210.3z"/>
				</g>
			</g>
			<g id="Grupo_91606" transform="translate(0 78.31)">
				<g id="Grupo_91603" transform="translate(0.001 13.208)">
					<path id="Trazado_132028" class="st2" d="M-501.5-105.6L-702-223.5l0,6.2l200.5,117.9L-501.5-105.6z"/>
				</g>
				<g id="Grupo_91604">
					<path id="Trazado_132029" class="st1" d="M-478.9-105.6l-200.5-117.9l-22.6,13.2l200.5,117.9L-478.9-105.6z"/>
				</g>
				<g id="Grupo_91605" transform="translate(200.515 117.936)">
					<path id="Trazado_132030" class="st0" d="M-702-210.3l0,6.2l22.6-13.2l0-6.2L-702-210.3z"/>
				</g>
			</g>
		</g>
		<g id="Grupo_102767" transform="translate(179.228 111.692)">
			<g id="Grupo_91612" transform="translate(0 78.315)">
				<g id="Grupo_91611" transform="translate(0)">
					<g id="Grupo_91608" transform="translate(0 10.848)">
						<path id="Trazado_132031" class="st2" d="M-681.1-211.2l-20.9-12.3l0,17.4l20.9,12.3L-681.1-211.2z"/>
					</g>
					<g id="Grupo_91609">
						<path id="Trazado_132032" class="st1" d="M-662.6-211.2l-20.9-12.3l-18.6,10.8l20.9,12.3L-662.6-211.2z"/>
					</g>
					<g id="Grupo_91610" transform="translate(20.854 12.265)">
						<path id="Trazado_132033" class="st0" d="M-702-212.7l0,17.4l18.6-10.8l0-17.4L-702-212.7z"/>
					</g>
				</g>
			</g>
			<g id="Grupo_91617" transform="translate(67.239 39.35)">
				<g id="Grupo_91616" transform="translate(0)">
					<g id="Grupo_91613" transform="translate(0.001 10.848)">
						<path id="Trazado_132034" class="st2" d="M-681.1-211.2l-20.9-12.3l0,17.4l20.9,12.3L-681.1-211.2z"/>
					</g>
					<g id="Grupo_91614">
						<path id="Trazado_132035" class="st1" d="M-662.6-211.2l-20.9-12.3l-18.6,10.8l20.9,12.3L-662.6-211.2z"/>
					</g>
					<g id="Grupo_91615" transform="translate(20.853 12.265)">
						<path id="Trazado_132036" class="st0" d="M-702-212.7l0,17.4l18.6-10.8l0-17.4L-702-212.7z"/>
					</g>
				</g>
			</g>
			<g id="Grupo_91622" transform="translate(134.192)">
				<g id="Grupo_91621" transform="translate(0)">
					<g id="Grupo_91618" transform="translate(0.001 10.848)">
						<path id="Trazado_132037" class="st2" d="M-681.1-211.2l-20.9-12.3l0,17.4l20.9,12.3L-681.1-211.2z"/>
					</g>
					<g id="Grupo_91619">
						<path id="Trazado_132038" class="st1" d="M-662.6-211.2l-20.9-12.3l-18.6,10.8l20.9,12.3L-662.6-211.2z"/>
					</g>
					<g id="Grupo_91620" transform="translate(20.854 12.265)">
						<path id="Trazado_132039" class="st0" d="M-702-212.7l0,17.4l18.6-10.8l0-17.4L-702-212.7z"/>
					</g>
				</g>
			</g>
		</g>
		<g id="Grupo_102766" transform="translate(91.745 59.861)">
			<g id="Grupo_91654" transform="translate(134.189)">
				<g id="Grupo_91653" transform="translate(0)">
					<g id="Grupo_91650" transform="translate(0 10.852)">
						<path id="Trazado_132055" class="st2" d="M-681.1-211.2l-20.9-12.3l0,17.4l20.9,12.3L-681.1-211.2z"/>
					</g>
					<g id="Grupo_91651" transform="translate(0.002)">
						<path id="Trazado_132056" class="st1" d="M-662.6-211.2l-20.9-12.3l-18.6,10.9l20.9,12.3L-662.6-211.2z"/>
					</g>
					<g id="Grupo_91652" transform="translate(20.856 12.265)">
						<path id="Trazado_132057" class="st0" d="M-702-212.6l0,17.4l18.6-10.9l0-17.4L-702-212.6z"/>
					</g>
				</g>
			</g>
			<g id="Grupo_91649" transform="translate(67.238 10.769)">
				<g id="Grupo_91648" transform="translate(0)">
					<g id="Grupo_91645" transform="translate(0.001 39.433)">
						<path id="Trazado_132052" class="st2" d="M-681.1-211.2l-20.9-12.3l0,17.4l20.9,12.3L-681.1-211.2z"/>
					</g>
					<g id="Grupo_91646" transform="translate(0)">
						<path id="Trazado_132053" class="st1" d="M-614-211.2l-20.8-12.3l-67.2,39.4l20.9,12.3L-614-211.2z"/>
					</g>
					<g id="Grupo_91647" transform="translate(20.853 12.323)">
						<path id="Trazado_132054" class="st0" d="M-702-184.1l0,17.4l67-39.4v-17.3L-702-184.1z"/>
					</g>
				</g>
			</g>
			<g id="Grupo_91644" transform="translate(0 49.985)">
				<g id="Grupo_91643" transform="translate(0 0)">
					<g id="Grupo_91640" transform="translate(0 39.183)">
						<path id="Trazado_132049" class="st2" d="M-681.1-211.2l-20.9-12.3l0,17.4l20.9,12.3L-681.1-211.2z"/>
					</g>
					<g id="Grupo_91641" transform="translate(0)">
						<path id="Trazado_132050" class="st1" d="M-613.5-211.2l-20.4-12.3l-68.1,39.2l20.9,12.3L-613.5-211.2z"/>
					</g>
					<g id="Grupo_91642" transform="translate(20.853 12.528)">
						<path id="Trazado_132051" class="st0" d="M-702-184.6l0,17.4l67.6-39.1l-0.3-17.2L-702-184.6z"/>
					</g>
				</g>
			</g>
		</g>
		<g id="Grupo_102763" transform="translate(9.393 10.964)">
			<g id="Grupo_91654-2" transform="translate(134.189)">
				<g id="Grupo_91653-2" transform="translate(0)">
					<g id="Grupo_91650-2" transform="translate(0 10.852)">
						<path id="Trazado_132055-2" class="st2" d="M-681.1-211.2l-20.9-12.3l0,17.4l20.9,12.3L-681.1-211.2z"/>
					</g>
					<g id="Grupo_91651-2" transform="translate(0.002)">
						<path id="Trazado_132056-2" class="st1" d="M-662.6-211.2l-20.9-12.3l-18.6,10.9l20.9,12.3L-662.6-211.2z"/>
					</g>
					<g id="Grupo_91652-2" transform="translate(20.856 12.265)">
						<path id="Trazado_132057-2" class="st0" d="M-702-212.6l0,17.4l18.6-10.9l0-17.4L-702-212.6z"/>
					</g>
				</g>
			</g>
			<g id="Grupo_91649-2" transform="translate(67.238 10.769)">
				<g id="Grupo_91648-2" transform="translate(0)">
					<g id="Grupo_91645-2" transform="translate(0.001 39.433)">
						<path id="Trazado_132052-2" class="st2" d="M-681.1-211.2l-20.9-12.3l0,17.4l20.9,12.3L-681.1-211.2z"/>
					</g>
					<g id="Grupo_91646-2" transform="translate(0)">
						<path id="Trazado_132053-2" class="st1" d="M-614-211.2l-20.8-12.3l-67.2,39.4l20.9,12.3L-614-211.2z"/>
					</g>
					<g id="Grupo_91647-2" transform="translate(20.853 12.323)">
						<path id="Trazado_132054-2" class="st0" d="M-702-184.1l0,17.4l67-39.4v-17.3L-702-184.1z"/>
					</g>
				</g>
			</g>
			<g id="Grupo_91644-2" transform="translate(0 49.985)">
				<g id="Grupo_91643-2" transform="translate(0 0)">
					<g id="Grupo_91640-2" transform="translate(0 39.183)">
						<path id="Trazado_132049-2" class="st2" d="M-681.1-211.2l-20.9-12.3l0,17.4l20.9,12.3L-681.1-211.2z"/>
					</g>
					<g id="Grupo_91641-2" transform="translate(0)">
						<path id="Trazado_132050-2" class="st1" d="M-613.5-211.2l-20.4-12.3l-68.1,39.2l20.9,12.3L-613.5-211.2z"/>
					</g>
					<g id="Grupo_91642-2" transform="translate(20.853 12.528)">
						<path id="Trazado_132051-2" class="st0" d="M-702-184.6l0,17.4l67.6-39.1l-0.3-17.2L-702-184.6z"/>
					</g>
				</g>
			</g>
		</g>
		<g id="Grupo_102764">
			<g id="Grupo_91659" transform="translate(134.016)">
				<g id="Grupo_91656" transform="translate(0.001 13.208)">
					<path id="Trazado_132058" class="st2" d="M-501.5-105.6L-702-223.5l0,6.2l200.5,117.9L-501.5-105.6z"/>
				</g>
				<g id="Grupo_91657" transform="translate(0)">
					<path id="Trazado_132059" class="st3" d="M-478.9-105.6l-200.5-117.9l-22.6,13.2l200.5,117.9L-478.9-105.6z"/>
				</g>
				<g id="Grupo_91658" transform="translate(200.514 117.936)">
					<path id="Trazado_132060" class="st0" d="M-702-210.3l0,6.2l22.6-13.2l0-6.2L-702-210.3z"/>
				</g>
			</g>
			<g id="Grupo_91663" transform="translate(100.507 19.577)">
				<g id="Grupo_91660" transform="translate(0 13.212)">
					<path id="Trazado_132061" class="st2" d="M-501.5-105.6L-702-223.5l0,6.2l200.5,117.9L-501.5-105.6z"/>
				</g>
				<g id="Grupo_91661" transform="translate(0)">
					<path id="Trazado_132062" class="st3" d="M-478.9-105.6l-200.5-117.9l-22.6,13.2l200.5,117.9L-478.9-105.6z"/>
				</g>
				<g id="Grupo_91662" transform="translate(200.514 117.936)">
					<path id="Trazado_132063" class="st0" d="M-702-210.3l0,6.2l22.6-13.2l0-6.2L-702-210.3z"/>
				</g>
			</g>
			<g id="Grupo_91667" transform="translate(67.005 39.158)">
				<g id="Grupo_91664" transform="translate(0.001 13.208)">
					<path id="Trazado_132064" class="st2" d="M-501.5-105.6L-702-223.5l0,6.2l200.5,117.9L-501.5-105.6z"/>
				</g>
				<g id="Grupo_91665" transform="translate(0)">
					<path id="Trazado_132065" class="st3" d="M-478.9-105.6l-200.5-117.9l-22.6,13.2l200.5,117.9L-478.9-105.6z"/>
				</g>
				<g id="Grupo_91666" transform="translate(200.515 117.936)">
					<path id="Trazado_132066" class="st0" d="M-702-210.3l0,6.2l22.6-13.2l0-6.2L-702-210.3z"/>
				</g>
			</g>
			<g id="Grupo_91671" transform="translate(33.502 58.734)">
				<g id="Grupo_91668" transform="translate(0 13.208)">
					<path id="Trazado_132067" class="st2" d="M-501.5-105.6L-702-223.5l0,6.2l200.5,117.9L-501.5-105.6z"/>
				</g>
				<g id="Grupo_91669" transform="translate(0)">
					<path id="Trazado_132068" class="st3" d="M-478.9-105.6l-200.5-117.9l-22.6,13.2l200.5,117.9L-478.9-105.6z"/>
				</g>
				<g id="Grupo_91670" transform="translate(200.514 117.936)">
					<path id="Trazado_132069" class="st0" d="M-702-210.3l0,6.2l22.6-13.2l0-6.2L-702-210.3z"/>
				</g>
			</g>
			<g id="Grupo_91675" transform="translate(0 78.311)">
				<g id="Grupo_91672" transform="translate(0.001 13.208)">
					<path id="Trazado_132070" class="st2" d="M-501.5-105.6L-702-223.5l0,6.2l200.5,117.9L-501.5-105.6z"/>
				</g>
				<g id="Grupo_91673">
					<path id="Trazado_132071" class="st3" d="M-478.9-105.6l-200.5-117.9l-22.6,13.2l200.5,117.9L-478.9-105.6z"/>
				</g>
				<g id="Grupo_91674" transform="translate(200.515 117.936)">
					<path id="Trazado_132072" class="st0" d="M-702-210.3l0,6.2l22.6-13.2l0-6.2L-702-210.3z"/>
				</g>
			</g>
		</g>
	</g>
	<g id="Rectángulo_34552" transform="translate(705 347.497)">
		<path class="st4" d="M-679-223.5h348c12.7,0,23,10.3,23,23v260c0,12.7-10.3,23-23,23h-348c-12.7,0-23-10.3-23-23v-260
			C-702-213.2-691.7-223.5-679-223.5z"/>
		<path class="st5" d="M-679-222.5h348c12.2,0,22,9.8,22,22v260c0,12.2-9.8,22-22,22h-348c-12.2,0-22-9.8-22-22v-260
			C-701-212.7-691.2-222.5-679-222.5z"/>
	</g>
	<line id="Línea_344" class="st6" x1="16.5" y1="268.7" x2="220.5" y2="384.7"/>
	<g class="st7">
		<path class="st8" d="M68.8,320.7l-1.5-0.8l3.2-5.7l-2.1-0.4l0.7-1.2l3.7,0.6l0.2,0.1L68.8,320.7z"/>
		<path class="st8" d="M71.8,321.4c0.1-0.2,0.3-0.4,0.6-0.4c0.2-0.1,0.5,0,0.7,0.1c0.2,0.1,0.4,0.3,0.5,0.6c0.1,0.2,0.1,0.5-0.1,0.7
			c-0.1,0.2-0.3,0.4-0.5,0.4c-0.2,0.1-0.5,0-0.7-0.1c-0.2-0.1-0.4-0.3-0.5-0.6C71.6,321.9,71.7,321.7,71.8,321.4z"/>
		<path class="st8" d="M79.4,326.6l-5.1-2.8l0.6-1l3.8-1.2c0.5-0.2,1-0.4,1.3-0.5c0.3-0.2,0.5-0.4,0.7-0.6c0.2-0.3,0.2-0.6,0.2-0.9
			c-0.1-0.3-0.2-0.5-0.6-0.7c-0.3-0.2-0.7-0.2-1-0.1c-0.3,0.1-0.6,0.4-0.8,0.8l-1.5-0.8c0.3-0.5,0.6-0.8,1-1.1s0.9-0.4,1.4-0.4
			s1,0.1,1.5,0.4c0.8,0.4,1.3,0.9,1.5,1.5c0.2,0.6,0.1,1.2-0.2,1.9c-0.2,0.4-0.5,0.7-0.9,1c-0.4,0.3-1,0.5-1.7,0.8l-2.7,0.8l3.2,1.8
			L79.4,326.6z"/>
		<path class="st8" d="M87.1,326.8c-0.6,1-1.2,1.7-2,2c-0.7,0.3-1.5,0.2-2.3-0.2c-0.8-0.5-1.3-1.1-1.4-1.8s0.1-1.7,0.6-2.7l0.8-1.4
			c0.6-1,1.2-1.7,2-2c0.7-0.3,1.5-0.2,2.3,0.2c0.8,0.5,1.3,1.1,1.4,1.8c0.1,0.8-0.1,1.7-0.6,2.7L87.1,326.8z M86.4,324.5
			c0.3-0.6,0.5-1.1,0.5-1.5c0-0.4-0.2-0.7-0.6-0.9c-0.3-0.2-0.7-0.2-1,0s-0.6,0.5-1,1.1l-1,1.8c-0.3,0.6-0.5,1.1-0.5,1.5
			s0.2,0.7,0.6,0.9c0.4,0.2,0.7,0.2,1,0c0.3-0.2,0.6-0.6,1-1.2L86.4,324.5z"/>
		<path class="st8" d="M93.5,327.2l-0.3,0.6c0.7-0.3,1.3-0.2,2,0.2c0.7,0.4,1,0.9,1,1.7c0.7-0.3,1.4-0.3,2.1,0.1
			c0.6,0.3,1,0.8,1.1,1.3c0.1,0.5,0,1.1-0.4,1.8l-2,3.5l-1.5-0.8l2-3.5c0.2-0.3,0.2-0.6,0.2-0.8s-0.2-0.4-0.5-0.6
			c-0.4-0.2-0.9-0.2-1.3,0.1l-2.1,3.8l-1.5-0.8l2-3.5c0.2-0.3,0.2-0.6,0.2-0.8c0-0.2-0.2-0.4-0.5-0.6c-0.4-0.2-0.8-0.2-1.2,0
			l-2.2,3.9l-1.5-0.8l3.1-5.5L93.5,327.2z"/>
		<path class="st8" d="M103.7,331.1l-0.8,1.4l0.9,0.5l-0.6,1.1l-0.9-0.5l-1.5,2.8c-0.1,0.2-0.2,0.4-0.1,0.5c0,0.1,0.2,0.3,0.4,0.4
			c0.2,0.1,0.3,0.2,0.5,0.2l-0.6,1.1c-0.3-0.1-0.7-0.2-1-0.4c-1-0.6-1.3-1.4-0.7-2.5l1.7-3l-0.8-0.4l0.6-1.1l0.8,0.4l0.8-1.4
			L103.7,331.1z"/>
		<path class="st8" d="M105.5,339.1c0.1-0.2,0.1-0.4,0-0.6c-0.1-0.2-0.4-0.5-0.7-0.8c-1.2-1-1.5-1.9-1-2.8c0.3-0.5,0.7-0.8,1.3-0.9
			c0.6-0.1,1.2,0,1.9,0.4c0.7,0.4,1.2,0.9,1.4,1.4c0.2,0.6,0.2,1.1-0.1,1.6l-1.5-0.8c0.1-0.2,0.1-0.4,0.1-0.6
			c-0.1-0.2-0.2-0.4-0.5-0.6c-0.2-0.1-0.5-0.2-0.7-0.2s-0.3,0.1-0.4,0.3c-0.1,0.2-0.1,0.3,0,0.5c0.1,0.2,0.3,0.4,0.6,0.7
			c0.3,0.3,0.6,0.5,0.8,0.8c0.6,0.7,0.7,1.4,0.3,2.1c-0.3,0.5-0.7,0.8-1.3,0.9c-0.6,0.1-1.3-0.1-1.9-0.5c-0.5-0.3-0.8-0.6-1.1-0.9
			c-0.3-0.4-0.4-0.8-0.5-1.2c0-0.4,0-0.8,0.2-1.1l1.4,0.8c-0.1,0.3-0.1,0.5,0,0.8c0.1,0.2,0.3,0.4,0.6,0.6c0.3,0.2,0.5,0.2,0.7,0.2
			C105.3,339.4,105.4,339.3,105.5,339.1z"/>
	</g>
	<g class="st7">
		<path class="st8" d="M274,367.2h-1.7v-6.5l-2,0.6V360l3.5-1.3h0.2V367.2z"/>
		<path class="st8" d="M276.9,366.4c0-0.3,0.1-0.5,0.3-0.7s0.4-0.3,0.7-0.3c0.3,0,0.5,0.1,0.7,0.3s0.3,0.4,0.3,0.7
			c0,0.3-0.1,0.5-0.3,0.6s-0.4,0.2-0.7,0.2c-0.3,0-0.5-0.1-0.7-0.2S276.9,366.7,276.9,366.4z"/>
		<path class="st8" d="M285.2,364h1v1.4h-1v1.8h-1.7v-1.8H280l-0.1-1.1l3.6-5.6h1.7V364z M281.7,364h1.9v-3l-0.1,0.2L281.7,364z"/>
		<path class="st8" d="M287.4,363.1l0.5-4.3h4.8v1.4h-3.4L289,362c0.4-0.2,0.8-0.3,1.3-0.3c0.8,0,1.4,0.3,1.9,0.8s0.7,1.2,0.7,2.1
			c0,0.6-0.1,1-0.3,1.5s-0.6,0.8-1,1s-0.9,0.4-1.5,0.4c-0.5,0-1-0.1-1.4-0.3s-0.8-0.5-1-0.9s-0.4-0.8-0.4-1.3h1.7
			c0,0.4,0.2,0.6,0.4,0.8s0.5,0.3,0.8,0.3c0.4,0,0.7-0.1,0.9-0.4s0.3-0.7,0.3-1.2c0-0.5-0.1-0.9-0.4-1.1s-0.6-0.4-1-0.4
			c-0.4,0-0.7,0.1-1,0.3l-0.2,0.2L287.4,363.1z"/>
		<path class="st8" d="M298.6,360.9l0.1,0.7c0.4-0.6,1.1-0.8,1.8-0.8c0.8,0,1.4,0.3,1.7,1c0.4-0.6,1.1-1,1.9-1
			c0.7,0,1.2,0.2,1.5,0.6s0.5,1,0.5,1.8v4h-1.7v-4c0-0.4-0.1-0.6-0.2-0.8s-0.4-0.2-0.7-0.2c-0.5,0-0.9,0.2-1.1,0.7l0,4.4h-1.7v-4
			c0-0.4-0.1-0.6-0.2-0.8s-0.4-0.2-0.7-0.2c-0.5,0-0.8,0.2-1,0.6v4.5h-1.7v-6.3H298.6z"/>
		<path class="st8" d="M309,360.9l0.1,0.7c0.4-0.6,1.1-0.8,1.8-0.8c0.8,0,1.4,0.3,1.7,1c0.4-0.6,1.1-1,1.9-1c0.7,0,1.2,0.2,1.5,0.6
			s0.5,1,0.5,1.8v4h-1.7v-4c0-0.4-0.1-0.6-0.2-0.8s-0.4-0.2-0.7-0.2c-0.5,0-0.9,0.2-1.1,0.7l0,4.4h-1.7v-4c0-0.4-0.1-0.6-0.2-0.8
			s-0.4-0.2-0.7-0.2c-0.5,0-0.8,0.2-1,0.6v4.5h-1.7v-6.3H309z"/>
	</g>
	<line id="Línea_345" class="st6" x1="254.5" y1="342.7" x2="254.5" y2="378.7"/>
	<line id="Línea_346" class="st6" x1="16.5" y1="224.7" x2="173.5" y2="134.7"/>
	<g class="st7">
		<path class="st8" d="M31.9,210.9l-1.5,0.8l-3.3-5.7l-1.4,1.6l-0.7-1.2l2.4-2.9l0.2-0.1L31.9,210.9z"/>
		<path class="st8" d="M34,208.7c-0.1-0.2-0.2-0.5-0.1-0.7c0.1-0.2,0.2-0.4,0.5-0.6c0.2-0.1,0.5-0.2,0.7-0.1
			c0.2,0.1,0.4,0.2,0.6,0.4c0.1,0.2,0.2,0.5,0.1,0.7c-0.1,0.2-0.2,0.4-0.5,0.6c-0.2,0.1-0.5,0.2-0.7,0.1
			C34.3,209.1,34.1,209,34,208.7z"/>
		<path class="st8" d="M40.5,201.9c0.6,1,0.8,1.9,0.7,2.7s-0.6,1.4-1.4,1.9c-0.8,0.5-1.6,0.6-2.3,0.3c-0.7-0.3-1.4-0.9-2-1.9
			l-0.8-1.4c-0.6-1-0.8-1.9-0.7-2.7c0.1-0.8,0.6-1.4,1.4-1.9s1.6-0.6,2.3-0.3s1.4,0.9,2,1.9L40.5,201.9z M38.2,201.2
			c-0.4-0.6-0.7-1-1-1.2c-0.3-0.2-0.7-0.2-1,0c-0.3,0.2-0.5,0.5-0.5,0.8c0,0.4,0.1,0.8,0.5,1.4l1,1.8c0.3,0.6,0.7,1,1,1.2
			s0.7,0.2,1,0c0.4-0.2,0.5-0.5,0.5-0.9c0-0.4-0.2-0.9-0.5-1.4L38.2,201.2z"/>
		<path class="st8" d="M46.5,198.4c0.6,1,0.8,1.9,0.7,2.7c-0.1,0.8-0.6,1.4-1.4,1.9c-0.8,0.5-1.6,0.6-2.3,0.3
			c-0.7-0.3-1.4-0.9-2-1.9l-0.8-1.4c-0.6-1-0.8-1.9-0.7-2.7c0.1-0.8,0.6-1.4,1.4-1.9c0.8-0.5,1.6-0.6,2.3-0.3c0.7,0.3,1.4,0.9,2,1.9
			L46.5,198.4z M44.1,197.8c-0.4-0.6-0.7-1-1-1.2c-0.3-0.2-0.7-0.2-1,0c-0.3,0.2-0.5,0.5-0.5,0.8c0,0.4,0.1,0.8,0.5,1.4l1,1.8
			c0.3,0.6,0.7,1,1,1.2c0.3,0.2,0.7,0.2,1,0c0.4-0.2,0.5-0.5,0.5-0.9c0-0.4-0.2-0.9-0.5-1.4L44.1,197.8z"/>
		<path class="st8" d="M50.1,193.1l0.4,0.6c0.1-0.7,0.5-1.2,1.2-1.6c0.7-0.4,1.4-0.4,1.9,0c0.1-0.8,0.5-1.4,1.2-1.8
			c0.6-0.3,1.1-0.4,1.6-0.2s0.9,0.6,1.3,1.3l2,3.5l-1.5,0.8l-2-3.5c-0.2-0.3-0.4-0.5-0.6-0.6s-0.5,0-0.8,0.2
			c-0.4,0.3-0.6,0.6-0.5,1.2l2.2,3.8l-1.5,0.8l-2-3.5c-0.2-0.3-0.4-0.5-0.6-0.6c-0.2-0.1-0.5,0-0.8,0.2c-0.4,0.2-0.6,0.6-0.6,1
			l2.2,3.9l-1.5,0.8l-3.2-5.5L50.1,193.1z"/>
		<path class="st8" d="M58.7,186.3l0.8,1.3l0.9-0.5l0.6,1.1l-0.9,0.5l1.6,2.7c0.1,0.2,0.2,0.3,0.4,0.4s0.3,0,0.5-0.1
			c0.2-0.1,0.3-0.2,0.4-0.3l0.6,1.1c-0.2,0.3-0.5,0.5-0.8,0.6c-1,0.6-1.9,0.4-2.5-0.6l-1.7-3l-0.8,0.5l-0.6-1.1l0.8-0.5l-0.8-1.3
			L58.7,186.3z"/>
	</g>
	<g class="st7">
		<path class="st8" d="M190.9,405.8H185v4h6.9v2.5h-10v-14.9h10v2.5H185v3.6h5.9V405.8z"/>
		<path class="st8" d="M199.5,409.2c0-0.4-0.2-0.6-0.5-0.9c-0.4-0.2-0.9-0.4-1.7-0.6c-2.6-0.6-4-1.7-4-3.4c0-1,0.4-1.8,1.2-2.5
			c0.8-0.7,1.9-1,3.2-1c1.4,0,2.5,0.3,3.4,1c0.8,0.7,1.3,1.5,1.3,2.6h-3c0-0.4-0.1-0.8-0.4-1.1c-0.3-0.3-0.7-0.4-1.3-0.4
			c-0.5,0-0.9,0.1-1.2,0.3c-0.3,0.2-0.4,0.5-0.4,0.9c0,0.3,0.2,0.6,0.5,0.8c0.3,0.2,0.8,0.4,1.6,0.5c0.7,0.1,1.4,0.3,1.9,0.5
			c1.6,0.6,2.3,1.6,2.3,3c0,1-0.4,1.8-1.3,2.5c-0.9,0.6-2,0.9-3.4,0.9c-0.9,0-1.8-0.2-2.5-0.5c-0.7-0.3-1.3-0.8-1.7-1.4
			c-0.4-0.6-0.6-1.2-0.6-1.9h2.8c0,0.5,0.2,0.9,0.6,1.2s0.8,0.4,1.5,0.4c0.6,0,1-0.1,1.3-0.3C199.4,409.8,199.5,409.5,199.5,409.2z"
			/>
		<path class="st8" d="M207.9,398.4v2.7h1.9v2.2h-1.9v5.5c0,0.4,0.1,0.7,0.2,0.9s0.5,0.3,0.9,0.3c0.3,0,0.6,0,0.9-0.1v2.2
			c-0.6,0.2-1.2,0.3-1.8,0.3c-2.1,0-3.1-1-3.2-3.1v-6h-1.6v-2.2h1.6v-2.7H207.9z"/>
		<path class="st8" d="M211.4,398.3c0-0.4,0.1-0.8,0.4-1.1c0.3-0.3,0.7-0.4,1.2-0.4c0.5,0,0.9,0.1,1.2,0.4s0.5,0.7,0.5,1.1
			c0,0.5-0.2,0.8-0.5,1.1c-0.3,0.3-0.7,0.4-1.2,0.4s-0.9-0.1-1.2-0.4C211.6,399.1,211.4,398.7,211.4,398.3z M214.5,412.2h-3v-11.1h3
			V412.2z"/>
		<path class="st8" d="M227,406.8c0,1.8-0.4,3.2-1.1,4.2c-0.8,1-1.8,1.5-3.2,1.5c-1.2,0-2.2-0.5-2.9-1.4l-0.1,1.2H217v-15.8h3v5.7
			c0.7-0.8,1.6-1.2,2.7-1.2c1.4,0,2.4,0.5,3.2,1.5c0.8,1,1.2,2.4,1.2,4.2V406.8z M224,406.6c0-1.1-0.2-1.9-0.5-2.5
			c-0.4-0.5-0.9-0.8-1.6-0.8c-0.9,0-1.6,0.4-1.9,1.2v4.4c0.4,0.8,1,1.2,2,1.2c1,0,1.6-0.5,1.9-1.4C224,408.2,224,407.5,224,406.6z"
			/>
		<path class="st8" d="M235.2,412.2c-0.1-0.3-0.2-0.6-0.3-1c-0.7,0.8-1.7,1.2-2.8,1.2c-1.1,0-2-0.3-2.7-0.9
			c-0.7-0.6-1.1-1.4-1.1-2.4c0-1.2,0.4-2.1,1.3-2.7c0.9-0.6,2.1-0.9,3.8-1h1.4v-0.6c0-0.5-0.1-0.9-0.4-1.2c-0.3-0.3-0.7-0.5-1.2-0.5
			c-0.5,0-0.9,0.1-1.2,0.4c-0.3,0.2-0.4,0.6-0.4,1h-3c0-0.6,0.2-1.2,0.6-1.8c0.4-0.5,1-1,1.7-1.3c0.7-0.3,1.5-0.5,2.4-0.5
			c1.4,0,2.5,0.3,3.3,1c0.8,0.7,1.2,1.7,1.2,2.9v4.8c0,1.1,0.2,1.8,0.4,2.4v0.2H235.2z M232.8,410.2c0.4,0,0.8-0.1,1.2-0.3
			c0.4-0.2,0.6-0.5,0.8-0.8v-1.9h-1.1c-1.5,0-2.3,0.5-2.4,1.5l0,0.2c0,0.4,0.1,0.7,0.4,0.9S232.3,410.2,232.8,410.2z"/>
	</g>
</g>
<g id="Rectángulo_34553" transform="translate(856.964 259)">
	<path class="st4" d="M-422-257h107c18.2,0,33,14.8,33,33l0,0c0,18.2-14.8,33-33,33h-107c-18.2,0-33-14.8-33-33l0,0
		C-455-242.2-440.2-257-422-257z"/>
	<path class="st5" d="M-422-256h107c17.7,0,32,14.3,32,32l0,0c0,17.7-14.3,32-32,32h-107c-17.7,0-32-14.3-32-32l0,0
		C-454-241.7-439.6-256-422-256z"/>
</g>
<g class="st7">
	<path class="st8" d="M443.7,25.7h-4.9v4h5.7V31h-7.2V19.6h7.1v1.2h-5.6v3.7h4.9V25.7z"/>
	<path class="st8" d="M447.7,31h-1.4V19h1.4V31z"/>
	<path class="st8" d="M455.3,31c-0.1-0.2-0.2-0.5-0.2-0.9c-0.7,0.7-1.5,1-2.4,1c-0.8,0-1.5-0.2-2.1-0.7s-0.8-1.1-0.8-1.8
		c0-0.9,0.3-1.6,1-2.1s1.6-0.7,2.8-0.7h1.4v-0.7c0-0.5-0.2-0.9-0.5-1.2s-0.7-0.4-1.3-0.4c-0.5,0-0.9,0.1-1.3,0.4s-0.5,0.6-0.5,0.9
		H450c0-0.4,0.1-0.8,0.4-1.2s0.7-0.7,1.2-0.9s1.1-0.3,1.7-0.3c1,0,1.7,0.2,2.3,0.7s0.8,1.2,0.9,2V29c0,0.8,0.1,1.4,0.3,1.9V31H455.3
		z M452.9,29.9c0.5,0,0.9-0.1,1.3-0.4s0.7-0.5,0.9-0.9v-1.7h-1.1c-1.8,0-2.7,0.5-2.7,1.6c0,0.5,0.2,0.8,0.5,1.1
		S452.4,29.9,452.9,29.9z"/>
	<path class="st8" d="M465.9,26.9c0,1.3-0.3,2.3-0.9,3.1s-1.4,1.2-2.4,1.2c-1.1,0-1.9-0.4-2.5-1.1l-0.1,1h-1.3V19h1.4v4.5
		c0.6-0.7,1.4-1.1,2.4-1.1s1.8,0.4,2.4,1.2s0.9,1.8,0.9,3.2V26.9z M464.5,26.7c0-1-0.2-1.7-0.6-2.3s-0.9-0.8-1.6-0.8
		c-1,0-1.6,0.4-2.1,1.3v3.7c0.4,0.9,1.1,1.3,2.1,1.3c0.7,0,1.2-0.3,1.6-0.8S464.5,27.8,464.5,26.7z"/>
	<path class="st8" d="M467.3,26.7c0-0.8,0.2-1.6,0.5-2.2s0.8-1.2,1.4-1.5s1.2-0.5,2-0.5c1.2,0,2.1,0.4,2.8,1.2s1.1,1.9,1.1,3.2v0.1
		c0,0.8-0.2,1.6-0.5,2.2s-0.8,1.2-1.4,1.5s-1.3,0.5-2,0.5c-1.1,0-2.1-0.4-2.8-1.2s-1.1-1.9-1.1-3.2V26.7z M468.8,26.9
		c0,0.9,0.2,1.7,0.7,2.3s1,0.9,1.7,0.9c0.7,0,1.3-0.3,1.8-0.9s0.6-1.4,0.6-2.4c0-0.9-0.2-1.7-0.7-2.3s-1-0.9-1.8-0.9
		c-0.7,0-1.3,0.3-1.7,0.9S468.8,25.8,468.8,26.9z"/>
	<path class="st8" d="M480.9,23.8c-0.2,0-0.5-0.1-0.7-0.1c-0.9,0-1.6,0.4-1.9,1.2v6h-1.4v-8.5h1.4l0,1c0.5-0.8,1.1-1.1,2-1.1
		c0.3,0,0.5,0,0.6,0.1V23.8z"/>
	<path class="st8" d="M487.2,31c-0.1-0.2-0.2-0.5-0.2-0.9c-0.7,0.7-1.5,1-2.4,1c-0.8,0-1.5-0.2-2.1-0.7s-0.8-1.1-0.8-1.8
		c0-0.9,0.3-1.6,1-2.1s1.6-0.7,2.8-0.7h1.4v-0.7c0-0.5-0.2-0.9-0.5-1.2s-0.7-0.4-1.3-0.4c-0.5,0-0.9,0.1-1.3,0.4s-0.5,0.6-0.5,0.9
		h-1.5c0-0.4,0.1-0.8,0.4-1.2s0.7-0.7,1.2-0.9s1.1-0.3,1.7-0.3c1,0,1.7,0.2,2.3,0.7s0.8,1.2,0.9,2V29c0,0.8,0.1,1.4,0.3,1.9V31
		H487.2z M484.8,29.9c0.5,0,0.9-0.1,1.3-0.4s0.7-0.5,0.9-0.9v-1.7h-1.1c-1.8,0-2.7,0.5-2.7,1.6c0,0.5,0.2,0.8,0.5,1.1
		S484.3,29.9,484.8,29.9z"/>
	<path class="st8" d="M494,30c0.5,0,1-0.2,1.4-0.5s0.6-0.7,0.6-1.2h1.4c0,0.5-0.2,0.9-0.5,1.4s-0.7,0.8-1.2,1s-1.1,0.4-1.6,0.4
		c-1.2,0-2.1-0.4-2.7-1.2s-1-1.8-1-3.2v-0.2c0-0.8,0.2-1.6,0.5-2.2s0.7-1.1,1.3-1.5s1.2-0.5,2-0.5c0.9,0,1.7,0.3,2.4,0.9
		s1,1.3,1,2.2H496c0-0.5-0.2-1-0.6-1.3s-0.8-0.5-1.4-0.5c-0.7,0-1.3,0.3-1.7,0.8s-0.6,1.3-0.6,2.3v0.3c0,1,0.2,1.7,0.6,2.2
		S493.3,30,494,30z"/>
	<path class="st8" d="M499,20.3c0-0.2,0.1-0.4,0.2-0.6s0.4-0.2,0.6-0.2s0.5,0.1,0.6,0.2s0.2,0.4,0.2,0.6s-0.1,0.4-0.2,0.6
		s-0.4,0.2-0.6,0.2s-0.5-0.1-0.6-0.2S499,20.5,499,20.3z M500.6,31h-1.4v-8.5h1.4V31z"/>
	<path class="st8" d="M502.5,26.7c0-0.8,0.2-1.6,0.5-2.2s0.8-1.2,1.4-1.5s1.2-0.5,2-0.5c1.2,0,2.1,0.4,2.8,1.2s1.1,1.9,1.1,3.2v0.1
		c0,0.8-0.2,1.6-0.5,2.2s-0.8,1.2-1.4,1.5s-1.3,0.5-2,0.5c-1.1,0-2.1-0.4-2.8-1.2s-1.1-1.9-1.1-3.2V26.7z M504,26.9
		c0,0.9,0.2,1.7,0.7,2.3s1,0.9,1.7,0.9c0.7,0,1.3-0.3,1.8-0.9s0.6-1.4,0.6-2.4c0-0.9-0.2-1.7-0.7-2.3s-1-0.9-1.8-0.9
		c-0.7,0-1.3,0.3-1.7,0.9S504,25.8,504,26.9z M507,19h1.8l-2.1,2.3l-1.2,0L507,19z"/>
	<path class="st8" d="M513.4,22.5l0,1.1c0.6-0.8,1.5-1.2,2.5-1.2c1.8,0,2.7,1,2.7,3V31h-1.4v-5.6c0-0.6-0.1-1.1-0.4-1.4
		s-0.7-0.4-1.3-0.4c-0.5,0-0.9,0.1-1.2,0.4s-0.6,0.6-0.8,1v6H512v-8.5H513.4z"/>
	<path class="st8" d="M528.3,31.2c-1.1,0-2.1-0.4-2.8-1.1s-1.1-1.8-1.1-3v-0.3c0-0.8,0.2-1.6,0.5-2.2s0.8-1.2,1.3-1.5
		s1.2-0.6,1.9-0.6c1.1,0,2,0.4,2.6,1.1s0.9,1.8,0.9,3.1v0.6h-5.7c0,0.8,0.3,1.5,0.7,2s1.1,0.8,1.8,0.8c0.5,0,0.9-0.1,1.3-0.3
		s0.7-0.5,0.9-0.8l0.9,0.7C530.8,30.6,529.7,31.2,528.3,31.2z M528.1,23.6c-0.6,0-1.1,0.2-1.5,0.6s-0.6,1-0.7,1.8h4.2v-0.1
		c0-0.7-0.2-1.3-0.6-1.7S528.8,23.6,528.1,23.6z"/>
	<path class="st8" d="M534.7,22.5l0,1.1c0.6-0.8,1.5-1.2,2.5-1.2c1.8,0,2.7,1,2.7,3V31h-1.4v-5.6c0-0.6-0.1-1.1-0.4-1.4
		s-0.7-0.4-1.3-0.4c-0.5,0-0.9,0.1-1.2,0.4s-0.6,0.6-0.8,1v6h-1.4v-8.5H534.7z"/>
</g>
<g class="st7">
	<path class="st8" d="M432.9,46.5l0,0.9c0.6-0.7,1.5-1.1,2.5-1.1c1.2,0,2,0.5,2.4,1.4c0.3-0.4,0.6-0.7,1.1-1c0.4-0.2,1-0.4,1.6-0.4
		c1.9,0,2.8,1,2.8,2.9V55H442v-5.6c0-0.6-0.1-1.1-0.4-1.4c-0.3-0.3-0.7-0.4-1.4-0.4c-0.5,0-1,0.2-1.3,0.5c-0.4,0.3-0.6,0.8-0.6,1.3
		V55h-1.5v-5.5c0-1.2-0.6-1.8-1.8-1.8c-0.9,0-1.6,0.4-1.9,1.2V55h-1.4v-8.5H432.9z"/>
	<path class="st8" d="M450.8,55c-0.1-0.2-0.2-0.5-0.2-0.9c-0.7,0.7-1.5,1-2.4,1c-0.8,0-1.5-0.2-2.1-0.7c-0.5-0.5-0.8-1.1-0.8-1.8
		c0-0.9,0.3-1.6,1-2.1c0.7-0.5,1.6-0.7,2.8-0.7h1.4v-0.7c0-0.5-0.2-0.9-0.5-1.2c-0.3-0.3-0.7-0.4-1.3-0.4c-0.5,0-0.9,0.1-1.3,0.4
		c-0.3,0.3-0.5,0.6-0.5,0.9h-1.5c0-0.4,0.1-0.8,0.4-1.2c0.3-0.4,0.7-0.7,1.2-0.9c0.5-0.2,1.1-0.3,1.7-0.3c1,0,1.7,0.2,2.3,0.7
		c0.6,0.5,0.8,1.2,0.9,2V53c0,0.8,0.1,1.4,0.3,1.9V55H450.8z M448.4,53.9c0.5,0,0.9-0.1,1.3-0.4s0.7-0.5,0.9-0.9v-1.7h-1.1
		c-1.8,0-2.7,0.5-2.7,1.6c0,0.5,0.2,0.8,0.5,1.1C447.6,53.8,447.9,53.9,448.4,53.9z"/>
	<path class="st8" d="M453.9,50.7c0-1.3,0.3-2.3,0.9-3.1c0.6-0.8,1.4-1.2,2.4-1.2c1,0,1.8,0.3,2.4,1V43h1.4v12h-1.3l-0.1-0.9
		c-0.6,0.7-1.4,1.1-2.4,1.1c-1,0-1.8-0.4-2.4-1.2s-0.9-1.8-0.9-3.1V50.7z M455.4,50.9c0,1,0.2,1.7,0.6,2.2c0.4,0.5,0.9,0.8,1.6,0.8
		c0.9,0,1.6-0.4,2-1.2v-3.9c-0.4-0.8-1.1-1.2-2-1.2c-0.7,0-1.3,0.3-1.7,0.8C455.6,49,455.4,49.8,455.4,50.9z"/>
	<path class="st8" d="M466.8,55.2c-1.1,0-2.1-0.4-2.8-1.1s-1.1-1.8-1.1-3v-0.3c0-0.8,0.2-1.6,0.5-2.2s0.8-1.2,1.3-1.5
		c0.6-0.4,1.2-0.6,1.9-0.6c1.1,0,2,0.4,2.6,1.1s0.9,1.8,0.9,3.1v0.6h-5.7c0,0.8,0.3,1.5,0.7,2c0.5,0.5,1.1,0.8,1.8,0.8
		c0.5,0,0.9-0.1,1.3-0.3c0.4-0.2,0.7-0.5,0.9-0.8l0.9,0.7C469.3,54.6,468.2,55.2,466.8,55.2z M466.7,47.6c-0.6,0-1.1,0.2-1.5,0.6
		c-0.4,0.4-0.6,1-0.7,1.8h4.2v-0.1c0-0.7-0.2-1.3-0.6-1.7C467.7,47.8,467.3,47.6,466.7,47.6z"/>
	<path class="st8" d="M475.9,47.8c-0.2,0-0.5-0.1-0.7-0.1c-0.9,0-1.6,0.4-1.9,1.2v6h-1.4v-8.5h1.4l0,1c0.5-0.8,1.1-1.1,2-1.1
		c0.3,0,0.5,0,0.6,0.1V47.8z"/>
	<path class="st8" d="M482.1,55c-0.1-0.2-0.2-0.5-0.2-0.9c-0.7,0.7-1.5,1-2.4,1c-0.8,0-1.5-0.2-2.1-0.7c-0.5-0.5-0.8-1.1-0.8-1.8
		c0-0.9,0.3-1.6,1-2.1c0.7-0.5,1.6-0.7,2.8-0.7h1.4v-0.7c0-0.5-0.2-0.9-0.5-1.2c-0.3-0.3-0.7-0.4-1.3-0.4c-0.5,0-0.9,0.1-1.3,0.4
		c-0.3,0.3-0.5,0.6-0.5,0.9h-1.5c0-0.4,0.1-0.8,0.4-1.2c0.3-0.4,0.7-0.7,1.2-0.9c0.5-0.2,1.1-0.3,1.7-0.3c1,0,1.7,0.2,2.3,0.7
		c0.6,0.5,0.8,1.2,0.9,2V53c0,0.8,0.1,1.4,0.3,1.9V55H482.1z M479.7,53.9c0.5,0,0.9-0.1,1.3-0.4s0.7-0.5,0.9-0.9v-1.7h-1.1
		c-1.8,0-2.7,0.5-2.7,1.6c0,0.5,0.2,0.8,0.5,1.1C478.9,53.8,479.2,53.9,479.7,53.9z"/>
	<path class="st8" d="M493,54c0.5,0,1-0.2,1.4-0.5c0.4-0.3,0.6-0.7,0.6-1.2h1.4c0,0.5-0.2,0.9-0.5,1.4c-0.3,0.4-0.7,0.8-1.2,1
		c-0.5,0.3-1.1,0.4-1.6,0.4c-1.2,0-2.1-0.4-2.7-1.2s-1-1.8-1-3.2v-0.2c0-0.8,0.2-1.6,0.5-2.2c0.3-0.6,0.7-1.1,1.3-1.5
		c0.6-0.4,1.2-0.5,2-0.5c0.9,0,1.7,0.3,2.4,0.9c0.6,0.6,1,1.3,1,2.2h-1.4c0-0.5-0.2-1-0.6-1.3c-0.4-0.4-0.8-0.5-1.4-0.5
		c-0.7,0-1.3,0.3-1.7,0.8c-0.4,0.5-0.6,1.3-0.6,2.3v0.3c0,1,0.2,1.7,0.6,2.2C491.6,53.7,492.2,54,493,54z"/>
	<path class="st8" d="M497.6,50.7c0-0.8,0.2-1.6,0.5-2.2c0.3-0.7,0.8-1.2,1.4-1.5c0.6-0.4,1.2-0.5,2-0.5c1.2,0,2.1,0.4,2.8,1.2
		s1.1,1.9,1.1,3.2v0.1c0,0.8-0.2,1.6-0.5,2.2c-0.3,0.7-0.8,1.2-1.4,1.5s-1.3,0.5-2,0.5c-1.1,0-2.1-0.4-2.8-1.2s-1.1-1.9-1.1-3.2
		V50.7z M499,50.9c0,0.9,0.2,1.7,0.7,2.3c0.4,0.6,1,0.9,1.7,0.9c0.7,0,1.3-0.3,1.8-0.9c0.4-0.6,0.6-1.4,0.6-2.4
		c0-0.9-0.2-1.7-0.7-2.3c-0.4-0.6-1-0.9-1.8-0.9c-0.7,0-1.3,0.3-1.7,0.9S499,49.8,499,50.9z"/>
	<path class="st8" d="M508.4,46.5l0,1.1c0.6-0.8,1.5-1.2,2.5-1.2c1.8,0,2.7,1,2.7,3V55h-1.4v-5.6c0-0.6-0.1-1.1-0.4-1.4
		s-0.7-0.4-1.3-0.4c-0.5,0-0.9,0.1-1.2,0.4c-0.4,0.2-0.6,0.6-0.8,1v6h-1.4v-8.5H508.4z"/>
	<path class="st8" d="M515.9,44.3c0-0.2,0.1-0.4,0.2-0.6c0.1-0.2,0.4-0.2,0.6-0.2s0.5,0.1,0.6,0.2c0.1,0.2,0.2,0.4,0.2,0.6
		s-0.1,0.4-0.2,0.6c-0.1,0.2-0.4,0.2-0.6,0.2s-0.5-0.1-0.6-0.2C516,44.7,515.9,44.5,515.9,44.3z M517.5,55H516v-8.5h1.4V55z"/>
	<path class="st8" d="M520.5,55v-7.3h-1.3v-1.1h1.3v-0.9c0-0.9,0.2-1.6,0.7-2.1s1.2-0.7,2.1-0.7c0.3,0,0.7,0,1,0.1l-0.1,1.2
		c-0.2,0-0.5-0.1-0.8-0.1c-0.5,0-0.8,0.1-1.1,0.4c-0.3,0.3-0.4,0.7-0.4,1.2v0.9h1.8v1.1h-1.8V55H520.5z"/>
	<path class="st8" d="M528.8,55.2c-1.1,0-2.1-0.4-2.8-1.1s-1.1-1.8-1.1-3v-0.3c0-0.8,0.2-1.6,0.5-2.2s0.8-1.2,1.3-1.5
		c0.6-0.4,1.2-0.6,1.9-0.6c1.1,0,2,0.4,2.6,1.1s0.9,1.8,0.9,3.1v0.6h-5.7c0,0.8,0.3,1.5,0.7,2c0.5,0.5,1.1,0.8,1.8,0.8
		c0.5,0,0.9-0.1,1.3-0.3c0.4-0.2,0.7-0.5,0.9-0.8l0.9,0.7C531.3,54.6,530.3,55.2,528.8,55.2z M528.7,47.6c-0.6,0-1.1,0.2-1.5,0.6
		c-0.4,0.4-0.6,1-0.7,1.8h4.2v-0.1c0-0.7-0.2-1.3-0.6-1.7C529.7,47.8,529.3,47.6,528.7,47.6z"/>
	<path class="st8" d="M537.9,47.8c-0.2,0-0.5-0.1-0.7-0.1c-0.9,0-1.6,0.4-1.9,1.2v6h-1.4v-8.5h1.4l0,1c0.5-0.8,1.1-1.1,2-1.1
		c0.3,0,0.5,0,0.6,0.1V47.8z"/>
	<path class="st8" d="M544.1,55c-0.1-0.2-0.2-0.5-0.2-0.9c-0.7,0.7-1.5,1-2.4,1c-0.8,0-1.5-0.2-2.1-0.7c-0.5-0.5-0.8-1.1-0.8-1.8
		c0-0.9,0.3-1.6,1-2.1c0.7-0.5,1.6-0.7,2.8-0.7h1.4v-0.7c0-0.5-0.2-0.9-0.5-1.2c-0.3-0.3-0.7-0.4-1.3-0.4c-0.5,0-0.9,0.1-1.3,0.4
		c-0.3,0.3-0.5,0.6-0.5,0.9h-1.5c0-0.4,0.1-0.8,0.4-1.2c0.3-0.4,0.7-0.7,1.2-0.9c0.5-0.2,1.1-0.3,1.7-0.3c1,0,1.7,0.2,2.3,0.7
		c0.6,0.5,0.8,1.2,0.9,2V53c0,0.8,0.1,1.4,0.3,1.9V55H544.1z M541.7,53.9c0.5,0,0.9-0.1,1.3-0.4s0.7-0.5,0.9-0.9v-1.7h-1.1
		c-1.8,0-2.7,0.5-2.7,1.6c0,0.5,0.2,0.8,0.5,1.1C540.9,53.8,541.3,53.9,541.7,53.9z"/>
</g>
<g id="Grupo_102790" transform="translate(266 -33.5)">
	<circle id="Elipse_5047" class="st9" cx="232" cy="101.5" r="8"/>
	<line id="Línea_343" class="st10" x1="232.5" y1="102" x2="232.5" y2="148"/>
</g>
<g id="Rectángulo_34554" transform="translate(1096 281)">
	<path class="st4" d="M-1057-190.5h206c13.8,0,25,11.2,25,25v96c0,13.8-11.2,25-25,25h-206c-13.8,0-25-11.2-25-25v-96
		C-1082-179.3-1070.8-190.5-1057-190.5z"/>
	<path class="st5" d="M-1057-189.5h206c13.3,0,24,10.7,24,24v96c0,13.3-10.7,24-24,24h-206c-13.3,0-24-10.7-24-24v-96
		C-1081-178.8-1070.3-189.5-1057-189.5z"/>
</g>
<g class="st7">
	<path class="st8" d="M36,118.6h-4.5v3h5.3v1.9h-7.6v-11.4h7.6v1.9h-5.3v2.7H36V118.6z"/>
	<path class="st8" d="M40.4,123.5h-2.3v-12h2.3V123.5z"/>
	<path class="st8" d="M47.2,123.5c-0.1-0.2-0.2-0.5-0.2-0.8c-0.5,0.6-1.3,0.9-2.1,0.9c-0.8,0-1.5-0.2-2.1-0.7
		c-0.5-0.5-0.8-1.1-0.8-1.8c0-0.9,0.3-1.6,1-2.1s1.6-0.7,2.9-0.7h1v-0.5c0-0.4-0.1-0.7-0.3-0.9c-0.2-0.2-0.5-0.4-0.9-0.4
		c-0.4,0-0.7,0.1-0.9,0.3c-0.2,0.2-0.3,0.4-0.3,0.8h-2.3c0-0.5,0.2-0.9,0.5-1.4c0.3-0.4,0.7-0.7,1.3-1c0.6-0.2,1.2-0.4,1.9-0.4
		c1,0,1.9,0.3,2.5,0.8c0.6,0.5,0.9,1.3,0.9,2.2v3.7c0,0.8,0.1,1.4,0.3,1.8v0.1H47.2z M45.3,121.9c0.3,0,0.6-0.1,0.9-0.2
		s0.5-0.3,0.6-0.6v-1.5H46c-1.1,0-1.7,0.4-1.8,1.2l0,0.1c0,0.3,0.1,0.5,0.3,0.7C44.7,121.8,45,121.9,45.3,121.9z"/>
	<path class="st8" d="M58.5,119.4c0,1.4-0.3,2.4-0.9,3.2s-1.4,1.1-2.4,1.1c-0.9,0-1.6-0.4-2.2-1.1l-0.1,0.9h-2v-12h2.3v4.3
		c0.5-0.6,1.2-0.9,2.1-0.9c1,0,1.8,0.4,2.4,1.1s0.9,1.8,0.9,3.2V119.4z M56.2,119.2c0-0.9-0.1-1.5-0.4-1.9c-0.3-0.4-0.7-0.6-1.2-0.6
		c-0.7,0-1.2,0.3-1.5,0.9v3.3c0.3,0.6,0.8,0.9,1.5,0.9c0.7,0,1.2-0.4,1.4-1.1C56.2,120.4,56.2,119.9,56.2,119.2z"/>
	<path class="st8" d="M59.5,119.2c0-0.8,0.2-1.6,0.5-2.2c0.3-0.7,0.8-1.2,1.4-1.5c0.6-0.4,1.3-0.5,2.1-0.5c1.1,0,2.1,0.3,2.8,1
		c0.7,0.7,1.1,1.6,1.2,2.8l0,0.6c0,1.3-0.4,2.3-1.1,3.1c-0.7,0.8-1.7,1.2-2.9,1.2s-2.2-0.4-2.9-1.2s-1.1-1.8-1.1-3.2V119.2z
		 M61.8,119.4c0,0.8,0.2,1.4,0.5,1.8c0.3,0.4,0.7,0.6,1.3,0.6c0.5,0,1-0.2,1.3-0.6c0.3-0.4,0.5-1.1,0.5-2c0-0.8-0.2-1.4-0.5-1.8
		c-0.3-0.4-0.7-0.6-1.3-0.6c-0.6,0-1,0.2-1.3,0.6C61.9,117.8,61.8,118.5,61.8,119.4z"/>
	<path class="st8" d="M73.7,117.2c-0.3,0-0.6-0.1-0.8-0.1c-0.9,0-1.4,0.3-1.7,0.9v5.5h-2.3V115h2.1l0.1,1c0.5-0.8,1.1-1.2,1.9-1.2
		c0.2,0,0.5,0,0.7,0.1L73.7,117.2z"/>
	<path class="st8" d="M79.4,123.5c-0.1-0.2-0.2-0.5-0.2-0.8c-0.5,0.6-1.3,0.9-2.1,0.9c-0.8,0-1.5-0.2-2.1-0.7
		c-0.5-0.5-0.8-1.1-0.8-1.8c0-0.9,0.3-1.6,1-2.1s1.6-0.7,2.9-0.7h1v-0.5c0-0.4-0.1-0.7-0.3-0.9c-0.2-0.2-0.5-0.4-0.9-0.4
		c-0.4,0-0.7,0.1-0.9,0.3c-0.2,0.2-0.3,0.4-0.3,0.8h-2.3c0-0.5,0.2-0.9,0.5-1.4c0.3-0.4,0.7-0.7,1.3-1c0.6-0.2,1.2-0.4,1.9-0.4
		c1,0,1.9,0.3,2.5,0.8c0.6,0.5,0.9,1.3,0.9,2.2v3.7c0,0.8,0.1,1.4,0.3,1.8v0.1H79.4z M77.6,121.9c0.3,0,0.6-0.1,0.9-0.2
		s0.5-0.3,0.6-0.6v-1.5h-0.8c-1.1,0-1.7,0.4-1.8,1.2l0,0.1c0,0.3,0.1,0.5,0.3,0.7C76.9,121.8,77.2,121.9,77.6,121.9z"/>
	<path class="st8" d="M86.6,121.8c0.4,0,0.8-0.1,1-0.3c0.3-0.2,0.4-0.5,0.4-0.9h2.1c0,0.6-0.2,1.1-0.5,1.6c-0.3,0.5-0.7,0.8-1.3,1.1
		c-0.5,0.3-1.1,0.4-1.8,0.4c-1.2,0-2.2-0.4-2.9-1.2c-0.7-0.8-1-1.8-1-3.2v-0.1c0-1.3,0.3-2.3,1-3.1c0.7-0.8,1.6-1.2,2.9-1.2
		c1.1,0,1.9,0.3,2.5,0.9c0.6,0.6,1,1.4,1,2.4H88c0-0.4-0.1-0.8-0.4-1.1c-0.3-0.3-0.6-0.4-1-0.4c-0.5,0-0.9,0.2-1.2,0.6
		c-0.3,0.4-0.4,1-0.4,1.9v0.2c0,0.9,0.1,1.5,0.4,1.9S86.1,121.8,86.6,121.8z"/>
	<path class="st8" d="M91.4,112.9c0-0.3,0.1-0.6,0.3-0.8s0.5-0.3,0.9-0.3c0.4,0,0.7,0.1,0.9,0.3c0.2,0.2,0.3,0.5,0.3,0.8
		c0,0.3-0.1,0.6-0.3,0.8c-0.2,0.2-0.5,0.3-0.9,0.3c-0.4,0-0.7-0.1-0.9-0.3C91.5,113.5,91.4,113.2,91.4,112.9z M93.8,123.5h-2.3V115
		h2.3V123.5z"/>
	<path class="st8" d="M95.3,119.2c0-0.8,0.2-1.6,0.5-2.2c0.3-0.7,0.8-1.2,1.4-1.5c0.6-0.4,1.3-0.5,2.1-0.5c1.1,0,2.1,0.3,2.8,1
		c0.7,0.7,1.1,1.6,1.2,2.8l0,0.6c0,1.3-0.4,2.3-1.1,3.1c-0.7,0.8-1.7,1.2-2.9,1.2s-2.2-0.4-2.9-1.2s-1.1-1.8-1.1-3.2V119.2z
		 M97.6,119.4c0,0.8,0.2,1.4,0.5,1.8c0.3,0.4,0.7,0.6,1.3,0.6c0.5,0,1-0.2,1.3-0.6c0.3-0.4,0.5-1.1,0.5-2c0-0.8-0.2-1.4-0.5-1.8
		c-0.3-0.4-0.7-0.6-1.3-0.6c-0.6,0-1,0.2-1.3,0.6C97.7,117.8,97.6,118.5,97.6,119.4z M99.8,111.5h2.5l-2.2,2.4h-1.8L99.8,111.5z"/>
	<path class="st8" d="M106.8,115l0.1,1c0.6-0.8,1.4-1.1,2.4-1.1c0.9,0,1.6,0.3,2,0.8s0.7,1.3,0.7,2.4v5.5h-2.3v-5.4
		c0-0.5-0.1-0.8-0.3-1c-0.2-0.2-0.6-0.3-1-0.3c-0.6,0-1.1,0.3-1.4,0.8v6h-2.3V115H106.8z"/>
	<path class="st8" d="M121.6,123.7c-1.2,0-2.2-0.4-3-1.1c-0.8-0.8-1.2-1.8-1.2-3v-0.2c0-0.8,0.2-1.6,0.5-2.3s0.8-1.2,1.4-1.5
		s1.3-0.5,2.1-0.5c1.2,0,2.1,0.4,2.7,1.1s1,1.8,1,3.1v0.9h-5.4c0.1,0.6,0.3,1,0.7,1.3s0.8,0.5,1.4,0.5c0.9,0,1.5-0.3,2-0.9l1.1,1.2
		c-0.3,0.5-0.8,0.9-1.4,1.1S122.3,123.7,121.6,123.7z M121.3,116.7c-0.4,0-0.8,0.2-1.1,0.5c-0.3,0.3-0.5,0.7-0.5,1.3h3.1v-0.2
		c0-0.5-0.1-0.9-0.4-1.2C122.2,116.8,121.8,116.7,121.3,116.7z"/>
	<path class="st8" d="M128.4,115l0.1,1c0.6-0.8,1.4-1.1,2.4-1.1c0.9,0,1.6,0.3,2,0.8s0.7,1.3,0.7,2.4v5.5h-2.3v-5.4
		c0-0.5-0.1-0.8-0.3-1c-0.2-0.2-0.6-0.3-1-0.3c-0.6,0-1.1,0.3-1.4,0.8v6h-2.3V115H128.4z"/>
	<path class="st8" d="M141.4,115l0.1,0.9c0.6-0.7,1.4-1.1,2.4-1.1c1.1,0,1.8,0.4,2.2,1.3c0.6-0.9,1.4-1.3,2.5-1.3
		c0.9,0,1.6,0.3,2,0.8c0.4,0.5,0.7,1.3,0.7,2.4v5.4h-2.3v-5.4c0-0.5-0.1-0.8-0.3-1.1s-0.5-0.3-1-0.3c-0.7,0-1.1,0.3-1.4,1l0,5.8
		h-2.3v-5.4c0-0.5-0.1-0.8-0.3-1.1c-0.2-0.2-0.5-0.3-1-0.3c-0.6,0-1.1,0.3-1.4,0.8v6h-2.3V115H141.4z"/>
	<path class="st8" d="M158,123.5c-0.1-0.2-0.2-0.5-0.2-0.8c-0.5,0.6-1.3,0.9-2.1,0.9c-0.8,0-1.5-0.2-2.1-0.7
		c-0.5-0.5-0.8-1.1-0.8-1.8c0-0.9,0.3-1.6,1-2.1s1.6-0.7,2.9-0.7h1v-0.5c0-0.4-0.1-0.7-0.3-0.9c-0.2-0.2-0.5-0.4-0.9-0.4
		c-0.4,0-0.7,0.1-0.9,0.3c-0.2,0.2-0.3,0.4-0.3,0.8H153c0-0.5,0.2-0.9,0.5-1.4c0.3-0.4,0.7-0.7,1.3-1c0.6-0.2,1.2-0.4,1.9-0.4
		c1,0,1.9,0.3,2.5,0.8c0.6,0.5,0.9,1.3,0.9,2.2v3.7c0,0.8,0.1,1.4,0.3,1.8v0.1H158z M156.2,121.9c0.3,0,0.6-0.1,0.9-0.2
		s0.5-0.3,0.6-0.6v-1.5h-0.8c-1.1,0-1.7,0.4-1.8,1.2l0,0.1c0,0.3,0.1,0.5,0.3,0.7C155.5,121.8,155.8,121.9,156.2,121.9z"/>
	<path class="st8" d="M161.4,119.2c0-1.3,0.3-2.4,0.9-3.1c0.6-0.8,1.4-1.2,2.4-1.2c0.8,0,1.5,0.3,2,0.9v-4.3h2.3v12h-2l-0.1-0.9
		c-0.6,0.7-1.3,1.1-2.2,1.1c-1,0-1.8-0.4-2.4-1.2S161.4,120.6,161.4,119.2z M163.6,119.4c0,0.8,0.1,1.4,0.4,1.8
		c0.3,0.4,0.7,0.6,1.2,0.6c0.7,0,1.2-0.3,1.5-0.9v-3.3c-0.3-0.6-0.8-0.9-1.5-0.9C164.2,116.7,163.6,117.6,163.6,119.4z"/>
	<path class="st8" d="M174.6,123.7c-1.2,0-2.2-0.4-3-1.1c-0.8-0.8-1.2-1.8-1.2-3v-0.2c0-0.8,0.2-1.6,0.5-2.3s0.8-1.2,1.4-1.5
		s1.3-0.5,2.1-0.5c1.2,0,2.1,0.4,2.7,1.1s1,1.8,1,3.1v0.9h-5.4c0.1,0.6,0.3,1,0.7,1.3s0.8,0.5,1.4,0.5c0.9,0,1.5-0.3,2-0.9l1.1,1.2
		c-0.3,0.5-0.8,0.9-1.4,1.1S175.3,123.7,174.6,123.7z M174.4,116.7c-0.4,0-0.8,0.2-1.1,0.5c-0.3,0.3-0.5,0.7-0.5,1.3h3.1v-0.2
		c0-0.5-0.1-0.9-0.4-1.2C175.2,116.8,174.8,116.7,174.4,116.7z"/>
	<path class="st8" d="M184.1,117.2c-0.3,0-0.6-0.1-0.8-0.1c-0.9,0-1.4,0.3-1.7,0.9v5.5h-2.3V115h2.1l0.1,1c0.5-0.8,1.1-1.2,1.9-1.2
		c0.2,0,0.5,0,0.7,0.1L184.1,117.2z"/>
	<path class="st8" d="M189.9,123.5c-0.1-0.2-0.2-0.5-0.2-0.8c-0.5,0.6-1.3,0.9-2.1,0.9c-0.8,0-1.5-0.2-2.1-0.7
		c-0.5-0.5-0.8-1.1-0.8-1.8c0-0.9,0.3-1.6,1-2.1s1.6-0.7,2.9-0.7h1v-0.5c0-0.4-0.1-0.7-0.3-0.9c-0.2-0.2-0.5-0.4-0.9-0.4
		c-0.4,0-0.7,0.1-0.9,0.3c-0.2,0.2-0.3,0.4-0.3,0.8h-2.3c0-0.5,0.2-0.9,0.5-1.4c0.3-0.4,0.7-0.7,1.3-1c0.6-0.2,1.2-0.4,1.9-0.4
		c1,0,1.9,0.3,2.5,0.8c0.6,0.5,0.9,1.3,0.9,2.2v3.7c0,0.8,0.1,1.4,0.3,1.8v0.1H189.9z M188,121.9c0.3,0,0.6-0.1,0.9-0.2
		s0.5-0.3,0.6-0.6v-1.5h-0.8c-1.1,0-1.7,0.4-1.8,1.2l0,0.1c0,0.3,0.1,0.5,0.3,0.7C187.4,121.8,187.7,121.9,188,121.9z"/>
	<path class="st8" d="M201,121.8c0.4,0,0.8-0.1,1-0.3c0.3-0.2,0.4-0.5,0.4-0.9h2.1c0,0.6-0.2,1.1-0.5,1.6c-0.3,0.5-0.7,0.8-1.3,1.1
		c-0.5,0.3-1.1,0.4-1.8,0.4c-1.2,0-2.2-0.4-2.9-1.2c-0.7-0.8-1-1.8-1-3.2v-0.1c0-1.3,0.3-2.3,1-3.1c0.7-0.8,1.6-1.2,2.9-1.2
		c1.1,0,1.9,0.3,2.5,0.9c0.6,0.6,1,1.4,1,2.4h-2.1c0-0.4-0.1-0.8-0.4-1.1c-0.3-0.3-0.6-0.4-1-0.4c-0.5,0-0.9,0.2-1.2,0.6
		c-0.3,0.4-0.4,1-0.4,1.9v0.2c0,0.9,0.1,1.5,0.4,1.9S200.5,121.8,201,121.8z"/>
	<path class="st8" d="M205.5,119.2c0-0.8,0.2-1.6,0.5-2.2c0.3-0.7,0.8-1.2,1.4-1.5c0.6-0.4,1.3-0.5,2.1-0.5c1.1,0,2.1,0.3,2.8,1
		c0.7,0.7,1.1,1.6,1.2,2.8l0,0.6c0,1.3-0.4,2.3-1.1,3.1c-0.7,0.8-1.7,1.2-2.9,1.2s-2.2-0.4-2.9-1.2s-1.1-1.8-1.1-3.2V119.2z
		 M207.8,119.4c0,0.8,0.2,1.4,0.5,1.8c0.3,0.4,0.7,0.6,1.3,0.6c0.5,0,1-0.2,1.3-0.6c0.3-0.4,0.5-1.1,0.5-2c0-0.8-0.2-1.4-0.5-1.8
		c-0.3-0.4-0.7-0.6-1.3-0.6c-0.6,0-1,0.2-1.3,0.6C207.9,117.8,207.8,118.5,207.8,119.4z"/>
	<path class="st8" d="M217,115l0.1,1c0.6-0.8,1.4-1.1,2.4-1.1c0.9,0,1.6,0.3,2,0.8s0.7,1.3,0.7,2.4v5.5h-2.3v-5.4
		c0-0.5-0.1-0.8-0.3-1c-0.2-0.2-0.6-0.3-1-0.3c-0.6,0-1.1,0.3-1.4,0.8v6h-2.3V115H217z"/>
	<path class="st8" d="M223.9,112.9c0-0.3,0.1-0.6,0.3-0.8s0.5-0.3,0.9-0.3c0.4,0,0.7,0.1,0.9,0.3c0.2,0.2,0.3,0.5,0.3,0.8
		c0,0.3-0.1,0.6-0.3,0.8c-0.2,0.2-0.5,0.3-0.9,0.3c-0.4,0-0.7-0.1-0.9-0.3C224,113.5,223.9,113.2,223.9,112.9z M226.3,123.5H224V115
		h2.3V123.5z"/>
	<path class="st8" d="M228.7,123.5v-6.8h-1.3V115h1.3v-0.7c0-0.9,0.3-1.7,0.8-2.2c0.5-0.5,1.3-0.8,2.3-0.8c0.3,0,0.7,0.1,1.1,0.2
		l0,1.8c-0.2,0-0.4-0.1-0.7-0.1c-0.8,0-1.3,0.4-1.3,1.2v0.7h1.7v1.7H231v6.8H228.7z"/>
	<path class="st8" d="M237.8,123.7c-1.2,0-2.2-0.4-3-1.1c-0.8-0.8-1.2-1.8-1.2-3v-0.2c0-0.8,0.2-1.6,0.5-2.3s0.8-1.2,1.4-1.5
		s1.3-0.5,2.1-0.5c1.2,0,2.1,0.4,2.7,1.1s1,1.8,1,3.1v0.9h-5.4c0.1,0.6,0.3,1,0.7,1.3s0.8,0.5,1.4,0.5c0.9,0,1.5-0.3,2-0.9l1.1,1.2
		c-0.3,0.5-0.8,0.9-1.4,1.1S238.5,123.7,237.8,123.7z M237.5,116.7c-0.4,0-0.8,0.2-1.1,0.5c-0.3,0.3-0.5,0.7-0.5,1.3h3.1v-0.2
		c0-0.5-0.1-0.9-0.4-1.2C238.3,116.8,238,116.7,237.5,116.7z"/>
	<path class="st8" d="M247.3,117.2c-0.3,0-0.6-0.1-0.8-0.1c-0.9,0-1.4,0.3-1.7,0.9v5.5h-2.3V115h2.1l0.1,1c0.5-0.8,1.1-1.2,1.9-1.2
		c0.2,0,0.5,0,0.7,0.1L247.3,117.2z"/>
	<path class="st8" d="M253,123.5c-0.1-0.2-0.2-0.5-0.2-0.8c-0.5,0.6-1.3,0.9-2.1,0.9c-0.8,0-1.5-0.2-2.1-0.7
		c-0.5-0.5-0.8-1.1-0.8-1.8c0-0.9,0.3-1.6,1-2.1s1.6-0.7,2.9-0.7h1v-0.5c0-0.4-0.1-0.7-0.3-0.9c-0.2-0.2-0.5-0.4-0.9-0.4
		c-0.4,0-0.7,0.1-0.9,0.3c-0.2,0.2-0.3,0.4-0.3,0.8H248c0-0.5,0.2-0.9,0.5-1.4c0.3-0.4,0.7-0.7,1.3-1c0.6-0.2,1.2-0.4,1.9-0.4
		c1,0,1.9,0.3,2.5,0.8c0.6,0.5,0.9,1.3,0.9,2.2v3.7c0,0.8,0.1,1.4,0.3,1.8v0.1H253z M251.1,121.9c0.3,0,0.6-0.1,0.9-0.2
		s0.5-0.3,0.6-0.6v-1.5h-0.8c-1.1,0-1.7,0.4-1.8,1.2l0,0.1c0,0.3,0.1,0.5,0.3,0.7C250.5,121.8,250.8,121.9,251.1,121.9z"/>
</g>
<g class="st7">
	<path class="st8" d="M60.8,147.5v-11.4h3.5c1,0,1.9,0.2,2.7,0.7s1.4,1.1,1.8,1.9c0.4,0.8,0.7,1.8,0.7,2.8v0.5c0,1.1-0.2,2-0.7,2.8
		c-0.4,0.8-1,1.5-1.8,1.9c-0.8,0.5-1.7,0.7-2.7,0.7H60.8z M63.2,138v7.6h1.1c0.9,0,1.6-0.3,2.1-0.9s0.7-1.5,0.7-2.6v-0.6
		c0-1.2-0.2-2-0.7-2.6c-0.5-0.6-1.2-0.9-2.1-0.9H63.2z"/>
	<path class="st8" d="M71.1,136.9c0-0.3,0.1-0.6,0.3-0.8s0.5-0.3,0.9-0.3c0.4,0,0.7,0.1,0.9,0.3c0.2,0.2,0.3,0.5,0.3,0.8
		c0,0.3-0.1,0.6-0.3,0.8c-0.2,0.2-0.5,0.3-0.9,0.3c-0.4,0-0.7-0.1-0.9-0.3C71.2,137.5,71.1,137.2,71.1,136.9z M73.4,147.5h-2.3V139
		h2.3V147.5z"/>
	<path class="st8" d="M77.4,139l0.1,0.9c0.6-0.7,1.4-1.1,2.4-1.1c1.1,0,1.8,0.4,2.2,1.3c0.6-0.9,1.4-1.3,2.5-1.3
		c0.9,0,1.6,0.3,2,0.8c0.4,0.5,0.7,1.3,0.7,2.4v5.4h-2.3v-5.4c0-0.5-0.1-0.8-0.3-1.1s-0.5-0.3-1-0.3c-0.7,0-1.1,0.3-1.4,1l0,5.8
		h-2.3v-5.4c0-0.5-0.1-0.8-0.3-1.1c-0.2-0.2-0.5-0.3-1-0.3c-0.6,0-1.1,0.3-1.4,0.8v6h-2.3V139H77.4z"/>
	<path class="st8" d="M93.1,147.7c-1.2,0-2.2-0.4-3-1.1c-0.8-0.8-1.2-1.8-1.2-3v-0.2c0-0.8,0.2-1.6,0.5-2.3s0.8-1.2,1.4-1.5
		s1.3-0.5,2.1-0.5c1.2,0,2.1,0.4,2.7,1.1s1,1.8,1,3.1v0.9h-5.4c0.1,0.6,0.3,1,0.7,1.3s0.8,0.5,1.4,0.5c0.9,0,1.5-0.3,2-0.9l1.1,1.2
		c-0.3,0.5-0.8,0.9-1.4,1.1S93.8,147.7,93.1,147.7z M92.8,140.7c-0.4,0-0.8,0.2-1.1,0.5c-0.3,0.3-0.5,0.7-0.5,1.3h3.1v-0.2
		c0-0.5-0.1-0.9-0.4-1.2C93.6,140.8,93.3,140.7,92.8,140.7z"/>
	<path class="st8" d="M99.9,139l0.1,1c0.6-0.8,1.4-1.1,2.4-1.1c0.9,0,1.6,0.3,2,0.8s0.7,1.3,0.7,2.4v5.5h-2.3v-5.4
		c0-0.5-0.1-0.8-0.3-1c-0.2-0.2-0.6-0.3-1-0.3c-0.6,0-1.1,0.3-1.4,0.8v6h-2.3V139H99.9z"/>
	<path class="st8" d="M111.3,145.2c0-0.3-0.1-0.5-0.4-0.7s-0.7-0.3-1.3-0.4c-2-0.4-3-1.3-3-2.6c0-0.8,0.3-1.4,0.9-1.9
		c0.6-0.5,1.4-0.8,2.4-0.8c1.1,0,1.9,0.3,2.6,0.8c0.6,0.5,1,1.2,1,2h-2.3c0-0.3-0.1-0.6-0.3-0.8c-0.2-0.2-0.5-0.3-1-0.3
		c-0.4,0-0.7,0.1-0.9,0.3c-0.2,0.2-0.3,0.4-0.3,0.7c0,0.2,0.1,0.5,0.4,0.6c0.2,0.2,0.6,0.3,1.2,0.4s1,0.2,1.4,0.4
		c1.2,0.4,1.8,1.2,1.8,2.3c0,0.8-0.3,1.4-1,1.9c-0.7,0.5-1.5,0.7-2.6,0.7c-0.7,0-1.3-0.1-1.9-0.4c-0.5-0.3-1-0.6-1.3-1
		s-0.5-0.9-0.5-1.4h2.1c0,0.4,0.2,0.7,0.4,0.9c0.3,0.2,0.6,0.3,1.1,0.3c0.4,0,0.8-0.1,1-0.2C111.2,145.6,111.3,145.4,111.3,145.2z"
		/>
	<path class="st8" d="M115,136.9c0-0.3,0.1-0.6,0.3-0.8s0.5-0.3,0.9-0.3c0.4,0,0.7,0.1,0.9,0.3c0.2,0.2,0.3,0.5,0.3,0.8
		c0,0.3-0.1,0.6-0.3,0.8c-0.2,0.2-0.5,0.3-0.9,0.3c-0.4,0-0.7-0.1-0.9-0.3C115.1,137.5,115,137.2,115,136.9z M117.4,147.5h-2.3V139
		h2.3V147.5z"/>
	<path class="st8" d="M118.9,143.2c0-0.8,0.2-1.6,0.5-2.2c0.3-0.7,0.8-1.2,1.4-1.5c0.6-0.4,1.3-0.5,2.1-0.5c1.1,0,2.1,0.3,2.8,1
		c0.7,0.7,1.1,1.6,1.2,2.8l0,0.6c0,1.3-0.4,2.3-1.1,3.1c-0.7,0.8-1.7,1.2-2.9,1.2s-2.2-0.4-2.9-1.2s-1.1-1.8-1.1-3.2V143.2z
		 M121.1,143.4c0,0.8,0.2,1.4,0.5,1.8c0.3,0.4,0.7,0.6,1.3,0.6c0.5,0,1-0.2,1.3-0.6c0.3-0.4,0.5-1.1,0.5-2c0-0.8-0.2-1.4-0.5-1.8
		c-0.3-0.4-0.7-0.6-1.3-0.6c-0.6,0-1,0.2-1.3,0.6C121.3,141.8,121.1,142.5,121.1,143.4z"/>
	<path class="st8" d="M130.4,139l0.1,1c0.6-0.8,1.4-1.1,2.4-1.1c0.9,0,1.6,0.3,2,0.8s0.7,1.3,0.7,2.4v5.5h-2.3v-5.4
		c0-0.5-0.1-0.8-0.3-1c-0.2-0.2-0.6-0.3-1-0.3c-0.6,0-1.1,0.3-1.4,0.8v6h-2.3V139H130.4z"/>
	<path class="st8" d="M141.1,147.7c-1.2,0-2.2-0.4-3-1.1c-0.8-0.8-1.2-1.8-1.2-3v-0.2c0-0.8,0.2-1.6,0.5-2.3s0.8-1.2,1.4-1.5
		s1.3-0.5,2.1-0.5c1.2,0,2.1,0.4,2.7,1.1s1,1.8,1,3.1v0.9h-5.4c0.1,0.6,0.3,1,0.7,1.3s0.8,0.5,1.4,0.5c0.9,0,1.5-0.3,2-0.9l1.1,1.2
		c-0.3,0.5-0.8,0.9-1.4,1.1S141.8,147.7,141.1,147.7z M140.9,140.7c-0.4,0-0.8,0.2-1.1,0.5c-0.3,0.3-0.5,0.7-0.5,1.3h3.1v-0.2
		c0-0.5-0.1-0.9-0.4-1.2C141.7,140.8,141.4,140.7,140.9,140.7z"/>
	<path class="st8" d="M150.5,145.2c0-0.3-0.1-0.5-0.4-0.7s-0.7-0.3-1.3-0.4c-2-0.4-3-1.3-3-2.6c0-0.8,0.3-1.4,0.9-1.9
		c0.6-0.5,1.4-0.8,2.4-0.8c1.1,0,1.9,0.3,2.6,0.8c0.6,0.5,1,1.2,1,2h-2.3c0-0.3-0.1-0.6-0.3-0.8c-0.2-0.2-0.5-0.3-1-0.3
		c-0.4,0-0.7,0.1-0.9,0.3c-0.2,0.2-0.3,0.4-0.3,0.7c0,0.2,0.1,0.5,0.4,0.6c0.2,0.2,0.6,0.3,1.2,0.4s1,0.2,1.4,0.4
		c1.2,0.4,1.8,1.2,1.8,2.3c0,0.8-0.3,1.4-1,1.9c-0.7,0.5-1.5,0.7-2.6,0.7c-0.7,0-1.3-0.1-1.9-0.4c-0.5-0.3-1-0.6-1.3-1
		s-0.5-0.9-0.5-1.4h2.1c0,0.4,0.2,0.7,0.4,0.9c0.3,0.2,0.6,0.3,1.1,0.3c0.4,0,0.8-0.1,1-0.2C150.4,145.6,150.5,145.4,150.5,145.2z"
		/>
	<path class="st8" d="M162,147.7c-1.2,0-2.2-0.4-3-1.1c-0.8-0.8-1.2-1.8-1.2-3v-0.2c0-0.8,0.2-1.6,0.5-2.3s0.8-1.2,1.4-1.5
		s1.3-0.5,2.1-0.5c1.2,0,2.1,0.4,2.7,1.1s1,1.8,1,3.1v0.9h-5.4c0.1,0.6,0.3,1,0.7,1.3s0.8,0.5,1.4,0.5c0.9,0,1.5-0.3,2-0.9l1.1,1.2
		c-0.3,0.5-0.8,0.9-1.4,1.1S162.7,147.7,162,147.7z M161.7,140.7c-0.4,0-0.8,0.2-1.1,0.5c-0.3,0.3-0.5,0.7-0.5,1.3h3.1v-0.2
		c0-0.5-0.1-0.9-0.4-1.2C162.6,140.8,162.2,140.7,161.7,140.7z"/>
	<path class="st8" d="M170,141.6l1.4-2.5h2.4l-2.4,4.1l2.5,4.3h-2.4l-1.5-2.7l-1.5,2.7h-2.4l2.5-4.3l-2.4-4.1h2.4L170,141.6z"/>
	<path class="st8" d="M177.6,137v2.1h1.4v1.7h-1.4v4.2c0,0.3,0.1,0.5,0.2,0.7c0.1,0.1,0.3,0.2,0.7,0.2c0.2,0,0.5,0,0.7-0.1v1.7
		c-0.4,0.1-0.9,0.2-1.4,0.2c-1.6,0-2.4-0.8-2.4-2.4v-4.6h-1.2V139h1.2V137H177.6z"/>
	<path class="st8" d="M184.2,147.7c-1.2,0-2.2-0.4-3-1.1c-0.8-0.8-1.2-1.8-1.2-3v-0.2c0-0.8,0.2-1.6,0.5-2.3s0.8-1.2,1.4-1.5
		s1.3-0.5,2.1-0.5c1.2,0,2.1,0.4,2.7,1.1s1,1.8,1,3.1v0.9h-5.4c0.1,0.6,0.3,1,0.7,1.3s0.8,0.5,1.4,0.5c0.9,0,1.5-0.3,2-0.9l1.1,1.2
		c-0.3,0.5-0.8,0.9-1.4,1.1S184.9,147.7,184.2,147.7z M183.9,140.7c-0.4,0-0.8,0.2-1.1,0.5c-0.3,0.3-0.5,0.7-0.5,1.3h3.1v-0.2
		c0-0.5-0.1-0.9-0.4-1.2C184.8,140.8,184.4,140.7,183.9,140.7z"/>
	<path class="st8" d="M193.7,141.2c-0.3,0-0.6-0.1-0.8-0.1c-0.9,0-1.4,0.3-1.7,0.9v5.5h-2.3V139h2.1l0.1,1c0.5-0.8,1.1-1.2,1.9-1.2
		c0.2,0,0.5,0,0.7,0.1L193.7,141.2z"/>
	<path class="st8" d="M196.9,139l0.1,1c0.6-0.8,1.4-1.1,2.4-1.1c0.9,0,1.6,0.3,2,0.8s0.7,1.3,0.7,2.4v5.5h-2.3v-5.4
		c0-0.5-0.1-0.8-0.3-1c-0.2-0.2-0.6-0.3-1-0.3c-0.6,0-1.1,0.3-1.4,0.8v6h-2.3V139H196.9z"/>
	<path class="st8" d="M208.6,147.5c-0.1-0.2-0.2-0.5-0.2-0.8c-0.5,0.6-1.3,0.9-2.1,0.9c-0.8,0-1.5-0.2-2.1-0.7
		c-0.5-0.5-0.8-1.1-0.8-1.8c0-0.9,0.3-1.6,1-2.1s1.6-0.7,2.9-0.7h1v-0.5c0-0.4-0.1-0.7-0.3-0.9c-0.2-0.2-0.5-0.4-0.9-0.4
		c-0.4,0-0.7,0.1-0.9,0.3c-0.2,0.2-0.3,0.4-0.3,0.8h-2.3c0-0.5,0.2-0.9,0.5-1.4c0.3-0.4,0.7-0.7,1.3-1c0.6-0.2,1.2-0.4,1.9-0.4
		c1,0,1.9,0.3,2.5,0.8c0.6,0.5,0.9,1.3,0.9,2.2v3.7c0,0.8,0.1,1.4,0.3,1.8v0.1H208.6z M206.8,145.9c0.3,0,0.6-0.1,0.9-0.2
		s0.5-0.3,0.6-0.6v-1.5h-0.8c-1.1,0-1.7,0.4-1.8,1.2l0,0.1c0,0.3,0.1,0.5,0.3,0.7C206.2,145.8,206.4,145.9,206.8,145.9z"/>
	<path class="st8" d="M216.9,145.2c0-0.3-0.1-0.5-0.4-0.7s-0.7-0.3-1.3-0.4c-2-0.4-3-1.3-3-2.6c0-0.8,0.3-1.4,0.9-1.9
		c0.6-0.5,1.4-0.8,2.4-0.8c1.1,0,1.9,0.3,2.6,0.8c0.6,0.5,1,1.2,1,2h-2.3c0-0.3-0.1-0.6-0.3-0.8c-0.2-0.2-0.5-0.3-1-0.3
		c-0.4,0-0.7,0.1-0.9,0.3c-0.2,0.2-0.3,0.4-0.3,0.7c0,0.2,0.1,0.5,0.4,0.6c0.2,0.2,0.6,0.3,1.2,0.4s1,0.2,1.4,0.4
		c1.2,0.4,1.8,1.2,1.8,2.3c0,0.8-0.3,1.4-1,1.9c-0.7,0.5-1.5,0.7-2.6,0.7c-0.7,0-1.3-0.1-1.9-0.4c-0.5-0.3-1-0.6-1.3-1
		s-0.5-0.9-0.5-1.4h2.1c0,0.4,0.2,0.7,0.4,0.9c0.3,0.2,0.6,0.3,1.1,0.3c0.4,0,0.8-0.1,1-0.2C216.8,145.6,216.9,145.4,216.9,145.2z"
		/>
	<path class="st8" d="M220.7,140c0-0.4,0.1-0.7,0.4-0.9s0.5-0.3,0.9-0.3c0.4,0,0.7,0.1,0.9,0.3s0.4,0.5,0.4,0.9
		c0,0.4-0.1,0.6-0.4,0.9c-0.2,0.2-0.5,0.3-0.9,0.3c-0.4,0-0.7-0.1-0.9-0.3C220.8,140.6,220.7,140.3,220.7,140z M220.7,146.4
		c0-0.4,0.1-0.7,0.4-0.9s0.5-0.3,0.9-0.3c0.4,0,0.7,0.1,0.9,0.3s0.4,0.5,0.4,0.9c0,0.4-0.1,0.6-0.4,0.9c-0.2,0.2-0.5,0.3-0.9,0.3
		c-0.4,0-0.7-0.1-0.9-0.3C220.8,147,220.7,146.7,220.7,146.4z"/>
</g>
<g class="st7">
	<path class="st8" d="M48.5,170.3h5.4v1.2H47v-11.4h1.5V170.3z"/>
	<path class="st8" d="M60.6,171.5c-0.1-0.2-0.2-0.5-0.2-0.9c-0.7,0.7-1.5,1-2.4,1c-0.8,0-1.5-0.2-2.1-0.7c-0.5-0.5-0.8-1.1-0.8-1.8
		c0-0.9,0.3-1.6,1-2.1c0.7-0.5,1.6-0.7,2.8-0.7h1.4v-0.7c0-0.5-0.2-0.9-0.5-1.2c-0.3-0.3-0.7-0.4-1.3-0.4c-0.5,0-0.9,0.1-1.3,0.4
		c-0.3,0.3-0.5,0.6-0.5,0.9h-1.5c0-0.4,0.1-0.8,0.4-1.2c0.3-0.4,0.7-0.7,1.2-0.9c0.5-0.2,1.1-0.3,1.7-0.3c1,0,1.7,0.2,2.3,0.7
		c0.6,0.5,0.8,1.2,0.9,2v3.9c0,0.8,0.1,1.4,0.3,1.9v0.1H60.6z M58.2,170.4c0.5,0,0.9-0.1,1.3-0.4s0.7-0.5,0.9-0.9v-1.7h-1.1
		c-1.8,0-2.7,0.5-2.7,1.6c0,0.5,0.2,0.8,0.5,1.1C57.3,170.3,57.7,170.4,58.2,170.4z"/>
	<path class="st8" d="M68.2,164.3c-0.2,0-0.5-0.1-0.7-0.1c-0.9,0-1.6,0.4-1.9,1.2v6h-1.4V163h1.4l0,1c0.5-0.8,1.1-1.1,2-1.1
		c0.3,0,0.5,0,0.6,0.1V164.3z"/>
	<path class="st8" d="M69.1,167.2c0-1.3,0.3-2.4,0.9-3.1s1.4-1.2,2.4-1.2c1,0,1.8,0.4,2.4,1.1L75,163h1.3v8.2c0,1.1-0.3,2-1,2.6
		s-1.5,0.9-2.6,0.9c-0.6,0-1.2-0.1-1.8-0.4c-0.6-0.3-1-0.6-1.3-1.1l0.8-0.9c0.6,0.8,1.4,1.1,2.3,1.1c0.7,0,1.3-0.2,1.6-0.6
		c0.4-0.4,0.6-1,0.6-1.7v-0.7c-0.6,0.7-1.4,1-2.4,1c-1,0-1.8-0.4-2.4-1.2C69.4,169.7,69.1,168.6,69.1,167.2z M70.6,167.4
		c0,1,0.2,1.7,0.6,2.2s0.9,0.8,1.6,0.8c0.9,0,1.6-0.4,2-1.2v-3.9c-0.4-0.8-1.1-1.2-2-1.2c-0.7,0-1.3,0.3-1.6,0.8
		C70.8,165.5,70.6,166.3,70.6,167.4z"/>
	<path class="st8" d="M78.1,167.2c0-0.8,0.2-1.6,0.5-2.2c0.3-0.7,0.8-1.2,1.4-1.5c0.6-0.4,1.2-0.5,2-0.5c1.2,0,2.1,0.4,2.8,1.2
		s1.1,1.9,1.1,3.2v0.1c0,0.8-0.2,1.6-0.5,2.2c-0.3,0.7-0.8,1.2-1.4,1.5s-1.3,0.5-2,0.5c-1.1,0-2.1-0.4-2.8-1.2s-1.1-1.9-1.1-3.2
		V167.2z M79.5,167.4c0,0.9,0.2,1.7,0.7,2.3c0.4,0.6,1,0.9,1.7,0.9c0.7,0,1.3-0.3,1.8-0.9c0.4-0.6,0.6-1.4,0.6-2.4
		c0-0.9-0.2-1.7-0.7-2.3c-0.4-0.6-1-0.9-1.8-0.9c-0.7,0-1.3,0.3-1.7,0.9S79.5,166.3,79.5,167.4z"/>
	<path class="st8" d="M87.5,170.7c0-0.2,0.1-0.5,0.2-0.6s0.4-0.2,0.7-0.2s0.5,0.1,0.7,0.2c0.2,0.2,0.2,0.4,0.2,0.6
		c0,0.2-0.1,0.4-0.2,0.6c-0.2,0.2-0.4,0.2-0.7,0.2s-0.5-0.1-0.7-0.2S87.5,171,87.5,170.7z M87.5,163.8c0-0.2,0.1-0.5,0.2-0.6
		s0.4-0.2,0.7-0.2s0.5,0.1,0.7,0.2c0.2,0.2,0.2,0.4,0.2,0.6c0,0.2-0.1,0.4-0.2,0.6c-0.2,0.2-0.4,0.2-0.7,0.2s-0.5-0.1-0.7-0.2
		S87.5,164.1,87.5,163.8z"/>
	<path class="st8" d="M100,171.5h-1.5v-9.6l-2.9,1.1v-1.3l4.1-1.6h0.2V171.5z"/>
	<path class="st8" d="M111.7,171.5h-7.5v-1l3.9-4.4c0.6-0.7,1-1.2,1.2-1.6c0.2-0.4,0.3-0.8,0.3-1.3c0-0.6-0.2-1.1-0.5-1.5
		s-0.8-0.6-1.4-0.6c-0.7,0-1.3,0.2-1.7,0.6s-0.6,1-0.6,1.7H104c0-1,0.3-1.9,1-2.5c0.7-0.6,1.6-1,2.7-1c1.1,0,1.9,0.3,2.5,0.8
		c0.6,0.6,0.9,1.3,0.9,2.2c0,1.1-0.7,2.5-2.1,4l-3,3.3h5.7V171.5z"/>
	<path class="st8" d="M120.4,166.6c0,1.7-0.3,3-0.9,3.8s-1.5,1.2-2.7,1.2c-1.2,0-2.1-0.4-2.7-1.2c-0.6-0.8-0.9-2-0.9-3.6v-1.9
		c0-1.7,0.3-2.9,0.9-3.7s1.5-1.2,2.7-1.2c1.2,0,2.1,0.4,2.7,1.2s0.9,2,0.9,3.6V166.6z M118.9,164.7c0-1.2-0.2-2.1-0.5-2.7
		s-0.9-0.8-1.6-0.8c-0.7,0-1.3,0.3-1.6,0.8c-0.3,0.6-0.5,1.4-0.5,2.6v2.3c0,1.2,0.2,2.1,0.5,2.7c0.4,0.6,0.9,0.9,1.6,0.9
		c0.7,0,1.2-0.3,1.6-0.8c0.3-0.6,0.5-1.4,0.5-2.6V164.7z"/>
	<path class="st8" d="M129.4,166.6c0,1.7-0.3,3-0.9,3.8s-1.5,1.2-2.7,1.2c-1.2,0-2.1-0.4-2.7-1.2c-0.6-0.8-0.9-2-0.9-3.6v-1.9
		c0-1.7,0.3-2.9,0.9-3.7s1.5-1.2,2.7-1.2c1.2,0,2.1,0.4,2.7,1.2s0.9,2,0.9,3.6V166.6z M127.9,164.7c0-1.2-0.2-2.1-0.5-2.7
		s-0.9-0.8-1.6-0.8c-0.7,0-1.3,0.3-1.6,0.8c-0.3,0.6-0.5,1.4-0.5,2.6v2.3c0,1.2,0.2,2.1,0.5,2.7c0.4,0.6,0.9,0.9,1.6,0.9
		c0.7,0,1.2-0.3,1.6-0.8c0.3-0.6,0.5-1.4,0.5-2.6V164.7z"/>
	<path class="st8" d="M136.7,163l0,0.9c0.6-0.7,1.5-1.1,2.5-1.1c1.2,0,2,0.5,2.4,1.4c0.3-0.4,0.6-0.7,1.1-1c0.5-0.2,1-0.4,1.6-0.4
		c1.9,0,2.8,1,2.8,2.9v5.7h-1.4v-5.6c0-0.6-0.1-1.1-0.4-1.4c-0.3-0.3-0.7-0.4-1.4-0.4c-0.5,0-1,0.2-1.3,0.5
		c-0.4,0.3-0.6,0.8-0.6,1.3v5.6h-1.5V166c0-1.2-0.6-1.8-1.8-1.8c-0.9,0-1.6,0.4-1.9,1.2v6.2h-1.4V163H136.7z"/>
	<path class="st8" d="M150.7,163l0,0.9c0.6-0.7,1.5-1.1,2.5-1.1c1.2,0,2,0.5,2.4,1.4c0.3-0.4,0.6-0.7,1.1-1c0.5-0.2,1-0.4,1.6-0.4
		c1.9,0,2.8,1,2.8,2.9v5.7h-1.4v-5.6c0-0.6-0.1-1.1-0.4-1.4c-0.3-0.3-0.7-0.4-1.4-0.4c-0.5,0-1,0.2-1.3,0.5
		c-0.4,0.3-0.6,0.8-0.6,1.3v5.6h-1.5V166c0-1.2-0.6-1.8-1.8-1.8c-0.9,0-1.6,0.4-1.9,1.2v6.2h-1.4V163H150.7z"/>
	<path class="st8" d="M167.3,166.9c0-1.2,0.2-2.3,0.5-3.4c0.3-1.1,0.8-2.1,1.4-3s1.3-1.5,1.9-1.9l0.3,1c-0.8,0.6-1.4,1.5-1.9,2.7
		c-0.5,1.2-0.8,2.5-0.8,4l0,0.7c0,2,0.4,3.8,1.1,5.2c0.4,0.9,1,1.6,1.6,2.1l-0.3,0.9c-0.7-0.4-1.4-1-2-1.9
		C167.9,171.5,167.3,169.3,167.3,166.9z"/>
	<path class="st8" d="M176.9,165.4h3.2v1.4h-3.2v3.6h-1.5v-3.6h-3.2v-1.4h3.2v-3.3h1.5V165.4z"/>
	<path class="st8" d="M182.2,172.5h-1.2l4.8-12.4h1.2L182.2,172.5z"/>
	<path class="st8" d="M191.5,167.3h-3.8v-1.2h3.8V167.3z"/>
	<path class="st8" d="M198.8,165.1h1.1c0.7,0,1.2-0.2,1.6-0.5s0.6-0.8,0.6-1.4c0-1.3-0.7-2-2-2c-0.6,0-1.1,0.2-1.5,0.5
		c-0.4,0.4-0.6,0.8-0.6,1.4h-1.4c0-0.9,0.3-1.6,1-2.2c0.7-0.6,1.5-0.9,2.5-0.9c1.1,0,1.9,0.3,2.5,0.9s0.9,1.4,0.9,2.4
		c0,0.5-0.2,1-0.5,1.4s-0.8,0.8-1.3,1c0.6,0.2,1.1,0.5,1.4,1c0.3,0.5,0.5,1,0.5,1.7c0,1-0.3,1.8-1,2.4c-0.7,0.6-1.5,0.9-2.6,0.9
		c-1.1,0-1.9-0.3-2.6-0.9c-0.7-0.6-1-1.3-1-2.3h1.5c0,0.6,0.2,1.1,0.6,1.4s0.9,0.5,1.6,0.5c0.7,0,1.2-0.2,1.6-0.5
		c0.4-0.4,0.6-0.9,0.6-1.6c0-0.7-0.2-1.2-0.6-1.5s-1-0.5-1.8-0.5h-1.1V165.1z"/>
	<path class="st8" d="M207.2,163l0,0.9c0.6-0.7,1.5-1.1,2.5-1.1c1.2,0,2,0.5,2.4,1.4c0.3-0.4,0.6-0.7,1.1-1c0.5-0.2,1-0.4,1.6-0.4
		c1.9,0,2.8,1,2.8,2.9v5.7h-1.4v-5.6c0-0.6-0.1-1.1-0.4-1.4c-0.3-0.3-0.7-0.4-1.4-0.4c-0.5,0-1,0.2-1.3,0.5
		c-0.4,0.3-0.6,0.8-0.6,1.3v5.6H211V166c0-1.2-0.6-1.8-1.8-1.8c-0.9,0-1.6,0.4-1.9,1.2v6.2h-1.4V163H207.2z"/>
	<path class="st8" d="M221.2,163l0,0.9c0.6-0.7,1.5-1.1,2.5-1.1c1.2,0,2,0.5,2.4,1.4c0.3-0.4,0.6-0.7,1.1-1c0.5-0.2,1-0.4,1.6-0.4
		c1.9,0,2.8,1,2.8,2.9v5.7h-1.4v-5.6c0-0.6-0.1-1.1-0.4-1.4c-0.3-0.3-0.7-0.4-1.4-0.4c-0.5,0-1,0.2-1.3,0.5
		c-0.4,0.3-0.6,0.8-0.6,1.3v5.6H225V166c0-1.2-0.6-1.8-1.8-1.8c-0.9,0-1.6,0.4-1.9,1.2v6.2h-1.4V163H221.2z"/>
	<path class="st8" d="M237.2,167c0,1.2-0.2,2.3-0.5,3.3s-0.8,2-1.4,2.9c-0.6,0.9-1.3,1.5-2,1.9l-0.3-0.9c0.8-0.6,1.4-1.6,1.9-2.9
		c0.5-1.3,0.7-2.7,0.7-4.3v-0.2c0-1.1-0.1-2.1-0.3-3.1c-0.2-0.9-0.5-1.8-1-2.5c-0.4-0.7-0.9-1.3-1.4-1.7l0.3-0.9
		c0.7,0.4,1.3,1,2,1.9c0.6,0.9,1.1,1.9,1.4,2.9C237,164.6,237.2,165.7,237.2,167z"/>
</g>
<g class="st7">
	<path class="st8" d="M50.9,192.5h-4.8l-1.1,3h-1.5l4.3-11.4h1.3l4.4,11.4H52L50.9,192.5z M46.6,191.3h3.9l-1.9-5.3L46.6,191.3z"/>
	<path class="st8" d="M56.2,187l0,1.1c0.6-0.8,1.5-1.2,2.5-1.2c1.8,0,2.7,1,2.7,3v5.6H60v-5.6c0-0.6-0.1-1.1-0.4-1.4
		s-0.7-0.4-1.3-0.4c-0.5,0-0.9,0.1-1.2,0.4c-0.4,0.2-0.6,0.6-0.8,1v6h-1.4V187H56.2z"/>
	<path class="st8" d="M67,194.5c0.5,0,1-0.2,1.4-0.5c0.4-0.3,0.6-0.7,0.6-1.2h1.4c0,0.5-0.2,0.9-0.5,1.4c-0.3,0.4-0.7,0.8-1.2,1
		c-0.5,0.3-1.1,0.4-1.6,0.4c-1.2,0-2.1-0.4-2.7-1.2s-1-1.8-1-3.2v-0.2c0-0.8,0.2-1.6,0.5-2.2c0.3-0.6,0.7-1.1,1.3-1.5
		c0.6-0.4,1.2-0.5,2-0.5c0.9,0,1.7,0.3,2.4,0.9c0.6,0.6,1,1.3,1,2.2H69c0-0.5-0.2-1-0.6-1.3c-0.4-0.4-0.8-0.5-1.4-0.5
		c-0.7,0-1.3,0.3-1.7,0.8c-0.4,0.5-0.6,1.3-0.6,2.3v0.3c0,1,0.2,1.7,0.6,2.2C65.7,194.2,66.3,194.5,67,194.5z"/>
	<path class="st8" d="M73.5,188.1c0.6-0.8,1.5-1.2,2.5-1.2c1.8,0,2.7,1,2.7,3v5.6h-1.4v-5.6c0-0.6-0.1-1.1-0.4-1.4s-0.7-0.4-1.3-0.4
		c-0.5,0-0.9,0.1-1.2,0.4c-0.4,0.2-0.6,0.6-0.8,1v6H72v-12h1.4V188.1z"/>
	<path class="st8" d="M80.5,191.2c0-0.8,0.2-1.6,0.5-2.2c0.3-0.7,0.8-1.2,1.4-1.5c0.6-0.4,1.2-0.5,2-0.5c1.2,0,2.1,0.4,2.8,1.2
		s1.1,1.9,1.1,3.2v0.1c0,0.8-0.2,1.6-0.5,2.2c-0.3,0.7-0.8,1.2-1.4,1.5s-1.3,0.5-2,0.5c-1.1,0-2.1-0.4-2.8-1.2s-1.1-1.9-1.1-3.2
		V191.2z M81.9,191.4c0,0.9,0.2,1.7,0.7,2.3c0.4,0.6,1,0.9,1.7,0.9c0.7,0,1.3-0.3,1.8-0.9c0.4-0.6,0.6-1.4,0.6-2.4
		c0-0.9-0.2-1.7-0.7-2.3c-0.4-0.6-1-0.9-1.8-0.9c-0.7,0-1.3,0.3-1.7,0.9S81.9,190.3,81.9,191.4z"/>
	<path class="st8" d="M89.9,194.7c0-0.2,0.1-0.5,0.2-0.6s0.4-0.2,0.7-0.2s0.5,0.1,0.7,0.2c0.2,0.2,0.2,0.4,0.2,0.6
		c0,0.2-0.1,0.4-0.2,0.6c-0.2,0.2-0.4,0.2-0.7,0.2s-0.5-0.1-0.7-0.2S89.9,195,89.9,194.7z M89.9,187.8c0-0.2,0.1-0.5,0.2-0.6
		s0.4-0.2,0.7-0.2s0.5,0.1,0.7,0.2c0.2,0.2,0.2,0.4,0.2,0.6c0,0.2-0.1,0.4-0.2,0.6c-0.2,0.2-0.4,0.2-0.7,0.2s-0.5-0.1-0.7-0.2
		S89.9,188.1,89.9,187.8z"/>
	<path class="st8" d="M102.4,195.5h-1.5v-9.6l-2.9,1.1v-1.3l4.1-1.6h0.2V195.5z"/>
	<path class="st8" d="M113.8,190.6c0,1.7-0.3,3-0.9,3.8s-1.5,1.2-2.7,1.2c-1.2,0-2.1-0.4-2.7-1.2c-0.6-0.8-0.9-2-0.9-3.6v-1.9
		c0-1.7,0.3-2.9,0.9-3.7s1.5-1.2,2.7-1.2c1.2,0,2.1,0.4,2.7,1.2s0.9,2,0.9,3.6V190.6z M112.3,188.7c0-1.2-0.2-2.1-0.5-2.7
		s-0.9-0.8-1.6-0.8c-0.7,0-1.3,0.3-1.6,0.8c-0.3,0.6-0.5,1.4-0.5,2.6v2.3c0,1.2,0.2,2.1,0.5,2.7c0.4,0.6,0.9,0.9,1.6,0.9
		c0.7,0,1.2-0.3,1.6-0.8c0.3-0.6,0.5-1.4,0.5-2.6V188.7z"/>
	<path class="st8" d="M122.7,190.6c0,1.7-0.3,3-0.9,3.8s-1.5,1.2-2.7,1.2c-1.2,0-2.1-0.4-2.7-1.2c-0.6-0.8-0.9-2-0.9-3.6v-1.9
		c0-1.7,0.3-2.9,0.9-3.7s1.5-1.2,2.7-1.2c1.2,0,2.1,0.4,2.7,1.2s0.9,2,0.9,3.6V190.6z M121.3,188.7c0-1.2-0.2-2.1-0.5-2.7
		s-0.9-0.8-1.6-0.8c-0.7,0-1.3,0.3-1.6,0.8c-0.3,0.6-0.5,1.4-0.5,2.6v2.3c0,1.2,0.2,2.1,0.5,2.7c0.4,0.6,0.9,0.9,1.6,0.9
		c0.7,0,1.2-0.3,1.6-0.8c0.3-0.6,0.5-1.4,0.5-2.6V188.7z"/>
	<path class="st8" d="M131.7,190.6c0,1.7-0.3,3-0.9,3.8s-1.5,1.2-2.7,1.2c-1.2,0-2.1-0.4-2.7-1.2c-0.6-0.8-0.9-2-0.9-3.6v-1.9
		c0-1.7,0.3-2.9,0.9-3.7s1.5-1.2,2.7-1.2c1.2,0,2.1,0.4,2.7,1.2s0.9,2,0.9,3.6V190.6z M130.3,188.7c0-1.2-0.2-2.1-0.5-2.7
		s-0.9-0.8-1.6-0.8c-0.7,0-1.3,0.3-1.6,0.8c-0.3,0.6-0.5,1.4-0.5,2.6v2.3c0,1.2,0.2,2.1,0.5,2.7c0.4,0.6,0.9,0.9,1.6,0.9
		c0.7,0,1.2-0.3,1.6-0.8c0.3-0.6,0.5-1.4,0.5-2.6V188.7z"/>
	<path class="st8" d="M139.1,187l0,0.9c0.6-0.7,1.5-1.1,2.5-1.1c1.2,0,2,0.5,2.4,1.4c0.3-0.4,0.6-0.7,1.1-1c0.5-0.2,1-0.4,1.6-0.4
		c1.9,0,2.8,1,2.8,2.9v5.7h-1.4v-5.6c0-0.6-0.1-1.1-0.4-1.4c-0.3-0.3-0.7-0.4-1.4-0.4c-0.5,0-1,0.2-1.3,0.5
		c-0.4,0.3-0.6,0.8-0.6,1.3v5.6h-1.5V190c0-1.2-0.6-1.8-1.8-1.8c-0.9,0-1.6,0.4-1.9,1.2v6.2h-1.4V187H139.1z"/>
	<path class="st8" d="M153.1,187l0,0.9c0.6-0.7,1.5-1.1,2.5-1.1c1.2,0,2,0.5,2.4,1.4c0.3-0.4,0.6-0.7,1.1-1c0.5-0.2,1-0.4,1.6-0.4
		c1.9,0,2.8,1,2.8,2.9v5.7h-1.4v-5.6c0-0.6-0.1-1.1-0.4-1.4c-0.3-0.3-0.7-0.4-1.4-0.4c-0.5,0-1,0.2-1.3,0.5
		c-0.4,0.3-0.6,0.8-0.6,1.3v5.6h-1.5V190c0-1.2-0.6-1.8-1.8-1.8c-0.9,0-1.6,0.4-1.9,1.2v6.2h-1.4V187H153.1z"/>
	<path class="st8" d="M169.6,190.9c0-1.2,0.2-2.3,0.5-3.4c0.3-1.1,0.8-2.1,1.4-3s1.3-1.5,1.9-1.9l0.3,1c-0.8,0.6-1.4,1.5-1.9,2.7
		c-0.5,1.2-0.8,2.5-0.8,4l0,0.7c0,2,0.4,3.8,1.1,5.2c0.4,0.9,1,1.6,1.6,2.1l-0.3,0.9c-0.7-0.4-1.4-1-2-1.9
		C170.3,195.5,169.6,193.3,169.6,190.9z"/>
	<path class="st8" d="M179.3,189.4h3.2v1.4h-3.2v3.6h-1.5v-3.6h-3.2v-1.4h3.2v-3.3h1.5V189.4z"/>
	<path class="st8" d="M184.5,196.5h-1.2l4.8-12.4h1.2L184.5,196.5z"/>
	<path class="st8" d="M193.8,191.3H190v-1.2h3.8V191.3z"/>
	<path class="st8" d="M201.2,189.1h1.1c0.7,0,1.2-0.2,1.6-0.5s0.6-0.8,0.6-1.4c0-1.3-0.7-2-2-2c-0.6,0-1.1,0.2-1.5,0.5
		c-0.4,0.4-0.6,0.8-0.6,1.4H199c0-0.9,0.3-1.6,1-2.2c0.7-0.6,1.5-0.9,2.5-0.9c1.1,0,1.9,0.3,2.5,0.9s0.9,1.4,0.9,2.4
		c0,0.5-0.2,1-0.5,1.4s-0.8,0.8-1.3,1c0.6,0.2,1.1,0.5,1.4,1c0.3,0.5,0.5,1,0.5,1.7c0,1-0.3,1.8-1,2.4c-0.7,0.6-1.5,0.9-2.6,0.9
		c-1.1,0-1.9-0.3-2.6-0.9c-0.7-0.6-1-1.3-1-2.3h1.5c0,0.6,0.2,1.1,0.6,1.4s0.9,0.5,1.6,0.5c0.7,0,1.2-0.2,1.6-0.5
		c0.4-0.4,0.6-0.9,0.6-1.6c0-0.7-0.2-1.2-0.6-1.5s-1-0.5-1.8-0.5h-1.1V189.1z"/>
	<path class="st8" d="M209.6,187l0,0.9c0.6-0.7,1.5-1.1,2.5-1.1c1.2,0,2,0.5,2.4,1.4c0.3-0.4,0.6-0.7,1.1-1c0.5-0.2,1-0.4,1.6-0.4
		c1.9,0,2.8,1,2.8,2.9v5.7h-1.4v-5.6c0-0.6-0.1-1.1-0.4-1.4c-0.3-0.3-0.7-0.4-1.4-0.4c-0.5,0-1,0.2-1.3,0.5
		c-0.4,0.3-0.6,0.8-0.6,1.3v5.6h-1.5V190c0-1.2-0.6-1.8-1.8-1.8c-0.9,0-1.6,0.4-1.9,1.2v6.2h-1.4V187H209.6z"/>
	<path class="st8" d="M223.6,187l0,0.9c0.6-0.7,1.5-1.1,2.5-1.1c1.2,0,2,0.5,2.4,1.4c0.3-0.4,0.6-0.7,1.1-1c0.5-0.2,1-0.4,1.6-0.4
		c1.9,0,2.8,1,2.8,2.9v5.7h-1.4v-5.6c0-0.6-0.1-1.1-0.4-1.4c-0.3-0.3-0.7-0.4-1.4-0.4c-0.5,0-1,0.2-1.3,0.5
		c-0.4,0.3-0.6,0.8-0.6,1.3v5.6h-1.5V190c0-1.2-0.6-1.8-1.8-1.8c-0.9,0-1.6,0.4-1.9,1.2v6.2h-1.4V187H223.6z"/>
	<path class="st8" d="M239.6,191c0,1.2-0.2,2.3-0.5,3.3s-0.8,2-1.4,2.9c-0.6,0.9-1.3,1.5-2,1.9l-0.3-0.9c0.8-0.6,1.4-1.6,1.9-2.9
		c0.5-1.3,0.7-2.7,0.7-4.3v-0.2c0-1.1-0.1-2.1-0.3-3.1c-0.2-0.9-0.5-1.8-1-2.5c-0.4-0.7-0.9-1.3-1.4-1.7l0.3-0.9
		c0.7,0.4,1.3,1,2,1.9c0.6,0.9,1.1,1.9,1.4,2.9C239.4,188.6,239.6,189.7,239.6,191z"/>
</g>
<g class="st7">
	<path class="st8" d="M57.1,216.5h-4.8l-1.1,3h-1.5l4.3-11.4h1.3l4.4,11.4h-1.5L57.1,216.5z M52.8,215.3h3.9l-1.9-5.3L52.8,215.3z"
		/>
	<path class="st8" d="M62.6,219.5h-1.4v-12h1.4V219.5z"/>
	<path class="st8" d="M66.9,209v2h1.6v1.1h-1.6v5.2c0,0.3,0.1,0.6,0.2,0.8c0.1,0.2,0.4,0.3,0.7,0.3c0.2,0,0.4,0,0.7-0.1v1.2
		c-0.4,0.1-0.8,0.2-1.1,0.2c-0.6,0-1.1-0.2-1.5-0.6s-0.5-0.9-0.5-1.7v-5.2h-1.5V211h1.5v-2H66.9z"/>
	<path class="st8" d="M75.3,218.7c-0.6,0.7-1.4,1-2.5,1c-0.9,0-1.6-0.3-2.1-0.8c-0.5-0.5-0.7-1.3-0.7-2.3V211h1.4v5.5
		c0,1.3,0.5,1.9,1.6,1.9c1.1,0,1.8-0.4,2.2-1.2V211h1.4v8.5h-1.4L75.3,218.7z"/>
	<path class="st8" d="M83,212.3c-0.2,0-0.5-0.1-0.7-0.1c-0.9,0-1.6,0.4-1.9,1.2v6h-1.4V211h1.4l0,1c0.5-0.8,1.1-1.1,2-1.1
		c0.3,0,0.5,0,0.6,0.1V212.3z"/>
	<path class="st8" d="M89.3,219.5c-0.1-0.2-0.2-0.5-0.2-0.9c-0.7,0.7-1.5,1-2.4,1c-0.8,0-1.5-0.2-2.1-0.7c-0.5-0.5-0.8-1.1-0.8-1.8
		c0-0.9,0.3-1.6,1-2.1c0.7-0.5,1.6-0.7,2.8-0.7H89v-0.7c0-0.5-0.2-0.9-0.5-1.2c-0.3-0.3-0.7-0.4-1.3-0.4c-0.5,0-0.9,0.1-1.3,0.4
		c-0.3,0.3-0.5,0.6-0.5,0.9H84c0-0.4,0.1-0.8,0.4-1.2c0.3-0.4,0.7-0.7,1.2-0.9c0.5-0.2,1.1-0.3,1.7-0.3c1,0,1.7,0.2,2.3,0.7
		c0.6,0.5,0.8,1.2,0.9,2v3.9c0,0.8,0.1,1.4,0.3,1.9v0.1H89.3z M86.9,218.4c0.5,0,0.9-0.1,1.3-0.4s0.7-0.5,0.9-0.9v-1.7h-1.1
		c-1.8,0-2.7,0.5-2.7,1.6c0,0.5,0.2,0.8,0.5,1.1C86,218.3,86.4,218.4,86.9,218.4z"/>
	<path class="st8" d="M92.7,218.7c0-0.2,0.1-0.5,0.2-0.6s0.4-0.2,0.7-0.2s0.5,0.1,0.7,0.2c0.2,0.2,0.2,0.4,0.2,0.6
		c0,0.2-0.1,0.4-0.2,0.6c-0.2,0.2-0.4,0.2-0.7,0.2s-0.5-0.1-0.7-0.2S92.7,219,92.7,218.7z M92.7,211.8c0-0.2,0.1-0.5,0.2-0.6
		s0.4-0.2,0.7-0.2s0.5,0.1,0.7,0.2c0.2,0.2,0.2,0.4,0.2,0.6c0,0.2-0.1,0.4-0.2,0.6c-0.2,0.2-0.4,0.2-0.7,0.2s-0.5-0.1-0.7-0.2
		S92.7,212.1,92.7,211.8z"/>
	<path class="st8" d="M105.2,219.5h-1.5v-9.6l-2.9,1.1v-1.3l4.1-1.6h0.2V219.5z"/>
	<path class="st8" d="M115.5,215.7h1.6v1.2h-1.6v2.6h-1.5v-2.6h-5.2V216l5.1-7.9h1.5V215.7z M110.5,215.7h3.5v-5.6l-0.2,0.3
		L110.5,215.7z"/>
	<path class="st8" d="M119.1,213.8l0.6-5.7h5.8v1.3h-4.6l-0.3,3.1c0.6-0.3,1.2-0.5,1.9-0.5c1,0,1.9,0.3,2.5,1s0.9,1.6,0.9,2.8
		c0,1.2-0.3,2.1-0.9,2.8s-1.5,1-2.7,1c-1,0-1.8-0.3-2.5-0.8c-0.6-0.6-1-1.3-1.1-2.3h1.4c0.1,0.7,0.3,1.1,0.7,1.5s0.9,0.5,1.5,0.5
		c0.7,0,1.2-0.2,1.6-0.7s0.6-1.1,0.6-1.9c0-0.8-0.2-1.4-0.6-1.8s-1-0.7-1.7-0.7c-0.6,0-1.1,0.1-1.5,0.4l-0.4,0.3L119.1,213.8z"/>
	<path class="st8" d="M132.9,211l0,0.9c0.6-0.7,1.5-1.1,2.5-1.1c1.2,0,2,0.5,2.4,1.4c0.3-0.4,0.6-0.7,1.1-1c0.5-0.2,1-0.4,1.6-0.4
		c1.9,0,2.8,1,2.8,2.9v5.7h-1.4v-5.6c0-0.6-0.1-1.1-0.4-1.4c-0.3-0.3-0.7-0.4-1.4-0.4c-0.5,0-1,0.2-1.3,0.5
		c-0.4,0.3-0.6,0.8-0.6,1.3v5.6h-1.5V214c0-1.2-0.6-1.8-1.8-1.8c-0.9,0-1.6,0.4-1.9,1.2v6.2h-1.4V211H132.9z"/>
	<path class="st8" d="M146.9,211l0,0.9c0.6-0.7,1.5-1.1,2.5-1.1c1.2,0,2,0.5,2.4,1.4c0.3-0.4,0.6-0.7,1.1-1c0.5-0.2,1-0.4,1.6-0.4
		c1.9,0,2.8,1,2.8,2.9v5.7h-1.4v-5.6c0-0.6-0.1-1.1-0.4-1.4c-0.3-0.3-0.7-0.4-1.4-0.4c-0.5,0-1,0.2-1.3,0.5
		c-0.4,0.3-0.6,0.8-0.6,1.3v5.6h-1.5V214c0-1.2-0.6-1.8-1.8-1.8c-0.9,0-1.6,0.4-1.9,1.2v6.2h-1.4V211H146.9z"/>
	<path class="st8" d="M163.5,214.9c0-1.2,0.2-2.3,0.5-3.4c0.3-1.1,0.8-2.1,1.4-3s1.3-1.5,1.9-1.9l0.3,1c-0.8,0.6-1.4,1.5-1.9,2.7
		c-0.5,1.2-0.8,2.5-0.8,4l0,0.7c0,2,0.4,3.8,1.1,5.2c0.4,0.9,1,1.6,1.6,2.1l-0.3,0.9c-0.7-0.4-1.4-1-2-1.9
		C164.1,219.5,163.5,217.3,163.5,214.9z"/>
	<path class="st8" d="M173.1,213.4h3.2v1.4h-3.2v3.6h-1.5v-3.6h-3.2v-1.4h3.2v-3.3h1.5V213.4z"/>
	<path class="st8" d="M178.3,220.5h-1.2l4.8-12.4h1.2L178.3,220.5z"/>
	<path class="st8" d="M187.6,215.3h-3.8v-1.2h3.8V215.3z"/>
	<path class="st8" d="M200.2,208.9l-4.7,10.6H194l4.7-10.2h-6.2v-1.2h7.7V208.9z"/>
	<path class="st8" d="M203.4,211l0,0.9c0.6-0.7,1.5-1.1,2.5-1.1c1.2,0,2,0.5,2.4,1.4c0.3-0.4,0.6-0.7,1.1-1c0.5-0.2,1-0.4,1.6-0.4
		c1.9,0,2.8,1,2.8,2.9v5.7h-1.4v-5.6c0-0.6-0.1-1.1-0.4-1.4c-0.3-0.3-0.7-0.4-1.4-0.4c-0.5,0-1,0.2-1.3,0.5
		c-0.4,0.3-0.6,0.8-0.6,1.3v5.6h-1.5V214c0-1.2-0.6-1.8-1.8-1.8c-0.9,0-1.6,0.4-1.9,1.2v6.2H202V211H203.4z"/>
	<path class="st8" d="M217.4,211l0,0.9c0.6-0.7,1.5-1.1,2.5-1.1c1.2,0,2,0.5,2.4,1.4c0.3-0.4,0.6-0.7,1.1-1c0.5-0.2,1-0.4,1.6-0.4
		c1.9,0,2.8,1,2.8,2.9v5.7h-1.4v-5.6c0-0.6-0.1-1.1-0.4-1.4c-0.3-0.3-0.7-0.4-1.4-0.4c-0.5,0-1,0.2-1.3,0.5
		c-0.4,0.3-0.6,0.8-0.6,1.3v5.6h-1.5V214c0-1.2-0.6-1.8-1.8-1.8c-0.9,0-1.6,0.4-1.9,1.2v6.2H216V211H217.4z"/>
	<path class="st8" d="M233.4,215c0,1.2-0.2,2.3-0.5,3.3s-0.8,2-1.4,2.9c-0.6,0.9-1.3,1.5-2,1.9l-0.3-0.9c0.8-0.6,1.4-1.6,1.9-2.9
		c0.5-1.3,0.7-2.7,0.7-4.3v-0.2c0-1.1-0.1-2.1-0.3-3.1c-0.2-0.9-0.5-1.8-1-2.5c-0.4-0.7-0.9-1.3-1.4-1.7l0.3-0.9
		c0.7,0.4,1.3,1,2,1.9c0.6,0.9,1.1,1.9,1.4,2.9C233.2,212.6,233.4,213.7,233.4,215z"/>
</g>
<g id="Grupo_102791" transform="translate(1440.866 379) rotate(90)">
	<circle id="Elipse_5047-2" class="st9" cx="-215.5" cy="1171.9" r="8"/>
	<line id="Línea_343-2" class="st10" x1="-215" y1="1169.2" x2="-215" y2="1131"/>
</g>
<g id="Grupo_102787" transform="translate(66 6)">
	<g id="Rectángulo_34555" transform="translate(1096 486)">
		<path class="st4" d="M-1113-223.5h203c9.9,0,18,8.1,18,18v86c0,9.9-8.1,18-18,18h-203c-9.9,0-18-8.1-18-18v-86
			C-1131-215.4-1122.9-223.5-1113-223.5z"/>
		<path class="st5" d="M-1113-222.5h203c9.4,0,17,7.6,17,17v86c0,9.4-7.6,17-17,17h-203c-9.4,0-17-7.6-17-17v-86
			C-1130-214.9-1122.4-222.5-1113-222.5z"/>
	</g>
	<g class="st7">
		<path class="st8" d="M-16.6,291.5v4H-19v-11.4h4.4c0.9,0,1.6,0.2,2.3,0.5s1.1,0.8,1.5,1.3c0.3,0.6,0.5,1.2,0.5,2
			c0,1.1-0.4,2-1.1,2.6c-0.8,0.6-1.8,1-3.2,1H-16.6z M-16.6,289.6h2.1c0.6,0,1.1-0.1,1.4-0.4c0.3-0.3,0.5-0.7,0.5-1.2
			c0-0.6-0.2-1-0.5-1.4s-0.8-0.5-1.4-0.5h-2.1V289.6z"/>
		<path class="st8" d="M-4.9,295.7c-1.2,0-2.2-0.4-3-1.1c-0.8-0.8-1.2-1.8-1.2-3v-0.2c0-0.8,0.2-1.6,0.5-2.3s0.8-1.2,1.4-1.5
			s1.3-0.5,2.1-0.5c1.2,0,2.1,0.4,2.7,1.1s1,1.8,1,3.1v0.9h-5.4c0.1,0.6,0.3,1,0.7,1.3s0.8,0.5,1.4,0.5c0.9,0,1.5-0.3,2-0.9l1.1,1.2
			c-0.3,0.5-0.8,0.9-1.4,1.1S-4.2,295.7-4.9,295.7z M-5.2,288.7c-0.4,0-0.8,0.2-1.1,0.5c-0.3,0.3-0.5,0.7-0.5,1.3h3.1v-0.2
			c0-0.5-0.1-0.9-0.4-1.2C-4.3,288.8-4.7,288.7-5.2,288.7z"/>
		<path class="st8" d="M4.4,293.2c0-0.3-0.1-0.5-0.4-0.7s-0.7-0.3-1.3-0.4c-2-0.4-3-1.3-3-2.6c0-0.8,0.3-1.4,0.9-1.9
			c0.6-0.5,1.4-0.8,2.4-0.8c1.1,0,1.9,0.3,2.6,0.8c0.6,0.5,1,1.2,1,2H4.3c0-0.3-0.1-0.6-0.3-0.8c-0.2-0.2-0.5-0.3-1-0.3
			c-0.4,0-0.7,0.1-0.9,0.3c-0.2,0.2-0.3,0.4-0.3,0.7c0,0.2,0.1,0.5,0.4,0.6c0.2,0.2,0.6,0.3,1.2,0.4s1,0.2,1.4,0.4
			c1.2,0.4,1.8,1.2,1.8,2.3c0,0.8-0.3,1.4-1,1.9c-0.7,0.5-1.5,0.7-2.6,0.7c-0.7,0-1.3-0.1-1.9-0.4c-0.5-0.3-1-0.6-1.3-1
			s-0.5-0.9-0.5-1.4h2.1c0,0.4,0.2,0.7,0.4,0.9c0.3,0.2,0.6,0.3,1.1,0.3c0.4,0,0.8-0.1,1-0.2C4.3,293.6,4.4,293.4,4.4,293.2z"/>
		<path class="st8" d="M7.7,291.2c0-0.8,0.2-1.6,0.5-2.2c0.3-0.7,0.8-1.2,1.4-1.5c0.6-0.4,1.3-0.5,2.1-0.5c1.1,0,2.1,0.3,2.8,1
			c0.7,0.7,1.1,1.6,1.2,2.8l0,0.6c0,1.3-0.4,2.3-1.1,3.1c-0.7,0.8-1.7,1.2-2.9,1.2s-2.2-0.4-2.9-1.2s-1.1-1.8-1.1-3.2V291.2z
			 M10,291.4c0,0.8,0.2,1.4,0.5,1.8c0.3,0.4,0.7,0.6,1.3,0.6c0.5,0,1-0.2,1.3-0.6c0.3-0.4,0.5-1.1,0.5-2c0-0.8-0.2-1.4-0.5-1.8
			c-0.3-0.4-0.7-0.6-1.3-0.6c-0.6,0-1,0.2-1.3,0.6C10.1,289.8,10,290.5,10,291.4z"/>
		<path class="st8" d="M20.7,291.2c0-1.3,0.3-2.4,0.9-3.1c0.6-0.8,1.4-1.2,2.4-1.2c0.8,0,1.5,0.3,2,0.9v-4.3h2.3v12h-2l-0.1-0.9
			c-0.6,0.7-1.3,1.1-2.2,1.1c-1,0-1.8-0.4-2.4-1.2S20.7,292.6,20.7,291.2z M23,291.4c0,0.8,0.1,1.4,0.4,1.8c0.3,0.4,0.7,0.6,1.2,0.6
			c0.7,0,1.2-0.3,1.5-0.9v-3.3c-0.3-0.6-0.8-0.9-1.5-0.9C23.5,288.7,23,289.6,23,291.4z"/>
		<path class="st8" d="M34,295.7c-1.2,0-2.2-0.4-3-1.1c-0.8-0.8-1.2-1.8-1.2-3v-0.2c0-0.8,0.2-1.6,0.5-2.3s0.8-1.2,1.4-1.5
			s1.3-0.5,2.1-0.5c1.2,0,2.1,0.4,2.7,1.1s1,1.8,1,3.1v0.9h-5.4c0.1,0.6,0.3,1,0.7,1.3s0.8,0.5,1.4,0.5c0.9,0,1.5-0.3,2-0.9l1.1,1.2
			c-0.3,0.5-0.8,0.9-1.4,1.1S34.7,295.7,34,295.7z M33.7,288.7c-0.4,0-0.8,0.2-1.1,0.5c-0.3,0.3-0.5,0.7-0.5,1.3h3.1v-0.2
			c0-0.5-0.1-0.9-0.4-1.2C34.6,288.8,34.2,288.7,33.7,288.7z"/>
		<path class="st8" d="M45.1,295.5h-2.3v-12h2.3V295.5z"/>
		<path class="st8" d="M51.9,295.5c-0.1-0.2-0.2-0.5-0.2-0.8c-0.5,0.6-1.3,0.9-2.1,0.9c-0.8,0-1.5-0.2-2.1-0.7
			c-0.5-0.5-0.8-1.1-0.8-1.8c0-0.9,0.3-1.6,1-2.1s1.6-0.7,2.9-0.7h1v-0.5c0-0.4-0.1-0.7-0.3-0.9c-0.2-0.2-0.5-0.4-0.9-0.4
			c-0.4,0-0.7,0.1-0.9,0.3c-0.2,0.2-0.3,0.4-0.3,0.8h-2.3c0-0.5,0.2-0.9,0.5-1.4c0.3-0.4,0.7-0.7,1.3-1c0.6-0.2,1.2-0.4,1.9-0.4
			c1,0,1.9,0.3,2.5,0.8c0.6,0.5,0.9,1.3,0.9,2.2v3.7c0,0.8,0.1,1.4,0.3,1.8v0.1H51.9z M50,293.9c0.3,0,0.6-0.1,0.9-0.2
			s0.5-0.3,0.6-0.6v-1.5h-0.8c-1.1,0-1.7,0.4-1.8,1.2l0,0.1c0,0.3,0.1,0.5,0.3,0.7C49.4,293.8,49.7,293.9,50,293.9z"/>
		<path class="st8" d="M63.4,295.7c-1.2,0-2.2-0.4-3-1.1c-0.8-0.8-1.2-1.8-1.2-3v-0.2c0-0.8,0.2-1.6,0.5-2.3s0.8-1.2,1.4-1.5
			s1.3-0.5,2.1-0.5c1.2,0,2.1,0.4,2.7,1.1s1,1.8,1,3.1v0.9h-5.4c0.1,0.6,0.3,1,0.7,1.3s0.8,0.5,1.4,0.5c0.9,0,1.5-0.3,2-0.9l1.1,1.2
			c-0.3,0.5-0.8,0.9-1.4,1.1S64.1,295.7,63.4,295.7z M63.2,288.7c-0.4,0-0.8,0.2-1.1,0.5c-0.3,0.3-0.5,0.7-0.5,1.3h3.1v-0.2
			c0-0.5-0.1-0.9-0.4-1.2C64,288.8,63.7,288.7,63.2,288.7z"/>
		<path class="st8" d="M72.8,293.2c0-0.3-0.1-0.5-0.4-0.7s-0.7-0.3-1.3-0.4c-2-0.4-3-1.3-3-2.6c0-0.8,0.3-1.4,0.9-1.9
			c0.6-0.5,1.4-0.8,2.4-0.8c1.1,0,1.9,0.3,2.6,0.8c0.6,0.5,1,1.2,1,2h-2.3c0-0.3-0.1-0.6-0.3-0.8c-0.2-0.2-0.5-0.3-1-0.3
			c-0.4,0-0.7,0.1-0.9,0.3c-0.2,0.2-0.3,0.4-0.3,0.7c0,0.2,0.1,0.5,0.4,0.6c0.2,0.2,0.6,0.3,1.2,0.4s1,0.2,1.4,0.4
			c1.2,0.4,1.8,1.2,1.8,2.3c0,0.8-0.3,1.4-1,1.9c-0.7,0.5-1.5,0.7-2.6,0.7c-0.7,0-1.3-0.1-1.9-0.4c-0.5-0.3-1-0.6-1.3-1
			s-0.5-0.9-0.5-1.4h2.1c0,0.4,0.2,0.7,0.4,0.9c0.3,0.2,0.6,0.3,1.1,0.3c0.4,0,0.8-0.1,1-0.2C72.7,293.6,72.8,293.4,72.8,293.2z"/>
		<path class="st8" d="M79.1,285v2.1h1.4v1.7h-1.4v4.2c0,0.3,0.1,0.5,0.2,0.7c0.1,0.1,0.3,0.2,0.7,0.2c0.2,0,0.5,0,0.7-0.1v1.7
			c-0.4,0.1-0.9,0.2-1.4,0.2c-1.6,0-2.4-0.8-2.4-2.4v-4.6h-1.2V287h1.2V285H79.1z"/>
		<path class="st8" d="M81.8,284.9c0-0.3,0.1-0.6,0.3-0.8s0.5-0.3,0.9-0.3c0.4,0,0.7,0.1,0.9,0.3c0.2,0.2,0.3,0.5,0.3,0.8
			c0,0.3-0.1,0.6-0.3,0.8c-0.2,0.2-0.5,0.3-0.9,0.3c-0.4,0-0.7-0.1-0.9-0.3C81.9,285.5,81.8,285.2,81.8,284.9z M84.2,295.5h-2.3V287
			h2.3V295.5z"/>
		<path class="st8" d="M93.7,291.4c0,1.4-0.3,2.4-0.9,3.2s-1.4,1.1-2.4,1.1c-0.9,0-1.6-0.4-2.2-1.1l-0.1,0.9h-2v-12h2.3v4.3
			c0.5-0.6,1.2-0.9,2.1-0.9c1,0,1.8,0.4,2.4,1.1s0.9,1.8,0.9,3.2V291.4z M91.4,291.2c0-0.9-0.1-1.5-0.4-1.9
			c-0.3-0.4-0.7-0.6-1.2-0.6c-0.7,0-1.2,0.3-1.5,0.9v3.3c0.3,0.6,0.8,0.9,1.5,0.9c0.7,0,1.2-0.4,1.4-1.1
			C91.4,292.4,91.4,291.9,91.4,291.2z"/>
		<path class="st8" d="M100,295.5c-0.1-0.2-0.2-0.5-0.2-0.8c-0.5,0.6-1.3,0.9-2.1,0.9c-0.8,0-1.5-0.2-2.1-0.7
			c-0.5-0.5-0.8-1.1-0.8-1.8c0-0.9,0.3-1.6,1-2.1s1.6-0.7,2.9-0.7h1v-0.5c0-0.4-0.1-0.7-0.3-0.9c-0.2-0.2-0.5-0.4-0.9-0.4
			c-0.4,0-0.7,0.1-0.9,0.3c-0.2,0.2-0.3,0.4-0.3,0.8h-2.3c0-0.5,0.2-0.9,0.5-1.4c0.3-0.4,0.7-0.7,1.3-1c0.6-0.2,1.2-0.4,1.9-0.4
			c1,0,1.9,0.3,2.5,0.8c0.6,0.5,0.9,1.3,0.9,2.2v3.7c0,0.8,0.1,1.4,0.3,1.8v0.1H100z M98.1,293.9c0.3,0,0.6-0.1,0.9-0.2
			s0.5-0.3,0.6-0.6v-1.5h-0.8c-1.1,0-1.7,0.4-1.8,1.2l0,0.1c0,0.3,0.1,0.5,0.3,0.7C97.5,293.8,97.8,293.9,98.1,293.9z"/>
		<path class="st8" d="M103.8,288c0-0.4,0.1-0.7,0.4-0.9s0.5-0.3,0.9-0.3c0.4,0,0.7,0.1,0.9,0.3s0.4,0.5,0.4,0.9
			c0,0.4-0.1,0.6-0.4,0.9c-0.2,0.2-0.5,0.3-0.9,0.3c-0.4,0-0.7-0.1-0.9-0.3C103.9,288.6,103.8,288.3,103.8,288z M103.8,294.4
			c0-0.4,0.1-0.7,0.4-0.9s0.5-0.3,0.9-0.3c0.4,0,0.7,0.1,0.9,0.3s0.4,0.5,0.4,0.9c0,0.4-0.1,0.6-0.4,0.9c-0.2,0.2-0.5,0.3-0.9,0.3
			c-0.4,0-0.7-0.1-0.9-0.3C103.9,295,103.8,294.7,103.8,294.4z"/>
	</g>
	<g class="st7">
		<path class="st8" d="M114.3,289.1h1.1c0.7,0,1.2-0.2,1.6-0.5s0.6-0.8,0.6-1.4c0-1.3-0.7-2-2-2c-0.6,0-1.1,0.2-1.5,0.5
			c-0.4,0.4-0.6,0.8-0.6,1.4h-1.4c0-0.9,0.3-1.6,1-2.2c0.7-0.6,1.5-0.9,2.5-0.9c1.1,0,1.9,0.3,2.5,0.9s0.9,1.4,0.9,2.4
			c0,0.5-0.2,1-0.5,1.4s-0.8,0.8-1.3,1c0.6,0.2,1.1,0.5,1.4,1c0.3,0.5,0.5,1,0.5,1.7c0,1-0.3,1.8-1,2.4c-0.7,0.6-1.5,0.9-2.6,0.9
			c-1.1,0-1.9-0.3-2.6-0.9c-0.7-0.6-1-1.3-1-2.3h1.5c0,0.6,0.2,1.1,0.6,1.4s0.9,0.5,1.6,0.5c0.7,0,1.2-0.2,1.6-0.5
			c0.4-0.4,0.6-0.9,0.6-1.6c0-0.7-0.2-1.2-0.6-1.5s-1-0.5-1.8-0.5h-1.1V289.1z"/>
		<path class="st8" d="M128.4,290.6c0,1.7-0.3,3-0.9,3.8s-1.5,1.2-2.7,1.2c-1.2,0-2.1-0.4-2.7-1.2c-0.6-0.8-0.9-2-0.9-3.6v-1.9
			c0-1.7,0.3-2.9,0.9-3.7s1.5-1.2,2.7-1.2c1.2,0,2.1,0.4,2.7,1.2s0.9,2,0.9,3.6V290.6z M126.9,288.7c0-1.2-0.2-2.1-0.5-2.7
			s-0.9-0.8-1.6-0.8c-0.7,0-1.3,0.3-1.6,0.8c-0.3,0.6-0.5,1.4-0.5,2.6v2.3c0,1.2,0.2,2.1,0.5,2.7c0.4,0.6,0.9,0.9,1.6,0.9
			c0.7,0,1.2-0.3,1.6-0.8c0.3-0.6,0.5-1.4,0.5-2.6V288.7z"/>
		<path class="st8" d="M136.7,291.6l-0.9,0.9v3h-1.4v-12h1.4v7.3l0.8-0.9l2.6-2.8h1.8l-3.3,3.5l3.7,4.9h-1.7L136.7,291.6z"/>
		<path class="st8" d="M142.1,291.2c0-1.3,0.3-2.4,0.9-3.1s1.4-1.2,2.4-1.2c1,0,1.8,0.4,2.4,1.1l0.1-0.9h1.3v8.2c0,1.1-0.3,2-1,2.6
			s-1.5,0.9-2.6,0.9c-0.6,0-1.2-0.1-1.8-0.4c-0.6-0.3-1-0.6-1.3-1.1l0.8-0.9c0.6,0.8,1.4,1.1,2.3,1.1c0.7,0,1.3-0.2,1.6-0.6
			c0.4-0.4,0.6-1,0.6-1.7v-0.7c-0.6,0.7-1.4,1-2.4,1c-1,0-1.8-0.4-2.4-1.2C142.4,293.7,142.1,292.6,142.1,291.2z M143.5,291.4
			c0,1,0.2,1.7,0.6,2.2s0.9,0.8,1.6,0.8c0.9,0,1.6-0.4,2-1.2v-3.9c-0.4-0.8-1.1-1.2-2-1.2c-0.7,0-1.3,0.3-1.6,0.8
			C143.7,289.5,143.5,290.3,143.5,291.4z"/>
		<path class="st8" d="M151.4,294.7c0-0.2,0.1-0.5,0.2-0.6s0.4-0.2,0.7-0.2s0.5,0.1,0.7,0.2c0.2,0.2,0.2,0.4,0.2,0.6
			c0,0.2-0.1,0.4-0.2,0.6c-0.2,0.2-0.4,0.2-0.7,0.2s-0.5-0.1-0.7-0.2S151.4,295,151.4,294.7z"/>
	</g>
	<g class="st7">
		<path class="st8" d="M-10.8,309.4h-3.7v10.1H-16v-10.1h-3.6v-1.2h8.8V309.4z"/>
		<path class="st8" d="M-10.5,315.2c0-0.8,0.2-1.6,0.5-2.2c0.3-0.7,0.8-1.2,1.4-1.5c0.6-0.4,1.2-0.5,2-0.5c1.2,0,2.1,0.4,2.8,1.2
			s1.1,1.9,1.1,3.2v0.1c0,0.8-0.2,1.6-0.5,2.2c-0.3,0.7-0.8,1.2-1.4,1.5s-1.3,0.5-2,0.5c-1.1,0-2.1-0.4-2.8-1.2s-1.1-1.9-1.1-3.2
			V315.2z M-9.1,315.4c0,0.9,0.2,1.7,0.7,2.3c0.4,0.6,1,0.9,1.7,0.9c0.7,0,1.3-0.3,1.8-0.9c0.4-0.6,0.6-1.4,0.6-2.4
			c0-0.9-0.2-1.7-0.7-2.3c-0.4-0.6-1-0.9-1.8-0.9c-0.7,0-1.3,0.3-1.7,0.9S-9.1,314.3-9.1,315.4z"/>
		<path class="st8" d="M0.6,319.5h-1.4v-12h1.4V319.5z"/>
		<path class="st8" d="M6.4,319.7c-1.1,0-2.1-0.4-2.8-1.1s-1.1-1.8-1.1-3v-0.3c0-0.8,0.2-1.6,0.5-2.2s0.8-1.2,1.3-1.5
			c0.6-0.4,1.2-0.6,1.9-0.6c1.1,0,2,0.4,2.6,1.1s0.9,1.8,0.9,3.1v0.6H4c0,0.8,0.3,1.5,0.7,2c0.5,0.5,1.1,0.8,1.8,0.8
			c0.5,0,0.9-0.1,1.3-0.3c0.4-0.2,0.7-0.5,0.9-0.8l0.9,0.7C8.9,319.1,7.8,319.7,6.4,319.7z M6.2,312.1c-0.6,0-1.1,0.2-1.5,0.6
			c-0.4,0.4-0.6,1-0.7,1.8h4.2v-0.1c0-0.7-0.2-1.3-0.6-1.7C7.3,312.3,6.8,312.1,6.2,312.1z"/>
		<path class="st8" d="M15.4,312.3c-0.2,0-0.5-0.1-0.7-0.1c-0.9,0-1.6,0.4-1.9,1.2v6h-1.4V311h1.4l0,1c0.5-0.8,1.1-1.1,2-1.1
			c0.3,0,0.5,0,0.6,0.1V312.3z"/>
		<path class="st8" d="M21.7,319.5c-0.1-0.2-0.2-0.5-0.2-0.9c-0.7,0.7-1.5,1-2.4,1c-0.8,0-1.5-0.2-2.1-0.7c-0.5-0.5-0.8-1.1-0.8-1.8
			c0-0.9,0.3-1.6,1-2.1c0.7-0.5,1.6-0.7,2.8-0.7h1.4v-0.7c0-0.5-0.2-0.9-0.5-1.2c-0.3-0.3-0.7-0.4-1.3-0.4c-0.5,0-0.9,0.1-1.3,0.4
			c-0.3,0.3-0.5,0.6-0.5,0.9h-1.5c0-0.4,0.1-0.8,0.4-1.2c0.3-0.4,0.7-0.7,1.2-0.9c0.5-0.2,1.1-0.3,1.7-0.3c1,0,1.7,0.2,2.3,0.7
			c0.6,0.5,0.8,1.2,0.9,2v3.9c0,0.8,0.1,1.4,0.3,1.9v0.1H21.7z M19.3,318.4c0.5,0,0.9-0.1,1.3-0.4s0.7-0.5,0.9-0.9v-1.7h-1.1
			c-1.8,0-2.7,0.5-2.7,1.6c0,0.5,0.2,0.8,0.5,1.1C18.4,318.3,18.8,318.4,19.3,318.4z"/>
		<path class="st8" d="M26.5,311l0,1.1c0.6-0.8,1.5-1.2,2.5-1.2c1.8,0,2.7,1,2.7,3v5.6h-1.4v-5.6c0-0.6-0.1-1.1-0.4-1.4
			s-0.7-0.4-1.3-0.4c-0.5,0-0.9,0.1-1.2,0.4c-0.4,0.2-0.6,0.6-0.8,1v6h-1.4V311H26.5z"/>
		<path class="st8" d="M37.4,318.5c0.5,0,1-0.2,1.4-0.5c0.4-0.3,0.6-0.7,0.6-1.2h1.4c0,0.5-0.2,0.9-0.5,1.4c-0.3,0.4-0.7,0.8-1.2,1
			c-0.5,0.3-1.1,0.4-1.6,0.4c-1.2,0-2.1-0.4-2.7-1.2s-1-1.8-1-3.2v-0.2c0-0.8,0.2-1.6,0.5-2.2c0.3-0.6,0.7-1.1,1.3-1.5
			c0.6-0.4,1.2-0.5,2-0.5c0.9,0,1.7,0.3,2.4,0.9c0.6,0.6,1,1.3,1,2.2h-1.4c0-0.5-0.2-1-0.6-1.3c-0.4-0.4-0.8-0.5-1.4-0.5
			c-0.7,0-1.3,0.3-1.7,0.8c-0.4,0.5-0.6,1.3-0.6,2.3v0.3c0,1,0.2,1.7,0.6,2.2C36.1,318.2,36.6,318.5,37.4,318.5z"/>
		<path class="st8" d="M42.4,308.8c0-0.2,0.1-0.4,0.2-0.6c0.1-0.2,0.4-0.2,0.6-0.2s0.5,0.1,0.6,0.2c0.1,0.2,0.2,0.4,0.2,0.6
			s-0.1,0.4-0.2,0.6c-0.1,0.2-0.4,0.2-0.6,0.2s-0.5-0.1-0.6-0.2C42.4,309.2,42.4,309,42.4,308.8z M43.9,319.5h-1.4V311h1.4V319.5z"
			/>
		<path class="st8" d="M51.5,319.5c-0.1-0.2-0.2-0.5-0.2-0.9c-0.7,0.7-1.5,1-2.4,1c-0.8,0-1.5-0.2-2.1-0.7c-0.5-0.5-0.8-1.1-0.8-1.8
			c0-0.9,0.3-1.6,1-2.1c0.7-0.5,1.6-0.7,2.8-0.7h1.4v-0.7c0-0.5-0.2-0.9-0.5-1.2c-0.3-0.3-0.7-0.4-1.3-0.4c-0.5,0-0.9,0.1-1.3,0.4
			c-0.3,0.3-0.5,0.6-0.5,0.9h-1.5c0-0.4,0.1-0.8,0.4-1.2c0.3-0.4,0.7-0.7,1.2-0.9c0.5-0.2,1.1-0.3,1.7-0.3c1,0,1.7,0.2,2.3,0.7
			c0.6,0.5,0.8,1.2,0.9,2v3.9c0,0.8,0.1,1.4,0.3,1.9v0.1H51.5z M49.1,318.4c0.5,0,0.9-0.1,1.3-0.4s0.7-0.5,0.9-0.9v-1.7h-1.1
			c-1.8,0-2.7,0.5-2.7,1.6c0,0.5,0.2,0.8,0.5,1.1C48.2,318.3,48.6,318.4,49.1,318.4z"/>
		<path class="st8" d="M58.6,315.2c0-1.3,0.3-2.3,0.9-3.1c0.6-0.8,1.4-1.2,2.4-1.2c1,0,1.8,0.3,2.4,1v-4.4h1.4v12h-1.3l-0.1-0.9
			c-0.6,0.7-1.4,1.1-2.4,1.1c-1,0-1.8-0.4-2.4-1.2s-0.9-1.8-0.9-3.1V315.2z M60,315.4c0,1,0.2,1.7,0.6,2.2c0.4,0.5,0.9,0.8,1.6,0.8
			c0.9,0,1.6-0.4,2-1.2v-3.9c-0.4-0.8-1.1-1.2-2-1.2c-0.7,0-1.3,0.3-1.7,0.8C60.2,313.5,60,314.3,60,315.4z"/>
		<path class="st8" d="M71.4,319.7c-1.1,0-2.1-0.4-2.8-1.1s-1.1-1.8-1.1-3v-0.3c0-0.8,0.2-1.6,0.5-2.2s0.8-1.2,1.3-1.5
			c0.6-0.4,1.2-0.6,1.9-0.6c1.1,0,2,0.4,2.6,1.1s0.9,1.8,0.9,3.1v0.6H69c0,0.8,0.3,1.5,0.7,2c0.5,0.5,1.1,0.8,1.8,0.8
			c0.5,0,0.9-0.1,1.3-0.3c0.4-0.2,0.7-0.5,0.9-0.8l0.9,0.7C73.9,319.1,72.9,319.7,71.4,319.7z M71.3,312.1c-0.6,0-1.1,0.2-1.5,0.6
			c-0.4,0.4-0.6,1-0.7,1.8h4.2v-0.1c0-0.7-0.2-1.3-0.6-1.7C72.3,312.3,71.9,312.1,71.3,312.1z"/>
		<path class="st8" d="M84.5,313.4h3.2v1.4h-3.2v3.6h-1.5v-3.6h-3.2v-1.4h3.2v-3.3h1.5V313.4z"/>
		<path class="st8" d="M89.7,320.5h-1.2l4.8-12.4h1.2L89.7,320.5z"/>
		<path class="st8" d="M99,315.3h-3.8v-1.2H99V315.3z"/>
		<path class="st8" d="M111.7,319.5h-7.5v-1l3.9-4.4c0.6-0.7,1-1.2,1.2-1.6c0.2-0.4,0.3-0.8,0.3-1.3c0-0.6-0.2-1.1-0.5-1.5
			s-0.8-0.6-1.4-0.6c-0.7,0-1.3,0.2-1.7,0.6s-0.6,1-0.6,1.7H104c0-1,0.3-1.9,1-2.5c0.7-0.6,1.6-1,2.7-1c1.1,0,1.9,0.3,2.5,0.8
			c0.6,0.6,0.9,1.3,0.9,2.2c0,1.1-0.7,2.5-2.1,4l-3,3.3h5.7V319.5z"/>
		<path class="st8" d="M119.7,315.6l-0.9,0.9v3h-1.4v-12h1.4v7.3l0.8-0.9l2.6-2.8h1.8l-3.3,3.5l3.7,4.9h-1.7L119.7,315.6z"/>
		<path class="st8" d="M125.1,315.2c0-1.3,0.3-2.4,0.9-3.1s1.4-1.2,2.4-1.2c1,0,1.8,0.4,2.4,1.1l0.1-0.9h1.3v8.2c0,1.1-0.3,2-1,2.6
			s-1.5,0.9-2.6,0.9c-0.6,0-1.2-0.1-1.8-0.4c-0.6-0.3-1-0.6-1.3-1.1l0.8-0.9c0.6,0.8,1.4,1.1,2.3,1.1c0.7,0,1.3-0.2,1.6-0.6
			c0.4-0.4,0.6-1,0.6-1.7v-0.7c-0.6,0.7-1.4,1-2.4,1c-1,0-1.8-0.4-2.4-1.2C125.4,317.7,125.1,316.6,125.1,315.2z M126.6,315.4
			c0,1,0.2,1.7,0.6,2.2s0.9,0.8,1.6,0.8c0.9,0,1.6-0.4,2-1.2v-3.9c-0.4-0.8-1.1-1.2-2-1.2c-0.7,0-1.3,0.3-1.6,0.8
			C126.8,313.5,126.6,314.3,126.6,315.4z"/>
	</g>
	<g class="st7">
		<path class="st8" d="M-10.1,339.7c-0.1,1.2-0.5,2.2-1.4,2.9c-0.8,0.7-1.9,1.1-3.2,1.1c-1.5,0-2.6-0.5-3.4-1.5s-1.3-2.3-1.3-4v-0.7
			c0-1.1,0.2-2.1,0.6-2.9c0.4-0.8,0.9-1.5,1.7-1.9c0.7-0.4,1.5-0.7,2.5-0.7c1.3,0,2.4,0.4,3.2,1.1c0.8,0.7,1.3,1.7,1.4,3h-2.3
			c-0.1-0.7-0.3-1.3-0.6-1.6s-0.9-0.5-1.6-0.5c-0.8,0-1.4,0.3-1.8,0.8c-0.4,0.6-0.6,1.4-0.6,2.6v0.9c0,1.2,0.2,2.1,0.6,2.7
			c0.4,0.6,1,0.9,1.8,0.9c0.7,0,1.3-0.2,1.6-0.5c0.4-0.3,0.6-0.8,0.6-1.5H-10.1z"/>
		<path class="st8" d="M-3.8,343.5c-0.1-0.2-0.2-0.5-0.2-0.8c-0.5,0.6-1.3,0.9-2.1,0.9c-0.8,0-1.5-0.2-2.1-0.7
			c-0.5-0.5-0.8-1.1-0.8-1.8c0-0.9,0.3-1.6,1-2.1s1.6-0.7,2.9-0.7h1v-0.5c0-0.4-0.1-0.7-0.3-0.9c-0.2-0.2-0.5-0.4-0.9-0.4
			c-0.4,0-0.7,0.1-0.9,0.3c-0.2,0.2-0.3,0.4-0.3,0.8h-2.3c0-0.5,0.2-0.9,0.5-1.4c0.3-0.4,0.7-0.7,1.3-1c0.6-0.2,1.2-0.4,1.9-0.4
			c1,0,1.9,0.3,2.5,0.8c0.6,0.5,0.9,1.3,0.9,2.2v3.7c0,0.8,0.1,1.4,0.3,1.8v0.1H-3.8z M-5.6,341.9c0.3,0,0.6-0.1,0.9-0.2
			s0.5-0.3,0.6-0.6v-1.5h-0.8c-1.1,0-1.7,0.4-1.8,1.2l0,0.1c0,0.3,0.1,0.5,0.3,0.7C-6.2,341.8-6,341.9-5.6,341.9z"/>
		<path class="st8" d="M7.5,339.4c0,1.3-0.3,2.3-0.9,3.1c-0.6,0.8-1.4,1.2-2.4,1.2c-0.9,0-1.5-0.3-2.1-0.9v4h-2.3V335H2l0.1,0.8
			c0.5-0.7,1.3-1,2.1-1c1,0,1.9,0.4,2.4,1.2s0.9,1.8,0.9,3.2V339.4z M5.3,339.2c0-0.8-0.1-1.4-0.4-1.8c-0.3-0.4-0.7-0.6-1.2-0.6
			c-0.7,0-1.2,0.3-1.5,0.8v3.5c0.3,0.6,0.8,0.8,1.5,0.8C4.7,341.8,5.3,341,5.3,339.2z"/>
		<path class="st8" d="M13.8,343.5c-0.1-0.2-0.2-0.5-0.2-0.8c-0.5,0.6-1.3,0.9-2.1,0.9c-0.8,0-1.5-0.2-2.1-0.7
			c-0.5-0.5-0.8-1.1-0.8-1.8c0-0.9,0.3-1.6,1-2.1s1.6-0.7,2.9-0.7h1v-0.5c0-0.4-0.1-0.7-0.3-0.9c-0.2-0.2-0.5-0.4-0.9-0.4
			c-0.4,0-0.7,0.1-0.9,0.3c-0.2,0.2-0.3,0.4-0.3,0.8H8.8c0-0.5,0.2-0.9,0.5-1.4c0.3-0.4,0.7-0.7,1.3-1c0.6-0.2,1.2-0.4,1.9-0.4
			c1,0,1.9,0.3,2.5,0.8c0.6,0.5,0.9,1.3,0.9,2.2v3.7c0,0.8,0.1,1.4,0.3,1.8v0.1H13.8z M12,341.9c0.3,0,0.6-0.1,0.9-0.2
			s0.5-0.3,0.6-0.6v-1.5h-0.8c-1.1,0-1.7,0.4-1.8,1.2l0,0.1c0,0.3,0.1,0.5,0.3,0.7C11.3,341.8,11.6,341.9,12,341.9z"/>
		<path class="st8" d="M21,341.8c0.4,0,0.8-0.1,1-0.3c0.3-0.2,0.4-0.5,0.4-0.9h2.1c0,0.6-0.2,1.1-0.5,1.6c-0.3,0.5-0.7,0.8-1.3,1.1
			c-0.5,0.3-1.1,0.4-1.8,0.4c-1.2,0-2.2-0.4-2.9-1.2c-0.7-0.8-1-1.8-1-3.2v-0.1c0-1.3,0.3-2.3,1-3.1c0.7-0.8,1.6-1.2,2.9-1.2
			c1.1,0,1.9,0.3,2.5,0.9c0.6,0.6,1,1.4,1,2.4h-2.1c0-0.4-0.1-0.8-0.4-1.1c-0.3-0.3-0.6-0.4-1-0.4c-0.5,0-0.9,0.2-1.2,0.6
			c-0.3,0.4-0.4,1-0.4,1.9v0.2c0,0.9,0.1,1.5,0.4,1.9S20.5,341.8,21,341.8z"/>
		<path class="st8" d="M25.8,332.9c0-0.3,0.1-0.6,0.3-0.8s0.5-0.3,0.9-0.3c0.4,0,0.7,0.1,0.9,0.3c0.2,0.2,0.3,0.5,0.3,0.8
			c0,0.3-0.1,0.6-0.3,0.8c-0.2,0.2-0.5,0.3-0.9,0.3c-0.4,0-0.7-0.1-0.9-0.3C25.9,333.5,25.8,333.2,25.8,332.9z M28.2,343.5H26V335
			h2.3V343.5z"/>
		<path class="st8" d="M29.7,339.2c0-1.3,0.3-2.4,0.9-3.1c0.6-0.8,1.4-1.2,2.4-1.2c0.8,0,1.5,0.3,2,0.9v-4.3h2.3v12h-2l-0.1-0.9
			c-0.6,0.7-1.3,1.1-2.2,1.1c-1,0-1.8-0.4-2.4-1.2S29.7,340.6,29.7,339.2z M32,339.4c0,0.8,0.1,1.4,0.4,1.8c0.3,0.4,0.7,0.6,1.2,0.6
			c0.7,0,1.2-0.3,1.5-0.9v-3.3c-0.3-0.6-0.8-0.9-1.5-0.9C32.5,336.7,32,337.6,32,339.4z"/>
		<path class="st8" d="M44,343.5c-0.1-0.2-0.2-0.5-0.2-0.8c-0.5,0.6-1.3,0.9-2.1,0.9c-0.8,0-1.5-0.2-2.1-0.7
			c-0.5-0.5-0.8-1.1-0.8-1.8c0-0.9,0.3-1.6,1-2.1s1.6-0.7,2.9-0.7h1v-0.5c0-0.4-0.1-0.7-0.3-0.9c-0.2-0.2-0.5-0.4-0.9-0.4
			c-0.4,0-0.7,0.1-0.9,0.3c-0.2,0.2-0.3,0.4-0.3,0.8H39c0-0.5,0.2-0.9,0.5-1.4c0.3-0.4,0.7-0.7,1.3-1c0.6-0.2,1.2-0.4,1.9-0.4
			c1,0,1.9,0.3,2.5,0.8c0.6,0.5,0.9,1.3,0.9,2.2v3.7c0,0.8,0.1,1.4,0.3,1.8v0.1H44z M42.1,341.9c0.3,0,0.6-0.1,0.9-0.2
			s0.5-0.3,0.6-0.6v-1.5h-0.8c-1.1,0-1.7,0.4-1.8,1.2l0,0.1c0,0.3,0.1,0.5,0.3,0.7C41.5,341.8,41.8,341.9,42.1,341.9z"/>
		<path class="st8" d="M47.3,339.2c0-1.3,0.3-2.4,0.9-3.1c0.6-0.8,1.4-1.2,2.4-1.2c0.8,0,1.5,0.3,2,0.9v-4.3h2.3v12h-2l-0.1-0.9
			c-0.6,0.7-1.3,1.1-2.2,1.1c-1,0-1.8-0.4-2.4-1.2S47.3,340.6,47.3,339.2z M49.6,339.4c0,0.8,0.1,1.4,0.4,1.8
			c0.3,0.4,0.7,0.6,1.2,0.6c0.7,0,1.2-0.3,1.5-0.9v-3.3c-0.3-0.6-0.8-0.9-1.5-0.9C50.1,336.7,49.6,337.6,49.6,339.4z"/>
		<path class="st8" d="M62.8,335l0.1,1c0.6-0.8,1.4-1.1,2.4-1.1c0.9,0,1.6,0.3,2,0.8s0.7,1.3,0.7,2.4v5.5h-2.3v-5.4
			c0-0.5-0.1-0.8-0.3-1c-0.2-0.2-0.6-0.3-1-0.3c-0.6,0-1.1,0.3-1.4,0.8v6h-2.3V335H62.8z"/>
		<path class="st8" d="M69.3,339.2c0-0.8,0.2-1.6,0.5-2.2c0.3-0.7,0.8-1.2,1.4-1.5c0.6-0.4,1.3-0.5,2.1-0.5c1.1,0,2.1,0.3,2.8,1
			c0.7,0.7,1.1,1.6,1.2,2.8l0,0.6c0,1.3-0.4,2.3-1.1,3.1c-0.7,0.8-1.7,1.2-2.9,1.2s-2.2-0.4-2.9-1.2s-1.1-1.8-1.1-3.2V339.2z
			 M71.5,339.4c0,0.8,0.2,1.4,0.5,1.8c0.3,0.4,0.7,0.6,1.3,0.6c0.5,0,1-0.2,1.3-0.6c0.3-0.4,0.5-1.1,0.5-2c0-0.8-0.2-1.4-0.5-1.8
			c-0.3-0.4-0.7-0.6-1.3-0.6c-0.6,0-1,0.2-1.3,0.6C71.7,337.8,71.5,338.5,71.5,339.4z"/>
		<path class="st8" d="M80.8,335l0.1,0.9c0.6-0.7,1.4-1.1,2.4-1.1c1.1,0,1.8,0.4,2.2,1.3c0.6-0.9,1.4-1.3,2.5-1.3
			c0.9,0,1.6,0.3,2,0.8c0.4,0.5,0.7,1.3,0.7,2.4v5.4h-2.3v-5.4c0-0.5-0.1-0.8-0.3-1.1s-0.5-0.3-1-0.3c-0.7,0-1.1,0.3-1.4,1l0,5.8
			h-2.3v-5.4c0-0.5-0.1-0.8-0.3-1.1c-0.2-0.2-0.5-0.3-1-0.3c-0.6,0-1.1,0.3-1.4,0.8v6h-2.3V335H80.8z"/>
		<path class="st8" d="M92.5,332.9c0-0.3,0.1-0.6,0.3-0.8s0.5-0.3,0.9-0.3c0.4,0,0.7,0.1,0.9,0.3c0.2,0.2,0.3,0.5,0.3,0.8
			c0,0.3-0.1,0.6-0.3,0.8c-0.2,0.2-0.5,0.3-0.9,0.3c-0.4,0-0.7-0.1-0.9-0.3C92.6,333.5,92.5,333.2,92.5,332.9z M94.9,343.5h-2.3V335
			h2.3V343.5z"/>
		<path class="st8" d="M98.9,335l0.1,1c0.6-0.8,1.4-1.1,2.4-1.1c0.9,0,1.6,0.3,2,0.8s0.7,1.3,0.7,2.4v5.5h-2.3v-5.4
			c0-0.5-0.1-0.8-0.3-1c-0.2-0.2-0.6-0.3-1-0.3c-0.6,0-1.1,0.3-1.4,0.8v6h-2.3V335H98.9z"/>
		<path class="st8" d="M110.6,343.5c-0.1-0.2-0.2-0.5-0.2-0.8c-0.5,0.6-1.3,0.9-2.1,0.9c-0.8,0-1.5-0.2-2.1-0.7
			c-0.5-0.5-0.8-1.1-0.8-1.8c0-0.9,0.3-1.6,1-2.1s1.6-0.7,2.9-0.7h1v-0.5c0-0.4-0.1-0.7-0.3-0.9c-0.2-0.2-0.5-0.4-0.9-0.4
			c-0.4,0-0.7,0.1-0.9,0.3c-0.2,0.2-0.3,0.4-0.3,0.8h-2.3c0-0.5,0.2-0.9,0.5-1.4c0.3-0.4,0.7-0.7,1.3-1c0.6-0.2,1.2-0.4,1.9-0.4
			c1,0,1.9,0.3,2.5,0.8c0.6,0.5,0.9,1.3,0.9,2.2v3.7c0,0.8,0.1,1.4,0.3,1.8v0.1H110.6z M108.8,341.9c0.3,0,0.6-0.1,0.9-0.2
			s0.5-0.3,0.6-0.6v-1.5h-0.8c-1.1,0-1.7,0.4-1.8,1.2l0,0.1c0,0.3,0.1,0.5,0.3,0.7C108.2,341.8,108.4,341.9,108.8,341.9z"/>
		<path class="st8" d="M116.7,343.5h-2.3v-12h2.3V343.5z"/>
		<path class="st8" d="M118.7,336c0-0.4,0.1-0.7,0.4-0.9s0.5-0.3,0.9-0.3c0.4,0,0.7,0.1,0.9,0.3s0.4,0.5,0.4,0.9
			c0,0.4-0.1,0.6-0.4,0.9c-0.2,0.2-0.5,0.3-0.9,0.3c-0.4,0-0.7-0.1-0.9-0.3C118.8,336.6,118.7,336.3,118.7,336z M118.7,342.4
			c0-0.4,0.1-0.7,0.4-0.9s0.5-0.3,0.9-0.3c0.4,0,0.7,0.1,0.9,0.3s0.4,0.5,0.4,0.9c0,0.4-0.1,0.6-0.4,0.9c-0.2,0.2-0.5,0.3-0.9,0.3
			c-0.4,0-0.7-0.1-0.9-0.3C118.8,343,118.7,342.7,118.7,342.4z"/>
	</g>
	<g class="st7">
		<path class="st8" d="M128.6,335l0,0.9c0.6-0.7,1.5-1.1,2.5-1.1c1.2,0,2,0.5,2.4,1.4c0.3-0.4,0.6-0.7,1.1-1c0.5-0.2,1-0.4,1.6-0.4
			c1.9,0,2.8,1,2.8,2.9v5.7h-1.4v-5.6c0-0.6-0.1-1.1-0.4-1.4c-0.3-0.3-0.7-0.4-1.4-0.4c-0.5,0-1,0.2-1.3,0.5
			c-0.4,0.3-0.6,0.8-0.6,1.3v5.6h-1.5V338c0-1.2-0.6-1.8-1.8-1.8c-0.9,0-1.6,0.4-1.9,1.2v6.2h-1.4V335H128.6z"/>
		<path class="st8" d="M142.9,331.5h1.8l-2.1,2.3l-1.2,0L142.9,331.5z M142.9,343.5h-1.5V335h1.5V343.5z"/>
		<path class="st8" d="M146.6,335l0,1.1c0.6-0.8,1.5-1.2,2.5-1.2c1.8,0,2.7,1,2.7,3v5.6h-1.4v-5.6c0-0.6-0.1-1.1-0.4-1.4
			s-0.7-0.4-1.3-0.4c-0.5,0-0.9,0.1-1.2,0.4c-0.4,0.2-0.6,0.6-0.8,1v6h-1.4V335H146.6z"/>
		<path class="st8" d="M154.1,332.8c0-0.2,0.1-0.4,0.2-0.6c0.1-0.2,0.4-0.2,0.6-0.2s0.5,0.1,0.6,0.2c0.1,0.2,0.2,0.4,0.2,0.6
			s-0.1,0.4-0.2,0.6c-0.1,0.2-0.4,0.2-0.6,0.2s-0.5-0.1-0.6-0.2C154.2,333.2,154.1,333,154.1,332.8z M155.7,343.5h-1.4V335h1.4
			V343.5z"/>
		<path class="st8" d="M159.3,335l0,0.9c0.6-0.7,1.5-1.1,2.5-1.1c1.2,0,2,0.5,2.4,1.4c0.3-0.4,0.6-0.7,1.1-1c0.5-0.2,1-0.4,1.6-0.4
			c1.9,0,2.8,1,2.8,2.9v5.7h-1.4v-5.6c0-0.6-0.1-1.1-0.4-1.4c-0.3-0.3-0.7-0.4-1.4-0.4c-0.5,0-1,0.2-1.3,0.5
			c-0.4,0.3-0.6,0.8-0.6,1.3v5.6h-1.5V338c0-1.2-0.6-1.8-1.8-1.8c-0.9,0-1.6,0.4-1.9,1.2v6.2H158V335H159.3z"/>
		<path class="st8" d="M171.6,339.2c0-0.8,0.2-1.6,0.5-2.2c0.3-0.7,0.8-1.2,1.4-1.5c0.6-0.4,1.2-0.5,2-0.5c1.2,0,2.1,0.4,2.8,1.2
			s1.1,1.9,1.1,3.2v0.1c0,0.8-0.2,1.6-0.5,2.2c-0.3,0.7-0.8,1.2-1.4,1.5s-1.3,0.5-2,0.5c-1.1,0-2.1-0.4-2.8-1.2s-1.1-1.9-1.1-3.2
			V339.2z M173.1,339.4c0,0.9,0.2,1.7,0.7,2.3c0.4,0.6,1,0.9,1.7,0.9c0.7,0,1.3-0.3,1.8-0.9c0.4-0.6,0.6-1.4,0.6-2.4
			c0-0.9-0.2-1.7-0.7-2.3c-0.4-0.6-1-0.9-1.8-0.9c-0.7,0-1.3,0.3-1.7,0.9S173.1,338.3,173.1,339.4z"/>
	</g>
	<g class="st7">
		<path class="st8" d="M-14.3,367.5h-1.5v-9.6l-2.9,1.1v-1.3l4.1-1.6h0.2V367.5z"/>
		<path class="st8" d="M-2.9,362.6c0,1.7-0.3,3-0.9,3.8s-1.5,1.2-2.7,1.2c-1.2,0-2.1-0.4-2.7-1.2c-0.6-0.8-0.9-2-0.9-3.6v-1.9
			c0-1.7,0.3-2.9,0.9-3.7s1.5-1.2,2.7-1.2c1.2,0,2.1,0.4,2.7,1.2s0.9,2,0.9,3.6V362.6z M-4.4,360.7c0-1.2-0.2-2.1-0.5-2.7
			s-0.9-0.8-1.6-0.8c-0.7,0-1.3,0.3-1.6,0.8c-0.3,0.6-0.5,1.4-0.5,2.6v2.3c0,1.2,0.2,2.1,0.5,2.7c0.4,0.6,0.9,0.9,1.6,0.9
			c0.7,0,1.2-0.3,1.6-0.8c0.3-0.6,0.5-1.4,0.5-2.6V360.7z"/>
		<path class="st8" d="M6,362.6c0,1.7-0.3,3-0.9,3.8s-1.5,1.2-2.7,1.2c-1.2,0-2.1-0.4-2.7-1.2c-0.6-0.8-0.9-2-0.9-3.6v-1.9
			c0-1.7,0.3-2.9,0.9-3.7s1.5-1.2,2.7-1.2c1.2,0,2.1,0.4,2.7,1.2s0.9,2,0.9,3.6V362.6z M4.6,360.7c0-1.2-0.2-2.1-0.5-2.7
			s-0.9-0.8-1.6-0.8c-0.7,0-1.3,0.3-1.6,0.8c-0.3,0.6-0.5,1.4-0.5,2.6v2.3c0,1.2,0.2,2.1,0.5,2.7c0.4,0.6,0.9,0.9,1.6,0.9
			c0.7,0,1.2-0.3,1.6-0.8c0.3-0.6,0.5-1.4,0.5-2.6V360.7z"/>
		<path class="st8" d="M15,362.6c0,1.7-0.3,3-0.9,3.8s-1.5,1.2-2.7,1.2c-1.2,0-2.1-0.4-2.7-1.2c-0.6-0.8-0.9-2-0.9-3.6v-1.9
			c0-1.7,0.3-2.9,0.9-3.7s1.5-1.2,2.7-1.2c1.2,0,2.1,0.4,2.7,1.2s0.9,2,0.9,3.6V362.6z M13.6,360.7c0-1.2-0.2-2.1-0.5-2.7
			s-0.9-0.8-1.6-0.8c-0.7,0-1.3,0.3-1.6,0.8c-0.3,0.6-0.5,1.4-0.5,2.6v2.3c0,1.2,0.2,2.1,0.5,2.7c0.4,0.6,0.9,0.9,1.6,0.9
			c0.7,0,1.2-0.3,1.6-0.8c0.3-0.6,0.5-1.4,0.5-2.6V360.7z"/>
		<path class="st8" d="M19.4,363.6l-0.9,0.9v3H17v-12h1.4v7.3l0.8-0.9l2.6-2.8h1.8l-3.3,3.5l3.7,4.9h-1.7L19.4,363.6z"/>
		<path class="st8" d="M24.8,363.2c0-1.3,0.3-2.4,0.9-3.1s1.4-1.2,2.4-1.2c1,0,1.8,0.4,2.4,1.1l0.1-0.9h1.3v8.2c0,1.1-0.3,2-1,2.6
			s-1.5,0.9-2.6,0.9c-0.6,0-1.2-0.1-1.8-0.4c-0.6-0.3-1-0.6-1.3-1.1l0.8-0.9c0.6,0.8,1.4,1.1,2.3,1.1c0.7,0,1.3-0.2,1.6-0.6
			c0.4-0.4,0.6-1,0.6-1.7v-0.7c-0.6,0.7-1.4,1-2.4,1c-1,0-1.8-0.4-2.4-1.2C25.1,365.7,24.8,364.6,24.8,363.2z M26.2,363.4
			c0,1,0.2,1.7,0.6,2.2s0.9,0.8,1.6,0.8c0.9,0,1.6-0.4,2-1.2v-3.9c-0.4-0.8-1.1-1.2-2-1.2c-0.7,0-1.3,0.3-1.6,0.8
			C26.4,361.5,26.2,362.3,26.2,363.4z"/>
	</g>
</g>
<g id="Grupo_102792" transform="translate(1440.252 524) rotate(90)">
	<circle id="Elipse_5047-3" class="st9" cx="-215.5" cy="1174.1" r="8"/>
	<line id="Línea_343-3" class="st10" x1="-215" y1="1171.2" x2="-215" y2="1131"/>
</g>
</svg>
