<svg xmlns="http://www.w3.org/2000/svg" width="87.505" height="87.513" viewBox="0 0 87.505 87.513">
  <g id="Grupo_71698" data-name="Grupo 71698" transform="translate(0)">
    <path id="Trazado_106010" data-name="Trazado 106010" d="M523.969,324.608q0,1.418,0,2.837a29.712,29.712,0,0,1-1.29,7.855,41.528,41.528,0,0,1-6.86,13.315,49.987,49.987,0,0,1-12.972,11.756,1.682,1.682,0,0,1-.418.213,31.085,31.085,0,0,1-4.576-.916c-1.135-.207-1.114-.236-.861.9a6.639,6.639,0,0,1,.386,2.572c-.214.52-.7.7-1.155.9a64.469,64.469,0,0,1-19.573,5.563c-1.647.2-3.311.206-4.947.5-3.392.138-6.784.064-10.175.041-.917-.006-1.128-.282-1.19-1.216-.017-.251-.012-.5-.012-.754q0-17.951,0-35.9a2.475,2.475,0,0,1,.273-1.638l.063-6.035c.511-.442,1.135-.3,1.717-.3q14.189-.014,28.379-.006,15.745,0,31.491.006C522.834,324.306,523.458,324.166,523.969,324.608Z" transform="translate(-448.566 -312.535)" fill="#dc9ce8"/>
    <path id="Trazado_106011" data-name="Trazado 106011" d="M479.627,596.625l6.018,18.1a1.584,1.584,0,0,1-1.243.3q-15.345.012-30.69,0a2.731,2.731,0,0,1-1.11-.15c-.464-.263-.535-.748-.654-1.2-.328-1.243-.646-2.489-.937-3.741a1.111,1.111,0,0,0-1.255-.974q-7.808.017-15.616,0a1.154,1.154,0,0,0-1.3,1.041c-.287,1.253-.6,2.5-.936,3.741a1.614,1.614,0,0,1-.616,1.122,3.33,3.33,0,0,1-1.393.162q-15.072,0-30.145,0c-.521,0-1.079.11-1.526-.3l6.017-18.1c.51-.441,1.133-.3,1.715-.305q17.938-.012,35.876-.005c5.367,0,10.734-.015,16.1.008a1.491,1.491,0,0,1,1.308.59q1.458,1.469,2.925,2.927c.892.89.9.9,1.754.029,1.013-1.026,2.073-2.006,3.032-3.085a1.129,1.129,0,0,1,.625-.4c3.729-.145,7.458-.044,11.186-.054A1.139,1.139,0,0,1,479.627,596.625Z" transform="translate(-398.182 -533.251)" fill="#2481c9"/>
    <path id="Trazado_106012" data-name="Trazado 106012" d="M525.345,274.057h-63.3c-.01-3.047-.046-6.094-.019-9.14a2.97,2.97,0,0,1,2.875-2.925c.251-.014.5,0,.754,0h56.08c2.557,0,3.649,1.1,3.645,3.683Q525.368,269.864,525.345,274.057Z" transform="translate(-449.943 -261.984)" fill="#fff"/>
    <path id="Trazado_106013" data-name="Trazado 106013" d="M484.146,403.144a2.352,2.352,0,0,1-1.2.112q-26.461.01-52.923.009c-.008-3.393-.022-6.787-.023-10.181q0-15.791,0-31.583c0-2.3,1.188-3.5,3.458-3.5q1.273,0,2.546,0c.01.345.03.69.03,1.035q0,18.62-.018,37.241c0,.782.18.984.968.971,3.456-.058,6.912-.041,10.369-.052,2.125-.078,4.248-.261,6.374-.268,6.4-.02,12.793-.009,19.19-.006a5.223,5.223,0,0,1,1.028.064c.53.108.641.545.738.978.122.55.228,1.1.417,1.735a26.279,26.279,0,0,0,2.106-2.01c.848-.8,1.127-.814,1.956,0q2.276,2.245,4.519,4.524C483.922,402.464,484.3,402.677,484.146,403.144Z" transform="translate(-423.964 -339.891)" fill="#36a3f7"/>
    <path id="Trazado_106014" data-name="Trazado 106014" d="M398.05,692.675l33.175-.018a1.757,1.757,0,0,1,1.255-.286q9.281-.009,18.562,0a1.757,1.757,0,0,1,1.255.286l33.175.019c.012,1.067.073,2.136.025,3.2a3.009,3.009,0,0,1-2.88,2.829c-.282.016-.565,0-.848,0H401.753c-2.686,0-3.748-1.068-3.743-3.777C398.011,694.18,398.036,693.427,398.05,692.675Z" transform="translate(-398.01 -611.2)" fill="#36a3f7"/>
    <path id="Trazado_106015" data-name="Trazado 106015" d="M683.986,374.019c1.362-.99,2.742-1.957,4.083-2.973a47.542,47.542,0,0,0,9.863-10.087,40.628,40.628,0,0,0,5.6-10.8,32.728,32.728,0,0,0,1.771-8.6.687.687,0,0,1,.157-.523q.031,1.6.062,3.2a1.839,1.839,0,0,1,.273,1.26q.008,18.312,0,36.625c0,1.432-.208,1.645-1.639,1.642-3.577-.009-7.155.067-10.728-.039a1.649,1.649,0,0,1-1.067-.528c-1.162-1.139-2.3-2.3-3.457-3.444a.863.863,0,0,1-.011-1.434q.846-.811,1.657-1.66c.557-.583.527-.7-.244-.869-1.739-.391-3.47-.818-5.211-1.2C684.687,374.5,684.19,374.525,683.986,374.019Z" transform="translate(-630.054 -326.131)" fill="#c78ad3"/>
    <path id="Trazado_106016" data-name="Trazado 106016" d="M731.83,397.25c3.86-.008,7.719-.04,11.578-.006.754.007.913-.21.912-.931q-.033-18.594-.015-37.187c0-.376.02-.752.03-1.128.88,0,1.76,0,2.64,0a3.075,3.075,0,0,1,3.363,3.406q0,17.253,0,34.506c0,2.451-.015,4.9-.023,7.353l-12.463.023c-.368.036-.567-.235-.785-.45q-2.408-2.391-4.8-4.8C732.054,397.82,731.781,397.621,731.83,397.25Z" transform="translate(-668.87 -339.89)" fill="#36a3f7"/>
    <path id="Trazado_106017" data-name="Trazado 106017" d="M667.249,520.055c1.936,2.083,3.959,4.079,6.022,6.037.147.3-.07.457-.246.632-1.13,1.13-2.276,2.244-3.381,3.4-.38.4-.6.36-.971-.014-1.383-1.405-2.8-2.777-4.2-4.161-1.856-1.875-3.721-3.741-5.56-5.633-.4-.409-.62-.217-.908.09-.835.89-1.682,1.769-2.666,2.8l-.77-3.183a1.42,1.42,0,0,1-.461-.89c-.342-1.578-.7-3.154-1.1-4.718a4.8,4.8,0,0,1-.038-1.193c-.207-1-.407-2.009-.624-3.01-.21-.968-.219-.965.782-.744q2.546.561,5.093,1.118l6.265,1.52c.182.044.363.095.547.122.759.112.816.373.25.892-.714.655-1.367,1.377-2.07,2.045-.321.305-.444.517-.053.89C664.542,517.369,665.89,518.719,667.249,520.055Z" transform="translate(-604.289 -462.695)" fill="#fff"/>
    <path id="Trazado_106018" data-name="Trazado 106018" d="M490.689,418.125c.561-1.108,1.049-2.042,1.507-2.99a1.606,1.606,0,0,1,3.034,0c.454.95.941,1.884,1.494,2.987.55-1.086,1.02-2.024,1.5-2.957.553-1.083,1.317-1.442,2.164-1.026.868.427,1.075,1.258.55,2.324-.9,1.826-1.818,3.644-2.721,5.469a1.62,1.62,0,0,1-1.5,1.091,1.64,1.64,0,0,1-1.487-1.115c-.463-.954-.946-1.9-1.509-3.024-.524,1.036-1,1.927-1.428,2.841a1.641,1.641,0,0,1-3.163.035c-.861-1.775-1.764-3.529-2.638-5.3-.525-1.063-.318-1.9.547-2.323.849-.417,1.612-.058,2.163,1.025C489.667,416.081,490.127,417.005,490.689,418.125Z" transform="translate(-469.57 -385.304)" fill="#fff"/>
    <path id="Trazado_106019" data-name="Trazado 106019" d="M586.659,418.136c.5-.99.931-1.809,1.328-2.644.35-.736.746-1.422,1.679-1.431s1.35.653,1.7,1.4c.4.842.827,1.667,1.328,2.67.56-1.108,1.039-2.073,1.533-3.03.522-1.013,1.294-1.358,2.119-.964.88.419,1.1,1.258.579,2.317-.9,1.826-1.819,3.644-2.727,5.467a1.654,1.654,0,0,1-1.5,1.108,1.619,1.619,0,0,1-1.5-1.093c-.466-.956-.944-1.906-1.512-3.048-.5,1-.958,1.863-1.375,2.744-.341.721-.772,1.326-1.653,1.322s-1.3-.623-1.645-1.337c-.851-1.745-1.736-3.473-2.591-5.216a1.518,1.518,0,0,1,.567-2.248c.823-.415,1.627-.081,2.138.915C585.622,416.028,586.094,417,586.659,418.136Z" transform="translate(-547.435 -385.311)" fill="#fff"/>
    <path id="Trazado_106020" data-name="Trazado 106020" d="M685.654,418.824c-.574,1.146-1.054,2.094-1.526,3.047a1.6,1.6,0,0,1-3-.017c-.912-1.854-1.848-3.7-2.755-5.553a1.521,1.521,0,1,1,2.709-1.326c.5.968.974,1.95,1.546,3.1.531-1.04,1.012-1.93,1.443-2.844a1.73,1.73,0,0,1,1.618-1.219,1.711,1.711,0,0,1,1.542,1.188c.422.907.891,1.793,1.388,2.785a17.192,17.192,0,0,0,1.3-2.4,8.023,8.023,0,0,1,.59-1.065,1.356,1.356,0,0,1,1.841-.411,1.327,1.327,0,0,1,.723,1.813c-1,2.126-2.026,4.24-3.138,6.308a1.459,1.459,0,0,1-2.645-.159C686.745,421.068,686.258,420.027,685.654,418.824Z" transform="translate(-625.311 -385.261)" fill="#fff"/>
    <path id="Trazado_106021" data-name="Trazado 106021" d="M547.307,529.891l1.6,6.8-26.892-.023a10.923,10.923,0,0,1,2.947-.3,63.043,63.043,0,0,0,20.246-5.322A4.892,4.892,0,0,0,547.307,529.891Z" transform="translate(-498.625 -479.366)" fill="#c78ad3"/>
    <path id="Trazado_106022" data-name="Trazado 106022" d="M663.538,449.014a1.508,1.508,0,1,1,1.482-1.509A1.53,1.53,0,0,1,663.538,449.014Z" transform="translate(-612.219 -411.295)" fill="#fff"/>
    <path id="Trazado_106023" data-name="Trazado 106023" d="M567.48,446.006a1.507,1.507,0,1,1-1.469,1.52A1.53,1.53,0,0,1,567.48,446.006Z" transform="translate(-534.327 -411.301)" fill="#fff"/>
    <path id="Trazado_106024" data-name="Trazado 106024" d="M595.2,667.959H574.132c.438-1.792.888-3.582,1.307-5.378a.7.7,0,0,1,.809-.652q8.42.032,16.839,0a.7.7,0,0,1,.809.652C594.316,664.378,594.766,666.167,595.2,667.959Z" transform="translate(-540.917 -586.503)" fill="#451991"/>
    <path id="Trazado_106025" data-name="Trazado 106025" d="M706.41,656.948c-1.257,0-2.516-.035-3.771.015-.605.024-.719-.186-.722-.746-.013-2.287-.032-2.287,2.277-2.287,2.012,0,4.024.027,6.034-.016.638-.013.77.2.769.794,0,2.24.018,2.24-2.23,2.24Z" transform="translate(-644.601 -580)" fill="#f0f1f1"/>
    <path id="Trazado_106026" data-name="Trazado 106026" d="M514.464,656.97c-1.257,0-2.516-.037-3.771.016-.643.027-.768-.2-.768-.8,0-2.238-.018-2.238,2.232-2.238,2.011,0,4.023.016,6.035-.01.561-.008.821.068.82.743,0,2.285.027,2.285-2.284,2.285Z" transform="translate(-488.819 -580.022)" fill="#f0f1f1"/>
    <path id="Trazado_106027" data-name="Trazado 106027" d="M446,623.465C446,622,446,622,447.482,622c1.536,0,1.536,0,1.536,1.505s0,1.512-1.529,1.512C446,625.017,446,625.017,446,623.465Z" transform="translate(-436.949 -554.105)" fill="#f0f1f1"/>
    <path id="Trazado_106028" data-name="Trazado 106028" d="M513.017,623.565c0,1.452,0,1.452-1.495,1.452-1.523,0-1.523,0-1.523-1.518,0-1.5,0-1.5,1.542-1.5C513.017,622,513.017,622,513.017,623.565Z" transform="translate(-488.88 -554.105)" fill="#f0f1f1"/>
    <path id="Trazado_106029" data-name="Trazado 106029" d="M545.017,623.518c0,1.5,0,1.5-1.542,1.5-1.476,0-1.476,0-1.476-1.471C542,622,542,622,543.589,622,545.017,622,545.017,622,545.017,623.518Z" transform="translate(-514.845 -554.105)" fill="#f0f1f1"/>
    <path id="Trazado_106030" data-name="Trazado 106030" d="M577.017,623.546c0,1.471,0,1.471-1.476,1.471-1.542,0-1.542,0-1.542-1.5C574,622,574,622,575.523,622,577.017,622,577.017,622,577.017,623.546Z" transform="translate(-540.81 -554.105)" fill="#f0f1f1"/>
    <path id="Trazado_106031" data-name="Trazado 106031" d="M607.477,622c1.54,0,1.54,0,1.54,1.5,0,1.517,0,1.517-1.524,1.517-1.493,0-1.493,0-1.493-1.453v-.094C606,622,606,622,607.477,622Z" transform="translate(-566.775 -554.105)" fill="#f0f1f1"/>
    <path id="Trazado_106032" data-name="Trazado 106032" d="M641.017,623.564c0,1.454,0,1.454-1.493,1.454-1.524,0-1.524,0-1.524-1.517,0-1.5,0-1.5,1.54-1.5C641.017,622,641.017,622,641.017,623.564Z" transform="translate(-592.74 -554.105)" fill="#f0f1f1"/>
    <path id="Trazado_106033" data-name="Trazado 106033" d="M673.017,623.548c0,1.469,0,1.469-1.477,1.469-1.54,0-1.54,0-1.54-1.5C670,622,670,622,671.524,622,673.017,622,673.017,622,673.017,623.548Z" transform="translate(-618.705 -554.105)" fill="#f0f1f1"/>
    <path id="Trazado_106034" data-name="Trazado 106034" d="M703.552,622c1.465,0,1.465,0,1.465,1.482,0,1.536,0,1.536-1.505,1.536s-1.512,0-1.512-1.529C702,622,702,622,703.552,622Z" transform="translate(-644.67 -554.105)" fill="#f0f1f1"/>
    <path id="Trazado_106035" data-name="Trazado 106035" d="M766,623.462C766,622,766,622,767.485,622c1.532,0,1.532,0,1.532,1.509s0,1.509-1.532,1.509C766,625.017,766,625.017,766,623.462Z" transform="translate(-696.601 -554.105)" fill="#f0f1f1"/>
    <path id="Trazado_106036" data-name="Trazado 106036" d="M799.47,625.017c-1.469,0-1.469,0-1.469-1.477,0-1.54,0-1.54,1.5-1.54,1.517,0,1.517,0,1.517,1.524C801.017,625.017,801.017,625.017,799.47,625.017Z" transform="translate(-722.566 -554.105)" fill="#f0f1f1"/>
    <path id="Trazado_106037" data-name="Trazado 106037" d="M449.017,655.556c0,1.461,0,1.461-1.485,1.461-1.532,0-1.532,0-1.532-1.509S446,654,447.532,654C449.017,654,449.017,654,449.017,655.556Z" transform="translate(-436.949 -580.07)" fill="#f0f1f1"/>
    <path id="Trazado_106038" data-name="Trazado 106038" d="M479.564,654c1.454,0,1.454,0,1.454,1.493,0,1.524,0,1.524-1.517,1.524-1.5,0-1.5,0-1.5-1.54C478,654,478,654,479.564,654Z" transform="translate(-462.914 -580.07)" fill="#f0f1f1"/>
    <path id="Trazado_106039" data-name="Trazado 106039" d="M767.477,657.018c-1.477,0-1.477,0-1.477-1.469C766,654,766,654,767.587,654c1.43,0,1.43,0,1.43,1.422v.094C769.018,657.018,769.018,657.018,767.477,657.018Z" transform="translate(-696.601 -580.07)" fill="#f0f1f1"/>
    <path id="Trazado_106040" data-name="Trazado 106040" d="M799.5,657.018c-1.5,0-1.5,0-1.5-1.542C798,654,798,654,799.471,654c1.546,0,1.546,0,1.546,1.589C801.017,657.018,801.017,657.018,799.5,657.018Z" transform="translate(-722.566 -580.07)" fill="#f0f1f1"/>
    <path id="Trazado_106041" data-name="Trazado 106041" d="M481.017,623.556c0,1.462,0,1.462-1.485,1.462-1.532,0-1.532,0-1.532-1.509S478,622,479.532,622C481.017,622,481.017,622,481.017,623.556Z" transform="translate(-462.914 -554.105)" fill="#f0f1f1"/>
    <path id="Trazado_106042" data-name="Trazado 106042" d="M629.147,288.982q-6.5,0-13,0a3.751,3.751,0,0,1-.844-.032,1.5,1.5,0,0,1,.047-2.959,4.225,4.225,0,0,1,.845-.024h25.9c.157,0,.314,0,.471,0a1.513,1.513,0,1,1,.046,3.015c-.219.01-.439,0-.659,0Z" transform="translate(-573.328 -281.435)" fill="#f0f1f1"/>
    <path id="Trazado_106043" data-name="Trazado 106043" d="M520.253,286c1.55,0,2.249.449,2.281,1.465.032,1.043-.719,1.553-2.288,1.553h-.187c-1.331,0-2.048-.534-2.045-1.513s.715-1.5,2.053-1.5Z" transform="translate(-495.381 -281.469)" fill="#f0f0f0"/>
    <path id="Trazado_106044" data-name="Trazado 106044" d="M488.252,289h-.187c-1.337,0-2.05-.527-2.051-1.507s.713-1.508,2.047-1.511c.281,0,.563-.009.843,0a1.512,1.512,0,1,1,.005,3.014C488.69,289.009,488.47,289,488.252,289Z" transform="translate(-469.416 -281.454)" fill="#f0f0f0"/>
    <path id="Trazado_106045" data-name="Trazado 106045" d="M552.261,289.016c-1.519,0-2.239-.48-2.248-1.5s.719-1.519,2.225-1.52c1.576,0,2.322.5,2.3,1.544C554.508,288.553,553.794,289.016,552.261,289.016Z" transform="translate(-521.346 -281.469)" fill="#f0f0f0"/>
    <path id="Trazado_106046" data-name="Trazado 106046" d="M761.02,447.521a1.507,1.507,0,1,1-1.477-1.513A1.532,1.532,0,0,1,761.02,447.521Z" transform="translate(-690.114 -411.303)" fill="#fff"/>
  </g>
</svg>
