<svg xmlns="http://www.w3.org/2000/svg" xmlns:xlink="http://www.w3.org/1999/xlink" width="271" height="185" viewBox="0 0 271 185">
  <defs>
    <clipPath id="clip-path">
      <rect id="Rect치ngulo_34556" data-name="Rect치ngulo 34556" width="271" height="185" transform="translate(0 -0.349)" fill="#dc9ce8"/>
    </clipPath>
  </defs>
  <g id="Grupo_103048" data-name="Grupo 103048" transform="translate(-705 -3829)">
    <g id="Grupo_103040" data-name="Grupo 103040">
      <rect id="Rect치ngulo_34374" data-name="Rect치ngulo 34374" width="271" height="185" transform="translate(705 3829)" fill="#f739a8" opacity="0.184"/>
      <g id="Grupo_103038" data-name="Grupo 103038" transform="translate(420 2489)">
        <g id="Enmascarar_grupo_82" data-name="Enmascarar grupo 82" transform="translate(285 1340.349)" opacity="0.24" clip-path="url(#clip-path)">
          <path id="Trazado_159232" data-name="Trazado 159232" d="M8.484,231.291l252.56-9.984c5.207-.206,9.6-4.1,9.8-8.7l9.2-205.349c.206-4.6-3.849-8.157-9.056-7.951L18.425,9.295c-5.207.206-9.6,4.1-9.8,8.7L-.572,223.34C-.778,227.937,3.277,231.5,8.484,231.291Z" transform="translate(48.178 2.645) rotate(17)" fill="#dc9ce8"/>
        </g>
      </g>
    </g>
    <g id="Grupo_103039" data-name="Grupo 103039" transform="translate(-1.578 4.893)">
      <g id="Grupo_103022" data-name="Grupo 103022" transform="translate(732.578 3832.107)">
        <g id="Grupo_91737" data-name="Grupo 91737" transform="translate(0)">
          <path id="Trazado_132100" data-name="Trazado 132100" d="M610.264,855.3l74.1,43.192,116.046-67.119L684.98,843.143Z" transform="translate(-610.264 -728.629)" fill="#838383" opacity="0.255" style="mix-blend-mode: multiply;isolation: isolate"/>
          <g id="Grupo_91736" data-name="Grupo 91736">
            <g id="Grupo_91730" data-name="Grupo 91730">
              <g id="Grupo_91729" data-name="Grupo 91729" style="isolation: isolate">
                <g id="Grupo_91726" data-name="Grupo 91726" transform="translate(0 67.12)">
                  <path id="Trazado_132101" data-name="Trazado 132101" d="M771.52,781.744l.3,51.975,74.1,43.192-.3-51.975Z" transform="translate(-771.52 -781.744)" fill="#a48157"/>
                </g>
                <g id="Grupo_91727" data-name="Grupo 91727" transform="translate(74.103 43.192)">
                  <path id="Trazado_132102" data-name="Trazado 132102" d="M609.846,815.528l.3,51.975,116.047-67.12-.3-51.975Z" transform="translate(-609.846 -748.408)" fill="#c8a376"/>
                </g>
                <g id="Grupo_91728" data-name="Grupo 91728">
                  <path id="Trazado_132103" data-name="Trazado 132103" d="M610.264,755.354l74.1,43.191,116.046-67.119-74.1-43.192Z" transform="translate(-610.264 -688.234)" fill="#e3c095"/>
                </g>
              </g>
            </g>
            <g id="Grupo_91735" data-name="Grupo 91735" transform="translate(26.44 14.735)">
              <g id="Grupo_91734" data-name="Grupo 91734" transform="translate(0)" style="isolation: isolate">
                <g id="Grupo_91731" data-name="Grupo 91731" transform="translate(0 67.87)">
                  <path id="Trazado_132104" data-name="Trazado 132104" d="M833.349,810.071l-11.622-6.754.3,25.678,11.621,6.754Z" transform="translate(-821.726 -803.316)" fill="#c5c5c5"/>
                </g>
                <g id="Grupo_91732" data-name="Grupo 91732">
                  <path id="Trazado_132105" data-name="Trazado 132105" d="M787.632,715.516l-11.622-6.753L658.665,776.632l11.622,6.753Z" transform="translate(-658.665 -708.762)" fill="#dcdcdc"/>
                </g>
                <g id="Grupo_91733" data-name="Grupo 91733" transform="translate(11.622 6.754)">
                  <path id="Trazado_132106" data-name="Trazado 132106" d="M658.66,786.042l.3,25.677.983-.568-.3-24.549,116.363-67.3,0-1.128Z" transform="translate(-658.66 -718.172)" fill="#898989"/>
                </g>
              </g>
            </g>
          </g>
        </g>
        <g id="Grupo_91847" data-name="Grupo 91847" transform="translate(83.129 52.754)">
          <g id="Grupo_91740" data-name="Grupo 91740" transform="translate(21.184 52.407)">
            <g id="Grupo_91738" data-name="Grupo 91738" transform="translate(6.989 6.6)">
              <path id="Trazado_132107" data-name="Trazado 132107" d="M710.52,847.882l.022,7.777c0,.957.474,1.56,1.22,1.568s1.216.6,1.219,1.562l.012,4.079a1.932,1.932,0,0,1-.586,1.284l-1.835,1.791v.491l3.414-1.97,3.418-1.975V862l-1.839.33c-.352.066-.591-.18-.592-.6l-.012-4.078a4.821,4.821,0,0,1,1.207-2.963,4.852,4.852,0,0,0,1.206-2.969l-.021-7.776-3.42,1.974Z" transform="translate(-710.52 -843.938)" fill="#6b573f"/>
            </g>
            <g id="Grupo_91739" data-name="Grupo 91739">
              <path id="Trazado_132108" data-name="Trazado 132108" d="M721.578,834.743l-20.8,12.006.068,23.9,20.8-12.007Zm-19.406,33.618-.058-20.854,18.142-10.474.06,20.853-18.144,10.475Z" transform="translate(-700.782 -834.743)" fill="#6b573f"/>
            </g>
          </g>
          <g id="Grupo_91745" data-name="Grupo 91745" transform="translate(0 64.697)">
            <g id="Grupo_91743" data-name="Grupo 91743" transform="translate(2.6 10.23)">
              <g id="Grupo_91741" data-name="Grupo 91741" transform="translate(0.013 9.156)">
                <path id="Trazado_132109" data-name="Trazado 132109" d="M733.908,887.91l0,1.567,15.653-9.037,0-1.568Z" transform="translate(-733.908 -878.873)" fill="#6b573f"/>
              </g>
              <g id="Grupo_91742" data-name="Grupo 91742" transform="translate(0)">
                <path id="Trazado_132110" data-name="Trazado 132110" d="M741.734,866.117l-7.8,13.512,5.454-3.149.011,4.019,2.371-1.369,2.38-1.374-.011-4.019,5.447-3.144Z" transform="translate(-733.933 -866.117)" fill="#6b573f"/>
              </g>
            </g>
            <g id="Grupo_91744" data-name="Grupo 91744">
              <path id="Trazado_132111" data-name="Trazado 132111" d="M751.094,851.865l-20.79,12,.068,23.889,20.789-12Zm-19.406,33.613-.059-20.855,18.149-10.479L749.837,875l-18.149,10.479Z" transform="translate(-730.304 -851.865)" fill="#6b573f"/>
            </g>
          </g>
          <g id="Grupo_91846" data-name="Grupo 91846" transform="translate(72.257)">
            <g id="Grupo_91825" data-name="Grupo 91825" transform="translate(0 18.863)">
              <g id="Grupo_91824" data-name="Grupo 91824" style="isolation: isolate">
                <g id="Grupo_91746" data-name="Grupo 91746" transform="translate(25.618 14.756)">
                  <path id="Trazado_132112" data-name="Trazado 132112" d="M622.085,809.352l-1.35-.785-.991.572,1.351.784Z" transform="translate(-619.743 -808.567)" fill="#acacac"/>
                </g>
                <g id="Grupo_91747" data-name="Grupo 91747" transform="translate(26.579 4.217)">
                  <path id="Trazado_132113" data-name="Trazado 132113" d="M621.093,794.669l-1.35-.784.029,10.539,1.35.785Z" transform="translate(-619.743 -793.885)" fill="gray"/>
                </g>
                <g id="Grupo_91748" data-name="Grupo 91748" transform="translate(25.588 4.79)">
                  <path id="Trazado_132114" data-name="Trazado 132114" d="M622.473,795.467l-1.349-.785.029,10.538,1.35.785Z" transform="translate(-621.124 -794.682)" fill="#2e3545"/>
                </g>
                <g id="Grupo_91749" data-name="Grupo 91749" transform="translate(24.013 14.276)">
                  <path id="Trazado_132115" data-name="Trazado 132115" d="M624.321,808.682l-1.35-.784-.99.572,1.349.785Z" transform="translate(-621.981 -807.898)" fill="#acacac"/>
                </g>
                <g id="Grupo_91750" data-name="Grupo 91750" transform="translate(22.41 15.201)">
                  <path id="Trazado_132116" data-name="Trazado 132116" d="M626.553,809.972l-1.35-.785-.99.572,1.35.784Z" transform="translate(-624.213 -809.187)" fill="#acacac"/>
                </g>
                <g id="Grupo_91751" data-name="Grupo 91751" transform="translate(20.809 16.125)">
                  <path id="Trazado_132117" data-name="Trazado 132117" d="M628.785,811.26l-1.349-.785-.991.572,1.349.785Z" transform="translate(-626.445 -810.475)" fill="#acacac"/>
                </g>
                <g id="Grupo_91752" data-name="Grupo 91752" transform="translate(19.207 17.05)">
                  <path id="Trazado_132118" data-name="Trazado 132118" d="M631.017,812.549l-1.35-.785-.99.572,1.349.784Z" transform="translate(-628.676 -811.764)" fill="#acacac"/>
                </g>
                <g id="Grupo_91753" data-name="Grupo 91753" transform="translate(17.604 17.975)">
                  <path id="Trazado_132119" data-name="Trazado 132119" d="M633.249,813.837l-1.35-.785-.991.572,1.351.785Z" transform="translate(-630.908 -813.052)" fill="#acacac"/>
                </g>
                <g id="Grupo_91754" data-name="Grupo 91754" transform="translate(26.939 5.002)">
                  <path id="Trazado_132120" data-name="Trazado 132120" d="M619.744,795.55l.03,10.538.99-.571-.03-10.539Z" transform="translate(-619.744 -794.979)" fill="#4f5b77"/>
                </g>
                <g id="Grupo_91755" data-name="Grupo 91755" transform="translate(25.588 4.218)">
                  <path id="Trazado_132121" data-name="Trazado 132121" d="M622.126,794.67l-1.35-.785-.991.572,1.35.785Z" transform="translate(-619.785 -793.885)" fill="#3d475d"/>
                </g>
                <g id="Grupo_91756" data-name="Grupo 91756" transform="translate(24.977 5.142)">
                  <path id="Trazado_132122" data-name="Trazado 132122" d="M623.331,795.958l-1.35-.785.026,9.133,1.35.784Z" transform="translate(-621.981 -795.174)" fill="gray"/>
                </g>
                <g id="Grupo_91757" data-name="Grupo 91757" transform="translate(16.003 18.9)">
                  <path id="Trazado_132123" data-name="Trazado 132123" d="M635.48,815.125l-1.35-.784-.99.57,1.35.785Z" transform="translate(-633.14 -814.341)" fill="#acacac"/>
                </g>
                <g id="Grupo_91758" data-name="Grupo 91758" transform="translate(25.337 5.927)">
                  <path id="Trazado_132124" data-name="Trazado 132124" d="M621.981,796.839l.026,9.133L623,805.4l-.026-9.133Z" transform="translate(-621.981 -796.267)" fill="#4f5b77"/>
                </g>
                <g id="Grupo_91759" data-name="Grupo 91759" transform="translate(23.987 5.143)">
                  <path id="Trazado_132125" data-name="Trazado 132125" d="M624.357,795.959l-1.349-.784-.99.572,1.35.785Z" transform="translate(-622.017 -795.174)" fill="#3d475d"/>
                </g>
                <g id="Grupo_91760" data-name="Grupo 91760" transform="translate(23.986 5.715)">
                  <path id="Trazado_132126" data-name="Trazado 132126" d="M624.712,796.755l-1.351-.785.026,9.132,1.351.785Z" transform="translate(-623.361 -795.971)" fill="#2e3545"/>
                </g>
                <g id="Grupo_91761" data-name="Grupo 91761" transform="translate(14.405 21.23)">
                  <path id="Trazado_132127" data-name="Trazado 132127" d="M637.706,818.372l-1.35-.785-.991.571,1.35.786Z" transform="translate(-635.366 -817.587)" fill="#acacac"/>
                </g>
                <g id="Grupo_91762" data-name="Grupo 91762" transform="translate(23.375 6.067)">
                  <path id="Trazado_132128" data-name="Trazado 132128" d="M625.563,797.247l-1.35-.784.026,9.133,1.35.785Z" transform="translate(-624.213 -796.463)" fill="gray"/>
                </g>
                <g id="Grupo_91763" data-name="Grupo 91763" transform="translate(22.385 6.068)">
                  <path id="Trazado_132129" data-name="Trazado 132129" d="M626.589,797.248l-1.35-.785-.99.572,1.35.784Z" transform="translate(-624.249 -796.463)" fill="#3d475d"/>
                </g>
                <g id="Grupo_91764" data-name="Grupo 91764" transform="translate(22.385 6.639)">
                  <path id="Trazado_132130" data-name="Trazado 132130" d="M626.942,798.043l-1.349-.784.026,9.133,1.35.784Z" transform="translate(-625.593 -797.259)" fill="#2e3545"/>
                </g>
                <g id="Grupo_91765" data-name="Grupo 91765" transform="translate(23.734 6.852)">
                  <path id="Trazado_132131" data-name="Trazado 132131" d="M624.213,798.128l.026,9.133.991-.571-.027-9.135Z" transform="translate(-624.213 -797.555)" fill="#4f5b77"/>
                </g>
                <g id="Grupo_91766" data-name="Grupo 91766" transform="translate(21.774 6.992)">
                  <path id="Trazado_132132" data-name="Trazado 132132" d="M627.794,798.535l-1.349-.784.026,9.133,1.349.784Z" transform="translate(-626.445 -797.75)" fill="gray"/>
                </g>
                <g id="Grupo_91767" data-name="Grupo 91767" transform="translate(20.782 7.564)">
                  <path id="Trazado_132133" data-name="Trazado 132133" d="M629.175,799.333l-1.351-.785.027,9.133,1.349.785Z" transform="translate(-627.825 -798.548)" fill="#2e3545"/>
                </g>
                <g id="Grupo_91768" data-name="Grupo 91768" transform="translate(20.171 7.917)">
                  <path id="Trazado_132134" data-name="Trazado 132134" d="M630.027,799.824l-1.35-.785.026,9.133,1.35.785Z" transform="translate(-628.676 -799.039)" fill="gray"/>
                </g>
                <g id="Grupo_91769" data-name="Grupo 91769" transform="translate(19.181 8.489)">
                  <path id="Trazado_132135" data-name="Trazado 132135" d="M631.406,800.621l-1.35-.784.025,9.133,1.35.785Z" transform="translate(-630.056 -799.836)" fill="#2e3545"/>
                </g>
                <g id="Grupo_91770" data-name="Grupo 91770" transform="translate(18.569 8.842)">
                  <path id="Trazado_132136" data-name="Trazado 132136" d="M632.258,801.112l-1.35-.785.026,9.133,1.35.785Z" transform="translate(-630.908 -800.328)" fill="gray"/>
                </g>
                <g id="Grupo_91771" data-name="Grupo 91771" transform="translate(17.579 9.414)">
                  <path id="Trazado_132137" data-name="Trazado 132137" d="M633.638,801.91l-1.349-.786.025,9.134,1.35.785Z" transform="translate(-632.288 -801.125)" fill="#2e3545"/>
                </g>
                <g id="Grupo_91772" data-name="Grupo 91772" transform="translate(16.967 9.767)">
                  <path id="Trazado_132138" data-name="Trazado 132138" d="M634.489,802.4l-1.349-.785.026,9.134,1.35.784Z" transform="translate(-633.14 -801.616)" fill="gray"/>
                </g>
                <g id="Grupo_91773" data-name="Grupo 91773" transform="translate(15.976 10.339)">
                  <path id="Trazado_132139" data-name="Trazado 132139" d="M635.87,803.2l-1.35-.785.026,9.133,1.35.784Z" transform="translate(-634.52 -802.414)" fill="#2e3545"/>
                </g>
                <g id="Grupo_91774" data-name="Grupo 91774" transform="translate(15.366 10.692)">
                  <path id="Trazado_132140" data-name="Trazado 132140" d="M636.716,803.689l-1.35-.785.03,10.539,1.349.785Z" transform="translate(-635.366 -802.904)" fill="gray"/>
                </g>
                <g id="Grupo_91775" data-name="Grupo 91775" transform="translate(14.376 11.264)">
                  <path id="Trazado_132141" data-name="Trazado 132141" d="M638.1,804.486l-1.35-.785.03,10.538,1.349.785Z" transform="translate(-636.746 -803.702)" fill="#2e3545"/>
                </g>
                <g id="Grupo_91776" data-name="Grupo 91776" transform="translate(12.798 20.75)">
                  <path id="Trazado_132142" data-name="Trazado 132142" d="M639.944,817.7l-1.35-.784-.991.572,1.351.784Z" transform="translate(-637.603 -816.918)" fill="#acacac"/>
                </g>
                <g id="Grupo_91777" data-name="Grupo 91777" transform="translate(20.783 6.992)">
                  <path id="Trazado_132143" data-name="Trazado 132143" d="M628.821,798.536l-1.35-.785-.991.572,1.35.785Z" transform="translate(-626.481 -797.751)" fill="#3d475d"/>
                </g>
                <g id="Grupo_91778" data-name="Grupo 91778" transform="translate(22.133 7.777)">
                  <path id="Trazado_132144" data-name="Trazado 132144" d="M626.445,799.416l.025,9.135.99-.572-.026-9.134Z" transform="translate(-626.445 -798.844)" fill="#4f5b77"/>
                </g>
                <g id="Grupo_91779" data-name="Grupo 91779" transform="translate(11.197 21.675)">
                  <path id="Trazado_132145" data-name="Trazado 132145" d="M642.175,818.99l-1.349-.784-.991.572,1.349.785Z" transform="translate(-639.835 -818.206)" fill="#acacac"/>
                </g>
                <g id="Grupo_91780" data-name="Grupo 91780" transform="translate(19.18 7.917)">
                  <path id="Trazado_132146" data-name="Trazado 132146" d="M631.053,799.825l-1.35-.785-.99.572,1.35.785Z" transform="translate(-628.712 -799.04)" fill="#3d475d"/>
                </g>
                <g id="Grupo_91781" data-name="Grupo 91781" transform="translate(9.595 22.6)">
                  <path id="Trazado_132147" data-name="Trazado 132147" d="M644.407,820.279l-1.349-.785-.991.571,1.351.785Z" transform="translate(-642.067 -819.495)" fill="#acacac"/>
                </g>
                <g id="Grupo_91782" data-name="Grupo 91782" transform="translate(17.579 8.842)">
                  <path id="Trazado_132148" data-name="Trazado 132148" d="M633.285,801.112l-1.349-.784-.992.571,1.35.784Z" transform="translate(-630.944 -800.328)" fill="#3d475d"/>
                </g>
                <g id="Grupo_91783" data-name="Grupo 91783" transform="translate(7.997 24.93)">
                  <path id="Trazado_132149" data-name="Trazado 132149" d="M646.633,823.526l-1.35-.785-.99.572,1.349.785Z" transform="translate(-644.293 -822.741)" fill="#acacac"/>
                </g>
                <g id="Grupo_91784" data-name="Grupo 91784" transform="translate(15.977 9.767)">
                  <path id="Trazado_132150" data-name="Trazado 132150" d="M635.516,802.4l-1.349-.784-.991.572,1.35.784Z" transform="translate(-633.176 -801.617)" fill="#3d475d"/>
                </g>
                <g id="Grupo_91785" data-name="Grupo 91785" transform="translate(17.327 10.552)">
                  <path id="Trazado_132151" data-name="Trazado 132151" d="M633.14,803.281l.027,9.134.99-.572-.026-9.134Z" transform="translate(-633.14 -802.709)" fill="#4f5b77"/>
                </g>
                <g id="Grupo_91786" data-name="Grupo 91786" transform="translate(13.763 11.616)">
                  <path id="Trazado_132152" data-name="Trazado 132152" d="M638.953,804.978l-1.35-.785.026,9.132,1.35.784Z" transform="translate(-637.603 -804.193)" fill="gray"/>
                </g>
                <g id="Grupo_91787" data-name="Grupo 91787" transform="translate(12.773 12.189)">
                  <path id="Trazado_132153" data-name="Trazado 132153" d="M640.333,805.775l-1.35-.785.026,9.133,1.35.784Z" transform="translate(-638.983 -804.99)" fill="#2e3545"/>
                </g>
                <g id="Grupo_91788" data-name="Grupo 91788" transform="translate(12.162 12.541)">
                  <path id="Trazado_132154" data-name="Trazado 132154" d="M641.185,806.266l-1.35-.785.027,9.133,1.349.785Z" transform="translate(-639.835 -805.482)" fill="gray"/>
                </g>
                <g id="Grupo_91789" data-name="Grupo 91789" transform="translate(11.171 13.114)">
                  <path id="Trazado_132155" data-name="Trazado 132155" d="M642.564,807.063l-1.349-.785.025,9.134,1.351.785Z" transform="translate(-641.215 -806.279)" fill="#2e3545"/>
                </g>
                <g id="Grupo_91790" data-name="Grupo 91790" transform="translate(10.56 13.466)">
                  <path id="Trazado_132156" data-name="Trazado 132156" d="M643.416,807.555l-1.349-.785.026,9.134,1.349.784Z" transform="translate(-642.067 -806.77)" fill="gray"/>
                </g>
                <g id="Grupo_91791" data-name="Grupo 91791" transform="translate(9.569 14.038)">
                  <path id="Trazado_132157" data-name="Trazado 132157" d="M644.8,808.352l-1.35-.785.026,9.133,1.35.785Z" transform="translate(-643.447 -807.567)" fill="#2e3545"/>
                </g>
                <g id="Grupo_91792" data-name="Grupo 91792" transform="translate(8.958 14.391)">
                  <path id="Trazado_132158" data-name="Trazado 132158" d="M645.642,808.843l-1.349-.785.029,10.539,1.35.785Z" transform="translate(-644.293 -808.059)" fill="gray"/>
                </g>
                <g id="Grupo_91793" data-name="Grupo 91793" transform="translate(7.967 14.963)">
                  <path id="Trazado_132159" data-name="Trazado 132159" d="M647.024,809.641l-1.351-.786.03,10.539,1.349.785Z" transform="translate(-645.673 -808.855)" fill="#2e3545"/>
                </g>
                <g id="Grupo_91794" data-name="Grupo 91794" transform="translate(6.391 24.449)">
                  <path id="Trazado_132160" data-name="Trazado 132160" d="M648.87,822.856l-1.349-.785-.991.572,1.35.784Z" transform="translate(-646.53 -822.072)" fill="#acacac"/>
                </g>
                <g id="Grupo_91795" data-name="Grupo 91795" transform="translate(15.725 11.476)">
                  <path id="Trazado_132161" data-name="Trazado 132161" d="M635.366,804.57l.03,10.538.991-.571L636.357,804Z" transform="translate(-635.366 -803.998)" fill="#4f5b77"/>
                </g>
                <g id="Grupo_91796" data-name="Grupo 91796" transform="translate(14.375 10.692)">
                  <path id="Trazado_132162" data-name="Trazado 132162" d="M637.748,803.69l-1.35-.785-.99.572,1.35.785Z" transform="translate(-635.408 -802.905)" fill="#3d475d"/>
                </g>
                <g id="Grupo_91797" data-name="Grupo 91797" transform="translate(4.789 25.374)">
                  <path id="Trazado_132163" data-name="Trazado 132163" d="M651.1,824.144l-1.35-.785-.99.57,1.35.786Z" transform="translate(-648.762 -823.36)" fill="#acacac"/>
                </g>
                <g id="Grupo_91798" data-name="Grupo 91798" transform="translate(12.773 11.617)">
                  <path id="Trazado_132164" data-name="Trazado 132164" d="M639.98,804.978l-1.35-.784-.991.572,1.349.785Z" transform="translate(-637.64 -804.194)" fill="#3d475d"/>
                </g>
                <g id="Grupo_91799" data-name="Grupo 91799" transform="translate(14.123 12.401)">
                  <path id="Trazado_132165" data-name="Trazado 132165" d="M637.6,805.859l.026,9.133.99-.572-.026-9.133Z" transform="translate(-637.604 -805.287)" fill="#4f5b77"/>
                </g>
                <g id="Grupo_91800" data-name="Grupo 91800" transform="translate(3.191 27.704)">
                  <path id="Trazado_132166" data-name="Trazado 132166" d="M653.329,827.391l-1.349-.784-.992.572,1.351.784Z" transform="translate(-650.988 -826.606)" fill="#acacac"/>
                </g>
                <g id="Grupo_91801" data-name="Grupo 91801" transform="translate(11.17 12.542)">
                  <path id="Trazado_132167" data-name="Trazado 132167" d="M642.212,806.267l-1.349-.785-.991.572,1.35.785Z" transform="translate(-639.871 -805.482)" fill="#3d475d"/>
                </g>
                <g id="Grupo_91802" data-name="Grupo 91802" transform="translate(10.918 14.251)">
                  <path id="Trazado_132168" data-name="Trazado 132168" d="M642.067,808.435l.027,9.134.99-.572-.025-9.134Z" transform="translate(-642.067 -807.864)" fill="#4f5b77"/>
                </g>
                <g id="Grupo_91803" data-name="Grupo 91803" transform="translate(9.569 13.467)">
                  <path id="Trazado_132169" data-name="Trazado 132169" d="M644.443,807.555l-1.35-.784-.991.572,1.35.784Z" transform="translate(-642.103 -806.77)" fill="#3d475d"/>
                </g>
                <g id="Grupo_91804" data-name="Grupo 91804" transform="translate(7.967 14.391)">
                  <path id="Trazado_132170" data-name="Trazado 132170" d="M646.675,808.843l-1.349-.784-.991.572,1.351.785Z" transform="translate(-644.334 -808.059)" fill="#3d475d"/>
                </g>
                <g id="Grupo_91805" data-name="Grupo 91805" transform="translate(9.318 15.176)">
                  <path id="Trazado_132171" data-name="Trazado 132171" d="M644.293,809.723l.03,10.539.99-.572-.03-10.539Z" transform="translate(-644.293 -809.152)" fill="#4f5b77"/>
                </g>
                <g id="Grupo_91806" data-name="Grupo 91806" transform="translate(7.357 15.316)">
                  <path id="Trazado_132172" data-name="Trazado 132172" d="M647.88,810.132l-1.35-.785.026,9.133,1.35.785Z" transform="translate(-646.53 -809.347)" fill="gray"/>
                </g>
                <g id="Grupo_91807" data-name="Grupo 91807" transform="translate(6.366 15.888)">
                  <path id="Trazado_132173" data-name="Trazado 132173" d="M649.26,810.929l-1.349-.785.026,9.133,1.349.784Z" transform="translate(-647.911 -810.145)" fill="#2e3545"/>
                </g>
                <g id="Grupo_91808" data-name="Grupo 91808" transform="translate(6.365 15.316)">
                  <path id="Trazado_132174" data-name="Trazado 132174" d="M648.907,810.132l-1.35-.784-.99.572,1.349.785Z" transform="translate(-646.567 -809.348)" fill="#3d475d"/>
                </g>
                <g id="Grupo_91809" data-name="Grupo 91809" transform="translate(5.754 16.241)">
                  <path id="Trazado_132175" data-name="Trazado 132175" d="M650.111,811.419l-1.349-.784.025,9.134,1.35.785Z" transform="translate(-648.762 -810.635)" fill="gray"/>
                </g>
                <g id="Grupo_91810" data-name="Grupo 91810" transform="translate(4.764 16.813)">
                  <path id="Trazado_132176" data-name="Trazado 132176" d="M651.491,812.218l-1.349-.785.026,9.133,1.349.784Z" transform="translate(-650.142 -811.433)" fill="#2e3545"/>
                </g>
                <g id="Grupo_91811" data-name="Grupo 91811" transform="translate(6.113 17.026)">
                  <path id="Trazado_132177" data-name="Trazado 132177" d="M648.762,812.3l.026,9.133.991-.572-.026-9.133Z" transform="translate(-648.762 -811.729)" fill="#4f5b77"/>
                </g>
                <g id="Grupo_91812" data-name="Grupo 91812" transform="translate(4.763 16.241)">
                  <path id="Trazado_132178" data-name="Trazado 132178" d="M651.139,811.42l-1.349-.784-.991.572,1.35.784Z" transform="translate(-648.798 -810.636)" fill="#3d475d"/>
                </g>
                <g id="Grupo_91813" data-name="Grupo 91813" transform="translate(4.152 17.166)">
                  <path id="Trazado_132179" data-name="Trazado 132179" d="M652.339,812.708l-1.351-.784.031,10.538,1.349.785Z" transform="translate(-650.988 -811.924)" fill="gray"/>
                </g>
                <g id="Grupo_91814" data-name="Grupo 91814" transform="translate(3.162 17.166)">
                  <path id="Trazado_132180" data-name="Trazado 132180" d="M653.371,812.709l-1.349-.785-.991.572,1.35.785Z" transform="translate(-651.03 -811.924)" fill="#3d475d"/>
                </g>
                <g id="Grupo_91815" data-name="Grupo 91815" transform="translate(3.162 17.738)">
                  <path id="Trazado_132181" data-name="Trazado 132181" d="M653.719,813.506l-1.35-.785.03,10.539,1.35.784Z" transform="translate(-652.369 -812.722)" fill="#2e3545"/>
                </g>
                <g id="Grupo_91816" data-name="Grupo 91816" transform="translate(1.35 0.784)">
                  <path id="Trazado_132182" data-name="Trazado 132182" d="M645.024,789.1l-29.837,17.227.043,14.908,29.835-17.226Zm-21.84,25.5-.03-10.538.991-.572.031,10.539-.991.571Zm17.621-10.173-.03-10.539.991-.573.029,10.539-.99.572ZM629.592,810.9l-.031-10.539.991-.571.03,10.539-.99.572Zm-11.214,6.474-.029-10.539.99-.572.03,10.538-.991.572Zm14.414-9.728-.026-9.134.99-.572.025,9.134-.99.572Zm-12.816,7.4-.026-9.133.99-.572.026,9.133-.99.572Zm1.6-.925-.027-9.132.991-.573.026,9.134-.991.571Zm6.407-3.7-.025-9.133.991-.572.026,9.134-.991.571Zm-1.6.925-.026-9.134.991-.572.026,9.134-.991.571Zm12.815-7.4-.026-9.134.991-.572.026,9.134-.991.572Zm-4.806,2.774-.025-9.133.99-.572.025,9.133-.991.572Zm1.6-.924-.026-9.133.991-.573.025,9.133-.99.572Zm-4.8,2.774-.026-9.132.989-.573L632.18,808l-.989.571Zm6.407-3.7-.025-9.133.99-.572.026,9.134-.99.571Zm-12.815,7.4-.027-9.133.991-.572.025,9.133-.99.572Z" transform="translate(-615.187 -789.102)" fill="#ddd"/>
                </g>
                <g id="Grupo_91817" data-name="Grupo 91817" transform="translate(20.531 8.702)">
                  <path id="Trazado_132183" data-name="Trazado 132183" d="M628.676,800.7l.026,9.133.99-.571-.025-9.134Z" transform="translate(-628.676 -800.132)" fill="#4f5b77"/>
                </g>
                <g id="Grupo_91818" data-name="Grupo 91818" transform="translate(18.929 9.627)">
                  <path id="Trazado_132184" data-name="Trazado 132184" d="M630.908,801.993l.026,9.133.99-.573-.025-9.133Z" transform="translate(-630.908 -801.421)" fill="#4f5b77"/>
                </g>
                <g id="Grupo_91819" data-name="Grupo 91819" transform="translate(12.521 13.326)">
                  <path id="Trazado_132185" data-name="Trazado 132185" d="M639.835,807.147l.026,9.133.991-.571-.027-9.133Z" transform="translate(-639.835 -806.575)" fill="#4f5b77"/>
                </g>
                <g id="Grupo_91820" data-name="Grupo 91820" transform="translate(7.715 16.101)">
                  <path id="Trazado_132186" data-name="Trazado 132186" d="M646.531,811.012l.025,9.134.991-.572-.026-9.133Z" transform="translate(-646.531 -810.44)" fill="#4f5b77"/>
                </g>
                <g id="Grupo_91821" data-name="Grupo 91821" transform="translate(4.512 17.95)">
                  <path id="Trazado_132187" data-name="Trazado 132187" d="M650.988,813.59l.03,10.538.99-.572-.029-10.538Z" transform="translate(-650.988 -813.018)" fill="#4f5b77"/>
                </g>
                <g id="Grupo_91822" data-name="Grupo 91822">
                  <path id="Trazado_132188" data-name="Trazado 132188" d="M646.433,788.794l-1.349-.785-29.838,17.227,1.35.785Z" transform="translate(-615.246 -788.01)" fill="#acacac"/>
                </g>
                <g id="Grupo_91823" data-name="Grupo 91823" transform="translate(0.001 17.227)">
                  <path id="Trazado_132189" data-name="Trazado 132189" d="M658.106,812.793l-1.35-.784.042,14.909,1.349.785Z" transform="translate(-656.756 -812.009)" fill="gray"/>
                </g>
              </g>
            </g>
            <g id="Grupo_91845" data-name="Grupo 91845" transform="translate(0.002)">
              <g id="Grupo_91844" data-name="Grupo 91844" transform="translate(0)" style="isolation: isolate">
                <g id="Grupo_91826" data-name="Grupo 91826" transform="translate(27.333 11.452)">
                  <path id="Trazado_132190" data-name="Trazado 132190" d="M620.076,778.469l-1.35-.785,0,1.42,1.349.784Z" transform="translate(-618.726 -777.685)" fill="#868686"/>
                </g>
                <g id="Grupo_91827" data-name="Grupo 91827" transform="translate(27.318 5.86)">
                  <path id="Trazado_132191" data-name="Trazado 132191" d="M620.1,770.679l-1.35-.785,0,1.419,1.349.785Z" transform="translate(-618.748 -769.894)" fill="#868686"/>
                </g>
                <g id="Grupo_91828" data-name="Grupo 91828" transform="translate(27.311 3.64)">
                  <path id="Trazado_132192" data-name="Trazado 132192" d="M620.107,767.585l-1.35-.785,0,1.419,1.35.785Z" transform="translate(-618.757 -766.801)" fill="#868686"/>
                </g>
                <g id="Grupo_91829" data-name="Grupo 91829" transform="translate(16.871 12.871)">
                  <path id="Trazado_132193" data-name="Trazado 132193" d="M630.542,780.447l-1.35-.785-10.467,6.044,1.349.785Z" transform="translate(-618.726 -779.662)" fill="#b4b4b4"/>
                </g>
                <g id="Grupo_91830" data-name="Grupo 91830" transform="translate(16.866 17.496)">
                  <path id="Trazado_132194" data-name="Trazado 132194" d="M634.659,786.889l-1.35-.785,0,1.419,1.35.785Z" transform="translate(-633.309 -786.105)" fill="#303748"/>
                </g>
                <g id="Grupo_91831" data-name="Grupo 91831" transform="translate(16.866 11.452)">
                  <path id="Trazado_132195" data-name="Trazado 132195" d="M630.548,778.469l-1.349-.784-10.468,6.044,1.35.785Z" transform="translate(-618.731 -777.685)" fill="#404a60"/>
                </g>
                <g id="Grupo_91832" data-name="Grupo 91832" transform="translate(16.855 7.279)">
                  <path id="Trazado_132196" data-name="Trazado 132196" d="M630.564,772.657l-1.349-.785-10.468,6.045,1.35.784Z" transform="translate(-618.748 -771.871)" fill="#b4b4b4"/>
                </g>
                <g id="Grupo_91833" data-name="Grupo 91833" transform="translate(16.849 5.86)">
                  <path id="Trazado_132197" data-name="Trazado 132197" d="M630.571,770.679l-1.35-.785-10.468,6.044,1.35.785Z" transform="translate(-618.753 -769.894)" fill="#404a60"/>
                </g>
                <g id="Grupo_91834" data-name="Grupo 91834" transform="translate(16.851 11.903)">
                  <path id="Trazado_132198" data-name="Trazado 132198" d="M634.681,779.1l-1.35-.784,0,1.419,1.349.786Z" transform="translate(-633.331 -778.314)" fill="#303748"/>
                </g>
                <g id="Grupo_91835" data-name="Grupo 91835" transform="translate(10.061 5.059)">
                  <path id="Trazado_132199" data-name="Trazado 132199" d="M637.361,769.562l-1.35-.784-17.254,9.961,1.35.785Z" transform="translate(-618.757 -768.778)" fill="#b4b4b4"/>
                </g>
                <g id="Grupo_91836" data-name="Grupo 91836" transform="translate(10.058 3.64)">
                  <path id="Trazado_132200" data-name="Trazado 132200" d="M637.365,767.585l-1.349-.784-17.254,9.962,1.349.784Z" transform="translate(-618.762 -766.801)" fill="#404a60"/>
                </g>
                <g id="Grupo_91837" data-name="Grupo 91837" transform="translate(10.058 13.602)">
                  <path id="Trazado_132201" data-name="Trazado 132201" d="M644.145,781.464l-1.35-.785,0,1.42,1.349.785Z" transform="translate(-642.795 -780.68)" fill="#303748"/>
                </g>
                <g id="Grupo_91838" data-name="Grupo 91838" transform="translate(1.35 0.785)">
                  <path id="Trazado_132202" data-name="Trazado 132202" d="M645.026,762.823,615.189,780.05l.04,13.952,29.837-17.226Zm-19.775,15.021,0-1.419,17.254-9.961,0,1.42-17.254,9.96Zm6.794-1.7,0-1.42,10.468-6.042,0,1.419-10.466,6.043Zm.015,5.592,0-1.419,10.468-6.042,0,1.418-10.468,6.043Z" transform="translate(-615.189 -762.823)" fill="#e9e9e9"/>
                </g>
                <g id="Grupo_91839" data-name="Grupo 91839" transform="translate(18.216 12.237)">
                  <path id="Trazado_132203" data-name="Trazado 132203" d="M618.726,784.822l0,1.419L629.2,780.2l0-1.418Z" transform="translate(-618.726 -778.778)" fill="#53607d"/>
                </g>
                <g id="Grupo_91840" data-name="Grupo 91840" transform="translate(18.2 6.644)">
                  <path id="Trazado_132204" data-name="Trazado 132204" d="M618.748,777.03l0,1.419,10.467-6.042,0-1.42Z" transform="translate(-618.748 -770.986)" fill="#53607d"/>
                </g>
                <g id="Grupo_91841" data-name="Grupo 91841" transform="translate(11.407 4.424)">
                  <path id="Trazado_132205" data-name="Trazado 132205" d="M618.757,777.856l0,1.419,17.255-9.963,0-1.419Z" transform="translate(-618.757 -767.894)" fill="#53607d"/>
                </g>
                <g id="Grupo_91842" data-name="Grupo 91842">
                  <path id="Trazado_132206" data-name="Trazado 132206" d="M646.43,762.515l-1.35-.785-29.837,17.227,1.349.785Z" transform="translate(-615.244 -761.73)" fill="#b4b4b4"/>
                </g>
                <g id="Grupo_91843" data-name="Grupo 91843" transform="translate(0 17.227)">
                  <path id="Trazado_132207" data-name="Trazado 132207" d="M658.107,786.514l-1.35-.784.039,13.954,1.35.785Z" transform="translate(-656.757 -785.73)" fill="#868686"/>
                </g>
              </g>
            </g>
          </g>
        </g>
      </g>
      <g id="Grupo_103035" data-name="Grupo 103035" transform="translate(755.866 3604.3)">
        <g id="Grupo_103028" data-name="Grupo 103028" transform="translate(128.134 323.377)">
          <g id="Grupo_103027" data-name="Grupo 103027">
            <g id="Grupo_103026" data-name="Grupo 103026">
              <path id="Trazado_161177" data-name="Trazado 161177" d="M128.134,346.778a6.862,6.862,0,0,0,2.432,5.133,9.8,9.8,0,0,0,1.6,1.178,16.1,16.1,0,0,0,8.567,1.993c3.046-.038,6.888-1.153,9.144-3.416a7.683,7.683,0,0,0,1.73-2.607,6.689,6.689,0,0,0,.332-1.229,8.556,8.556,0,0,0,.081-.984l.006-2.77c0-1,.006-2.018.006-3.058.025-9.038.019-19.516.031-24.2l.006-2.77a10.038,10.038,0,0,0-.6-3.428A10.2,10.2,0,0,0,148.1,306c-6.092-1.63-10.3-1.955-15.888-.056a10.257,10.257,0,0,0-4.024,8.041l-.05,32.8Z" transform="translate(-128.134 -304.041)" fill="#451991"/>
              <path id="Trazado_161178" data-name="Trazado 161178" d="M132.152,311.257a11.151,11.151,0,0,1,.407-3.115,4,4,0,0,1-1.742-2.983,9.169,9.169,0,0,0-2.451,6.1l-.05,32.784a5.765,5.765,0,0,0,2.062,4.306,9.2,9.2,0,0,0,1.435,1.047c.144.094.326.157.483.245-.125-1.109-.188-2.05-.194-2.538Z" transform="translate(-127.175 -301.317)" fill="#451991" style="mix-blend-mode: screen;isolation: isolate"/>
              <g id="Grupo_103023" data-name="Grupo 103023" transform="translate(0 42.737)" style="isolation: isolate">
                <path id="Trazado_161179" data-name="Trazado 161179" d="M132.17,317.676c-3.3-2.024-4.017-4.55-4.036-6.311-.006,1.742,1.116,3.491,3.378,4.845,4.6,2.745,12.159,2.82,16.89.169,2.407-1.348,3.616-3.146,3.622-4.945-.357,8.267-13.381,10.222-19.855,6.242Z" transform="translate(-128.134 -311.365)" fill="#451991"/>
              </g>
              <g id="Grupo_103024" data-name="Grupo 103024" transform="translate(4.926 2.664)" style="isolation: isolate">
                <path id="Trazado_161180" data-name="Trazado 161180" d="M143.1,305.008v.489a3.558,3.558,0,0,1-2.15,2.939,11.079,11.079,0,0,1-10.034-.1,3.49,3.49,0,0,1-2-2.877v-.489a6.43,6.43,0,0,0,1.009.727,9.237,9.237,0,0,0,2.087.915,11.6,11.6,0,0,0,7.847.069,10.277,10.277,0,0,0,2.074-.859A6.48,6.48,0,0,0,143.1,305.008Z" transform="translate(-128.92 -304.971)" fill="#451991"/>
              </g>
              <g id="Grupo_103025" data-name="Grupo 103025" transform="translate(20.438)" style="isolation: isolate">
                <path id="Trazado_161181" data-name="Trazado 161181" d="M131.477,304.546a2.545,2.545,0,0,1-.081.652A3.631,3.631,0,0,0,131.477,304.546Z" transform="translate(-131.395 -304.546)" fill="#451991"/>
              </g>
            </g>
          </g>
          <path id="Trazado_161182" data-name="Trazado 161182" d="M144.268,307.285c-1.8,2.607-5.678,3.873-9.069,3.9a14.007,14.007,0,0,1-5.76-1.1v10.492a14.011,14.011,0,0,0,5.76,1.1c3.384-.031,7.258-1.291,9.069-3.892Z" transform="translate(-121.255 -290.119)" fill="#451991"/>
        </g>
        <path id="Trazado_161183" data-name="Trazado 161183" d="M147.738,309.946c0,1.417-.94,2.833-2.814,3.917a15,15,0,0,1-13.569,0c-1.88-1.084-2.814-2.5-2.814-3.917s.934-2.839,2.814-3.917a15,15,0,0,1,13.569,0C146.8,307.107,147.738,308.53,147.738,309.946Z" transform="translate(2.144 18.1)" fill="#7b9aab"/>
        <g id="Grupo_103034" data-name="Grupo 103034" transform="translate(131.399 300.971)">
          <g id="Grupo_103029" data-name="Grupo 103029" transform="translate(0 11.256)">
            <path id="Trazado_161184" data-name="Trazado 161184" d="M146.423,307.9v9.777c0,1.316-.865,2.632-2.6,3.629a13.875,13.875,0,0,1-12.566,0c-1.736-1-2.6-2.313-2.6-3.629V307.9c0-1.316.865-2.626,2.6-3.629a13.875,13.875,0,0,1,12.566,0C145.558,305.274,146.423,306.584,146.423,307.9Z" transform="translate(-128.655 -302.767)" fill="#a7c2d1"/>
            <path id="Trazado_161185" data-name="Trazado 161185" d="M146.423,307.9c0,1.31-.865,2.62-2.6,3.629a13.913,13.913,0,0,1-12.566,0c-1.736-1.009-2.6-2.319-2.6-3.629s.865-2.626,2.6-3.629a13.875,13.875,0,0,1,12.566,0C145.558,305.274,146.423,306.584,146.423,307.9Z" transform="translate(-128.655 -302.767)" fill="#fff"/>
          </g>
          <g id="Grupo_103030" data-name="Grupo 103030" transform="translate(1.843 6.885)">
            <path id="Trazado_161186" data-name="Trazado 161186" d="M143.032,306.14v5.233a3.5,3.5,0,0,1-2.062,2.877,11.02,11.02,0,0,1-9.959,0,3.5,3.5,0,0,1-2.062-2.877V306.14a3.509,3.509,0,0,1,2.062-2.877,10.98,10.98,0,0,1,9.959,0A3.509,3.509,0,0,1,143.032,306.14Z" transform="translate(-128.949 -302.069)" fill="#a7c2d1"/>
            <path id="Trazado_161187" data-name="Trazado 161187" d="M143.032,306.14a3.5,3.5,0,0,1-2.062,2.87,10.98,10.98,0,0,1-9.959,0,3.033,3.033,0,0,1,0-5.747,10.98,10.98,0,0,1,9.959,0A3.509,3.509,0,0,1,143.032,306.14Z" transform="translate(-128.949 -302.069)" fill="#fff"/>
          </g>
          <g id="Grupo_103031" data-name="Grupo 103031" transform="translate(3.911)">
            <path id="Trazado_161188" data-name="Trazado 161188" d="M139.225,303.841v8.179a2.474,2.474,0,0,1-1.46,2.031,7.767,7.767,0,0,1-7.032,0,2.478,2.478,0,0,1-1.454-2.031v-8.179a2.47,2.47,0,0,1,1.454-2.024,7.728,7.728,0,0,1,7.032,0A2.466,2.466,0,0,1,139.225,303.841Z" transform="translate(-129.279 -300.971)" fill="#a7c2d1"/>
            <path id="Trazado_161189" data-name="Trazado 161189" d="M139.225,303.841a2.474,2.474,0,0,1-1.46,2.031,7.766,7.766,0,0,1-7.032,0,2.141,2.141,0,0,1,0-4.055,7.728,7.728,0,0,1,7.032,0A2.466,2.466,0,0,1,139.225,303.841Z" transform="translate(-129.279 -300.971)" fill="#dcf1fa"/>
          </g>
          <g id="Grupo_103032" data-name="Grupo 103032" transform="translate(18.213 40.241)">
            <path id="Trazado_161190" data-name="Trazado 161190" d="M134.626,308.277V312.2a.751.751,0,0,1-.451.62,2.352,2.352,0,0,1-2.162,0,.752.752,0,0,1-.451-.62v-3.923a.768.768,0,0,1,.451-.627,2.389,2.389,0,0,1,2.162,0A.767.767,0,0,1,134.626,308.277Z" transform="translate(-131.561 -307.392)" fill="#7b9aab"/>
            <path id="Trazado_161191" data-name="Trazado 161191" d="M134.626,308.277a.767.767,0,0,1-.451.627,2.39,2.39,0,0,1-2.162,0,.661.661,0,0,1,0-1.253,2.389,2.389,0,0,1,2.162,0A.767.767,0,0,1,134.626,308.277Z" transform="translate(-131.561 -307.392)" fill="#fff"/>
          </g>
          <g id="Grupo_103033" data-name="Grupo 103033" transform="translate(18.871 12.64)">
            <path id="Trazado_161192" data-name="Trazado 161192" d="M133.415,303.491v27.865a.434.434,0,0,1-.257.357,1.381,1.381,0,0,1-1.235,0,.434.434,0,0,1-.257-.357V303.491a.434.434,0,0,1,.257-.357,1.381,1.381,0,0,1,1.235,0A.434.434,0,0,1,133.415,303.491Z" transform="translate(-131.666 -302.988)" fill="#dcf1fa"/>
            <path id="Trazado_161193" data-name="Trazado 161193" d="M133.415,303.491a.418.418,0,0,1-.257.357,1.341,1.341,0,0,1-1.235,0,.418.418,0,0,1-.257-.357.434.434,0,0,1,.257-.357,1.381,1.381,0,0,1,1.235,0A.434.434,0,0,1,133.415,303.491Z" transform="translate(-131.666 -302.988)" fill="#dcf1fa"/>
          </g>
          <path id="Trazado_161194" data-name="Trazado 161194" d="M130.269,301.99v3.25l10.748,4.766v-1.763Z" transform="translate(-120.155 -295.604)" fill="#7b9aab"/>
          <path id="Trazado_161195" data-name="Trazado 161195" d="M130.845,301.628v3.25l8.4,6.391v-1.762Z" transform="translate(-117.12 -297.51)" fill="#a7c2d1"/>
          <path id="Trazado_161196" data-name="Trazado 161196" d="M130.269,303.9c1.818-.4,3.19-1.065,3.61-2.269l8.4,7.878-1.266.646Z" transform="translate(-120.154 -297.51)" fill="#dcf1fa"/>
          <path id="Trazado_161197" data-name="Trazado 161197" d="M131.984,305.291v-1.763l1.263-.643v1.762Z" transform="translate(-111.121 -290.889)" fill="#dcf1fa"/>
        </g>
      </g>
      <g id="Grupo_103037" data-name="Grupo 103037" transform="translate(797.525 3583.805)">
        <g id="Grupo_103028-2" data-name="Grupo 103028" transform="translate(128.134 323.377)">
          <g id="Grupo_103027-2" data-name="Grupo 103027">
            <g id="Grupo_103026-2" data-name="Grupo 103026">
              <path id="Trazado_161177-2" data-name="Trazado 161177" d="M128.134,346.778a6.862,6.862,0,0,0,2.432,5.133,9.8,9.8,0,0,0,1.6,1.178,16.1,16.1,0,0,0,8.567,1.993c3.046-.038,6.888-1.153,9.144-3.416a7.683,7.683,0,0,0,1.73-2.607,6.689,6.689,0,0,0,.332-1.229,8.556,8.556,0,0,0,.081-.984l.006-2.77c0-1,.006-2.018.006-3.058.025-9.038.019-19.516.031-24.2l.006-2.77a10.038,10.038,0,0,0-.6-3.428A10.2,10.2,0,0,0,148.1,306c-6.092-1.63-10.3-1.955-15.888-.056a10.257,10.257,0,0,0-4.024,8.041l-.05,32.8Z" transform="translate(-128.134 -304.041)" fill="#f739a8"/>
              <path id="Trazado_161178-2" data-name="Trazado 161178" d="M132.152,311.257a11.151,11.151,0,0,1,.407-3.115,4,4,0,0,1-1.742-2.983,9.169,9.169,0,0,0-2.451,6.1l-.05,32.784a5.765,5.765,0,0,0,2.062,4.306,9.2,9.2,0,0,0,1.435,1.047c.144.094.326.157.483.245-.125-1.109-.188-2.05-.194-2.538Z" transform="translate(-127.175 -301.317)" fill="#f739a8" style="mix-blend-mode: screen;isolation: isolate"/>
              <g id="Grupo_103023-2" data-name="Grupo 103023" transform="translate(0 42.737)" style="isolation: isolate">
                <path id="Trazado_161179-2" data-name="Trazado 161179" d="M132.17,317.676c-3.3-2.024-4.017-4.55-4.036-6.311-.006,1.742,1.116,3.491,3.378,4.845,4.6,2.745,12.159,2.82,16.89.169,2.407-1.348,3.616-3.146,3.622-4.945-.357,8.267-13.381,10.222-19.855,6.242Z" transform="translate(-128.134 -311.365)" fill="#f739a8"/>
              </g>
              <g id="Grupo_103024-2" data-name="Grupo 103024" transform="translate(4.926 2.664)" style="isolation: isolate">
                <path id="Trazado_161180-2" data-name="Trazado 161180" d="M143.1,305.008v.489a3.558,3.558,0,0,1-2.15,2.939,11.079,11.079,0,0,1-10.034-.1,3.49,3.49,0,0,1-2-2.877v-.489a6.43,6.43,0,0,0,1.009.727,9.237,9.237,0,0,0,2.087.915,11.6,11.6,0,0,0,7.847.069,10.277,10.277,0,0,0,2.074-.859A6.48,6.48,0,0,0,143.1,305.008Z" transform="translate(-128.92 -304.971)" fill="#f739a8"/>
              </g>
              <g id="Grupo_103025-2" data-name="Grupo 103025" transform="translate(20.438)" style="isolation: isolate">
                <path id="Trazado_161181-2" data-name="Trazado 161181" d="M131.477,304.546a2.545,2.545,0,0,1-.081.652A3.631,3.631,0,0,0,131.477,304.546Z" transform="translate(-131.395 -304.546)" fill="#f739a8"/>
              </g>
            </g>
          </g>
          <path id="Trazado_161182-2" data-name="Trazado 161182" d="M144.268,307.285c-1.8,2.607-5.678,3.873-9.069,3.9a14.007,14.007,0,0,1-5.76-1.1v10.492a14.011,14.011,0,0,0,5.76,1.1c3.384-.031,7.258-1.291,9.069-3.892Z" transform="translate(-121.255 -290.119)" fill="#f739a8"/>
        </g>
        <path id="Trazado_161183-2" data-name="Trazado 161183" d="M147.738,309.946c0,1.417-.94,2.833-2.814,3.917a15,15,0,0,1-13.569,0c-1.88-1.084-2.814-2.5-2.814-3.917s.934-2.839,2.814-3.917a15,15,0,0,1,13.569,0C146.8,307.107,147.738,308.53,147.738,309.946Z" transform="translate(2.144 18.1)" fill="#7b9aab"/>
        <g id="Grupo_103034-2" data-name="Grupo 103034" transform="translate(131.399 300.971)">
          <g id="Grupo_103029-2" data-name="Grupo 103029" transform="translate(0 11.256)">
            <path id="Trazado_161184-2" data-name="Trazado 161184" d="M146.423,307.9v9.777c0,1.316-.865,2.632-2.6,3.629a13.875,13.875,0,0,1-12.566,0c-1.736-1-2.6-2.313-2.6-3.629V307.9c0-1.316.865-2.626,2.6-3.629a13.875,13.875,0,0,1,12.566,0C145.558,305.274,146.423,306.584,146.423,307.9Z" transform="translate(-128.655 -302.767)" fill="#a7c2d1"/>
            <path id="Trazado_161185-2" data-name="Trazado 161185" d="M146.423,307.9c0,1.31-.865,2.62-2.6,3.629a13.913,13.913,0,0,1-12.566,0c-1.736-1.009-2.6-2.319-2.6-3.629s.865-2.626,2.6-3.629a13.875,13.875,0,0,1,12.566,0C145.558,305.274,146.423,306.584,146.423,307.9Z" transform="translate(-128.655 -302.767)" fill="#fff"/>
          </g>
          <g id="Grupo_103030-2" data-name="Grupo 103030" transform="translate(1.843 6.885)">
            <path id="Trazado_161186-2" data-name="Trazado 161186" d="M143.032,306.14v5.233a3.5,3.5,0,0,1-2.062,2.877,11.02,11.02,0,0,1-9.959,0,3.5,3.5,0,0,1-2.062-2.877V306.14a3.509,3.509,0,0,1,2.062-2.877,10.98,10.98,0,0,1,9.959,0A3.509,3.509,0,0,1,143.032,306.14Z" transform="translate(-128.949 -302.069)" fill="#a7c2d1"/>
            <path id="Trazado_161187-2" data-name="Trazado 161187" d="M143.032,306.14a3.5,3.5,0,0,1-2.062,2.87,10.98,10.98,0,0,1-9.959,0,3.033,3.033,0,0,1,0-5.747,10.98,10.98,0,0,1,9.959,0A3.509,3.509,0,0,1,143.032,306.14Z" transform="translate(-128.949 -302.069)" fill="#fff"/>
          </g>
          <g id="Grupo_103031-2" data-name="Grupo 103031" transform="translate(3.911)">
            <path id="Trazado_161188-2" data-name="Trazado 161188" d="M139.225,303.841v8.179a2.474,2.474,0,0,1-1.46,2.031,7.767,7.767,0,0,1-7.032,0,2.478,2.478,0,0,1-1.454-2.031v-8.179a2.47,2.47,0,0,1,1.454-2.024,7.728,7.728,0,0,1,7.032,0A2.466,2.466,0,0,1,139.225,303.841Z" transform="translate(-129.279 -300.971)" fill="#a7c2d1"/>
            <path id="Trazado_161189-2" data-name="Trazado 161189" d="M139.225,303.841a2.474,2.474,0,0,1-1.46,2.031,7.766,7.766,0,0,1-7.032,0,2.141,2.141,0,0,1,0-4.055,7.728,7.728,0,0,1,7.032,0A2.466,2.466,0,0,1,139.225,303.841Z" transform="translate(-129.279 -300.971)" fill="#dcf1fa"/>
          </g>
          <g id="Grupo_103032-2" data-name="Grupo 103032" transform="translate(18.213 40.241)">
            <path id="Trazado_161190-2" data-name="Trazado 161190" d="M134.626,308.277V312.2a.751.751,0,0,1-.451.62,2.352,2.352,0,0,1-2.162,0,.752.752,0,0,1-.451-.62v-3.923a.768.768,0,0,1,.451-.627,2.389,2.389,0,0,1,2.162,0A.767.767,0,0,1,134.626,308.277Z" transform="translate(-131.561 -307.392)" fill="#7b9aab"/>
            <path id="Trazado_161191-2" data-name="Trazado 161191" d="M134.626,308.277a.767.767,0,0,1-.451.627,2.39,2.39,0,0,1-2.162,0,.661.661,0,0,1,0-1.253,2.389,2.389,0,0,1,2.162,0A.767.767,0,0,1,134.626,308.277Z" transform="translate(-131.561 -307.392)" fill="#fff"/>
          </g>
          <g id="Grupo_103033-2" data-name="Grupo 103033" transform="translate(18.871 12.64)">
            <path id="Trazado_161192-2" data-name="Trazado 161192" d="M133.415,303.491v27.865a.434.434,0,0,1-.257.357,1.381,1.381,0,0,1-1.235,0,.434.434,0,0,1-.257-.357V303.491a.434.434,0,0,1,.257-.357,1.381,1.381,0,0,1,1.235,0A.434.434,0,0,1,133.415,303.491Z" transform="translate(-131.666 -302.988)" fill="#dcf1fa"/>
            <path id="Trazado_161193-2" data-name="Trazado 161193" d="M133.415,303.491a.418.418,0,0,1-.257.357,1.341,1.341,0,0,1-1.235,0,.418.418,0,0,1-.257-.357.434.434,0,0,1,.257-.357,1.381,1.381,0,0,1,1.235,0A.434.434,0,0,1,133.415,303.491Z" transform="translate(-131.666 -302.988)" fill="#dcf1fa"/>
          </g>
          <path id="Trazado_161194-2" data-name="Trazado 161194" d="M130.269,301.99v3.25l10.748,4.766v-1.763Z" transform="translate(-120.155 -295.604)" fill="#7b9aab"/>
          <path id="Trazado_161195-2" data-name="Trazado 161195" d="M130.845,301.628v3.25l8.4,6.391v-1.762Z" transform="translate(-117.12 -297.51)" fill="#a7c2d1"/>
          <path id="Trazado_161196-2" data-name="Trazado 161196" d="M130.269,303.9c1.818-.4,3.19-1.065,3.61-2.269l8.4,7.878-1.266.646Z" transform="translate(-120.154 -297.51)" fill="#dcf1fa"/>
          <path id="Trazado_161197-2" data-name="Trazado 161197" d="M131.984,305.291v-1.763l1.263-.643v1.762Z" transform="translate(-111.121 -290.889)" fill="#dcf1fa"/>
        </g>
      </g>
      <g id="Grupo_103036" data-name="Grupo 103036" transform="translate(787.195 3604.3)">
        <g id="Grupo_103028-3" data-name="Grupo 103028" transform="translate(128.134 323.377)">
          <g id="Grupo_103027-3" data-name="Grupo 103027">
            <g id="Grupo_103026-3" data-name="Grupo 103026">
              <path id="Trazado_161177-3" data-name="Trazado 161177" d="M128.134,346.778a6.862,6.862,0,0,0,2.432,5.133,9.8,9.8,0,0,0,1.6,1.178,16.1,16.1,0,0,0,8.567,1.993c3.046-.038,6.888-1.153,9.144-3.416a7.683,7.683,0,0,0,1.73-2.607,6.689,6.689,0,0,0,.332-1.229,8.556,8.556,0,0,0,.081-.984l.006-2.77c0-1,.006-2.018.006-3.058.025-9.038.019-19.516.031-24.2l.006-2.77a10.038,10.038,0,0,0-.6-3.428A10.2,10.2,0,0,0,148.1,306c-6.092-1.63-10.3-1.955-15.888-.056a10.257,10.257,0,0,0-4.024,8.041l-.05,32.8Z" transform="translate(-128.134 -304.041)" fill="#36a3f7"/>
              <path id="Trazado_161178-3" data-name="Trazado 161178" d="M132.152,311.257a11.151,11.151,0,0,1,.407-3.115,4,4,0,0,1-1.742-2.983,9.169,9.169,0,0,0-2.451,6.1l-.05,32.784a5.765,5.765,0,0,0,2.062,4.306,9.2,9.2,0,0,0,1.435,1.047c.144.094.326.157.483.245-.125-1.109-.188-2.05-.194-2.538Z" transform="translate(-127.175 -301.317)" fill="#36a3f7" style="mix-blend-mode: screen;isolation: isolate"/>
              <g id="Grupo_103023-3" data-name="Grupo 103023" transform="translate(0 42.737)" style="isolation: isolate">
                <path id="Trazado_161179-3" data-name="Trazado 161179" d="M132.17,317.676c-3.3-2.024-4.017-4.55-4.036-6.311-.006,1.742,1.116,3.491,3.378,4.845,4.6,2.745,12.159,2.82,16.89.169,2.407-1.348,3.616-3.146,3.622-4.945-.357,8.267-13.381,10.222-19.855,6.242Z" transform="translate(-128.134 -311.365)" fill="#36a3f7"/>
              </g>
              <g id="Grupo_103024-3" data-name="Grupo 103024" transform="translate(4.926 2.664)" style="isolation: isolate">
                <path id="Trazado_161180-3" data-name="Trazado 161180" d="M143.1,305.008v.489a3.558,3.558,0,0,1-2.15,2.939,11.079,11.079,0,0,1-10.034-.1,3.49,3.49,0,0,1-2-2.877v-.489a6.43,6.43,0,0,0,1.009.727,9.237,9.237,0,0,0,2.087.915,11.6,11.6,0,0,0,7.847.069,10.277,10.277,0,0,0,2.074-.859A6.48,6.48,0,0,0,143.1,305.008Z" transform="translate(-128.92 -304.971)" fill="#36a3f7"/>
              </g>
              <g id="Grupo_103025-3" data-name="Grupo 103025" transform="translate(20.438)" style="isolation: isolate">
                <path id="Trazado_161181-3" data-name="Trazado 161181" d="M131.477,304.546a2.545,2.545,0,0,1-.081.652A3.631,3.631,0,0,0,131.477,304.546Z" transform="translate(-131.395 -304.546)" fill="#36a3f7"/>
              </g>
            </g>
          </g>
          <path id="Trazado_161182-3" data-name="Trazado 161182" d="M144.268,307.285c-1.8,2.607-5.678,3.873-9.069,3.9a14.007,14.007,0,0,1-5.76-1.1v10.492a14.011,14.011,0,0,0,5.76,1.1c3.384-.031,7.258-1.291,9.069-3.892Z" transform="translate(-121.255 -290.119)" fill="#36a3f7"/>
        </g>
        <path id="Trazado_161183-3" data-name="Trazado 161183" d="M147.738,309.946c0,1.417-.94,2.833-2.814,3.917a15,15,0,0,1-13.569,0c-1.88-1.084-2.814-2.5-2.814-3.917s.934-2.839,2.814-3.917a15,15,0,0,1,13.569,0C146.8,307.107,147.738,308.53,147.738,309.946Z" transform="translate(2.144 18.1)" fill="#7b9aab"/>
        <g id="Grupo_103034-3" data-name="Grupo 103034" transform="translate(131.399 300.971)">
          <g id="Grupo_103029-3" data-name="Grupo 103029" transform="translate(0 11.256)">
            <path id="Trazado_161184-3" data-name="Trazado 161184" d="M146.423,307.9v9.777c0,1.316-.865,2.632-2.6,3.629a13.875,13.875,0,0,1-12.566,0c-1.736-1-2.6-2.313-2.6-3.629V307.9c0-1.316.865-2.626,2.6-3.629a13.875,13.875,0,0,1,12.566,0C145.558,305.274,146.423,306.584,146.423,307.9Z" transform="translate(-128.655 -302.767)" fill="#a7c2d1"/>
            <path id="Trazado_161185-3" data-name="Trazado 161185" d="M146.423,307.9c0,1.31-.865,2.62-2.6,3.629a13.913,13.913,0,0,1-12.566,0c-1.736-1.009-2.6-2.319-2.6-3.629s.865-2.626,2.6-3.629a13.875,13.875,0,0,1,12.566,0C145.558,305.274,146.423,306.584,146.423,307.9Z" transform="translate(-128.655 -302.767)" fill="#fff"/>
          </g>
          <g id="Grupo_103030-3" data-name="Grupo 103030" transform="translate(1.843 6.885)">
            <path id="Trazado_161186-3" data-name="Trazado 161186" d="M143.032,306.14v5.233a3.5,3.5,0,0,1-2.062,2.877,11.02,11.02,0,0,1-9.959,0,3.5,3.5,0,0,1-2.062-2.877V306.14a3.509,3.509,0,0,1,2.062-2.877,10.98,10.98,0,0,1,9.959,0A3.509,3.509,0,0,1,143.032,306.14Z" transform="translate(-128.949 -302.069)" fill="#a7c2d1"/>
            <path id="Trazado_161187-3" data-name="Trazado 161187" d="M143.032,306.14a3.5,3.5,0,0,1-2.062,2.87,10.98,10.98,0,0,1-9.959,0,3.033,3.033,0,0,1,0-5.747,10.98,10.98,0,0,1,9.959,0A3.509,3.509,0,0,1,143.032,306.14Z" transform="translate(-128.949 -302.069)" fill="#fff"/>
          </g>
          <g id="Grupo_103031-3" data-name="Grupo 103031" transform="translate(3.911)">
            <path id="Trazado_161188-3" data-name="Trazado 161188" d="M139.225,303.841v8.179a2.474,2.474,0,0,1-1.46,2.031,7.767,7.767,0,0,1-7.032,0,2.478,2.478,0,0,1-1.454-2.031v-8.179a2.47,2.47,0,0,1,1.454-2.024,7.728,7.728,0,0,1,7.032,0A2.466,2.466,0,0,1,139.225,303.841Z" transform="translate(-129.279 -300.971)" fill="#a7c2d1"/>
            <path id="Trazado_161189-3" data-name="Trazado 161189" d="M139.225,303.841a2.474,2.474,0,0,1-1.46,2.031,7.766,7.766,0,0,1-7.032,0,2.141,2.141,0,0,1,0-4.055,7.728,7.728,0,0,1,7.032,0A2.466,2.466,0,0,1,139.225,303.841Z" transform="translate(-129.279 -300.971)" fill="#dcf1fa"/>
          </g>
          <g id="Grupo_103032-3" data-name="Grupo 103032" transform="translate(18.213 40.241)">
            <path id="Trazado_161190-3" data-name="Trazado 161190" d="M134.626,308.277V312.2a.751.751,0,0,1-.451.62,2.352,2.352,0,0,1-2.162,0,.752.752,0,0,1-.451-.62v-3.923a.768.768,0,0,1,.451-.627,2.389,2.389,0,0,1,2.162,0A.767.767,0,0,1,134.626,308.277Z" transform="translate(-131.561 -307.392)" fill="#7b9aab"/>
            <path id="Trazado_161191-3" data-name="Trazado 161191" d="M134.626,308.277a.767.767,0,0,1-.451.627,2.39,2.39,0,0,1-2.162,0,.661.661,0,0,1,0-1.253,2.389,2.389,0,0,1,2.162,0A.767.767,0,0,1,134.626,308.277Z" transform="translate(-131.561 -307.392)" fill="#fff"/>
          </g>
          <g id="Grupo_103033-3" data-name="Grupo 103033" transform="translate(18.871 12.64)">
            <path id="Trazado_161192-3" data-name="Trazado 161192" d="M133.415,303.491v27.865a.434.434,0,0,1-.257.357,1.381,1.381,0,0,1-1.235,0,.434.434,0,0,1-.257-.357V303.491a.434.434,0,0,1,.257-.357,1.381,1.381,0,0,1,1.235,0A.434.434,0,0,1,133.415,303.491Z" transform="translate(-131.666 -302.988)" fill="#dcf1fa"/>
            <path id="Trazado_161193-3" data-name="Trazado 161193" d="M133.415,303.491a.418.418,0,0,1-.257.357,1.341,1.341,0,0,1-1.235,0,.418.418,0,0,1-.257-.357.434.434,0,0,1,.257-.357,1.381,1.381,0,0,1,1.235,0A.434.434,0,0,1,133.415,303.491Z" transform="translate(-131.666 -302.988)" fill="#dcf1fa"/>
          </g>
          <path id="Trazado_161194-3" data-name="Trazado 161194" d="M130.269,301.99v3.25l10.748,4.766v-1.763Z" transform="translate(-120.155 -295.604)" fill="#7b9aab"/>
          <path id="Trazado_161195-3" data-name="Trazado 161195" d="M130.845,301.628v3.25l8.4,6.391v-1.762Z" transform="translate(-117.12 -297.51)" fill="#a7c2d1"/>
          <path id="Trazado_161196-3" data-name="Trazado 161196" d="M130.269,303.9c1.818-.4,3.19-1.065,3.61-2.269l8.4,7.878-1.266.646Z" transform="translate(-120.154 -297.51)" fill="#dcf1fa"/>
          <path id="Trazado_161197-3" data-name="Trazado 161197" d="M131.984,305.291v-1.763l1.263-.643v1.762Z" transform="translate(-111.121 -290.889)" fill="#dcf1fa"/>
        </g>
      </g>
    </g>
  </g>
</svg>
