<svg xmlns="http://www.w3.org/2000/svg" xmlns:xlink="http://www.w3.org/1999/xlink" width="271" height="185" viewBox="0 0 271 185">
  <defs>
    <clipPath id="clip-path">
      <rect id="Rect치ngulo_34556" data-name="Rect치ngulo 34556" width="271" height="185" transform="translate(0 -0.349)" fill="#dc9ce8"/>
    </clipPath>
  </defs>
  <g id="Grupo_103077" data-name="Grupo 103077" transform="translate(-705 -5553)">
    <g id="Grupo_103045" data-name="Grupo 103045" transform="translate(0 1724)">
      <rect id="Rect치ngulo_34374" data-name="Rect치ngulo 34374" width="271" height="185" transform="translate(705 3829)" fill="#f739a8" opacity="0.184"/>
      <g id="Grupo_103038" data-name="Grupo 103038" transform="translate(420 2489)">
        <g id="Enmascarar_grupo_82" data-name="Enmascarar grupo 82" transform="translate(285 1340.349)" opacity="0.24" clip-path="url(#clip-path)">
          <path id="Trazado_159232" data-name="Trazado 159232" d="M8.484,231.291l252.56-9.984c5.207-.206,9.6-4.1,9.8-8.7l9.2-205.349c.206-4.6-3.849-8.157-9.056-7.951L18.425,9.295c-5.207.206-9.6,4.1-9.8,8.7L-.572,223.34C-.778,227.937,3.277,231.5,8.484,231.291Z" transform="translate(48.178 2.645) rotate(17)" fill="#dc9ce8"/>
        </g>
      </g>
    </g>
    <g id="Grupo_103076" data-name="Grupo 103076" transform="translate(1112.048 5264.609)">
      <g id="Grupo_103060" data-name="Grupo 103060" transform="translate(-399.425 311.479)">
        <g id="Grupo_103058" data-name="Grupo 103058">
          <path id="Trazado_161198" data-name="Trazado 161198" d="M-387.507,425.41l-11.918-7.441,210.967-121.8,11.917,7.441Z" transform="translate(399.425 -296.167)" fill="#dcf1fa"/>
        </g>
        <g id="Grupo_103059" data-name="Grupo 103059" transform="translate(11.917 7.46)">
          <path id="Trazado_161199" data-name="Trazado 161199" d="M-396.741,431.916V419.649l210.967-121.8v12.266Z" transform="translate(396.741 -297.847)" fill="#6dbcc2"/>
        </g>
        <path id="Trazado_161200" data-name="Trazado 161200" d="M-399.425,323.591l11.918,7.588v12.174l-11.918-7.588Z" transform="translate(399.425 -201.826)" fill="#4d8c91"/>
      </g>
      <g id="Grupo_103063" data-name="Grupo 103063" transform="translate(-385.846 319.723)">
        <g id="Grupo_103061" data-name="Grupo 103061">
          <path id="Trazado_161201" data-name="Trazado 161201" d="M-384.449,427.267l-11.917-7.441,210.967-121.8,11.917,7.441Z" transform="translate(396.367 -298.024)" fill="#dcf1fa"/>
        </g>
        <g id="Grupo_103062" data-name="Grupo 103062" transform="translate(11.917 7.46)">
          <path id="Trazado_161202" data-name="Trazado 161202" d="M-393.683,433.772V421.506l210.967-121.8v12.266Z" transform="translate(393.683 -299.704)" fill="#6dbcc2"/>
        </g>
        <path id="Trazado_161203" data-name="Trazado 161203" d="M-396.367,325.448l11.917,7.588V345.21l-11.917-7.588Z" transform="translate(396.367 -203.682)" fill="#4d8c91"/>
      </g>
      <g id="Grupo_103066" data-name="Grupo 103066" transform="translate(-390.501 303.234)">
        <g id="Grupo_103064" data-name="Grupo 103064">
          <path id="Trazado_161204" data-name="Trazado 161204" d="M-385.5,423.553l-11.917-7.441,210.967-121.8,11.917,7.441Z" transform="translate(397.415 -294.311)" fill="#dcf1fa"/>
        </g>
        <g id="Grupo_103065" data-name="Grupo 103065" transform="translate(11.917 7.46)">
          <path id="Trazado_161205" data-name="Trazado 161205" d="M-394.731,430.059V417.792l210.967-121.8v12.267Z" transform="translate(394.731 -295.991)" fill="#6dbcc2"/>
        </g>
        <path id="Trazado_161206" data-name="Trazado 161206" d="M-397.415,321.734l11.917,7.588V341.5l-11.917-7.588Z" transform="translate(397.415 -199.969)" fill="#4d8c91"/>
      </g>
      <g id="Grupo_103069" data-name="Grupo 103069" transform="translate(-371.879 328.452)">
        <g id="Grupo_103067" data-name="Grupo 103067">
          <path id="Trazado_161207" data-name="Trazado 161207" d="M-381.3,429.233l-11.917-7.441,210.967-121.8,11.917,7.441Z" transform="translate(393.221 -299.99)" fill="#dcf1fa"/>
        </g>
        <g id="Grupo_103068" data-name="Grupo 103068" transform="translate(11.917 7.46)">
          <path id="Trazado_161208" data-name="Trazado 161208" d="M-390.537,435.739V423.472l210.967-121.8v12.267Z" transform="translate(390.537 -301.67)" fill="#6dbcc2"/>
        </g>
        <path id="Trazado_161209" data-name="Trazado 161209" d="M-393.221,327.414-381.3,335v12.174l-11.917-7.588Z" transform="translate(393.221 -205.648)" fill="#4d8c91"/>
      </g>
      <g id="Grupo_103072" data-name="Grupo 103072" transform="translate(-374.595 309.842)">
        <g id="Grupo_103070" data-name="Grupo 103070">
          <path id="Trazado_161210" data-name="Trazado 161210" d="M-381.915,425.041l-11.917-7.441,210.967-121.8,11.917,7.441Z" transform="translate(393.833 -295.799)" fill="#dcf1fa"/>
        </g>
        <g id="Grupo_103071" data-name="Grupo 103071" transform="translate(11.917 7.46)">
          <path id="Trazado_161211" data-name="Trazado 161211" d="M-391.149,431.547V419.28l210.967-121.8v12.267Z" transform="translate(391.149 -297.479)" fill="#6dbcc2"/>
        </g>
        <path id="Trazado_161212" data-name="Trazado 161212" d="M-393.833,323.223l11.917,7.588v12.174l-11.917-7.588Z" transform="translate(393.833 -201.457)" fill="#4d8c91"/>
      </g>
      <g id="Grupo_103075" data-name="Grupo 103075" transform="translate(-378.584 291.716)">
        <g id="Grupo_103073" data-name="Grupo 103073">
          <path id="Trazado_161213" data-name="Trazado 161213" d="M-382.814,420.959l-11.917-7.441,210.967-121.8,11.917,7.441Z" transform="translate(394.731 -291.716)" fill="#dcf1fa"/>
        </g>
        <g id="Grupo_103074" data-name="Grupo 103074" transform="translate(11.917 7.46)">
          <path id="Trazado_161214" data-name="Trazado 161214" d="M-392.047,427.465V415.2L-181.08,293.4v12.267Z" transform="translate(392.047 -293.396)" fill="#6dbcc2"/>
        </g>
        <path id="Trazado_161215" data-name="Trazado 161215" d="M-394.731,319.14l11.917,7.588V338.9l-11.917-7.588Z" transform="translate(394.731 -197.375)" fill="#4d8c91"/>
      </g>
    </g>
  </g>
</svg>
