<svg xmlns="http://www.w3.org/2000/svg" xmlns:xlink="http://www.w3.org/1999/xlink" width="610" height="393" viewBox="0 0 610 393">
  <defs>
    <clipPath id="clip-path">
      <rect id="Rect치ngulo_34577" data-name="Rect치ngulo 34577" width="610" height="342" fill="#fff"/>
    </clipPath>
  </defs>
  <g id="Grupo_146951" data-name="Grupo 146951" transform="translate(-180 -12277)">
    <g id="Grupo_120713" data-name="Grupo 120713">
      <rect id="Rect치ngulo_34576" data-name="Rect치ngulo 34576" width="610" height="392.816" transform="translate(180 12277)" fill="#36a3f7" opacity="0.11"/>
      <g id="Enmascarar_grupo_89" data-name="Enmascarar grupo 89" transform="translate(180 12328)" opacity="0.24" clip-path="url(#clip-path)">
        <path id="Trazado_185929" data-name="Trazado 185929" d="M22.112,501.06l565.973-33.486c11.669-.69,21.689-9.051,22.38-18.673L641.305,19.07C642,9.447,633.1,2.207,621.426,2.9L55.453,36.383c-11.67.69-21.689,9.05-22.38,18.673L2.232,484.887C1.542,494.509,10.442,501.75,22.112,501.06Z" transform="translate(172.281 47.841) rotate(17)" fill="#36a3f7"/>
      </g>
    </g>
    <g id="Grupo_120697" data-name="Grupo 120697" transform="translate(-853.816 11455.368)">
      <g id="Grupo_120694" data-name="Grupo 120694" transform="translate(1180.881 880.631)">
        <g id="Grupo_120583" data-name="Grupo 120583">
          <path id="Trazado_185658" data-name="Trazado 185658" d="M1355.386,1057.985l-76.844,44.79-120.342-69.6,119.7-50.209Z" transform="translate(-1157.889 -857.463)" fill="#838383" opacity="0.219" style="mix-blend-mode: multiply;isolation: isolate"/>
          <g id="Grupo_120582" data-name="Grupo 120582">
            <g id="Grupo_120576" data-name="Grupo 120576">
              <g id="Grupo_120575" data-name="Grupo 120575" style="isolation: isolate">
                <g id="Grupo_120572" data-name="Grupo 120572" transform="translate(120.342 69.604)">
                  <path id="Trazado_185659" data-name="Trazado 185659" d="M1333.228,937.386l-.311,116.319-76.844,44.79.311-116.319Z" transform="translate(-1256.072 -937.386)" fill="#a48157"/>
                </g>
                <g id="Grupo_120573" data-name="Grupo 120573" transform="translate(0 44.79)">
                  <path id="Trazado_185660" data-name="Trazado 185660" d="M1278.6,986.757l-.311,116.319-120.342-69.6.311-116.319Z" transform="translate(-1157.947 -917.153)" fill="#c8a376"/>
                </g>
                <g id="Grupo_120574" data-name="Grupo 120574" transform="translate(0.311)">
                  <path id="Trazado_185661" data-name="Trazado 185661" d="M1355.386,950.236l-76.844,44.79-120.342-69.6,76.844-44.79Z" transform="translate(-1158.2 -880.631)" fill="#e3c095"/>
                </g>
              </g>
            </g>
            <g id="Grupo_120581" data-name="Grupo 120581" transform="translate(36.335 15.28)">
              <g id="Grupo_120580" data-name="Grupo 120580" style="isolation: isolate">
                <g id="Grupo_120577" data-name="Grupo 120577" transform="translate(121.378 70.382)">
                  <path id="Trazado_185662" data-name="Trazado 185662" d="M1286.858,957.483l12.052-7-.314,89.048-12.052,7Z" transform="translate(-1286.544 -950.479)" fill="#999"/>
                </g>
                <g id="Grupo_120578" data-name="Grupo 120578" transform="translate(0.003)">
                  <path id="Trazado_185663" data-name="Trazado 185663" d="M1187.576,900.094l12.052-7,121.688,70.382-12.052,7Z" transform="translate(-1187.576 -893.091)" fill="#dcdcdc"/>
                </g>
                <g id="Grupo_120579" data-name="Grupo 120579" transform="translate(0 7.004)">
                  <path id="Trazado_185664" data-name="Trazado 185664" d="M1309.265,969.183l-.314,89.048-1.019-.588.31-87.877-120.669-69.793,0-1.171Z" transform="translate(-1187.574 -898.802)" fill="#898989"/>
                </g>
              </g>
            </g>
          </g>
        </g>
        <g id="Grupo_120693" data-name="Grupo 120693" transform="translate(67.688 98.642)">
          <g id="Grupo_120586" data-name="Grupo 120586" transform="translate(0 72.832)">
            <g id="Grupo_120584" data-name="Grupo 120584" transform="translate(7.248 6.843)">
              <path id="Trazado_185665" data-name="Trazado 185665" d="M1226.189,1030.121l-.022,8.064c0,.992-.493,1.618-1.266,1.627s-1.262.627-1.264,1.619l-.012,4.23a2,2,0,0,0,.608,1.331l1.9,1.858v.51l-3.541-2.043-3.546-2.048v-.51l1.908.342c.364.069.612-.185.613-.625l.012-4.23a5,5,0,0,0-1.252-3.072,5.04,5.04,0,0,1-1.251-3.078l.023-8.065,3.546,2.048Z" transform="translate(-1219.049 -1026.03)" fill="#6b573f"/>
            </g>
            <g id="Grupo_120585" data-name="Grupo 120585">
              <path id="Trazado_185666" data-name="Trazado 185666" d="M1213.209,1020.45l21.565,12.451-.07,24.779-21.565-12.45Zm20.125,34.863.061-21.626-18.816-10.862-.061,21.627,18.815,10.862Z" transform="translate(-1213.139 -1020.45)" fill="#6b573f"/>
            </g>
          </g>
          <g id="Grupo_120591" data-name="Grupo 120591" transform="translate(21.975 85.575)">
            <g id="Grupo_120589" data-name="Grupo 120589" transform="translate(2.683 10.609)">
              <g id="Grupo_120587" data-name="Grupo 120587" transform="translate(0 9.495)">
                <path id="Trazado_185667" data-name="Trazado 185667" d="M1249.481,1056.605l0,1.625-16.232-9.372,0-1.625Z" transform="translate(-1233.244 -1047.234)" fill="#6b573f"/>
              </g>
              <g id="Grupo_120588" data-name="Grupo 120588" transform="translate(0.018)">
                <path id="Trazado_185668" data-name="Trazado 185668" d="M1241.4,1039.491l8.09,14.012-5.657-3.266-.012,4.168-2.46-1.42-2.468-1.425.012-4.168-5.648-3.261Z" transform="translate(-1233.259 -1039.491)" fill="#6b573f"/>
              </g>
            </g>
            <g id="Grupo_120590" data-name="Grupo 120590">
              <path id="Trazado_185669" data-name="Trazado 185669" d="M1231.127,1030.841l21.559,12.448-.07,24.772-21.559-12.447Zm20.124,34.857.061-21.626-18.82-10.866-.061,21.626,18.82,10.866Z" transform="translate(-1231.057 -1030.841)" fill="#6b573f"/>
            </g>
          </g>
          <g id="Grupo_120692" data-name="Grupo 120692" transform="translate(10.818)">
            <g id="Grupo_120671" data-name="Grupo 120671" transform="translate(0 19.563)">
              <g id="Grupo_120670" data-name="Grupo 120670" style="isolation: isolate">
                <g id="Grupo_120592" data-name="Grupo 120592" transform="translate(3.387 15.293)">
                  <path id="Trazado_185670" data-name="Trazado 185670" d="M1224.722,990.518l1.778-1.033,1.031.595-1.777,1.033Z" transform="translate(-1224.722 -989.485)" fill="#acacac"/>
                </g>
                <g id="Grupo_120593" data-name="Grupo 120593" transform="translate(3.387 4.376)">
                  <path id="Trazado_185671" data-name="Trazado 185671" d="M1224.753,981.617l1.777-1.033L1226.5,991.5l-1.778,1.033Z" transform="translate(-1224.722 -980.584)" fill="gray"/>
                </g>
                <g id="Grupo_120594" data-name="Grupo 120594" transform="translate(4.418 4.971)">
                  <path id="Trazado_185672" data-name="Trazado 185672" d="M1225.594,982.1l1.777-1.033-.031,10.917-1.777,1.033Z" transform="translate(-1225.563 -981.069)" fill="#232d41"/>
                </g>
                <g id="Grupo_120595" data-name="Grupo 120595" transform="translate(5.05 14.807)">
                  <path id="Trazado_185673" data-name="Trazado 185673" d="M1226.078,990.122l1.777-1.033,1.031.6-1.777,1.033Z" transform="translate(-1226.078 -989.089)" fill="#acacac"/>
                </g>
                <g id="Grupo_120596" data-name="Grupo 120596" transform="translate(6.709 15.764)">
                  <path id="Trazado_185674" data-name="Trazado 185674" d="M1227.43,990.9l1.778-1.033,1.031.595-1.777,1.033Z" transform="translate(-1227.43 -989.87)" fill="#acacac"/>
                </g>
                <g id="Grupo_120597" data-name="Grupo 120597" transform="translate(8.383 16.731)">
                  <path id="Trazado_185675" data-name="Trazado 185675" d="M1228.8,991.691l1.778-1.033,1.014.586-1.777,1.033Z" transform="translate(-1228.796 -990.658)" fill="#acacac"/>
                </g>
                <g id="Grupo_120598" data-name="Grupo 120598" transform="translate(10.042 17.689)">
                  <path id="Trazado_185676" data-name="Trazado 185676" d="M1230.148,992.471l1.778-1.033,1.014.586-1.778,1.033Z" transform="translate(-1230.148 -991.439)" fill="#acacac"/>
                </g>
                <g id="Grupo_120599" data-name="Grupo 120599" transform="translate(11.7 18.646)">
                  <path id="Trazado_185677" data-name="Trazado 185677" d="M1231.5,993.252l1.778-1.033,1.03.595-1.778,1.033Z" transform="translate(-1231.5 -992.219)" fill="#acacac"/>
                </g>
                <g id="Grupo_120600" data-name="Grupo 120600" transform="translate(3.388 5.409)">
                  <path id="Trazado_185678" data-name="Trazado 185678" d="M1225.784,982.021l-.031,10.917-1.031-.6.031-10.917Z" transform="translate(-1224.722 -981.426)" fill="#3c4e71"/>
                </g>
                <g id="Grupo_120601" data-name="Grupo 120601" transform="translate(3.419 4.376)">
                  <path id="Trazado_185679" data-name="Trazado 185679" d="M1224.748,981.616l1.777-1.033,1.031.6-1.777,1.033Z" transform="translate(-1224.748 -980.583)" fill="#2f3d58"/>
                </g>
                <g id="Grupo_120602" data-name="Grupo 120602" transform="translate(5.05 5.334)">
                  <path id="Trazado_185680" data-name="Trazado 185680" d="M1226.1,982.4l1.777-1.033-.027,9.473-1.777,1.033Z" transform="translate(-1226.078 -981.364)" fill="gray"/>
                </g>
                <g id="Grupo_120603" data-name="Grupo 120603" transform="translate(13.359 19.604)">
                  <path id="Trazado_185681" data-name="Trazado 185681" d="M1232.853,994.033,1234.63,993l1.031.595-1.777,1.033Z" transform="translate(-1232.853 -993)" fill="#acacac"/>
                </g>
                <g id="Grupo_120604" data-name="Grupo 120604" transform="translate(5.077 5.334)">
                  <path id="Trazado_185682" data-name="Trazado 185682" d="M1226.1,982.4l1.777-1.033,1.031.595-1.778,1.033Z" transform="translate(-1226.1 -981.364)" fill="#2f3d58"/>
                </g>
                <g id="Grupo_120605" data-name="Grupo 120605" transform="translate(6.081 5.929)">
                  <path id="Trazado_185683" data-name="Trazado 185683" d="M1226.945,982.882l1.778-1.033-.027,9.473-1.777,1.033Z" transform="translate(-1226.918 -981.849)" fill="#232d41"/>
                </g>
                <g id="Grupo_120606" data-name="Grupo 120606" transform="translate(15.013 22.005)">
                  <path id="Trazado_185684" data-name="Trazado 185684" d="M1234.2,995.991l1.777-1.033,1.03.595-1.777,1.033Z" transform="translate(-1234.202 -994.958)" fill="#acacac"/>
                </g>
                <g id="Grupo_120607" data-name="Grupo 120607" transform="translate(6.709 6.291)">
                  <path id="Trazado_185685" data-name="Trazado 185685" d="M1227.457,983.178l1.777-1.033-.027,9.473-1.778,1.033Z" transform="translate(-1227.43 -982.145)" fill="gray"/>
                </g>
                <g id="Grupo_120608" data-name="Grupo 120608" transform="translate(6.736 6.291)">
                  <path id="Trazado_185686" data-name="Trazado 185686" d="M1227.452,983.178l1.777-1.033,1.031.595-1.777,1.033Z" transform="translate(-1227.452 -982.145)" fill="#2f3d58"/>
                </g>
                <g id="Grupo_120609" data-name="Grupo 120609" transform="translate(7.739 6.886)">
                  <path id="Trazado_185687" data-name="Trazado 185687" d="M1228.3,983.663l1.777-1.033-.027,9.473-1.777,1.033Z" transform="translate(-1228.271 -982.63)" fill="#232d41"/>
                </g>
                <g id="Grupo_120610" data-name="Grupo 120610" transform="translate(8.383 7.258)">
                  <path id="Trazado_185688" data-name="Trazado 185688" d="M1228.823,983.966l1.777-1.033-.027,9.473-1.778,1.033Z" transform="translate(-1228.796 -982.934)" fill="gray"/>
                </g>
                <g id="Grupo_120611" data-name="Grupo 120611" transform="translate(9.398 7.844)">
                  <path id="Trazado_185689" data-name="Trazado 185689" d="M1229.65,984.444l1.777-1.033-.027,9.473-1.777,1.033Z" transform="translate(-1229.623 -983.411)" fill="#232d41"/>
                </g>
                <g id="Grupo_120612" data-name="Grupo 120612" transform="translate(10.042 8.216)">
                  <path id="Trazado_185690" data-name="Trazado 185690" d="M1230.175,984.747l1.778-1.033-.027,9.473-1.778,1.033Z" transform="translate(-1230.148 -983.714)" fill="gray"/>
                </g>
                <g id="Grupo_120613" data-name="Grupo 120613" transform="translate(11.056 8.801)">
                  <path id="Trazado_185691" data-name="Trazado 185691" d="M1231,985.225l1.778-1.033-.027,9.473-1.778,1.033Z" transform="translate(-1230.975 -984.192)" fill="#232d41"/>
                </g>
                <g id="Grupo_120614" data-name="Grupo 120614" transform="translate(11.7 9.173)">
                  <path id="Trazado_185692" data-name="Trazado 185692" d="M1231.527,985.528l1.777-1.033-.027,9.473L1231.5,995Z" transform="translate(-1231.5 -984.495)" fill="gray"/>
                </g>
                <g id="Grupo_120615" data-name="Grupo 120615" transform="translate(12.731 9.768)">
                  <path id="Trazado_185693" data-name="Trazado 185693" d="M1232.367,986.013l1.778-1.033-.027,9.473-1.777,1.033Z" transform="translate(-1232.341 -984.98)" fill="#232d41"/>
                </g>
                <g id="Grupo_120616" data-name="Grupo 120616" transform="translate(13.359 10.131)">
                  <path id="Trazado_185694" data-name="Trazado 185694" d="M1232.88,986.309l1.777-1.033-.027,9.473-1.777,1.033Z" transform="translate(-1232.853 -985.276)" fill="gray"/>
                </g>
                <g id="Grupo_120617" data-name="Grupo 120617" transform="translate(14.389 10.726)">
                  <path id="Trazado_185695" data-name="Trazado 185695" d="M1233.72,986.794l1.777-1.033-.027,9.473-1.777,1.033Z" transform="translate(-1233.693 -985.761)" fill="#232d41"/>
                </g>
                <g id="Grupo_120618" data-name="Grupo 120618" transform="translate(15.013 11.088)">
                  <path id="Trazado_185696" data-name="Trazado 185696" d="M1234.233,987.09l1.777-1.033-.031,10.917-1.777,1.033Z" transform="translate(-1234.202 -986.057)" fill="gray"/>
                </g>
                <g id="Grupo_120619" data-name="Grupo 120619" transform="translate(16.044 11.683)">
                  <path id="Trazado_185697" data-name="Trazado 185697" d="M1235.073,987.575l1.777-1.033-.031,10.917-1.778,1.033Z" transform="translate(-1235.042 -986.542)" fill="#232d41"/>
                </g>
                <g id="Grupo_120620" data-name="Grupo 120620" transform="translate(16.676 21.519)">
                  <path id="Trazado_185698" data-name="Trazado 185698" d="M1235.557,995.595l1.778-1.033,1.03.595-1.778,1.033Z" transform="translate(-1235.557 -994.562)" fill="#acacac"/>
                </g>
                <g id="Grupo_120621" data-name="Grupo 120621" transform="translate(8.383 8.291)">
                  <path id="Trazado_185699" data-name="Trazado 185699" d="M1229.837,984.361l-.027,9.473-1.014-.586.027-9.473Z" transform="translate(-1228.796 -983.776)" fill="#3c4e71"/>
                </g>
                <g id="Grupo_120622" data-name="Grupo 120622" transform="translate(8.41 7.258)">
                  <path id="Trazado_185700" data-name="Trazado 185700" d="M1228.818,983.966l1.777-1.033,1.014.586-1.777,1.033Z" transform="translate(-1228.818 -982.933)" fill="#2f3d58"/>
                </g>
                <g id="Grupo_120623" data-name="Grupo 120623" transform="translate(18.351 22.486)">
                  <path id="Trazado_185701" data-name="Trazado 185701" d="M1236.923,996.383l1.777-1.033,1.015.586-1.778,1.033Z" transform="translate(-1236.923 -995.35)" fill="#acacac"/>
                </g>
                <g id="Grupo_120624" data-name="Grupo 120624" transform="translate(10.069 8.215)">
                  <path id="Trazado_185702" data-name="Trazado 185702" d="M1230.17,984.747l1.777-1.033,1.015.586-1.778,1.033Z" transform="translate(-1230.17 -983.714)" fill="#2f3d58"/>
                </g>
                <g id="Grupo_120625" data-name="Grupo 120625" transform="translate(10.042 9.249)">
                  <path id="Trazado_185703" data-name="Trazado 185703" d="M1231.189,985.142l-.027,9.473-1.014-.585.027-9.473Z" transform="translate(-1230.148 -984.557)" fill="#3c4e71"/>
                </g>
                <g id="Grupo_120626" data-name="Grupo 120626" transform="translate(20.009 23.443)">
                  <path id="Trazado_185704" data-name="Trazado 185704" d="M1238.275,997.164l1.778-1.033,1.031.595-1.778,1.033Z" transform="translate(-1238.275 -996.131)" fill="#acacac"/>
                </g>
                <g id="Grupo_120627" data-name="Grupo 120627" transform="translate(11.727 9.173)">
                  <path id="Trazado_185705" data-name="Trazado 185705" d="M1231.522,985.528l1.777-1.033,1.031.595-1.778,1.033Z" transform="translate(-1231.522 -984.495)" fill="#2f3d58"/>
                </g>
                <g id="Grupo_120628" data-name="Grupo 120628" transform="translate(21.663 25.844)">
                  <path id="Trazado_185706" data-name="Trazado 185706" d="M1239.624,999.121l1.778-1.033,1.03.6-1.778,1.033Z" transform="translate(-1239.624 -998.089)" fill="#acacac"/>
                </g>
                <g id="Grupo_120629" data-name="Grupo 120629" transform="translate(13.386 10.131)">
                  <path id="Trazado_185707" data-name="Trazado 185707" d="M1232.875,986.309l1.778-1.033,1.031.595-1.777,1.033Z" transform="translate(-1232.875 -985.276)" fill="#2f3d58"/>
                </g>
                <g id="Grupo_120630" data-name="Grupo 120630" transform="translate(13.359 11.164)">
                  <path id="Trazado_185708" data-name="Trazado 185708" d="M1233.91,986.713l-.027,9.473-1.03-.595.027-9.473Z" transform="translate(-1232.853 -986.118)" fill="#3c4e71"/>
                </g>
                <g id="Grupo_120631" data-name="Grupo 120631" transform="translate(16.676 12.046)">
                  <path id="Trazado_185709" data-name="Trazado 185709" d="M1235.584,987.87l1.777-1.033-.027,9.473-1.778,1.033Z" transform="translate(-1235.557 -986.837)" fill="gray"/>
                </g>
                <g id="Grupo_120632" data-name="Grupo 120632" transform="translate(17.707 12.641)">
                  <path id="Trazado_185710" data-name="Trazado 185710" d="M1236.424,988.355l1.777-1.033-.027,9.473-1.777,1.033Z" transform="translate(-1236.398 -987.322)" fill="#232d41"/>
                </g>
                <g id="Grupo_120633" data-name="Grupo 120633" transform="translate(18.351 13.013)">
                  <path id="Trazado_185711" data-name="Trazado 185711" d="M1236.95,988.659l1.777-1.033-.027,9.473-1.777,1.033Z" transform="translate(-1236.923 -987.626)" fill="gray"/>
                </g>
                <g id="Grupo_120634" data-name="Grupo 120634" transform="translate(19.365 13.598)">
                  <path id="Trazado_185712" data-name="Trazado 185712" d="M1237.777,989.136l1.778-1.033-.027,9.473-1.777,1.033Z" transform="translate(-1237.75 -988.103)" fill="#232d41"/>
                </g>
                <g id="Grupo_120635" data-name="Grupo 120635" transform="translate(20.009 13.97)">
                  <path id="Trazado_185713" data-name="Trazado 185713" d="M1238.3,989.44l1.777-1.033-.027,9.473-1.778,1.033Z" transform="translate(-1238.275 -988.407)" fill="gray"/>
                </g>
                <g id="Grupo_120636" data-name="Grupo 120636" transform="translate(21.039 14.565)">
                  <path id="Trazado_185714" data-name="Trazado 185714" d="M1239.142,989.924l1.777-1.033-.027,9.473-1.778,1.033Z" transform="translate(-1239.115 -988.891)" fill="#232d41"/>
                </g>
                <g id="Grupo_120637" data-name="Grupo 120637" transform="translate(21.663 14.928)">
                  <path id="Trazado_185715" data-name="Trazado 185715" d="M1239.655,990.22l1.777-1.033-.031,10.917-1.778,1.033Z" transform="translate(-1239.624 -989.187)" fill="gray"/>
                </g>
                <g id="Grupo_120638" data-name="Grupo 120638" transform="translate(22.694 15.523)">
                  <path id="Trazado_185716" data-name="Trazado 185716" d="M1240.5,990.705l1.777-1.033-.031,10.917-1.778,1.033Z" transform="translate(-1240.464 -989.672)" fill="#232d41"/>
                </g>
                <g id="Grupo_120639" data-name="Grupo 120639" transform="translate(23.326 25.358)">
                  <path id="Trazado_185717" data-name="Trazado 185717" d="M1240.98,998.725l1.777-1.033,1.03.595-1.778,1.033Z" transform="translate(-1240.98 -997.692)" fill="#acacac"/>
                </g>
                <g id="Grupo_120640" data-name="Grupo 120640" transform="translate(15.044 11.088)">
                  <path id="Trazado_185718" data-name="Trazado 185718" d="M1234.227,987.089l1.778-1.033,1.03.595-1.777,1.033Z" transform="translate(-1234.227 -986.057)" fill="#2f3d58"/>
                </g>
                <g id="Grupo_120641" data-name="Grupo 120641" transform="translate(24.985 26.316)">
                  <path id="Trazado_185719" data-name="Trazado 185719" d="M1242.332,999.506l1.778-1.033,1.031.595-1.778,1.033Z" transform="translate(-1242.332 -998.473)" fill="#acacac"/>
                </g>
                <g id="Grupo_120642" data-name="Grupo 120642" transform="translate(16.703 12.046)">
                  <path id="Trazado_185720" data-name="Trazado 185720" d="M1235.579,987.87l1.777-1.033,1.03.595-1.777,1.033Z" transform="translate(-1235.579 -986.837)" fill="#2f3d58"/>
                </g>
                <g id="Grupo_120643" data-name="Grupo 120643" transform="translate(26.639 28.717)">
                  <path id="Trazado_185721" data-name="Trazado 185721" d="M1243.681,1001.464l1.777-1.033,1.031.595-1.778,1.033Z" transform="translate(-1243.681 -1000.431)" fill="#acacac"/>
                </g>
                <g id="Grupo_120644" data-name="Grupo 120644" transform="translate(18.377 13.013)">
                  <path id="Trazado_185722" data-name="Trazado 185722" d="M1236.945,988.659l1.777-1.033,1.015.586-1.778,1.033Z" transform="translate(-1236.945 -987.626)" fill="#2f3d58"/>
                </g>
                <g id="Grupo_120645" data-name="Grupo 120645" transform="translate(20.009 15.003)">
                  <path id="Trazado_185723" data-name="Trazado 185723" d="M1239.333,989.843l-.027,9.473-1.031-.6.027-9.473Z" transform="translate(-1238.275 -989.249)" fill="#3c4e71"/>
                </g>
                <g id="Grupo_120646" data-name="Grupo 120646" transform="translate(20.036 13.97)">
                  <path id="Trazado_185724" data-name="Trazado 185724" d="M1238.3,989.439l1.777-1.033,1.031.595-1.778,1.033Z" transform="translate(-1238.297 -988.406)" fill="#2f3d58"/>
                </g>
                <g id="Grupo_120647" data-name="Grupo 120647" transform="translate(21.695 14.928)">
                  <path id="Trazado_185725" data-name="Trazado 185725" d="M1239.65,990.22l1.777-1.033,1.031.595-1.777,1.033Z" transform="translate(-1239.65 -989.187)" fill="#2f3d58"/>
                </g>
                <g id="Grupo_120648" data-name="Grupo 120648" transform="translate(23.326 15.885)">
                  <path id="Trazado_185726" data-name="Trazado 185726" d="M1241.007,991l1.778-1.033-.027,9.473-1.777,1.033Z" transform="translate(-1240.98 -989.968)" fill="gray"/>
                </g>
                <g id="Grupo_120649" data-name="Grupo 120649" transform="translate(23.353 15.885)">
                  <path id="Trazado_185727" data-name="Trazado 185727" d="M1241,991l1.777-1.033,1.03.595-1.777,1.033Z" transform="translate(-1241.002 -989.968)" fill="#2f3d58"/>
                </g>
                <g id="Grupo_120650" data-name="Grupo 120650" transform="translate(24.357 16.48)">
                  <path id="Trazado_185728" data-name="Trazado 185728" d="M1241.847,991.486l1.777-1.033-.027,9.473-1.778,1.033Z" transform="translate(-1241.82 -990.453)" fill="#232d41"/>
                </g>
                <g id="Grupo_120651" data-name="Grupo 120651" transform="translate(24.985 16.843)">
                  <path id="Trazado_185729" data-name="Trazado 185729" d="M1242.359,991.782l1.777-1.033-.027,9.473-1.778,1.033Z" transform="translate(-1242.332 -990.749)" fill="gray"/>
                </g>
                <g id="Grupo_120652" data-name="Grupo 120652" transform="translate(26.015 17.438)">
                  <path id="Trazado_185730" data-name="Trazado 185730" d="M1243.2,992.267l1.777-1.033-.027,9.473-1.778,1.033Z" transform="translate(-1243.172 -991.234)" fill="#232d41"/>
                </g>
                <g id="Grupo_120653" data-name="Grupo 120653" transform="translate(25.012 16.843)">
                  <path id="Trazado_185731" data-name="Trazado 185731" d="M1242.354,991.782l1.777-1.033,1.031.595-1.777,1.033Z" transform="translate(-1242.354 -990.749)" fill="#2f3d58"/>
                </g>
                <g id="Grupo_120654" data-name="Grupo 120654" transform="translate(24.985 17.876)">
                  <path id="Trazado_185732" data-name="Trazado 185732" d="M1243.39,992.186l-.027,9.473-1.031-.595.027-9.473Z" transform="translate(-1242.332 -991.591)" fill="#3c4e71"/>
                </g>
                <g id="Grupo_120655" data-name="Grupo 120655" transform="translate(26.639 17.801)">
                  <path id="Trazado_185733" data-name="Trazado 185733" d="M1243.712,992.563l1.777-1.033-.031,10.916-1.777,1.033Z" transform="translate(-1243.681 -991.53)" fill="gray"/>
                </g>
                <g id="Grupo_120656" data-name="Grupo 120656" transform="translate(26.67 17.8)">
                  <path id="Trazado_185734" data-name="Trazado 185734" d="M1243.706,992.562l1.777-1.033,1.031.6-1.778,1.033Z" transform="translate(-1243.706 -991.529)" fill="#2f3d58"/>
                </g>
                <g id="Grupo_120657" data-name="Grupo 120657" transform="translate(27.67 18.395)">
                  <path id="Trazado_185735" data-name="Trazado 185735" d="M1244.552,993.047l1.778-1.033-.031,10.917-1.778,1.033Z" transform="translate(-1244.521 -992.015)" fill="#232d41"/>
                </g>
                <g id="Grupo_120658" data-name="Grupo 120658" transform="translate(0 1.033)">
                  <path id="Trazado_185736" data-name="Trazado 185736" d="M1222,977.858l30.932,17.858-.044,15.45-30.932-17.859Zm4.375,15.887.031-10.916-1.031-.595-.031,10.916,1.031.595Zm18.275,10.552.032-10.916-1.03-.595-.032,10.916,1.03.595Zm-6.65-3.84.031-10.916-1.03-.595-.031,10.916,1.03.595Zm11.625,6.712.032-10.916-1.031-.595-.031,10.916,1.03.595ZM1229.7,994.217l.026-9.473-1.03-.6-.027,9.474,1.031.595Zm-1.659-.958.027-9.473-1.03-.595-.027,9.473,1.03.595Zm8.309,4.8.027-9.473-1.03-.595-.027,9.473,1.03.595Zm3.317,1.916.027-9.473-1.031-.595-.027,9.473,1.031.595Zm-4.976-2.872.027-9.473-1.031-.6-.027,9.474,1.031.595Zm8.308,4.8.027-9.473-1.03-.595-.027,9.473,1.03.595Zm3.317,1.916.027-9.474-1.03-.595-.027,9.474,1.03.595Zm1.658.957L1248,995.3l-1.03-.595-.027,9.473,1.03.595Zm-14.958-8.636.027-9.473-1.014-.585-.027,9.473,1.014.585Zm8.309,4.8.027-9.473-1.014-.586-.027,9.473,1.014.586Zm-9.967-5.754.027-9.474-1.014-.585-.027,9.473,1.014.586Z" transform="translate(-1221.96 -977.858)" fill="#ddd"/>
                </g>
                <g id="Grupo_120659" data-name="Grupo 120659" transform="translate(5.05 6.366)">
                  <path id="Trazado_185737" data-name="Trazado 185737" d="M1227.135,982.8l-.027,9.473-1.031-.6.027-9.473Z" transform="translate(-1226.078 -982.206)" fill="#3c4e71"/>
                </g>
                <g id="Grupo_120660" data-name="Grupo 120660" transform="translate(6.709 7.324)">
                  <path id="Trazado_185738" data-name="Trazado 185738" d="M1228.488,983.582l-.027,9.473-1.031-.595.027-9.473Z" transform="translate(-1227.43 -982.987)" fill="#3c4e71"/>
                </g>
                <g id="Grupo_120661" data-name="Grupo 120661" transform="translate(11.7 10.206)">
                  <path id="Trazado_185739" data-name="Trazado 185739" d="M1232.558,985.932l-.027,9.473-1.031-.595.027-9.473Z" transform="translate(-1231.5 -985.337)" fill="#3c4e71"/>
                </g>
                <g id="Grupo_120662" data-name="Grupo 120662" transform="translate(15.013 12.121)">
                  <path id="Trazado_185740" data-name="Trazado 185740" d="M1235.263,987.494l-.031,10.917-1.031-.595.031-10.917Z" transform="translate(-1234.202 -986.899)" fill="#3c4e71"/>
                </g>
                <g id="Grupo_120663" data-name="Grupo 120663" transform="translate(16.676 13.079)">
                  <path id="Trazado_185741" data-name="Trazado 185741" d="M1236.615,988.274l-.027,9.473-1.031-.6.027-9.473Z" transform="translate(-1235.557 -987.68)" fill="#3c4e71"/>
                </g>
                <g id="Grupo_120664" data-name="Grupo 120664" transform="translate(18.351 14.045)">
                  <path id="Trazado_185742" data-name="Trazado 185742" d="M1237.964,989.054l-.027,9.473-1.015-.586.027-9.473Z" transform="translate(-1236.923 -988.468)" fill="#3c4e71"/>
                </g>
                <g id="Grupo_120665" data-name="Grupo 120665" transform="translate(21.663 15.961)">
                  <path id="Trazado_185743" data-name="Trazado 185743" d="M1240.686,990.624l-.031,10.917-1.031-.595.031-10.917Z" transform="translate(-1239.624 -990.029)" fill="#3c4e71"/>
                </g>
                <g id="Grupo_120666" data-name="Grupo 120666" transform="translate(23.326 16.918)">
                  <path id="Trazado_185744" data-name="Trazado 185744" d="M1242.037,991.405l-.027,9.473-1.031-.595.027-9.473Z" transform="translate(-1240.98 -990.81)" fill="#3c4e71"/>
                </g>
                <g id="Grupo_120667" data-name="Grupo 120667" transform="translate(26.639 18.833)">
                  <path id="Trazado_185745" data-name="Trazado 185745" d="M1244.743,992.967l-.031,10.917-1.031-.6.031-10.917Z" transform="translate(-1243.681 -992.372)" fill="#3c4e71"/>
                </g>
                <g id="Grupo_120668" data-name="Grupo 120668" transform="translate(0.044)">
                  <path id="Trazado_185746" data-name="Trazado 185746" d="M1222,978.048l1.777-1.033,30.932,17.859-1.777,1.033Z" transform="translate(-1221.996 -977.015)" fill="#acacac"/>
                </g>
                <g id="Grupo_120669" data-name="Grupo 120669" transform="translate(30.932 17.859)">
                  <path id="Trazado_185747" data-name="Trazado 185747" d="M1247.226,992.61l1.777-1.033-.044,15.449-1.778,1.033Z" transform="translate(-1247.182 -991.577)" fill="gray"/>
                </g>
              </g>
            </g>
            <g id="Grupo_120691" data-name="Grupo 120691" transform="translate(0.001)">
              <g id="Grupo_120690" data-name="Grupo 120690" style="isolation: isolate">
                <g id="Grupo_120672" data-name="Grupo 120672" transform="translate(2.632 11.877)">
                  <path id="Trazado_185748" data-name="Trazado 185748" d="M1224.112,971.781l1.777-1.033,0,1.48-1.778,1.033Z" transform="translate(-1224.107 -970.748)" fill="#868686"/>
                </g>
                <g id="Grupo_120673" data-name="Grupo 120673" transform="translate(2.649 6.086)">
                  <path id="Trazado_185749" data-name="Trazado 185749" d="M1224.125,967.059l1.778-1.033,0,1.462-1.777,1.033Z" transform="translate(-1224.121 -966.026)" fill="#868686"/>
                </g>
                <g id="Grupo_120674" data-name="Grupo 120674" transform="translate(2.655 3.773)">
                  <path id="Trazado_185750" data-name="Trazado 185750" d="M1224.13,965.173l1.777-1.033,0,1.48-1.778,1.033Z" transform="translate(-1224.126 -964.14)" fill="#868686"/>
                </g>
                <g id="Grupo_120675" data-name="Grupo 120675" transform="translate(2.632 13.357)">
                  <path id="Trazado_185751" data-name="Trazado 185751" d="M1224.107,972.987l1.778-1.033,10.853,6.266-1.777,1.033Z" transform="translate(-1224.107 -971.954)" fill="#b4b4b4"/>
                </g>
                <g id="Grupo_120676" data-name="Grupo 120676" transform="translate(2.637 11.877)">
                  <path id="Trazado_185752" data-name="Trazado 185752" d="M1224.111,971.78l1.777-1.033,10.853,6.266-1.778,1.033Z" transform="translate(-1224.111 -970.748)" fill="#313f5c"/>
                </g>
                <g id="Grupo_120677" data-name="Grupo 120677" transform="translate(2.632 12.91)">
                  <path id="Trazado_185753" data-name="Trazado 185753" d="M1234.964,977.856l0,1.48-10.853-6.266,0-1.48Z" transform="translate(-1224.108 -971.59)" fill="#3f5277"/>
                </g>
                <g id="Grupo_120678" data-name="Grupo 120678" transform="translate(13.485 18.142)">
                  <path id="Trazado_185754" data-name="Trazado 185754" d="M1232.961,976.89l1.778-1.033,0,1.48-1.778,1.033Z" transform="translate(-1232.957 -975.857)" fill="#242f44"/>
                </g>
                <g id="Grupo_120679" data-name="Grupo 120679" transform="translate(2.649 7.547)">
                  <path id="Trazado_185755" data-name="Trazado 185755" d="M1224.121,968.25l1.777-1.033,10.853,6.266-1.777,1.033Z" transform="translate(-1224.121 -967.217)" fill="#b4b4b4"/>
                </g>
                <g id="Grupo_120680" data-name="Grupo 120680" transform="translate(2.653 6.086)">
                  <path id="Trazado_185756" data-name="Trazado 185756" d="M1224.124,967.058l1.778-1.033,10.853,6.266-1.777,1.033Z" transform="translate(-1224.124 -966.026)" fill="#313f5c"/>
                </g>
                <g id="Grupo_120681" data-name="Grupo 120681" transform="translate(13.502 12.351)">
                  <path id="Trazado_185757" data-name="Trazado 185757" d="M1232.974,972.168l1.777-1.033,0,1.462-1.777,1.033Z" transform="translate(-1232.97 -971.135)" fill="#242f44"/>
                </g>
                <g id="Grupo_120682" data-name="Grupo 120682" transform="translate(2.655 5.253)">
                  <path id="Trazado_185758" data-name="Trazado 185758" d="M1224.126,966.38l1.778-1.033,17.89,10.328-1.777,1.033Z" transform="translate(-1224.126 -965.347)" fill="#b4b4b4"/>
                </g>
                <g id="Grupo_120683" data-name="Grupo 120683" transform="translate(2.66 3.773)">
                  <path id="Trazado_185759" data-name="Trazado 185759" d="M1224.13,965.173l1.777-1.033,17.889,10.328-1.777,1.033Z" transform="translate(-1224.13 -964.14)" fill="#313f5c"/>
                </g>
                <g id="Grupo_120684" data-name="Grupo 120684" transform="translate(20.545 14.101)">
                  <path id="Trazado_185760" data-name="Trazado 185760" d="M1238.717,973.594l1.777-1.033,0,1.48-1.777,1.033Z" transform="translate(-1238.713 -972.561)" fill="#242f44"/>
                </g>
                <g id="Grupo_120685" data-name="Grupo 120685" transform="translate(0 1.033)">
                  <path id="Trazado_185761" data-name="Trazado 185761" d="M1222,961.906l30.932,17.859-.042,14.469-30.932-17.859Zm20.5,15.581,0-1.48-17.888-10.329,0,1.48,17.89,10.329Zm-7.059,4.041,0-1.48-10.852-6.266,0,1.48,10.854,6.266Zm.016-5.809,0-1.462-10.854-6.266,0,1.462,10.852,6.266Z" transform="translate(-1221.961 -961.906)" fill="#e9e9e9"/>
                </g>
                <g id="Grupo_120686" data-name="Grupo 120686" transform="translate(2.649 7.118)">
                  <path id="Trazado_185762" data-name="Trazado 185762" d="M1234.978,973.134l0,1.462-10.853-6.266,0-1.462Z" transform="translate(-1224.121 -966.868)" fill="#3f5277"/>
                </g>
                <g id="Grupo_120687" data-name="Grupo 120687" transform="translate(2.655 4.806)">
                  <path id="Trazado_185763" data-name="Trazado 185763" d="M1242.02,975.311l0,1.48-17.89-10.328,0-1.48Z" transform="translate(-1224.126 -964.982)" fill="#3f5277"/>
                </g>
                <g id="Grupo_120688" data-name="Grupo 120688" transform="translate(0.041)">
                  <path id="Trazado_185764" data-name="Trazado 185764" d="M1221.995,962.1l1.777-1.033,30.932,17.859-1.777,1.033Z" transform="translate(-1221.995 -961.063)" fill="#b4b4b4"/>
                </g>
                <g id="Grupo_120689" data-name="Grupo 120689" transform="translate(30.932 17.859)">
                  <path id="Trazado_185765" data-name="Trazado 185765" d="M1247.224,976.658l1.777-1.033-.041,14.469-1.778,1.033Z" transform="translate(-1247.183 -975.625)" fill="#868686"/>
                </g>
              </g>
            </g>
          </g>
        </g>
      </g>
      <g id="Grupo_120696" data-name="Grupo 120696" transform="translate(1056.648 943.732)">
        <path id="Trazado_185766" data-name="Trazado 185766" d="M1206.188,1053.511c-5.062.37-11.913-7.345-15.863-14.646-5.864,11.667-14.01,26.052-19.757,33.238,5.47,1.558,15.822.318,18.088-.211,2.877-.672,5.754,1.343,6.809,4.123s-1.63,9.208-7.193,11.8-11.112,4.738-19.648,2.724-19.958,1.554-21.59-4.777a9.032,9.032,0,0,1,.02-3.623,38.45,38.45,0,0,1,3.066-9.041,5.9,5.9,0,0,1-.5-2.93c.575-6.042,4.891-16.4,4.891-16.4s-8.747,13.533-19.565,15.537c0,12.948-18.414,14.386-26.758,19.278-.865.505-1.826,1.155-2.829,1.873.989,8.027,6.712,15.888,17.276,22.028,23.408,13.6,61.48,13.607,85.041,0,9.06-5.232,14.651-11.712,16.774-18.481l23.439,13.532,33.139-19.1-68.389-39.485C1209.93,1051.635,1207.636,1053.4,1206.188,1053.511Z" transform="translate(-1045.62 -907.908)" fill="#838383" opacity="0.23" style="mix-blend-mode: multiply;isolation: isolate"/>
        <path id="Trazado_185767" data-name="Trazado 185767" d="M1075.577,1119.056c-1.791.033-3.7-1.051-5.659-3.689a15.6,15.6,0,0,1-2.5-13.759c-.574.286-1.149.569-1.693.883-12.051,6.958-12.112,18.237-.14,25.194s31.444,6.958,43.494,0,12.115-18.238.142-25.2a40.865,40.865,0,0,0-15.719-4.875c-2.2,2.729-6.234,8.192-6.994,12.475C1085.456,1116.039,1082.483,1119.779,1075.577,1119.056Z" transform="translate(-1056.648 -894.606)" fill="#838383" opacity="0.186" style="mix-blend-mode: multiply;isolation: isolate"/>
        <path id="Trazado_185768" data-name="Trazado 185768" d="M1093.783,1088.262a21.238,21.238,0,0,0-.606-4.143c-2.377,4.527-9.72,9.069-10.256,17.234-.585,8.926-5.078,20.64-10.838,20.756,6.906.727,9.879-3.013,10.933-8.96.76-4.282,4.793-9.746,6.994-12.475.855-1.059,1.442-1.719,1.442-1.719l1.2-2.9A21.142,21.142,0,0,0,1093.783,1088.262Z" transform="translate(-1053.154 -897.662)" fill="#4d4d4d"/>
        <path id="Trazado_185769" data-name="Trazado 185769" d="M1248.959,997.7c-.022.023.011.078.086.159C1249.022,997.731,1248.994,997.667,1248.959,997.7Z" transform="translate(-1013.11 -917.229)" fill="#e8b188"/>
        <path id="Trazado_185770" data-name="Trazado 185770" d="M1089.554,1083.132a5.113,5.113,0,0,1,.666,6.169,21.238,21.238,0,0,1,.606,4.143c9.212-10,28.807-18.018,33.639-19.518,5.563-1.727,2.3-9.4,2.3-9.4-7.846,0-14.786-1.007-20.562-3.292l-21.062,18.254s.318.336.8.964A6.881,6.881,0,0,1,1089.554,1083.132Z" transform="translate(-1050.197 -902.843)" fill="#292e3f"/>
        <path id="Trazado_185771" data-name="Trazado 185771" d="M1138.939,1071.625c10.818-2,19.565-15.537,19.565-15.537s-4.316,10.358-4.891,16.4a5.9,5.9,0,0,0,.5,2.93c2.051,4.7,9.805,7.864,16.765,2.824.238-.173.489-.379.748-.608-2.883.416-8.01.7-8.422-2.461-.575-4.411,5.947-17.838,11.317-26.471,2.786-4.476,7.165-11.061,10.714-16.639-.455-1.009-.911-2.182-1.363-3.458-12.316,12.715-38.151,38.382-58.073,39.088-19.018.674-28.957-13.851-33.182-22.534-.5,9.066,2.45,16.621,13.521,23.014l-.518.448c5.776,2.285,12.715,3.292,20.562,3.292,0,0,3.261,7.674-2.3,9.4-4.832,1.5-24.428,9.516-33.639,19.518a21.142,21.142,0,0,1-1.128,7.789l-1.2,2.9c-.064.129-.124.256-.189.385,0,0,12.935-12.926,21.628-19.131,1-.717,1.965-1.367,2.829-1.873C1120.524,1086.01,1138.939,1084.573,1138.939,1071.625Z" transform="translate(-1049.613 -910.23)" fill="#171c2b"/>
        <path id="Trazado_185772" data-name="Trazado 185772" d="M1158.166,1023.047c-2.5,2.854-5.183,5.886-7.821,8.842,0,.012,14.784-16.469,14.784-16.469-.022-.091-.044-.183-.065-.272C1163.114,1017.391,1160.747,1020.108,1158.166,1023.047Z" transform="translate(-1035.435 -913.277)" fill="#f15a24"/>
        <path id="Trazado_185773" data-name="Trazado 185773" d="M1178.2,1035.717c-.9.331-2.3.4-4.378-.639-.8-.4-1.653-1.742-2.514-3.654-3.549,5.578-7.927,12.162-10.714,16.639-5.37,8.633-11.892,22.059-11.317,26.471.412,3.158,5.538,2.877,8.422,2.461a26.447,26.447,0,0,0,2.935-3.208c5.747-7.186,13.894-21.571,19.757-33.238A35.011,35.011,0,0,1,1178.2,1035.717Z" transform="translate(-1035.685 -909.592)" fill="#292e3f"/>
        <path id="Trazado_185774" data-name="Trazado 185774" d="M1124.9,1070.689c19.922-.706,45.757-26.373,58.073-39.088-1.719-4.858-3.365-11.245-4.565-16.231l-14.789,16.482c-15.835,36.293-61.71,30.258-71.752,14.76-.049.514-.12,1.039-.148,1.544C1095.939,1056.838,1105.878,1071.364,1124.9,1070.689Z" transform="translate(-1048.709 -913.227)" fill="#292e3f"/>
        <path id="Trazado_185775" data-name="Trazado 185775" d="M1152.161,976.4a10.158,10.158,0,0,0,3.242,3.672c.583.461,1.2.9,1.857,1.349.064.042.125.085.189.128.641.424,1.334.851,2.066,1.274l.308.174q1.1.624,2.318,1.223c.113.056.229.11.345.166.835.4,1.7.8,2.607,1.17.083.034.172.067.255.1.955.389,1.94.761,2.961,1.1.724.244,1.4.482,2.076.72,4.773-.312,8.473.292,10.039,1.024.326.152.562.282.819.416l-3.626-6.571s-.08,0-.206.01l-.151,0c-.137,0-.312.007-.53.009h-.249c-.292,0-.624,0-1.012-.018-.538-.02-1.02-.048-1.542-.091-.1-.009-.207-.021-.31-.029-.429-.039-.879-.089-1.355-.152-.158-.021-.313-.042-.476-.065q-.75-.11-1.55-.267c-.118-.023-.229-.041-.348-.066q-.988-.2-2.02-.5c-.1-.028-.2-.065-.3-.094q-.857-.256-1.723-.581c-.094-.036-.188-.058-.282-.094s-.183-.089-.275-.126q-.9-.364-1.787-.819c-.135-.069-.269-.128-.4-.2a19.1,19.1,0,0,1-2.033-1.274c-.145-.1-.281-.223-.423-.332a16.671,16.671,0,0,1-1.489-1.289c-.168-.163-.335-.325-.5-.5a15.508,15.508,0,0,1-1.629-2.01l-5.009,1.87.145.659Z" transform="translate(-1035.057 -922.622)" fill="#f2f2f2"/>
        <path id="Trazado_185776" data-name="Trazado 185776" d="M1169.713,978.025c1.87-1.4,4.172-10.222,5.995-12.908s3.932-1.343,4.124,0,.48,4.687,1.055,4.6,1.534-.282,1.534-1.434a82.8,82.8,0,0,1,1.609-10.07,14.247,14.247,0,0,1,1.217-2.672c-.673.4-1.353.806-2.065,1.285-6.708,4.529-15.765,10.567-28.009,8.386a28.993,28.993,0,0,1-4.073-1.017,21.227,21.227,0,0,1-2.111-.835c.67,1.439,1.379,2.811,2.067,4.064a67.715,67.715,0,0,1,3.505,6.517,9.148,9.148,0,0,0,2.2,2.233C1161.177,979.374,1168.144,979.2,1169.713,978.025Z" transform="translate(-1035.742 -926.773)" fill="#311b0b"/>
        <path id="Trazado_185777" data-name="Trazado 185777" d="M1156.984,940.647c-.758.375-1.515.737-2.282,1.179-6.89,3.959-8.672,9.388-8.163,14.849a24.983,24.983,0,0,0,4.343,3.186A35.847,35.847,0,0,1,1156.984,940.647Z" transform="translate(-1036.315 -930.145)" fill="#311b0b"/>
        <path id="Trazado_185778" data-name="Trazado 185778" d="M1154.441,961.024c2.714-14.161,15.042-21.072,23.056-22.07a26.92,26.92,0,0,0-9.392-1.191C1160.193,942.469,1154.441,951.469,1154.441,961.024Z" transform="translate(-1034.508 -930.805)" fill="#311b0b"/>
        <path id="Trazado_185779" data-name="Trazado 185779" d="M1166.491,964.314c10.126-3.818,18.189-12.979,19.073-19.843a27.955,27.955,0,0,0-3.368-2.748C1183.3,947.213,1179.005,955.455,1166.491,964.314Z" transform="translate(-1031.78 -929.901)" fill="#311b0b"/>
        <path id="Trazado_185780" data-name="Trazado 185780" d="M1068.04,1120.077c1.956,2.638,3.868,3.722,5.659,3.685,5.759-.115,10.253-11.83,10.838-20.756.536-8.164,7.88-12.707,10.256-17.234a5.113,5.113,0,0,0-.666-6.169,6.881,6.881,0,0,0-3.609-2.681c-2.823-.667-6.441,1.583-12.311,8.627-5.232,6.278-10.86,13.542-12.666,20.768A15.6,15.6,0,0,0,1068.04,1120.077Z" transform="translate(-1054.77 -899.316)" fill="#b3b3b3"/>
        <path id="Trazado_185781" data-name="Trazado 185781" d="M1159.935,1069.238c-.259.229-.51.435-.748.608-6.96,5.039-14.714,1.872-16.765-2.824a38.45,38.45,0,0,0-3.066,9.041c4.069,6.171,9.263,3.357,18.968,4.223,10.742.959,18.028.87,23.594-2.686s5.85-7.658,5.85-7.658c-1.055-2.78-3.932-4.8-6.809-4.123-2.266.528-12.618,1.768-18.088.211A26.437,26.437,0,0,1,1159.935,1069.238Z" transform="translate(-1037.923 -901.834)" fill="#4d4d4d"/>
        <path id="Trazado_185782" data-name="Trazado 185782" d="M1181.953,1076.815c-5.566,3.555-12.851,3.645-23.594,2.686-9.7-.866-14.9,1.949-18.968-4.223a9.034,9.034,0,0,0-.02,3.623c1.631,6.331,13.054,2.763,21.59,4.777s14.085-.134,19.648-2.724,8.248-9.015,7.193-11.8C1187.8,1069.157,1187.517,1073.259,1181.953,1076.815Z" transform="translate(-1037.958 -901.049)" fill="#b3b3b3"/>
        <path id="Trazado_185783" data-name="Trazado 185783" d="M1158.4,980.921a16.671,16.671,0,0,0,1.489,1.289c.142.109.278.228.423.332a18.963,18.963,0,0,0,2.033,1.274c.134.072.267.131.4.2q.885.454,1.787.819c.092.037.183.089.275.126,3.74-3.473,6.777-10.382,7.16-10.573.432-.218-.889,2.894,3.165,5.106,2.968,1.618,6.984,1.269,8.925.966,1.343-1.387,3.732-21.07,3.736-26.641-1.111.525-2.276,1.106-3.511,1.814-.152.088-.319.2-.473.294a14.247,14.247,0,0,0-1.217,2.672,82.8,82.8,0,0,0-1.609,10.07c0,1.151-.959,1.343-1.534,1.434s-.864-3.255-1.055-4.6-2.3-2.685-4.124,0-4.124,11.509-5.995,12.908c-1.568,1.175-8.536,1.349-12.948-1.852.572,1.159.946,1.852.946,1.852a15.426,15.426,0,0,0,1.629,2.01C1158.066,980.6,1158.233,980.758,1158.4,980.921Z" transform="translate(-1034.307 -927.162)" fill="#e8b188"/>
        <path id="Trazado_185784" data-name="Trazado 185784" d="M1173.385,975.7c-4.054-2.211-2.734-5.324-3.165-5.106-.383.191-3.419,7.1-7.16,10.573.094.037.188.059.282.094q.865.326,1.723.581c.1.03.2.066.3.094.685.2,1.361.361,2.02.5.119.026.23.043.348.066.532.1,1.052.194,1.55.267.163.023.318.044.476.065.473.063.927.113,1.355.152.1.009.21.021.31.029.519.043,1.006.071,1.434.088.491.016.83.021,1.12.021h.249c.208,0,.4,0,.53-.009l.151,0,.206-.01c0-1.439,0-4.411.761-4.891s5.083-.193,6.427-1.534C1180.369,976.969,1176.353,977.317,1173.385,975.7Z" transform="translate(-1032.556 -923.367)" fill="#ce9772"/>
        <path id="Trazado_185785" data-name="Trazado 185785" d="M1215.953,1023.018c2.107.339,5.715-.609,6.063-2.4.34-1.749.177-8.786.069-12.341a14.457,14.457,0,0,0-2.335,7.356C1219.693,1018.468,1217.88,1021.137,1215.953,1023.018Z" transform="translate(-1020.581 -914.833)" fill="#292e3f"/>
        <path id="Trazado_185786" data-name="Trazado 185786" d="M1176.382,1039.5c5.631,9.035,11.619,14.223,15.644,12.622,4.758-1.891,29.19-30.612,31.476-34.222,1.674-2.643,4.892-6.865,7.593-8.94a4.409,4.409,0,0,1,1.185-1.288c.719-.4.888-1.873.316-2.788l-11.314,6.575-1.712-.99a24.571,24.571,0,0,1-.087,5.931c-.789,3.212-25.46,23.711-27.457,22.376-.952-.635-1.893-3.363-2.837-6.358C1186.92,1034.719,1180.31,1037.795,1176.382,1039.5Z" transform="translate(-1029.54 -915.601)" fill="#e8b188"/>
        <path id="Trazado_185787" data-name="Trazado 185787" d="M1224.3,1017.131c-2.286,3.609-26.717,32.331-31.476,34.222-4.025,1.6-10.013-3.587-15.644-12.622-1.786.774-3.031,1.274-3.031,1.274a2.666,2.666,0,0,1-1.3.954,34.982,34.982,0,0,0,2.19,4.832c3.95,7.3,10.8,15.016,15.863,14.646,1.448-.107,3.742-1.875,6.451-4.563,9.378-9.3,23.776-29.667,25.683-30.76a14.1,14.1,0,0,0,2.67-2.1c1.927-1.88,3.741-4.55,3.8-7.387a14.457,14.457,0,0,1,2.335-7.356C1229.193,1010.265,1225.975,1014.488,1224.3,1017.131Z" transform="translate(-1030.339 -914.833)" fill="#ce9772"/>
        <path id="Trazado_185788" data-name="Trazado 185788" d="M1231.894,993.829l-3.206-1.85,3.206,1.85Z" transform="translate(-1017.698 -918.523)" fill="#161922"/>
        <path id="Trazado_185789" data-name="Trazado 185789" d="M1218.975,994.3l7.535-4.378-7.535,4.379Z" transform="translate(-1019.897 -918.989)" fill="#202331"/>
        <path id="Trazado_185790" data-name="Trazado 185790" d="M1218.975,993.488l7.584,4.378Z" transform="translate(-1019.897 -918.181)" fill="#313849"/>
        <path id="Trazado_185791" data-name="Trazado 185791" d="M1216.771,995l1.616-.939-1.616.939Z" transform="translate(-1020.396 -918.051)" fill="#202331"/>
        <path id="Trazado_185792" data-name="Trazado 185792" d="M1216.771,995l.939.542.688.4,1.616-.939-1.626-.939Z" transform="translate(-1020.396 -918.051)" fill="#4e5a76"/>
        <path id="Trazado_185793" data-name="Trazado 185793" d="M1216.771,994.83l.939.542-.939-.542Z" transform="translate(-1020.396 -917.877)" fill="#313849"/>
        <path id="Trazado_185794" data-name="Trazado 185794" d="M1219.988,994.989l-1.616.939Z" transform="translate(-1020.033 -917.841)" fill="#202331"/>
        <path id="Trazado_185795" data-name="Trazado 185795" d="M1215.166,995.935l1.615-.939-1.616.939Z" transform="translate(-1020.759 -917.84)" fill="#202331"/>
        <path id="Trazado_185796" data-name="Trazado 185796" d="M1218.372,995.928l.688.4.939.542,1.616-.939-1.627-.939Z" transform="translate(-1020.033 -917.841)" fill="#4e5a76"/>
        <path id="Trazado_185797" data-name="Trazado 185797" d="M1218.933,996.078l.938.542Z" transform="translate(-1019.906 -917.595)" fill="#313849"/>
        <path id="Trazado_185798" data-name="Trazado 185798" d="M1215.166,995.762l1.626.939Z" transform="translate(-1020.759 -917.666)" fill="#313849"/>
        <path id="Trazado_185799" data-name="Trazado 185799" d="M1221.59,995.914l-1.616.938Z" transform="translate(-1019.671 -917.632)" fill="#202331"/>
        <path id="Trazado_185800" data-name="Trazado 185800" d="M1216.768,996.86l1.615-.939Z" transform="translate(-1020.397 -917.63)" fill="#202331"/>
        <path id="Trazado_185801" data-name="Trazado 185801" d="M1213.562,996.868l1.615-.938-1.616.938Z" transform="translate(-1021.122 -917.628)" fill="#202331"/>
        <path id="Trazado_185802" data-name="Trazado 185802" d="M1218.975,994.3l7.584,4.379,7.535-4.379-3.206-1.85-4.378-2.528Z" transform="translate(-1019.897 -918.989)" fill="#fff"/>
        <path id="Trazado_185803" data-name="Trazado 185803" d="M1219.974,996.853l1.626.939,1.616-.939-1.626-.939Z" transform="translate(-1019.671 -917.632)" fill="#4e5a76"/>
        <path id="Trazado_185804" data-name="Trazado 185804" d="M1216.768,996.86l1.626.939,1.616-.939-1.626-.939Z" transform="translate(-1020.397 -917.63)" fill="#4e5a76"/>
        <path id="Trazado_185805" data-name="Trazado 185805" d="M1216.768,996.687l1.626.938Z" transform="translate(-1020.397 -917.457)" fill="#313849"/>
        <path id="Trazado_185806" data-name="Trazado 185806" d="M1213.562,996.694l1.626.94Z" transform="translate(-1021.122 -917.455)" fill="#313849"/>
        <path id="Trazado_185807" data-name="Trazado 185807" d="M1223.191,996.838l-1.615.939Z" transform="translate(-1019.308 -917.423)" fill="#202331"/>
        <path id="Trazado_185808" data-name="Trazado 185808" d="M1219.985,996.846l-1.615.939Z" transform="translate(-1020.034 -917.421)" fill="#202331"/>
        <path id="Trazado_185809" data-name="Trazado 185809" d="M1216.779,996.854l-1.616.938Z" transform="translate(-1020.76 -917.419)" fill="#202331"/>
        <path id="Trazado_185810" data-name="Trazado 185810" d="M1211.97,997.791l1.6-.929-1.6.929Z" transform="translate(-1021.483 -917.417)" fill="#202331"/>
        <path id="Trazado_185811" data-name="Trazado 185811" d="M1223.2,998.716l1.616-.939-1.626-.939-1.616.939Z" transform="translate(-1019.308 -917.422)" fill="#4e5a76"/>
        <path id="Trazado_185812" data-name="Trazado 185812" d="M1215.164,997.792l1.626.939.939-.546.677-.394-1.626-.938Z" transform="translate(-1020.76 -917.419)" fill="#4e5a76"/>
        <path id="Trazado_185813" data-name="Trazado 185813" d="M1215.164,997.619l1.626.939Z" transform="translate(-1020.76 -917.246)" fill="#313849"/>
        <path id="Trazado_185814" data-name="Trazado 185814" d="M1217.255,998.013l.677-.394Z" transform="translate(-1020.286 -917.246)" fill="#46516a"/>
        <path id="Trazado_185815" data-name="Trazado 185815" d="M1211.97,997.619l1.626.939Z" transform="translate(-1021.483 -917.246)" fill="#313849"/>
        <path id="Trazado_185816" data-name="Trazado 185816" d="M1221.587,997.771l-1.616.938Z" transform="translate(-1019.671 -917.211)" fill="#202331"/>
        <path id="Trazado_185817" data-name="Trazado 185817" d="M1218.381,997.779l-1.616.938Z" transform="translate(-1020.397 -917.21)" fill="#202331"/>
        <path id="Trazado_185818" data-name="Trazado 185818" d="M1215.171,997.786l-1.6.93Z" transform="translate(-1021.12 -917.208)" fill="#202331"/>
        <path id="Trazado_185819" data-name="Trazado 185819" d="M1211.965,997.794l-1.6.928Z" transform="translate(-1021.846 -917.206)" fill="#202331"/>
        <path id="Trazado_185820" data-name="Trazado 185820" d="M1223.213,998.71l-1.626-.939-1.615.939,1.626.939Z" transform="translate(-1019.671 -917.211)" fill="#4e5a76"/>
        <path id="Trazado_185821" data-name="Trazado 185821" d="M1216.765,998.544l1.626.939Z" transform="translate(-1020.397 -917.036)" fill="#313849"/>
        <path id="Trazado_185822" data-name="Trazado 185822" d="M1213.572,998.544l1.626.939Z" transform="translate(-1021.12 -917.036)" fill="#313849"/>
        <path id="Trazado_185823" data-name="Trazado 185823" d="M1213.572,998.716l1.626.939,1.6-.929-1.626-.939Z" transform="translate(-1021.12 -917.208)" fill="#4e5a76"/>
        <path id="Trazado_185824" data-name="Trazado 185824" d="M1210.366,998.723l1.626.938,1.6-.93-1.626-.938Z" transform="translate(-1021.846 -917.206)" fill="#4e5a76"/>
        <path id="Trazado_185825" data-name="Trazado 185825" d="M1219.982,998.7l-1.615.939Z" transform="translate(-1020.034 -917)" fill="#202331"/>
        <path id="Trazado_185826" data-name="Trazado 185826" d="M1216.35,998.911l-1.176.684Z" transform="translate(-1020.757 -916.953)" fill="#202331"/>
        <path id="Trazado_185827" data-name="Trazado 185827" d="M1213.567,998.719l-1.6.928Z" transform="translate(-1021.484 -916.997)" fill="#202331"/>
        <path id="Trazado_185828" data-name="Trazado 185828" d="M1208.761,999.657l1.615-.938-1.616.938Z" transform="translate(-1022.209 -916.997)" fill="#202331"/>
        <path id="Trazado_185829" data-name="Trazado 185829" d="M1218.367,999.642l1.626.939,1.615-.939-1.626-.938Z" transform="translate(-1020.034 -917)" fill="#4e5a76"/>
        <path id="Trazado_185830" data-name="Trazado 185830" d="M1219.993,1000.408l-1.626-.939,1.626.939Z" transform="translate(-1020.034 -916.827)" fill="#313849"/>
        <path id="Trazado_185831" data-name="Trazado 185831" d="M1216.8,1000.58l1.6-.93-1.626-.94-.424.246-1.176.683Z" transform="translate(-1020.758 -916.999)" fill="#4e5a76"/>
        <path id="Trazado_185832" data-name="Trazado 185832" d="M1216.8,1000.408l-1.626-.939Z" transform="translate(-1020.757 -916.827)" fill="#313849"/>
        <path id="Trazado_185833" data-name="Trazado 185833" d="M1211.968,999.648l1.626.938,1.6-.93-1.626-.939Z" transform="translate(-1021.483 -916.997)" fill="#4e5a76"/>
        <path id="Trazado_185834" data-name="Trazado 185834" d="M1211.968,999.477l1.626.938Z" transform="translate(-1021.483 -916.825)" fill="#313849"/>
        <path id="Trazado_185835" data-name="Trazado 185835" d="M1208.761,999.657l1.626.939,1.615-.939-1.626-.938Z" transform="translate(-1022.209 -916.997)" fill="#4e5a76"/>
        <path id="Trazado_185836" data-name="Trazado 185836" d="M1208.762,999.484l1.625.939Z" transform="translate(-1022.209 -916.824)" fill="#313849"/>
        <path id="Trazado_185837" data-name="Trazado 185837" d="M1218.375,999.636l-1.6.928Z" transform="translate(-1020.395 -916.789)" fill="#202331"/>
        <path id="Trazado_185838" data-name="Trazado 185838" d="M1215.169,999.643l-1.6.93Z" transform="translate(-1021.121 -916.788)" fill="#202331"/>
        <path id="Trazado_185839" data-name="Trazado 185839" d="M1214.874,999.643l1.031.595-1.031-.6Z" transform="translate(-1020.825 -916.788)" fill="#161922"/>
        <path id="Trazado_185840" data-name="Trazado 185840" d="M1211.978,999.643l-1.615.939Z" transform="translate(-1021.847 -916.788)" fill="#202331"/>
        <path id="Trazado_185841" data-name="Trazado 185841" d="M1218.4,1001.333l-1.626-.939,1.626.94Z" transform="translate(-1020.395 -916.618)" fill="#313849"/>
        <path id="Trazado_185842" data-name="Trazado 185842" d="M1216.776,1000.565l1.626.939,1.6-.929-1.626-.939Z" transform="translate(-1020.395 -916.789)" fill="#4e5a76"/>
        <path id="Trazado_185843" data-name="Trazado 185843" d="M1215.2,1001.34l-1.627-.939Z" transform="translate(-1021.121 -916.616)" fill="#313849"/>
        <path id="Trazado_185844" data-name="Trazado 185844" d="M1215.169,999.643l-1.6.93,1.626.938,1.6-.93-.6-.344Z" transform="translate(-1021.121 -916.787)" fill="#4e5a76"/>
        <path id="Trazado_185845" data-name="Trazado 185845" d="M1210.363,1000.409l1.626.939Z" transform="translate(-1021.847 -916.614)" fill="#313849"/>
        <path id="Trazado_185846" data-name="Trazado 185846" d="M1210.363,1000.582l1.626.94,1.615-.939-1.626-.939Z" transform="translate(-1021.847 -916.787)" fill="#4e5a76"/>
        <path id="Trazado_185847" data-name="Trazado 185847" d="M1216.771,1000.568l-1.6.93Z" transform="translate(-1020.758 -916.578)" fill="#202331"/>
        <path id="Trazado_185848" data-name="Trazado 185848" d="M1218.022,1001.46l-1.191-.687Z" transform="translate(-1020.382 -916.532)" fill="#161922"/>
        <path id="Trazado_185849" data-name="Trazado 185849" d="M1213.58,1000.568l-1.615.938Z" transform="translate(-1021.484 -916.578)" fill="#202331"/>
        <path id="Trazado_185850" data-name="Trazado 185850" d="M1216.8,1002.265l-1.626-.938,1.626.938Z" transform="translate(-1020.758 -916.406)" fill="#313849"/>
        <path id="Trazado_185851" data-name="Trazado 185851" d="M1215.171,1001.5l1.626.938,1.6-.93-1.19-.687-.436-.251Z" transform="translate(-1020.758 -916.578)" fill="#4e5a76"/>
        <path id="Trazado_185852" data-name="Trazado 185852" d="M1211.965,1001.507l1.626.94,1.616-.939-1.626-.939Z" transform="translate(-1021.484 -916.578)" fill="#4e5a76"/>
        <path id="Trazado_185853" data-name="Trazado 185853" d="M1211.965,1001.333l1.626.939Z" transform="translate(-1021.484 -916.405)" fill="#313849"/>
        <path id="Trazado_185854" data-name="Trazado 185854" d="M1215.182,1001.493l-1.615.938Z" transform="translate(-1021.121 -916.369)" fill="#202331"/>
        <path id="Trazado_185855" data-name="Trazado 185855" d="M1213.567,1002.432l1.626.939,1.615-.939-1.626-.939Z" transform="translate(-1021.121 -916.369)" fill="#4e5a76"/>
        <path id="Trazado_185856" data-name="Trazado 185856" d="M1215.193,1003.2l-1.626-.939,1.626.939Z" transform="translate(-1021.121 -916.195)" fill="#313849"/>
        <path id="Trazado_185857" data-name="Trazado 185857" d="M1214.838,1009.106l26.412-15.35-9.918-5.726-26.412,15.348Zm6.236-7.242-1.628-.939,1.616-.938,1.626.938Zm-4.272,2.482-1.616.938-1.626-.938,1.615-.939Zm-1.965-1.134-1.616.939-1.626-.939,1.615-.939Zm.689-.01,1.6-.93,1.031.595.595.345-1.6.93Zm1.968-1.143,1.176-.684.423-.245,1.626.939-1.6.93Zm3.92-2.277,1.615-.939,1.626.939-1.615.938Zm3.591,2.073-1.626-.939,1.615-.938,1.626.938Zm.341-2.082,1.615-.939,1.627.939-1.616.939Zm1.278-1.134-1.616.939-1.626-.939L1225,997.7Zm-1.965-1.133-1.616.938-.938-.542-.688-.4,1.616-.939Zm-3.595.2,1.626.939-1.615.938-1.626-.938Zm-.341,2.082-.677.394-.938.546-1.626-.939,1.615-.938Zm-1.968,1.144-1.6.93-1.626-.939,1.6-.93Zm-1.967,1.143-1.6.93-1.626-.938,1.6-.931Zm-1.264,3.4,1.615-.939,1.626.939-1.615.938Zm1.967-1.144,1.6-.93.436.251,1.191.687-1.6.93Zm1.968-1.143,1.6-.931,1.626.939-1.6.93Zm1.951-1.134,1.615-.939,1.626.939-1.615.938Zm8.281-11.713,4.378,2.528,3.206,1.851-7.535,4.378-7.584-4.378Zm-8.623,5.085,1.626.939-1.615.938-.688-.4-.938-.541Zm-1.968,1.143,1.628.939-1.617.939-1.626-.939Zm-1.967,1.144,1.626.938-1.615.94-1.626-.94Zm-1.967,1.143,1.626.939-1.6.93-1.626-.938ZM1213.2,1000l1.626.939-1.6.93-1.626-.938Zm-1.951,1.136,1.626.938-1.616.939-1.625-.939Z" transform="translate(-1023.079 -919.417)" fill="#232836"/>
        <path id="Trazado_185858" data-name="Trazado 185858" d="M1215.166,995.935l1.626.939,1.616-.939-1.626-.939Z" transform="translate(-1020.759 -917.84)" fill="#4e5a76"/>
        <path id="Trazado_185859" data-name="Trazado 185859" d="M1213.562,996.868l1.626.939,1.616-.939-1.626-.939Z" transform="translate(-1021.122 -917.628)" fill="#4e5a76"/>
        <path id="Trazado_185860" data-name="Trazado 185860" d="M1220,998.724l1.616-.939-1.626-.939-1.616.939Z" transform="translate(-1020.034 -917.421)" fill="#4e5a76"/>
        <path id="Trazado_185861" data-name="Trazado 185861" d="M1211.97,997.791l1.626.939,1.6-.93-1.626-.939Z" transform="translate(-1021.483 -917.417)" fill="#4e5a76"/>
        <path id="Trazado_185862" data-name="Trazado 185862" d="M1218.381,997.778l-1.615.939,1.626.939,1.616-.939Z" transform="translate(-1020.397 -917.21)" fill="#4e5a76"/>
        <path id="Trazado_185863" data-name="Trazado 185863" d="M1213.011,1008.048l-.018,6.168,11.314-6.575,15.1-8.774.017-6.168Z" transform="translate(-1021.251 -918.36)" fill="#202331"/>
        <path id="Trazado_185864" data-name="Trazado 185864" d="M1214.842,1006.272l-9.919-5.727-.017,6.168,8.207,4.738,1.712.989Z" transform="translate(-1023.082 -916.583)" fill="#161922"/>
        <path id="Trazado_185865" data-name="Trazado 185865" d="M1133.135,987.369c1.339,3.933,11.271,11.51,14.739,11.51a43.165,43.165,0,0,1,26.8-11.739c-.678-.238-1.353-.476-2.076-.72-1.021-.344-2.005-.716-2.961-1.1l-.255-.1c-.9-.374-1.772-.768-2.607-1.17-.115-.055-.23-.109-.345-.166q-1.216-.6-2.318-1.223l-.308-.174c-.732-.423-1.425-.85-2.066-1.274-.064-.044-.125-.086-.189-.128-.66-.445-1.274-.888-1.822-1.322a10.239,10.239,0,0,1-3.277-3.7l-.145-.659C1151.813,975.4,1131.8,983.434,1133.135,987.369Z" transform="translate(-1039.346 -922.277)" fill="#f15a24"/>
        <path id="Trazado_185866" data-name="Trazado 185866" d="M1133.075,978.886a41.538,41.538,0,0,0-6,3.972c7.766-4.929,19.935-7.865,24.69-8.872C1146.076,973.869,1138.3,976.183,1133.075,978.886Z" transform="translate(-1040.703 -922.597)" fill="#f15a24"/>
        <path id="Trazado_185867" data-name="Trazado 185867" d="M1145.256,1025.349c.241-.361.489-.722.737-1.087.289-.424.578-.847.873-1.275s.585-.843.882-1.267c.255-.364.513-.726.77-1.09.326-.459.649-.914.977-1.369.209-.288.418-.572.627-.857.811-1.111,1.623-2.2,2.432-3.262l.166-.22c.389-.506.771-.993,1.155-1.483.178-.226.356-.455.533-.677.37-.467.735-.916,1.1-1.36.175-.216.348-.424.522-.634.367-.44.73-.873,1.084-1.285.131-.152.256-.291.385-.438.816-.933,1.6-1.787,2.32-2.519.039-.04-2.6-1.463-2.6-1.463l-6.428-4.116c-3.284,3.855-5.526,7.736-6.263,10.592-1.379,5.341-2.223,11.613-.958,16.355.113-.174.226-.347.34-.521Q1144.567,1026.375,1145.256,1025.349Z" transform="translate(-1037.108 -916.492)" fill="#f15a24"/>
        <path id="Trazado_185868" data-name="Trazado 185868" d="M1149.348,1003.617l6.428,4.116,2.636,1.423c1.62-1.631,2.979-2.715,3.884-2.942,2.957-.74,5.022-.5,7.069,1.52l8.4,9.882s-3.61,20.412,1.707,26.718c0,0,1.246-.5,3.031-1.274,3.928-1.7,10.539-4.779,12.807-7.081a2.3,2.3,0,0,0,.794-1.355c.064-1.737-1.147-5.416-1.419-9.992-.216-3.64-2.078-6.7-1.868-10.4.428-7.552-3.087-17.438-7.458-23.216C1171.383,985.131,1157.293,994.293,1149.348,1003.617Z" transform="translate(-1035.661 -919.162)" fill="#f15a24"/>
        <path id="Trazado_185869" data-name="Trazado 185869" d="M1170.853,1041.219c2.078,1.039,3.483.97,4.378.639a2.666,2.666,0,0,0,1.3-.954c-5.318-6.306-1.707-26.718-1.707-26.718l-8.4-9.882c-.1,4.438-.207,8.869,0,13.3-1.139-.445-2.1-.814-2.8-1.072l-.259-.094-1.013,1.168c.021.089.043.182.065.272,1.2,4.987,2.845,11.374,4.565,16.231.451,1.277.908,2.449,1.363,3.458C1169.2,1039.478,1170.054,1040.818,1170.853,1041.219Z" transform="translate(-1032.718 -915.733)" fill="#ba451c"/>
        <path id="Trazado_185870" data-name="Trazado 185870" d="M1166.623,1017.955l1.013-1.168.259.094c.7.257,1.659.627,2.8,1.072-.2-4.43-.092-8.861,0-13.3-2.047-2.024-4.112-2.259-7.069-1.52-.905.227-2.264,1.311-3.883,2.942-.764.773-1.545,1.626-2.361,2.559-.129.147-.254.286-.385.438-.354.412-.717.845-1.084,1.285-.174.21-.347.418-.522.634-.364.444-.729.893-1.1,1.36-.178.222-.356.451-.533.677-.384.489-.767.976-1.155,1.483l-.166.22c-.809,1.06-1.621,2.151-2.432,3.262-.208.286-.418.569-.627.857-.329.455-.651.91-.977,1.369q-.386.546-.77,1.09c-.3.424-.59.844-.882,1.267s-.585.851-.873,1.275c-.248.364-.5.726-.737,1.087-.459.683-.906,1.36-1.342,2.025-.114.174-.227.347-.34.521,1.051,3.933,3.548,6.816,8.444,7.21,2.638-2.957,5.317-5.989,7.821-8.842C1162.306,1022.914,1164.673,1020.2,1166.623,1017.955Z" transform="translate(-1036.994 -916.084)" fill="#ba451c"/>
        <path id="Trazado_185871" data-name="Trazado 185871" d="M1156.3,970.511c12.243,2.181,21.3-3.857,28.009-8.386.712-.479,1.392-.887,2.065-1.285.155-.091.321-.206.473-.294,1.235-.708,2.4-1.289,3.511-1.814,1.309-.619,2.542-1.158,3.687-1.686a18.734,18.734,0,0,0,5.694-3.641c3.688-3.688,0-9.386-9.21-10.564l-.015.67a8.113,8.113,0,0,1,.14,3.134c-.884,6.864-8.947,16.025-19.073,19.843,12.514-8.858,16.812-17.1,15.705-22.592a7.518,7.518,0,0,0-.629-1.895c-.8-1.591-3.423-2.2-6.8-1.777-8.015,1-20.342,7.909-23.056,22.07,0-9.555,5.752-18.555,13.665-23.261a22.433,22.433,0,0,1,15.714-3.038,18.366,18.366,0,0,0-10.748-3.869,24.575,24.575,0,0,0-17.894,10.451,35.847,35.847,0,0,0-6.1,19.214,24.983,24.983,0,0,1-4.343-3.186c-.553-.508-.857-.839-.857-.839-3.755,2.682-2.876,7.823,3.88,10.894a21.227,21.227,0,0,0,2.111.835A28.993,28.993,0,0,0,1156.3,970.511Z" transform="translate(-1036.865 -932.074)" fill="#f15a24"/>
        <g id="Grupo_120695" data-name="Grupo 120695" transform="translate(43.018 50.991)">
          <path id="Trazado_185872" data-name="Trazado 185872" d="M1194.894,988.973c-.258-.134-.493-.264-.819-.416-1.566-.732-5.266-1.336-10.039-1.024a43.165,43.165,0,0,0-26.8,11.739c-3.468,0-13.4-7.577-14.739-11.51s18.678-11.97,23.17-11.97c-.59-1.413-3.9-2.131-3.9-2.131s-.738.132-1.994.4c-4.755,1.007-16.924,3.943-24.69,8.872a24.347,24.347,0,0,0-3.147,2.316c-15.172,13.542-42.159,33.905-40.1,70.775,4.756,7.336,17.449,12.534,31.2,12.194a7.426,7.426,0,0,1-.484-.8c-6.3-12.812,17.262-19,19.875-25.257s3.344-26.869,23.575-39.577a15.166,15.166,0,0,1,2.089-1.1c8.1-6.826,19.236-11.619,30.309-6.96C1196.641,991.081,1197.833,990.513,1194.894,988.973Z" transform="translate(-1091.725 -973.661)" fill="#292e3f"/>
          <path id="Trazado_185873" data-name="Trazado 185873" d="M1136.937,1037.021c-2.614,6.261-26.18,12.444-19.875,25.257a7.426,7.426,0,0,0,.484.8c15.431-.383,32.2-7.733,40.571-26.921-4.891-.406-7.388-3.289-8.439-7.222-1.266-4.742-.421-11.014.958-16.355.737-2.856,2.979-6.738,6.263-10.592a49.007,49.007,0,0,1,5.7-5.646,15.166,15.166,0,0,0-2.089,1.1C1140.282,1010.152,1139.551,1030.761,1136.937,1037.021Z" transform="translate(-1086.23 -968.526)" fill="#171c2b"/>
        </g>
        <path id="Trazado_185874" data-name="Trazado 185874" d="M1188.167,942.193l-.015.67c1.846,6.875-7.163,18.54-18.934,22.977,14.047-9.942,17.761-19.12,15.078-24.486s-26,.167-29.854,20.293c0-15.258,14.663-29.107,29.379-26.3a14.474,14.474,0,0,1,2.482,2.584,8.187,8.187,0,0,1,1.851,4.261Z" transform="translate(-1034.508 -931.427)" fill="#ba451c"/>
        <path id="Trazado_185875" data-name="Trazado 185875" d="M1151.025,961.8a23.573,23.573,0,0,1-5.2-4.025c.839-19.456,13.457-24.99,26.352-25.661a25.722,25.722,0,0,1,2.845.021C1158.234,934.038,1151.47,949.031,1151.025,961.8Z" transform="translate(-1036.458 -932.083)" fill="#ba451c"/>
      </g>
    </g>
    <g id="Grupo_120712" data-name="Grupo 120712" transform="translate(-295.151 11331.686)">
      <path id="Trazado_185876" data-name="Trazado 185876" d="M893.751,987.594a30.829,30.829,0,0,1,.534-5.567s2.756-.112,7.146,2.491c4.282,2.539,15.1,6.237,25.352,3a33.937,33.937,0,0,1-.338,5.774,54.007,54.007,0,0,1-2.375,10.247c-.919,2.62-1.992,4.65-3.094,5.421-4.418.756-15.58-.709-16.789-3.215-1.016-2.106-5.1-13.177-5.554-12.227C894.2,994.956,893.86,988.331,893.751,987.594Z" transform="translate(7.55 3.846)" fill="#e8b188"/>
      <path id="Trazado_185877" data-name="Trazado 185877" d="M903.745,1004.426c1.208,2.506,12.371,3.971,16.789,3.215a2.181,2.181,0,0,1-.442.27c-3.452,1.3-2.3.648-2.646,2.066s0,17.184,0,17.184-15.651-10.358-18.874-15.536c-3.01-4.837-.4-7.867-.041-11.621.025-.266.041-.534.041-.808,0-2.148.606-5.187-.38-7C898.645,991.249,902.729,1002.32,903.745,1004.426Z" transform="translate(7.992 5.165)" fill="#ce9772"/>
      <path id="Trazado_185878" data-name="Trazado 185878" d="M958.369,1225.971c28.16,16.258,28.3,42.614.326,58.872s-73.479,16.263-101.638,0-28.309-42.618-.332-58.876S930.209,1209.713,958.369,1225.971Z" transform="translate(0 34.062)" fill="#838383" opacity="0.093" style="mix-blend-mode: multiply;isolation: isolate"/>
      <path id="Trazado_185879" data-name="Trazado 185879" d="M897.033,1000.773c-4.071,4.676,2.672,13.682,8.913,18.214,7.25,5.265,10.531,6.3,10.531,6.3s.318-.111.784-.3c.961.658,1.546,1.045,1.546,1.045s-.015-.66-.035-1.714c1.605-.788,3.378-1.953,2.882-3.091-.7-1.618-.833-10.843-.857-14.2.2-.073.414-.153.656-.244a2.181,2.181,0,0,0,.442-.27c3.685,4.5,7.5,10.674,7.5,16.967,0,3.819-19.219,9.688-19.219,9.688-1.735-14.695-15.952-25.22-23.485-26.935C890.281,1004.491,894.154,1002.506,897.033,1000.773Z" transform="translate(6.63 6.29)" fill="#f15a24"/>
      <path id="Trazado_185880" data-name="Trazado 185880" d="M898.7,999.1a31.217,31.217,0,0,1-2.86,1.895A7.1,7.1,0,0,1,898.7,999.1Z" transform="translate(7.823 6.072)" fill="#ba451c"/>
      <path id="Trazado_185881" data-name="Trazado 185881" d="M898.883,1010.719c2.6,4.181,13.3,11.736,17.328,14.491-.467.187-.784.3-.784.3s-3.28-1.037-10.531-6.3c-6.241-4.532-12.984-13.537-8.913-18.214a31.217,31.217,0,0,0,2.86-1.895C898.484,1002.851,895.873,1005.882,898.883,1010.719Z" transform="translate(7.68 6.072)" fill="#ba451c"/>
      <path id="Trazado_185882" data-name="Trazado 185882" d="M915.086,1023.6c-.077-4.119-.241-14.341.035-15.47.321-1.318-.647-.851,1.991-1.822.024,3.36.154,12.585.857,14.2C918.463,1021.647,916.691,1022.813,915.086,1023.6Z" transform="translate(10.317 7.012)" fill="#ba451c"/>
      <path id="Trazado_185883" data-name="Trazado 185883" d="M921.509,998.663a57.55,57.55,0,0,0,1.316-6.669c.431-.015.806-.015,1.11,0,4.661.259,16.1,14.955,16.1,14.955l-2.115,42.1,5.634,39.819a99.558,99.558,0,0,0-6.727-21.635c-7.366-16.111-2.762-35.905-4.6-43.5a42.641,42.641,0,0,0-3.321-8.49l3.7-5.424C929.077,1008.6,923.8,1001.8,921.509,998.663Z" transform="translate(11.17 5.144)" fill="#f15a24"/>
      <path id="Trazado_185884" data-name="Trazado 185884" d="M921.631,997.892c2.295,3.141,7.568,9.935,11.089,11.153l-3.7,5.424a65.619,65.619,0,0,0-8.449-13C920.96,1000.364,921.307,999.143,921.631,997.892Z" transform="translate(11.048 5.915)" fill="#ba451c"/>
      <path id="Trazado_185885" data-name="Trazado 185885" d="M885.833,1220.56c1.281.788,2.391,1.1,3.068.708,0,0,.7-.868,1.936-2.419,2.135,6.78,3.27,10.609,7.2,13.774a49.706,49.706,0,0,1,4.19,3.548c-2.153,5.125-14.586,4.878-18.2,1.18-3.8-3.884-4.4-11.22-8.459-14.5s-5.967-6.066-6.094-7.774a35.946,35.946,0,0,1,7.362-9.025C876.172,1210.98,881.833,1218.1,885.833,1220.56Z" transform="translate(4.385 33.055)" fill="#4d4d4d"/>
      <path id="Trazado_185886" data-name="Trazado 185886" d="M927.96,1250.143a5.149,5.149,0,0,0,1.086-1.481,43.361,43.361,0,0,0,9.235,12.049c1.831,1.831,10.265,5.014,13.151,8.829-6.818,6.823-18.1,2.477-25.666-1.061-7.941-3.711-11.911-2.849-15.191-4.143a5.724,5.724,0,0,1-2.453-1.764,64.328,64.328,0,0,1,2.055-10.955c.027.089.049.162.063.2C911.094,1254.135,923.594,1254.365,927.96,1250.143Z" transform="translate(9.424 38.61)" fill="#4d4d4d"/>
      <path id="Trazado_185887" data-name="Trazado 185887" d="M910.578,1262.731c3.28,1.294,7.25.432,15.191,4.143,7.569,3.538,18.848,7.884,25.666,1.061a5.046,5.046,0,0,1,.832,1.528c1.38,4.488-6.988,6.3-11.609,6.387-9.106.173-19.119-7.485-22.745-7.658s-9.436-1.531-9.781-5.606a12.16,12.16,0,0,1-.008-1.619A5.724,5.724,0,0,0,910.578,1262.731Z" transform="translate(9.422 40.215)" fill="#b3b3b3"/>
      <path id="Trazado_185888" data-name="Trazado 185888" d="M875.7,1221.81c4.057,3.28,4.662,10.617,8.459,14.5,3.616,3.7,16.049,3.945,18.2-1.18,1.126,1.182,1.4,2.114.757,3.471-1.147,2.415-5.769,3.615-10.012,3.8s-7.61-1.815-11.264-4.13c-2.016-1.277-3.191-6.651-6.113-11.367-2.311-3.728-5.583-6.318-6.792-7.86-.886-1.13-.4-3,.669-5.006C869.728,1215.744,871.648,1218.538,875.7,1221.81Z" transform="translate(4.255 34.096)" fill="#b3b3b3"/>
      <path id="Trazado_185889" data-name="Trazado 185889" d="M921.565,1130.56c4.171-15.191,17.6-32.983,17.6-32.983l-4.528-10.509c4.332,1.052,7.514,1.788,8.25,1.938a24.978,24.978,0,0,1,3.65,1.223c.539,4.126.97,7.969,1.413,11.33,0,0-2.532,51.558-6.905,59.844-1.724,3.267-11.132,15.678-21.893,29.513-1.188-9.536-2.383-19.1-3.515-28.15C918.831,1150.238,917.393,1145.751,921.565,1130.56Z" transform="translate(10.404 17.541)" fill="#292e3f"/>
      <path id="Trazado_185890" data-name="Trazado 185890" d="M932.668,1082.374l-.8-1.855-17.77-10.1c-2.453-4.845-6.044-13.022-10.255-21.717.864-4.545,1.176-8.667.616-11.654-2.112-11.278-12.62-26.354-26.314-26.354,0,0,.92-4.029,7.135-4.718a7.793,7.793,0,0,1,2.524.224c7.533,1.715,21.75,12.24,23.485,26.935,0,0,19.219-5.869,19.219-9.688,0-6.293-3.814-12.467-7.5-16.967,1.1-.771,2.175-2.8,3.094-5.42,4.826,5.536,10.253,15.227,11.771,21.489,1.841,7.6-2.763,27.39,4.6,43.5a99.484,99.484,0,0,1,6.726,21.637c.069.338.13.67.194,1.007C945.959,1087.5,939.21,1085.019,932.668,1082.374Z" transform="translate(5.516 6.328)" fill="#292e3f"/>
      <path id="Trazado_185891" data-name="Trazado 185891" d="M914.286,1250.053s-.007-.087-.016-.217c-.007-.089-.016-.2-.027-.345s-.025-.336-.042-.547l-.023-.306c-.016-.2-.034-.43-.052-.675l-.01-.123c-.024-.3-.049-.631-.077-.991-.012-.15-.025-.313-.037-.474-.017-.208-.034-.421-.051-.643s-.037-.468-.058-.717c-.006-.075-.012-.156-.018-.233-.047-.593-.1-1.23-.154-1.906-.008-.1-.016-.194-.024-.294-.028-.341-.057-.686-.086-1.046-.017-.2-.034-.417-.051-.626q-.078-.941-.163-1.953c-.011-.146-.024-.287-.036-.435q-.053-.632-.109-1.29c-.011-.141-.024-.286-.036-.43-.079-.932-.162-1.891-.248-2.888-.044-.515-.088-1.017-.132-1.525-.012-.142-.025-.287-.038-.432q-.2-2.3-.424-4.753c-.018-.207-.037-.414-.057-.622-.048-.521-.095-1.043-.144-1.572q-.159-1.721-.324-3.467c-.016-.167-.033-.335-.049-.5-.053-.564-.107-1.128-.163-1.7-.01-.107-.02-.214-.031-.32q-.163-1.672-.33-3.356c-.014-.131-.026-.262-.04-.393q-.083-.826-.167-1.652l-.071-.7q-.149-1.455-.3-2.9c-.021-.2-.043-.41-.066-.615-.053-.508-.107-1.012-.163-1.516-.029-.279-.06-.556-.09-.833q-.256-2.347-.521-4.63c-.02-.177-.041-.353-.061-.528q-.156-1.324-.312-2.615c-.026-.211-.052-.423-.077-.632q-.166-1.348-.333-2.65c-.016-.118-.031-.238-.045-.356-.131-1.007-.262-1.993-.395-2.949-.13-.937-.251-1.78-.373-2.6-.037-.252-.075-.494-.112-.742q-.134-.892-.27-1.737-.064-.4-.129-.792c-.089-.542-.179-1.063-.268-1.57-.039-.223-.079-.454-.119-.67-.127-.7-.254-1.367-.381-1.986-3.574-17.435-18.938-59.728-19.974-74.746-.036-.523-.058-1.068-.064-1.631a49.932,49.932,0,0,1,.275-5.487,1.539,1.539,0,0,0,.825-.709c4.144-7.537,21.224,10.612,31.327,61.266,1.133,9.047,2.327,18.614,3.515,28.15,4.784,38.4,9.444,76.233,9.331,76.973a4.249,4.249,0,0,1-.412,1.843,5.149,5.149,0,0,1-1.086,1.481C923.262,1274.952,914.286,1250.053,914.286,1250.053Z" transform="translate(6.663 19.017)" fill="#292e3f"/>
      <path id="Trazado_185892" data-name="Trazado 185892" d="M876.279,1103.082c.009-.09.02-.191.031-.285-.011.108-.023.218-.033.325C876.278,1103.11,876.278,1103.1,876.279,1103.082Z" transform="translate(5.272 19.592)" fill="#292e3f"/>
      <path id="Trazado_185893" data-name="Trazado 185893" d="M905.352,1176.623q.064.391.129.792C905.438,1177.149,905.4,1176.883,905.352,1176.623Z" transform="translate(9.063 29.218)" fill="#292e3f"/>
      <path id="Trazado_185894" data-name="Trazado 185894" d="M905.705,1178.861c.037.248.075.49.112.742C905.78,1179.35,905.742,1179.109,905.705,1178.861Z" transform="translate(9.109 29.51)" fill="#292e3f"/>
      <path id="Trazado_185895" data-name="Trazado 185895" d="M905.01,1174.641c.04.216.079.448.119.67C905.089,1175.089,905.05,1174.857,905.01,1174.641Z" transform="translate(9.019 28.959)" fill="#292e3f"/>
      <path id="Trazado_185896" data-name="Trazado 185896" d="M906.818,1187.086c.025.209.051.42.077.632C906.869,1187.506,906.843,1187.3,906.818,1187.086Z" transform="translate(9.254 30.582)" fill="#292e3f"/>
      <path id="Trazado_185897" data-name="Trazado 185897" d="M907.162,1189.958c.02.175.041.35.061.528C907.2,1190.308,907.182,1190.133,907.162,1189.958Z" transform="translate(9.299 30.956)" fill="#292e3f"/>
      <path id="Trazado_185898" data-name="Trazado 185898" d="M886.946,1105.316c.007.563.028,1.108.064,1.631C886.974,1106.424,886.953,1105.879,886.946,1105.316Z" transform="translate(6.663 19.921)" fill="#292e3f"/>
      <path id="Trazado_185899" data-name="Trazado 185899" d="M906.483,1184.427c.015.118.029.238.045.356C906.512,1184.665,906.5,1184.545,906.483,1184.427Z" transform="translate(9.211 30.235)" fill="#292e3f"/>
      <path id="Trazado_185900" data-name="Trazado 185900" d="M892.593,1182.222c.683,2.768,1.367,5.539,2.048,8.293C893.96,1187.761,893.276,1184.99,892.593,1182.222Z" transform="translate(7.4 29.948)" fill="#292e3f"/>
      <path id="Trazado_185901" data-name="Trazado 185901" d="M876.744,1099.628c.214-1.719.461-3.6.728-5.56C877.254,1095.95,876.983,1097.8,876.744,1099.628Z" transform="translate(5.333 18.454)" fill="#292e3f"/>
      <path id="Trazado_185902" data-name="Trazado 185902" d="M884.259,1222.711s-3.795-5.91-2.413-10.743c1.312-4.594,6.062-8.274,14.236-22.409,1.467,5.928,2.921,11.785,4.329,17.446-4.892,6.163-8.909,11.193-11.148,13.994-1.24,1.551-1.936,2.419-1.936,2.419C886.65,1223.81,885.54,1223.5,884.259,1222.711Z" transform="translate(5.959 30.905)" fill="#292e3f"/>
      <path id="Trazado_185903" data-name="Trazado 185903" d="M882.577,1212.924c-1.381,4.833,2.413,10.743,2.413,10.743-4-2.462-9.661-9.58-9-14.509a4.843,4.843,0,0,1,.675-1.931c3.094-4.969,14.117-19.71,18.1-25.006.683,2.768,1.367,5.539,2.048,8.293C888.639,1204.65,883.889,1208.33,882.577,1212.924Z" transform="translate(5.228 29.948)" fill="#171d2d"/>
      <path id="Trazado_185904" data-name="Trazado 185904" d="M928.521,1074.374c-7.714-3.12-15.119-6.46-16.4-8.164a28.887,28.887,0,0,1-2.171-3.792l17.77,10.1Z" transform="translate(9.663 14.328)" fill="#171d2d"/>
      <path id="Trazado_185905" data-name="Trazado 185905" d="M890.747,1072.726a24.057,24.057,0,0,0,3.8-5.484c4.276,5.688,8.162,10.609,9.668,11.813,2.955,2.365,23.672,7.7,35.6,10.6l4.528,10.509s-13.427,17.792-17.6,32.983-2.734,19.679-5.932,32.206c-10.1-50.654-27.183-68.8-31.327-61.266a1.532,1.532,0,0,1-.825.708,49.965,49.965,0,0,0-.275,5.488c.007.563.028,1.108.064,1.631,1.035,15.018,16.4,57.311,19.974,74.746.127.619.254,1.289.381,1.986.04.216.079.448.119.67.089.508.179,1.029.268,1.57.043.26.086.526.129.792q.136.844.27,1.738c.037.248.075.49.112.741q.183,1.231.364,2.534c.141,1.023.272,2.009.4,3.016.015.117.029.238.045.356q.168,1.3.333,2.65c.025.209.051.42.077.632q.158,1.292.312,2.615c.02.175.041.35.061.528q.264,2.28.521,4.63c.03.277.061.554.09.833.055.5.11,1.008.163,1.516.023.2.044.41.066.615q.153,1.45.3,2.9l.071.7q.085.827.167,1.653c.014.131.026.262.04.393q.168,1.686.33,3.356c.01.106.02.212.031.32.055.569.11,1.133.163,1.7.016.167.033.334.049.5.11,1.165.218,2.32.323,3.457.05.539.1,1.062.145,1.583.019.208.038.415.057.622q.222,2.452.424,4.753c.014.145.026.29.038.432.044.508.088,1.01.131,1.5.087,1.02.17,1.979.249,2.911.012.144.025.288.036.429q.056.658.109,1.29c.012.148.025.291.036.435q.085,1.012.163,1.953c.017.209.034.422.051.626.029.36.058.7.086,1.046.008.1.016.2.024.294.054.676.106,1.312.154,1.906.006.077.012.158.018.233.02.249.038.484.058.717s.034.438.051.643c.012.16.025.323.037.474.027.355.053.692.077.991l.01.123c.019.248.035.469.052.675l.023.306c.016.2.031.4.042.542l.027.349c.009.13.016.217.016.217s8.976,24.9,16.436,19.683c-4.367,4.222-16.866,3.992-17.72,1.674-.015-.039-.036-.111-.063-.2-.754-2.523-6.454-25.079-13.231-52.317-1.408-5.661-2.862-11.519-4.329-17.446-.682-2.755-1.365-5.525-2.048-8.293-1.007-4.08-2.012-8.156-3-12.193-7.766-31.609-14.724-60.516-15.514-65.455a50.842,50.842,0,0,1,.075-11.807c.01-.107.021-.217.033-.325.138-1.412.305-2.853.5-4.307.239-1.832.51-3.678.8-5.489,1.618-12.482,4.12-28.24,4.121-28.25S884.878,1078.365,890.747,1072.726Z" transform="translate(5.228 14.957)" fill="#171d2d"/>
      <g id="Grupo_120701" data-name="Grupo 120701" transform="translate(912.084 1002.204)" style="isolation: isolate">
        <g id="Grupo_120698" data-name="Grupo 120698" transform="translate(0 31.049)">
          <path id="Trazado_185906" data-name="Trazado 185906" d="M903.29,1023.941l.171,60.182,53.429,31.049-.171-60.182Z" transform="translate(-903.29 -1023.941)" fill="#a48157"/>
        </g>
        <g id="Grupo_120699" data-name="Grupo 120699" transform="translate(53.428 31.049)">
          <path id="Trazado_185907" data-name="Trazado 185907" d="M950.556,1054.99l.171,60.182,53.778-31.049-.171-60.182Z" transform="translate(-950.556 -1023.942)" fill="#c8a376"/>
        </g>
        <g id="Grupo_120700" data-name="Grupo 120700">
          <path id="Trazado_185908" data-name="Trazado 185908" d="M903.29,1027.523l53.428,31.049,53.778-31.049-53.428-31.049Z" transform="translate(-903.29 -996.474)" fill="#e3c095"/>
        </g>
      </g>
      <g id="Grupo_120702" data-name="Grupo 120702" transform="translate(970.284 1106.547)">
        <path id="Trazado_185909" data-name="Trazado 185909" d="M954.776,1099.43l.005,1.846,18.442-10.647-.005-1.846Z" transform="translate(-954.776 -1088.782)" fill="#6b573f"/>
      </g>
      <g id="Grupo_120703" data-name="Grupo 120703" transform="translate(970.268 1095.76)">
        <path id="Trazado_185910" data-name="Trazado 185910" d="M963.953,1079.239l-9.191,15.92,6.426-3.71.014,4.736,2.794-1.613,2.8-1.619-.014-4.736,6.417-3.7Z" transform="translate(-954.763 -1079.239)" fill="#6b573f"/>
      </g>
      <g id="Grupo_120707" data-name="Grupo 120707" transform="translate(997.086 1042.447)" style="isolation: isolate">
        <g id="Grupo_120704" data-name="Grupo 120704" transform="translate(0 9.23)">
          <path id="Trazado_185911" data-name="Trazado 185911" d="M979.387,1040.764l-.9-.523.035,12.487.9.522Z" transform="translate(-978.487 -1040.241)" fill="gray"/>
        </g>
        <g id="Grupo_120705" data-name="Grupo 120705">
          <path id="Trazado_185912" data-name="Trazado 185912" d="M995.374,1032.6l-.9-.523-15.987,9.23.9.523Z" transform="translate(-978.487 -1032.075)" fill="#bfbfbf"/>
        </g>
        <g id="Grupo_120706" data-name="Grupo 120706" transform="translate(0.899 0.523)">
          <path id="Trazado_185913" data-name="Trazado 185913" d="M979.283,1041.768l.035,12.487,15.987-9.23-.035-12.487Z" transform="translate(-979.283 -1032.538)" fill="#d3d3d3"/>
        </g>
      </g>
      <g id="Grupo_120711" data-name="Grupo 120711" transform="translate(931.536 1013.03)" style="isolation: isolate">
        <g id="Grupo_120708" data-name="Grupo 120708" transform="translate(0 31.475)">
          <path id="Trazado_185914" data-name="Trazado 185914" d="M927.108,1037.737,920.5,1033.9l.172,60.682,6.609,3.841Z" transform="translate(-920.498 -1033.896)" fill="#c5c5c5"/>
        </g>
        <g id="Grupo_120709" data-name="Grupo 120709">
          <path id="Trazado_185915" data-name="Trazado 185915" d="M981.624,1009.893l-6.609-3.841L920.5,1037.527l6.609,3.841Z" transform="translate(-920.498 -1006.052)" fill="#dcdcdc"/>
        </g>
        <g id="Grupo_120710" data-name="Grupo 120710" transform="translate(6.61 3.841)">
          <path id="Trazado_185916" data-name="Trazado 185916" d="M926.345,1040.925l.172,60.683.559-.323-.17-60.041,53.957-31.152,0-.642Z" transform="translate(-926.345 -1009.45)" fill="#898989"/>
        </g>
      </g>
      <path id="Trazado_185917" data-name="Trazado 185917" d="M876.3,1046.247c-1.76,2.07-3.832-17.264-2.912-24.63s4.777-9.554,9.438-9.9c3.538-.261,11.5,5.253,16.756,10.817a36.957,36.957,0,0,1,5.531,13.12c.56,2.988.248,7.109-.616,11.654-1.689-3.487-3.475-7.055-5.329-10.524C890.82,1031.971,878.057,1044.178,876.3,1046.247Z" transform="translate(4.866 7.717)" fill="#f15a24"/>
      <path id="Trazado_185918" data-name="Trazado 185918" d="M887.189,1059.538c2.079,2.852,4.3,5.874,6.433,8.708a24.059,24.059,0,0,1-3.8,5.484c-3.019,2.9-5.306,1.932-6.816.309C885.67,1071.935,886.76,1064.384,887.189,1059.538Z" transform="translate(6.15 13.952)" fill="#f15a24"/>
      <path id="Trazado_185919" data-name="Trazado 185919" d="M879.6,1054.985s-1.9,4.2-5.178-.808-5.7-26.067-6.042-30.209c-.794-9.517,11.048-14.385,11.048-14.385,8.628,0,15.988,5.985,20.783,13.233-5.254-5.564-13.218-11.078-16.756-10.817-4.661.343-8.516,2.532-9.437,9.9s1.152,26.7,2.912,24.63,14.522-14.277,22.868-9.459c0,0-18.759,1.057-19.679,16.478,0,0,4.078,5.772,8.987,12.508-.43,4.846-1.519,12.4-4.18,14.5a11.8,11.8,0,0,1-2.16-3.647C882.762,1067.987,879.6,1054.985,879.6,1054.985Z" transform="translate(4.237 7.439)" fill="#ba451c"/>
      <path id="Trazado_185920" data-name="Trazado 185920" d="M937.129,981.823c-.634-1.884-2.344-3.856-5.167-5.843-.016-.053-.035-.1-.051-.154-2.157,3.809-6.656,5.218-6.656,5.218.635-7.007-8.394-28.149-24.712-27.981-.579.142-1.159.284-1.725.477-9.412,3.2-13.805,12.686-14.167,20.137.34.341,15.228,15.3,27.431,16.747C924.4,991.888,935.685,989.4,937.129,981.823Zm-15.208.228c-4.32,2.495-15.018,1.381-15.018,1.381,7.682,0,11.886-2.695,11.886-2.695-3.625-8.632-13.18-23.372-22.761-24.667C911.391,955.122,921.921,982.052,921.921,982.052Z" transform="translate(6.364 0.07)" fill="#f15a24"/>
      <path id="Trazado_185921" data-name="Trazado 185921" d="M928.743,988.679c-.257.09-.516.156-.772.237-10.249,3.239-21.07-.46-25.352-3-4.39-2.6-7.146-2.491-7.146-2.491a30.962,30.962,0,0,0-.534,5.566c0,.033-7.051-4.685-9.583-11.82a15.686,15.686,0,0,1-.7-5.872c.34.341,15.228,15.3,27.431,16.747,12.319,1.465,23.6-1.028,25.047-8.6C938.333,983.017,935.6,986.269,928.743,988.679Z" transform="translate(6.361 2.447)" fill="#ba451c"/>
      <path id="Trazado_185922" data-name="Trazado 185922" d="M905.59,983.089c7.682,0,11.886-2.695,11.886-2.695-3.625-8.632-13.18-23.372-22.761-24.667,15.364-.95,25.894,25.981,25.894,25.981C916.288,984.2,905.59,983.089,905.59,983.089Z" transform="translate(7.676 0.414)" fill="#ba451c"/>
      <path id="Trazado_185923" data-name="Trazado 185923" d="M923.422,981.115c.635-7.007-8.394-28.149-24.712-27.981,11.857-2.912,26.063,4.662,31.368,22.764C927.921,979.706,923.422,981.115,923.422,981.115Z" transform="translate(8.197 0)" fill="#ba451c"/>
      <path id="Trazado_185924" data-name="Trazado 185924" d="M943.688,1090.992c-3.19-.95-35.384-8.891-38.836-10.7s-22.609-29.46-23.736-32.717c-.673-1.941.591-5.056,1.722-7.261,5.81-5.875,15.316-6.415,15.316-6.415,1.853,3.468,3.64,7.037,5.329,10.524,4.211,8.695,7.8,16.872,10.255,21.717a28.76,28.76,0,0,0,2.171,3.792c1.278,1.7,8.684,5.044,16.4,8.164,6.543,2.645,13.291,5.125,16.73,6.318,1.272.441,2.1.711,2.287.742,1.266.207,5.639-8.425,7.25-8.194s-1.5,8.976-.46,9.552,2.646,1.381,3.912.806,8.172-5.409,9.553-5.295,1.456,4.195,2.052,5.493a1.447,1.447,0,0,1,0,.933c-8.876,6.344-14.832,8.07-16.126,8.415S946.879,1091.941,943.688,1090.992Z" transform="translate(5.879 10.609)" fill="#e8b188"/>
      <path id="Trazado_185925" data-name="Trazado 185925" d="M957.7,1098.659c-1.049,0-3.8-1.225-6.362-2.238a24.846,24.846,0,0,0-3.65-1.223c-.736-.15-3.918-.886-8.25-1.938-11.926-2.9-32.643-8.233-35.6-10.6-1.506-1.2-5.392-6.124-9.668-11.814-7.163-9.528-15.421-21.215-15.421-21.215a15.105,15.105,0,0,1,4.365-10.063c-1.13,2.205-2.394,5.321-1.722,7.261,1.127,3.257,20.284,30.9,23.736,32.717s35.647,9.753,38.836,10.7,12.519,6.215,13.814,5.869,7.25-2.071,16.126-8.415c-.428,1.68-2.565,4.407-3.318,5.177C969.673,1093.826,959.315,1098.659,957.7,1098.659Z" transform="translate(5.596 11.349)" fill="#ce9772"/>
      <path id="Trazado_185926" data-name="Trazado 185926" d="M1003.84,1057.505c-.006.106-.011.211-.016.324-.2,3.075-.867,4.673-4.025,5.873a71.428,71.428,0,0,0-7.907,3.866c-.757-.871-.331-4.3-.218-5.563.115-1.284,7.327-4.716,7.327-4.716v-4.731c1.827,1.289,4.7,1.863,4.889,3.8C1003.878,1056.771,1003.86,1057.14,1003.84,1057.505Z" transform="translate(20.289 13.042)" fill="#e8b188"/>
      <path id="Trazado_185927" data-name="Trazado 185927" d="M1003.77,1057.222c-.106,2.6.033,6.918-.624,8.581-.755,1.909-5.72,4.6-7.941,4.6s-2.532-2.59-3.338-3.4a60.814,60.814,0,0,1,7.878-3.916C1002.9,1061.9,1003.57,1060.3,1003.77,1057.222Z" transform="translate(20.343 13.65)" fill="#ce9772"/>
      <path id="Trazado_185928" data-name="Trazado 185928" d="M1002.461,1056.362c-.02.208-.036.45-.05.7.02-.365.038-.735.05-1.141A2.179,2.179,0,0,1,1002.461,1056.362Z" transform="translate(21.718 13.481)" fill="#ce9772"/>
    </g>
  </g>
</svg>
