<svg xmlns="http://www.w3.org/2000/svg" width="81" height="81" viewBox="0 0 81 81">
  <g id="Grupo_146952" data-name="Grupo 146952" transform="translate(-377 -8652)">
    <g id="Rectángulo_34485" data-name="Rectángulo 34485" transform="translate(377 8652)" fill="none" stroke="#000" stroke-width="1">
      <rect width="81" height="81" stroke="none"/>
      <rect x="0.5" y="0.5" width="80" height="80" fill="none"/>
    </g>
    <g id="Grupo_102721" data-name="Grupo 102721" transform="translate(9507 11668.359)">
      <g id="Grupo_102711" data-name="Grupo 102711" transform="translate(-9114 -2996.26)">
        <path id="Trazado_159155" data-name="Trazado 159155" d="M54.866,1624.243a4.7,4.7,0,0,0-4.459,3.114H48.955a26.4,26.4,0,0,1,48.831,0H96.151a4.757,4.757,0,0,0-8.446-.96,1.992,1.992,0,0,1-1.66.96H84.825a1.989,1.989,0,0,1-1.658-.96,4.771,4.771,0,0,0-7.978,0,1.989,1.989,0,0,1-1.658.96H72.157a1.991,1.991,0,0,1-1.658-.96,4.771,4.771,0,0,0-7.978,0,1.989,1.989,0,0,1-1.658.96h-.351a1.989,1.989,0,0,1-1.658-.96A4.727,4.727,0,0,0,54.866,1624.243Z" transform="translate(-48.955 -1604.965)"/>
        <path id="Trazado_159156" data-name="Trazado 159156" d="M64.822,1650.417l0-.014,0-.014v-42.312a1.4,1.4,0,0,1,2.794,0v42.033a1.363,1.363,0,0,1,.059.274l0,.02c0,.021-.011.039-.011.06a2.941,2.941,0,0,0-.05.5,3,3,0,0,0,5.994,0,2.889,2.889,0,0,0-.048-.469c0-.031-.018-.057-.018-.089a.213.213,0,0,1,.007-.029,1.437,1.437,0,1,1,2.815.217c.008.124.038.244.038.372a5.791,5.791,0,0,1-11.582,0,1.417,1.417,0,0,1,.018-.19c0-.033-.018-.062-.018-.095Z" transform="translate(-42.658 -1606.68)"/>
      </g>
      <g id="Grupo_102712" data-name="Grupo 102712" transform="translate(-9090.981 -3006.36)">
        <path id="Trazado_159157" data-name="Trazado 159157" d="M66.83,1605.589a1.4,1.4,0,0,1-.935-2.436l3.721-3.345a1.4,1.4,0,0,1,1.868,2.079l-3.721,3.346A1.4,1.4,0,0,1,66.83,1605.589Z" transform="translate(-65.433 -1599.45)"/>
      </g>
      <g id="Grupo_102713" data-name="Grupo 102713" transform="translate(-9083.512 -3004.814)">
        <path id="Trazado_159158" data-name="Trazado 159158" d="M72.178,1606.7a1.4,1.4,0,0,1-.935-2.436l3.72-3.344a1.4,1.4,0,1,1,1.868,2.079l-3.72,3.344A1.4,1.4,0,0,1,72.178,1606.7Z" transform="translate(-70.78 -1600.557)"/>
      </g>
      <g id="Grupo_102714" data-name="Grupo 102714" transform="translate(-9095.097 -2999.33)">
        <path id="Trazado_159159" data-name="Trazado 159159" d="M63.884,1610.621a1.4,1.4,0,0,1-.935-2.436l3.721-3.346a1.4,1.4,0,0,1,1.868,2.08l-3.721,3.344A1.4,1.4,0,0,1,63.884,1610.621Z" transform="translate(-62.487 -1604.482)"/>
      </g>
      <g id="Grupo_102715" data-name="Grupo 102715" transform="translate(-9081.963 -2997.297)">
        <path id="Trazado_159160" data-name="Trazado 159160" d="M73.286,1612.079a1.4,1.4,0,0,1-.935-2.435l3.72-3.347a1.4,1.4,0,1,1,1.869,2.077l-3.72,3.346A1.4,1.4,0,0,1,73.286,1612.079Z" transform="translate(-71.889 -1605.938)"/>
      </g>
      <g id="Grupo_102716" data-name="Grupo 102716" transform="translate(-9074.154 -3005.2)">
        <path id="Trazado_159161" data-name="Trazado 159161" d="M78.876,1606.421a1.4,1.4,0,0,1-.935-2.435l3.72-3.347a1.4,1.4,0,1,1,1.869,2.076l-3.721,3.347A1.391,1.391,0,0,1,78.876,1606.421Z" transform="translate(-77.479 -1600.28)"/>
      </g>
    </g>
  </g>
</svg>
