<svg xmlns="http://www.w3.org/2000/svg" width="87.959" height="50.186" viewBox="0 0 87.959 50.186">
  <g id="Grupo_102730" data-name="Grupo 102730" transform="translate(-1059.657 -1683.898)">
    <path id="Trazado_159174" data-name="Trazado 159174" d="M1167.912,1684.4l-24.4,12.723v31.216l23.609-12.591Z" transform="translate(-20.795)" fill="none" stroke="#000" stroke-linecap="round" stroke-linejoin="round" stroke-width="1"/>
    <rect id="Rectángulo_34530" data-name="Rectángulo 34530" width="62.564" height="31.479" transform="translate(1060.157 1696.859)" fill="none" stroke="#000" stroke-linecap="round" stroke-linejoin="round" stroke-width="1"/>
    <path id="Trazado_159175" data-name="Trazado 159175" d="M1147.117,1684.4h-63.351l-23.609,12.46h62.564Z" fill="none" stroke="#000" stroke-linecap="round" stroke-linejoin="round" stroke-width="1"/>
    <line id="Línea_294" data-name="Línea 294" x2="62.389" transform="translate(1067.677 1692.89)" fill="none" stroke="#000" stroke-linecap="round" stroke-linejoin="round" stroke-width="1"/>
    <line id="Línea_295" data-name="Línea 295" x2="62.389" transform="translate(1075.753 1688.595)" fill="none" stroke="#000" stroke-linecap="round" stroke-linejoin="round" stroke-width="1"/>
    <line id="Línea_296" data-name="Línea 296" y1="11.737" x2="24.139" transform="translate(1122.721 1694.631)" fill="none" stroke="#000" stroke-linecap="round" stroke-linejoin="round" stroke-width="1"/>
    <line id="Línea_297" data-name="Línea 297" y1="11.737" x2="24.139" transform="translate(1122.721 1706.368)" fill="none" stroke="#000" stroke-linecap="round" stroke-linejoin="round" stroke-width="1"/>
    <line id="Línea_298" data-name="Línea 298" x1="62.564" transform="translate(1060.157 1706.368)" fill="none" stroke="#000" stroke-linecap="round" stroke-linejoin="round" stroke-width="1"/>
    <line id="Línea_299" data-name="Línea 299" x1="62.564" transform="translate(1060.157 1717.844)" fill="none" stroke="#000" stroke-linecap="round" stroke-linejoin="round" stroke-width="1"/>
    <path id="Trazado_159176" data-name="Trazado 159176" d="M1060.157,1738.713v2.23h9.837l4.984,3.017h31.347l4.459-2.623H1122.2l7.87-3.279V1734.8l4.853-2.588v1.653h6.427l5.771-3.935v-3.935l-6.335,3.09.04,3.6" transform="translate(0 -10.376)" fill="none" stroke="#000" stroke-linecap="round" stroke-linejoin="round" stroke-width="1"/>
    <line id="Línea_300" data-name="Línea 300" y2="2.623" transform="translate(1122.721 1728.337)" fill="none" stroke="#000" stroke-linecap="round" stroke-linejoin="round" stroke-width="1"/>
  </g>
</svg>
