<?xml version="1.0" encoding="utf-8"?>
<!-- Generator: Adobe Illustrator 25.2.3, SVG Export Plug-In . SVG Version: 6.00 Build 0)  -->
<svg version="1.1" id="Capa_1" xmlns="http://www.w3.org/2000/svg" xmlns:xlink="http://www.w3.org/1999/xlink" x="0px" y="0px"
	 viewBox="0 0 87.4 87.4" style="enable-background:new 0 0 87.4 87.4;" xml:space="preserve">
<style type="text/css">
	.st0{fill:#36A3F7;}
	.st1{fill:#FFFFFF;}
	.st2{enable-background:new    ;}
</style>
<g id="Grupo_146964" transform="translate(-335.004 -10007.964)">
	<ellipse id="Elipse_5037" class="st0" cx="378.7" cy="10051.7" rx="43.7" ry="43.7"/>
	<g id="Grupo_146938" transform="translate(102.121 7722.115)">
		<path id="Trazado_209345" d="M276.7,2359c-0.2-0.1-0.3-0.2-0.5-0.3c-6.7-3.6-13.4-7.2-20.1-10.9c-0.6-0.3-0.9-0.8-0.9-1.5
			c0-4.7,0-9.4,0-14.1c0-0.4-0.2-0.9-0.6-1c-1.9-1-3.7-2-5.5-3c-1-0.5-1.1-1-0.3-1.8c2-2,4.1-4,6.2-6c-0.3-0.3-0.4-0.4-0.5-0.6
			c-1.9-1.9-3.8-3.8-5.7-5.7c-0.8-0.8-0.7-1.3,0.3-1.8c3.5-1.9,7-3.8,10.5-5.7c0.2-0.1,0.4-0.2,0.6-0.2c0.3,0,0.6,0.2,0.8,0.4
			c0.2,0.3,0.2,0.7-0.1,1c0,0,0,0,0,0c-0.2,0.1-0.4,0.3-0.6,0.4c-3.1,1.7-6.2,3.4-9.3,5c-0.2,0.1-0.3,0.2-0.5,0.3l5.8,5.7l19.1-10.3
			l-5.8-5.8c-1.7,0.9-3.6,1.9-5.4,2.9c-0.2,0.1-0.4,0.2-0.7,0.3c-0.4,0.2-0.8,0.1-1-0.3c0,0,0,0,0-0.1c-0.2-0.4-0.1-0.9,0.3-1.1
			c0.1-0.1,0.3-0.2,0.4-0.2c2-1.1,4-2.2,6-3.3c0.8-0.4,1-0.4,1.6,0.2c1.9,1.9,3.8,3.8,5.6,5.6c0.1,0.1,0.3,0.3,0.5,0.5
			c0.2-0.2,0.3-0.3,0.5-0.4c1.9-1.9,3.8-3.8,5.6-5.6c0.7-0.7,0.9-0.7,1.7-0.3c6.7,3.6,13.5,7.3,20.2,10.9c1,0.5,1,1,0.3,1.8
			c-1.9,1.9-3.7,3.8-5.6,5.7c-0.1,0.1-0.3,0.3-0.5,0.5c0.2,0.2,0.3,0.3,0.4,0.5c1.9,1.9,3.7,3.8,5.6,5.7c0.8,0.8,0.7,1.3-0.3,1.8
			c-1.8,1-3.7,2-5.5,3c-0.4,0.2-0.7,0.6-0.6,1c0,4.7,0,9.4,0,14.1c0.1,0.6-0.3,1.2-0.9,1.5c-6.7,3.6-13.4,7.2-20.1,10.9
			c-0.2,0.1-0.3,0.2-0.5,0.3L276.7,2359z M278.6,2331.6l5.7,5.8c1.8-1,3.7-2,5.6-3c0.2-0.1,0.4-0.2,0.6-0.3c0.4-0.1,0.8,0,1,0.4
			c0.2,0.3,0.1,0.8-0.2,1c-0.1,0.1-0.3,0.2-0.5,0.3c-2,1.1-4,2.2-6,3.3c-0.8,0.4-1,0.4-1.6-0.2c-1.6-1.6-3.1-3.1-4.7-4.7
			c-0.1-0.1-0.3-0.3-0.5-0.5v23c0.2-0.1,0.4-0.2,0.5-0.3c6.1-3.3,12.1-6.5,18.2-9.8c0.3-0.1,0.6-0.5,0.5-0.9c0-4.2,0-8.4,0-12.6
			c0-0.2,0-0.4,0-0.6c-0.3,0.1-0.5,0.2-0.6,0.3c-0.7,0.4-1.5,0.8-2.2,1.2c-0.6,0.3-1.2,0.1-1.3-0.5c-0.1-0.4,0.1-0.9,0.6-1
			c1-0.6,2.1-1.1,3.1-1.7l6.9-3.8c0-0.1-0.1-0.1-0.1-0.2c-1.8-1.8-3.5-3.5-5.3-5.3c-0.3-0.3-0.5-0.2-0.7,0
			c-3.9,2.1-7.8,4.2-11.7,6.3L278.6,2331.6z M296.2,2320.2c-0.2-0.1-0.3-0.2-0.4-0.2c-6.1-3.3-12.3-6.6-18.4-9.9
			c-0.3-0.2-0.6-0.1-0.8,0c-6.1,3.3-12.1,6.6-18.2,9.8c-0.2,0.1-0.3,0.2-0.5,0.3c0.1,0.1,0.2,0.1,0.3,0.2c6.1,3.3,12.3,6.6,18.4,10
			c0.3,0.2,0.6,0.1,0.8,0c3.8-2.1,7.6-4.1,11.4-6.2C291.3,2322.8,293.8,2321.5,296.2,2320.2z M276.2,2333.6
			c-0.2,0.2-0.4,0.3-0.5,0.5c-1.5,1.5-3.1,3.1-4.6,4.6c-0.7,0.7-0.9,0.8-1.8,0.3l-11.6-6.3c-0.2-0.1-0.3-0.2-0.6-0.3
			c0,0.2,0,0.3,0,0.4c0,4.4,0,8.7,0,13.1c0,0.4,0.2,0.5,0.5,0.7c6.1,3.3,12.1,6.5,18.2,9.8c0.2,0.1,0.3,0.2,0.5,0.3L276.2,2333.6z
			 M269.9,2337.4l5.7-5.8l-19.1-10.4l-5.8,5.7L269.9,2337.4z M278.6,2308.7l19.1,10.3l5.8-5.7l-19.2-10.4L278.6,2308.7z"/>
		<circle id="Elipse_5073" class="st1" cx="276.4" cy="2314.2" r="10.7"/>
		<g class="st2">
			<path d="M277.7,2321h-1.6v-10.8l-3.3,1.2v-1.5l4.7-1.7h0.3V2321z"/>
		</g>
	</g>
</g>
</svg>
