<?xml version="1.0" encoding="utf-8"?>
<!-- Generator: Adobe Illustrator 25.2.3, SVG Export Plug-In . SVG Version: 6.00 Build 0)  -->
<svg version="1.1" id="Capa_1" xmlns="http://www.w3.org/2000/svg" xmlns:xlink="http://www.w3.org/1999/xlink" x="0px" y="0px"
	 viewBox="0 0 610 395" style="enable-background:new 0 0 610 395;" xml:space="preserve">
<style type="text/css">
	.st0{fill:#36A3F7;}
	.st1{fill:#2986CE;}
	.st2{enable-background:new    ;}
	.st3{fill:#FFFFFF;}
	.st4{fill:#876A40;}
	.st5{fill:#5E4A31;}
	.st6{fill:#C69B67;}
	.st7{fill:#FBE2B8;}
</style>
<g id="Grupo_146945" transform="translate(6201 216)">
	<g id="Grupo_102784" transform="translate(-88 201)">
		<path id="Trazado_159225" class="st0" d="M-6113-417h610v395h-610V-417z"/>
		<g id="Grupo_102769" transform="translate(0.34 -230.436)">
			<rect id="Rectángulo_34551" x="-5915" y="-114" class="st1" width="376" height="62"/>
			<g class="st2">
				<path class="st3" d="M-5808.3-91v4h-2.3v-11.4h4.4c0.9,0,1.6,0.2,2.3,0.5s1.1,0.8,1.5,1.3s0.5,1.2,0.5,2c0,1.1-0.4,2-1.1,2.6
					s-1.8,1-3.2,1H-5808.3z M-5808.3-92.9h2.1c0.6,0,1.1-0.1,1.4-0.4s0.5-0.7,0.5-1.2c0-0.6-0.2-1-0.5-1.4s-0.8-0.5-1.4-0.5h-2.1
					V-92.9z"/>
				<path class="st3" d="M-5795.6-87c-0.1-0.2-0.2-0.5-0.2-0.8c-0.5,0.6-1.3,0.9-2.1,0.9c-0.8,0-1.5-0.2-2.1-0.7s-0.8-1.1-0.8-1.8
					c0-0.9,0.3-1.6,1-2.1s1.6-0.7,2.9-0.7h1v-0.5c0-0.4-0.1-0.7-0.3-0.9s-0.5-0.4-0.9-0.4c-0.4,0-0.7,0.1-0.9,0.3s-0.3,0.4-0.3,0.8
					h-2.3c0-0.5,0.2-0.9,0.5-1.4s0.7-0.7,1.3-1s1.2-0.4,1.9-0.4c1,0,1.9,0.3,2.5,0.8s0.9,1.3,0.9,2.2v3.7c0,0.8,0.1,1.4,0.3,1.8v0.1
					H-5795.6z M-5797.5-88.6c0.3,0,0.6-0.1,0.9-0.2s0.5-0.3,0.6-0.6v-1.5h-0.8c-1.1,0-1.7,0.4-1.8,1.2l0,0.1c0,0.3,0.1,0.5,0.3,0.7
					S-5797.8-88.6-5797.5-88.6z"/>
				<path class="st3" d="M-5789.6-87h-2.3v-12h2.3V-87z"/>
				<path class="st3" d="M-5785.3-87h-2.3v-12h2.3V-87z"/>
				<path class="st3" d="M-5779.6-86.8c-1.2,0-2.2-0.4-3-1.1s-1.2-1.8-1.2-3v-0.2c0-0.8,0.2-1.6,0.5-2.3s0.8-1.2,1.4-1.5
					s1.3-0.5,2.1-0.5c1.2,0,2.1,0.4,2.7,1.1s1,1.8,1,3.1v0.9h-5.4c0.1,0.6,0.3,1,0.7,1.3s0.8,0.5,1.4,0.5c0.9,0,1.5-0.3,2-0.9
					l1.1,1.2c-0.3,0.5-0.8,0.9-1.4,1.1S-5778.9-86.8-5779.6-86.8z M-5779.8-93.8c-0.4,0-0.8,0.2-1.1,0.5s-0.5,0.7-0.5,1.3h3.1v-0.2
					c0-0.5-0.1-0.9-0.4-1.2S-5779.3-93.8-5779.8-93.8z"/>
				<path class="st3" d="M-5772.1-97.5v2.1h1.4v1.7h-1.4v4.2c0,0.3,0.1,0.5,0.2,0.7s0.3,0.2,0.7,0.2c0.2,0,0.5,0,0.7-0.1v1.7
					c-0.4,0.1-0.9,0.2-1.4,0.2c-1.6,0-2.4-0.8-2.4-2.4v-4.6h-1.2v-1.7h1.2v-2.1H-5772.1z"/>
				<path class="st3" d="M-5765.8-91.3c0-1.3,0.3-2.4,0.9-3.1s1.4-1.2,2.4-1.2c0.8,0,1.5,0.3,2,0.9V-99h2.3v12h-2l-0.1-0.9
					c-0.6,0.7-1.3,1.1-2.2,1.1c-1,0-1.8-0.4-2.4-1.2S-5765.8-89.9-5765.8-91.3z M-5763.5-91.1c0,0.8,0.1,1.4,0.4,1.8
					s0.7,0.6,1.2,0.6c0.7,0,1.2-0.3,1.5-0.9v-3.3c-0.3-0.6-0.8-0.9-1.5-0.9C-5763-93.8-5763.5-92.9-5763.5-91.1z"/>
				<path class="st3" d="M-5752.5-86.8c-1.2,0-2.2-0.4-3-1.1s-1.2-1.8-1.2-3v-0.2c0-0.8,0.2-1.6,0.5-2.3s0.8-1.2,1.4-1.5
					s1.3-0.5,2.1-0.5c1.2,0,2.1,0.4,2.7,1.1s1,1.8,1,3.1v0.9h-5.4c0.1,0.6,0.3,1,0.7,1.3s0.8,0.5,1.4,0.5c0.9,0,1.5-0.3,2-0.9
					l1.1,1.2c-0.3,0.5-0.8,0.9-1.4,1.1S-5751.8-86.8-5752.5-86.8z M-5752.8-93.8c-0.4,0-0.8,0.2-1.1,0.5s-0.5,0.7-0.5,1.3h3.1v-0.2
					c0-0.5-0.1-0.9-0.4-1.2S-5752.3-93.8-5752.8-93.8z"/>
				<path class="st3" d="M-5740.3-88.7c0.4,0,0.8-0.1,1-0.3s0.4-0.5,0.4-0.9h2.1c0,0.6-0.2,1.1-0.5,1.6s-0.7,0.8-1.3,1.1
					s-1.1,0.4-1.8,0.4c-1.2,0-2.2-0.4-2.9-1.2s-1-1.8-1-3.2v-0.1c0-1.3,0.3-2.3,1-3.1s1.6-1.2,2.9-1.2c1.1,0,1.9,0.3,2.5,0.9
					s1,1.4,1,2.4h-2.1c0-0.4-0.1-0.8-0.4-1.1c-0.3-0.3-0.6-0.4-1-0.4c-0.5,0-0.9,0.2-1.2,0.6s-0.4,1-0.4,1.9v0.2
					c0,0.9,0.1,1.5,0.4,1.9S-5740.8-88.7-5740.3-88.7z"/>
				<path class="st3" d="M-5730.5-87c-0.1-0.2-0.2-0.5-0.2-0.8c-0.5,0.6-1.3,0.9-2.1,0.9c-0.8,0-1.5-0.2-2.1-0.7s-0.8-1.1-0.8-1.8
					c0-0.9,0.3-1.6,1-2.1s1.6-0.7,2.9-0.7h1v-0.5c0-0.4-0.1-0.7-0.3-0.9s-0.5-0.4-0.9-0.4c-0.4,0-0.7,0.1-0.9,0.3s-0.3,0.4-0.3,0.8
					h-2.3c0-0.5,0.2-0.9,0.5-1.4s0.7-0.7,1.3-1s1.2-0.4,1.9-0.4c1,0,1.9,0.3,2.5,0.8s0.9,1.3,0.9,2.2v3.7c0,0.8,0.1,1.4,0.3,1.8v0.1
					H-5730.5z M-5732.4-88.6c0.3,0,0.6-0.1,0.9-0.2s0.5-0.3,0.6-0.6v-1.5h-0.8c-1.1,0-1.7,0.4-1.8,1.2l0,0.1c0,0.3,0.1,0.5,0.3,0.7
					S-5732.7-88.6-5732.4-88.6z"/>
				<path class="st3" d="M-5722.1-93.3c-0.3,0-0.6-0.1-0.8-0.1c-0.9,0-1.4,0.3-1.7,0.9v5.5h-2.3v-8.5h2.1l0.1,1
					c0.5-0.8,1.1-1.2,1.9-1.2c0.2,0,0.5,0,0.7,0.1L-5722.1-93.3z"/>
				<path class="st3" d="M-5717.9-97.5v2.1h1.4v1.7h-1.4v4.2c0,0.3,0.1,0.5,0.2,0.7s0.3,0.2,0.7,0.2c0.2,0,0.5,0,0.7-0.1v1.7
					c-0.4,0.1-0.9,0.2-1.4,0.2c-1.6,0-2.4-0.8-2.4-2.4v-4.6h-1.2v-1.7h1.2v-2.1H-5717.9z"/>
				<path class="st3" d="M-5715.6-91.3c0-0.8,0.2-1.6,0.5-2.2s0.8-1.2,1.4-1.5s1.3-0.5,2.1-0.5c1.1,0,2.1,0.3,2.8,1s1.1,1.6,1.2,2.8
					l0,0.6c0,1.3-0.4,2.3-1.1,3.1s-1.7,1.2-2.9,1.2s-2.2-0.4-2.9-1.2s-1.1-1.8-1.1-3.2V-91.3z M-5713.3-91.1c0,0.8,0.2,1.4,0.5,1.8
					s0.7,0.6,1.3,0.6c0.5,0,1-0.2,1.3-0.6s0.5-1.1,0.5-2c0-0.8-0.2-1.4-0.5-1.8s-0.7-0.6-1.3-0.6c-0.6,0-1,0.2-1.3,0.6
					S-5713.3-92-5713.3-91.1z M-5711.1-99h2.5l-2.2,2.4h-1.8L-5711.1-99z"/>
				<path class="st3" d="M-5704.1-95.5l0.1,1c0.6-0.8,1.4-1.1,2.4-1.1c0.9,0,1.6,0.3,2,0.8s0.7,1.3,0.7,2.4v5.5h-2.3v-5.4
					c0-0.5-0.1-0.8-0.3-1s-0.6-0.3-1-0.3c-0.6,0-1.1,0.3-1.4,0.8v6h-2.3v-8.5H-5704.1z"/>
				<path class="st3" d="M-5688.8-91h-4.4v-1.8h4.4V-91z"/>
				<path class="st3" d="M-5674-90.8c-0.1,1.2-0.5,2.2-1.4,2.9s-1.9,1.1-3.2,1.1c-1.5,0-2.6-0.5-3.4-1.5s-1.3-2.3-1.3-4v-0.7
					c0-1.1,0.2-2.1,0.6-2.9s0.9-1.5,1.7-1.9s1.5-0.7,2.5-0.7c1.3,0,2.4,0.4,3.2,1.1s1.3,1.7,1.4,3h-2.3c-0.1-0.7-0.3-1.3-0.6-1.6
					s-0.9-0.5-1.6-0.5c-0.8,0-1.4,0.3-1.8,0.8s-0.6,1.4-0.6,2.6v0.9c0,1.2,0.2,2.1,0.6,2.7s1,0.9,1.8,0.9c0.7,0,1.3-0.2,1.6-0.5
					s0.6-0.8,0.6-1.5H-5674z"/>
				<path class="st3" d="M-5667.7-87c-0.1-0.2-0.2-0.5-0.2-0.8c-0.5,0.6-1.3,0.9-2.1,0.9c-0.8,0-1.5-0.2-2.1-0.7s-0.8-1.1-0.8-1.8
					c0-0.9,0.3-1.6,1-2.1s1.6-0.7,2.9-0.7h1v-0.5c0-0.4-0.1-0.7-0.3-0.9s-0.5-0.4-0.9-0.4c-0.4,0-0.7,0.1-0.9,0.3s-0.3,0.4-0.3,0.8
					h-2.3c0-0.5,0.2-0.9,0.5-1.4s0.7-0.7,1.3-1s1.2-0.4,1.9-0.4c1,0,1.9,0.3,2.5,0.8s0.9,1.3,0.9,2.2v3.7c0,0.8,0.1,1.4,0.3,1.8v0.1
					H-5667.7z M-5669.5-88.6c0.3,0,0.6-0.1,0.9-0.2s0.5-0.3,0.6-0.6v-1.5h-0.8c-1.1,0-1.7,0.4-1.8,1.2l0,0.1c0,0.3,0.1,0.5,0.3,0.7
					S-5669.9-88.6-5669.5-88.6z"/>
				<path class="st3" d="M-5659.2-93.3c-0.3,0-0.6-0.1-0.8-0.1c-0.9,0-1.4,0.3-1.7,0.9v5.5h-2.3v-8.5h2.1l0.1,1
					c0.5-0.8,1.1-1.2,1.9-1.2c0.2,0,0.5,0,0.7,0.1L-5659.2-93.3z"/>
				<path class="st3" d="M-5658.5-91.3c0-1.3,0.3-2.4,0.9-3.1s1.4-1.2,2.4-1.2c0.8,0,1.5,0.3,2,0.9V-99h2.3v12h-2l-0.1-0.9
					c-0.6,0.7-1.3,1.1-2.2,1.1c-1,0-1.8-0.4-2.4-1.2S-5658.5-89.9-5658.5-91.3z M-5656.2-91.1c0,0.8,0.1,1.4,0.4,1.8
					s0.7,0.6,1.2,0.6c0.7,0,1.2-0.3,1.5-0.9v-3.3c-0.3-0.6-0.8-0.9-1.5-0.9C-5655.7-93.8-5656.2-92.9-5656.2-91.1z"/>
				<path class="st3" d="M-5641.5-91.1c0,1.4-0.3,2.4-0.9,3.2s-1.4,1.1-2.4,1.1c-0.9,0-1.6-0.4-2.2-1.1l-0.1,0.9h-2v-12h2.3v4.3
					c0.5-0.6,1.2-0.9,2.1-0.9c1,0,1.8,0.4,2.4,1.1s0.9,1.8,0.9,3.2V-91.1z M-5643.8-91.3c0-0.9-0.1-1.5-0.4-1.9s-0.7-0.6-1.2-0.6
					c-0.7,0-1.2,0.3-1.5,0.9v3.3c0.3,0.6,0.8,0.9,1.5,0.9c0.7,0,1.2-0.4,1.4-1.1C-5643.8-90.1-5643.8-90.6-5643.8-91.3z"/>
				<path class="st3" d="M-5640.5-91.3c0-0.8,0.2-1.6,0.5-2.2s0.8-1.2,1.4-1.5s1.3-0.5,2.1-0.5c1.1,0,2.1,0.3,2.8,1s1.1,1.6,1.2,2.8
					l0,0.6c0,1.3-0.4,2.3-1.1,3.1s-1.7,1.2-2.9,1.2s-2.2-0.4-2.9-1.2s-1.1-1.8-1.1-3.2V-91.3z M-5638.2-91.1c0,0.8,0.2,1.4,0.5,1.8
					s0.7,0.6,1.3,0.6c0.5,0,1-0.2,1.3-0.6s0.5-1.1,0.5-2c0-0.8-0.2-1.4-0.5-1.8s-0.7-0.6-1.3-0.6c-0.6,0-1,0.2-1.3,0.6
					S-5638.2-92-5638.2-91.1z"/>
				<path class="st3" d="M-5626.2-87c-0.1-0.2-0.2-0.5-0.2-0.8c-0.5,0.6-1.3,0.9-2.1,0.9c-0.8,0-1.5-0.2-2.1-0.7s-0.8-1.1-0.8-1.8
					c0-0.9,0.3-1.6,1-2.1s1.6-0.7,2.9-0.7h1v-0.5c0-0.4-0.1-0.7-0.3-0.9s-0.5-0.4-0.9-0.4c-0.4,0-0.7,0.1-0.9,0.3s-0.3,0.4-0.3,0.8
					h-2.3c0-0.5,0.2-0.9,0.5-1.4s0.7-0.7,1.3-1s1.2-0.4,1.9-0.4c1,0,1.9,0.3,2.5,0.8s0.9,1.3,0.9,2.2v3.7c0,0.8,0.1,1.4,0.3,1.8v0.1
					H-5626.2z M-5628-88.6c0.3,0,0.6-0.1,0.9-0.2s0.5-0.3,0.6-0.6v-1.5h-0.8c-1.1,0-1.7,0.4-1.8,1.2l0,0.1c0,0.3,0.1,0.5,0.3,0.7
					S-5628.4-88.6-5628-88.6z"/>
				<path class="st3" d="M-5617.8-93.3c-0.3,0-0.6-0.1-0.8-0.1c-0.9,0-1.4,0.3-1.7,0.9v5.5h-2.3v-8.5h2.1l0.1,1
					c0.5-0.8,1.1-1.2,1.9-1.2c0.2,0,0.5,0,0.7,0.1L-5617.8-93.3z"/>
				<path class="st3" d="M-5617-91.3c0-1.3,0.3-2.4,0.9-3.1s1.4-1.2,2.4-1.2c0.8,0,1.5,0.3,2,0.9V-99h2.3v12h-2l-0.1-0.9
					c-0.6,0.7-1.3,1.1-2.2,1.1c-1,0-1.8-0.4-2.4-1.2S-5617-89.9-5617-91.3z M-5614.8-91.1c0,0.8,0.1,1.4,0.4,1.8s0.7,0.6,1.2,0.6
					c0.7,0,1.2-0.3,1.5-0.9v-3.3c-0.3-0.6-0.8-0.9-1.5-0.9C-5614.2-93.8-5614.8-92.9-5614.8-91.1z"/>
				<path class="st3" d="M-5596.1-91.1c0,1.3-0.3,2.3-0.9,3.1s-1.4,1.2-2.4,1.2c-0.9,0-1.5-0.3-2.1-0.9v4h-2.3v-11.7h2.1l0.1,0.8
					c0.5-0.7,1.3-1,2.1-1c1,0,1.9,0.4,2.4,1.2s0.9,1.8,0.9,3.2V-91.1z M-5598.3-91.3c0-0.8-0.1-1.4-0.4-1.8s-0.7-0.6-1.2-0.6
					c-0.7,0-1.2,0.3-1.5,0.8v3.5c0.3,0.6,0.8,0.8,1.5,0.8C-5598.9-88.7-5598.3-89.5-5598.3-91.3z"/>
				<path class="st3" d="M-5589.8-87c-0.1-0.2-0.2-0.5-0.2-0.8c-0.5,0.6-1.3,0.9-2.1,0.9c-0.8,0-1.5-0.2-2.1-0.7s-0.8-1.1-0.8-1.8
					c0-0.9,0.3-1.6,1-2.1s1.6-0.7,2.9-0.7h1v-0.5c0-0.4-0.1-0.7-0.3-0.9s-0.5-0.4-0.9-0.4c-0.4,0-0.7,0.1-0.9,0.3s-0.3,0.4-0.3,0.8
					h-2.3c0-0.5,0.2-0.9,0.5-1.4s0.7-0.7,1.3-1s1.2-0.4,1.9-0.4c1,0,1.9,0.3,2.5,0.8s0.9,1.3,0.9,2.2v3.7c0,0.8,0.1,1.4,0.3,1.8v0.1
					H-5589.8z M-5591.6-88.6c0.3,0,0.6-0.1,0.9-0.2s0.5-0.3,0.6-0.6v-1.5h-0.8c-1.1,0-1.7,0.4-1.8,1.2l0,0.1c0,0.3,0.1,0.5,0.3,0.7
					S-5592-88.6-5591.6-88.6z"/>
				<path class="st3" d="M-5583.7-87h-2.3v-12h2.3V-87z"/>
				<path class="st3" d="M-5579.5-87h-2.3v-12h2.3V-87z"/>
				<path class="st3" d="M-5573.7-86.8c-1.2,0-2.2-0.4-3-1.1s-1.2-1.8-1.2-3v-0.2c0-0.8,0.2-1.6,0.5-2.3s0.8-1.2,1.4-1.5
					s1.3-0.5,2.1-0.5c1.2,0,2.1,0.4,2.7,1.1s1,1.8,1,3.1v0.9h-5.4c0.1,0.6,0.3,1,0.7,1.3s0.8,0.5,1.4,0.5c0.9,0,1.5-0.3,2-0.9
					l1.1,1.2c-0.3,0.5-0.8,0.9-1.4,1.1S-5573-86.8-5573.7-86.8z M-5574-93.8c-0.4,0-0.8,0.2-1.1,0.5s-0.5,0.7-0.5,1.3h3.1v-0.2
					c0-0.5-0.1-0.9-0.4-1.2S-5573.5-93.8-5574-93.8z"/>
				<path class="st3" d="M-5566.2-97.5v2.1h1.4v1.7h-1.4v4.2c0,0.3,0.1,0.5,0.2,0.7s0.3,0.2,0.7,0.2c0.2,0,0.5,0,0.7-0.1v1.7
					c-0.4,0.1-0.9,0.2-1.4,0.2c-1.6,0-2.4-0.8-2.4-2.4v-4.6h-1.2v-1.7h1.2v-2.1H-5566.2z"/>
				<path class="st3" d="M-5555.2-91h-4.4v-1.8h4.4V-91z"/>
			</g>
			<g class="st2">
				<path class="st3" d="M-5801.7-67v4h-2.3v-11.4h4.4c0.9,0,1.6,0.2,2.3,0.5s1.1,0.8,1.5,1.3c0.3,0.6,0.5,1.2,0.5,2
					c0,1.1-0.4,2-1.1,2.6c-0.8,0.6-1.8,1-3.2,1H-5801.7z M-5801.7-68.9h2.1c0.6,0,1.1-0.1,1.4-0.4c0.3-0.3,0.5-0.7,0.5-1.2
					c0-0.6-0.2-1-0.5-1.4s-0.8-0.5-1.4-0.5h-2.1V-68.9z"/>
				<path class="st3" d="M-5789.1-63c-0.1-0.2-0.2-0.5-0.2-0.8c-0.5,0.6-1.3,0.9-2.1,0.9c-0.8,0-1.5-0.2-2.1-0.7
					c-0.5-0.5-0.8-1.1-0.8-1.8c0-0.9,0.3-1.6,1-2.1s1.6-0.7,2.9-0.7h1v-0.5c0-0.4-0.1-0.7-0.3-0.9c-0.2-0.2-0.5-0.4-0.9-0.4
					c-0.4,0-0.7,0.1-0.9,0.3c-0.2,0.2-0.3,0.4-0.3,0.8h-2.3c0-0.5,0.2-0.9,0.5-1.4c0.3-0.4,0.7-0.7,1.3-1c0.6-0.2,1.2-0.4,1.9-0.4
					c1,0,1.9,0.3,2.5,0.8c0.6,0.5,0.9,1.3,0.9,2.2v3.7c0,0.8,0.1,1.4,0.3,1.8v0.1H-5789.1z M-5790.9-64.6c0.3,0,0.6-0.1,0.9-0.2
					s0.5-0.3,0.6-0.6v-1.5h-0.8c-1.1,0-1.7,0.4-1.8,1.2l0,0.1c0,0.3,0.1,0.5,0.3,0.7C-5791.5-64.7-5791.3-64.6-5790.9-64.6z"/>
				<path class="st3" d="M-5783-63h-2.3v-12h2.3V-63z"/>
				<path class="st3" d="M-5777.2-62.8c-1.2,0-2.2-0.4-3-1.1c-0.8-0.8-1.2-1.8-1.2-3v-0.2c0-0.8,0.2-1.6,0.5-2.3s0.8-1.2,1.4-1.5
					s1.3-0.5,2.1-0.5c1.2,0,2.1,0.4,2.7,1.1s1,1.8,1,3.1v0.9h-5.4c0.1,0.6,0.3,1,0.7,1.3s0.8,0.5,1.4,0.5c0.9,0,1.5-0.3,2-0.9
					l1.1,1.2c-0.3,0.5-0.8,0.9-1.4,1.1S-5776.5-62.8-5777.2-62.8z M-5777.5-69.8c-0.4,0-0.8,0.2-1.1,0.5c-0.3,0.3-0.5,0.7-0.5,1.3
					h3.1v-0.2c0-0.5-0.1-0.9-0.4-1.2C-5776.7-69.7-5777-69.8-5777.5-69.8z"/>
				<path class="st3" d="M-5769.8-73.5v2.1h1.4v1.7h-1.4v4.2c0,0.3,0.1,0.5,0.2,0.7c0.1,0.1,0.3,0.2,0.7,0.2c0.2,0,0.5,0,0.7-0.1
					v1.7c-0.4,0.1-0.9,0.2-1.4,0.2c-1.6,0-2.4-0.8-2.4-2.4v-4.6h-1.2v-1.7h1.2v-2.1H-5769.8z"/>
				<path class="st3" d="M-5764.4-73.5v2.1h1.4v1.7h-1.4v4.2c0,0.3,0.1,0.5,0.2,0.7c0.1,0.1,0.3,0.2,0.7,0.2c0.2,0,0.5,0,0.7-0.1
					v1.7c-0.4,0.1-0.9,0.2-1.4,0.2c-1.6,0-2.4-0.8-2.4-2.4v-4.6h-1.2v-1.7h1.2v-2.1H-5764.4z"/>
				<path class="st3" d="M-5757.8-62.8c-1.2,0-2.2-0.4-3-1.1c-0.8-0.8-1.2-1.8-1.2-3v-0.2c0-0.8,0.2-1.6,0.5-2.3s0.8-1.2,1.4-1.5
					s1.3-0.5,2.1-0.5c1.2,0,2.1,0.4,2.7,1.1s1,1.8,1,3.1v0.9h-5.4c0.1,0.6,0.3,1,0.7,1.3s0.8,0.5,1.4,0.5c0.9,0,1.5-0.3,2-0.9
					l1.1,1.2c-0.3,0.5-0.8,0.9-1.4,1.1S-5757.1-62.8-5757.8-62.8z M-5758-69.8c-0.4,0-0.8,0.2-1.1,0.5c-0.3,0.3-0.5,0.7-0.5,1.3h3.1
					v-0.2c0-0.5-0.1-0.9-0.4-1.2C-5757.2-69.7-5757.6-69.8-5758-69.8z"/>
				<path class="st3" d="M-5745.2-62.8c-1.2,0-2.2-0.4-3-1.1c-0.8-0.8-1.2-1.8-1.2-3v-0.2c0-0.8,0.2-1.6,0.5-2.3s0.8-1.2,1.4-1.5
					s1.3-0.5,2.1-0.5c1.2,0,2.1,0.4,2.7,1.1s1,1.8,1,3.1v0.9h-5.4c0.1,0.6,0.3,1,0.7,1.3s0.8,0.5,1.4,0.5c0.9,0,1.5-0.3,2-0.9
					l1.1,1.2c-0.3,0.5-0.8,0.9-1.4,1.1S-5744.5-62.8-5745.2-62.8z M-5745.4-69.8c-0.4,0-0.8,0.2-1.1,0.5c-0.3,0.3-0.5,0.7-0.5,1.3
					h3.1v-0.2c0-0.5-0.1-0.9-0.4-1.2C-5744.6-69.7-5744.9-69.8-5745.4-69.8z"/>
				<path class="st3" d="M-5738.3-71.5l0.1,1c0.6-0.8,1.4-1.1,2.4-1.1c0.9,0,1.6,0.3,2,0.8s0.7,1.3,0.7,2.4v5.5h-2.3v-5.4
					c0-0.5-0.1-0.8-0.3-1c-0.2-0.2-0.6-0.3-1-0.3c-0.6,0-1.1,0.3-1.4,0.8v6h-2.3v-8.5H-5738.3z"/>
				<path class="st3" d="M-5723.9-64.7c0.4,0,0.8-0.1,1-0.3c0.3-0.2,0.4-0.5,0.4-0.9h2.1c0,0.6-0.2,1.1-0.5,1.6
					c-0.3,0.5-0.7,0.8-1.3,1.1c-0.5,0.3-1.1,0.4-1.8,0.4c-1.2,0-2.2-0.4-2.9-1.2c-0.7-0.8-1-1.8-1-3.2v-0.1c0-1.3,0.3-2.3,1-3.1
					c0.7-0.8,1.6-1.2,2.9-1.2c1.1,0,1.9,0.3,2.5,0.9c0.6,0.6,1,1.4,1,2.4h-2.1c0-0.4-0.1-0.8-0.4-1.1c-0.3-0.3-0.6-0.4-1-0.4
					c-0.5,0-0.9,0.2-1.2,0.6c-0.3,0.4-0.4,1-0.4,1.9v0.2c0,0.9,0.1,1.5,0.4,1.9S-5724.5-64.7-5723.9-64.7z"/>
				<path class="st3" d="M-5714.2-63c-0.1-0.2-0.2-0.5-0.2-0.8c-0.5,0.6-1.3,0.9-2.1,0.9c-0.8,0-1.5-0.2-2.1-0.7
					c-0.5-0.5-0.8-1.1-0.8-1.8c0-0.9,0.3-1.6,1-2.1s1.6-0.7,2.9-0.7h1v-0.5c0-0.4-0.1-0.7-0.3-0.9c-0.2-0.2-0.5-0.4-0.9-0.4
					c-0.4,0-0.7,0.1-0.9,0.3c-0.2,0.2-0.3,0.4-0.3,0.8h-2.3c0-0.5,0.2-0.9,0.5-1.4c0.3-0.4,0.7-0.7,1.3-1c0.6-0.2,1.2-0.4,1.9-0.4
					c1,0,1.9,0.3,2.5,0.8c0.6,0.5,0.9,1.3,0.9,2.2v3.7c0,0.8,0.1,1.4,0.3,1.8v0.1H-5714.2z M-5716.1-64.6c0.3,0,0.6-0.1,0.9-0.2
					s0.5-0.3,0.6-0.6v-1.5h-0.8c-1.1,0-1.7,0.4-1.8,1.2l0,0.1c0,0.3,0.1,0.5,0.3,0.7C-5716.7-64.7-5716.4-64.6-5716.1-64.6z"/>
				<path class="st3" d="M-5705.8-69.3c-0.3,0-0.6-0.1-0.8-0.1c-0.9,0-1.4,0.3-1.7,0.9v5.5h-2.3v-8.5h2.1l0.1,1
					c0.5-0.8,1.1-1.2,1.9-1.2c0.2,0,0.5,0,0.7,0.1L-5705.8-69.3z"/>
				<path class="st3" d="M-5701.6-73.5v2.1h1.4v1.7h-1.4v4.2c0,0.3,0.1,0.5,0.2,0.7c0.1,0.1,0.3,0.2,0.7,0.2c0.2,0,0.5,0,0.7-0.1
					v1.7c-0.4,0.1-0.9,0.2-1.4,0.2c-1.6,0-2.4-0.8-2.4-2.4v-4.6h-1.2v-1.7h1.2v-2.1H-5701.6z"/>
				<path class="st3" d="M-5699.5-67.3c0-0.8,0.2-1.6,0.5-2.2c0.3-0.7,0.8-1.2,1.4-1.5c0.6-0.4,1.3-0.5,2.1-0.5c1.1,0,2.1,0.3,2.8,1
					c0.7,0.7,1.1,1.6,1.2,2.8l0,0.6c0,1.3-0.4,2.3-1.1,3.1c-0.7,0.8-1.7,1.2-2.9,1.2s-2.2-0.4-2.9-1.2s-1.1-1.8-1.1-3.2V-67.3z
					 M-5697.2-67.1c0,0.8,0.2,1.4,0.5,1.8c0.3,0.4,0.7,0.6,1.3,0.6c0.5,0,1-0.2,1.3-0.6c0.3-0.4,0.5-1.1,0.5-2
					c0-0.8-0.2-1.4-0.5-1.8c-0.3-0.4-0.7-0.6-1.3-0.6c-0.6,0-1,0.2-1.3,0.6C-5697.1-68.7-5697.2-68-5697.2-67.1z"/>
				<path class="st3" d="M-5688-71.5l0.1,1c0.6-0.8,1.4-1.1,2.4-1.1c0.9,0,1.6,0.3,2,0.8s0.7,1.3,0.7,2.4v5.5h-2.3v-5.4
					c0-0.5-0.1-0.8-0.3-1c-0.2-0.2-0.6-0.3-1-0.3c-0.6,0-1.1,0.3-1.4,0.8v6h-2.3v-8.5H-5688z"/>
				<path class="st3" d="M-5672.7-67h-4.4v-1.8h4.4V-67z"/>
				<path class="st3" d="M-5663.2-67.6l-1.2,1.3v3.2h-2.3v-11.4h2.3v5.2l1-1.4l2.9-3.7h2.9l-4,5.1l4.2,6.3h-2.8L-5663.2-67.6z"/>
				<path class="st3" d="M-5651.9-63c-0.1-0.2-0.2-0.5-0.2-0.8c-0.5,0.6-1.3,0.9-2.1,0.9c-0.8,0-1.5-0.2-2.1-0.7
					c-0.5-0.5-0.8-1.1-0.8-1.8c0-0.9,0.3-1.6,1-2.1s1.6-0.7,2.9-0.7h1v-0.5c0-0.4-0.1-0.7-0.3-0.9c-0.2-0.2-0.5-0.4-0.9-0.4
					c-0.4,0-0.7,0.1-0.9,0.3c-0.2,0.2-0.3,0.4-0.3,0.8h-2.3c0-0.5,0.2-0.9,0.5-1.4c0.3-0.4,0.7-0.7,1.3-1c0.6-0.2,1.2-0.4,1.9-0.4
					c1,0,1.9,0.3,2.5,0.8c0.6,0.5,0.9,1.3,0.9,2.2v3.7c0,0.8,0.1,1.4,0.3,1.8v0.1H-5651.9z M-5653.8-64.6c0.3,0,0.6-0.1,0.9-0.2
					s0.5-0.3,0.6-0.6v-1.5h-0.8c-1.1,0-1.7,0.4-1.8,1.2l0,0.1c0,0.3,0.1,0.5,0.3,0.7C-5654.4-64.7-5654.1-64.6-5653.8-64.6z"/>
				<path class="st3" d="M-5643.5-69.3c-0.3,0-0.6-0.1-0.8-0.1c-0.9,0-1.4,0.3-1.7,0.9v5.5h-2.3v-8.5h2.1l0.1,1
					c0.5-0.8,1.1-1.2,1.9-1.2c0.2,0,0.5,0,0.7,0.1L-5643.5-69.3z"/>
				<path class="st3" d="M-5639.3-73.5v2.1h1.4v1.7h-1.4v4.2c0,0.3,0.1,0.5,0.2,0.7c0.1,0.1,0.3,0.2,0.7,0.2c0.2,0,0.5,0,0.7-0.1
					v1.7c-0.4,0.1-0.9,0.2-1.4,0.2c-1.6,0-2.4-0.8-2.4-2.4v-4.6h-1.2v-1.7h1.2v-2.1H-5639.3z"/>
				<path class="st3" d="M-5637.2-67.3c0-0.8,0.2-1.6,0.5-2.2c0.3-0.7,0.8-1.2,1.4-1.5c0.6-0.4,1.3-0.5,2.1-0.5c1.1,0,2.1,0.3,2.8,1
					c0.7,0.7,1.1,1.6,1.2,2.8l0,0.6c0,1.3-0.4,2.3-1.1,3.1c-0.7,0.8-1.7,1.2-2.9,1.2s-2.2-0.4-2.9-1.2s-1.1-1.8-1.1-3.2V-67.3z
					 M-5634.9-67.1c0,0.8,0.2,1.4,0.5,1.8c0.3,0.4,0.7,0.6,1.3,0.6c0.5,0,1-0.2,1.3-0.6c0.3-0.4,0.5-1.1,0.5-2
					c0-0.8-0.2-1.4-0.5-1.8c-0.3-0.4-0.7-0.6-1.3-0.6c-0.6,0-1,0.2-1.3,0.6C-5634.8-68.7-5634.9-68-5634.9-67.1z"/>
				<path class="st3" d="M-5625.7-71.5l0.1,1c0.6-0.8,1.4-1.1,2.4-1.1c0.9,0,1.6,0.3,2,0.8s0.7,1.3,0.7,2.4v5.5h-2.3v-5.4
					c0-0.5-0.1-0.8-0.3-1c-0.2-0.2-0.6-0.3-1-0.3c-0.6,0-1.1,0.3-1.4,0.8v6h-2.3v-8.5H-5625.7z"/>
				<path class="st3" d="M-5611.2-67.1c0,1.3-0.3,2.3-0.9,3.1c-0.6,0.8-1.4,1.2-2.4,1.2c-0.9,0-1.5-0.3-2.1-0.9v4h-2.3v-11.7h2.1
					l0.1,0.8c0.5-0.7,1.3-1,2.1-1c1,0,1.9,0.4,2.4,1.2s0.9,1.8,0.9,3.2V-67.1z M-5613.5-67.3c0-0.8-0.1-1.4-0.4-1.8
					c-0.3-0.4-0.7-0.6-1.2-0.6c-0.7,0-1.2,0.3-1.5,0.8v3.5c0.3,0.6,0.8,0.8,1.5,0.8C-5614-64.7-5613.5-65.5-5613.5-67.3z"/>
				<path class="st3" d="M-5604.9-63c-0.1-0.2-0.2-0.5-0.2-0.8c-0.5,0.6-1.3,0.9-2.1,0.9c-0.8,0-1.5-0.2-2.1-0.7
					c-0.5-0.5-0.8-1.1-0.8-1.8c0-0.9,0.3-1.6,1-2.1s1.6-0.7,2.9-0.7h1v-0.5c0-0.4-0.1-0.7-0.3-0.9c-0.2-0.2-0.5-0.4-0.9-0.4
					c-0.4,0-0.7,0.1-0.9,0.3c-0.2,0.2-0.3,0.4-0.3,0.8h-2.3c0-0.5,0.2-0.9,0.5-1.4c0.3-0.4,0.7-0.7,1.3-1c0.6-0.2,1.2-0.4,1.9-0.4
					c1,0,1.9,0.3,2.5,0.8c0.6,0.5,0.9,1.3,0.9,2.2v3.7c0,0.8,0.1,1.4,0.3,1.8v0.1H-5604.9z M-5606.8-64.6c0.3,0,0.6-0.1,0.9-0.2
					s0.5-0.3,0.6-0.6v-1.5h-0.8c-1.1,0-1.7,0.4-1.8,1.2l0,0.1c0,0.3,0.1,0.5,0.3,0.7C-5607.4-64.7-5607.1-64.6-5606.8-64.6z"/>
				<path class="st3" d="M-5598.8-63h-2.3v-12h2.3V-63z"/>
				<path class="st3" d="M-5593.1-62.8c-1.2,0-2.2-0.4-3-1.1c-0.8-0.8-1.2-1.8-1.2-3v-0.2c0-0.8,0.2-1.6,0.5-2.3s0.8-1.2,1.4-1.5
					s1.3-0.5,2.1-0.5c1.2,0,2.1,0.4,2.7,1.1s1,1.8,1,3.1v0.9h-5.4c0.1,0.6,0.3,1,0.7,1.3s0.8,0.5,1.4,0.5c0.9,0,1.5-0.3,2-0.9
					l1.1,1.2c-0.3,0.5-0.8,0.9-1.4,1.1S-5592.4-62.8-5593.1-62.8z M-5593.3-69.8c-0.4,0-0.8,0.2-1.1,0.5c-0.3,0.3-0.5,0.7-0.5,1.3
					h3.1v-0.2c0-0.5-0.1-0.9-0.4-1.2C-5592.5-69.7-5592.9-69.8-5593.3-69.8z"/>
				<path class="st3" d="M-5585.6-73.5v2.1h1.4v1.7h-1.4v4.2c0,0.3,0.1,0.5,0.2,0.7c0.1,0.1,0.3,0.2,0.7,0.2c0.2,0,0.5,0,0.7-0.1
					v1.7c-0.4,0.1-0.9,0.2-1.4,0.2c-1.6,0-2.4-0.8-2.4-2.4v-4.6h-1.2v-1.7h1.2v-2.1H-5585.6z"/>
				<path class="st3" d="M-5580.2-73.5v2.1h1.4v1.7h-1.4v4.2c0,0.3,0.1,0.5,0.2,0.7c0.1,0.1,0.3,0.2,0.7,0.2c0.2,0,0.5,0,0.7-0.1
					v1.7c-0.4,0.1-0.9,0.2-1.4,0.2c-1.6,0-2.4-0.8-2.4-2.4v-4.6h-1.2v-1.7h1.2v-2.1H-5580.2z"/>
				<path class="st3" d="M-5573.6-62.8c-1.2,0-2.2-0.4-3-1.1c-0.8-0.8-1.2-1.8-1.2-3v-0.2c0-0.8,0.2-1.6,0.5-2.3s0.8-1.2,1.4-1.5
					s1.3-0.5,2.1-0.5c1.2,0,2.1,0.4,2.7,1.1s1,1.8,1,3.1v0.9h-5.4c0.1,0.6,0.3,1,0.7,1.3s0.8,0.5,1.4,0.5c0.9,0,1.5-0.3,2-0.9
					l1.1,1.2c-0.3,0.5-0.8,0.9-1.4,1.1S-5572.9-62.8-5573.6-62.8z M-5573.9-69.8c-0.4,0-0.8,0.2-1.1,0.5c-0.3,0.3-0.5,0.7-0.5,1.3
					h3.1v-0.2c0-0.5-0.1-0.9-0.4-1.2C-5573-69.7-5573.4-69.8-5573.9-69.8z"/>
				<path class="st3" d="M-5566.8-71.5l0.1,1c0.6-0.8,1.4-1.1,2.4-1.1c0.9,0,1.6,0.3,2,0.8s0.7,1.3,0.7,2.4v5.5h-2.3v-5.4
					c0-0.5-0.1-0.8-0.3-1c-0.2-0.2-0.6-0.3-1-0.3c-0.6,0-1.1,0.3-1.4,0.8v6h-2.3v-8.5H-5566.8z"/>
			</g>
			<g id="Grupo_91623" transform="translate(-5883.409 1.925)">
				<g id="Grupo_91612" transform="translate(0 91.294)">
					<g id="Grupo_91611" transform="translate(0)">
						<g id="Grupo_91608" transform="translate(0 12.645)">
							<path id="Trazado_132031" class="st4" d="M24.3,14.3L0,0l0.1,20.3l24.3,14.3L24.3,14.3z"/>
						</g>
						<g id="Grupo_91609">
							<path id="Trazado_132032" class="st5" d="M46,14.3L21.6,0L0,12.6l24.3,14.3L46,14.3z"/>
						</g>
						<g id="Grupo_91610" transform="translate(24.31 14.298)">
							<path id="Trazado_132033" class="st6" d="M0,12.6l0.1,20.3l21.6-12.6L21.6,0L0,12.6z"/>
						</g>
					</g>
				</g>
				<g id="Grupo_91617" transform="translate(78.382 45.871)">
					<g id="Grupo_91616" transform="translate(0)">
						<g id="Grupo_91613" transform="translate(0.001 12.645)">
							<path id="Trazado_132034" class="st4" d="M24.3,14.3L0,0l0.1,20.3l24.3,14.3L24.3,14.3z"/>
						</g>
						<g id="Grupo_91614">
							<path id="Trazado_132035" class="st5" d="M45.9,14.3L21.6,0L0,12.6l24.3,14.3L45.9,14.3z"/>
						</g>
						<g id="Grupo_91615" transform="translate(24.309 14.298)">
							<path id="Trazado_132036" class="st6" d="M0,12.6l0.1,20.3l21.6-12.6L21.6,0L0,12.6z"/>
						</g>
					</g>
				</g>
				<g id="Grupo_91622" transform="translate(156.431)">
					<g id="Grupo_91621" transform="translate(0)">
						<g id="Grupo_91618" transform="translate(0.001 12.645)">
							<path id="Trazado_132037" class="st4" d="M24.3,14.3L0,0l0.1,20.2l24.3,14.3L24.3,14.3z"/>
						</g>
						<g id="Grupo_91619">
							<path id="Trazado_132038" class="st5" d="M46,14.3L21.6,0L0,12.6l24.3,14.3L46,14.3z"/>
						</g>
						<g id="Grupo_91620" transform="translate(24.31 14.298)">
							<path id="Trazado_132039" class="st6" d="M0,12.6l0.1,20.2l21.6-12.6L21.6,0L0,12.6z"/>
						</g>
					</g>
				</g>
			</g>
			<g id="Grupo_91655" transform="translate(-5985.391 -58.497)">
				<g id="Grupo_91654" transform="translate(156.428)">
					<g id="Grupo_91653" transform="translate(0)">
						<g id="Grupo_91650" transform="translate(0 12.65)">
							<path id="Trazado_132055" class="st4" d="M24.3,14.3L0,0l0.1,20.2l24.3,14.3L24.3,14.3z"/>
						</g>
						<g id="Grupo_91651" transform="translate(0.002)">
							<path id="Trazado_132056" class="st5" d="M46,14.3L21.6,0L0,12.6l24.3,14.3L46,14.3z"/>
						</g>
						<g id="Grupo_91652" transform="translate(24.312 14.298)">
							<path id="Trazado_132057" class="st6" d="M0,12.6l0.1,20.2l21.6-12.7L21.6,0L0,12.6z"/>
						</g>
					</g>
				</g>
				<g id="Grupo_91649" transform="translate(78.381 45.871)">
					<g id="Grupo_91648" transform="translate(0)">
						<g id="Grupo_91645" transform="translate(0.001 12.65)">
							<path id="Trazado_132052" class="st4" d="M24.3,14.3L0,0l0.1,20.3l24.3,14.3L24.3,14.3z"/>
						</g>
						<g id="Grupo_91646" transform="translate(0)">
							<path id="Trazado_132053" class="st5" d="M102.6-19L78.3-33.3L0,12.7L24.3,27L102.6-19z"/>
						</g>
						<g id="Grupo_91647" transform="translate(24.309 14.298)">
							<path id="Trazado_132054" class="st6" d="M0,12.6l0.1,20.3l78.1-46v-20.2L0,12.6z"/>
						</g>
					</g>
				</g>
				<g id="Grupo_91644" transform="translate(0 91.295)">
					<g id="Grupo_91643">
						<g id="Grupo_91640" transform="translate(0 12.65)">
							<path id="Trazado_132049" class="st4" d="M24.3,14.3L0,0l0.1,20.3l24.3,14.3L24.3,14.3z"/>
						</g>
						<g id="Grupo_91641" transform="translate(0)">
							<path id="Trazado_132050" class="st5" d="M103.1-18.7L79.4-33L0,12.7L24.3,27L103.1-18.7z"/>
						</g>
						<g id="Grupo_91642" transform="translate(24.309 14.298)">
							<path id="Trazado_132051" class="st6" d="M0,12.7l0.1,20.2l78.8-45.6l-0.4-20.1L0,12.7z"/>
						</g>
					</g>
				</g>
			</g>
			<g id="Grupo_102762" transform="translate(-6081.391 -115.497)">
				<g id="Grupo_91654-2" transform="translate(156.428)">
					<g id="Grupo_91653-2" transform="translate(0)">
						<g id="Grupo_91650-2" transform="translate(0 12.65)">
							<path id="Trazado_132055-2" class="st4" d="M24.3,14.3L0,0l0.1,20.2l24.3,14.3L24.3,14.3z"/>
						</g>
						<g id="Grupo_91651-2" transform="translate(0.002)">
							<path id="Trazado_132056-2" class="st5" d="M46,14.3L21.6,0L0,12.6l24.3,14.3L46,14.3z"/>
						</g>
						<g id="Grupo_91652-2" transform="translate(24.312 14.298)">
							<path id="Trazado_132057-2" class="st6" d="M0,12.6l0.1,20.2l21.6-12.7L21.6,0L0,12.6z"/>
						</g>
					</g>
				</g>
				<g id="Grupo_91649-2" transform="translate(78.381 45.871)">
					<g id="Grupo_91648-2" transform="translate(0)">
						<g id="Grupo_91645-2" transform="translate(0.001 12.65)">
							<path id="Trazado_132052-2" class="st4" d="M24.3,14.3L0,0l0.1,20.3l24.3,14.3L24.3,14.3z"/>
						</g>
						<g id="Grupo_91646-2" transform="translate(0)">
							<path id="Trazado_132053-2" class="st5" d="M102.6-19L78.3-33.3L0,12.7L24.3,27L102.6-19z"/>
						</g>
						<g id="Grupo_91647-2" transform="translate(24.309 14.298)">
							<path id="Trazado_132054-2" class="st6" d="M0,12.6l0.1,20.3l78.1-46v-20.2L0,12.6z"/>
						</g>
					</g>
				</g>
				<g id="Grupo_91644-2" transform="translate(0 91.295)">
					<g id="Grupo_91643-2">
						<g id="Grupo_91640-2" transform="translate(0 12.65)">
							<path id="Trazado_132049-2" class="st4" d="M24.3,14.3L0,0l0.1,20.3l24.3,14.3L24.3,14.3z"/>
						</g>
						<g id="Grupo_91641-2" transform="translate(0)">
							<path id="Trazado_132050-2" class="st5" d="M103.1-18.7L79.4-33L0,12.7L24.3,27L103.1-18.7z"/>
						</g>
						<g id="Grupo_91642-2" transform="translate(24.309 14.298)">
							<path id="Trazado_132051-2" class="st6" d="M0,12.7l0.1,20.2l78.8-45.6l-0.4-20.1L0,12.7z"/>
						</g>
					</g>
				</g>
			</g>
			<g id="Grupo_91676" transform="translate(-6092.34 -128.277)">
				<g id="Grupo_91675" transform="translate(0 91.289)">
					<g id="Grupo_91672" transform="translate(0.001 15.397)">
						<path id="Trazado_132070" class="st4" d="M233.7,137.5L0,0l0,7.2l233.7,137.5L233.7,137.5z"/>
					</g>
					<g id="Grupo_91673">
						<path id="Trazado_132071" class="st7" d="M412.4,53.2L189.3-80.6L0,15.4l233.7,137.5L412.4,53.2z"/>
					</g>
					<g id="Grupo_91674" transform="translate(233.746 137.481)">
						<path id="Trazado_132072" class="st6" d="M0,15.4l0,7.2L178.6-81.3v-3L0,15.4z"/>
					</g>
				</g>
			</g>
		</g>
	</g>
</g>
</svg>
