<?xml version="1.0" encoding="utf-8"?>
<!-- Generator: Adobe Illustrator 25.2.3, SVG Export Plug-In . SVG Version: 6.00 Build 0)  -->
<svg version="1.1" id="Capa_1" xmlns="http://www.w3.org/2000/svg" xmlns:xlink="http://www.w3.org/1999/xlink" x="0px" y="0px"
	 viewBox="0 0 610 395" style="enable-background:new 0 0 610 395;" xml:space="preserve">
<style type="text/css">
	.st0{fill:#36A3F7;}
	.st1{fill:none;stroke:#272624;}
	.st2{fill:#2986CE;}
	.st3{enable-background:new    ;}
	.st4{fill:#FFFFFF;}
	.st5{fill:#393836;}
	.st6{fill:#5D5B58;}
	.st7{fill:#3E3D3B;}
	.st8{fill:#272624;}
	.st9{fill:#A7A7A7;}
</style>
<g id="Grupo_146946" transform="translate(6201 -200)">
	<g id="Grupo_102783" transform="translate(-88 201)">
		<path id="Trazado_159227" class="st0" d="M-6113-1h610v395h-610V-1z"/>
		<g id="Grupo_102777" transform="translate(-16.83 -31.308)">
			<line id="Línea_338" class="st1" x1="-6061.5" y1="196.5" x2="-5826.5" y2="334.5"/>
			<line id="Línea_339" class="st1" x1="-6021.5" y1="174.5" x2="-5786.5" y2="312.5"/>
			<line id="Línea_340" class="st1" x1="-5983.5" y1="151.5" x2="-5748.5" y2="289.5"/>
			<line id="Línea_341" class="st1" x1="-5944" y1="127.5" x2="-5709" y2="265.5"/>
			<line id="Línea_342" class="st1" x1="-5904" y1="105.5" x2="-5669" y2="243.5"/>
			<g id="Grupo_102774">
				<path id="Trazado_159226" class="st2" d="M-5868.7,112.5h361.2v62h-301.7L-5868.7,112.5z"/>
				<g class="st3">
					<path class="st4" d="M-5738.6,135.5v4h-2.3v-11.4h4.4c0.9,0,1.6,0.2,2.3,0.5s1.1,0.8,1.5,1.3c0.3,0.6,0.5,1.2,0.5,2
						c0,1.1-0.4,2-1.1,2.6c-0.8,0.6-1.8,1-3.2,1H-5738.6z M-5738.6,133.6h2.1c0.6,0,1.1-0.1,1.4-0.4c0.3-0.3,0.5-0.7,0.5-1.2
						c0-0.6-0.2-1-0.5-1.4s-0.8-0.5-1.4-0.5h-2.1V133.6z"/>
					<path class="st4" d="M-5725.9,139.5c-0.1-0.2-0.2-0.5-0.2-0.8c-0.5,0.6-1.3,0.9-2.1,0.9c-0.8,0-1.5-0.2-2.1-0.7
						c-0.5-0.5-0.8-1.1-0.8-1.8c0-0.9,0.3-1.6,1-2.1s1.6-0.7,2.9-0.7h1v-0.5c0-0.4-0.1-0.7-0.3-0.9c-0.2-0.2-0.5-0.4-0.9-0.4
						c-0.4,0-0.7,0.1-0.9,0.3c-0.2,0.2-0.3,0.4-0.3,0.8h-2.3c0-0.5,0.2-0.9,0.5-1.4c0.3-0.4,0.7-0.7,1.3-1c0.6-0.2,1.2-0.4,1.9-0.4
						c1,0,1.9,0.3,2.5,0.8c0.6,0.5,0.9,1.3,0.9,2.2v3.7c0,0.8,0.1,1.4,0.3,1.8v0.1H-5725.9z M-5727.8,137.9c0.3,0,0.6-0.1,0.9-0.2
						s0.5-0.3,0.6-0.6v-1.5h-0.8c-1.1,0-1.7,0.4-1.8,1.2l0,0.1c0,0.3,0.1,0.5,0.3,0.7C-5728.4,137.8-5728.1,137.9-5727.8,137.9z"/>
					<path class="st4" d="M-5719.9,139.5h-2.3v-12h2.3V139.5z"/>
					<path class="st4" d="M-5715.6,139.5h-2.3v-12h2.3V139.5z"/>
					<path class="st4" d="M-5709.9,139.7c-1.2,0-2.2-0.4-3-1.1c-0.8-0.8-1.2-1.8-1.2-3v-0.2c0-0.8,0.2-1.6,0.5-2.3s0.8-1.2,1.4-1.5
						s1.3-0.5,2.1-0.5c1.2,0,2.1,0.4,2.7,1.1s1,1.8,1,3.1v0.9h-5.4c0.1,0.6,0.3,1,0.7,1.3s0.8,0.5,1.4,0.5c0.9,0,1.5-0.3,2-0.9
						l1.1,1.2c-0.3,0.5-0.8,0.9-1.4,1.1S-5709.2,139.7-5709.9,139.7z M-5710.1,132.7c-0.4,0-0.8,0.2-1.1,0.5
						c-0.3,0.3-0.5,0.7-0.5,1.3h3.1v-0.2c0-0.5-0.1-0.9-0.4-1.2C-5709.3,132.8-5709.7,132.7-5710.1,132.7z"/>
					<path class="st4" d="M-5702.4,129v2.1h1.4v1.7h-1.4v4.2c0,0.3,0.1,0.5,0.2,0.7c0.1,0.1,0.3,0.2,0.7,0.2c0.2,0,0.5,0,0.7-0.1
						v1.7c-0.4,0.1-0.9,0.2-1.4,0.2c-1.6,0-2.4-0.8-2.4-2.4v-4.6h-1.2V131h1.2V129H-5702.4z"/>
					<path class="st4" d="M-5696.1,135.2c0-1.3,0.3-2.4,0.9-3.1c0.6-0.8,1.4-1.2,2.4-1.2c0.8,0,1.5,0.3,2,0.9v-4.3h2.3v12h-2
						l-0.1-0.9c-0.6,0.7-1.3,1.1-2.2,1.1c-1,0-1.8-0.4-2.4-1.2S-5696.1,136.6-5696.1,135.2z M-5693.8,135.4c0,0.8,0.1,1.4,0.4,1.8
						c0.3,0.4,0.7,0.6,1.2,0.6c0.7,0,1.2-0.3,1.5-0.9v-3.3c-0.3-0.6-0.8-0.9-1.5-0.9C-5693.3,132.7-5693.8,133.6-5693.8,135.4z"/>
					<path class="st4" d="M-5682.8,139.7c-1.2,0-2.2-0.4-3-1.1c-0.8-0.8-1.2-1.8-1.2-3v-0.2c0-0.8,0.2-1.6,0.5-2.3s0.8-1.2,1.4-1.5
						s1.3-0.5,2.1-0.5c1.2,0,2.1,0.4,2.7,1.1s1,1.8,1,3.1v0.9h-5.4c0.1,0.6,0.3,1,0.7,1.3s0.8,0.5,1.4,0.5c0.9,0,1.5-0.3,2-0.9
						l1.1,1.2c-0.3,0.5-0.8,0.9-1.4,1.1S-5682.1,139.7-5682.8,139.7z M-5683.1,132.7c-0.4,0-0.8,0.2-1.1,0.5
						c-0.3,0.3-0.5,0.7-0.5,1.3h3.1v-0.2c0-0.5-0.1-0.9-0.4-1.2C-5682.2,132.8-5682.6,132.7-5683.1,132.7z"/>
					<path class="st4" d="M-5672,131l0.1,0.9c0.6-0.7,1.4-1.1,2.4-1.1c1.1,0,1.8,0.4,2.2,1.3c0.6-0.9,1.4-1.3,2.5-1.3
						c0.9,0,1.6,0.3,2,0.8c0.4,0.5,0.7,1.3,0.7,2.4v5.4h-2.3v-5.4c0-0.5-0.1-0.8-0.3-1.1s-0.5-0.3-1-0.3c-0.7,0-1.1,0.3-1.4,1l0,5.8
						h-2.3v-5.4c0-0.5-0.1-0.8-0.3-1.1c-0.2-0.2-0.5-0.3-1-0.3c-0.6,0-1.1,0.3-1.4,0.8v6h-2.3V131H-5672z"/>
					<path class="st4" d="M-5656.3,139.7c-1.2,0-2.2-0.4-3-1.1c-0.8-0.8-1.2-1.8-1.2-3v-0.2c0-0.8,0.2-1.6,0.5-2.3s0.8-1.2,1.4-1.5
						s1.3-0.5,2.1-0.5c1.2,0,2.1,0.4,2.7,1.1s1,1.8,1,3.1v0.9h-5.4c0.1,0.6,0.3,1,0.7,1.3s0.8,0.5,1.4,0.5c0.9,0,1.5-0.3,2-0.9
						l1.1,1.2c-0.3,0.5-0.8,0.9-1.4,1.1S-5655.6,139.7-5656.3,139.7z M-5656.6,132.7c-0.4,0-0.8,0.2-1.1,0.5
						c-0.3,0.3-0.5,0.7-0.5,1.3h3.1v-0.2c0-0.5-0.1-0.9-0.4-1.2C-5655.7,132.8-5656.1,132.7-5656.6,132.7z"/>
					<path class="st4" d="M-5648.9,129v2.1h1.4v1.7h-1.4v4.2c0,0.3,0.1,0.5,0.2,0.7c0.1,0.1,0.3,0.2,0.7,0.2c0.2,0,0.5,0,0.7-0.1
						v1.7c-0.4,0.1-0.9,0.2-1.4,0.2c-1.6,0-2.4-0.8-2.4-2.4v-4.6h-1.2V131h1.2V129H-5648.9z"/>
					<path class="st4" d="M-5641.3,139.5c-0.1-0.2-0.2-0.5-0.2-0.8c-0.5,0.6-1.3,0.9-2.1,0.9c-0.8,0-1.5-0.2-2.1-0.7
						c-0.5-0.5-0.8-1.1-0.8-1.8c0-0.9,0.3-1.6,1-2.1s1.6-0.7,2.9-0.7h1v-0.5c0-0.4-0.1-0.7-0.3-0.9c-0.2-0.2-0.5-0.4-0.9-0.4
						c-0.4,0-0.7,0.1-0.9,0.3c-0.2,0.2-0.3,0.4-0.3,0.8h-2.3c0-0.5,0.2-0.9,0.5-1.4c0.3-0.4,0.7-0.7,1.3-1c0.6-0.2,1.2-0.4,1.9-0.4
						c1,0,1.9,0.3,2.5,0.8c0.6,0.5,0.9,1.3,0.9,2.2v3.7c0,0.8,0.1,1.4,0.3,1.8v0.1H-5641.3z M-5643.1,137.9c0.3,0,0.6-0.1,0.9-0.2
						s0.5-0.3,0.6-0.6v-1.5h-0.8c-1.1,0-1.7,0.4-1.8,1.2l0,0.1c0,0.3,0.1,0.5,0.3,0.7C-5643.8,137.8-5643.5,137.9-5643.1,137.9z"/>
					<path class="st4" d="M-5635.2,139.5h-2.3v-12h2.3V139.5z"/>
					<path class="st4" d="M-5625,135.5h-4.4v-1.8h4.4V135.5z"/>
					<path class="st4" d="M-5616,128.1l2.9,8.2l2.9-8.2h3.1v11.4h-2.4v-3.1l0.2-5.4l-3.1,8.5h-1.6l-3.1-8.5l0.2,5.4v3.1h-2.3v-11.4
						H-5616z"/>
					<path class="st4" d="M-5601.3,139.7c-1.2,0-2.2-0.4-3-1.1c-0.8-0.8-1.2-1.8-1.2-3v-0.2c0-0.8,0.2-1.6,0.5-2.3s0.8-1.2,1.4-1.5
						s1.3-0.5,2.1-0.5c1.2,0,2.1,0.4,2.7,1.1s1,1.8,1,3.1v0.9h-5.4c0.1,0.6,0.3,1,0.7,1.3s0.8,0.5,1.4,0.5c0.9,0,1.5-0.3,2-0.9
						l1.1,1.2c-0.3,0.5-0.8,0.9-1.4,1.1S-5600.6,139.7-5601.3,139.7z M-5601.5,132.7c-0.4,0-0.8,0.2-1.1,0.5
						c-0.3,0.3-0.5,0.7-0.5,1.3h3.1v-0.2c0-0.5-0.1-0.9-0.4-1.2C-5600.7,132.8-5601.1,132.7-5601.5,132.7z"/>
					<path class="st4" d="M-5593.8,129v2.1h1.4v1.7h-1.4v4.2c0,0.3,0.1,0.5,0.2,0.7c0.1,0.1,0.3,0.2,0.7,0.2c0.2,0,0.5,0,0.7-0.1
						v1.7c-0.4,0.1-0.9,0.2-1.4,0.2c-1.6,0-2.4-0.8-2.4-2.4v-4.6h-1.2V131h1.2V129H-5593.8z"/>
					<path class="st4" d="M-5586.2,139.5c-0.1-0.2-0.2-0.5-0.2-0.8c-0.5,0.6-1.3,0.9-2.1,0.9c-0.8,0-1.5-0.2-2.1-0.7
						c-0.5-0.5-0.8-1.1-0.8-1.8c0-0.9,0.3-1.6,1-2.1s1.6-0.7,2.9-0.7h1v-0.5c0-0.4-0.1-0.7-0.3-0.9c-0.2-0.2-0.5-0.4-0.9-0.4
						c-0.4,0-0.7,0.1-0.9,0.3c-0.2,0.2-0.3,0.4-0.3,0.8h-2.3c0-0.5,0.2-0.9,0.5-1.4c0.3-0.4,0.7-0.7,1.3-1c0.6-0.2,1.2-0.4,1.9-0.4
						c1,0,1.9,0.3,2.5,0.8c0.6,0.5,0.9,1.3,0.9,2.2v3.7c0,0.8,0.1,1.4,0.3,1.8v0.1H-5586.2z M-5588.1,137.9c0.3,0,0.6-0.1,0.9-0.2
						s0.5-0.3,0.6-0.6v-1.5h-0.8c-1.1,0-1.7,0.4-1.8,1.2l0,0.1c0,0.3,0.1,0.5,0.3,0.7C-5588.7,137.8-5588.4,137.9-5588.1,137.9z"/>
					<path class="st4" d="M-5580.2,139.5h-2.3v-12h2.3V139.5z"/>
					<path class="st4" d="M-5566.7,135.4c0,1.3-0.3,2.3-0.9,3.1c-0.6,0.8-1.4,1.2-2.4,1.2c-0.9,0-1.5-0.3-2.1-0.9v4h-2.3V131h2.1
						l0.1,0.8c0.5-0.7,1.3-1,2.1-1c1,0,1.9,0.4,2.4,1.2s0.9,1.8,0.9,3.2V135.4z M-5569,135.2c0-0.8-0.1-1.4-0.4-1.8
						c-0.3-0.4-0.7-0.6-1.2-0.6c-0.7,0-1.2,0.3-1.5,0.8v3.5c0.3,0.6,0.8,0.8,1.5,0.8C-5569.5,137.8-5569,137-5569,135.2z"/>
					<path class="st4" d="M-5560.4,139.5c-0.1-0.2-0.2-0.5-0.2-0.8c-0.5,0.6-1.3,0.9-2.1,0.9c-0.8,0-1.5-0.2-2.1-0.7
						c-0.5-0.5-0.8-1.1-0.8-1.8c0-0.9,0.3-1.6,1-2.1s1.6-0.7,2.9-0.7h1v-0.5c0-0.4-0.1-0.7-0.3-0.9c-0.2-0.2-0.5-0.4-0.9-0.4
						c-0.4,0-0.7,0.1-0.9,0.3c-0.2,0.2-0.3,0.4-0.3,0.8h-2.3c0-0.5,0.2-0.9,0.5-1.4c0.3-0.4,0.7-0.7,1.3-1c0.6-0.2,1.2-0.4,1.9-0.4
						c1,0,1.9,0.3,2.5,0.8c0.6,0.5,0.9,1.3,0.9,2.2v3.7c0,0.8,0.1,1.4,0.3,1.8v0.1H-5560.4z M-5562.3,137.9c0.3,0,0.6-0.1,0.9-0.2
						s0.5-0.3,0.6-0.6v-1.5h-0.8c-1.1,0-1.7,0.4-1.8,1.2l0,0.1c0,0.3,0.1,0.5,0.3,0.7C-5562.9,137.8-5562.6,137.9-5562.3,137.9z"/>
					<path class="st4" d="M-5554.3,139.5h-2.3v-12h2.3V139.5z"/>
					<path class="st4" d="M-5550.1,139.5h-2.3v-12h2.3V139.5z"/>
					<path class="st4" d="M-5544.3,139.7c-1.2,0-2.2-0.4-3-1.1c-0.8-0.8-1.2-1.8-1.2-3v-0.2c0-0.8,0.2-1.6,0.5-2.3s0.8-1.2,1.4-1.5
						s1.3-0.5,2.1-0.5c1.2,0,2.1,0.4,2.7,1.1s1,1.8,1,3.1v0.9h-5.4c0.1,0.6,0.3,1,0.7,1.3s0.8,0.5,1.4,0.5c0.9,0,1.5-0.3,2-0.9
						l1.1,1.2c-0.3,0.5-0.8,0.9-1.4,1.1S-5543.6,139.7-5544.3,139.7z M-5544.6,132.7c-0.4,0-0.8,0.2-1.1,0.5
						c-0.3,0.3-0.5,0.7-0.5,1.3h3.1v-0.2c0-0.5-0.1-0.9-0.4-1.2C-5543.8,132.8-5544.1,132.7-5544.6,132.7z"/>
					<path class="st4" d="M-5536.9,129v2.1h1.4v1.7h-1.4v4.2c0,0.3,0.1,0.5,0.2,0.7c0.1,0.1,0.3,0.2,0.7,0.2c0.2,0,0.5,0,0.7-0.1
						v1.7c-0.4,0.1-0.9,0.2-1.4,0.2c-1.6,0-2.4-0.8-2.4-2.4v-4.6h-1.2V131h1.2V129H-5536.9z"/>
				</g>
				<g class="st3">
					<path class="st4" d="M-5753,159.5v4h-2.3v-11.4h4.4c0.9,0,1.6,0.2,2.3,0.5s1.1,0.8,1.5,1.3s0.5,1.2,0.5,2c0,1.1-0.4,2-1.1,2.6
						s-1.8,1-3.2,1H-5753z M-5753,157.6h2.1c0.6,0,1.1-0.1,1.4-0.4s0.5-0.7,0.5-1.2c0-0.6-0.2-1-0.5-1.4s-0.8-0.5-1.4-0.5h-2.1
						V157.6z"/>
					<path class="st4" d="M-5740.3,163.5c-0.1-0.2-0.2-0.5-0.2-0.8c-0.5,0.6-1.3,0.9-2.1,0.9c-0.8,0-1.5-0.2-2.1-0.7
						s-0.8-1.1-0.8-1.8c0-0.9,0.3-1.6,1-2.1s1.6-0.7,2.9-0.7h1v-0.5c0-0.4-0.1-0.7-0.3-0.9s-0.5-0.4-0.9-0.4c-0.4,0-0.7,0.1-0.9,0.3
						s-0.3,0.4-0.3,0.8h-2.3c0-0.5,0.2-0.9,0.5-1.4s0.7-0.7,1.3-1s1.2-0.4,1.9-0.4c1,0,1.9,0.3,2.5,0.8s0.9,1.3,0.9,2.2v3.7
						c0,0.8,0.1,1.4,0.3,1.8v0.1H-5740.3z M-5742.2,161.9c0.3,0,0.6-0.1,0.9-0.2s0.5-0.3,0.6-0.6v-1.5h-0.8c-1.1,0-1.7,0.4-1.8,1.2
						l0,0.1c0,0.3,0.1,0.5,0.3,0.7S-5742.5,161.9-5742.2,161.9z"/>
					<path class="st4" d="M-5734.3,163.5h-2.3v-12h2.3V163.5z"/>
					<path class="st4" d="M-5728.5,163.7c-1.2,0-2.2-0.4-3-1.1s-1.2-1.8-1.2-3v-0.2c0-0.8,0.2-1.6,0.5-2.3s0.8-1.2,1.4-1.5
						s1.3-0.5,2.1-0.5c1.2,0,2.1,0.4,2.7,1.1s1,1.8,1,3.1v0.9h-5.4c0.1,0.6,0.3,1,0.7,1.3s0.8,0.5,1.4,0.5c0.9,0,1.5-0.3,2-0.9
						l1.1,1.2c-0.3,0.5-0.8,0.9-1.4,1.1S-5727.8,163.7-5728.5,163.7z M-5728.8,156.7c-0.4,0-0.8,0.2-1.1,0.5s-0.5,0.7-0.5,1.3h3.1
						v-0.2c0-0.5-0.1-0.9-0.4-1.2S-5728.3,156.7-5728.8,156.7z"/>
					<path class="st4" d="M-5721.1,153v2.1h1.4v1.7h-1.4v4.2c0,0.3,0.1,0.5,0.2,0.7s0.3,0.2,0.7,0.2c0.2,0,0.5,0,0.7-0.1v1.7
						c-0.4,0.1-0.9,0.2-1.4,0.2c-1.6,0-2.4-0.8-2.4-2.4v-4.6h-1.2V155h1.2V153H-5721.1z"/>
					<path class="st4" d="M-5715.6,153v2.1h1.4v1.7h-1.4v4.2c0,0.3,0.1,0.5,0.2,0.7s0.3,0.2,0.7,0.2c0.2,0,0.5,0,0.7-0.1v1.7
						c-0.4,0.1-0.9,0.2-1.4,0.2c-1.6,0-2.4-0.8-2.4-2.4v-4.6h-1.2V155h1.2V153H-5715.6z"/>
					<path class="st4" d="M-5709.1,163.7c-1.2,0-2.2-0.4-3-1.1s-1.2-1.8-1.2-3v-0.2c0-0.8,0.2-1.6,0.5-2.3s0.8-1.2,1.4-1.5
						s1.3-0.5,2.1-0.5c1.2,0,2.1,0.4,2.7,1.1s1,1.8,1,3.1v0.9h-5.4c0.1,0.6,0.3,1,0.7,1.3s0.8,0.5,1.4,0.5c0.9,0,1.5-0.3,2-0.9
						l1.1,1.2c-0.3,0.5-0.8,0.9-1.4,1.1S-5708.4,163.7-5709.1,163.7z M-5709.3,156.7c-0.4,0-0.8,0.2-1.1,0.5s-0.5,0.7-0.5,1.3h3.1
						v-0.2c0-0.5-0.1-0.9-0.4-1.2S-5708.8,156.7-5709.3,156.7z"/>
					<path class="st4" d="M-5696.4,163.7c-1.2,0-2.2-0.4-3-1.1s-1.2-1.8-1.2-3v-0.2c0-0.8,0.2-1.6,0.5-2.3s0.8-1.2,1.4-1.5
						s1.3-0.5,2.1-0.5c1.2,0,2.1,0.4,2.7,1.1s1,1.8,1,3.1v0.9h-5.4c0.1,0.6,0.3,1,0.7,1.3s0.8,0.5,1.4,0.5c0.9,0,1.5-0.3,2-0.9
						l1.1,1.2c-0.3,0.5-0.8,0.9-1.4,1.1S-5695.7,163.7-5696.4,163.7z M-5696.7,156.7c-0.4,0-0.8,0.2-1.1,0.5s-0.5,0.7-0.5,1.3h3.1
						v-0.2c0-0.5-0.1-0.9-0.4-1.2S-5696.2,156.7-5696.7,156.7z"/>
					<path class="st4" d="M-5689.6,155l0.1,1c0.6-0.8,1.4-1.1,2.4-1.1c0.9,0,1.6,0.3,2,0.8s0.7,1.3,0.7,2.4v5.5h-2.3v-5.4
						c0-0.5-0.1-0.8-0.3-1s-0.6-0.3-1-0.3c-0.6,0-1.1,0.3-1.4,0.8v6h-2.3V155H-5689.6z"/>
					<path class="st4" d="M-5676.6,155l0.1,0.9c0.6-0.7,1.4-1.1,2.4-1.1c1.1,0,1.8,0.4,2.2,1.3c0.6-0.9,1.4-1.3,2.5-1.3
						c0.9,0,1.6,0.3,2,0.8s0.7,1.3,0.7,2.4v5.4h-2.3v-5.4c0-0.5-0.1-0.8-0.3-1.1s-0.5-0.3-1-0.3c-0.7,0-1.1,0.3-1.4,1l0,5.8h-2.3
						v-5.4c0-0.5-0.1-0.8-0.3-1.1s-0.5-0.3-1-0.3c-0.6,0-1.1,0.3-1.4,0.8v6h-2.3V155H-5676.6z"/>
					<path class="st4" d="M-5661,163.7c-1.2,0-2.2-0.4-3-1.1s-1.2-1.8-1.2-3v-0.2c0-0.8,0.2-1.6,0.5-2.3s0.8-1.2,1.4-1.5
						s1.3-0.5,2.1-0.5c1.2,0,2.1,0.4,2.7,1.1s1,1.8,1,3.1v0.9h-5.4c0.1,0.6,0.3,1,0.7,1.3s0.8,0.5,1.4,0.5c0.9,0,1.5-0.3,2-0.9
						l1.1,1.2c-0.3,0.5-0.8,0.9-1.4,1.1S-5660.3,163.7-5661,163.7z M-5661.2,156.7c-0.4,0-0.8,0.2-1.1,0.5s-0.5,0.7-0.5,1.3h3.1
						v-0.2c0-0.5-0.1-0.9-0.4-1.2S-5660.8,156.7-5661.2,156.7z"/>
					<path class="st4" d="M-5653.5,153v2.1h1.4v1.7h-1.4v4.2c0,0.3,0.1,0.5,0.2,0.7s0.3,0.2,0.7,0.2c0.2,0,0.5,0,0.7-0.1v1.7
						c-0.4,0.1-0.9,0.2-1.4,0.2c-1.6,0-2.4-0.8-2.4-2.4v-4.6h-1.2V155h1.2V153H-5653.5z"/>
					<path class="st4" d="M-5645.9,163.5c-0.1-0.2-0.2-0.5-0.2-0.8c-0.5,0.6-1.3,0.9-2.1,0.9c-0.8,0-1.5-0.2-2.1-0.7
						s-0.8-1.1-0.8-1.8c0-0.9,0.3-1.6,1-2.1s1.6-0.7,2.9-0.7h1v-0.5c0-0.4-0.1-0.7-0.3-0.9s-0.5-0.4-0.9-0.4c-0.4,0-0.7,0.1-0.9,0.3
						s-0.3,0.4-0.3,0.8h-2.3c0-0.5,0.2-0.9,0.5-1.4s0.7-0.7,1.3-1s1.2-0.4,1.9-0.4c1,0,1.9,0.3,2.5,0.8s0.9,1.3,0.9,2.2v3.7
						c0,0.8,0.1,1.4,0.3,1.8v0.1H-5645.9z M-5647.8,161.9c0.3,0,0.6-0.1,0.9-0.2s0.5-0.3,0.6-0.6v-1.5h-0.8c-1.1,0-1.7,0.4-1.8,1.2
						l0,0.1c0,0.3,0.1,0.5,0.3,0.7S-5648.1,161.9-5647.8,161.9z"/>
					<path class="st4" d="M-5639.9,163.5h-2.3v-12h2.3V163.5z"/>
					<path class="st4" d="M-5629.6,159.5h-4.4v-1.8h4.4V159.5z"/>
					<path class="st4" d="M-5620.6,152.1l2.9,8.2l2.9-8.2h3.1v11.4h-2.4v-3.1l0.2-5.4l-3.1,8.5h-1.6l-3.1-8.5l0.2,5.4v3.1h-2.3
						v-11.4H-5620.6z"/>
					<path class="st4" d="M-5605.9,163.7c-1.2,0-2.2-0.4-3-1.1s-1.2-1.8-1.2-3v-0.2c0-0.8,0.2-1.6,0.5-2.3s0.8-1.2,1.4-1.5
						s1.3-0.5,2.1-0.5c1.2,0,2.1,0.4,2.7,1.1s1,1.8,1,3.1v0.9h-5.4c0.1,0.6,0.3,1,0.7,1.3s0.8,0.5,1.4,0.5c0.9,0,1.5-0.3,2-0.9
						l1.1,1.2c-0.3,0.5-0.8,0.9-1.4,1.1S-5605.2,163.7-5605.9,163.7z M-5606.2,156.7c-0.4,0-0.8,0.2-1.1,0.5s-0.5,0.7-0.5,1.3h3.1
						v-0.2c0-0.5-0.1-0.9-0.4-1.2S-5605.7,156.7-5606.2,156.7z"/>
					<path class="st4" d="M-5598.5,153v2.1h1.4v1.7h-1.4v4.2c0,0.3,0.1,0.5,0.2,0.7s0.3,0.2,0.7,0.2c0.2,0,0.5,0,0.7-0.1v1.7
						c-0.4,0.1-0.9,0.2-1.4,0.2c-1.6,0-2.4-0.8-2.4-2.4v-4.6h-1.2V155h1.2V153H-5598.5z"/>
					<path class="st4" d="M-5590.9,163.5c-0.1-0.2-0.2-0.5-0.2-0.8c-0.5,0.6-1.3,0.9-2.1,0.9c-0.8,0-1.5-0.2-2.1-0.7
						s-0.8-1.1-0.8-1.8c0-0.9,0.3-1.6,1-2.1s1.6-0.7,2.9-0.7h1v-0.5c0-0.4-0.1-0.7-0.3-0.9s-0.5-0.4-0.9-0.4c-0.4,0-0.7,0.1-0.9,0.3
						s-0.3,0.4-0.3,0.8h-2.3c0-0.5,0.2-0.9,0.5-1.4s0.7-0.7,1.3-1s1.2-0.4,1.9-0.4c1,0,1.9,0.3,2.5,0.8s0.9,1.3,0.9,2.2v3.7
						c0,0.8,0.1,1.4,0.3,1.8v0.1H-5590.9z M-5592.7,161.9c0.3,0,0.6-0.1,0.9-0.2s0.5-0.3,0.6-0.6v-1.5h-0.8c-1.1,0-1.7,0.4-1.8,1.2
						l0,0.1c0,0.3,0.1,0.5,0.3,0.7S-5593.1,161.9-5592.7,161.9z"/>
					<path class="st4" d="M-5584.8,163.5h-2.3v-12h2.3V163.5z"/>
					<path class="st4" d="M-5580.5,163.5h-2.3v-12h2.3V163.5z"/>
					<path class="st4" d="M-5571.1,159.4c0,1.3-0.3,2.3-0.9,3.1s-1.4,1.2-2.4,1.2c-0.9,0-1.5-0.3-2.1-0.9v4h-2.3V155h2.1l0.1,0.8
						c0.5-0.7,1.3-1,2.1-1c1,0,1.9,0.4,2.4,1.2s0.9,1.8,0.9,3.2V159.4z M-5573.3,159.2c0-0.8-0.1-1.4-0.4-1.8s-0.7-0.6-1.2-0.6
						c-0.7,0-1.2,0.3-1.5,0.8v3.5c0.3,0.6,0.8,0.8,1.5,0.8C-5573.9,161.8-5573.3,161-5573.3,159.2z"/>
					<path class="st4" d="M-5564.8,163.5c-0.1-0.2-0.2-0.5-0.2-0.8c-0.5,0.6-1.3,0.9-2.1,0.9c-0.8,0-1.5-0.2-2.1-0.7
						s-0.8-1.1-0.8-1.8c0-0.9,0.3-1.6,1-2.1s1.6-0.7,2.9-0.7h1v-0.5c0-0.4-0.1-0.7-0.3-0.9s-0.5-0.4-0.9-0.4c-0.4,0-0.7,0.1-0.9,0.3
						s-0.3,0.4-0.3,0.8h-2.3c0-0.5,0.2-0.9,0.5-1.4s0.7-0.7,1.3-1s1.2-0.4,1.9-0.4c1,0,1.9,0.3,2.5,0.8s0.9,1.3,0.9,2.2v3.7
						c0,0.8,0.1,1.4,0.3,1.8v0.1H-5564.8z M-5566.6,161.9c0.3,0,0.6-0.1,0.9-0.2s0.5-0.3,0.6-0.6v-1.5h-0.8c-1.1,0-1.7,0.4-1.8,1.2
						l0,0.1c0,0.3,0.1,0.5,0.3,0.7S-5567,161.9-5566.6,161.9z"/>
					<path class="st4" d="M-5558.7,163.5h-2.3v-12h2.3V163.5z"/>
					<path class="st4" d="M-5553,163.7c-1.2,0-2.2-0.4-3-1.1s-1.2-1.8-1.2-3v-0.2c0-0.8,0.2-1.6,0.5-2.3s0.8-1.2,1.4-1.5
						s1.3-0.5,2.1-0.5c1.2,0,2.1,0.4,2.7,1.1s1,1.8,1,3.1v0.9h-5.4c0.1,0.6,0.3,1,0.7,1.3s0.8,0.5,1.4,0.5c0.9,0,1.5-0.3,2-0.9
						l1.1,1.2c-0.3,0.5-0.8,0.9-1.4,1.1S-5552.3,163.7-5553,163.7z M-5553.2,156.7c-0.4,0-0.8,0.2-1.1,0.5s-0.5,0.7-0.5,1.3h3.1
						v-0.2c0-0.5-0.1-0.9-0.4-1.2S-5552.7,156.7-5553.2,156.7z"/>
					<path class="st4" d="M-5545.5,153v2.1h1.4v1.7h-1.4v4.2c0,0.3,0.1,0.5,0.2,0.7s0.3,0.2,0.7,0.2c0.2,0,0.5,0,0.7-0.1v1.7
						c-0.4,0.1-0.9,0.2-1.4,0.2c-1.6,0-2.4-0.8-2.4-2.4v-4.6h-1.2V155h1.2V153H-5545.5z"/>
					<path class="st4" d="M-5540.1,153v2.1h1.4v1.7h-1.4v4.2c0,0.3,0.1,0.5,0.2,0.7s0.3,0.2,0.7,0.2c0.2,0,0.5,0,0.7-0.1v1.7
						c-0.4,0.1-0.9,0.2-1.4,0.2c-1.6,0-2.4-0.8-2.4-2.4v-4.6h-1.2V155h1.2V153H-5540.1z"/>
					<path class="st4" d="M-5533.5,163.7c-1.2,0-2.2-0.4-3-1.1s-1.2-1.8-1.2-3v-0.2c0-0.8,0.2-1.6,0.5-2.3s0.8-1.2,1.4-1.5
						s1.3-0.5,2.1-0.5c1.2,0,2.1,0.4,2.7,1.1s1,1.8,1,3.1v0.9h-5.4c0.1,0.6,0.3,1,0.7,1.3s0.8,0.5,1.4,0.5c0.9,0,1.5-0.3,2-0.9
						l1.1,1.2c-0.3,0.5-0.8,0.9-1.4,1.1S-5532.8,163.7-5533.5,163.7z M-5533.8,156.7c-0.4,0-0.8,0.2-1.1,0.5s-0.5,0.7-0.5,1.3h3.1
						v-0.2c0-0.5-0.1-0.9-0.4-1.2S-5533.3,156.7-5533.8,156.7z"/>
					<path class="st4" d="M-5526.7,155l0.1,1c0.6-0.8,1.4-1.1,2.4-1.1c0.9,0,1.6,0.3,2,0.8s0.7,1.3,0.7,2.4v5.5h-2.3v-5.4
						c0-0.5-0.1-0.8-0.3-1s-0.6-0.3-1-0.3c-0.6,0-1.1,0.3-1.4,0.8v6h-2.3V155H-5526.7z"/>
				</g>
			</g>
			<g id="Grupo_102770" transform="translate(-6981.83 -11462.75)">
				<g id="Grupo_102766" transform="translate(1014.609 11629.839)">
					<g id="Grupo_91654" transform="translate(156.428)">
						<g id="Grupo_91653" transform="translate(0)">
							<g id="Grupo_91650" transform="translate(0 12.65)">
								<path id="Trazado_132055" class="st5" d="M24.3,14.3L0,0l0.1,20.2l24.3,14.3L24.3,14.3z"/>
							</g>
							<g id="Grupo_91651" transform="translate(0.002)">
								<path id="Trazado_132056" class="st5" d="M46,14.3L21.6,0L0,12.6l24.3,14.3L46,14.3z"/>
							</g>
							<g id="Grupo_91652" transform="translate(24.312 14.298)">
								<path id="Trazado_132057" class="st6" d="M0,12.6l0.1,20.2l21.6-12.7L21.6,0L0,12.6z"/>
							</g>
						</g>
					</g>
					<g id="Grupo_91649" transform="translate(78.381 45.871)">
						<g id="Grupo_91648" transform="translate(0)">
							<g id="Grupo_91645" transform="translate(0.001 12.65)">
								<path id="Trazado_132052" class="st5" d="M24.3,14.3L0,0l0.1,20.3l24.3,14.3L24.3,14.3z"/>
							</g>
							<g id="Grupo_91646" transform="translate(0)">
								<path id="Trazado_132053" class="st5" d="M102.6-19L78.3-33.3L0,12.7L24.3,27L102.6-19z"/>
							</g>
							<g id="Grupo_91647" transform="translate(24.309 14.298)">
								<path id="Trazado_132054" class="st6" d="M0,12.6l0.1,20.3l78.1-46v-20.2L0,12.6z"/>
							</g>
						</g>
					</g>
					<g id="Grupo_91644" transform="translate(0 91.295)">
						<g id="Grupo_91643">
							<g id="Grupo_91640" transform="translate(0 12.65)">
								<path id="Trazado_132049" class="st7" d="M24.3,14.3L0,0l0.1,20.3l24.3,14.3L24.3,14.3z"/>
							</g>
							<g id="Grupo_91641" transform="translate(0)">
								<path id="Trazado_132050" class="st5" d="M103.1-18.7L79.4-33L0,12.7L24.3,27L103.1-18.7z"/>
							</g>
							<g id="Grupo_91642" transform="translate(24.309 14.298)">
								<path id="Trazado_132051" class="st6" d="M0,12.7l0.1,20.2l78.8-45.6l-0.4-20.1L0,12.7z"/>
							</g>
						</g>
					</g>
				</g>
				<g id="Grupo_102773" transform="translate(1107.609 11682.839)">
					<g id="Grupo_91654-2" transform="translate(156.428)">
						<g id="Grupo_91653-2" transform="translate(0)">
							<g id="Grupo_91650-2" transform="translate(0 12.65)">
								<path id="Trazado_132055-2" class="st5" d="M24.3,14.3L0,0l0.1,20.2l24.3,14.3L24.3,14.3z"/>
							</g>
							<g id="Grupo_91651-2" transform="translate(0.002)">
								<path id="Trazado_132056-2" class="st5" d="M46,14.3L21.6,0L0,12.6l24.3,14.3L46,14.3z"/>
							</g>
							<g id="Grupo_91652-2" transform="translate(24.312 14.298)">
								<path id="Trazado_132057-2" class="st6" d="M0,12.6l0.1,20.2l21.6-12.7L21.6,0L0,12.6z"/>
							</g>
						</g>
					</g>
					<g id="Grupo_91649-2" transform="translate(78.381 45.871)">
						<g id="Grupo_91648-2" transform="translate(0)">
							<g id="Grupo_91645-2" transform="translate(0.001 12.65)">
								<path id="Trazado_132052-2" class="st5" d="M24.3,14.3L0,0l0.1,20.3l24.3,14.3L24.3,14.3z"/>
							</g>
							<g id="Grupo_91646-2" transform="translate(0)">
								<path id="Trazado_132053-2" class="st5" d="M102.6-19L78.3-33.3L0,12.7L24.3,27L102.6-19z"/>
							</g>
							<g id="Grupo_91647-2" transform="translate(24.309 14.298)">
								<path id="Trazado_132054-2" class="st6" d="M0,12.6l0.1,20.3l78.1-46v-20.2L0,12.6z"/>
							</g>
						</g>
					</g>
					<g id="Grupo_91644-2" transform="translate(0 91.295)">
						<g id="Grupo_91643-2">
							<g id="Grupo_91640-2" transform="translate(0 12.65)">
								<path id="Trazado_132049-2" class="st7" d="M24.3,14.3L0,0l0.1,20.3l24.3,14.3L24.3,14.3z"/>
							</g>
							<g id="Grupo_91641-2" transform="translate(0)">
								<path id="Trazado_132050-2" class="st5" d="M103.1-18.7L79.4-33L0,12.7L24.3,27L103.1-18.7z"/>
							</g>
							<g id="Grupo_91642-2" transform="translate(24.309 14.298)">
								<path id="Trazado_132051-2" class="st6" d="M0,12.7l0.1,20.2l78.8-45.6l-0.4-20.1L0,12.7z"/>
							</g>
						</g>
					</g>
				</g>
				<g id="Grupo_102772" transform="translate(913.386 11571.839)">
					<g id="Grupo_91654-3" transform="translate(156.428)">
						<g id="Grupo_91653-3" transform="translate(0)">
							<g id="Grupo_91650-3" transform="translate(0 12.65)">
								<path id="Trazado_132055-3" class="st5" d="M24.3,14.3L0,0l0.1,20.2l24.3,14.3L24.3,14.3z"/>
							</g>
							<g id="Grupo_91651-3" transform="translate(0.002)">
								<path id="Trazado_132056-3" class="st5" d="M46,14.3L21.6,0L0,12.6l24.3,14.3L46,14.3z"/>
							</g>
							<g id="Grupo_91652-3" transform="translate(24.312 14.298)">
								<path id="Trazado_132057-3" class="st6" d="M0,12.6l0.1,20.2l21.6-12.7L21.6,0L0,12.6z"/>
							</g>
						</g>
					</g>
					<g id="Grupo_91649-3" transform="translate(78.381 45.871)">
						<g id="Grupo_91648-3" transform="translate(0)">
							<g id="Grupo_91645-3" transform="translate(0.001 12.65)">
								<path id="Trazado_132052-3" class="st5" d="M24.3,14.3L0,0l0.1,20.3l24.3,14.3L24.3,14.3z"/>
							</g>
							<g id="Grupo_91646-3" transform="translate(0)">
								<path id="Trazado_132053-3" class="st5" d="M102.6-19L78.3-33.3L0,12.7L24.3,27L102.6-19z"/>
							</g>
							<g id="Grupo_91647-3" transform="translate(24.309 14.298)">
								<path id="Trazado_132054-3" class="st6" d="M0,12.6l0.1,20.3l78.1-46v-20.2L0,12.6z"/>
							</g>
						</g>
					</g>
					<g id="Grupo_91644-3" transform="translate(0 91.295)">
						<g id="Grupo_91643-3">
							<g id="Grupo_91640-3" transform="translate(0 12.65)">
								<path id="Trazado_132049-3" class="st7" d="M24.3,14.3L0,0l0.1,20.3l24.3,14.3L24.3,14.3z"/>
							</g>
							<g id="Grupo_91641-3" transform="translate(0)">
								<path id="Trazado_132050-3" class="st5" d="M103.1-18.7L79.4-33L0,12.7L24.3,27L103.1-18.7z"/>
							</g>
							<g id="Grupo_91642-3" transform="translate(24.309 14.298)">
								<path id="Trazado_132051-3" class="st6" d="M0,12.7l0.1,20.2l78.8-45.6l-0.4-20.1L0,12.7z"/>
							</g>
						</g>
					</g>
				</g>
				<g id="Grupo_102764" transform="translate(907.66 11560.058)">
					<g id="Grupo_91659" transform="translate(156.226)">
						<g id="Grupo_91656" transform="translate(0.001 15.397)">
							<path id="Trazado_132058" class="st8" d="M233.7,137.5L0,0l0,7.2l233.7,137.5L233.7,137.5z"/>
						</g>
						<g id="Grupo_91657" transform="translate(0)">
							<path id="Trazado_132059" class="st9" d="M260.1,137.5L26.3,0L0,15.4l233.7,137.5L260.1,137.5z"/>
						</g>
						<g id="Grupo_91658" transform="translate(233.744 137.481)">
							<path id="Trazado_132060" class="st8" d="M0,15.4l0,7.2L26.4,7.2l0-7.2L0,15.4z"/>
						</g>
					</g>
					<g id="Grupo_91663" transform="translate(117.163 22.821)">
						<g id="Grupo_91660" transform="translate(0 15.402)">
							<path id="Trazado_132061" class="st8" d="M233.7,137.5L0,0l0,7.2l233.7,137.5L233.7,137.5z"/>
						</g>
						<g id="Grupo_91661" transform="translate(0)">
							<path id="Trazado_132062" class="st9" d="M260.1,137.5L26.4,0L0,15.4l233.7,137.5L260.1,137.5z"/>
						</g>
						<g id="Grupo_91662" transform="translate(233.744 137.481)">
							<path id="Trazado_132063" class="st8" d="M0,15.4l0,7.2L26.4,7.3l0-7.3L0,15.4z"/>
						</g>
					</g>
					<g id="Grupo_91667" transform="translate(78.109 45.647)">
						<g id="Grupo_91664" transform="translate(0.001 15.397)">
							<path id="Trazado_132064" class="st8" d="M233.7,137.5L0,0l0,7.2l233.7,137.5L233.7,137.5z"/>
						</g>
						<g id="Grupo_91665" transform="translate(0)">
							<path id="Trazado_132065" class="st9" d="M260.1,137.5L26.3,0L0,15.4l233.7,137.5L260.1,137.5z"/>
						</g>
						<g id="Grupo_91666" transform="translate(233.746 137.481)">
							<path id="Trazado_132066" class="st8" d="M0,15.4l0,7.2L26.4,7.2l0-7.2L0,15.4z"/>
						</g>
					</g>
					<g id="Grupo_91671" transform="translate(39.054 68.468)">
						<g id="Grupo_91668" transform="translate(0 15.397)">
							<path id="Trazado_132067" class="st8" d="M233.7,137.5L0,0l0,7.2l233.7,137.5L233.7,137.5z"/>
						</g>
						<g id="Grupo_91669" transform="translate(0)">
							<path id="Trazado_132068" class="st9" d="M260.1,137.5L26.3,0L0,15.4l233.7,137.5L260.1,137.5z"/>
						</g>
						<g id="Grupo_91670" transform="translate(233.744 137.481)">
							<path id="Trazado_132069" class="st8" d="M0,15.4l0,7.2L26.4,7.2l0-7.2L0,15.4z"/>
						</g>
					</g>
					<g id="Grupo_91675" transform="translate(0 91.289)">
						<g id="Grupo_91672" transform="translate(0.001 15.397)">
							<path id="Trazado_132070" class="st8" d="M233.7,137.5L0,0l0,7.2l233.7,137.5L233.7,137.5z"/>
						</g>
						<g id="Grupo_91673">
							<path id="Trazado_132071" class="st9" d="M260.1,137.5L26.3,0L0,15.4l233.7,137.5L260.1,137.5z"/>
						</g>
						<g id="Grupo_91674" transform="translate(233.746 137.481)">
							<path id="Trazado_132072" class="st8" d="M0,15.4l0,7.2L26.4,7.2l0-7.3L0,15.4z"/>
						</g>
					</g>
				</g>
			</g>
		</g>
	</g>
</g>
</svg>
