<svg xmlns="http://www.w3.org/2000/svg" width="108" height="108" viewBox="0 0 108 108">
  <g id="Grupo_146948" data-name="Grupo 146948" transform="translate(-474 -12051)">
    <circle id="Elipse_5040" data-name="Elipse 5040" cx="54" cy="54" r="54" transform="translate(474 12051)" fill="#36a3f7"/>
    <g id="Grupo_146941" data-name="Grupo 146941" transform="translate(486 12076)">
      <g id="Grupo_102765" data-name="Grupo 102765" transform="translate(0 6.076)">
        <g id="Grupo_91598" data-name="Grupo 91598" transform="translate(31.676)" style="isolation: isolate">
          <g id="Grupo_91595" data-name="Grupo 91595" transform="translate(0 3.122)">
            <path id="Trazado_132022" data-name="Trazado 132022" d="M646.879,544.634l-47.393-27.875,0,1.47L646.883,546.1Z" transform="translate(-599.485 -516.759)" fill="#c69b67"/>
          </g>
          <g id="Grupo_91596" data-name="Grupo 91596" transform="translate(0)">
            <path id="Trazado_132023" data-name="Trazado 132023" d="M633.423,533.642,586.03,505.766l-5.343,3.122,47.393,27.875Z" transform="translate(-580.687 -505.766)" fill="#5e4a31"/>
          </g>
          <g id="Grupo_91597" data-name="Grupo 91597" transform="translate(47.393 27.875)">
            <path id="Trazado_132024" data-name="Trazado 132024" d="M580.673,607.045l0,1.47,5.343-3.122,0-1.47Z" transform="translate(-580.673 -603.923)" fill="#c69b67"/>
          </g>
        </g>
        <g id="Grupo_91602" data-name="Grupo 91602" transform="translate(15.837 9.255)" style="isolation: isolate">
          <g id="Grupo_91599" data-name="Grupo 91599" transform="translate(0 3.122)">
            <path id="Trazado_132025" data-name="Trazado 132025" d="M702.652,577.225l-47.393-27.875,0,1.47,47.393,27.876Z" transform="translate(-655.259 -549.349)" fill="#c69b67"/>
          </g>
          <g id="Grupo_91600" data-name="Grupo 91600" transform="translate(0)">
            <path id="Trazado_132026" data-name="Trazado 132026" d="M689.2,566.232,641.8,538.356l-5.343,3.122,47.393,27.875Z" transform="translate(-636.461 -538.356)" fill="#5e4a31"/>
          </g>
          <g id="Grupo_91601" data-name="Grupo 91601" transform="translate(47.394 27.875)">
            <path id="Trazado_132027" data-name="Trazado 132027" d="M636.446,639.635l0,1.47,5.343-3.122,0-1.47Z" transform="translate(-636.446 -636.513)" fill="#c69b67"/>
          </g>
        </g>
        <g id="Grupo_91606" data-name="Grupo 91606" transform="translate(0 18.509)" style="isolation: isolate">
          <g id="Grupo_91603" data-name="Grupo 91603" transform="translate(0 3.122)">
            <path id="Trazado_132028" data-name="Trazado 132028" d="M758.419,609.811l-47.393-27.876,0,1.47,47.393,27.875Z" transform="translate(-711.026 -581.936)" fill="#876a40"/>
          </g>
          <g id="Grupo_91604" data-name="Grupo 91604">
            <path id="Trazado_132029" data-name="Trazado 132029" d="M744.963,598.818,697.57,570.943l-5.343,3.122,47.393,27.875Z" transform="translate(-692.228 -570.943)" fill="#5e4a31"/>
          </g>
          <g id="Grupo_91605" data-name="Grupo 91605" transform="translate(47.394 27.875)">
            <path id="Trazado_132030" data-name="Trazado 132030" d="M692.213,672.222l0,1.47,5.343-3.122,0-1.47Z" transform="translate(-692.213 -669.1)" fill="#c69b67"/>
          </g>
        </g>
      </g>
      <g id="Grupo_102767" data-name="Grupo 102767" transform="translate(42.362 26.399)">
        <g id="Grupo_91612" data-name="Grupo 91612" transform="translate(0 18.511)">
          <g id="Grupo_91611" data-name="Grupo 91611" transform="translate(0)" style="isolation: isolate">
            <g id="Grupo_91608" data-name="Grupo 91608" transform="translate(0 2.564)">
              <path id="Trazado_132031" data-name="Trazado 132031" d="M716.288,654.44l-4.929-2.9.012,4.106,4.929,2.9Z" transform="translate(-711.359 -651.541)" fill="#876a40"/>
            </g>
            <g id="Grupo_91609" data-name="Grupo 91609">
              <path id="Trazado_132032" data-name="Trazado 132032" d="M705.265,645.412l-4.929-2.9-4.388,2.564,4.929,2.9Z" transform="translate(-695.948 -642.513)" fill="#5e4a31"/>
            </g>
            <g id="Grupo_91610" data-name="Grupo 91610" transform="translate(4.929 2.899)">
              <path id="Trazado_132033" data-name="Trazado 132033" d="M695.908,655.285l.012,4.106,4.388-2.564-.011-4.106Z" transform="translate(-695.908 -652.721)" fill="#c69b67"/>
            </g>
          </g>
        </g>
        <g id="Grupo_91617" data-name="Grupo 91617" transform="translate(15.892 9.301)">
          <g id="Grupo_91616" data-name="Grupo 91616" transform="translate(0)" style="isolation: isolate">
            <g id="Grupo_91613" data-name="Grupo 91613" transform="translate(0 2.564)">
              <path id="Trazado_132034" data-name="Trazado 132034" d="M660.326,622.01l-4.929-2.9.012,4.106,4.929,2.9Z" transform="translate(-655.397 -619.11)" fill="#876a40"/>
            </g>
            <g id="Grupo_91614" data-name="Grupo 91614">
              <path id="Trazado_132035" data-name="Trazado 132035" d="M649.3,612.982l-4.929-2.9-4.388,2.564,4.929,2.9Z" transform="translate(-639.986 -610.083)" fill="#5e4a31"/>
            </g>
            <g id="Grupo_91615" data-name="Grupo 91615" transform="translate(4.929 2.899)">
              <path id="Trazado_132036" data-name="Trazado 132036" d="M639.946,622.855l.012,4.106,4.388-2.564-.012-4.106Z" transform="translate(-639.946 -620.291)" fill="#c69b67"/>
            </g>
          </g>
        </g>
        <g id="Grupo_91622" data-name="Grupo 91622" transform="translate(31.717)">
          <g id="Grupo_91621" data-name="Grupo 91621" transform="translate(0)" style="isolation: isolate">
            <g id="Grupo_91618" data-name="Grupo 91618" transform="translate(0 2.564)">
              <path id="Trazado_132037" data-name="Trazado 132037" d="M604.6,589.259l-4.929-2.9.012,4.1,4.929,2.9Z" transform="translate(-599.673 -586.36)" fill="#876a40"/>
            </g>
            <g id="Grupo_91619" data-name="Grupo 91619">
              <path id="Trazado_132038" data-name="Trazado 132038" d="M593.58,580.231l-4.929-2.9-4.388,2.564,4.929,2.9Z" transform="translate(-584.263 -577.332)" fill="#5e4a31"/>
            </g>
            <g id="Grupo_91620" data-name="Grupo 91620" transform="translate(4.929 2.899)">
              <path id="Trazado_132039" data-name="Trazado 132039" d="M584.223,590.1l.011,4.1,4.388-2.564-.011-4.1Z" transform="translate(-584.223 -587.54)" fill="#c69b67"/>
            </g>
          </g>
        </g>
      </g>
      <g id="Grupo_102766" data-name="Grupo 102766" transform="translate(21.685 14.149)">
        <g id="Grupo_91654" data-name="Grupo 91654" transform="translate(31.717)">
          <g id="Grupo_91653" data-name="Grupo 91653" transform="translate(0)" style="isolation: isolate">
            <g id="Grupo_91650" data-name="Grupo 91650" transform="translate(0 2.565)">
              <path id="Trazado_132055" data-name="Trazado 132055" d="M677.416,546.124l-4.929-2.9.011,4.1,4.929,2.9Z" transform="translate(-672.487 -543.224)" fill="#876a40"/>
            </g>
            <g id="Grupo_91651" data-name="Grupo 91651" transform="translate(0)">
              <path id="Trazado_132056" data-name="Trazado 132056" d="M666.389,537.092l-4.929-2.9-4.389,2.565,4.929,2.9Z" transform="translate(-657.071 -534.193)" fill="#5e4a31"/>
            </g>
            <g id="Grupo_91652" data-name="Grupo 91652" transform="translate(4.929 2.899)">
              <path id="Trazado_132057" data-name="Trazado 132057" d="M657.03,546.966l.011,4.1,4.389-2.565-.011-4.1Z" transform="translate(-657.03 -544.401)" fill="#c69b67"/>
            </g>
          </g>
        </g>
        <g id="Grupo_91649" data-name="Grupo 91649" transform="translate(15.892 2.545)">
          <g id="Grupo_91648" data-name="Grupo 91648" transform="translate(0)" style="isolation: isolate">
            <g id="Grupo_91645" data-name="Grupo 91645" transform="translate(0 9.32)">
              <path id="Trazado_132052" data-name="Trazado 132052" d="M733.139,578.874l-4.929-2.9.011,4.106,4.929,2.9Z" transform="translate(-728.21 -575.975)" fill="#876a40"/>
            </g>
            <g id="Grupo_91646" data-name="Grupo 91646" transform="translate(0)">
              <path id="Trazado_132053" data-name="Trazado 132053" d="M733.6,536.535l-4.925-2.91-15.884,9.321,4.929,2.9Z" transform="translate(-712.794 -533.626)" fill="#5e4a31"/>
            </g>
            <g id="Grupo_91647" data-name="Grupo 91647" transform="translate(4.929 2.913)">
              <path id="Trazado_132054" data-name="Trazado 132054" d="M712.754,553.208l.012,4.106,15.839-9.319V543.9Z" transform="translate(-712.754 -543.901)" fill="#c69b67"/>
            </g>
          </g>
        </g>
        <g id="Grupo_91644" data-name="Grupo 91644" transform="translate(0 11.814)">
          <g id="Grupo_91643" data-name="Grupo 91643" transform="translate(0 0)" style="isolation: isolate">
            <g id="Grupo_91640" data-name="Grupo 91640" transform="translate(0 9.261)">
              <path id="Trazado_132049" data-name="Trazado 132049" d="M789.1,611.3l-4.928-2.9.011,4.106,4.929,2.9Z" transform="translate(-784.172 -608.406)" fill="#876a40"/>
            </g>
            <g id="Grupo_91641" data-name="Grupo 91641" transform="translate(0)">
              <path id="Trazado_132050" data-name="Trazado 132050" d="M789.662,569.254l-4.811-2.906-16.1,9.261,4.929,2.9Z" transform="translate(-768.756 -566.348)" fill="#5e4a31"/>
            </g>
            <g id="Grupo_91642" data-name="Grupo 91642" transform="translate(4.929 2.961)">
              <path id="Trazado_132051" data-name="Trazado 132051" d="M768.716,586.061l.011,4.106L784.7,580.93l-.079-4.068Z" transform="translate(-768.716 -576.862)" fill="#c69b67"/>
            </g>
          </g>
        </g>
      </g>
      <g id="Grupo_102763" data-name="Grupo 102763" transform="translate(2.22 2.591)">
        <g id="Grupo_91654-2" data-name="Grupo 91654" transform="translate(31.717)">
          <g id="Grupo_91653-2" data-name="Grupo 91653" transform="translate(0)" style="isolation: isolate">
            <g id="Grupo_91650-2" data-name="Grupo 91650" transform="translate(0 2.565)">
              <path id="Trazado_132055-2" data-name="Trazado 132055" d="M677.416,546.124l-4.929-2.9.011,4.1,4.929,2.9Z" transform="translate(-672.487 -543.224)" fill="#876a40"/>
            </g>
            <g id="Grupo_91651-2" data-name="Grupo 91651" transform="translate(0)">
              <path id="Trazado_132056-2" data-name="Trazado 132056" d="M666.389,537.092l-4.929-2.9-4.389,2.565,4.929,2.9Z" transform="translate(-657.071 -534.193)" fill="#5e4a31"/>
            </g>
            <g id="Grupo_91652-2" data-name="Grupo 91652" transform="translate(4.929 2.899)">
              <path id="Trazado_132057-2" data-name="Trazado 132057" d="M657.03,546.966l.011,4.1,4.389-2.565-.011-4.1Z" transform="translate(-657.03 -544.401)" fill="#c69b67"/>
            </g>
          </g>
        </g>
        <g id="Grupo_91649-2" data-name="Grupo 91649" transform="translate(15.892 2.545)">
          <g id="Grupo_91648-2" data-name="Grupo 91648" transform="translate(0)" style="isolation: isolate">
            <g id="Grupo_91645-2" data-name="Grupo 91645" transform="translate(0 9.32)">
              <path id="Trazado_132052-2" data-name="Trazado 132052" d="M733.139,578.874l-4.929-2.9.011,4.106,4.929,2.9Z" transform="translate(-728.21 -575.975)" fill="#876a40"/>
            </g>
            <g id="Grupo_91646-2" data-name="Grupo 91646" transform="translate(0)">
              <path id="Trazado_132053-2" data-name="Trazado 132053" d="M733.6,536.535l-4.925-2.91-15.884,9.321,4.929,2.9Z" transform="translate(-712.794 -533.626)" fill="#5e4a31"/>
            </g>
            <g id="Grupo_91647-2" data-name="Grupo 91647" transform="translate(4.929 2.913)">
              <path id="Trazado_132054-2" data-name="Trazado 132054" d="M712.754,553.208l.012,4.106,15.839-9.319V543.9Z" transform="translate(-712.754 -543.901)" fill="#c69b67"/>
            </g>
          </g>
        </g>
        <g id="Grupo_91644-2" data-name="Grupo 91644" transform="translate(0 11.814)">
          <g id="Grupo_91643-2" data-name="Grupo 91643" transform="translate(0 0)" style="isolation: isolate">
            <g id="Grupo_91640-2" data-name="Grupo 91640" transform="translate(0 9.261)">
              <path id="Trazado_132049-2" data-name="Trazado 132049" d="M789.1,611.3l-4.928-2.9.011,4.106,4.929,2.9Z" transform="translate(-784.172 -608.406)" fill="#876a40"/>
            </g>
            <g id="Grupo_91641-2" data-name="Grupo 91641" transform="translate(0)">
              <path id="Trazado_132050-2" data-name="Trazado 132050" d="M789.662,569.254l-4.811-2.906-16.1,9.261,4.929,2.9Z" transform="translate(-768.756 -566.348)" fill="#5e4a31"/>
            </g>
            <g id="Grupo_91642-2" data-name="Grupo 91642" transform="translate(4.929 2.961)">
              <path id="Trazado_132051-2" data-name="Trazado 132051" d="M768.716,586.061l.011,4.106L784.7,580.93l-.079-4.068Z" transform="translate(-768.716 -576.862)" fill="#c69b67"/>
            </g>
          </g>
        </g>
      </g>
      <g id="Grupo_102764" data-name="Grupo 102764">
        <g id="Grupo_91659" data-name="Grupo 91659" transform="translate(31.676)" style="isolation: isolate">
          <g id="Grupo_91656" data-name="Grupo 91656" transform="translate(0 3.122)">
            <path id="Trazado_132058" data-name="Trazado 132058" d="M646.879,523.24l-47.393-27.875,0,1.47,47.393,27.875Z" transform="translate(-599.485 -495.365)" fill="#876a40"/>
          </g>
          <g id="Grupo_91657" data-name="Grupo 91657" transform="translate(0)">
            <path id="Trazado_132059" data-name="Trazado 132059" d="M633.423,512.247,586.03,484.372l-5.343,3.122,47.393,27.875Z" transform="translate(-580.687 -484.372)" fill="#fbe2b8"/>
          </g>
          <g id="Grupo_91658" data-name="Grupo 91658" transform="translate(47.393 27.875)">
            <path id="Trazado_132060" data-name="Trazado 132060" d="M580.673,585.651l0,1.47L586.02,584l0-1.47Z" transform="translate(-580.673 -582.529)" fill="#c69b67"/>
          </g>
        </g>
        <g id="Grupo_91663" data-name="Grupo 91663" transform="translate(23.756 4.627)" style="isolation: isolate">
          <g id="Grupo_91660" data-name="Grupo 91660" transform="translate(0 3.123)">
            <path id="Trazado_132061" data-name="Trazado 132061" d="M674.769,539.537l-47.393-27.875,0,1.47,47.393,27.875Z" transform="translate(-627.375 -511.662)" fill="#876a40"/>
          </g>
          <g id="Grupo_91661" data-name="Grupo 91661" transform="translate(0)">
            <path id="Trazado_132062" data-name="Trazado 132062" d="M661.309,528.541l-47.393-27.875-5.344,3.123,47.393,27.875Z" transform="translate(-608.571 -500.665)" fill="#fbe2b8"/>
          </g>
          <g id="Grupo_91662" data-name="Grupo 91662" transform="translate(47.393 27.875)">
            <path id="Trazado_132063" data-name="Trazado 132063" d="M608.556,601.945l0,1.47,5.344-3.122,0-1.47Z" transform="translate(-608.556 -598.822)" fill="#c69b67"/>
          </g>
        </g>
        <g id="Grupo_91667" data-name="Grupo 91667" transform="translate(15.837 9.255)" style="isolation: isolate">
          <g id="Grupo_91664" data-name="Grupo 91664" transform="translate(0 3.122)">
            <path id="Trazado_132064" data-name="Trazado 132064" d="M702.652,555.83l-47.393-27.875,0,1.47L702.656,557.3Z" transform="translate(-655.259 -527.955)" fill="#876a40"/>
          </g>
          <g id="Grupo_91665" data-name="Grupo 91665" transform="translate(0)">
            <path id="Trazado_132065" data-name="Trazado 132065" d="M689.2,544.837,641.8,516.962l-5.343,3.122,47.393,27.876Z" transform="translate(-636.461 -516.962)" fill="#fbe2b8"/>
          </g>
          <g id="Grupo_91666" data-name="Grupo 91666" transform="translate(47.394 27.875)">
            <path id="Trazado_132066" data-name="Trazado 132066" d="M636.446,618.241l0,1.47,5.343-3.122,0-1.47Z" transform="translate(-636.446 -615.119)" fill="#c69b67"/>
          </g>
        </g>
        <g id="Grupo_91671" data-name="Grupo 91671" transform="translate(7.919 13.882)" style="isolation: isolate">
          <g id="Grupo_91668" data-name="Grupo 91668" transform="translate(0 3.122)">
            <path id="Trazado_132067" data-name="Trazado 132067" d="M730.535,572.124l-47.393-27.875,0,1.47,47.393,27.875Z" transform="translate(-683.142 -544.249)" fill="#876a40"/>
          </g>
          <g id="Grupo_91669" data-name="Grupo 91669" transform="translate(0)">
            <path id="Trazado_132068" data-name="Trazado 132068" d="M717.08,561.13l-47.394-27.875-5.343,3.122,47.393,27.875Z" transform="translate(-664.344 -533.255)" fill="#fbe2b8"/>
          </g>
          <g id="Grupo_91670" data-name="Grupo 91670" transform="translate(47.393 27.875)">
            <path id="Trazado_132069" data-name="Trazado 132069" d="M664.329,634.535l0,1.47,5.343-3.122,0-1.47Z" transform="translate(-664.329 -631.413)" fill="#c69b67"/>
          </g>
        </g>
        <g id="Grupo_91675" data-name="Grupo 91675" transform="translate(0 18.509)" style="isolation: isolate">
          <g id="Grupo_91672" data-name="Grupo 91672" transform="translate(0 3.122)">
            <path id="Trazado_132070" data-name="Trazado 132070" d="M758.419,588.417l-47.393-27.875,0,1.47,47.393,27.875Z" transform="translate(-711.026 -560.542)" fill="#876a40"/>
          </g>
          <g id="Grupo_91673" data-name="Grupo 91673">
            <path id="Trazado_132071" data-name="Trazado 132071" d="M744.963,577.424,697.57,549.549l-5.343,3.122,47.393,27.875Z" transform="translate(-692.228 -549.549)" fill="#fbe2b8"/>
          </g>
          <g id="Grupo_91674" data-name="Grupo 91674" transform="translate(47.394 27.875)">
            <path id="Trazado_132072" data-name="Trazado 132072" d="M692.213,650.828l0,1.47,5.343-3.122,0-1.47Z" transform="translate(-692.213 -647.706)" fill="#c69b67"/>
          </g>
        </g>
      </g>
    </g>
  </g>
</svg>
