<?xml version="1.0" encoding="utf-8"?>
<!-- Generator: Adobe Illustrator 25.4.1, SVG Export Plug-In . SVG Version: 6.00 Build 0)  -->
<svg version="1.1" id="Capa_1" xmlns="http://www.w3.org/2000/svg" xmlns:xlink="http://www.w3.org/1999/xlink" x="0px" y="0px"
	 viewBox="0 0 715 452" style="enable-background:new 0 0 715 452;" xml:space="preserve">
<style type="text/css">
	.st0{fill:none;}
	.st1{fill:#C69B67;}
	.st2{fill:#5E4A31;}
	.st3{fill:#876A40;}
	.st4{fill:#FBE2B8;}
	.st5{fill:none;stroke:#451991;stroke-width:2;}
	.st6{fill:none;stroke:#707070;stroke-dasharray:5;}
	.st7{enable-background:new    ;}
	.st8{fill:#12263F;}
	.st9{fill:#451991;}
	.st10{fill:none;stroke:#451991;stroke-width:3;}
</style>
<rect id="Rectángulo_34549" y="1" class="st0" width="715" height="452"/>
<g id="Grupo_102786" transform="translate(305 -9.497)">
	<g id="Grupo_102785" transform="translate(723.015 357.293)">
		<g id="Grupo_102765" transform="translate(0 25.706)">
			<g id="Grupo_91598" transform="translate(134.016)">
				<g id="Grupo_91595" transform="translate(0.001 13.208)">
					<path id="Trazado_132022" class="st1" d="M-501.5-106.6L-702-224.5v6.2l200.5,117.9V-106.6z"/>
				</g>
				<g id="Grupo_91596" transform="translate(0)">
					<path id="Trazado_132023" class="st2" d="M-478.9-106.6l-200.5-117.9l-22.6,13.2l200.5,117.9L-478.9-106.6z"/>
				</g>
				<g id="Grupo_91597" transform="translate(200.514 117.936)">
					<path id="Trazado_132024" class="st1" d="M-702-211.3v6.2l22.6-13.2v-6.2L-702-211.3z"/>
				</g>
			</g>
			<g id="Grupo_91602" transform="translate(67.005 39.157)">
				<g id="Grupo_91599" transform="translate(0.001 13.208)">
					<path id="Trazado_132025" class="st1" d="M-501.5-106.6L-702-224.5v6.2l200.5,117.9V-106.6z"/>
				</g>
				<g id="Grupo_91600" transform="translate(0)">
					<path id="Trazado_132026" class="st2" d="M-478.9-106.6l-200.5-117.9l-22.6,13.2l200.5,117.9L-478.9-106.6z"/>
				</g>
				<g id="Grupo_91601" transform="translate(200.515 117.936)">
					<path id="Trazado_132027" class="st1" d="M-702-211.3v6.2l22.6-13.2v-6.2L-702-211.3z"/>
				</g>
			</g>
			<g id="Grupo_91606" transform="translate(0 78.31)">
				<g id="Grupo_91603" transform="translate(0.001 13.208)">
					<path id="Trazado_132028" class="st3" d="M-501.5-106.6L-702-224.5v6.2l200.5,117.9V-106.6z"/>
				</g>
				<g id="Grupo_91604">
					<path id="Trazado_132029" class="st2" d="M-478.9-106.6l-200.5-117.9l-22.6,13.2l200.5,117.9L-478.9-106.6z"/>
				</g>
				<g id="Grupo_91605" transform="translate(200.515 117.936)">
					<path id="Trazado_132030" class="st1" d="M-702-211.3v6.2l22.6-13.2v-6.2L-702-211.3z"/>
				</g>
			</g>
		</g>
		<g id="Grupo_102767" transform="translate(179.228 111.692)">
			<g id="Grupo_91612" transform="translate(0 78.315)">
				<g id="Grupo_91611" transform="translate(0)">
					<g id="Grupo_91608" transform="translate(0 10.848)">
						<path id="Trazado_132031" class="st3" d="M-681.1-212.2l-20.9-12.3v17.4l20.9,12.3V-212.2z"/>
					</g>
					<g id="Grupo_91609">
						<path id="Trazado_132032" class="st2" d="M-662.6-212.2l-20.9-12.3l-18.6,10.8l20.9,12.3L-662.6-212.2z"/>
					</g>
					<g id="Grupo_91610" transform="translate(20.854 12.265)">
						<path id="Trazado_132033" class="st1" d="M-702-213.7v17.4l18.6-10.8v-17.4L-702-213.7z"/>
					</g>
				</g>
			</g>
			<g id="Grupo_91617" transform="translate(67.239 39.35)">
				<g id="Grupo_91616" transform="translate(0)">
					<g id="Grupo_91613" transform="translate(0.001 10.848)">
						<path id="Trazado_132034" class="st3" d="M-681.1-212.2l-20.9-12.3v17.4l20.9,12.3V-212.2z"/>
					</g>
					<g id="Grupo_91614">
						<path id="Trazado_132035" class="st2" d="M-662.6-212.2l-20.9-12.3l-18.6,10.8l20.9,12.3L-662.6-212.2z"/>
					</g>
					<g id="Grupo_91615" transform="translate(20.853 12.265)">
						<path id="Trazado_132036" class="st1" d="M-702-213.7v17.4l18.6-10.8v-17.4L-702-213.7z"/>
					</g>
				</g>
			</g>
			<g id="Grupo_91622" transform="translate(134.192)">
				<g id="Grupo_91621" transform="translate(0)">
					<g id="Grupo_91618" transform="translate(0.001 10.848)">
						<path id="Trazado_132037" class="st3" d="M-681.1-212.2l-20.9-12.3v17.4l20.9,12.3V-212.2z"/>
					</g>
					<g id="Grupo_91619">
						<path id="Trazado_132038" class="st2" d="M-662.6-212.2l-20.9-12.3l-18.6,10.8l20.9,12.3L-662.6-212.2z"/>
					</g>
					<g id="Grupo_91620" transform="translate(20.854 12.265)">
						<path id="Trazado_132039" class="st1" d="M-702-213.7v17.4l18.6-10.8v-17.4L-702-213.7z"/>
					</g>
				</g>
			</g>
		</g>
		<g id="Grupo_102766" transform="translate(91.745 59.861)">
			<g id="Grupo_91654" transform="translate(134.189)">
				<g id="Grupo_91653" transform="translate(0)">
					<g id="Grupo_91650" transform="translate(0 10.852)">
						<path id="Trazado_132055" class="st3" d="M-681.1-212.2l-20.9-12.3v17.4l20.9,12.3V-212.2z"/>
					</g>
					<g id="Grupo_91651" transform="translate(0.002)">
						<path id="Trazado_132056" class="st2" d="M-662.6-212.2l-20.9-12.3l-18.6,10.9l20.9,12.3L-662.6-212.2z"/>
					</g>
					<g id="Grupo_91652" transform="translate(20.856 12.265)">
						<path id="Trazado_132057" class="st1" d="M-702-213.6v17.4l18.6-10.9v-17.4L-702-213.6z"/>
					</g>
				</g>
			</g>
			<g id="Grupo_91649" transform="translate(67.238 10.769)">
				<g id="Grupo_91648" transform="translate(0)">
					<g id="Grupo_91645" transform="translate(0.001 39.433)">
						<path id="Trazado_132052" class="st3" d="M-681.1-212.2l-20.9-12.3v17.4l20.9,12.3V-212.2z"/>
					</g>
					<g id="Grupo_91646" transform="translate(0)">
						<path id="Trazado_132053" class="st2" d="M-614-212.2l-20.8-12.3l-67.2,39.4l20.9,12.3L-614-212.2z"/>
					</g>
					<g id="Grupo_91647" transform="translate(20.853 12.323)">
						<path id="Trazado_132054" class="st1" d="M-702-185.1v17.4l67-39.4v-17.3L-702-185.1z"/>
					</g>
				</g>
			</g>
			<g id="Grupo_91644" transform="translate(0 49.985)">
				<g id="Grupo_91643" transform="translate(0 0)">
					<g id="Grupo_91640" transform="translate(0 39.183)">
						<path id="Trazado_132049" class="st3" d="M-681.1-212.2l-20.9-12.3v17.4l20.9,12.3V-212.2z"/>
					</g>
					<g id="Grupo_91641" transform="translate(0)">
						<path id="Trazado_132050" class="st2" d="M-613.5-212.2l-20.4-12.3l-68.1,39.2l20.9,12.3L-613.5-212.2z"/>
					</g>
					<g id="Grupo_91642" transform="translate(20.853 12.528)">
						<path id="Trazado_132051" class="st1" d="M-702-185.6v17.4l67.6-39.1l-0.3-17.2L-702-185.6z"/>
					</g>
				</g>
			</g>
		</g>
		<g id="Grupo_102763" transform="translate(9.393 10.964)">
			<g id="Grupo_91654-2" transform="translate(134.189)">
				<g id="Grupo_91653-2" transform="translate(0)">
					<g id="Grupo_91650-2" transform="translate(0 10.852)">
						<path id="Trazado_132055-2" class="st3" d="M-681.1-212.2l-20.9-12.3v17.4l20.9,12.3V-212.2z"/>
					</g>
					<g id="Grupo_91651-2" transform="translate(0.002)">
						<path id="Trazado_132056-2" class="st2" d="M-662.6-212.2l-20.9-12.3l-18.6,10.9l20.9,12.3L-662.6-212.2z"/>
					</g>
					<g id="Grupo_91652-2" transform="translate(20.856 12.265)">
						<path id="Trazado_132057-2" class="st1" d="M-702-213.6v17.4l18.6-10.9v-17.4L-702-213.6z"/>
					</g>
				</g>
			</g>
			<g id="Grupo_91649-2" transform="translate(67.238 10.769)">
				<g id="Grupo_91648-2" transform="translate(0)">
					<g id="Grupo_91645-2" transform="translate(0.001 39.433)">
						<path id="Trazado_132052-2" class="st3" d="M-681.1-212.2l-20.9-12.3v17.4l20.9,12.3V-212.2z"/>
					</g>
					<g id="Grupo_91646-2" transform="translate(0)">
						<path id="Trazado_132053-2" class="st2" d="M-614-212.2l-20.8-12.3l-67.2,39.4l20.9,12.3L-614-212.2z"/>
					</g>
					<g id="Grupo_91647-2" transform="translate(20.853 12.323)">
						<path id="Trazado_132054-2" class="st1" d="M-702-185.1v17.4l67-39.4v-17.3L-702-185.1z"/>
					</g>
				</g>
			</g>
			<g id="Grupo_91644-2" transform="translate(0 49.985)">
				<g id="Grupo_91643-2" transform="translate(0 0)">
					<g id="Grupo_91640-2" transform="translate(0 39.183)">
						<path id="Trazado_132049-2" class="st3" d="M-681.1-212.2l-20.9-12.3v17.4l20.9,12.3V-212.2z"/>
					</g>
					<g id="Grupo_91641-2" transform="translate(0)">
						<path id="Trazado_132050-2" class="st2" d="M-613.5-212.2l-20.4-12.3l-68.1,39.2l20.9,12.3L-613.5-212.2z"/>
					</g>
					<g id="Grupo_91642-2" transform="translate(20.853 12.528)">
						<path id="Trazado_132051-2" class="st1" d="M-702-185.6v17.4l67.6-39.1l-0.3-17.2L-702-185.6z"/>
					</g>
				</g>
			</g>
		</g>
		<g id="Grupo_102764">
			<g id="Grupo_91659" transform="translate(134.016)">
				<g id="Grupo_91656" transform="translate(0.001 13.208)">
					<path id="Trazado_132058" class="st3" d="M-501.5-106.6L-702-224.5v6.2l200.5,117.9V-106.6z"/>
				</g>
				<g id="Grupo_91657" transform="translate(0)">
					<path id="Trazado_132059" class="st4" d="M-478.9-106.6l-200.5-117.9l-22.6,13.2l200.5,117.9L-478.9-106.6z"/>
				</g>
				<g id="Grupo_91658" transform="translate(200.514 117.936)">
					<path id="Trazado_132060" class="st1" d="M-702-211.3v6.2l22.6-13.2v-6.2L-702-211.3z"/>
				</g>
			</g>
			<g id="Grupo_91663" transform="translate(100.507 19.577)">
				<g id="Grupo_91660" transform="translate(0 13.212)">
					<path id="Trazado_132061" class="st3" d="M-501.5-106.6L-702-224.5v6.2l200.5,117.9V-106.6z"/>
				</g>
				<g id="Grupo_91661" transform="translate(0)">
					<path id="Trazado_132062" class="st4" d="M-478.9-106.6l-200.5-117.9l-22.6,13.2l200.5,117.9L-478.9-106.6z"/>
				</g>
				<g id="Grupo_91662" transform="translate(200.514 117.936)">
					<path id="Trazado_132063" class="st1" d="M-702-211.3v6.2l22.6-13.2v-6.2L-702-211.3z"/>
				</g>
			</g>
			<g id="Grupo_91667" transform="translate(67.005 39.158)">
				<g id="Grupo_91664" transform="translate(0.001 13.208)">
					<path id="Trazado_132064" class="st3" d="M-501.5-106.6L-702-224.5v6.2l200.5,117.9V-106.6z"/>
				</g>
				<g id="Grupo_91665" transform="translate(0)">
					<path id="Trazado_132065" class="st4" d="M-478.9-106.6l-200.5-117.9l-22.6,13.2l200.5,117.9L-478.9-106.6z"/>
				</g>
				<g id="Grupo_91666" transform="translate(200.515 117.936)">
					<path id="Trazado_132066" class="st1" d="M-702-211.3v6.2l22.6-13.2v-6.2L-702-211.3z"/>
				</g>
			</g>
			<g id="Grupo_91671" transform="translate(33.502 58.734)">
				<g id="Grupo_91668" transform="translate(0 13.208)">
					<path id="Trazado_132067" class="st3" d="M-501.5-106.6L-702-224.5v6.2l200.5,117.9V-106.6z"/>
				</g>
				<g id="Grupo_91669" transform="translate(0)">
					<path id="Trazado_132068" class="st4" d="M-478.9-106.6l-200.5-117.9l-22.6,13.2l200.5,117.9L-478.9-106.6z"/>
				</g>
				<g id="Grupo_91670" transform="translate(200.514 117.936)">
					<path id="Trazado_132069" class="st1" d="M-702-211.3v6.2l22.6-13.2v-6.2L-702-211.3z"/>
				</g>
			</g>
			<g id="Grupo_91675" transform="translate(0 78.311)">
				<g id="Grupo_91672" transform="translate(0.001 13.208)">
					<path id="Trazado_132070" class="st3" d="M-501.5-106.6L-702-224.5v6.2l200.5,117.9V-106.6z"/>
				</g>
				<g id="Grupo_91673">
					<path id="Trazado_132071" class="st4" d="M-478.9-106.6l-200.5-117.9l-22.6,13.2l200.5,117.9L-478.9-106.6z"/>
				</g>
				<g id="Grupo_91674" transform="translate(200.515 117.936)">
					<path id="Trazado_132072" class="st1" d="M-702-211.3v6.2l22.6-13.2v-6.2L-702-211.3z"/>
				</g>
			</g>
		</g>
	</g>
	<g id="Rectángulo_34552" transform="translate(705 347.497)">
		<path class="st0" d="M-679-224.5h348c12.7,0,23,10.3,23,23v260c0,12.7-10.3,23-23,23h-348c-12.7,0-23-10.3-23-23v-260
			C-702-214.2-691.7-224.5-679-224.5z"/>
		<path class="st5" d="M-679-223.5h348c12.2,0,22,9.8,22,22v260c0,12.2-9.8,22-22,22h-348c-12.2,0-22-9.8-22-22v-260
			C-701-213.7-691.2-223.5-679-223.5z"/>
	</g>
	<line id="Línea_344" class="st6" x1="16.5" y1="267.7" x2="220.5" y2="383.7"/>
	<g class="st7">
		<path class="st8" d="M68.8,319.7l-1.5-0.8l3.2-5.7l-2.1-0.4l0.7-1.2l3.7,0.6l0.2,0.1L68.8,319.7z"/>
		<path class="st8" d="M71.8,320.4c0.1-0.2,0.3-0.4,0.6-0.4c0.2-0.1,0.5,0,0.7,0.1s0.4,0.3,0.5,0.6c0.1,0.2,0.1,0.5-0.1,0.7
			c-0.1,0.2-0.3,0.4-0.6,0.4c-0.2,0.1-0.5,0-0.7-0.1s-0.4-0.3-0.5-0.6C71.6,320.9,71.7,320.7,71.8,320.4z"/>
		<path class="st8" d="M79.4,325.6l-5.1-2.8l0.6-1l3.8-1.2c0.5-0.2,1-0.4,1.3-0.5c0.3-0.2,0.5-0.4,0.7-0.6c0.2-0.3,0.2-0.6,0.2-0.9
			c-0.1-0.3-0.2-0.5-0.6-0.7c-0.3-0.2-0.7-0.2-1-0.1s-0.6,0.4-0.8,0.8l-1.5-0.8c0.3-0.5,0.6-0.8,1-1.1c0.4-0.3,0.9-0.4,1.4-0.4
			s1,0.1,1.5,0.4c0.8,0.4,1.3,0.9,1.5,1.5s0.1,1.2-0.2,1.9c-0.2,0.4-0.5,0.7-0.9,1s-1,0.5-1.7,0.8l-2.7,0.8l3.2,1.8L79.4,325.6z"/>
		<path class="st8" d="M87.1,325.8c-0.6,1-1.2,1.7-2,2c-0.7,0.3-1.5,0.2-2.3-0.2c-0.8-0.5-1.3-1.1-1.4-1.8c-0.1-0.8,0.1-1.7,0.6-2.7
			l0.8-1.4c0.6-1,1.2-1.7,2-2c0.7-0.3,1.5-0.2,2.3,0.2c0.8,0.5,1.3,1.1,1.4,1.8c0.1,0.8-0.1,1.7-0.6,2.7L87.1,325.8z M86.4,323.5
			c0.3-0.6,0.5-1.1,0.5-1.5s-0.2-0.7-0.6-0.9c-0.3-0.2-0.7-0.2-1,0s-0.6,0.5-1,1.1l-1,1.8c-0.3,0.6-0.5,1.1-0.5,1.5s0.2,0.7,0.6,0.9
			c0.4,0.2,0.7,0.2,1,0s0.6-0.6,1-1.2L86.4,323.5z"/>
		<path class="st8" d="M93.5,326.2l-0.3,0.6c0.7-0.3,1.3-0.2,2,0.2c0.7,0.4,1,0.9,1,1.7c0.7-0.3,1.4-0.3,2.1,0.1
			c0.6,0.3,1,0.8,1.1,1.3s0,1.1-0.4,1.8l-2,3.5l-1.5-0.8l2-3.5c0.2-0.3,0.2-0.6,0.2-0.8c0-0.2-0.2-0.4-0.5-0.6
			c-0.4-0.2-0.9-0.2-1.3,0.1l-2.1,3.8l-1.5-0.8l2-3.5c0.2-0.3,0.2-0.6,0.2-0.8s-0.2-0.4-0.5-0.6c-0.4-0.2-0.8-0.2-1.2,0l-2.2,3.9
			l-1.5-0.8l3.1-5.5L93.5,326.2z"/>
	</g>
	<g class="st7">
		<path class="st8" d="M270,366.2h-1.7v-6.5l-2,0.6V359l3.5-1.3h0.2V366.2z"/>
		<path class="st8" d="M277.8,363h1v1.4h-1v1.8h-1.7v-1.8h-3.5l-0.1-1.1l3.6-5.6h1.7V363z M274.2,363h1.9v-3l-0.1,0.2L274.2,363z"/>
		<path class="st8" d="M279.9,362.1l0.5-4.3h4.8v1.4h-3.4l-0.2,1.8c0.4-0.2,0.8-0.3,1.3-0.3c0.8,0,1.4,0.3,1.9,0.8s0.7,1.2,0.7,2.1
			c0,0.6-0.1,1-0.3,1.5s-0.6,0.8-1,1s-0.9,0.4-1.5,0.4c-0.5,0-1-0.1-1.4-0.3s-0.8-0.5-1-0.9s-0.4-0.8-0.4-1.3h1.7
			c0,0.4,0.2,0.6,0.4,0.8s0.5,0.3,0.8,0.3c0.4,0,0.7-0.1,0.9-0.4s0.3-0.7,0.3-1.2s-0.1-0.9-0.4-1.1s-0.6-0.4-1-0.4s-0.7,0.1-1,0.3
			l-0.2,0.2L279.9,362.1z"/>
		<path class="st8" d="M291.2,359.9l0.1,0.7c0.4-0.6,1.1-0.8,1.8-0.8c0.8,0,1.4,0.3,1.7,1c0.4-0.6,1.1-1,1.9-1
			c0.7,0,1.2,0.2,1.5,0.6s0.5,1,0.5,1.8v4H297v-4c0-0.4-0.1-0.6-0.2-0.8s-0.4-0.2-0.7-0.2c-0.5,0-0.9,0.2-1.1,0.7v4.4h-1.7v-4
			c0-0.4-0.1-0.6-0.2-0.8s-0.4-0.2-0.7-0.2c-0.5,0-0.8,0.2-1,0.6v4.5h-1.7v-6.3h1.5V359.9z"/>
		<path class="st8" d="M301.6,359.9l0.1,0.7c0.4-0.6,1.1-0.8,1.8-0.8c0.8,0,1.4,0.3,1.7,1c0.4-0.6,1.1-1,1.9-1
			c0.7,0,1.2,0.2,1.5,0.6s0.5,1,0.5,1.8v4h-1.7v-4c0-0.4-0.1-0.6-0.2-0.8s-0.4-0.2-0.7-0.2c-0.5,0-0.9,0.2-1.1,0.7v4.4h-1.7v-4
			c0-0.4-0.1-0.6-0.2-0.8s-0.4-0.2-0.7-0.2c-0.5,0-0.8,0.2-1,0.6v4.5H300v-6.3h1.6V359.9z"/>
	</g>
	<line id="Línea_345" class="st6" x1="254.5" y1="341.7" x2="254.5" y2="377.7"/>
	<line id="Línea_346" class="st6" x1="16.5" y1="223.7" x2="173.5" y2="133.7"/>
	<g class="st7">
		<path class="st8" d="M68.2,189.5l-1.5,0.8l-3.3-5.7l-1.4,1.6l-0.7-1.2l2.4-2.9l0.2-0.1L68.2,189.5z"/>
		<path class="st8" d="M70.4,187.3c-0.1-0.2-0.2-0.5-0.1-0.7s0.2-0.4,0.5-0.6c0.2-0.1,0.5-0.2,0.7-0.1c0.2,0.1,0.4,0.2,0.6,0.4
			c0.1,0.2,0.2,0.5,0.1,0.7s-0.2,0.4-0.5,0.6c-0.2,0.1-0.5,0.2-0.7,0.1C70.7,187.7,70.5,187.6,70.4,187.3z"/>
		<path class="st8" d="M76.9,180.5c0.6,1,0.8,1.9,0.7,2.7s-0.6,1.4-1.4,1.9s-1.6,0.6-2.3,0.3c-0.7-0.3-1.4-0.9-2-1.9l-0.8-1.4
			c-0.6-1-0.8-1.9-0.7-2.7c0.1-0.8,0.6-1.4,1.4-1.9s1.6-0.6,2.3-0.3s1.4,0.9,2,1.9L76.9,180.5z M74.5,179.8c-0.4-0.6-0.7-1-1-1.2
			s-0.7-0.2-1,0s-0.5,0.5-0.5,0.8c0,0.4,0.1,0.8,0.5,1.4l1,1.8c0.3,0.6,0.7,1,1,1.2s0.7,0.2,1,0c0.4-0.2,0.5-0.5,0.5-0.9
			s-0.2-0.9-0.5-1.4L74.5,179.8z"/>
		<path class="st8" d="M82.8,177c0.6,1,0.8,1.9,0.7,2.7c-0.1,0.8-0.6,1.4-1.4,1.9s-1.6,0.6-2.3,0.3c-0.7-0.3-1.4-0.9-2-1.9l-0.8-1.4
			c-0.6-1-0.8-1.9-0.7-2.7c0.1-0.8,0.6-1.4,1.4-1.9s1.6-0.6,2.3-0.3c0.7,0.3,1.4,0.9,2,1.9L82.8,177z M80.5,176.4
			c-0.4-0.6-0.7-1-1-1.2s-0.7-0.2-1,0S78,175.7,78,176c0,0.4,0.1,0.8,0.5,1.4l1,1.8c0.3,0.6,0.7,1,1,1.2s0.7,0.2,1,0
			c0.4-0.2,0.5-0.5,0.5-0.9s-0.2-0.9-0.5-1.4L80.5,176.4z"/>
		<path class="st8" d="M86.4,171.7l0.4,0.6c0.1-0.7,0.5-1.2,1.2-1.6c0.7-0.4,1.4-0.4,1.9,0c0.1-0.8,0.5-1.4,1.2-1.8
			c0.6-0.3,1.1-0.4,1.6-0.2s0.9,0.6,1.3,1.3l2,3.5l-1.5,0.8l-2-3.5c-0.2-0.3-0.4-0.5-0.6-0.6s-0.5,0-0.8,0.2
			c-0.4,0.3-0.6,0.6-0.5,1.2l2.2,3.8l-1.5,0.8l-2-3.5c-0.2-0.3-0.4-0.5-0.6-0.6s-0.5,0-0.8,0.2c-0.4,0.2-0.6,0.6-0.6,1l2.2,3.9
			L88,178l-3.2-5.5L86.4,171.7z"/>
	</g>
	<g class="st7">
		<path class="st8" d="M143.1,404.8h-5.9v4h6.9v2.5h-10v-14.9h10v2.5h-6.9v3.6h5.9V404.8z"/>
		<path class="st8" d="M151.7,408.2c0-0.4-0.2-0.6-0.5-0.9c-0.4-0.2-0.9-0.4-1.7-0.6c-2.6-0.6-4-1.7-4-3.4c0-1,0.4-1.8,1.2-2.5
			s1.9-1,3.2-1c1.4,0,2.5,0.3,3.4,1s1.3,1.5,1.3,2.6h-3c0-0.4-0.1-0.8-0.4-1.1c-0.3-0.3-0.7-0.4-1.3-0.4c-0.5,0-0.9,0.1-1.2,0.3
			c-0.3,0.2-0.4,0.5-0.4,0.9c0,0.3,0.2,0.6,0.5,0.8c0.3,0.2,0.8,0.4,1.6,0.5c0.7,0.1,1.4,0.3,1.9,0.5c1.6,0.6,2.3,1.6,2.3,3
			c0,1-0.4,1.8-1.3,2.5c-0.9,0.6-2,0.9-3.4,0.9c-0.9,0-1.8-0.2-2.5-0.5s-1.3-0.8-1.7-1.4s-0.6-1.2-0.6-1.9h2.8
			c0,0.5,0.2,0.9,0.6,1.2s0.8,0.4,1.5,0.4c0.6,0,1-0.1,1.3-0.3C151.6,408.8,151.7,408.5,151.7,408.2z"/>
		<path class="st8" d="M160.1,397.4v2.7h1.9v2.2h-1.9v5.5c0,0.4,0.1,0.7,0.2,0.9s0.5,0.3,0.9,0.3c0.3,0,0.6,0,0.9-0.1v2.2
			c-0.6,0.2-1.2,0.3-1.8,0.3c-2.1,0-3.1-1-3.2-3.1v-6h-1.6v-2.2h1.6v-2.7L160.1,397.4L160.1,397.4z"/>
		<path class="st8" d="M163.6,397.3c0-0.4,0.1-0.8,0.4-1.1c0.3-0.3,0.7-0.4,1.2-0.4s0.9,0.1,1.2,0.4s0.5,0.7,0.5,1.1
			c0,0.5-0.2,0.8-0.5,1.1s-0.7,0.4-1.2,0.4s-0.9-0.1-1.2-0.4S163.6,397.7,163.6,397.3z M166.7,411.2h-3v-11.1h3V411.2z"/>
		<path class="st8" d="M179.2,405.8c0,1.8-0.4,3.2-1.1,4.2c-0.8,1-1.8,1.5-3.2,1.5c-1.2,0-2.2-0.5-2.9-1.4l-0.1,1.2h-2.7v-15.8h3
			v5.7c0.7-0.8,1.6-1.2,2.7-1.2c1.4,0,2.4,0.5,3.2,1.5S179.3,403.9,179.2,405.8L179.2,405.8L179.2,405.8z M176.2,405.6
			c0-1.1-0.2-1.9-0.5-2.5c-0.4-0.5-0.9-0.8-1.6-0.8c-0.9,0-1.6,0.4-1.9,1.2v4.4c0.4,0.8,1,1.2,2,1.2s1.6-0.5,1.9-1.4
			C176.1,407.2,176.2,406.5,176.2,405.6z"/>
		<path class="st8" d="M187.4,411.2c-0.1-0.3-0.2-0.6-0.3-1c-0.7,0.8-1.7,1.2-2.8,1.2s-2-0.3-2.7-0.9s-1.1-1.4-1.1-2.4
			c0-1.2,0.4-2.1,1.3-2.7c0.9-0.6,2.1-0.9,3.8-1h1.4v-0.6c0-0.5-0.1-0.9-0.4-1.2c-0.3-0.3-0.7-0.5-1.2-0.5s-0.9,0.1-1.2,0.4
			s-0.4,0.6-0.4,1h-3c0-0.6,0.2-1.2,0.6-1.8c0.4-0.5,1-1,1.7-1.3s1.5-0.5,2.4-0.5c1.4,0,2.5,0.3,3.3,1s1.2,1.7,1.2,2.9v4.8
			c0,1.1,0.2,1.8,0.4,2.4v0.2H187.4z M185,409.2c0.4,0,0.8-0.1,1.2-0.3c0.4-0.2,0.6-0.5,0.8-0.8v-1.9h-1.1c-1.5,0-2.3,0.5-2.4,1.5
			v0.2c0,0.4,0.1,0.7,0.4,0.9S184.5,409.2,185,409.2z"/>
	</g>
</g>
<g id="Rectángulo_34553" transform="translate(856.964 259)">
	<path class="st0" d="M-422-258h107c18.2,0,33,14.8,33,33l0,0c0,18.2-14.8,33-33,33h-107c-18.2,0-33-14.8-33-33l0,0
		C-455-243.2-440.2-258-422-258z"/>
	<path class="st5" d="M-422-257h107c17.7,0,32,14.3,32,32l0,0c0,17.7-14.3,32-32,32h-107c-17.7,0-32-14.3-32-32l0,0
		C-454-242.7-439.6-257-422-257z"/>
</g>
<g class="st7">
	<path class="st8" d="M443.7,24.7h-4.9v4h5.7V30h-7.2V18.6h7.1v1.2h-5.6v3.7h4.9V24.7z"/>
	<path class="st8" d="M447.7,30h-1.4V18h1.4V30z"/>
	<path class="st8" d="M455.3,30c-0.1-0.2-0.2-0.5-0.2-0.9c-0.7,0.7-1.5,1-2.4,1c-0.8,0-1.5-0.2-2.1-0.7s-0.8-1.1-0.8-1.8
		c0-0.9,0.3-1.6,1-2.1s1.6-0.7,2.8-0.7h1.4v-0.7c0-0.5-0.2-0.9-0.5-1.2s-0.7-0.4-1.3-0.4c-0.5,0-0.9,0.1-1.3,0.4s-0.5,0.6-0.5,0.9
		H450c0-0.4,0.1-0.8,0.4-1.2s0.7-0.7,1.2-0.9s1.1-0.3,1.7-0.3c1,0,1.7,0.2,2.3,0.7s0.8,1.2,0.9,2V28c0,0.8,0.1,1.4,0.3,1.9V30H455.3
		z M452.9,28.9c0.5,0,0.9-0.1,1.3-0.4s0.7-0.5,0.9-0.9v-1.7H454c-1.8,0-2.7,0.5-2.7,1.6c0,0.5,0.2,0.8,0.5,1.1
		S452.4,28.9,452.9,28.9z"/>
	<path class="st8" d="M465.9,25.9c0,1.3-0.3,2.3-0.9,3.1s-1.4,1.2-2.4,1.2c-1.1,0-1.9-0.4-2.5-1.1l-0.1,1h-1.3V18h1.4v4.5
		c0.6-0.7,1.4-1.1,2.4-1.1s1.8,0.4,2.4,1.2s0.9,1.8,0.9,3.2v0.1H465.9z M464.5,25.7c0-1-0.2-1.7-0.6-2.3s-0.9-0.8-1.6-0.8
		c-1,0-1.6,0.4-2.1,1.3v3.7c0.4,0.9,1.1,1.3,2.1,1.3c0.7,0,1.2-0.3,1.6-0.8S464.5,26.8,464.5,25.7z"/>
	<path class="st8" d="M467.3,25.7c0-0.8,0.2-1.6,0.5-2.2s0.8-1.2,1.4-1.5s1.2-0.5,2-0.5c1.2,0,2.1,0.4,2.8,1.2s1.1,1.9,1.1,3.2V26
		c0,0.8-0.2,1.6-0.5,2.2s-0.8,1.2-1.4,1.5s-1.3,0.5-2,0.5c-1.1,0-2.1-0.4-2.8-1.2s-1.1-1.9-1.1-3.2V25.7z M468.8,25.9
		c0,0.9,0.2,1.7,0.7,2.3s1,0.9,1.7,0.9s1.3-0.3,1.8-0.9s0.6-1.4,0.6-2.4c0-0.9-0.2-1.7-0.7-2.3s-1-0.9-1.8-0.9
		c-0.7,0-1.3,0.3-1.7,0.9S468.8,24.8,468.8,25.9z"/>
	<path class="st8" d="M480.9,22.8c-0.2,0-0.5-0.1-0.7-0.1c-0.9,0-1.6,0.4-1.9,1.2v6h-1.4v-8.5h1.4v1c0.5-0.8,1.1-1.1,2-1.1
		c0.3,0,0.5,0,0.6,0.1V22.8z"/>
	<path class="st8" d="M487.2,30c-0.1-0.2-0.2-0.5-0.2-0.9c-0.7,0.7-1.5,1-2.4,1c-0.8,0-1.5-0.2-2.1-0.7s-0.8-1.1-0.8-1.8
		c0-0.9,0.3-1.6,1-2.1s1.6-0.7,2.8-0.7h1.4v-0.7c0-0.5-0.2-0.9-0.5-1.2s-0.7-0.4-1.3-0.4c-0.5,0-0.9,0.1-1.3,0.4s-0.5,0.6-0.5,0.9
		h-1.5c0-0.4,0.1-0.8,0.4-1.2s0.7-0.7,1.2-0.9s1.1-0.3,1.7-0.3c1,0,1.7,0.2,2.3,0.7s0.8,1.2,0.9,2V28c0,0.8,0.1,1.4,0.3,1.9V30
		H487.2z M484.8,28.9c0.5,0,0.9-0.1,1.3-0.4s0.7-0.5,0.9-0.9v-1.7h-1.1c-1.8,0-2.7,0.5-2.7,1.6c0,0.5,0.2,0.8,0.5,1.1
		S484.3,28.9,484.8,28.9z"/>
	<path class="st8" d="M494,29c0.5,0,1-0.2,1.4-0.5s0.6-0.7,0.6-1.2h1.4c0,0.5-0.2,0.9-0.5,1.4s-0.7,0.8-1.2,1s-1.1,0.4-1.6,0.4
		c-1.2,0-2.1-0.4-2.7-1.2s-1-1.8-1-3.2v-0.2c0-0.8,0.2-1.6,0.5-2.2s0.7-1.1,1.3-1.5s1.2-0.5,2-0.5c0.9,0,1.7,0.3,2.4,0.9
		s1,1.3,1,2.2H496c0-0.5-0.2-1-0.6-1.3s-0.8-0.5-1.4-0.5c-0.7,0-1.3,0.3-1.7,0.8s-0.6,1.3-0.6,2.3V26c0,1,0.2,1.7,0.6,2.2
		S493.3,29,494,29z"/>
	<path class="st8" d="M499,19.3c0-0.2,0.1-0.4,0.2-0.6s0.4-0.2,0.6-0.2s0.5,0.1,0.6,0.2s0.2,0.4,0.2,0.6s-0.1,0.4-0.2,0.6
		s-0.4,0.2-0.6,0.2s-0.5-0.1-0.6-0.2S499,19.5,499,19.3z M500.6,30h-1.4v-8.5h1.4V30z"/>
	<path class="st8" d="M502.5,25.7c0-0.8,0.2-1.6,0.5-2.2s0.8-1.2,1.4-1.5s1.2-0.5,2-0.5c1.2,0,2.1,0.4,2.8,1.2s1.1,1.9,1.1,3.2V26
		c0,0.8-0.2,1.6-0.5,2.2s-0.8,1.2-1.4,1.5s-1.3,0.5-2,0.5c-1.1,0-2.1-0.4-2.8-1.2s-1.1-1.9-1.1-3.2V25.7z M504,25.9
		c0,0.9,0.2,1.7,0.7,2.3s1,0.9,1.7,0.9s1.3-0.3,1.8-0.9s0.6-1.4,0.6-2.4c0-0.9-0.2-1.7-0.7-2.3s-1-0.9-1.8-0.9
		c-0.7,0-1.3,0.3-1.7,0.9S504,24.8,504,25.9z M507,18h1.8l-2.1,2.3h-1.2L507,18z"/>
	<path class="st8" d="M513.4,21.5v1.1c0.6-0.8,1.5-1.2,2.5-1.2c1.8,0,2.7,1,2.7,3V30h-1.4v-5.6c0-0.6-0.1-1.1-0.4-1.4
		s-0.7-0.4-1.3-0.4c-0.5,0-0.9,0.1-1.2,0.4s-0.6,0.6-0.8,1v6H512v-8.5H513.4z"/>
	<path class="st8" d="M528.3,30.2c-1.1,0-2.1-0.4-2.8-1.1s-1.1-1.8-1.1-3v-0.3c0-0.8,0.2-1.6,0.5-2.2s0.8-1.2,1.3-1.5
		s1.2-0.6,1.9-0.6c1.1,0,2,0.4,2.6,1.1s0.9,1.8,0.9,3.1v0.6h-5.7c0,0.8,0.3,1.5,0.7,2s1.1,0.8,1.8,0.8c0.5,0,0.9-0.1,1.3-0.3
		s0.7-0.5,0.9-0.8l0.9,0.7C530.8,29.6,529.7,30.2,528.3,30.2z M528.1,22.6c-0.6,0-1.1,0.2-1.5,0.6s-0.6,1-0.7,1.8h4.2v-0.1
		c0-0.7-0.2-1.3-0.6-1.7S528.8,22.6,528.1,22.6z"/>
	<path class="st8" d="M534.7,21.5v1.1c0.6-0.8,1.5-1.2,2.5-1.2c1.8,0,2.7,1,2.7,3V30h-1.4v-5.6c0-0.6-0.1-1.1-0.4-1.4
		s-0.7-0.4-1.3-0.4c-0.5,0-0.9,0.1-1.2,0.4s-0.6,0.6-0.8,1v6h-1.4v-8.5H534.7z"/>
</g>
<g class="st7">
	<path class="st8" d="M432.9,45.5v0.9c0.6-0.7,1.5-1.1,2.5-1.1c1.2,0,2,0.5,2.4,1.4c0.3-0.4,0.6-0.7,1.1-1c0.5-0.2,1-0.4,1.6-0.4
		c1.9,0,2.8,1,2.8,2.9V54h-1.4v-5.6c0-0.6-0.1-1.1-0.4-1.4c-0.3-0.3-0.7-0.4-1.4-0.4c-0.5,0-1,0.2-1.3,0.5c-0.4,0.3-0.6,0.8-0.6,1.3
		V54h-1.5v-5.5c0-1.2-0.6-1.8-1.8-1.8c-0.9,0-1.6,0.4-1.9,1.2V54h-1.4v-8.5H432.9z"/>
	<path class="st8" d="M450.8,54c-0.1-0.2-0.2-0.5-0.2-0.9c-0.7,0.7-1.5,1-2.4,1c-0.8,0-1.5-0.2-2.1-0.7c-0.5-0.5-0.8-1.1-0.8-1.8
		c0-0.9,0.3-1.6,1-2.1s1.6-0.7,2.8-0.7h1.4v-0.7c0-0.5-0.2-0.9-0.5-1.2s-0.7-0.4-1.3-0.4c-0.5,0-0.9,0.1-1.3,0.4
		c-0.3,0.3-0.5,0.6-0.5,0.9h-1.5c0-0.4,0.1-0.8,0.4-1.2s0.7-0.7,1.2-0.9s1.1-0.3,1.7-0.3c1,0,1.7,0.2,2.3,0.7c0.6,0.5,0.8,1.2,0.9,2
		V52c0,0.8,0.1,1.4,0.3,1.9V54H450.8z M448.4,52.9c0.5,0,0.9-0.1,1.3-0.4s0.7-0.5,0.9-0.9v-1.7h-1.1c-1.8,0-2.7,0.5-2.7,1.6
		c0,0.5,0.2,0.8,0.5,1.1C447.5,52.8,447.9,52.9,448.4,52.9z"/>
	<path class="st8" d="M453.9,49.7c0-1.3,0.3-2.3,0.9-3.1s1.4-1.2,2.4-1.2s1.8,0.3,2.4,1V42h1.4v12h-1.3l-0.1-0.9
		c-0.6,0.7-1.4,1.1-2.4,1.1s-1.8-0.4-2.4-1.2s-0.9-1.8-0.9-3.1V49.7z M455.4,49.9c0,1,0.2,1.7,0.6,2.2s0.9,0.8,1.6,0.8
		c0.9,0,1.6-0.4,2-1.2v-3.9c-0.4-0.8-1.1-1.2-2-1.2c-0.7,0-1.3,0.3-1.7,0.8C455.6,48,455.4,48.8,455.4,49.9z"/>
	<path class="st8" d="M466.8,54.2c-1.1,0-2.1-0.4-2.8-1.1s-1.1-1.8-1.1-3v-0.3c0-0.8,0.2-1.6,0.5-2.2s0.8-1.2,1.3-1.5
		c0.6-0.4,1.2-0.6,1.9-0.6c1.1,0,2,0.4,2.6,1.1s0.9,1.8,0.9,3.1v0.6h-5.7c0,0.8,0.3,1.5,0.7,2c0.5,0.5,1.1,0.8,1.8,0.8
		c0.5,0,0.9-0.1,1.3-0.3s0.7-0.5,0.9-0.8l0.9,0.7C469.3,53.6,468.2,54.2,466.8,54.2z M466.6,46.6c-0.6,0-1.1,0.2-1.5,0.6
		c-0.4,0.4-0.6,1-0.7,1.8h4.2v-0.1c0-0.7-0.2-1.3-0.6-1.7C467.7,46.8,467.2,46.6,466.6,46.6z"/>
	<path class="st8" d="M475.9,46.8c-0.2,0-0.5-0.1-0.7-0.1c-0.9,0-1.6,0.4-1.9,1.2v6h-1.4v-8.5h1.4v1c0.5-0.8,1.1-1.1,2-1.1
		c0.3,0,0.5,0,0.6,0.1V46.8z"/>
	<path class="st8" d="M482.1,54c-0.1-0.2-0.2-0.5-0.2-0.9c-0.7,0.7-1.5,1-2.4,1c-0.8,0-1.5-0.2-2.1-0.7c-0.5-0.5-0.8-1.1-0.8-1.8
		c0-0.9,0.3-1.6,1-2.1s1.6-0.7,2.8-0.7h1.4v-0.7c0-0.5-0.2-0.9-0.5-1.2s-0.7-0.4-1.3-0.4c-0.5,0-0.9,0.1-1.3,0.4
		c-0.3,0.3-0.5,0.6-0.5,0.9h-1.5c0-0.4,0.1-0.8,0.4-1.2s0.7-0.7,1.2-0.9s1.1-0.3,1.7-0.3c1,0,1.7,0.2,2.3,0.7c0.6,0.5,0.8,1.2,0.9,2
		V52c0,0.8,0.1,1.4,0.3,1.9V54H482.1z M479.7,52.9c0.5,0,0.9-0.1,1.3-0.4s0.7-0.5,0.9-0.9v-1.7h-1.1c-1.8,0-2.7,0.5-2.7,1.6
		c0,0.5,0.2,0.8,0.5,1.1C478.8,52.8,479.2,52.9,479.7,52.9z"/>
	<path class="st8" d="M492.9,53c0.5,0,1-0.2,1.4-0.5s0.6-0.7,0.6-1.2h1.4c0,0.5-0.2,0.9-0.5,1.4c-0.3,0.4-0.7,0.8-1.2,1
		c-0.5,0.3-1.1,0.4-1.6,0.4c-1.2,0-2.1-0.4-2.7-1.2s-1-1.8-1-3.2v-0.2c0-0.8,0.2-1.6,0.5-2.2c0.3-0.6,0.7-1.1,1.3-1.5
		c0.6-0.4,1.2-0.5,2-0.5c0.9,0,1.7,0.3,2.4,0.9c0.6,0.6,1,1.3,1,2.2h-1.4c0-0.5-0.2-1-0.6-1.3c-0.4-0.4-0.8-0.5-1.4-0.5
		c-0.7,0-1.3,0.3-1.7,0.8c-0.4,0.5-0.6,1.3-0.6,2.3V50c0,1,0.2,1.7,0.6,2.2C491.6,52.7,492.2,53,492.9,53z"/>
	<path class="st8" d="M497.5,49.7c0-0.8,0.2-1.6,0.5-2.2c0.3-0.7,0.8-1.2,1.4-1.5c0.6-0.4,1.2-0.5,2-0.5c1.2,0,2.1,0.4,2.8,1.2
		s1.1,1.9,1.1,3.2V50c0,0.8-0.2,1.6-0.5,2.2c-0.3,0.7-0.8,1.2-1.4,1.5s-1.3,0.5-2,0.5c-1.1,0-2.1-0.4-2.8-1.2S497.5,51.1,497.5,49.7
		L497.5,49.7z M499,49.9c0,0.9,0.2,1.7,0.7,2.3c0.4,0.6,1,0.9,1.7,0.9s1.3-0.3,1.8-0.9c0.4-0.6,0.6-1.4,0.6-2.4
		c0-0.9-0.2-1.7-0.7-2.3c-0.4-0.6-1-0.9-1.8-0.9c-0.7,0-1.3,0.3-1.7,0.9S499,48.8,499,49.9z"/>
	<path class="st8" d="M508.4,45.5v1.1c0.6-0.8,1.5-1.2,2.5-1.2c1.8,0,2.7,1,2.7,3V54h-1.4v-5.6c0-0.6-0.1-1.1-0.4-1.4
		s-0.7-0.4-1.3-0.4c-0.5,0-0.9,0.1-1.2,0.4c-0.4,0.2-0.6,0.6-0.8,1v6H507v-8.5H508.4z"/>
	<path class="st8" d="M517.4,42h1.8l-2.1,2.3h-1.2L517.4,42z M517.4,54H516v-8.5h1.5L517.4,54L517.4,54z"/>
	<path class="st8" d="M520.5,54v-7.3h-1.3v-1.1h1.3v-0.9c0-0.9,0.2-1.6,0.7-2.1s1.2-0.7,2.1-0.7c0.3,0,0.7,0,1,0.1l-0.1,1.2
		c-0.2,0-0.5-0.1-0.8-0.1c-0.5,0-0.8,0.1-1.1,0.4c-0.3,0.3-0.4,0.7-0.4,1.2v0.9h1.8v1.1H522V54H520.5z"/>
	<path class="st8" d="M528.9,54.2c-1.1,0-2.1-0.4-2.8-1.1s-1.1-1.8-1.1-3v-0.3c0-0.8,0.2-1.6,0.5-2.2s0.8-1.2,1.3-1.5
		c0.6-0.4,1.2-0.6,1.9-0.6c1.1,0,2,0.4,2.6,1.1s0.9,1.8,0.9,3.1v0.6h-5.7c0,0.8,0.3,1.5,0.7,2c0.5,0.5,1.1,0.8,1.8,0.8
		c0.5,0,0.9-0.1,1.3-0.3c0.4-0.2,0.7-0.5,0.9-0.8l0.9,0.7C531.4,53.6,530.3,54.2,528.9,54.2z M528.7,46.6c-0.6,0-1.1,0.2-1.5,0.6
		c-0.4,0.4-0.6,1-0.7,1.8h4.2v-0.1c0-0.7-0.2-1.3-0.6-1.7C529.8,46.8,529.3,46.6,528.7,46.6z"/>
	<path class="st8" d="M537.9,46.8c-0.2,0-0.5-0.1-0.7-0.1c-0.9,0-1.6,0.4-1.9,1.2v6h-1.4v-8.5h1.4v1c0.5-0.8,1.1-1.1,2-1.1
		c0.3,0,0.5,0,0.6,0.1L537.9,46.8L537.9,46.8z"/>
	<path class="st8" d="M544.2,54c-0.1-0.2-0.2-0.5-0.2-0.9c-0.7,0.7-1.5,1-2.4,1c-0.8,0-1.5-0.2-2.1-0.7c-0.5-0.5-0.8-1.1-0.8-1.8
		c0-0.9,0.3-1.6,1-2.1s1.6-0.7,2.8-0.7h1.4v-0.7c0-0.5-0.2-0.9-0.5-1.2s-0.7-0.4-1.3-0.4c-0.5,0-0.9,0.1-1.3,0.4
		c-0.3,0.3-0.5,0.6-0.5,0.9h-1.5c0-0.4,0.1-0.8,0.4-1.2c0.3-0.4,0.7-0.7,1.2-0.9s1.1-0.3,1.7-0.3c1,0,1.7,0.2,2.3,0.7s0.8,1.2,0.9,2
		V52c0,0.8,0.1,1.4,0.3,1.9V54H544.2z M541.8,52.9c0.5,0,0.9-0.1,1.3-0.4s0.7-0.5,0.9-0.9v-1.7h-1.1c-1.8,0-2.7,0.5-2.7,1.6
		c0,0.5,0.2,0.8,0.5,1.1C540.9,52.8,541.3,52.9,541.8,52.9z"/>
</g>
<g id="Grupo_102790" transform="translate(266 -33.5)">
	<circle id="Elipse_5047" class="st9" cx="232" cy="100.5" r="8"/>
	<line id="Línea_343" class="st10" x1="232.5" y1="101" x2="232.5" y2="147"/>
</g>
<path class="st0" d="M39,89.5h206c13.8,0,25,11.2,25,25v96c0,13.8-11.2,25-25,25H39c-13.8,0-25-11.2-25-25v-96
	C14,100.7,25.2,89.5,39,89.5z"/>
<path class="st5" d="M39,90.5h206c13.3,0,24,10.7,24,24v96c0,13.3-10.7,24-24,24H39c-13.3,0-24-10.7-24-24v-96
	C15,101.2,25.7,90.5,39,90.5z"/>
<g class="st7">
	<path class="st8" d="M60.8,122.5v-11.4h3.5c1,0,1.9,0.2,2.7,0.7s1.4,1.1,1.8,1.9s0.7,1.8,0.7,2.8v0.5c0,1.1-0.2,2-0.7,2.8
		s-1,1.5-1.8,1.9s-1.7,0.7-2.7,0.7L60.8,122.5L60.8,122.5z M63.2,113v7.6h1.1c0.9,0,1.6-0.3,2.1-0.9s0.7-1.5,0.7-2.6v-0.6
		c0-1.2-0.2-2-0.7-2.6s-1.2-0.9-2.1-0.9H63.2z"/>
	<path class="st8" d="M71.1,111.9c0-0.3,0.1-0.6,0.3-0.8s0.5-0.3,0.9-0.3s0.7,0.1,0.9,0.3s0.3,0.5,0.3,0.8s-0.1,0.6-0.3,0.8
		s-0.5,0.3-0.9,0.3s-0.7-0.1-0.9-0.3S71.1,112.2,71.1,111.9z M73.4,122.5h-2.3V114h2.3V122.5z"/>
	<path class="st8" d="M77.4,114l0.1,0.9c0.6-0.7,1.4-1.1,2.4-1.1c1.1,0,1.8,0.4,2.2,1.3c0.6-0.9,1.4-1.3,2.5-1.3
		c0.9,0,1.6,0.3,2,0.8s0.7,1.3,0.7,2.4v5.4H85V117c0-0.5-0.1-0.8-0.3-1.1s-0.5-0.3-1-0.3c-0.7,0-1.1,0.3-1.4,1v5.8H80V117
		c0-0.5-0.1-0.8-0.3-1.1s-0.5-0.3-1-0.3c-0.6,0-1.1,0.3-1.4,0.8v6H75V114H77.4z"/>
	<path class="st8" d="M93.1,122.7c-1.2,0-2.2-0.4-3-1.1s-1.2-1.8-1.2-3v-0.2c0-0.8,0.2-1.6,0.5-2.3s0.8-1.2,1.4-1.5s1.3-0.5,2.1-0.5
		c1.2,0,2.1,0.4,2.7,1.1s1,1.8,1,3.1v0.9h-5.4c0.1,0.6,0.3,1,0.7,1.3s0.8,0.5,1.4,0.5c0.9,0,1.5-0.3,2-0.9l1.1,1.2
		c-0.3,0.5-0.8,0.9-1.4,1.1S93.8,122.7,93.1,122.7z M92.8,115.7c-0.4,0-0.8,0.2-1.1,0.5s-0.5,0.7-0.5,1.3h3.1v-0.2
		c0-0.5-0.1-0.9-0.4-1.2S93.3,115.7,92.8,115.7z"/>
	<path class="st8" d="M99.9,114l0.1,1c0.6-0.8,1.4-1.1,2.4-1.1c0.9,0,1.6,0.3,2,0.8s0.7,1.3,0.7,2.4v5.5h-2.3v-5.4
		c0-0.5-0.1-0.8-0.3-1s-0.6-0.3-1-0.3c-0.6,0-1.1,0.3-1.4,0.8v6h-2.3V114H99.9z"/>
	<path class="st8" d="M111.3,120.2c0-0.3-0.1-0.5-0.4-0.7s-0.7-0.3-1.3-0.4c-2-0.4-3-1.3-3-2.6c0-0.8,0.3-1.4,0.9-1.9
		s1.4-0.8,2.4-0.8c1.1,0,1.9,0.3,2.6,0.8s1,1.2,1,2h-2.3c0-0.3-0.1-0.6-0.3-0.8s-0.5-0.3-1-0.3c-0.4,0-0.7,0.1-0.9,0.3
		s-0.3,0.4-0.3,0.7c0,0.2,0.1,0.5,0.4,0.6s0.6,0.3,1.2,0.4s1,0.2,1.4,0.4c1.2,0.4,1.8,1.2,1.8,2.3c0,0.8-0.3,1.4-1,1.9
		s-1.5,0.7-2.6,0.7c-0.7,0-1.3-0.1-1.9-0.4s-1-0.6-1.3-1s-0.5-0.9-0.5-1.4h2.1c0,0.4,0.2,0.7,0.4,0.9s0.6,0.3,1.1,0.3
		c0.4,0,0.8-0.1,1-0.2S111.3,120.4,111.3,120.2z"/>
	<path class="st8" d="M115,111.9c0-0.3,0.1-0.6,0.3-0.8s0.5-0.3,0.9-0.3s0.7,0.1,0.9,0.3s0.3,0.5,0.3,0.8s-0.1,0.6-0.3,0.8
		s-0.5,0.3-0.9,0.3s-0.7-0.1-0.9-0.3S115,112.2,115,111.9z M117.4,122.5h-2.3V114h2.3V122.5z"/>
	<path class="st8" d="M118.9,118.2c0-0.8,0.2-1.6,0.5-2.2s0.8-1.2,1.4-1.5s1.3-0.5,2.1-0.5c1.1,0,2.1,0.3,2.8,1s1.1,1.6,1.2,2.8v0.6
		c0,1.3-0.4,2.3-1.1,3.1s-1.7,1.2-2.9,1.2s-2.2-0.4-2.9-1.2s-1.1-1.8-1.1-3.2V118.2z M121.1,118.4c0,0.8,0.2,1.4,0.5,1.8
		s0.7,0.6,1.3,0.6c0.5,0,1-0.2,1.3-0.6s0.5-1.1,0.5-2c0-0.8-0.2-1.4-0.5-1.8s-0.7-0.6-1.3-0.6c-0.6,0-1,0.2-1.3,0.6
		S121.1,117.5,121.1,118.4z"/>
	<path class="st8" d="M130.4,114l0.1,1c0.6-0.8,1.4-1.1,2.4-1.1c0.9,0,1.6,0.3,2,0.8s0.7,1.3,0.7,2.4v5.5h-2.3v-5.4
		c0-0.5-0.1-0.8-0.3-1s-0.6-0.3-1-0.3c-0.6,0-1.1,0.3-1.4,0.8v6h-2.3V114H130.4z"/>
	<path class="st8" d="M141.1,122.7c-1.2,0-2.2-0.4-3-1.1s-1.2-1.8-1.2-3v-0.2c0-0.8,0.2-1.6,0.5-2.3s0.8-1.2,1.4-1.5
		s1.3-0.5,2.1-0.5c1.2,0,2.1,0.4,2.7,1.1s1,1.8,1,3.1v0.9h-5.4c0.1,0.6,0.3,1,0.7,1.3s0.8,0.5,1.4,0.5c0.9,0,1.5-0.3,2-0.9l1.1,1.2
		c-0.3,0.5-0.8,0.9-1.4,1.1S141.8,122.7,141.1,122.7z M140.9,115.7c-0.4,0-0.8,0.2-1.1,0.5s-0.5,0.7-0.5,1.3h3.1v-0.2
		c0-0.5-0.1-0.9-0.4-1.2S141.4,115.7,140.9,115.7z"/>
	<path class="st8" d="M150.5,120.2c0-0.3-0.1-0.5-0.4-0.7s-0.7-0.3-1.3-0.4c-2-0.4-3-1.3-3-2.6c0-0.8,0.3-1.4,0.9-1.9
		s1.4-0.8,2.4-0.8c1.1,0,1.9,0.3,2.6,0.8s1,1.2,1,2h-2.3c0-0.3-0.1-0.6-0.3-0.8s-0.5-0.3-1-0.3c-0.4,0-0.7,0.1-0.9,0.3
		s-0.3,0.4-0.3,0.7c0,0.2,0.1,0.5,0.4,0.6s0.6,0.3,1.2,0.4s1,0.2,1.4,0.4c1.2,0.4,1.8,1.2,1.8,2.3c0,0.8-0.3,1.4-1,1.9
		s-1.5,0.7-2.6,0.7c-0.7,0-1.3-0.1-1.9-0.4s-1-0.6-1.3-1s-0.5-0.9-0.5-1.4h2.1c0,0.4,0.2,0.7,0.4,0.9s0.6,0.3,1.1,0.3
		c0.4,0,0.8-0.1,1-0.2S150.5,120.4,150.5,120.2z"/>
	<path class="st8" d="M162,122.7c-1.2,0-2.2-0.4-3-1.1s-1.2-1.8-1.2-3v-0.2c0-0.8,0.2-1.6,0.5-2.3s0.8-1.2,1.4-1.5s1.3-0.5,2.1-0.5
		c1.2,0,2.1,0.4,2.7,1.1s1,1.8,1,3.1v0.9h-5.4c0.1,0.6,0.3,1,0.7,1.3s0.8,0.5,1.4,0.5c0.9,0,1.5-0.3,2-0.9l1.1,1.2
		c-0.3,0.5-0.8,0.9-1.4,1.1S162.7,122.7,162,122.7z M161.7,115.7c-0.4,0-0.8,0.2-1.1,0.5s-0.5,0.7-0.5,1.3h3.1v-0.2
		c0-0.5-0.1-0.9-0.4-1.2S162.2,115.7,161.7,115.7z"/>
	<path class="st8" d="M170,116.6l1.4-2.5h2.4l-2.4,4.1l2.5,4.3h-2.4l-1.5-2.7l-1.5,2.7h-2.4l2.5-4.3l-2.4-4.1h2.4L170,116.6z"/>
	<path class="st8" d="M177.6,112v2.1h1.4v1.7h-1.4v4.2c0,0.3,0.1,0.5,0.2,0.7s0.3,0.2,0.7,0.2c0.2,0,0.5,0,0.7-0.1v1.7
		c-0.4,0.1-0.9,0.2-1.4,0.2c-1.6,0-2.4-0.8-2.4-2.4v-4.6h-1.2V114h1.2v-2H177.6z"/>
	<path class="st8" d="M184.2,122.7c-1.2,0-2.2-0.4-3-1.1s-1.2-1.8-1.2-3v-0.2c0-0.8,0.2-1.6,0.5-2.3s0.8-1.2,1.4-1.5
		s1.3-0.5,2.1-0.5c1.2,0,2.1,0.4,2.7,1.1s1,1.8,1,3.1v0.9h-5.4c0.1,0.6,0.3,1,0.7,1.3s0.8,0.5,1.4,0.5c0.9,0,1.5-0.3,2-0.9l1.1,1.2
		c-0.3,0.5-0.8,0.9-1.4,1.1S184.9,122.7,184.2,122.7z M183.9,115.7c-0.4,0-0.8,0.2-1.1,0.5s-0.5,0.7-0.5,1.3h3.1v-0.2
		c0-0.5-0.1-0.9-0.4-1.2S184.4,115.7,183.9,115.7z"/>
	<path class="st8" d="M193.7,116.2c-0.3,0-0.6-0.1-0.8-0.1c-0.9,0-1.4,0.3-1.7,0.9v5.5h-2.3V114h2.1l0.1,1c0.5-0.8,1.1-1.2,1.9-1.2
		c0.2,0,0.5,0,0.7,0.1V116.2z"/>
	<path class="st8" d="M196.9,114l0.1,1c0.6-0.8,1.4-1.1,2.4-1.1c0.9,0,1.6,0.3,2,0.8s0.7,1.3,0.7,2.4v5.5h-2.3v-5.4
		c0-0.5-0.1-0.8-0.3-1s-0.6-0.3-1-0.3c-0.6,0-1.1,0.3-1.4,0.8v6h-2.3V114H196.9z"/>
	<path class="st8" d="M208.6,122.5c-0.1-0.2-0.2-0.5-0.2-0.8c-0.5,0.6-1.3,0.9-2.1,0.9s-1.5-0.2-2.1-0.7s-0.8-1.1-0.8-1.8
		c0-0.9,0.3-1.6,1-2.1s1.6-0.7,2.9-0.7h1v-0.5c0-0.4-0.1-0.7-0.3-0.9s-0.5-0.4-0.9-0.4s-0.7,0.1-0.9,0.3s-0.3,0.4-0.3,0.8h-2.3
		c0-0.5,0.2-0.9,0.5-1.4s0.7-0.7,1.3-1s1.2-0.4,1.9-0.4c1,0,1.9,0.3,2.5,0.8s0.9,1.3,0.9,2.2v3.7c0,0.8,0.1,1.4,0.3,1.8v0.1
		L208.6,122.5L208.6,122.5z M206.8,120.9c0.3,0,0.6-0.1,0.9-0.2s0.5-0.3,0.6-0.6v-1.5h-0.8c-1.1,0-1.7,0.4-1.8,1.2v0.1
		c0,0.3,0.1,0.5,0.3,0.7S206.4,120.9,206.8,120.9z"/>
	<path class="st8" d="M216.9,120.2c0-0.3-0.1-0.5-0.4-0.7s-0.7-0.3-1.3-0.4c-2-0.4-3-1.3-3-2.6c0-0.8,0.3-1.4,0.9-1.9
		s1.4-0.8,2.4-0.8c1.1,0,1.9,0.3,2.6,0.8s1,1.2,1,2h-2.3c0-0.3-0.1-0.6-0.3-0.8s-0.5-0.3-1-0.3c-0.4,0-0.7,0.1-0.9,0.3
		s-0.3,0.4-0.3,0.7c0,0.2,0.1,0.5,0.4,0.6s0.6,0.3,1.2,0.4s1,0.2,1.4,0.4c1.2,0.4,1.8,1.2,1.8,2.3c0,0.8-0.3,1.4-1,1.9
		s-1.5,0.7-2.6,0.7c-0.7,0-1.3-0.1-1.9-0.4s-1-0.6-1.3-1s-0.5-0.9-0.5-1.4h2.1c0,0.4,0.2,0.7,0.4,0.9s0.6,0.3,1.1,0.3
		c0.4,0,0.8-0.1,1-0.2S216.9,120.4,216.9,120.2z"/>
	<path class="st8" d="M220.7,115c0-0.4,0.1-0.7,0.4-0.9s0.5-0.3,0.9-0.3s0.7,0.1,0.9,0.3s0.4,0.5,0.4,0.9s-0.1,0.6-0.4,0.9
		s-0.5,0.3-0.9,0.3s-0.7-0.1-0.9-0.3S220.7,115.3,220.7,115z M220.7,121.4c0-0.4,0.1-0.7,0.4-0.9s0.5-0.3,0.9-0.3s0.7,0.1,0.9,0.3
		s0.4,0.5,0.4,0.9s-0.1,0.6-0.4,0.9s-0.5,0.3-0.9,0.3s-0.7-0.1-0.9-0.3S220.7,121.7,220.7,121.4z"/>
</g>
<g class="st7">
	<path class="st8" d="M48.5,145.3h5.4v1.2H47v-11.4h1.5V145.3z"/>
	<path class="st8" d="M60.6,146.5c-0.1-0.2-0.2-0.5-0.2-0.9c-0.7,0.7-1.5,1-2.4,1c-0.8,0-1.5-0.2-2.1-0.7c-0.5-0.5-0.8-1.1-0.8-1.8
		c0-0.9,0.3-1.6,1-2.1s1.6-0.7,2.8-0.7h1.4v-0.7c0-0.5-0.2-0.9-0.5-1.2s-0.7-0.4-1.3-0.4c-0.5,0-0.9,0.1-1.3,0.4
		c-0.3,0.3-0.5,0.6-0.5,0.9h-1.5c0-0.4,0.1-0.8,0.4-1.2c0.3-0.4,0.7-0.7,1.2-0.9s1.1-0.3,1.7-0.3c1,0,1.7,0.2,2.3,0.7s0.8,1.2,0.9,2
		v3.9c0,0.8,0.1,1.4,0.3,1.9v0.1H60.6z M58.2,145.4c0.5,0,0.9-0.1,1.3-0.4s0.7-0.5,0.9-0.9v-1.7h-1.1c-1.8,0-2.7,0.5-2.7,1.6
		c0,0.5,0.2,0.8,0.5,1.1C57.3,145.3,57.7,145.4,58.2,145.4z"/>
	<path class="st8" d="M68.2,139.3c-0.2,0-0.5-0.1-0.7-0.1c-0.9,0-1.6,0.4-1.9,1.2v6h-1.4V138h1.4v1c0.5-0.8,1.1-1.1,2-1.1
		c0.3,0,0.5,0,0.6,0.1V139.3z"/>
	<path class="st8" d="M69.1,142.2c0-1.3,0.3-2.4,0.9-3.1s1.4-1.2,2.4-1.2s1.8,0.4,2.4,1.1l0.2-1h1.3v8.2c0,1.1-0.3,2-1,2.6
		s-1.5,0.9-2.6,0.9c-0.6,0-1.2-0.1-1.8-0.4c-0.6-0.3-1-0.6-1.3-1.1l0.8-0.9c0.6,0.8,1.4,1.1,2.3,1.1c0.7,0,1.3-0.2,1.6-0.6
		c0.4-0.4,0.6-1,0.6-1.7v-0.7c-0.6,0.7-1.4,1-2.4,1s-1.8-0.4-2.4-1.2C69.4,144.7,69.1,143.6,69.1,142.2z M70.6,142.4
		c0,1,0.2,1.7,0.6,2.2s0.9,0.8,1.6,0.8c0.9,0,1.6-0.4,2-1.2v-3.9c-0.4-0.8-1.1-1.2-2-1.2c-0.7,0-1.3,0.3-1.6,0.8
		C70.8,140.5,70.6,141.3,70.6,142.4z"/>
	<path class="st8" d="M78.1,142.2c0-0.8,0.2-1.6,0.5-2.2c0.3-0.7,0.8-1.2,1.4-1.5c0.6-0.4,1.2-0.5,2-0.5c1.2,0,2.1,0.4,2.8,1.2
		s1.1,1.9,1.1,3.2v0.1c0,0.8-0.2,1.6-0.5,2.2c-0.3,0.7-0.8,1.2-1.4,1.5s-1.3,0.5-2,0.5c-1.1,0-2.1-0.4-2.8-1.2s-1.1-1.9-1.1-3.2
		V142.2z M79.5,142.4c0,0.9,0.2,1.7,0.7,2.3c0.4,0.6,1,0.9,1.7,0.9s1.3-0.3,1.8-0.9c0.4-0.6,0.6-1.4,0.6-2.4c0-0.9-0.2-1.7-0.7-2.3
		c-0.4-0.6-1-0.9-1.8-0.9c-0.7,0-1.3,0.3-1.7,0.9S79.5,141.3,79.5,142.4z"/>
	<path class="st8" d="M87.5,145.7c0-0.2,0.1-0.5,0.2-0.6s0.4-0.2,0.7-0.2s0.5,0.1,0.7,0.2c0.2,0.2,0.2,0.4,0.2,0.6
		c0,0.2-0.1,0.4-0.2,0.6c-0.2,0.2-0.4,0.2-0.7,0.2s-0.5-0.1-0.7-0.2S87.5,146,87.5,145.7z M87.5,138.8c0-0.2,0.1-0.5,0.2-0.6
		s0.4-0.2,0.7-0.2s0.5,0.1,0.7,0.2c0.2,0.2,0.2,0.4,0.2,0.6c0,0.2-0.1,0.4-0.2,0.6c-0.2,0.2-0.4,0.2-0.7,0.2s-0.5-0.1-0.7-0.2
		S87.5,139.1,87.5,138.8z"/>
	<path class="st8" d="M100,146.5h-1.5v-9.6l-2.9,1.1v-1.3l4.1-1.6h0.2v11.4H100z"/>
	<path class="st8" d="M111.7,146.5h-7.5v-1l3.9-4.4c0.6-0.7,1-1.2,1.2-1.6c0.2-0.4,0.3-0.8,0.3-1.3c0-0.6-0.2-1.1-0.5-1.5
		s-0.8-0.6-1.4-0.6c-0.7,0-1.3,0.2-1.7,0.6s-0.6,1-0.6,1.7H104c0-1,0.3-1.9,1-2.5s1.6-1,2.7-1s1.9,0.3,2.5,0.8
		c0.6,0.6,0.9,1.3,0.9,2.2c0,1.1-0.7,2.5-2.1,4l-3,3.3h5.7V146.5z"/>
	<path class="st8" d="M120.4,141.6c0,1.7-0.3,3-0.9,3.8s-1.5,1.2-2.7,1.2s-2.1-0.4-2.7-1.2s-0.9-2-0.9-3.6v-1.9
		c0-1.7,0.3-2.9,0.9-3.7s1.5-1.2,2.7-1.2s2.1,0.4,2.7,1.2s0.9,2,0.9,3.6V141.6z M118.9,139.7c0-1.2-0.2-2.1-0.5-2.7
		s-0.9-0.8-1.6-0.8s-1.3,0.3-1.6,0.8c-0.3,0.6-0.5,1.4-0.5,2.6v2.3c0,1.2,0.2,2.1,0.5,2.7c0.4,0.6,0.9,0.9,1.6,0.9s1.2-0.3,1.6-0.8
		c0.3-0.6,0.5-1.4,0.5-2.6V139.7z"/>
	<path class="st8" d="M129.4,141.6c0,1.7-0.3,3-0.9,3.8s-1.5,1.2-2.7,1.2s-2.1-0.4-2.7-1.2s-0.9-2-0.9-3.6v-1.9
		c0-1.7,0.3-2.9,0.9-3.7s1.5-1.2,2.7-1.2s2.1,0.4,2.7,1.2c0.6,0.8,0.9,2,0.9,3.6V141.6z M127.9,139.7c0-1.2-0.2-2.1-0.5-2.7
		s-0.9-0.8-1.6-0.8s-1.3,0.3-1.6,0.8c-0.3,0.6-0.5,1.4-0.5,2.6v2.3c0,1.2,0.2,2.1,0.5,2.7c0.4,0.6,0.9,0.9,1.6,0.9s1.2-0.3,1.6-0.8
		c0.3-0.6,0.5-1.4,0.5-2.6V139.7z"/>
	<path class="st8" d="M136.7,138v0.9c0.6-0.7,1.5-1.1,2.5-1.1c1.2,0,2,0.5,2.4,1.4c0.3-0.4,0.6-0.7,1.1-1c0.5-0.2,1-0.4,1.6-0.4
		c1.9,0,2.8,1,2.8,2.9v5.7h-1.4v-5.6c0-0.6-0.1-1.1-0.4-1.4c-0.3-0.3-0.7-0.4-1.4-0.4c-0.5,0-1,0.2-1.3,0.5
		c-0.4,0.3-0.6,0.8-0.6,1.3v5.6h-1.5V141c0-1.2-0.6-1.8-1.8-1.8c-0.9,0-1.6,0.4-1.9,1.2v6.2h-1.4V138H136.7z"/>
	<path class="st8" d="M150.7,138v0.9c0.6-0.7,1.5-1.1,2.5-1.1c1.2,0,2,0.5,2.4,1.4c0.3-0.4,0.6-0.7,1.1-1c0.5-0.2,1-0.4,1.6-0.4
		c1.9,0,2.8,1,2.8,2.9v5.7h-1.4v-5.6c0-0.6-0.1-1.1-0.4-1.4c-0.3-0.3-0.7-0.4-1.4-0.4c-0.5,0-1,0.2-1.3,0.5
		c-0.4,0.3-0.6,0.8-0.6,1.3v5.6h-1.5V141c0-1.2-0.6-1.8-1.8-1.8c-0.9,0-1.6,0.4-1.9,1.2v6.2h-1.4V138H150.7z"/>
	<path class="st8" d="M167.3,141.9c0-1.2,0.2-2.3,0.5-3.4c0.3-1.1,0.8-2.1,1.4-3s1.3-1.5,1.9-1.9l0.3,1c-0.8,0.6-1.4,1.5-1.9,2.7
		s-0.8,2.5-0.8,4v0.7c0,2,0.4,3.8,1.1,5.2c0.4,0.9,1,1.6,1.6,2.1l-0.3,0.9c-0.7-0.4-1.4-1-2-1.9
		C167.9,146.5,167.3,144.3,167.3,141.9z"/>
	<path class="st8" d="M176.9,140.4h3.2v1.4h-3.2v3.6h-1.5v-3.6h-3.2v-1.4h3.2v-3.3h1.5V140.4z"/>
	<path class="st8" d="M182.2,147.5H181l4.8-12.4h1.2L182.2,147.5z"/>
	<path class="st8" d="M191.5,142.3h-3.8v-1.2h3.8V142.3z"/>
	<path class="st8" d="M198.8,140.1h1.1c0.7,0,1.2-0.2,1.6-0.5s0.6-0.8,0.6-1.4c0-1.3-0.7-2-2-2c-0.6,0-1.1,0.2-1.5,0.5
		c-0.4,0.4-0.6,0.8-0.6,1.4h-1.4c0-0.9,0.3-1.6,1-2.2c0.7-0.6,1.5-0.9,2.5-0.9c1.1,0,1.9,0.3,2.5,0.9s0.9,1.4,0.9,2.4
		c0,0.5-0.2,1-0.5,1.4s-0.8,0.8-1.3,1c0.6,0.2,1.1,0.5,1.4,1c0.3,0.5,0.5,1,0.5,1.7c0,1-0.3,1.8-1,2.4c-0.7,0.6-1.5,0.9-2.6,0.9
		s-1.9-0.3-2.6-0.9c-0.7-0.6-1-1.3-1-2.3h1.5c0,0.6,0.2,1.1,0.6,1.4s0.9,0.5,1.6,0.5c0.7,0,1.2-0.2,1.6-0.5c0.4-0.4,0.6-0.9,0.6-1.6
		c0-0.7-0.2-1.2-0.6-1.5s-1-0.5-1.8-0.5h-1.1V140.1z"/>
	<path class="st8" d="M212.2,138v0.9c0.6-0.7,1.5-1.1,2.5-1.1c1.2,0,2,0.5,2.4,1.4c0.3-0.4,0.6-0.7,1.1-1c0.5-0.2,1-0.4,1.6-0.4
		c1.9,0,2.8,1,2.8,2.9v5.7h-1.4v-5.6c0-0.6-0.1-1.1-0.4-1.4c-0.3-0.3-0.7-0.4-1.4-0.4c-0.5,0-1,0.2-1.3,0.5
		c-0.4,0.3-0.6,0.8-0.6,1.3v5.6H216V141c0-1.2-0.6-1.8-1.8-1.8c-0.9,0-1.6,0.4-1.9,1.2v6.2h-1.4V138H212.2z"/>
	<path class="st8" d="M226.2,138v0.9c0.6-0.7,1.5-1.1,2.5-1.1c1.2,0,2,0.5,2.4,1.4c0.3-0.4,0.6-0.7,1.1-1c0.5-0.2,1-0.4,1.6-0.4
		c1.9,0,2.8,1,2.8,2.9v5.7h-1.4v-5.6c0-0.6-0.1-1.1-0.4-1.4c-0.3-0.3-0.7-0.4-1.4-0.4c-0.5,0-1,0.2-1.3,0.5
		c-0.4,0.3-0.6,0.8-0.6,1.3v5.6H230V141c0-1.2-0.6-1.8-1.8-1.8c-0.9,0-1.6,0.4-1.9,1.2v6.2h-1.4V138H226.2z"/>
	<path class="st8" d="M242.2,142c0,1.2-0.2,2.3-0.5,3.3s-0.8,2-1.4,2.9c-0.6,0.9-1.3,1.5-2,1.9l-0.3-0.9c0.8-0.6,1.4-1.6,1.9-2.9
		c0.5-1.3,0.7-2.7,0.7-4.3v-0.2c0-1.1-0.1-2.1-0.3-3.1c-0.2-0.9-0.5-1.8-1-2.5c-0.4-0.7-0.9-1.3-1.4-1.7l0.3-0.9
		c0.7,0.4,1.3,1,2,1.9c0.6,0.9,1.1,1.9,1.4,2.9C242,139.6,242.2,140.7,242.2,142z"/>
</g>
<g class="st7">
	<path class="st8" d="M50.9,167.5h-4.8l-1.1,3h-1.5l4.3-11.4h1.3l4.4,11.4H52L50.9,167.5z M46.6,166.3h3.9l-1.9-5.3L46.6,166.3z"/>
	<path class="st8" d="M56.2,162v1.1c0.6-0.8,1.5-1.2,2.5-1.2c1.8,0,2.7,1,2.7,3v5.6H60v-5.6c0-0.6-0.1-1.1-0.4-1.4s-0.7-0.4-1.3-0.4
		c-0.5,0-0.9,0.1-1.2,0.4c-0.4,0.2-0.6,0.6-0.8,1v6h-1.4V162H56.2z"/>
	<path class="st8" d="M67,169.5c0.5,0,1-0.2,1.4-0.5s0.6-0.7,0.6-1.2h1.4c0,0.5-0.2,0.9-0.5,1.4c-0.3,0.4-0.7,0.8-1.2,1
		c-0.5,0.3-1.1,0.4-1.6,0.4c-1.2,0-2.1-0.4-2.7-1.2s-1-1.8-1-3.2V166c0-0.8,0.2-1.6,0.5-2.2c0.3-0.6,0.7-1.1,1.3-1.5
		c0.6-0.4,1.2-0.5,2-0.5c0.9,0,1.7,0.3,2.4,0.9c0.6,0.6,1,1.3,1,2.2H69c0-0.5-0.2-1-0.6-1.3c-0.4-0.4-0.8-0.5-1.4-0.5
		c-0.7,0-1.3,0.3-1.7,0.8c-0.4,0.5-0.6,1.3-0.6,2.3v0.3c0,1,0.2,1.7,0.6,2.2C65.7,169.2,66.3,169.5,67,169.5z"/>
	<path class="st8" d="M73.5,163.1c0.6-0.8,1.5-1.2,2.5-1.2c1.8,0,2.7,1,2.7,3v5.6h-1.4v-5.6c0-0.6-0.1-1.1-0.4-1.4s-0.7-0.4-1.3-0.4
		c-0.5,0-0.9,0.1-1.2,0.4c-0.4,0.2-0.6,0.6-0.8,1v6H72v-12h1.4L73.5,163.1L73.5,163.1z"/>
	<path class="st8" d="M80.5,166.2c0-0.8,0.2-1.6,0.5-2.2c0.3-0.7,0.8-1.2,1.4-1.5c0.6-0.4,1.2-0.5,2-0.5c1.2,0,2.1,0.4,2.8,1.2
		s1.1,1.9,1.1,3.2v0.1c0,0.8-0.2,1.6-0.5,2.2c-0.3,0.7-0.8,1.2-1.4,1.5s-1.3,0.5-2,0.5c-1.1,0-2.1-0.4-2.8-1.2s-1.1-1.9-1.1-3.2
		V166.2z M81.9,166.4c0,0.9,0.2,1.7,0.7,2.3c0.4,0.6,1,0.9,1.7,0.9s1.3-0.3,1.8-0.9c0.4-0.6,0.6-1.4,0.6-2.4c0-0.9-0.2-1.7-0.7-2.3
		c-0.4-0.6-1-0.9-1.8-0.9c-0.7,0-1.3,0.3-1.7,0.9S81.9,165.3,81.9,166.4z"/>
	<path class="st8" d="M89.9,169.7c0-0.2,0.1-0.5,0.2-0.6s0.4-0.2,0.7-0.2s0.5,0.1,0.7,0.2c0.2,0.2,0.2,0.4,0.2,0.6
		c0,0.2-0.1,0.4-0.2,0.6c-0.2,0.2-0.4,0.2-0.7,0.2s-0.5-0.1-0.7-0.2S89.9,170,89.9,169.7z M89.9,162.8c0-0.2,0.1-0.5,0.2-0.6
		s0.4-0.2,0.7-0.2s0.5,0.1,0.7,0.2c0.2,0.2,0.2,0.4,0.2,0.6c0,0.2-0.1,0.4-0.2,0.6c-0.2,0.2-0.4,0.2-0.7,0.2s-0.5-0.1-0.7-0.2
		S89.9,163.1,89.9,162.8z"/>
	<path class="st8" d="M102.4,170.5h-1.5v-9.6L98,162v-1.3l4.1-1.6h0.2v11.4H102.4z"/>
	<path class="st8" d="M113.8,165.6c0,1.7-0.3,3-0.9,3.8s-1.5,1.2-2.7,1.2s-2.1-0.4-2.7-1.2s-0.9-2-0.9-3.6v-1.9
		c0-1.7,0.3-2.9,0.9-3.7s1.5-1.2,2.7-1.2s2.1,0.4,2.7,1.2s0.9,2,0.9,3.6V165.6z M112.3,163.7c0-1.2-0.2-2.1-0.5-2.7
		s-0.9-0.8-1.6-0.8s-1.3,0.3-1.6,0.8c-0.3,0.6-0.5,1.4-0.5,2.6v2.3c0,1.2,0.2,2.1,0.5,2.7c0.4,0.6,0.9,0.9,1.6,0.9s1.2-0.3,1.6-0.8
		c0.3-0.6,0.5-1.4,0.5-2.6V163.7z"/>
	<path class="st8" d="M122.8,165.6c0,1.7-0.3,3-0.9,3.8s-1.5,1.2-2.7,1.2s-2.1-0.4-2.7-1.2s-0.9-2-0.9-3.6v-1.9
		c0-1.7,0.3-2.9,0.9-3.7s1.5-1.2,2.7-1.2s2.1,0.4,2.7,1.2s0.9,2,0.9,3.6V165.6z M121.3,163.7c0-1.2-0.2-2.1-0.5-2.7
		s-0.9-0.8-1.6-0.8s-1.3,0.3-1.6,0.8c-0.3,0.6-0.5,1.4-0.5,2.6v2.3c0,1.2,0.2,2.1,0.5,2.7c0.4,0.6,0.9,0.9,1.6,0.9s1.2-0.3,1.6-0.8
		c0.3-0.6,0.5-1.4,0.5-2.6V163.7z"/>
	<path class="st8" d="M131.7,165.6c0,1.7-0.3,3-0.9,3.8s-1.5,1.2-2.7,1.2s-2.1-0.4-2.7-1.2s-0.9-2-0.9-3.6v-1.9
		c0-1.7,0.3-2.9,0.9-3.7s1.5-1.2,2.7-1.2s2.1,0.4,2.7,1.2s0.9,2,0.9,3.6V165.6z M130.3,163.7c0-1.2-0.2-2.1-0.5-2.7
		s-0.9-0.8-1.6-0.8c-0.7,0-1.3,0.3-1.6,0.8c-0.3,0.6-0.5,1.4-0.5,2.6v2.3c0,1.2,0.2,2.1,0.5,2.7c0.4,0.6,0.9,0.9,1.6,0.9
		s1.2-0.3,1.6-0.8c0.3-0.6,0.5-1.4,0.5-2.6V163.7z"/>
	<path class="st8" d="M139.1,162v0.9c0.6-0.7,1.5-1.1,2.5-1.1c1.2,0,2,0.5,2.4,1.4c0.3-0.4,0.6-0.7,1.1-1c0.5-0.2,1-0.4,1.6-0.4
		c1.9,0,2.8,1,2.8,2.9v5.7h-1.4v-5.6c0-0.6-0.1-1.1-0.4-1.4c-0.3-0.3-0.7-0.4-1.4-0.4c-0.5,0-1,0.2-1.3,0.5
		c-0.4,0.3-0.6,0.8-0.6,1.3v5.6h-1.5V165c0-1.2-0.6-1.8-1.8-1.8c-0.9,0-1.6,0.4-1.9,1.2v6.2h-1.4V162H139.1z"/>
	<path class="st8" d="M153.1,162v0.9c0.6-0.7,1.5-1.1,2.5-1.1c1.2,0,2,0.5,2.4,1.4c0.3-0.4,0.6-0.7,1.1-1c0.5-0.2,1-0.4,1.6-0.4
		c1.9,0,2.8,1,2.8,2.9v5.7h-1.4v-5.6c0-0.6-0.1-1.1-0.4-1.4c-0.3-0.3-0.7-0.4-1.4-0.4c-0.5,0-1,0.2-1.3,0.5
		c-0.4,0.3-0.6,0.8-0.6,1.3v5.6h-1.5V165c0-1.2-0.6-1.8-1.8-1.8c-0.9,0-1.6,0.4-1.9,1.2v6.2h-1.4V162H153.1z"/>
	<path class="st8" d="M169.6,165.9c0-1.2,0.2-2.3,0.5-3.4c0.3-1.1,0.8-2.1,1.4-3s1.3-1.5,1.9-1.9l0.3,1c-0.8,0.6-1.4,1.5-1.9,2.7
		s-0.8,2.5-0.8,4v0.7c0,2,0.4,3.8,1.1,5.2c0.4,0.9,1,1.6,1.6,2.1l-0.3,0.9c-0.7-0.4-1.4-1-2-1.9
		C170.3,170.5,169.6,168.3,169.6,165.9z"/>
	<path class="st8" d="M179.3,164.4h3.2v1.4h-3.2v3.6h-1.5v-3.6h-3.2v-1.4h3.2v-3.3h1.5V164.4z"/>
	<path class="st8" d="M184.5,171.5h-1.2l4.8-12.4h1.2L184.5,171.5z"/>
	<path class="st8" d="M193.8,166.3H190v-1.2h3.8V166.3z"/>
	<path class="st8" d="M201.2,164.1h1.1c0.7,0,1.2-0.2,1.6-0.5s0.6-0.8,0.6-1.4c0-1.3-0.7-2-2-2c-0.6,0-1.1,0.2-1.5,0.5
		c-0.4,0.4-0.6,0.8-0.6,1.4H199c0-0.9,0.3-1.6,1-2.2c0.7-0.6,1.5-0.9,2.5-0.9c1.1,0,1.9,0.3,2.5,0.9s0.9,1.4,0.9,2.4
		c0,0.5-0.2,1-0.5,1.4s-0.8,0.8-1.3,1c0.6,0.2,1.1,0.5,1.4,1c0.3,0.5,0.5,1,0.5,1.7c0,1-0.3,1.8-1,2.4c-0.7,0.6-1.5,0.9-2.6,0.9
		s-1.9-0.3-2.6-0.9c-0.7-0.6-1-1.3-1-2.3h1.5c0,0.6,0.2,1.1,0.6,1.4s0.9,0.5,1.6,0.5c0.7,0,1.2-0.2,1.6-0.5c0.4-0.4,0.6-0.9,0.6-1.6
		c0-0.7-0.2-1.2-0.6-1.5s-1-0.5-1.8-0.5h-1.1L201.2,164.1L201.2,164.1z"/>
	<path class="st8" d="M214.6,162v0.9c0.6-0.7,1.5-1.1,2.5-1.1c1.2,0,2,0.5,2.4,1.4c0.3-0.4,0.6-0.7,1.1-1c0.5-0.2,1-0.4,1.6-0.4
		c1.9,0,2.8,1,2.8,2.9v5.7h-1.4v-5.6c0-0.6-0.1-1.1-0.4-1.4c-0.3-0.3-0.7-0.4-1.4-0.4c-0.5,0-1,0.2-1.3,0.5
		c-0.4,0.3-0.6,0.8-0.6,1.3v5.6h-1.5V165c0-1.2-0.6-1.8-1.8-1.8c-0.9,0-1.6,0.4-1.9,1.2v6.2h-1.4V162H214.6z"/>
	<path class="st8" d="M228.6,162v0.9c0.6-0.7,1.5-1.1,2.5-1.1c1.2,0,2,0.5,2.4,1.4c0.3-0.4,0.6-0.7,1.1-1c0.5-0.2,1-0.4,1.6-0.4
		c1.9,0,2.8,1,2.8,2.9v5.7h-1.4v-5.6c0-0.6-0.1-1.1-0.4-1.4c-0.3-0.3-0.7-0.4-1.4-0.4c-0.5,0-1,0.2-1.3,0.5
		c-0.4,0.3-0.6,0.8-0.6,1.3v5.6h-1.5V165c0-1.2-0.6-1.8-1.8-1.8c-0.9,0-1.6,0.4-1.9,1.2v6.2h-1.4V162H228.6z"/>
	<path class="st8" d="M244.6,166c0,1.2-0.2,2.3-0.5,3.3s-0.8,2-1.4,2.9c-0.6,0.9-1.3,1.5-2,1.9l-0.3-0.9c0.8-0.6,1.4-1.6,1.9-2.9
		c0.5-1.3,0.7-2.7,0.7-4.3v-0.2c0-1.1-0.1-2.1-0.3-3.1c-0.2-0.9-0.5-1.8-1-2.5c-0.4-0.7-0.9-1.3-1.4-1.7l0.3-0.9
		c0.7,0.4,1.3,1,2,1.9c0.6,0.9,1.1,1.9,1.4,2.9C244.4,163.6,244.6,164.7,244.6,166z"/>
</g>
<g class="st7">
	<path class="st8" d="M57.1,191.5h-4.8l-1.1,3h-1.5l4.3-11.4h1.3l4.4,11.4h-1.5L57.1,191.5z M52.8,190.3h3.9l-1.9-5.3L52.8,190.3z"
		/>
	<path class="st8" d="M62.6,194.5h-1.4v-12h1.4V194.5z"/>
	<path class="st8" d="M66.9,184v2h1.6v1.1h-1.6v5.2c0,0.3,0.1,0.6,0.2,0.8s0.4,0.3,0.7,0.3c0.2,0,0.4,0,0.7-0.1v1.2
		c-0.4,0.1-0.8,0.2-1.1,0.2c-0.6,0-1.1-0.2-1.5-0.6s-0.5-0.9-0.5-1.7v-5.2h-1.5V186h1.5v-2H66.9z"/>
	<path class="st8" d="M75.3,193.7c-0.6,0.7-1.4,1-2.5,1c-0.9,0-1.6-0.3-2.1-0.8s-0.7-1.3-0.7-2.3V186h1.4v5.5c0,1.3,0.5,1.9,1.6,1.9
		s1.8-0.4,2.2-1.2V186h1.4v8.5h-1.4L75.3,193.7z"/>
	<path class="st8" d="M83,187.3c-0.2,0-0.5-0.1-0.7-0.1c-0.9,0-1.6,0.4-1.9,1.2v6H79V186h1.4v1c0.5-0.8,1.1-1.1,2-1.1
		c0.3,0,0.5,0,0.6,0.1V187.3z"/>
	<path class="st8" d="M89.3,194.5c-0.1-0.2-0.2-0.5-0.2-0.9c-0.7,0.7-1.5,1-2.4,1c-0.8,0-1.5-0.2-2.1-0.7c-0.5-0.5-0.8-1.1-0.8-1.8
		c0-0.9,0.3-1.6,1-2.1s1.6-0.7,2.8-0.7H89v-0.7c0-0.5-0.2-0.9-0.5-1.2s-0.7-0.4-1.3-0.4c-0.5,0-0.9,0.1-1.3,0.4
		c-0.3,0.3-0.5,0.6-0.5,0.9H84c0-0.4,0.1-0.8,0.4-1.2s0.7-0.7,1.2-0.9s1.1-0.3,1.7-0.3c1,0,1.7,0.2,2.3,0.7c0.6,0.5,0.8,1.2,0.9,2
		v3.9c0,0.8,0.1,1.4,0.3,1.9v0.1H89.3z M86.9,193.4c0.5,0,0.9-0.1,1.3-0.4s0.7-0.5,0.9-0.9v-1.7H88c-1.8,0-2.7,0.5-2.7,1.6
		c0,0.5,0.2,0.8,0.5,1.1C86,193.3,86.4,193.4,86.9,193.4z"/>
	<path class="st8" d="M92.7,193.7c0-0.2,0.1-0.5,0.2-0.6s0.4-0.2,0.7-0.2s0.5,0.1,0.7,0.2c0.2,0.2,0.2,0.4,0.2,0.6
		c0,0.2-0.1,0.4-0.2,0.6c-0.2,0.2-0.4,0.2-0.7,0.2s-0.5-0.1-0.7-0.2S92.7,194,92.7,193.7z M92.7,186.8c0-0.2,0.1-0.5,0.2-0.6
		s0.4-0.2,0.7-0.2s0.5,0.1,0.7,0.2c0.2,0.2,0.2,0.4,0.2,0.6c0,0.2-0.1,0.4-0.2,0.6c-0.2,0.2-0.4,0.2-0.7,0.2s-0.5-0.1-0.7-0.2
		S92.7,187.1,92.7,186.8z"/>
	<path class="st8" d="M105.2,194.5h-1.5v-9.6l-2.9,1.1v-1.3l4.1-1.6h0.2v11.4H105.2z"/>
	<path class="st8" d="M115.5,190.7h1.6v1.2h-1.6v2.6H114v-2.6h-5.2V191l5.1-7.9h1.5L115.5,190.7L115.5,190.7z M110.5,190.7h3.5v-5.6
		l-0.2,0.3L110.5,190.7z"/>
	<path class="st8" d="M119.1,188.8l0.6-5.7h5.8v1.3h-4.6l-0.3,3.1c0.6-0.3,1.2-0.5,1.9-0.5c1,0,1.9,0.3,2.5,1s0.9,1.6,0.9,2.8
		s-0.3,2.1-0.9,2.8s-1.5,1-2.7,1c-1,0-1.8-0.3-2.5-0.8c-0.6-0.6-1-1.3-1.1-2.3h1.4c0.1,0.7,0.3,1.1,0.7,1.5s0.9,0.5,1.5,0.5
		c0.7,0,1.2-0.2,1.6-0.7s0.6-1.1,0.6-1.9c0-0.8-0.2-1.4-0.6-1.8s-1-0.7-1.7-0.7c-0.6,0-1.1,0.1-1.5,0.4l-0.4,0.3L119.1,188.8z"/>
	<path class="st8" d="M132.9,186v0.9c0.6-0.7,1.5-1.1,2.5-1.1c1.2,0,2,0.5,2.4,1.4c0.3-0.4,0.6-0.7,1.1-1c0.5-0.2,1-0.4,1.6-0.4
		c1.9,0,2.8,1,2.8,2.9v5.7h-1.4v-5.6c0-0.6-0.1-1.1-0.4-1.4c-0.3-0.3-0.7-0.4-1.4-0.4c-0.5,0-1,0.2-1.3,0.5
		c-0.4,0.3-0.6,0.8-0.6,1.3v5.6h-1.5V189c0-1.2-0.6-1.8-1.8-1.8c-0.9,0-1.6,0.4-1.9,1.2v6.2h-1.4V186H132.9z"/>
	<path class="st8" d="M146.9,186v0.9c0.6-0.7,1.5-1.1,2.5-1.1c1.2,0,2,0.5,2.4,1.4c0.3-0.4,0.6-0.7,1.1-1c0.5-0.2,1-0.4,1.6-0.4
		c1.9,0,2.8,1,2.8,2.9v5.7h-1.4v-5.6c0-0.6-0.1-1.1-0.4-1.4c-0.3-0.3-0.7-0.4-1.4-0.4c-0.5,0-1,0.2-1.3,0.5
		c-0.4,0.3-0.6,0.8-0.6,1.3v5.6h-1.5V189c0-1.2-0.6-1.8-1.8-1.8c-0.9,0-1.6,0.4-1.9,1.2v6.2h-1.4V186H146.9z"/>
	<path class="st8" d="M163.5,189.9c0-1.2,0.2-2.3,0.5-3.4c0.3-1.1,0.8-2.1,1.4-3s1.3-1.5,1.9-1.9l0.3,1c-0.8,0.6-1.4,1.5-1.9,2.7
		s-0.8,2.5-0.8,4v0.7c0,2,0.4,3.8,1.1,5.2c0.4,0.9,1,1.6,1.6,2.1l-0.3,0.9c-0.7-0.4-1.4-1-2-1.9
		C164.1,194.5,163.5,192.3,163.5,189.9z"/>
	<path class="st8" d="M173.1,188.4h3.2v1.4h-3.2v3.6h-1.5v-3.6h-3.2v-1.4h3.2v-3.3h1.5V188.4z"/>
	<path class="st8" d="M178.3,195.5h-1.2l4.8-12.4h1.2L178.3,195.5z"/>
	<path class="st8" d="M187.6,190.3h-3.8v-1.2h3.8V190.3z"/>
	<path class="st8" d="M200.2,183.9l-4.7,10.6H194l4.7-10.2h-6.2v-1.2h7.7V183.9z"/>
	<path class="st8" d="M208.4,186v0.9c0.6-0.7,1.5-1.1,2.5-1.1c1.2,0,2,0.5,2.4,1.4c0.3-0.4,0.6-0.7,1.1-1c0.5-0.2,1-0.4,1.6-0.4
		c1.9,0,2.8,1,2.8,2.9v5.7h-1.4v-5.6c0-0.6-0.1-1.1-0.4-1.4c-0.3-0.3-0.7-0.4-1.4-0.4c-0.5,0-1,0.2-1.3,0.5
		c-0.4,0.3-0.6,0.8-0.6,1.3v5.6h-1.5V189c0-1.2-0.6-1.8-1.8-1.8c-0.9,0-1.6,0.4-1.9,1.2v6.2H207V186H208.4z"/>
	<path class="st8" d="M222.4,186v0.9c0.6-0.7,1.5-1.1,2.5-1.1c1.2,0,2,0.5,2.4,1.4c0.3-0.4,0.6-0.7,1.1-1c0.5-0.2,1-0.4,1.6-0.4
		c1.9,0,2.8,1,2.8,2.9v5.7h-1.4v-5.6c0-0.6-0.1-1.1-0.4-1.4c-0.3-0.3-0.7-0.4-1.4-0.4c-0.5,0-1,0.2-1.3,0.5
		c-0.4,0.3-0.6,0.8-0.6,1.3v5.6h-1.5V189c0-1.2-0.6-1.8-1.8-1.8c-0.9,0-1.6,0.4-1.9,1.2v6.2H221V186H222.4z"/>
	<path class="st8" d="M238.4,190c0,1.2-0.2,2.3-0.5,3.3s-0.8,2-1.4,2.9c-0.6,0.9-1.3,1.5-2,1.9l-0.3-0.9c0.8-0.6,1.4-1.6,1.9-2.9
		c0.5-1.3,0.7-2.7,0.7-4.3v-0.2c0-1.1-0.1-2.1-0.3-3.1c-0.2-0.9-0.5-1.8-1-2.5c-0.4-0.7-0.9-1.3-1.4-1.7l0.3-0.9
		c0.7,0.4,1.3,1,2,1.9c0.6,0.9,1.1,1.9,1.4,2.9C238.2,187.6,238.4,188.7,238.4,190z"/>
</g>
<g id="Grupo_102791" transform="translate(1440.866 379) rotate(90)">
	<circle id="Elipse_5047-2" class="st9" cx="-216.5" cy="1171.9" r="8"/>
	<line id="Línea_343-2" class="st10" x1="-216" y1="1169.2" x2="-216" y2="1131"/>
</g>
<g id="Grupo_102787" transform="translate(66 6)">
	<g id="Rectángulo_34555" transform="translate(1096 486)">
		<path class="st0" d="M-1113-224.5h203c9.9,0,18,8.1,18,18v86c0,9.9-8.1,18-18,18h-203c-9.9,0-18-8.1-18-18v-86
			C-1131-216.4-1122.9-224.5-1113-224.5z"/>
		<path class="st5" d="M-1113-223.5h203c9.4,0,17,7.6,17,17v86c0,9.4-7.6,17-17,17h-203c-9.4,0-17-7.6-17-17v-86
			C-1130-215.9-1122.4-223.5-1113-223.5z"/>
	</g>
	<g class="st7">
		<path class="st8" d="M-16.6,290.5v4H-19v-11.4h4.4c0.9,0,1.6,0.2,2.3,0.5s1.1,0.8,1.5,1.3c0.3,0.6,0.5,1.2,0.5,2
			c0,1.1-0.4,2-1.1,2.6c-0.8,0.6-1.8,1-3.2,1H-16.6z M-16.6,288.6h2.1c0.6,0,1.1-0.1,1.4-0.4c0.3-0.3,0.5-0.7,0.5-1.2
			c0-0.6-0.2-1-0.5-1.4s-0.8-0.5-1.4-0.5h-2.1V288.6z"/>
		<path class="st8" d="M-4.9,294.7c-1.2,0-2.2-0.4-3-1.1c-0.8-0.8-1.2-1.8-1.2-3v-0.2c0-0.8,0.2-1.6,0.5-2.3s0.8-1.2,1.4-1.5
			s1.3-0.5,2.1-0.5c1.2,0,2.1,0.4,2.7,1.1s1,1.8,1,3.1v0.9h-5.4c0.1,0.6,0.3,1,0.7,1.3s0.8,0.5,1.4,0.5c0.9,0,1.5-0.3,2-0.9l1.1,1.2
			c-0.3,0.5-0.8,0.9-1.4,1.1S-4.2,294.7-4.9,294.7z M-5.2,287.7c-0.4,0-0.8,0.2-1.1,0.5c-0.3,0.3-0.5,0.7-0.5,1.3h3.1v-0.2
			c0-0.5-0.1-0.9-0.4-1.2C-4.3,287.8-4.7,287.7-5.2,287.7z"/>
		<path class="st8" d="M4.4,292.2c0-0.3-0.1-0.5-0.4-0.7s-0.7-0.3-1.3-0.4c-2-0.4-3-1.3-3-2.6c0-0.8,0.3-1.4,0.9-1.9
			s1.4-0.8,2.4-0.8c1.1,0,1.9,0.3,2.6,0.8c0.6,0.5,1,1.2,1,2H4.3c0-0.3-0.1-0.6-0.3-0.8c-0.2-0.2-0.5-0.3-1-0.3
			c-0.4,0-0.7,0.1-0.9,0.3c-0.2,0.2-0.3,0.4-0.3,0.7c0,0.2,0.1,0.5,0.4,0.6c0.2,0.2,0.6,0.3,1.2,0.4s1,0.2,1.4,0.4
			c1.2,0.4,1.8,1.2,1.8,2.3c0,0.8-0.3,1.4-1,1.9s-1.5,0.7-2.6,0.7c-0.7,0-1.3-0.1-1.9-0.4c-0.5-0.3-1-0.6-1.3-1s-0.5-0.9-0.5-1.4
			h2.1c0,0.4,0.2,0.7,0.4,0.9c0.3,0.2,0.6,0.3,1.1,0.3c0.4,0,0.8-0.1,1-0.2C4.3,292.6,4.4,292.4,4.4,292.2z"/>
		<path class="st8" d="M7.7,290.2c0-0.8,0.2-1.6,0.5-2.2c0.3-0.7,0.8-1.2,1.4-1.5c0.6-0.4,1.3-0.5,2.1-0.5c1.1,0,2.1,0.3,2.8,1
			s1.1,1.6,1.2,2.8v0.6c0,1.3-0.4,2.3-1.1,3.1c-0.7,0.8-1.7,1.2-2.9,1.2s-2.2-0.4-2.9-1.2S7.7,291.7,7.7,290.2
			C7.7,290.3,7.7,290.2,7.7,290.2z M10,290.4c0,0.8,0.2,1.4,0.5,1.8s0.7,0.6,1.3,0.6c0.5,0,1-0.2,1.3-0.6s0.5-1.1,0.5-2
			c0-0.8-0.2-1.4-0.5-1.8s-0.7-0.6-1.3-0.6s-1,0.2-1.3,0.6C10.1,288.8,10,289.5,10,290.4z"/>
		<path class="st8" d="M20.7,290.2c0-1.3,0.3-2.4,0.9-3.1c0.6-0.8,1.4-1.2,2.4-1.2c0.8,0,1.5,0.3,2,0.9v-4.3h2.3v12h-2l-0.1-0.9
			c-0.6,0.7-1.3,1.1-2.2,1.1c-1,0-1.8-0.4-2.4-1.2S20.7,291.6,20.7,290.2z M23,290.4c0,0.8,0.1,1.4,0.4,1.8s0.7,0.6,1.2,0.6
			c0.7,0,1.2-0.3,1.5-0.9v-3.3c-0.3-0.6-0.8-0.9-1.5-0.9C23.5,287.7,23,288.6,23,290.4z"/>
		<path class="st8" d="M34,294.7c-1.2,0-2.2-0.4-3-1.1c-0.8-0.8-1.2-1.8-1.2-3v-0.2c0-0.8,0.2-1.6,0.5-2.3s0.8-1.2,1.4-1.5
			s1.3-0.5,2.1-0.5c1.2,0,2.1,0.4,2.7,1.1s1,1.8,1,3.1v0.9h-5.4c0.1,0.6,0.3,1,0.7,1.3s0.8,0.5,1.4,0.5c0.9,0,1.5-0.3,2-0.9l1.1,1.2
			c-0.3,0.5-0.8,0.9-1.4,1.1S34.7,294.7,34,294.7z M33.7,287.7c-0.4,0-0.8,0.2-1.1,0.5s-0.5,0.7-0.5,1.3h3.1v-0.2
			c0-0.5-0.1-0.9-0.4-1.2C34.6,287.8,34.2,287.7,33.7,287.7z"/>
		<path class="st8" d="M45.1,294.5h-2.3v-12h2.3V294.5z"/>
		<path class="st8" d="M51.9,294.5c-0.1-0.2-0.2-0.5-0.2-0.8c-0.5,0.6-1.3,0.9-2.1,0.9s-1.5-0.2-2.1-0.7c-0.5-0.5-0.8-1.1-0.8-1.8
			c0-0.9,0.3-1.6,1-2.1s1.6-0.7,2.9-0.7h1v-0.5c0-0.4-0.1-0.7-0.3-0.9c-0.2-0.2-0.5-0.4-0.9-0.4s-0.7,0.1-0.9,0.3
			c-0.2,0.2-0.3,0.4-0.3,0.8h-2.3c0-0.5,0.2-0.9,0.5-1.4c0.3-0.4,0.7-0.7,1.3-1c0.6-0.2,1.2-0.4,1.9-0.4c1,0,1.9,0.3,2.5,0.8
			s0.9,1.3,0.9,2.2v3.7c0,0.8,0.1,1.4,0.3,1.8v0.1h-2.4V294.5z M50,292.9c0.3,0,0.6-0.1,0.9-0.2s0.5-0.3,0.6-0.6v-1.5h-0.8
			c-1.1,0-1.7,0.4-1.8,1.2v0.1c0,0.3,0.1,0.5,0.3,0.7C49.4,292.8,49.7,292.9,50,292.9z"/>
		<path class="st8" d="M63.4,294.7c-1.2,0-2.2-0.4-3-1.1c-0.8-0.8-1.2-1.8-1.2-3v-0.2c0-0.8,0.2-1.6,0.5-2.3s0.8-1.2,1.4-1.5
			s1.3-0.5,2.1-0.5c1.2,0,2.1,0.4,2.7,1.1s1,1.8,1,3.1v0.9h-5.4c0.1,0.6,0.3,1,0.7,1.3s0.8,0.5,1.4,0.5c0.9,0,1.5-0.3,2-0.9l1.1,1.2
			c-0.3,0.5-0.8,0.9-1.4,1.1S64.1,294.7,63.4,294.7z M63.2,287.7c-0.4,0-0.8,0.2-1.1,0.5s-0.5,0.7-0.5,1.3h3.1v-0.2
			c0-0.5-0.1-0.9-0.4-1.2C64,287.8,63.7,287.7,63.2,287.7z"/>
		<path class="st8" d="M72.8,292.2c0-0.3-0.1-0.5-0.4-0.7s-0.7-0.3-1.3-0.4c-2-0.4-3-1.3-3-2.6c0-0.8,0.3-1.4,0.9-1.9
			s1.4-0.8,2.4-0.8c1.1,0,1.9,0.3,2.6,0.8c0.6,0.5,1,1.2,1,2h-2.3c0-0.3-0.1-0.6-0.3-0.8c-0.2-0.2-0.5-0.3-1-0.3
			c-0.4,0-0.7,0.1-0.9,0.3c-0.2,0.2-0.3,0.4-0.3,0.7c0,0.2,0.1,0.5,0.4,0.6c0.2,0.2,0.6,0.3,1.2,0.4s1,0.2,1.4,0.4
			c1.2,0.4,1.8,1.2,1.8,2.3c0,0.8-0.3,1.4-1,1.9s-1.5,0.7-2.6,0.7c-0.7,0-1.3-0.1-1.9-0.4c-0.5-0.3-1-0.6-1.3-1s-0.5-0.9-0.5-1.4
			h2.1c0,0.4,0.2,0.7,0.4,0.9c0.3,0.2,0.6,0.3,1.1,0.3c0.4,0,0.8-0.1,1-0.2C72.7,292.6,72.8,292.4,72.8,292.2z"/>
		<path class="st8" d="M79.1,284v2.1h1.4v1.7h-1.4v4.2c0,0.3,0.1,0.5,0.2,0.7c0.1,0.1,0.3,0.2,0.7,0.2c0.2,0,0.5,0,0.7-0.1v1.7
			c-0.4,0.1-0.9,0.2-1.4,0.2c-1.6,0-2.4-0.8-2.4-2.4v-4.6h-1.2V286h1.2v-2H79.1z"/>
		<path class="st8" d="M81.8,283.9c0-0.3,0.1-0.6,0.3-0.8s0.5-0.3,0.9-0.3s0.7,0.1,0.9,0.3c0.2,0.2,0.3,0.5,0.3,0.8
			s-0.1,0.6-0.3,0.8c-0.2,0.2-0.5,0.3-0.9,0.3s-0.7-0.1-0.9-0.3S81.8,284.2,81.8,283.9z M84.2,294.5h-2.3V286h2.3V294.5z"/>
		<path class="st8" d="M93.7,290.4c0,1.4-0.3,2.4-0.9,3.2s-1.4,1.1-2.4,1.1c-0.9,0-1.6-0.4-2.2-1.1l-0.1,0.9h-2v-12h2.3v4.3
			c0.5-0.6,1.2-0.9,2.1-0.9c1,0,1.8,0.4,2.4,1.1s0.9,1.8,0.9,3.2v0.2H93.7z M91.4,290.2c0-0.9-0.1-1.5-0.4-1.9s-0.7-0.6-1.2-0.6
			c-0.7,0-1.2,0.3-1.5,0.9v3.3c0.3,0.6,0.8,0.9,1.5,0.9s1.2-0.4,1.4-1.1C91.4,291.4,91.4,290.9,91.4,290.2z"/>
		<path class="st8" d="M100,294.5c-0.1-0.2-0.2-0.5-0.2-0.8c-0.5,0.6-1.3,0.9-2.1,0.9c-0.8,0-1.5-0.2-2.1-0.7
			c-0.5-0.5-0.8-1.1-0.8-1.8c0-0.9,0.3-1.6,1-2.1s1.6-0.7,2.9-0.7h1v-0.5c0-0.4-0.1-0.7-0.3-0.9c-0.2-0.2-0.5-0.4-0.9-0.4
			s-0.7,0.1-0.9,0.3c-0.2,0.2-0.3,0.4-0.3,0.8H95c0-0.5,0.2-0.9,0.5-1.4c0.3-0.4,0.7-0.7,1.3-1c0.6-0.2,1.2-0.4,1.9-0.4
			c1,0,1.9,0.3,2.5,0.8s0.9,1.3,0.9,2.2v3.7c0,0.8,0.1,1.4,0.3,1.8v0.1H100V294.5z M98.1,292.9c0.3,0,0.6-0.1,0.9-0.2
			s0.5-0.3,0.6-0.6v-1.5h-0.8c-1.1,0-1.7,0.4-1.8,1.2v0.1c0,0.3,0.1,0.5,0.3,0.7C97.5,292.8,97.8,292.9,98.1,292.9z"/>
		<path class="st8" d="M103.8,287c0-0.4,0.1-0.7,0.4-0.9s0.5-0.3,0.9-0.3s0.7,0.1,0.9,0.3s0.4,0.5,0.4,0.9s-0.1,0.6-0.4,0.9
			c-0.2,0.2-0.5,0.3-0.9,0.3s-0.7-0.1-0.9-0.3C103.9,287.6,103.8,287.3,103.8,287z M103.8,293.4c0-0.4,0.1-0.7,0.4-0.9
			s0.5-0.3,0.9-0.3s0.7,0.1,0.9,0.3s0.4,0.5,0.4,0.9s-0.1,0.6-0.4,0.9c-0.2,0.2-0.5,0.3-0.9,0.3s-0.7-0.1-0.9-0.3
			C103.9,294,103.8,293.7,103.8,293.4z"/>
	</g>
	<g class="st7">
		<path class="st8" d="M114.3,288.1h1.1c0.7,0,1.2-0.2,1.6-0.5s0.6-0.8,0.6-1.4c0-1.3-0.7-2-2-2c-0.6,0-1.1,0.2-1.5,0.5
			c-0.4,0.4-0.6,0.8-0.6,1.4h-1.4c0-0.9,0.3-1.6,1-2.2s1.5-0.9,2.5-0.9c1.1,0,1.9,0.3,2.5,0.9s0.9,1.4,0.9,2.4c0,0.5-0.2,1-0.5,1.4
			s-0.8,0.8-1.3,1c0.6,0.2,1.1,0.5,1.4,1s0.5,1,0.5,1.7c0,1-0.3,1.8-1,2.4s-1.5,0.9-2.6,0.9s-1.9-0.3-2.6-0.9s-1-1.3-1-2.3h1.5
			c0,0.6,0.2,1.1,0.6,1.4s0.9,0.5,1.6,0.5s1.2-0.2,1.6-0.5c0.4-0.4,0.6-0.9,0.6-1.6s-0.2-1.2-0.6-1.5s-1-0.5-1.8-0.5h-1.1
			C114.3,289.3,114.3,288.1,114.3,288.1z"/>
		<path class="st8" d="M128.4,289.6c0,1.7-0.3,3-0.9,3.8s-1.5,1.2-2.7,1.2s-2.1-0.4-2.7-1.2c-0.6-0.8-0.9-2-0.9-3.6v-1.9
			c0-1.7,0.3-2.9,0.9-3.7s1.5-1.2,2.7-1.2s2.1,0.4,2.7,1.2s0.9,2,0.9,3.6V289.6z M126.9,287.7c0-1.2-0.2-2.1-0.5-2.7
			s-0.9-0.8-1.6-0.8s-1.3,0.3-1.6,0.8c-0.3,0.6-0.5,1.4-0.5,2.6v2.3c0,1.2,0.2,2.1,0.5,2.7c0.4,0.6,0.9,0.9,1.6,0.9s1.2-0.3,1.6-0.8
			c0.3-0.6,0.5-1.4,0.5-2.6V287.7z"/>
		<path class="st8" d="M136.7,290.6l-0.9,0.9v3h-1.4v-12h1.4v7.3l0.8-0.9l2.6-2.8h1.8l-3.3,3.5l3.7,4.9h-1.7L136.7,290.6z"/>
		<path class="st8" d="M142.1,290.2c0-1.3,0.3-2.4,0.9-3.1s1.4-1.2,2.4-1.2s1.8,0.4,2.4,1.1l0.1-0.9h1.3v8.2c0,1.1-0.3,2-1,2.6
			s-1.5,0.9-2.6,0.9c-0.6,0-1.2-0.1-1.8-0.4s-1-0.6-1.3-1.1l0.8-0.9c0.6,0.8,1.4,1.1,2.3,1.1c0.7,0,1.3-0.2,1.6-0.6
			c0.4-0.4,0.6-1,0.6-1.7v-0.7c-0.6,0.7-1.4,1-2.4,1s-1.8-0.4-2.4-1.2C142.4,292.7,142.1,291.6,142.1,290.2z M143.5,290.4
			c0,1,0.2,1.7,0.6,2.2s0.9,0.8,1.6,0.8c0.9,0,1.6-0.4,2-1.2v-3.9c-0.4-0.8-1.1-1.2-2-1.2c-0.7,0-1.3,0.3-1.6,0.8
			C143.7,288.5,143.5,289.3,143.5,290.4z"/>
		<path class="st8" d="M151.4,293.7c0-0.2,0.1-0.5,0.2-0.6s0.4-0.2,0.7-0.2s0.5,0.1,0.7,0.2c0.2,0.2,0.2,0.4,0.2,0.6
			s-0.1,0.4-0.2,0.6c-0.2,0.2-0.4,0.2-0.7,0.2s-0.5-0.1-0.7-0.2S151.4,294,151.4,293.7z"/>
	</g>
	<g class="st7">
		<path class="st8" d="M-10.8,308.4h-3.7v10.1H-16v-10.1h-3.6v-1.2h8.8V308.4z"/>
		<path class="st8" d="M-10.5,314.2c0-0.8,0.2-1.6,0.5-2.2c0.3-0.7,0.8-1.2,1.4-1.5c0.6-0.4,1.2-0.5,2-0.5c1.2,0,2.1,0.4,2.8,1.2
			s1.1,1.9,1.1,3.2v0.1c0,0.8-0.2,1.6-0.5,2.2c-0.3,0.7-0.8,1.2-1.4,1.5s-1.3,0.5-2,0.5c-1.1,0-2.1-0.4-2.8-1.2s-1.1-1.9-1.1-3.2
			C-10.5,314.3-10.5,314.2-10.5,314.2z M-9.1,314.4c0,0.9,0.2,1.7,0.7,2.3c0.4,0.6,1,0.9,1.7,0.9s1.3-0.3,1.8-0.9
			c0.4-0.6,0.6-1.4,0.6-2.4c0-0.9-0.2-1.7-0.7-2.3c-0.4-0.6-1-0.9-1.8-0.9c-0.7,0-1.3,0.3-1.7,0.9S-9.1,313.3-9.1,314.4z"/>
		<path class="st8" d="M0.6,318.5h-1.4v-12h1.4V318.5z"/>
		<path class="st8" d="M6.4,318.7c-1.1,0-2.1-0.4-2.8-1.1s-1.1-1.8-1.1-3v-0.3c0-0.8,0.2-1.6,0.5-2.2s0.8-1.2,1.3-1.5
			c0.6-0.4,1.2-0.6,1.9-0.6c1.1,0,2,0.4,2.6,1.1s0.9,1.8,0.9,3.1v0.6H4c0,0.8,0.3,1.5,0.7,2c0.5,0.5,1.1,0.8,1.8,0.8
			c0.5,0,0.9-0.1,1.3-0.3c0.4-0.2,0.7-0.5,0.9-0.8l0.9,0.7C8.9,318.1,7.8,318.7,6.4,318.7z M6.2,311.1c-0.6,0-1.1,0.2-1.5,0.6
			s-0.6,1-0.7,1.8h4.2v-0.1c0-0.7-0.2-1.3-0.6-1.7C7.3,311.3,6.8,311.1,6.2,311.1z"/>
		<path class="st8" d="M15.4,311.3c-0.2,0-0.5-0.1-0.7-0.1c-0.9,0-1.6,0.4-1.9,1.2v6h-1.4V310h1.4v1c0.5-0.8,1.1-1.1,2-1.1
			c0.3,0,0.5,0,0.6,0.1C15.4,310,15.4,311.3,15.4,311.3z"/>
		<path class="st8" d="M21.7,318.5c-0.1-0.2-0.2-0.5-0.2-0.9c-0.7,0.7-1.5,1-2.4,1c-0.8,0-1.5-0.2-2.1-0.7c-0.5-0.5-0.8-1.1-0.8-1.8
			c0-0.9,0.3-1.6,1-2.1s1.6-0.7,2.8-0.7h1.4v-0.7c0-0.5-0.2-0.9-0.5-1.2c-0.3-0.3-0.7-0.4-1.3-0.4c-0.5,0-0.9,0.1-1.3,0.4
			c-0.3,0.3-0.5,0.6-0.5,0.9h-1.5c0-0.4,0.1-0.8,0.4-1.2c0.3-0.4,0.7-0.7,1.2-0.9c0.5-0.2,1.1-0.3,1.7-0.3c1,0,1.7,0.2,2.3,0.7
			c0.6,0.5,0.8,1.2,0.9,2v3.9c0,0.8,0.1,1.4,0.3,1.9v0.1L21.7,318.5L21.7,318.5z M19.3,317.4c0.5,0,0.9-0.1,1.3-0.4s0.7-0.5,0.9-0.9
			v-1.7h-1.1c-1.8,0-2.7,0.5-2.7,1.6c0,0.5,0.2,0.8,0.5,1.1C18.4,317.3,18.8,317.4,19.3,317.4z"/>
		<path class="st8" d="M26.5,310v1.1c0.6-0.8,1.5-1.2,2.5-1.2c1.8,0,2.7,1,2.7,3v5.6h-1.4v-5.6c0-0.6-0.1-1.1-0.4-1.4
			s-0.7-0.4-1.3-0.4c-0.5,0-0.9,0.1-1.2,0.4c-0.4,0.2-0.6,0.6-0.8,1v6h-1.4V310H26.5z"/>
		<path class="st8" d="M37.4,317.5c0.5,0,1-0.2,1.4-0.5s0.6-0.7,0.6-1.2h1.4c0,0.5-0.2,0.9-0.5,1.4c-0.3,0.4-0.7,0.8-1.2,1
			c-0.5,0.3-1.1,0.4-1.6,0.4c-1.2,0-2.1-0.4-2.7-1.2s-1-1.8-1-3.2V314c0-0.8,0.2-1.6,0.5-2.2s0.7-1.1,1.3-1.5s1.2-0.5,2-0.5
			c0.9,0,1.7,0.3,2.4,0.9c0.6,0.6,1,1.3,1,2.2h-1.4c0-0.5-0.2-1-0.6-1.3c-0.4-0.4-0.8-0.5-1.4-0.5c-0.7,0-1.3,0.3-1.7,0.8
			s-0.6,1.3-0.6,2.3v0.3c0,1,0.2,1.7,0.6,2.2C36.1,317.2,36.6,317.5,37.4,317.5z"/>
		<path class="st8" d="M42.4,307.8c0-0.2,0.1-0.4,0.2-0.6c0.1-0.2,0.4-0.2,0.6-0.2s0.5,0.1,0.6,0.2c0.1,0.2,0.2,0.4,0.2,0.6
			s-0.1,0.4-0.2,0.6c-0.1,0.2-0.4,0.2-0.6,0.2s-0.5-0.1-0.6-0.2C42.4,308.2,42.4,308,42.4,307.8z M43.9,318.5h-1.4V310h1.4V318.5z"
			/>
		<path class="st8" d="M51.5,318.5c-0.1-0.2-0.2-0.5-0.2-0.9c-0.7,0.7-1.5,1-2.4,1c-0.8,0-1.5-0.2-2.1-0.7c-0.5-0.5-0.8-1.1-0.8-1.8
			c0-0.9,0.3-1.6,1-2.1s1.6-0.7,2.8-0.7h1.4v-0.7c0-0.5-0.2-0.9-0.5-1.2c-0.3-0.3-0.7-0.4-1.3-0.4c-0.5,0-0.9,0.1-1.3,0.4
			c-0.3,0.3-0.5,0.6-0.5,0.9h-1.5c0-0.4,0.1-0.8,0.4-1.2c0.3-0.4,0.7-0.7,1.2-0.9c0.5-0.2,1.1-0.3,1.7-0.3c1,0,1.7,0.2,2.3,0.7
			s0.8,1.2,0.9,2v3.9c0,0.8,0.1,1.4,0.3,1.9v0.1L51.5,318.5L51.5,318.5z M49.1,317.4c0.5,0,0.9-0.1,1.3-0.4s0.7-0.5,0.9-0.9v-1.7
			h-1.1c-1.8,0-2.7,0.5-2.7,1.6c0,0.5,0.2,0.8,0.5,1.1C48.2,317.3,48.6,317.4,49.1,317.4z"/>
		<path class="st8" d="M58.6,314.2c0-1.3,0.3-2.3,0.9-3.1c0.6-0.8,1.4-1.2,2.4-1.2s1.8,0.3,2.4,1v-4.4h1.4v12h-1.3l-0.1-0.9
			c-0.6,0.7-1.4,1.1-2.4,1.1s-1.8-0.4-2.4-1.2s-0.9-1.8-0.9-3.1V314.2z M60,314.4c0,1,0.2,1.7,0.6,2.2c0.4,0.5,0.9,0.8,1.6,0.8
			c0.9,0,1.6-0.4,2-1.2v-3.9c-0.4-0.8-1.1-1.2-2-1.2c-0.7,0-1.3,0.3-1.7,0.8C60.2,312.5,60,313.3,60,314.4z"/>
		<path class="st8" d="M71.4,318.7c-1.1,0-2.1-0.4-2.8-1.1s-1.1-1.8-1.1-3v-0.3c0-0.8,0.2-1.6,0.5-2.2s0.8-1.2,1.3-1.5
			c0.6-0.4,1.2-0.6,1.9-0.6c1.1,0,2,0.4,2.6,1.1s0.9,1.8,0.9,3.1v0.6H69c0,0.8,0.3,1.5,0.7,2c0.5,0.5,1.1,0.8,1.8,0.8
			c0.5,0,0.9-0.1,1.3-0.3c0.4-0.2,0.7-0.5,0.9-0.8l0.9,0.7C73.9,318.1,72.9,318.7,71.4,318.7z M71.3,311.1c-0.6,0-1.1,0.2-1.5,0.6
			s-0.6,1-0.7,1.8h4.2v-0.1c0-0.7-0.2-1.3-0.6-1.7C72.3,311.3,71.9,311.1,71.3,311.1z"/>
		<path class="st8" d="M84.5,312.4h3.2v1.4h-3.2v3.6H83v-3.6h-3.2v-1.4H83v-3.3h1.5V312.4z"/>
		<path class="st8" d="M89.7,319.5h-1.2l4.8-12.4h1.2L89.7,319.5z"/>
		<path class="st8" d="M99,314.3h-3.8v-1.2H99V314.3z"/>
		<path class="st8" d="M111.7,318.5h-7.5v-1l3.9-4.4c0.6-0.7,1-1.2,1.2-1.6s0.3-0.8,0.3-1.3c0-0.6-0.2-1.1-0.5-1.5s-0.8-0.6-1.4-0.6
			c-0.7,0-1.3,0.2-1.7,0.6s-0.6,1-0.6,1.7H104c0-1,0.3-1.9,1-2.5s1.6-1,2.7-1s1.9,0.3,2.5,0.8c0.6,0.6,0.9,1.3,0.9,2.2
			c0,1.1-0.7,2.5-2.1,4l-3,3.3h5.7V318.5z"/>
		<path class="st8" d="M119.7,314.6l-0.9,0.9v3h-1.4v-12h1.4v7.3l0.8-0.9l2.6-2.8h1.8l-3.3,3.5l3.7,4.9h-1.7L119.7,314.6z"/>
		<path class="st8" d="M125.1,314.2c0-1.3,0.3-2.4,0.9-3.1s1.4-1.2,2.4-1.2c1,0,1.8,0.4,2.4,1.1l0.1-0.9h1.3v8.2c0,1.1-0.3,2-1,2.6
			s-1.5,0.9-2.6,0.9c-0.6,0-1.2-0.1-1.8-0.4c-0.6-0.3-1-0.6-1.3-1.1l0.8-0.9c0.6,0.8,1.4,1.1,2.3,1.1c0.7,0,1.3-0.2,1.6-0.6
			c0.4-0.4,0.6-1,0.6-1.7v-0.7c-0.6,0.7-1.4,1-2.4,1s-1.8-0.4-2.4-1.2C125.4,316.7,125.1,315.6,125.1,314.2z M126.6,314.4
			c0,1,0.2,1.7,0.6,2.2s0.9,0.8,1.6,0.8c0.9,0,1.6-0.4,2-1.2v-3.9c-0.4-0.8-1.1-1.2-2-1.2c-0.7,0-1.3,0.3-1.6,0.8
			C126.8,312.5,126.6,313.3,126.6,314.4z"/>
	</g>
	<g class="st7">
		<path class="st8" d="M-10.1,338.7c-0.1,1.2-0.5,2.2-1.4,2.9c-0.8,0.7-1.9,1.1-3.2,1.1c-1.5,0-2.6-0.5-3.4-1.5s-1.3-2.3-1.3-4v-0.7
			c0-1.1,0.2-2.1,0.6-2.9s0.9-1.5,1.7-1.9c0.7-0.4,1.5-0.7,2.5-0.7c1.3,0,2.4,0.4,3.2,1.1s1.3,1.7,1.4,3h-2.3
			c-0.1-0.7-0.3-1.3-0.6-1.6s-0.9-0.5-1.6-0.5c-0.8,0-1.4,0.3-1.8,0.8c-0.4,0.6-0.6,1.4-0.6,2.6v0.9c0,1.2,0.2,2.1,0.6,2.7
			s1,0.9,1.8,0.9c0.7,0,1.3-0.2,1.6-0.5c0.4-0.3,0.6-0.8,0.6-1.5h2.2V338.7z"/>
		<path class="st8" d="M-3.8,342.5c-0.1-0.2-0.2-0.5-0.2-0.8c-0.5,0.6-1.3,0.9-2.1,0.9s-1.5-0.2-2.1-0.7c-0.5-0.5-0.8-1.1-0.8-1.8
			c0-0.9,0.3-1.6,1-2.1s1.6-0.7,2.9-0.7h1v-0.5c0-0.4-0.1-0.7-0.3-0.9c-0.2-0.2-0.5-0.4-0.9-0.4s-0.7,0.1-0.9,0.3
			c-0.2,0.2-0.3,0.4-0.3,0.8h-2.3c0-0.5,0.2-0.9,0.5-1.4c0.3-0.4,0.7-0.7,1.3-1c0.6-0.2,1.2-0.4,1.9-0.4c1,0,1.9,0.3,2.5,0.8
			s0.9,1.3,0.9,2.2v3.7c0,0.8,0.1,1.4,0.3,1.8v0.1h-2.4V342.5z M-5.6,340.9c0.3,0,0.6-0.1,0.9-0.2s0.5-0.3,0.6-0.6v-1.5h-0.8
			c-1.1,0-1.7,0.4-1.8,1.2v0.1c0,0.3,0.1,0.5,0.3,0.7C-6.2,340.8-6,340.9-5.6,340.9z"/>
		<path class="st8" d="M7.5,338.4c0,1.3-0.3,2.3-0.9,3.1c-0.6,0.8-1.4,1.2-2.4,1.2c-0.9,0-1.5-0.3-2.1-0.9v4h-2.3V334H2l0.1,0.8
			c0.5-0.7,1.3-1,2.1-1c1,0,1.9,0.4,2.4,1.2s0.9,1.8,0.9,3.2V338.4z M5.3,338.2c0-0.8-0.1-1.4-0.4-1.8s-0.7-0.6-1.2-0.6
			c-0.7,0-1.2,0.3-1.5,0.8v3.5c0.3,0.6,0.8,0.8,1.5,0.8C4.7,340.8,5.3,340,5.3,338.2z"/>
		<path class="st8" d="M13.8,342.5c-0.1-0.2-0.2-0.5-0.2-0.8c-0.5,0.6-1.3,0.9-2.1,0.9s-1.5-0.2-2.1-0.7c-0.5-0.5-0.8-1.1-0.8-1.8
			c0-0.9,0.3-1.6,1-2.1s1.6-0.7,2.9-0.7h1v-0.5c0-0.4-0.1-0.7-0.3-0.9c-0.2-0.2-0.5-0.4-0.9-0.4s-0.7,0.1-0.9,0.3
			c-0.2,0.2-0.3,0.4-0.3,0.8H8.8c0-0.5,0.2-0.9,0.5-1.4c0.3-0.4,0.7-0.7,1.3-1c0.6-0.2,1.2-0.4,1.9-0.4c1,0,1.9,0.3,2.5,0.8
			s0.9,1.3,0.9,2.2v3.7c0,0.8,0.1,1.4,0.3,1.8v0.1h-2.4V342.5z M12,340.9c0.3,0,0.6-0.1,0.9-0.2s0.5-0.3,0.6-0.6v-1.5h-0.8
			c-1.1,0-1.7,0.4-1.8,1.2v0.1c0,0.3,0.1,0.5,0.3,0.7C11.3,340.8,11.6,340.9,12,340.9z"/>
		<path class="st8" d="M21,340.8c0.4,0,0.8-0.1,1-0.3c0.3-0.2,0.4-0.5,0.4-0.9h2.1c0,0.6-0.2,1.1-0.5,1.6s-0.7,0.8-1.3,1.1
			c-0.5,0.3-1.1,0.4-1.8,0.4c-1.2,0-2.2-0.4-2.9-1.2c-0.7-0.8-1-1.8-1-3.2v-0.1c0-1.3,0.3-2.3,1-3.1c0.7-0.8,1.6-1.2,2.9-1.2
			c1.1,0,1.9,0.3,2.5,0.9s1,1.4,1,2.4h-2.1c0-0.4-0.1-0.8-0.4-1.1c-0.3-0.3-0.6-0.4-1-0.4c-0.5,0-0.9,0.2-1.2,0.6
			c-0.3,0.4-0.4,1-0.4,1.9v0.2c0,0.9,0.1,1.5,0.4,1.9S20.5,340.8,21,340.8z"/>
		<path class="st8" d="M25.8,331.9c0-0.3,0.1-0.6,0.3-0.8s0.5-0.3,0.9-0.3s0.7,0.1,0.9,0.3c0.2,0.2,0.3,0.5,0.3,0.8
			s-0.1,0.6-0.3,0.8c-0.2,0.2-0.5,0.3-0.9,0.3s-0.7-0.1-0.9-0.3S25.8,332.2,25.8,331.9z M28.2,342.5H26V334h2.3L28.2,342.5
			L28.2,342.5z"/>
		<path class="st8" d="M29.7,338.2c0-1.3,0.3-2.4,0.9-3.1c0.6-0.8,1.4-1.2,2.4-1.2c0.8,0,1.5,0.3,2,0.9v-4.3h2.3v12h-2l-0.1-0.9
			c-0.6,0.7-1.3,1.1-2.2,1.1c-1,0-1.8-0.4-2.4-1.2S29.7,339.6,29.7,338.2z M32,338.4c0,0.8,0.1,1.4,0.4,1.8c0.3,0.4,0.7,0.6,1.2,0.6
			c0.7,0,1.2-0.3,1.5-0.9v-3.3c-0.3-0.6-0.8-0.9-1.5-0.9C32.5,335.7,32,336.6,32,338.4z"/>
		<path class="st8" d="M44,342.5c-0.1-0.2-0.2-0.5-0.2-0.8c-0.5,0.6-1.3,0.9-2.1,0.9s-1.5-0.2-2.1-0.7c-0.5-0.5-0.8-1.1-0.8-1.8
			c0-0.9,0.3-1.6,1-2.1s1.6-0.7,2.9-0.7h1v-0.5c0-0.4-0.1-0.7-0.3-0.9c-0.2-0.2-0.5-0.4-0.9-0.4s-0.7,0.1-0.9,0.3
			c-0.2,0.2-0.3,0.4-0.3,0.8H39c0-0.5,0.2-0.9,0.5-1.4c0.3-0.4,0.7-0.7,1.3-1c0.6-0.2,1.2-0.4,1.9-0.4c1,0,1.9,0.3,2.5,0.8
			s0.9,1.3,0.9,2.2v3.7c0,0.8,0.1,1.4,0.3,1.8v0.1H44V342.5z M42.1,340.9c0.3,0,0.6-0.1,0.9-0.2s0.5-0.3,0.6-0.6v-1.5h-0.8
			c-1.1,0-1.7,0.4-1.8,1.2v0.1c0,0.3,0.1,0.5,0.3,0.7C41.5,340.8,41.8,340.9,42.1,340.9z"/>
		<path class="st8" d="M47.3,338.2c0-1.3,0.3-2.4,0.9-3.1c0.6-0.8,1.4-1.2,2.4-1.2c0.8,0,1.5,0.3,2,0.9v-4.3h2.3v12h-2l-0.1-0.9
			c-0.6,0.7-1.3,1.1-2.2,1.1c-1,0-1.8-0.4-2.4-1.2S47.3,339.6,47.3,338.2z M49.6,338.4c0,0.8,0.1,1.4,0.4,1.8
			c0.3,0.4,0.7,0.6,1.2,0.6c0.7,0,1.2-0.3,1.5-0.9v-3.3c-0.3-0.6-0.8-0.9-1.5-0.9C50.1,335.7,49.6,336.6,49.6,338.4z"/>
		<path class="st8" d="M62.8,334l0.1,1c0.6-0.8,1.4-1.1,2.4-1.1c0.9,0,1.6,0.3,2,0.8s0.7,1.3,0.7,2.4v5.5h-2.3v-5.4
			c0-0.5-0.1-0.8-0.3-1c-0.2-0.2-0.6-0.3-1-0.3c-0.6,0-1.1,0.3-1.4,0.8v6h-2.3V334H62.8z"/>
		<path class="st8" d="M69.3,338.2c0-0.8,0.2-1.6,0.5-2.2c0.3-0.7,0.8-1.2,1.4-1.5c0.6-0.4,1.3-0.5,2.1-0.5c1.1,0,2.1,0.3,2.8,1
			c0.7,0.7,1.1,1.6,1.2,2.8v0.6c0,1.3-0.4,2.3-1.1,3.1c-0.7,0.8-1.7,1.2-2.9,1.2s-2.2-0.4-2.9-1.2S69.3,339.7,69.3,338.2L69.3,338.2
			z M71.5,338.4c0,0.8,0.2,1.4,0.5,1.8s0.7,0.6,1.3,0.6c0.5,0,1-0.2,1.3-0.6s0.5-1.1,0.5-2c0-0.8-0.2-1.4-0.5-1.8s-0.7-0.6-1.3-0.6
			c-0.6,0-1,0.2-1.3,0.6S71.5,337.5,71.5,338.4z"/>
		<path class="st8" d="M80.8,334l0.1,0.9c0.6-0.7,1.4-1.1,2.4-1.1c1.1,0,1.8,0.4,2.2,1.3c0.6-0.9,1.4-1.3,2.5-1.3
			c0.9,0,1.6,0.3,2,0.8s0.7,1.3,0.7,2.4v5.4h-2.3V337c0-0.5-0.1-0.8-0.3-1.1s-0.5-0.3-1-0.3c-0.7,0-1.1,0.3-1.4,1v5.8h-2.3V337
			c0-0.5-0.1-0.8-0.3-1.1c-0.2-0.2-0.5-0.3-1-0.3c-0.6,0-1.1,0.3-1.4,0.8v6h-2.3V334H80.8z"/>
		<path class="st8" d="M92.5,331.9c0-0.3,0.1-0.6,0.3-0.8s0.5-0.3,0.9-0.3s0.7,0.1,0.9,0.3c0.2,0.2,0.3,0.5,0.3,0.8
			s-0.1,0.6-0.3,0.8c-0.2,0.2-0.5,0.3-0.9,0.3s-0.7-0.1-0.9-0.3S92.5,332.2,92.5,331.9z M94.9,342.5h-2.3V334h2.3V342.5z"/>
		<path class="st8" d="M98.9,334l0.1,1c0.6-0.8,1.4-1.1,2.4-1.1c0.9,0,1.6,0.3,2,0.8s0.7,1.3,0.7,2.4v5.5h-2.3v-5.4
			c0-0.5-0.1-0.8-0.3-1c-0.2-0.2-0.6-0.3-1-0.3c-0.6,0-1.1,0.3-1.4,0.8v6h-2.3V334H98.9z"/>
		<path class="st8" d="M110.6,342.5c-0.1-0.2-0.2-0.5-0.2-0.8c-0.5,0.6-1.3,0.9-2.1,0.9c-0.8,0-1.5-0.2-2.1-0.7
			c-0.5-0.5-0.8-1.1-0.8-1.8c0-0.9,0.3-1.6,1-2.1s1.6-0.7,2.9-0.7h1v-0.5c0-0.4-0.1-0.7-0.3-0.9c-0.2-0.2-0.5-0.4-0.9-0.4
			s-0.7,0.1-0.9,0.3c-0.2,0.2-0.3,0.4-0.3,0.8h-2.3c0-0.5,0.2-0.9,0.5-1.4c0.3-0.4,0.7-0.7,1.3-1c0.6-0.2,1.2-0.4,1.9-0.4
			c1,0,1.9,0.3,2.5,0.8s0.9,1.3,0.9,2.2v3.7c0,0.8,0.1,1.4,0.3,1.8v0.1h-2.4V342.5z M108.8,340.9c0.3,0,0.6-0.1,0.9-0.2
			s0.5-0.3,0.6-0.6v-1.5h-0.8c-1.1,0-1.7,0.4-1.8,1.2v0.1c0,0.3,0.1,0.5,0.3,0.7C108.2,340.8,108.4,340.9,108.8,340.9z"/>
		<path class="st8" d="M116.7,342.5h-2.3v-12h2.3V342.5z"/>
		<path class="st8" d="M118.7,335c0-0.4,0.1-0.7,0.4-0.9s0.5-0.3,0.9-0.3s0.7,0.1,0.9,0.3s0.4,0.5,0.4,0.9s-0.1,0.6-0.4,0.9
			c-0.2,0.2-0.5,0.3-0.9,0.3s-0.7-0.1-0.9-0.3C118.8,335.6,118.7,335.3,118.7,335z M118.7,341.4c0-0.4,0.1-0.7,0.4-0.9
			s0.5-0.3,0.9-0.3s0.7,0.1,0.9,0.3s0.4,0.5,0.4,0.9s-0.1,0.6-0.4,0.9c-0.2,0.2-0.5,0.3-0.9,0.3s-0.7-0.1-0.9-0.3
			C118.8,342,118.7,341.7,118.7,341.4z"/>
	</g>
	<g class="st7">
		<path class="st8" d="M128.6,334v0.9c0.6-0.7,1.5-1.1,2.5-1.1c1.2,0,2,0.5,2.4,1.4c0.3-0.4,0.6-0.7,1.1-1c0.5-0.2,1-0.4,1.6-0.4
			c1.9,0,2.8,1,2.8,2.9v5.7h-1.4v-5.6c0-0.6-0.1-1.1-0.4-1.4c-0.3-0.3-0.7-0.4-1.4-0.4c-0.5,0-1,0.2-1.3,0.5
			c-0.4,0.3-0.6,0.8-0.6,1.3v5.6h-1.5V337c0-1.2-0.6-1.8-1.8-1.8c-0.9,0-1.6,0.4-1.9,1.2v6.2h-1.4V334H128.6z"/>
		<path class="st8" d="M142.9,330.5h1.8l-2.1,2.3h-1.2L142.9,330.5z M142.9,342.5h-1.5V334h1.5V342.5z"/>
		<path class="st8" d="M146.6,334v1.1c0.6-0.8,1.5-1.2,2.5-1.2c1.8,0,2.7,1,2.7,3v5.6h-1.4v-5.6c0-0.6-0.1-1.1-0.4-1.4
			s-0.7-0.4-1.3-0.4c-0.5,0-0.9,0.1-1.2,0.4c-0.4,0.2-0.6,0.6-0.8,1v6h-1.4V334H146.6z"/>
		<path class="st8" d="M154.1,331.8c0-0.2,0.1-0.4,0.2-0.6c0.1-0.2,0.4-0.2,0.6-0.2s0.5,0.1,0.6,0.2c0.1,0.2,0.2,0.4,0.2,0.6
			s-0.1,0.4-0.2,0.6c-0.1,0.2-0.4,0.2-0.6,0.2s-0.5-0.1-0.6-0.2C154.2,332.2,154.1,332,154.1,331.8z M155.7,342.5h-1.4V334h1.4
			V342.5z"/>
		<path class="st8" d="M159.3,334v0.9c0.6-0.7,1.5-1.1,2.5-1.1c1.2,0,2,0.5,2.4,1.4c0.3-0.4,0.6-0.7,1.1-1c0.5-0.2,1-0.4,1.6-0.4
			c1.9,0,2.8,1,2.8,2.9v5.7h-1.4v-5.6c0-0.6-0.1-1.1-0.4-1.4c-0.3-0.3-0.7-0.4-1.4-0.4c-0.5,0-1,0.2-1.3,0.5
			c-0.4,0.3-0.6,0.8-0.6,1.3v5.6h-1.5V337c0-1.2-0.6-1.8-1.8-1.8c-0.9,0-1.6,0.4-1.9,1.2v6.2H158V334H159.3z"/>
		<path class="st8" d="M171.6,338.2c0-0.8,0.2-1.6,0.5-2.2c0.3-0.7,0.8-1.2,1.4-1.5c0.6-0.4,1.2-0.5,2-0.5c1.2,0,2.1,0.4,2.8,1.2
			s1.1,1.9,1.1,3.2v0.1c0,0.8-0.2,1.6-0.5,2.2c-0.3,0.7-0.8,1.2-1.4,1.5s-1.3,0.5-2,0.5c-1.1,0-2.1-0.4-2.8-1.2s-1.1-1.9-1.1-3.2
			V338.2z M173.1,338.4c0,0.9,0.2,1.7,0.7,2.3c0.4,0.6,1,0.9,1.7,0.9s1.3-0.3,1.8-0.9c0.4-0.6,0.6-1.4,0.6-2.4
			c0-0.9-0.2-1.7-0.7-2.3c-0.4-0.6-1-0.9-1.8-0.9c-0.7,0-1.3,0.3-1.7,0.9S173.1,337.3,173.1,338.4z"/>
	</g>
	<g class="st7">
		<path class="st8" d="M-14.3,366.5h-1.5v-9.6l-2.9,1.1v-1.3l4.1-1.6h0.2v11.4H-14.3z"/>
		<path class="st8" d="M-2.9,361.6c0,1.7-0.3,3-0.9,3.8s-1.5,1.2-2.7,1.2s-2.1-0.4-2.7-1.2c-0.6-0.8-0.9-2-0.9-3.6v-1.9
			c0-1.7,0.3-2.9,0.9-3.7s1.5-1.2,2.7-1.2s2.1,0.4,2.7,1.2s0.9,2,0.9,3.6V361.6z M-4.4,359.7c0-1.2-0.2-2.1-0.5-2.7
			s-0.9-0.8-1.6-0.8s-1.3,0.3-1.6,0.8c-0.3,0.6-0.5,1.4-0.5,2.6v2.3c0,1.2,0.2,2.1,0.5,2.7c0.4,0.6,0.9,0.9,1.6,0.9s1.2-0.3,1.6-0.8
			c0.3-0.6,0.5-1.4,0.5-2.6C-4.4,362.1-4.4,359.7-4.4,359.7z"/>
		<path class="st8" d="M6,361.6c0,1.7-0.3,3-0.9,3.8s-1.5,1.2-2.7,1.2s-2.1-0.4-2.7-1.2c-0.6-0.8-0.9-2-0.9-3.6v-1.9
			c0-1.7,0.3-2.9,0.9-3.7s1.5-1.2,2.7-1.2s2.1,0.4,2.7,1.2s0.9,2,0.9,3.6V361.6z M4.6,359.7c0-1.2-0.2-2.1-0.5-2.7s-0.9-0.8-1.6-0.8
			s-1.3,0.3-1.6,0.8c-0.3,0.6-0.5,1.4-0.5,2.6v2.3c0,1.2,0.2,2.1,0.5,2.7c0.4,0.6,0.9,0.9,1.6,0.9s1.2-0.3,1.6-0.8
			c0.3-0.6,0.5-1.4,0.5-2.6V359.7z"/>
		<path class="st8" d="M15,361.6c0,1.7-0.3,3-0.9,3.8s-1.5,1.2-2.7,1.2s-2.1-0.4-2.7-1.2c-0.6-0.8-0.9-2-0.9-3.6v-1.9
			c0-1.7,0.3-2.9,0.9-3.7s1.5-1.2,2.7-1.2s2.1,0.4,2.7,1.2s0.9,2,0.9,3.6V361.6z M13.6,359.7c0-1.2-0.2-2.1-0.5-2.7
			s-0.9-0.8-1.6-0.8c-0.7,0-1.3,0.3-1.6,0.8c-0.3,0.6-0.5,1.4-0.5,2.6v2.3c0,1.2,0.2,2.1,0.5,2.7c0.4,0.6,0.9,0.9,1.6,0.9
			c0.7,0,1.2-0.3,1.6-0.8c0.3-0.6,0.5-1.4,0.5-2.6V359.7z"/>
		<path class="st8" d="M23.4,362.6l-0.9,0.9v3H21v-12h1.4v7.3l0.8-0.9l2.6-2.8h1.8l-3.3,3.5l3.7,4.9h-1.7L23.4,362.6z"/>
		<path class="st8" d="M28.8,362.2c0-1.3,0.3-2.4,0.9-3.1s1.4-1.2,2.4-1.2s1.8,0.4,2.4,1.1l0.1-0.9h1.3v8.2c0,1.1-0.3,2-1,2.6
			s-1.5,0.9-2.6,0.9c-0.6,0-1.2-0.1-1.8-0.4c-0.6-0.3-1-0.6-1.3-1.1l0.8-0.9c0.6,0.8,1.4,1.1,2.3,1.1c0.7,0,1.3-0.2,1.6-0.6
			c0.4-0.4,0.6-1,0.6-1.7v-0.7c-0.6,0.7-1.4,1-2.4,1s-1.8-0.4-2.4-1.2C29.1,364.7,28.8,363.6,28.8,362.2z M30.2,362.4
			c0,1,0.2,1.7,0.6,2.2s0.9,0.8,1.6,0.8c0.9,0,1.6-0.4,2-1.2v-3.9c-0.4-0.8-1.1-1.2-2-1.2c-0.7,0-1.3,0.3-1.6,0.8
			C30.4,360.5,30.2,361.3,30.2,362.4z"/>
	</g>
</g>
<g id="Grupo_102792" transform="translate(1440.252 524) rotate(90)">
	<circle id="Elipse_5047-3" class="st9" cx="-216.5" cy="1174.1" r="8"/>
	<line id="Línea_343-3" class="st10" x1="-216" y1="1171.2" x2="-216" y2="1131"/>
</g>
</svg>
