<svg xmlns="http://www.w3.org/2000/svg" xmlns:xlink="http://www.w3.org/1999/xlink" width="271" height="185" viewBox="0 0 271 185">
  <defs>
    <clipPath id="clip-path">
      <rect id="Rect치ngulo_34556" data-name="Rect치ngulo 34556" width="271" height="185" transform="translate(0 -0.349)" fill="#dc9ce8"/>
    </clipPath>
  </defs>
  <g id="Grupo_103052" data-name="Grupo 103052" transform="translate(-705 -4314)">
    <g id="Grupo_103041" data-name="Grupo 103041" transform="translate(0 485)">
      <rect id="Rect치ngulo_34374" data-name="Rect치ngulo 34374" width="271" height="185" transform="translate(705 3829)" fill="#f739a8" opacity="0.184"/>
      <g id="Grupo_103038" data-name="Grupo 103038" transform="translate(420 2489)">
        <g id="Enmascarar_grupo_82" data-name="Enmascarar grupo 82" transform="translate(285 1340.349)" opacity="0.24" clip-path="url(#clip-path)">
          <path id="Trazado_159232" data-name="Trazado 159232" d="M8.484,231.291l252.56-9.984c5.207-.206,9.6-4.1,9.8-8.7l9.2-205.349c.206-4.6-3.849-8.157-9.056-7.951L18.425,9.295c-5.207.206-9.6,4.1-9.8,8.7L-.572,223.34C-.778,227.937,3.277,231.5,8.484,231.291Z" transform="translate(48.178 2.645) rotate(17)" fill="#dc9ce8"/>
        </g>
      </g>
    </g>
    <g id="Grupo_103049" data-name="Grupo 103049" transform="translate(-1171.887 3702.376)">
      <g id="Grupo_103050" data-name="Grupo 103050" transform="translate(1887.887 684.624)">
        <ellipse id="Elipse_4975" data-name="Elipse 4975" cx="27.625" cy="12.698" rx="27.625" ry="12.698" transform="translate(5.007 63.102)" fill="#999" opacity="0.331" style="mix-blend-mode: multiply;isolation: isolate"/>
        <g id="Grupo_101065" data-name="Grupo 101065" transform="translate(0 16.989)">
          <path id="Trazado_156435" data-name="Trazado 156435" d="M2027.4,691.558c9.436-19.63-3.375-26.074-8.041-25.171a28.341,28.341,0,0,1-7.874,1.069c-8.79,0-15.915-3.653-15.915-8.158a4.514,4.514,0,0,1,.5-2.039c-1.817,2.658-4.177-1.6-1.543-5.126-13.383,5.321-19.132,18.849-13.559,38.086a51.332,51.332,0,0,0,2.267,6.319C1988.943,707.431,2017.971,711.177,2027.4,691.558Z" transform="translate(-1978.855 -651.141)" fill="#f15a24"/>
          <path id="Trazado_156436" data-name="Trazado 156436" d="M2021.474,660.229c2.133,6.8-2.719,2.757-4.958,6.322,4.8-1.4,8.041-4.052,8.041-7.088,0-4.5-7.125-8.157-15.915-8.157-7.416,0-13.647,2.6-15.414,6.118C1995.528,654.059,2019.343,653.424,2021.474,660.229Z" transform="translate(-1976.009 -651.305)" fill="#ba451c"/>
        </g>
        <g id="Grupo_101066" data-name="Grupo 101066" transform="translate(16.717 16.989)">
          <path id="Trazado_156437" data-name="Trazado 156437" d="M2008.724,651.3c-8.79,0-15.915,3.653-15.915,8.157s7.125,8.158,15.915,8.158,15.915-3.653,15.915-8.158S2017.514,651.3,2008.724,651.3Zm0,13.985c-4.27,0-7.731-1.774-7.731-3.963s3.461-3.963,7.731-3.963,7.73,1.774,7.73,3.963S2012.994,665.29,2008.724,665.29Z" transform="translate(-1992.809 -651.305)" fill="#ba451c"/>
          <ellipse id="Elipse_4976" data-name="Elipse 4976" cx="7.73" cy="3.962" rx="7.73" ry="3.962" transform="translate(8.185 6.06)" fill="#813013"/>
        </g>
        <path id="Trazado_156438" data-name="Trazado 156438" d="M1989.186,661.676c1.8,6.192,15.554,10.37,25.223,9.108s4.6,16.536-11.222,19.057-23.048-11.871-21.174-21.494S1987.925,657.332,1989.186,661.676Z" transform="translate(-1978.287 -632.727)" fill="#f78b41"/>
        <g id="Grupo_101067" data-name="Grupo 101067" transform="translate(4.382 15.468)">
          <path id="Trazado_156439" data-name="Trazado 156439" d="M2010.762,650.091a40.861,40.861,0,0,0-16.958,2.457c-2.634,3.527-.274,7.784,1.543,5.126,1.767-3.518,8-6.118,15.414-6.118,8.79,0,15.915,3.653,15.915,8.157,0,3.037-3.239,5.684-8.041,7.088,4.666-.9,17.477,5.542,8.041,25.172s-38.458,15.873-44.165,4.98c8.441,19.254,23.952,16.842,28.25,15.822,29.02-8.707,30.06-48.285,15.915-49.119,18.83-3.557,17.67,21.524,9.5,38.623a43.536,43.536,0,0,0,5.1-11.644C2048.829,664.571,2035.615,648.97,2010.762,650.091Z" transform="translate(-1982.513 -650.035)" fill="#ba451c"/>
          <path id="Trazado_156440" data-name="Trazado 156440" d="M2022.009,661.461c14.145.834,13.1,40.412-15.915,49.119,3.85.915,16.707,2.946,25.411-10.5C2039.679,682.985,2040.839,657.9,2022.009,661.461Z" transform="translate(-1977.844 -647.84)" fill="#813013"/>
        </g>
        <path id="Trazado_156441" data-name="Trazado 156441" d="M2007.022,667.084c2.7-13.858,13.326-26.19,13.326-26.19,1.519-3.456-2.312-4.671-4.086-3.082s-9.937,16.134-11.182,29.272C2005.2,668.582,2006.794,668.166,2007.022,667.084Z" transform="translate(-1973.663 -637.123)" fill="#311b0b"/>
      </g>
      <g id="Grupo_101073" data-name="Grupo 101073" transform="translate(1967.198 689.624)">
        <g id="Grupo_103051" data-name="Grupo 103051" transform="translate(45.421 -60)">
          <g id="Grupo_101070" data-name="Grupo 101070" transform="translate(0 17.252)">
            <path id="Trazado_156443" data-name="Trazado 156443" d="M1974.06,719.481s1.907-2.438,7.483-2.144,23.477,3.814,49.446,1.16,34.48-14.8,38.735-20.381,5.576-7.336,8.976-6.867c.7,1.234,1.332,2.355,1.332,2.355s.27.176.153,1.214c-18.153,30.3-60.28,38.236-85,35.871-19.121-1.829-17.641-1.772-12.358,3.488a43.818,43.818,0,0,1-7.6-5.983s-2.935-2.2-2.788-4.988S1974.06,719.481,1974.06,719.481Z" transform="translate(-1972.441 -691.176)" fill="#fbb03b"/>
            <path id="Trazado_156444" data-name="Trazado 156444" d="M1988.277,730.086c24.717,2.365,66.843-5.569,85-35.871-.206,1.843-1.631,6.412-7.967,17.6-9.9,17.5-43.578,26.411-57.993,29.051a52.194,52.194,0,0,0-7.341,1.874,63.473,63.473,0,0,1-24.054-9.169C1970.635,728.314,1969.156,728.257,1988.277,730.086Z" transform="translate(-1965.529 -690.574)" fill="#c2882e"/>
          </g>
          <g id="Grupo_101071" data-name="Grupo 101071" transform="translate(19.162)">
            <path id="Trazado_156445" data-name="Trazado 156445" d="M1964.1,753.567c1.32-.036,1.393.991,2.164.258.621-.591,3.72-4.678,12.43-7.628a52.2,52.2,0,0,1,7.341-1.874c14.415-2.64,48.089-11.554,57.993-29.051s7.813-18.818,7.813-18.818-.63-1.121-1.332-2.355c-.178-.314-.36-.634-.539-.946-.879-1.541,1.1-3.411,3.3-9.683s1.871-5.869,2.861-6.419,6.75-.4,6.236,1.614c0,0-.777,13.6.467,18.04-2.983-1.439-3.631,2.464-3.989,6.757-.439,5.282-3.081,27-29.344,40.055s-57.663,13.058-60.744,12.912c-2.263-.108-3.257,2.63-3.626,4.092-1.016-.294-1.362-.441-1.362-1.452C1963.772,757.455,1962.781,753.6,1964.1,753.567Z" transform="translate(-1963.415 -676.774)" fill="#fbb03b"/>
            <path id="Trazado_156446" data-name="Trazado 156446" d="M1962.115,753.185c3.081.146,34.48.146,60.744-12.912s28.9-34.774,29.344-40.056c.358-4.292,1.006-8.2,3.989-6.757a4.673,4.673,0,0,0,.266.74c1.614,3.375,13.059,19.807-2.2,37.561s-38.881,27.731-56.489,30.225-33.6-2.494-36.681-3.814a20.081,20.081,0,0,0-2.6-.9C1958.858,755.815,1959.853,753.077,1962.115,753.185Z" transform="translate(-1956.77 -673.531)" fill="#c2882e"/>
          </g>
        </g>
      </g>
      <g id="Grupo_101068" data-name="Grupo 101068" transform="translate(1959.198 629.624)">
        <ellipse id="Elipse_4975-2" data-name="Elipse 4975" cx="27.625" cy="12.698" rx="27.625" ry="12.698" transform="translate(5.007 63.102)" fill="#999" opacity="0.331" style="mix-blend-mode: multiply;isolation: isolate"/>
        <g id="Grupo_101065-2" data-name="Grupo 101065" transform="translate(0 16.989)">
          <path id="Trazado_156435-2" data-name="Trazado 156435" d="M2027.4,691.558c9.436-19.63-3.375-26.074-8.041-25.171a28.341,28.341,0,0,1-7.874,1.069c-8.79,0-15.915-3.653-15.915-8.158a4.514,4.514,0,0,1,.5-2.039c-1.817,2.658-4.177-1.6-1.543-5.126-13.383,5.321-19.132,18.849-13.559,38.086a51.332,51.332,0,0,0,2.267,6.319C1988.943,707.431,2017.971,711.177,2027.4,691.558Z" transform="translate(-1978.855 -651.141)" fill="#f15a24"/>
          <path id="Trazado_156436-2" data-name="Trazado 156436" d="M2021.474,660.229c2.133,6.8-2.719,2.757-4.958,6.322,4.8-1.4,8.041-4.052,8.041-7.088,0-4.5-7.125-8.157-15.915-8.157-7.416,0-13.647,2.6-15.414,6.118C1995.528,654.059,2019.343,653.424,2021.474,660.229Z" transform="translate(-1976.009 -651.305)" fill="#ba451c"/>
        </g>
        <g id="Grupo_101066-2" data-name="Grupo 101066" transform="translate(16.717 16.989)">
          <path id="Trazado_156437-2" data-name="Trazado 156437" d="M2008.724,651.3c-8.79,0-15.915,3.653-15.915,8.157s7.125,8.158,15.915,8.158,15.915-3.653,15.915-8.158S2017.514,651.3,2008.724,651.3Zm0,13.985c-4.27,0-7.731-1.774-7.731-3.963s3.461-3.963,7.731-3.963,7.73,1.774,7.73,3.963S2012.994,665.29,2008.724,665.29Z" transform="translate(-1992.809 -651.305)" fill="#ba451c"/>
          <ellipse id="Elipse_4976-2" data-name="Elipse 4976" cx="7.73" cy="3.962" rx="7.73" ry="3.962" transform="translate(8.185 6.06)" fill="#813013"/>
        </g>
        <path id="Trazado_156438-2" data-name="Trazado 156438" d="M1989.186,661.676c1.8,6.192,15.554,10.37,25.223,9.108s4.6,16.536-11.222,19.057-23.048-11.871-21.174-21.494S1987.925,657.332,1989.186,661.676Z" transform="translate(-1978.287 -632.727)" fill="#f78b41"/>
        <g id="Grupo_101067-2" data-name="Grupo 101067" transform="translate(4.382 15.468)">
          <path id="Trazado_156439-2" data-name="Trazado 156439" d="M2010.762,650.091a40.861,40.861,0,0,0-16.958,2.457c-2.634,3.527-.274,7.784,1.543,5.126,1.767-3.518,8-6.118,15.414-6.118,8.79,0,15.915,3.653,15.915,8.157,0,3.037-3.239,5.684-8.041,7.088,4.666-.9,17.477,5.542,8.041,25.172s-38.458,15.873-44.165,4.98c8.441,19.254,23.952,16.842,28.25,15.822,29.02-8.707,30.06-48.285,15.915-49.119,18.83-3.557,17.67,21.524,9.5,38.623a43.536,43.536,0,0,0,5.1-11.644C2048.829,664.571,2035.615,648.97,2010.762,650.091Z" transform="translate(-1982.513 -650.035)" fill="#ba451c"/>
          <path id="Trazado_156440-2" data-name="Trazado 156440" d="M2022.009,661.461c14.145.834,13.1,40.412-15.915,49.119,3.85.915,16.707,2.946,25.411-10.5C2039.679,682.985,2040.839,657.9,2022.009,661.461Z" transform="translate(-1977.844 -647.84)" fill="#813013"/>
        </g>
        <path id="Trazado_156441-2" data-name="Trazado 156441" d="M2007.022,667.084c2.7-13.858,13.326-26.19,13.326-26.19,1.519-3.456-2.312-4.671-4.086-3.082s-9.937,16.134-11.182,29.272C2005.2,668.582,2006.794,668.166,2007.022,667.084Z" transform="translate(-1973.663 -637.123)" fill="#311b0b"/>
      </g>
      <g id="Grupo_103053" data-name="Grupo 103053" transform="translate(1959.198 689.625)">
        <g id="Grupo_101070-2" data-name="Grupo 101070" transform="translate(16.714 17.252)">
          <path id="Trazado_156443-2" data-name="Trazado 156443" d="M2078.595,719.481s-1.907-2.438-7.483-2.144-23.477,3.814-49.446,1.16-34.48-14.8-38.735-20.381-5.575-7.336-8.975-6.867c-.7,1.234-1.332,2.355-1.332,2.355s-.27.176-.154,1.214c18.153,30.3,60.28,38.236,85,35.871,19.121-1.829,17.641-1.772,12.358,3.488a43.818,43.818,0,0,0,7.6-5.983s2.935-2.2,2.788-4.988S2078.595,719.481,2078.595,719.481Z" transform="translate(-1972.441 -691.176)" fill="#fbb03b"/>
          <path id="Trazado_156444-2" data-name="Trazado 156444" d="M2057.461,730.086c-24.717,2.365-66.843-5.569-85-35.871.206,1.843,1.631,6.412,7.967,17.6,9.9,17.5,43.578,26.411,57.993,29.051a52.194,52.194,0,0,1,7.341,1.874,63.473,63.473,0,0,0,24.054-9.169C2075.1,728.314,2076.582,728.257,2057.461,730.086Z" transform="translate(-1972.436 -690.574)" fill="#c2882e"/>
        </g>
        <g id="Grupo_101071-2" data-name="Grupo 101071">
          <path id="Trazado_156445-2" data-name="Trazado 156445" d="M2062.151,753.566c-1.32-.036-1.393.991-2.164.258-.621-.591-3.72-4.678-12.43-7.628a52.211,52.211,0,0,0-7.341-1.874c-14.415-2.64-48.089-11.554-57.993-29.051s-7.813-18.818-7.813-18.818.63-1.121,1.332-2.355l.539-.946c.879-1.541-1.1-3.411-3.3-9.683s-1.871-5.869-2.861-6.419-6.75-.4-6.237,1.614c0,0,.777,13.6-.467,18.04,2.983-1.439,3.631,2.464,3.989,6.757.44,5.282,3.081,27,29.344,40.055s57.663,13.058,60.744,12.912c2.263-.108,3.257,2.63,3.626,4.092,1.016-.294,1.362-.441,1.362-1.452C2062.481,757.455,2063.472,753.6,2062.151,753.566Z" transform="translate(-1957.514 -676.774)" fill="#fbb03b"/>
          <path id="Trazado_156446-2" data-name="Trazado 156446" d="M2058.468,753.185c-3.081.146-34.48.146-60.744-12.912s-28.9-34.774-29.344-40.055c-.358-4.292-1.006-8.2-3.989-6.757a4.673,4.673,0,0,1-.266.74c-1.614,3.375-13.059,19.807,2.2,37.561s38.881,27.731,56.489,30.225,33.6-2.494,36.681-3.814a20.081,20.081,0,0,1,2.6-.9C2061.726,755.815,2060.731,753.077,2058.468,753.185Z" transform="translate(-1958.489 -673.531)" fill="#c2882e"/>
        </g>
      </g>
    </g>
  </g>
</svg>
