<svg xmlns="http://www.w3.org/2000/svg" xmlns:xlink="http://www.w3.org/1999/xlink" width="271" height="186" viewBox="0 0 271 186">
  <defs>
    <clipPath id="clip-path">
      <rect id="Rect치ngulo_34556" data-name="Rect치ngulo 34556" width="271" height="185" transform="translate(0 -0.349)" fill="#dc9ce8"/>
    </clipPath>
  </defs>
  <g id="Grupo_146955" data-name="Grupo 146955" transform="translate(-705 -4419)">
    <g id="Grupo_103057" data-name="Grupo 103057" transform="translate(0 -788)">
      <g id="Grupo_103044" data-name="Grupo 103044" transform="translate(0 1379)">
        <rect id="Rect치ngulo_34374" data-name="Rect치ngulo 34374" width="271" height="185" transform="translate(705 3829)" fill="#f739a8" opacity="0.184"/>
        <g id="Grupo_103038" data-name="Grupo 103038" transform="translate(420 2489)">
          <g id="Enmascarar_grupo_82" data-name="Enmascarar grupo 82" transform="translate(285 1340.349)" opacity="0.24" clip-path="url(#clip-path)">
            <path id="Trazado_159232" data-name="Trazado 159232" d="M8.484,231.291l252.56-9.984c5.207-.206,9.6-4.1,9.8-8.7l9.2-205.349c.206-4.6-3.849-8.157-9.056-7.951L18.425,9.295c-5.207.206-9.6,4.1-9.8,8.7L-.572,223.34C-.778,227.937,3.277,231.5,8.484,231.291Z" transform="translate(48.178 2.645) rotate(17)" fill="#dc9ce8"/>
          </g>
        </g>
      </g>
      <g id="Grupo_100947" data-name="Grupo 100947" transform="translate(723.176 5150.718)">
        <g id="Grupo_100924" data-name="Grupo 100924" transform="translate(109.788 56.282)">
          <g id="Grupo_100922" data-name="Grupo 100922">
            <g id="Grupo_100915" data-name="Grupo 100915" transform="translate(1.604 73.333)">
              <ellipse id="Elipse_4959" data-name="Elipse 4959" cx="30.141" cy="17.403" rx="30.141" ry="17.403" fill="#354e66"/>
              <g id="Grupo_100914" data-name="Grupo 100914" transform="translate(0.002 17.424)">
                <path id="Trazado_155812" data-name="Trazado 155812" d="M138.829,141.834c-11.771,6.8-30.855,6.8-42.626,0-5.867-3.388-8.809-7.825-8.826-12.266v1.286c-.019,4.467,2.922,8.938,8.826,12.346,11.771,6.8,30.855,6.8,42.626,0,5.886-3.4,8.829-7.852,8.829-12.3v-1.346C147.648,134,144.705,138.44,138.829,141.834Z" transform="translate(-87.377 -129.549)" fill="#293644"/>
              </g>
            </g>
            <path id="Trazado_155813" data-name="Trazado 155813" d="M139.8,117.973c-12.4,7.157-32.5,7.157-44.894,0a21.745,21.745,0,0,1-6.81-5.846V132.08c-.579,4.727,2.252,9.567,8.511,13.181,11.458,6.615,30.035,6.615,41.493,0,5.639-3.256,8.5-7.507,8.585-11.774h0v-.006c0-.132,0-.265,0-.4V112.029A21.645,21.645,0,0,1,139.8,117.973Z" transform="translate(-85.606 -43.275)" fill="#1b2735"/>
            <g id="Grupo_100917" data-name="Grupo 100917" transform="translate(1.604 48.965)">
              <ellipse id="Elipse_4960" data-name="Elipse 4960" cx="30.142" cy="17.403" rx="30.142" ry="17.403" fill="#354e66"/>
              <g id="Grupo_100916" data-name="Grupo 100916" transform="translate(0.002 17.424)">
                <path id="Trazado_155814" data-name="Trazado 155814" d="M138.829,122.43c-11.771,6.8-30.855,6.8-42.626,0-5.867-3.388-8.809-7.825-8.826-12.266v1.286c-.019,4.467,2.922,8.938,8.826,12.346,11.771,6.8,30.855,6.8,42.626,0,5.886-3.4,8.829-7.852,8.829-12.3v-1.346C147.648,114.592,144.705,119.036,138.829,122.43Z" transform="translate(-87.377 -110.145)" fill="#293644"/>
              </g>
            </g>
            <path id="Trazado_155815" data-name="Trazado 155815" d="M139.8,98.575c-12.4,7.157-32.5,7.157-44.894,0a21.744,21.744,0,0,1-6.81-5.846v19.953c-.579,4.727,2.252,9.567,8.511,13.181,11.458,6.615,30.035,6.615,41.493,0,5.639-3.256,8.5-7.507,8.585-11.774h0v-.006c0-.132,0-.265,0-.4V92.631A21.645,21.645,0,0,1,139.8,98.575Z" transform="translate(-85.606 -48.238)" fill="#1b2735"/>
            <g id="Grupo_100919" data-name="Grupo 100919" transform="translate(1.604 22.039)">
              <ellipse id="Elipse_4961" data-name="Elipse 4961" cx="30.142" cy="17.403" rx="30.142" ry="17.403" fill="#354e66"/>
              <g id="Grupo_100918" data-name="Grupo 100918" transform="translate(0.002 17.425)">
                <path id="Trazado_155816" data-name="Trazado 155816" d="M138.829,100.989c-11.771,6.8-30.855,6.8-42.626,0-5.867-3.388-8.809-7.825-8.826-12.265V90.01c-.019,4.467,2.922,8.938,8.826,12.346,11.771,6.8,30.855,6.8,42.626,0,5.886-3.4,8.829-7.852,8.829-12.3V88.706C147.648,93.152,144.705,97.6,138.829,100.989Z" transform="translate(-87.377 -88.706)" fill="#293644"/>
              </g>
            </g>
            <g id="Grupo_100920" data-name="Grupo 100920">
              <ellipse id="Elipse_4962" data-name="Elipse 4962" cx="31.746" cy="18.329" rx="31.746" ry="18.329" fill="#354e66"/>
              <ellipse id="Elipse_4963" data-name="Elipse 4963" cx="29.34" cy="16.94" rx="29.34" ry="16.94" transform="translate(2.406 1.389)" fill="#293644"/>
              <path id="Trazado_155817" data-name="Trazado 155817" d="M96.6,65.756c11.458-6.616,30.035-6.616,41.493,0,5.2,3,8.03,6.848,8.511,10.775.579-4.727-2.252-9.568-8.511-13.181-11.458-6.616-30.035-6.616-41.493,0-6.259,3.613-9.09,8.454-8.511,13.181C88.575,72.6,91.407,68.758,96.6,65.756Z" transform="translate(-85.606 -56.999)" fill="#1b2735"/>
              <path id="Trazado_155818" data-name="Trazado 155818" d="M140.29,84.829c-12.4,7.157-32.5,7.157-44.894,0-6.18-3.569-9.278-8.242-9.3-12.919v2.621c-.019,4.706,3.079,9.414,9.3,13,12.4,7.158,32.5,7.158,44.894,0,6.2-3.579,9.3-8.27,9.3-12.96V71.911C149.569,76.588,146.47,81.261,140.29,84.829Z" transform="translate(-86.098 -53.539)" fill="#293644"/>
            </g>
            <g id="Grupo_100921" data-name="Grupo 100921" transform="translate(2.414 28.052)">
              <path id="Trazado_155819" data-name="Trazado 155819" d="M139.8,85.563c-12.4,7.158-32.5,7.158-44.894,0a21.716,21.716,0,0,1-6.81-5.847v9.228c-.579,4.727,2.252,9.567,8.511,13.18,11.458,6.616,30.035,6.616,41.493,0,5.639-3.255,8.5-7.506,8.585-11.774h0v-.005c0-.132,0-.265,0-.4V79.619A21.645,21.645,0,0,1,139.8,85.563Z" transform="translate(-88.02 -79.619)" fill="#1b2735"/>
            </g>
          </g>
          <g id="Grupo_100923" data-name="Grupo 100923" transform="translate(16.29 10.638)">
            <path id="Trazado_155820" data-name="Trazado 155820" d="M112.373,73.227q2.73,1.575,2.811,3.167t-2.5,3.082a10.2,10.2,0,0,1-5.329,1.429,11.27,11.27,0,0,1-5.512-1.616q-2.7-1.558-2.773-3.16t2.5-3.086A10.155,10.155,0,0,1,106.9,71.6,11.246,11.246,0,0,1,112.373,73.227Zm-7.438,4.3q3.135,1.808,5.317.55,1.108-.64.883-1.389T109.3,75a7.526,7.526,0,0,0-2.935-1.067,3.9,3.9,0,0,0-2.4.491Q101.77,75.694,104.935,77.522Z" transform="translate(-99.069 -64.257)" fill="#fec110"/>
            <path id="Trazado_155821" data-name="Trazado 155821" d="M117.735,76.106l-10.809-6.242,2.935-1.7,10.81,6.242Z" transform="translate(-97.059 -65.135)" fill="#fec110"/>
            <path id="Trazado_155822" data-name="Trazado 155822" d="M121.933,73.68l-10.81-6.242,2.921-1.685,8.452,4.879,4.163-2.4,2.358,1.363Z" transform="translate(-95.985 -65.753)" fill="#fec110"/>
          </g>
          <path id="Trazado_155823" data-name="Trazado 155823" d="M131.2,155.975c5.885-3.4,8.827-7.852,8.827-12.3v-1.321a10.544,10.544,0,0,0-.809-4.053V123.308a10.554,10.554,0,0,0,.81-4.006v-1.32a10.55,10.55,0,0,0-.809-4.054V96.382a10.554,10.554,0,0,0,.81-4.006V91.031c0,.07-.008.141-.01.212a10.508,10.508,0,0,0-.8-4.222v-7.4a18.252,18.252,0,0,1-2.876,3.118c-.063.054-.131.107-.193.161-.227.192-.456.384-.7.574-.138.107-.285.211-.427.318-.18.133-.353.269-.539.4-.206.146-.424.288-.64.431-.134.089-.261.18-.4.268q-.539.345-1.111.676c-.825.476-1.688.916-2.576,1.327-1.448,22.4-4.874,49.54-12.571,73.646A39.463,39.463,0,0,0,131.2,155.975Z" transform="translate(-78.143 -51.567)" fill="#d4d4d4" style="mix-blend-mode: multiply;isolation: isolate"/>
        </g>
        <g id="Grupo_103056" data-name="Grupo 103056" transform="translate(173.279 91.757)">
          <g id="Grupo_100922-2" data-name="Grupo 100922">
            <g id="Grupo_100915-2" data-name="Grupo 100915" transform="translate(1.604 73.333)">
              <ellipse id="Elipse_4959-2" data-name="Elipse 4959" cx="30.141" cy="17.403" rx="30.141" ry="17.403" fill="#354e66"/>
              <g id="Grupo_100914-2" data-name="Grupo 100914" transform="translate(0.002 17.424)">
                <path id="Trazado_155812-2" data-name="Trazado 155812" d="M138.829,141.834c-11.771,6.8-30.855,6.8-42.626,0-5.867-3.388-8.809-7.825-8.826-12.266v1.286c-.019,4.467,2.922,8.938,8.826,12.346,11.771,6.8,30.855,6.8,42.626,0,5.886-3.4,8.829-7.852,8.829-12.3v-1.346C147.648,134,144.705,138.44,138.829,141.834Z" transform="translate(-87.377 -129.549)" fill="#293644"/>
              </g>
            </g>
            <path id="Trazado_155813-2" data-name="Trazado 155813" d="M139.8,117.973c-12.4,7.157-32.5,7.157-44.894,0a21.745,21.745,0,0,1-6.81-5.846V132.08c-.579,4.727,2.252,9.567,8.511,13.181,11.458,6.615,30.035,6.615,41.493,0,5.639-3.256,8.5-7.507,8.585-11.774h0v-.006c0-.132,0-.265,0-.4V112.029A21.645,21.645,0,0,1,139.8,117.973Z" transform="translate(-85.606 -43.275)" fill="#1b2735"/>
            <g id="Grupo_100917-2" data-name="Grupo 100917" transform="translate(1.604 48.965)">
              <ellipse id="Elipse_4960-2" data-name="Elipse 4960" cx="30.142" cy="17.403" rx="30.142" ry="17.403" fill="#354e66"/>
              <g id="Grupo_100916-2" data-name="Grupo 100916" transform="translate(0.002 17.424)">
                <path id="Trazado_155814-2" data-name="Trazado 155814" d="M138.829,122.43c-11.771,6.8-30.855,6.8-42.626,0-5.867-3.388-8.809-7.825-8.826-12.266v1.286c-.019,4.467,2.922,8.938,8.826,12.346,11.771,6.8,30.855,6.8,42.626,0,5.886-3.4,8.829-7.852,8.829-12.3v-1.346C147.648,114.592,144.705,119.036,138.829,122.43Z" transform="translate(-87.377 -110.145)" fill="#293644"/>
              </g>
            </g>
            <path id="Trazado_155815-2" data-name="Trazado 155815" d="M139.8,98.575c-12.4,7.157-32.5,7.157-44.894,0a21.744,21.744,0,0,1-6.81-5.846v19.953c-.579,4.727,2.252,9.567,8.511,13.181,11.458,6.615,30.035,6.615,41.493,0,5.639-3.256,8.5-7.507,8.585-11.774h0v-.006c0-.132,0-.265,0-.4V92.631A21.645,21.645,0,0,1,139.8,98.575Z" transform="translate(-85.606 -48.238)" fill="#1b2735"/>
            <g id="Grupo_100919-2" data-name="Grupo 100919" transform="translate(1.604 22.039)">
              <ellipse id="Elipse_4961-2" data-name="Elipse 4961" cx="30.142" cy="17.403" rx="30.142" ry="17.403" fill="#354e66"/>
              <g id="Grupo_100918-2" data-name="Grupo 100918" transform="translate(0.002 17.425)">
                <path id="Trazado_155816-2" data-name="Trazado 155816" d="M138.829,100.989c-11.771,6.8-30.855,6.8-42.626,0-5.867-3.388-8.809-7.825-8.826-12.265V90.01c-.019,4.467,2.922,8.938,8.826,12.346,11.771,6.8,30.855,6.8,42.626,0,5.886-3.4,8.829-7.852,8.829-12.3V88.706C147.648,93.152,144.705,97.6,138.829,100.989Z" transform="translate(-87.377 -88.706)" fill="#293644"/>
              </g>
            </g>
            <g id="Grupo_100920-2" data-name="Grupo 100920">
              <ellipse id="Elipse_4962-2" data-name="Elipse 4962" cx="31.746" cy="18.329" rx="31.746" ry="18.329" fill="#354e66"/>
              <ellipse id="Elipse_4963-2" data-name="Elipse 4963" cx="29.34" cy="16.94" rx="29.34" ry="16.94" transform="translate(2.406 1.389)" fill="#293644"/>
              <path id="Trazado_155817-2" data-name="Trazado 155817" d="M96.6,65.756c11.458-6.616,30.035-6.616,41.493,0,5.2,3,8.03,6.848,8.511,10.775.579-4.727-2.252-9.568-8.511-13.181-11.458-6.616-30.035-6.616-41.493,0-6.259,3.613-9.09,8.454-8.511,13.181C88.575,72.6,91.407,68.758,96.6,65.756Z" transform="translate(-85.606 -56.999)" fill="#1b2735"/>
              <path id="Trazado_155818-2" data-name="Trazado 155818" d="M140.29,84.829c-12.4,7.157-32.5,7.157-44.894,0-6.18-3.569-9.278-8.242-9.3-12.919v2.621c-.019,4.706,3.079,9.414,9.3,13,12.4,7.158,32.5,7.158,44.894,0,6.2-3.579,9.3-8.27,9.3-12.96V71.911C149.569,76.588,146.47,81.261,140.29,84.829Z" transform="translate(-86.098 -53.539)" fill="#293644"/>
            </g>
            <g id="Grupo_100921-2" data-name="Grupo 100921" transform="translate(2.414 28.052)">
              <path id="Trazado_155819-2" data-name="Trazado 155819" d="M139.8,85.563c-12.4,7.158-32.5,7.158-44.894,0a21.716,21.716,0,0,1-6.81-5.847v9.228c-.579,4.727,2.252,9.567,8.511,13.18,11.458,6.616,30.035,6.616,41.493,0,5.639-3.255,8.5-7.506,8.585-11.774h0v-.005c0-.132,0-.265,0-.4V79.619A21.645,21.645,0,0,1,139.8,85.563Z" transform="translate(-88.02 -79.619)" fill="#1b2735"/>
            </g>
          </g>
          <g id="Grupo_100923-2" data-name="Grupo 100923" transform="translate(16.29 10.638)">
            <path id="Trazado_155820-2" data-name="Trazado 155820" d="M112.373,73.227q2.73,1.575,2.811,3.167t-2.5,3.082a10.2,10.2,0,0,1-5.329,1.429,11.27,11.27,0,0,1-5.512-1.616q-2.7-1.558-2.773-3.16t2.5-3.086A10.155,10.155,0,0,1,106.9,71.6,11.246,11.246,0,0,1,112.373,73.227Zm-7.438,4.3q3.135,1.808,5.317.55,1.108-.64.883-1.389T109.3,75a7.526,7.526,0,0,0-2.935-1.067,3.9,3.9,0,0,0-2.4.491Q101.77,75.694,104.935,77.522Z" transform="translate(-99.069 -64.257)" fill="#fec110"/>
            <path id="Trazado_155821-2" data-name="Trazado 155821" d="M117.735,76.106l-10.809-6.242,2.935-1.7,10.81,6.242Z" transform="translate(-97.059 -65.135)" fill="#fec110"/>
            <path id="Trazado_155822-2" data-name="Trazado 155822" d="M121.933,73.68l-10.81-6.242,2.921-1.685,8.452,4.879,4.163-2.4,2.358,1.363Z" transform="translate(-95.985 -65.753)" fill="#fec110"/>
          </g>
          <path id="Trazado_155823-2" data-name="Trazado 155823" d="M131.2,155.975c5.885-3.4,8.827-7.852,8.827-12.3v-1.321a10.544,10.544,0,0,0-.809-4.053V123.308a10.554,10.554,0,0,0,.81-4.006v-1.32a10.55,10.55,0,0,0-.809-4.054V96.382a10.554,10.554,0,0,0,.81-4.006V91.031c0,.07-.008.141-.01.212a10.508,10.508,0,0,0-.8-4.222v-7.4a18.252,18.252,0,0,1-2.876,3.118c-.063.054-.131.107-.193.161-.227.192-.456.384-.7.574-.138.107-.285.211-.427.318-.18.133-.353.269-.539.4-.206.146-.424.288-.64.431-.134.089-.261.18-.4.268q-.539.345-1.111.676c-.825.476-1.688.916-2.576,1.327-1.448,22.4-4.874,49.54-12.571,73.646A39.463,39.463,0,0,0,131.2,155.975Z" transform="translate(-78.143 -51.567)" fill="#d4d4d4" style="mix-blend-mode: multiply;isolation: isolate"/>
        </g>
        <g id="Grupo_100935" data-name="Grupo 100935" transform="translate(46.109 79.182)">
          <g id="Grupo_100933" data-name="Grupo 100933">
            <g id="Grupo_100926" data-name="Grupo 100926" transform="translate(1.604 73.333)">
              <ellipse id="Elipse_4964" data-name="Elipse 4964" cx="30.142" cy="17.403" rx="30.142" ry="17.403" fill="#354e66"/>
              <g id="Grupo_100925" data-name="Grupo 100925" transform="translate(0.002 17.424)">
                <path id="Trazado_155824" data-name="Trazado 155824" d="M99.555,159.284c-11.771,6.8-30.855,6.8-42.626,0-5.867-3.388-8.809-7.825-8.826-12.266V148.3c-.019,4.468,2.922,8.939,8.826,12.348,11.771,6.8,30.855,6.8,42.626,0,5.886-3.4,8.829-7.852,8.829-12.306V147C108.374,151.446,105.431,155.89,99.555,159.284Z" transform="translate(-48.103 -146.999)" fill="#293644"/>
              </g>
            </g>
            <path id="Trazado_155825" data-name="Trazado 155825" d="M100.525,135.422c-12.4,7.158-32.5,7.158-44.894,0a21.727,21.727,0,0,1-6.81-5.846V149.53c-.579,4.727,2.252,9.567,8.512,13.18,11.457,6.616,30.034,6.616,41.492,0,5.639-3.255,8.5-7.506,8.585-11.774h0v-.005c0-.133,0-.265,0-.4V129.478A21.631,21.631,0,0,1,100.525,135.422Z" transform="translate(-46.332 -60.725)" fill="#1b2735"/>
            <g id="Grupo_100928" data-name="Grupo 100928" transform="translate(1.604 48.964)">
              <ellipse id="Elipse_4965" data-name="Elipse 4965" cx="30.142" cy="17.403" rx="30.142" ry="17.403" fill="#354e66"/>
              <g id="Grupo_100927" data-name="Grupo 100927" transform="translate(0.002 17.424)">
                <path id="Trazado_155826" data-name="Trazado 155826" d="M99.555,139.88c-11.771,6.8-30.855,6.8-42.626,0-5.867-3.388-8.809-7.825-8.826-12.266V128.9c-.019,4.468,2.922,8.939,8.826,12.348,11.771,6.8,30.855,6.8,42.626,0,5.886-3.4,8.829-7.852,8.829-12.3V127.6C108.374,132.042,105.431,136.486,99.555,139.88Z" transform="translate(-48.103 -127.595)" fill="#293644"/>
              </g>
            </g>
            <path id="Trazado_155827" data-name="Trazado 155827" d="M100.525,116.025c-12.4,7.157-32.5,7.157-44.894,0a21.745,21.745,0,0,1-6.81-5.847v19.954c-.579,4.727,2.252,9.567,8.512,13.18,11.457,6.616,30.034,6.616,41.492,0,5.639-3.255,8.5-7.506,8.585-11.774h0v-.005c0-.133,0-.265,0-.4V110.08A21.649,21.649,0,0,1,100.525,116.025Z" transform="translate(-46.332 -65.688)" fill="#1b2735"/>
            <g id="Grupo_100930" data-name="Grupo 100930" transform="translate(1.604 22.039)">
              <ellipse id="Elipse_4966" data-name="Elipse 4966" cx="30.142" cy="17.403" rx="30.142" ry="17.403" fill="#354e66"/>
              <g id="Grupo_100929" data-name="Grupo 100929" transform="translate(0.002 17.424)">
                <path id="Trazado_155828" data-name="Trazado 155828" d="M99.555,118.44c-11.771,6.8-30.855,6.8-42.626,0-5.867-3.388-8.809-7.825-8.826-12.266v1.286c-.019,4.467,2.922,8.938,8.826,12.346,11.771,6.8,30.855,6.8,42.626,0,5.886-3.4,8.829-7.852,8.829-12.3v-1.346C108.374,110.6,105.431,115.046,99.555,118.44Z" transform="translate(-48.103 -106.155)" fill="#293644"/>
              </g>
            </g>
            <g id="Grupo_100931" data-name="Grupo 100931">
              <ellipse id="Elipse_4967" data-name="Elipse 4967" cx="31.746" cy="18.329" rx="31.746" ry="18.329" fill="#354e66"/>
              <ellipse id="Elipse_4968" data-name="Elipse 4968" cx="29.34" cy="16.94" rx="29.34" ry="16.94" transform="translate(2.406 1.389)" fill="#293644"/>
              <path id="Trazado_155829" data-name="Trazado 155829" d="M57.332,83.2c11.457-6.615,30.034-6.615,41.492,0,5.2,3,8.03,6.849,8.511,10.775.579-4.727-2.252-9.567-8.511-13.181-11.458-6.615-30.035-6.615-41.492,0-6.26,3.614-9.091,8.454-8.512,13.181C49.3,90.054,52.133,86.206,57.332,83.2Z" transform="translate(-46.332 -74.449)" fill="#1b2735"/>
              <path id="Trazado_155830" data-name="Trazado 155830" d="M101.016,102.278c-12.4,7.158-32.5,7.158-44.894,0-6.18-3.568-9.278-8.242-9.3-12.919v2.622c-.019,4.706,3.079,9.414,9.3,13,12.4,7.157,32.5,7.157,44.894,0,6.2-3.579,9.3-8.27,9.3-12.96V89.362C110.295,94.037,107.2,98.71,101.016,102.278Z" transform="translate(-46.824 -70.989)" fill="#293644"/>
            </g>
            <g id="Grupo_100932" data-name="Grupo 100932" transform="translate(2.414 28.052)">
              <path id="Trazado_155831" data-name="Trazado 155831" d="M100.525,103.013c-12.4,7.157-32.5,7.157-44.894,0a21.719,21.719,0,0,1-6.81-5.849v9.228c-.579,4.727,2.252,9.568,8.512,13.181,11.457,6.616,30.034,6.616,41.492,0,5.639-3.255,8.5-7.506,8.585-11.774h0V107.8c0-.133,0-.265,0-.4V97.069A21.631,21.631,0,0,1,100.525,103.013Z" transform="translate(-48.746 -97.069)" fill="#1b2735"/>
            </g>
          </g>
          <g id="Grupo_100934" data-name="Grupo 100934" transform="translate(16.29 10.638)">
            <path id="Trazado_155832" data-name="Trazado 155832" d="M73.1,90.676q2.73,1.577,2.811,3.169t-2.5,3.082a10.189,10.189,0,0,1-5.327,1.428,11.255,11.255,0,0,1-5.513-1.615q-2.7-1.56-2.773-3.16t2.5-3.087a10.154,10.154,0,0,1,5.324-1.443A11.273,11.273,0,0,1,73.1,90.676Zm-7.438,4.3q3.136,1.81,5.316.551,1.11-.64.884-1.39t-1.837-1.679a7.506,7.506,0,0,0-2.935-1.067,3.887,3.887,0,0,0-2.4.491Q62.5,93.144,65.661,94.971Z" transform="translate(-59.795 -81.706)" fill="#fec110"/>
            <path id="Trazado_155833" data-name="Trazado 155833" d="M78.463,93.556,67.651,87.314l2.936-1.7L81.4,91.861Z" transform="translate(-57.785 -82.584)" fill="#fec110"/>
            <path id="Trazado_155834" data-name="Trazado 155834" d="M82.66,91.13,71.85,84.889,74.77,83.2l8.452,4.88,4.163-2.4,2.358,1.361Z" transform="translate(-56.711 -83.202)" fill="#fec110"/>
          </g>
          <path id="Trazado_155835" data-name="Trazado 155835" d="M91.928,173.425c5.885-3.4,8.827-7.852,8.827-12.306V159.8a10.539,10.539,0,0,0-.809-4.053v-14.99a10.548,10.548,0,0,0,.81-4V135.43a10.544,10.544,0,0,0-.809-4.053V113.832a10.554,10.554,0,0,0,.81-4.006V108.48c0,.072-.008.142-.01.212a10.516,10.516,0,0,0-.8-4.222v-7.4a18.2,18.2,0,0,1-2.876,3.118c-.062.054-.131.107-.195.161-.226.192-.455.384-.7.573-.138.108-.285.212-.427.319-.18.133-.353.269-.539.4-.206.146-.424.288-.64.431-.133.089-.261.18-.4.267q-.539.345-1.111.676c-.825.476-1.688.916-2.576,1.327-1.448,22.4-4.874,49.54-12.571,73.646A39.463,39.463,0,0,0,91.928,173.425Z" transform="translate(-38.869 -69.017)" fill="#d4d4d4" style="mix-blend-mode: multiply;isolation: isolate"/>
        </g>
        <g id="Grupo_103054" data-name="Grupo 103054" transform="translate(-2.176 103.91)">
          <g id="Grupo_100933-2" data-name="Grupo 100933">
            <g id="Grupo_100926-2" data-name="Grupo 100926" transform="translate(1.604 73.333)">
              <ellipse id="Elipse_4964-2" data-name="Elipse 4964" cx="30.142" cy="17.403" rx="30.142" ry="17.403" fill="#354e66"/>
              <g id="Grupo_100925-2" data-name="Grupo 100925" transform="translate(0.002 17.424)">
                <path id="Trazado_155824-2" data-name="Trazado 155824" d="M99.555,159.284c-11.771,6.8-30.855,6.8-42.626,0-5.867-3.388-8.809-7.825-8.826-12.266V148.3c-.019,4.468,2.922,8.939,8.826,12.348,11.771,6.8,30.855,6.8,42.626,0,5.886-3.4,8.829-7.852,8.829-12.306V147C108.374,151.446,105.431,155.89,99.555,159.284Z" transform="translate(-48.103 -146.999)" fill="#293644"/>
              </g>
            </g>
            <path id="Trazado_155825-2" data-name="Trazado 155825" d="M100.525,135.422c-12.4,7.158-32.5,7.158-44.894,0a21.727,21.727,0,0,1-6.81-5.846V149.53c-.579,4.727,2.252,9.567,8.512,13.18,11.457,6.616,30.034,6.616,41.492,0,5.639-3.255,8.5-7.506,8.585-11.774h0v-.005c0-.133,0-.265,0-.4V129.478A21.631,21.631,0,0,1,100.525,135.422Z" transform="translate(-46.332 -60.725)" fill="#1b2735"/>
            <g id="Grupo_100928-2" data-name="Grupo 100928" transform="translate(1.604 48.964)">
              <ellipse id="Elipse_4965-2" data-name="Elipse 4965" cx="30.142" cy="17.403" rx="30.142" ry="17.403" fill="#354e66"/>
              <g id="Grupo_100927-2" data-name="Grupo 100927" transform="translate(0.002 17.424)">
                <path id="Trazado_155826-2" data-name="Trazado 155826" d="M99.555,139.88c-11.771,6.8-30.855,6.8-42.626,0-5.867-3.388-8.809-7.825-8.826-12.266V128.9c-.019,4.468,2.922,8.939,8.826,12.348,11.771,6.8,30.855,6.8,42.626,0,5.886-3.4,8.829-7.852,8.829-12.3V127.6C108.374,132.042,105.431,136.486,99.555,139.88Z" transform="translate(-48.103 -127.595)" fill="#293644"/>
              </g>
            </g>
            <path id="Trazado_155827-2" data-name="Trazado 155827" d="M100.525,116.025c-12.4,7.157-32.5,7.157-44.894,0a21.745,21.745,0,0,1-6.81-5.847v19.954c-.579,4.727,2.252,9.567,8.512,13.18,11.457,6.616,30.034,6.616,41.492,0,5.639-3.255,8.5-7.506,8.585-11.774h0v-.005c0-.133,0-.265,0-.4V110.08A21.649,21.649,0,0,1,100.525,116.025Z" transform="translate(-46.332 -65.688)" fill="#1b2735"/>
            <g id="Grupo_100930-2" data-name="Grupo 100930" transform="translate(1.604 22.039)">
              <ellipse id="Elipse_4966-2" data-name="Elipse 4966" cx="30.142" cy="17.403" rx="30.142" ry="17.403" fill="#354e66"/>
              <g id="Grupo_100929-2" data-name="Grupo 100929" transform="translate(0.002 17.424)">
                <path id="Trazado_155828-2" data-name="Trazado 155828" d="M99.555,118.44c-11.771,6.8-30.855,6.8-42.626,0-5.867-3.388-8.809-7.825-8.826-12.266v1.286c-.019,4.467,2.922,8.938,8.826,12.346,11.771,6.8,30.855,6.8,42.626,0,5.886-3.4,8.829-7.852,8.829-12.3v-1.346C108.374,110.6,105.431,115.046,99.555,118.44Z" transform="translate(-48.103 -106.155)" fill="#293644"/>
              </g>
            </g>
            <g id="Grupo_100931-2" data-name="Grupo 100931">
              <ellipse id="Elipse_4967-2" data-name="Elipse 4967" cx="31.746" cy="18.329" rx="31.746" ry="18.329" fill="#354e66"/>
              <ellipse id="Elipse_4968-2" data-name="Elipse 4968" cx="29.34" cy="16.94" rx="29.34" ry="16.94" transform="translate(2.406 1.389)" fill="#293644"/>
              <path id="Trazado_155829-2" data-name="Trazado 155829" d="M57.332,83.2c11.457-6.615,30.034-6.615,41.492,0,5.2,3,8.03,6.849,8.511,10.775.579-4.727-2.252-9.567-8.511-13.181-11.458-6.615-30.035-6.615-41.492,0-6.26,3.614-9.091,8.454-8.512,13.181C49.3,90.054,52.133,86.206,57.332,83.2Z" transform="translate(-46.332 -74.449)" fill="#1b2735"/>
              <path id="Trazado_155830-2" data-name="Trazado 155830" d="M101.016,102.278c-12.4,7.158-32.5,7.158-44.894,0-6.18-3.568-9.278-8.242-9.3-12.919v2.622c-.019,4.706,3.079,9.414,9.3,13,12.4,7.157,32.5,7.157,44.894,0,6.2-3.579,9.3-8.27,9.3-12.96V89.362C110.295,94.037,107.2,98.71,101.016,102.278Z" transform="translate(-46.824 -70.989)" fill="#293644"/>
            </g>
            <g id="Grupo_100932-2" data-name="Grupo 100932" transform="translate(2.414 28.052)">
              <path id="Trazado_155831-2" data-name="Trazado 155831" d="M100.525,103.013c-12.4,7.157-32.5,7.157-44.894,0a21.719,21.719,0,0,1-6.81-5.849v9.228c-.579,4.727,2.252,9.568,8.512,13.181,11.457,6.616,30.034,6.616,41.492,0,5.639-3.255,8.5-7.506,8.585-11.774h0V107.8c0-.133,0-.265,0-.4V97.069A21.631,21.631,0,0,1,100.525,103.013Z" transform="translate(-48.746 -97.069)" fill="#1b2735"/>
            </g>
          </g>
          <g id="Grupo_100934-2" data-name="Grupo 100934" transform="translate(16.29 10.638)">
            <path id="Trazado_155832-2" data-name="Trazado 155832" d="M73.1,90.676q2.73,1.577,2.811,3.169t-2.5,3.082a10.189,10.189,0,0,1-5.327,1.428,11.255,11.255,0,0,1-5.513-1.615q-2.7-1.56-2.773-3.16t2.5-3.087a10.154,10.154,0,0,1,5.324-1.443A11.273,11.273,0,0,1,73.1,90.676Zm-7.438,4.3q3.136,1.81,5.316.551,1.11-.64.884-1.39t-1.837-1.679a7.506,7.506,0,0,0-2.935-1.067,3.887,3.887,0,0,0-2.4.491Q62.5,93.144,65.661,94.971Z" transform="translate(-59.795 -81.706)" fill="#fec110"/>
            <path id="Trazado_155833-2" data-name="Trazado 155833" d="M78.463,93.556,67.651,87.314l2.936-1.7L81.4,91.861Z" transform="translate(-57.785 -82.584)" fill="#fec110"/>
            <path id="Trazado_155834-2" data-name="Trazado 155834" d="M82.66,91.13,71.85,84.889,74.77,83.2l8.452,4.88,4.163-2.4,2.358,1.361Z" transform="translate(-56.711 -83.202)" fill="#fec110"/>
          </g>
          <path id="Trazado_155835-2" data-name="Trazado 155835" d="M91.928,173.425c5.885-3.4,8.827-7.852,8.827-12.306V159.8a10.539,10.539,0,0,0-.809-4.053v-14.99a10.548,10.548,0,0,0,.81-4V135.43a10.544,10.544,0,0,0-.809-4.053V113.832a10.554,10.554,0,0,0,.81-4.006V108.48c0,.072-.008.142-.01.212a10.516,10.516,0,0,0-.8-4.222v-7.4a18.2,18.2,0,0,1-2.876,3.118c-.062.054-.131.107-.195.161-.226.192-.455.384-.7.573-.138.108-.285.212-.427.319-.18.133-.353.269-.539.4-.206.146-.424.288-.64.431-.133.089-.261.18-.4.267q-.539.345-1.111.676c-.825.476-1.688.916-2.576,1.327-1.448,22.4-4.874,49.54-12.571,73.646A39.463,39.463,0,0,0,91.928,173.425Z" transform="translate(-38.869 -69.017)" fill="#d4d4d4" style="mix-blend-mode: multiply;isolation: isolate"/>
        </g>
        <g id="Grupo_103055" data-name="Grupo 103055" transform="translate(53.959 135.093)">
          <g id="Grupo_100946" data-name="Grupo 100946" transform="translate(0 0)">
            <g id="Grupo_100944" data-name="Grupo 100944" transform="translate(0 0)">
              <g id="Grupo_100937" data-name="Grupo 100937" transform="translate(64.575)">
                <ellipse id="Elipse_4969" data-name="Elipse 4969" cx="17.403" cy="30.142" rx="17.403" ry="30.142" transform="translate(0 17.175) rotate(-29.568)" fill="#1b2735"/>
                <g id="Grupo_100936" data-name="Grupo 100936" transform="translate(15.156 6.537)">
                  <path id="Trazado_155836" data-name="Trazado 155836" d="M146.51,122.184c11.72,6.885,21.136,23.483,21.034,37.075-.051,6.775-2.46,11.522-6.313,13.729l1.118-.634c3.894-2.188,6.332-6.952,6.384-13.769.1-13.592-9.315-30.191-21.034-37.075-5.86-3.442-11.185-3.8-15.059-1.606l-1.169.664C135.342,118.381,140.659,118.747,146.51,122.184Z" transform="translate(-131.47 -118.527)" fill="#354e66"/>
                </g>
              </g>
              <path id="Trazado_155837" data-name="Trazado 155837" d="M125.115,134.823c12.344,7.251,22.261,24.734,22.153,39.048a21.74,21.74,0,0,1-1.724,8.809l17.355-9.846c4.4-1.829,7.211-6.68,7.265-13.907.1-13.23-9.067-29.388-20.474-36.089-5.615-3.3-10.722-3.685-14.477-1.656h0l0,0q-.175.094-.347.2l-18.314,10.39A21.641,21.641,0,0,1,125.115,134.823Z" transform="translate(-55.557 -111.629)" fill="#293644"/>
              <g id="Grupo_100939" data-name="Grupo 100939" transform="translate(43.38 12.025)">
                <ellipse id="Elipse_4970" data-name="Elipse 4970" cx="17.403" cy="30.142" rx="17.403" ry="30.142" transform="translate(0 17.175) rotate(-29.568)" fill="#1b2735"/>
                <g id="Grupo_100938" data-name="Grupo 100938" transform="translate(15.155 6.537)">
                  <path id="Trazado_155838" data-name="Trazado 155838" d="M129.633,131.759c11.718,6.885,21.136,23.483,21.034,37.075-.051,6.775-2.46,11.524-6.313,13.729l1.118-.634c3.894-2.188,6.332-6.952,6.384-13.769.1-13.592-9.315-30.191-21.034-37.075-5.86-3.442-11.185-3.8-15.059-1.606l-1.17.664C118.465,127.956,123.782,128.322,129.633,131.759Z" transform="translate(-114.592 -128.102)" fill="#354e66"/>
                </g>
              </g>
              <path id="Trazado_155839" data-name="Trazado 155839" d="M108.243,144.395c12.344,7.251,22.262,24.734,22.153,39.048a21.741,21.741,0,0,1-1.723,8.809l17.355-9.846c4.4-1.829,7.21-6.68,7.264-13.907.1-13.23-9.066-29.388-20.474-36.089-5.614-3.3-10.721-3.685-14.477-1.656h0l0,0q-.175.094-.347.2L99.677,141.34A21.643,21.643,0,0,1,108.243,144.395Z" transform="translate(-59.874 -109.18)" fill="#293644"/>
              <g id="Grupo_100941" data-name="Grupo 100941" transform="translate(19.961 25.311)">
                <ellipse id="Elipse_4971" data-name="Elipse 4971" cx="17.403" cy="30.142" rx="17.403" ry="30.142" transform="translate(0 17.175) rotate(-29.568)" fill="#1b2735"/>
                <g id="Grupo_100940" data-name="Grupo 100940" transform="translate(15.156 6.536)">
                  <path id="Trazado_155840" data-name="Trazado 155840" d="M110.985,142.338c11.72,6.885,21.137,23.484,21.034,37.075-.052,6.777-2.459,11.524-6.313,13.73l1.118-.634c3.9-2.189,6.332-6.952,6.385-13.77.1-13.591-9.315-30.191-21.034-37.075-5.86-3.442-11.186-3.8-15.06-1.606l-1.169.664C99.817,138.537,105.134,138.9,110.985,142.338Z" transform="translate(-95.945 -138.681)" fill="#354e66"/>
                </g>
              </g>
              <g id="Grupo_100942" data-name="Grupo 100942" transform="translate(0 33.877)">
                <ellipse id="Elipse_4972" data-name="Elipse 4972" cx="18.329" cy="31.746" rx="18.329" ry="31.746" transform="matrix(0.87, -0.493, 0.493, 0.87, 0, 18.089)" fill="#293644"/>
                <ellipse id="Elipse_4973" data-name="Elipse 4973" cx="16.94" cy="29.339" rx="16.94" ry="29.339" transform="translate(2.396 19.496) rotate(-29.568)" fill="#1b2735"/>
                <path id="Trazado_155841" data-name="Trazado 155841" d="M99.27,197.559C87.863,190.857,78.7,174.7,78.8,161.469c.045-6,2-10.363,5.173-12.719-4.4,1.829-7.211,6.68-7.265,13.907-.1,13.229,9.066,29.387,20.474,36.088,6.232,3.661,11.839,3.735,15.664.9C109.19,201.163,104.446,200.6,99.27,197.559Z" transform="translate(-65.752 -138.135)" fill="#354e66"/>
                <path id="Trazado_155842" data-name="Trazado 155842" d="M96.529,149.758c12.344,7.251,22.262,24.734,22.154,39.049-.054,7.136-2.591,12.137-6.65,14.46l2.279-1.294c4.1-2.3,6.67-7.323,6.724-14.5.108-14.315-9.809-31.8-22.153-39.048-6.171-3.626-11.781-4.006-15.861-1.692l-2.316,1.316C84.784,145.756,90.377,146.144,96.529,149.758Z" transform="translate(-64.727 -139.022)" fill="#354e66"/>
              </g>
              <g id="Grupo_100943" data-name="Grupo 100943" transform="translate(25.59 33.685)">
                <path id="Trazado_155843" data-name="Trazado 155843" d="M96.926,149.737c12.344,7.25,22.261,24.733,22.153,39.048a21.74,21.74,0,0,1-1.726,8.809l8.026-4.554c4.4-1.829,7.21-6.68,7.265-13.907.1-13.229-9.067-29.387-20.475-36.088-5.614-3.3-10.721-3.686-14.476-1.658h0l-.005,0c-.117.063-.231.129-.345.2l-8.984,5.1A21.647,21.647,0,0,1,96.926,149.737Z" transform="translate(-88.359 -140.145)" fill="#293644"/>
              </g>
            </g>
            <g id="Grupo_100945" data-name="Grupo 100945" transform="translate(19.562 57.146)">
              <path id="Trazado_155844" data-name="Trazado 155844" d="M94.881,171.353q.025-3.152,1.369-4.007t3.913.653a10.2,10.2,0,0,1,3.872,3.93,11.27,11.27,0,0,1,1.315,5.591q-.025,3.118-1.38,3.971t-3.918-.651a10.168,10.168,0,0,1-3.882-3.918A11.265,11.265,0,0,1,94.881,171.353Zm7.406,4.35q.028-3.621-2.144-4.9-1.106-.65-1.645-.083a3.771,3.771,0,0,0-.555,2.426,7.526,7.526,0,0,0,.521,3.081,3.892,3.892,0,0,0,1.609,1.841Q102.26,179.357,102.287,175.7Z" transform="translate(-80.662 -156.726)" fill="#eb9100"/>
              <path id="Trazado_155845" data-name="Trazado 155845" d="M93.986,164.93l-.094,12.483L90.969,175.7l.094-12.483Z" transform="translate(-81.663 -157.704)" fill="#eb9100"/>
              <path id="Trazado_155846" data-name="Trazado 155846" d="M90.632,162.969l-.094,12.483-2.907-1.709.073-9.758-4.144-2.435.02-2.724Z" transform="translate(-83.559 -158.826)" fill="#eb9100"/>
            </g>
          </g>
          <path id="Trazado_155847" data-name="Trazado 155847" d="M166.36,168l-.006,0,1.118-.634c3.894-2.188,6.332-6.952,6.384-13.769a40.211,40.211,0,0,0-3.392-15.578c-11.451,15.2-31.6,36.907-57.846,45a35.268,35.268,0,0,1,.555,6.311,21.719,21.719,0,0,1-1.726,8.809l6.179-3.505a10.613,10.613,0,0,0,4.115-1.32h0l1.118-.634a10.606,10.606,0,0,0,3.241-2.853l14.946-8.48a10.579,10.579,0,0,0,4.114-1.32h0l1.118-.634a10.606,10.606,0,0,0,3.241-2.853l12.722-7.217A10.612,10.612,0,0,0,166.36,168Z" transform="translate(-56.862 -107.003)" fill="#d4d4d4" style="mix-blend-mode: multiply;isolation: isolate"/>
        </g>
      </g>
    </g>
  </g>
</svg>
